<?xml version="1.0" encoding="UTF-8" standalone="no"?>
<svg xmlns:xlink="http://www.w3.org/1999/xlink" height="33.0px" width="33.0px" xmlns="http://www.w3.org/2000/svg">
  <g transform="matrix(1.0, 0.0, 0.0, 1.0, 0.5, 0.5)">
    <path d="M32.0 16.35 Q31.9 22.75 27.35 27.3 22.7 31.95 16.2 32.0 L16.0 32.0 Q9.35 32.0 4.7 27.3 0.3 22.95 0.05 16.9 L0.0 16.35 0.0 16.0 0.0 15.7 Q0.1 9.25 4.7 4.65 9.35 0.0 16.0 0.0 L16.2 0.0 Q22.7 0.05 27.35 4.65 32.0 9.35 32.0 16.0 L32.0 16.35 18.25 16.35 Q18.25 17.2 17.7 17.75 17.1 18.35 16.25 18.35 L16.2 18.35 16.2 32.0 M16.2 0.0 L16.2 14.35 16.25 14.35 Q17.1 14.35 17.7 14.9 18.25 15.5 18.25 16.35 M16.2 18.35 Q15.4 18.35 14.85 17.75 14.25 17.2 14.25 16.35 L0.0 16.35 M14.25 16.35 Q14.25 15.5 14.85 14.9 15.4 14.35 16.2 14.35" fill="none" stroke="#ffcc00" stroke-linecap="round" stroke-linejoin="round" stroke-width="1.0"/>
  </g>
</svg>
