<?xml version="1.0" encoding="UTF-8" standalone="no"?>
<svg xmlns:xlink="http://www.w3.org/1999/xlink" height="26.9px" width="29.2px" xmlns="http://www.w3.org/2000/svg">
  <g transform="matrix(1.0, 0.0, 0.0, 1.0, 0.0, 0.0)">
    <path d="M28.2 4.75 Q29.2 4.1 29.2 5.5 L29.0 7.4 28.3 7.0 28.25 8.35 27.9 9.7 27.3 11.8 Q28.65 15.8 25.8 20.5 24.25 23.1 22.75 23.9 L21.75 24.35 20.7 24.6 20.85 25.7 Q20.3 25.15 19.7 25.2 L18.4 25.4 17.15 25.65 15.7 25.55 16.1 26.9 13.8 25.25 12.9 25.15 12.3 25.8 11.95 25.2 11.4 24.7 9.2 23.75 7.45 22.65 Q6.35 21.9 5.7 21.65 L5.45 21.45 5.4 21.05 4.6 20.0 Q3.65 18.8 3.4 16.65 L2.85 13.1 1.85 10.2 1.65 9.15 Q1.5 8.4 1.2 8.3 L0.45 7.75 0.0 6.9 Q0.3 5.7 1.85 5.05 L4.5 4.25 4.9 4.25 5.0 4.0 Q4.85 3.0 5.3 2.0 5.8 0.65 6.65 0.5 7.55 0.3 8.55 1.3 L9.85 3.75 10.75 3.85 11.8 3.5 15.55 3.05 16.45 3.05 16.6 2.8 16.85 2.65 17.35 3.0 18.0 3.15 19.4 3.55 19.9 1.85 Q20.25 0.7 20.8 0.3 21.45 -0.15 22.55 0.1 23.1 0.3 23.75 2.4 24.35 4.35 24.6 4.3 26.25 3.7 26.95 3.65 28.6 3.4 28.2 4.75" fill="#ffffff" fill-rule="evenodd" stroke="none"/>
    <path d="M25.6 13.35 Q26.15 14.75 25.45 17.0 24.8 19.2 23.55 20.2 22.8 21.55 21.1 22.45 19.6 23.25 17.75 23.5 13.0 24.2 9.15 21.65 5.0 18.9 5.1 14.1 L6.45 16.15 7.95 18.1 9.8 19.35 11.7 20.45 Q12.45 20.95 14.05 21.25 L16.55 21.4 18.35 21.05 Q19.7 20.75 19.65 20.55 L21.25 19.15 22.95 17.8 Q24.5 16.25 25.6 13.35" fill="#b41a29" fill-rule="evenodd" stroke="none"/>
    <path d="M23.15 17.45 L22.4 18.5 Q21.4 20.05 19.9 20.95 18.7 21.7 16.7 21.9 L13.35 21.95 Q10.0 21.6 8.0 19.3 7.1 18.25 6.3 16.5 L4.85 13.55 4.95 13.3 5.6 14.4 Q5.95 15.15 6.25 15.5 L7.5 16.65 8.65 17.85 Q9.35 18.75 10.75 19.55 12.05 20.3 13.2 20.55 15.9 21.2 19.25 19.9 21.65 18.95 23.15 17.45" fill="#5b223d" fill-rule="evenodd" stroke="none"/>
    <path d="M18.25 9.35 L18.0 9.0 18.4 8.85 18.3 8.4 17.2 9.1 17.5 9.15 18.25 9.35 M10.5 9.7 Q11.0 9.8 11.35 10.05 L11.05 9.5 11.05 9.6 10.45 9.65 10.5 9.7 M23.15 7.1 L23.25 7.2 23.2 7.75 23.6 7.65 24.0 8.2 24.6 9.4 25.2 10.55 25.2 10.65 25.05 10.9 25.05 11.1 25.45 11.35 Q24.15 13.4 19.9 13.85 L15.4 14.15 Q11.4 14.05 10.25 13.1 8.2 13.05 5.4 11.05 L5.05 10.85 5.2 10.45 Q6.35 7.45 9.4 5.8 12.05 4.4 15.45 4.25 L16.0 4.25 Q18.85 4.25 21.75 5.95 L22.6 6.55 22.85 5.7 23.15 7.1" fill="#b41a29" fill-rule="evenodd" stroke="none"/>
    <path d="M7.2 2.3 L8.2 4.05 Q8.75 5.35 8.45 5.95 8.15 6.65 6.55 7.45 L6.55 5.5 Q6.55 3.35 6.95 2.45 L7.2 2.3" fill="#7f692f" fill-rule="evenodd" stroke="none"/>
    <path d="M22.0 2.8 Q23.35 6.55 22.4 6.25 20.7 5.75 20.95 4.75 L22.0 2.8" fill="#7f692f" fill-rule="evenodd" stroke="none"/>
    <path d="M25.7 13.0 Q26.75 14.05 26.15 16.65 25.5 19.3 23.65 20.7 21.95 21.95 21.75 22.1 L19.65 22.95 17.9 23.55 16.1 23.8 Q18.9 22.7 20.55 20.75 L23.5 16.25 23.05 16.1 Q23.75 15.75 24.45 14.6 25.25 13.3 25.7 13.0" fill="#da917b" fill-rule="evenodd" stroke="none"/>
    <path d="M11.85 10.15 L11.35 10.05 9.3 10.05 7.6 10.4 Q7.8 9.6 9.15 9.7 L8.1 9.35 Q7.35 9.25 7.05 8.95 L7.6 8.75 8.2 8.65 Q8.5 8.7 9.2 9.0 8.4 7.95 8.55 7.75 8.7 7.3 9.1 7.6 L9.6 8.15 10.95 9.3 Q11.55 10.05 11.85 10.15" fill="#cc6854" fill-rule="evenodd" stroke="none"/>
    <path d="M21.7 6.95 Q21.6 7.2 20.45 7.55 19.45 7.95 19.35 8.25 L20.15 8.2 20.95 8.05 Q21.25 8.1 21.55 8.45 L22.1 8.8 20.85 9.05 19.65 9.4 21.7 9.75 22.7 10.25 23.45 10.9 22.1 10.7 20.6 10.4 19.35 9.85 Q18.65 9.55 18.05 9.55 L17.2 9.05 Q16.7 8.65 17.55 7.85 L18.95 6.95 20.35 6.7 21.7 6.95" fill="#cc6854" fill-rule="evenodd" stroke="none"/>
    <path d="M9.35 6.25 L8.45 6.8 7.95 7.15 Q7.7 6.7 9.35 6.25 L10.0 5.75 Q10.95 5.1 11.7 5.0 L15.3 4.6 Q18.5 4.1 20.95 5.8 22.95 7.2 24.4 9.2 25.45 10.7 24.8 11.55 L22.6 13.15 Q23.1 9.9 21.05 7.7 19.15 5.65 15.8 5.2 L11.45 5.75 9.35 6.25" fill="#da917b" fill-rule="evenodd" stroke="none"/>
    <path d="M10.5 7.25 Q11.8 8.4 12.05 9.45 12.3 10.55 11.9 10.95 L10.4 11.0 8.95 10.75 Q7.85 10.6 7.7 10.2 L8.45 9.85 8.3 10.0 8.45 9.9 9.85 9.55 8.45 9.85 9.0 9.35 9.95 9.25 9.35 8.05 Q9.05 7.5 8.35 7.1 9.0 5.95 10.5 7.25" fill="#cc6854" fill-rule="evenodd" stroke="none"/>
    <path d="M20.45 11.35 L18.45 10.95 Q16.85 10.6 16.3 9.85 16.0 9.45 16.4 9.1 L16.45 9.05 Q16.8 8.25 17.7 7.35 19.1 6.0 19.9 7.2 19.4 7.4 18.65 7.9 17.75 8.55 17.85 8.9 L18.75 8.75 19.65 8.65 18.65 8.9 Q17.95 8.95 17.7 9.3 17.95 9.75 20.6 10.45 L21.45 10.65 22.15 10.4 Q21.2 11.35 20.45 11.35 M16.45 9.05 L16.3 9.55 17.05 8.55 16.45 9.05" fill="#cc6854" fill-rule="evenodd" stroke="none"/>
    <path d="M10.35 14.5 L11.15 17.75 Q11.25 18.4 11.7 19.7 10.65 19.3 9.9 18.55 10.3 16.75 10.35 14.5 M17.1 14.8 Q17.0 15.75 17.05 17.65 L16.95 20.4 Q15.75 20.65 14.55 20.4 L12.65 20.1 13.35 15.2 13.4 14.6 14.1 14.6 14.2 14.75 17.1 14.8 M17.65 16.05 Q18.2 17.4 18.15 18.05 L18.6 18.55 18.4 19.65 Q18.2 20.2 17.7 20.25 L17.65 16.05 M7.2 15.6 L6.95 15.4 Q6.95 14.45 7.3 12.75 L9.8 13.55 9.35 18.1 Q7.75 16.8 7.2 15.6 M6.65 12.4 L6.4 14.25 Q5.55 13.2 5.35 11.95 L6.65 12.4 M20.3 14.4 L20.6 14.35 20.65 15.45 20.3 14.4 M23.2 13.4 L23.4 14.65 Q23.55 15.5 23.25 15.75 L23.15 15.75 21.25 17.8 21.25 16.0 21.35 14.25 21.2 14.2 23.2 13.4 M24.3 12.95 Q24.25 12.75 24.5 12.6 L24.85 12.35 24.05 14.5 Q23.5 12.9 24.3 12.95" fill="#ffffff" fill-rule="evenodd" stroke="none"/>
    <path d="M20.75 10.45 L20.05 10.4 Q19.3 10.05 19.15 10.15 19.15 9.9 17.65 9.75 16.2 9.6 16.4 9.1 22.35 5.1 21.05 7.9 L19.7 8.0 18.45 8.6 19.45 8.5 20.5 8.45 Q21.9 8.7 18.8 9.2 L20.15 9.75 Q21.25 10.15 20.8 10.55 L20.75 10.45" fill="#291d1c" fill-rule="evenodd" stroke="none"/>
    <path d="M11.0 10.35 L9.8 10.25 9.65 10.3 Q9.55 10.35 9.6 10.45 L9.1 10.25 Q8.85 10.1 9.0 9.75 L9.65 9.7 8.85 9.55 8.25 9.0 Q8.65 8.8 9.35 9.0 L10.4 9.2 Q10.25 8.8 9.3 8.45 8.45 8.05 8.4 7.65 9.3 7.2 10.65 8.3 12.0 9.4 12.0 10.45 L11.0 10.35" fill="#291d1c" fill-rule="evenodd" stroke="none"/>
    <path d="M27.05 5.9 L27.15 7.45 27.05 9.0 Q26.3 11.15 26.7 13.3 27.2 16.2 25.5 19.45 23.85 22.5 20.25 23.75 16.95 24.9 13.4 24.15 10.4 23.5 8.6 22.5 6.3 21.2 5.05 19.0 3.6 16.3 4.1 12.75 4.25 11.9 3.0 9.8 1.95 7.95 2.7 6.8 L0.9 6.85 Q0.75 6.35 2.7 5.65 L4.95 5.5 4.45 6.4 3.8 7.15 Q3.3 7.7 3.7 8.75 4.1 9.7 4.75 10.05 L5.45 8.4 5.75 6.65 Q5.9 4.0 6.8 1.55 7.6 1.85 8.15 3.0 8.8 4.25 9.35 4.6 L11.75 4.7 14.2 4.1 16.9 4.15 Q19.25 4.2 19.2 4.5 19.3 5.35 21.75 0.95 22.85 1.8 23.35 4.75 L23.3 6.25 Q23.25 7.0 23.7 7.45 L24.65 9.0 25.6 10.5 Q26.35 9.5 26.15 7.2 L25.5 5.95 Q25.0 5.0 25.5 4.95 L27.8 5.15 Q28.85 5.55 27.05 5.9 M22.05 6.05 Q22.7 6.4 22.65 5.4 L22.4 4.1 22.0 2.8 20.95 5.2 22.05 6.05 M24.9 10.95 Q24.55 10.75 24.65 10.3 20.9 4.5 15.45 4.75 12.2 4.9 9.65 6.25 8.25 7.0 6.9 8.45 5.15 10.35 6.25 11.05 10.4 13.7 16.35 13.6 L20.75 13.3 Q22.4 13.05 23.5 12.45 L24.6 11.6 24.9 10.95 M24.05 14.5 L24.85 12.35 24.3 12.95 Q23.55 12.85 24.05 14.5 M23.2 13.4 L21.2 14.2 Q21.65 14.65 21.25 17.8 L23.15 15.75 Q23.5 15.35 23.4 14.6 L23.2 13.4 M20.3 14.4 L20.65 15.45 20.65 14.75 20.3 14.4 M22.55 18.45 L20.35 19.9 Q18.5 21.25 16.55 21.4 14.0 21.65 11.05 20.05 9.25 19.1 7.75 17.4 L5.1 14.1 Q5.0 18.25 8.35 21.0 11.45 23.55 15.65 23.65 19.7 23.75 23.25 20.7 27.15 17.3 25.6 13.35 L24.0 16.45 Q24.0 17.45 22.55 18.45 M8.05 4.15 L7.1 2.45 Q6.3 4.35 6.7 7.5 8.0 6.7 8.2 6.0 8.4 5.2 8.05 4.15 M8.65 13.1 L7.3 12.75 6.95 15.4 Q7.55 15.55 8.25 16.6 L9.35 18.1 9.75 16.0 Q9.9 14.6 9.7 13.85 9.5 13.4 8.65 13.1 M6.5 12.8 Q6.35 12.2 5.35 11.95 5.55 13.1 6.4 14.25 L6.5 12.8 M17.65 16.05 L17.7 20.25 Q18.8 20.2 18.45 18.4 L17.65 16.05 M13.35 15.2 L12.7 18.55 Q12.7 20.25 14.5 20.5 16.8 20.85 17.05 18.8 17.0 16.1 17.1 14.8 L14.85 14.5 Q13.7 14.35 13.35 15.2 M10.35 14.5 L9.9 18.55 Q10.65 19.3 11.7 19.7 L10.35 14.5" fill="#291d1c" fill-rule="evenodd" stroke="none"/>
  </g>
</svg>
