<?xml version="1.0" encoding="UTF-8" standalone="no"?>
<svg xmlns:xlink="http://www.w3.org/1999/xlink" height="24.4px" width="42.2px" xmlns="http://www.w3.org/2000/svg">
  <g transform="matrix(1.0, 0.0, 0.0, 1.0, 0.0, 0.0)">
    <path d="M6.15 8.05 L6.4 8.25 Q7.45 8.95 7.15 10.55 L8.0 7.8 6.15 8.05 M34.35 8.15 L34.45 7.95 32.1 7.3 Q31.3 8.7 32.5 13.2 33.6 17.4 31.8 19.05 L32.35 19.75 30.95 19.7 30.9 19.8 29.95 19.75 29.1 19.45 29.05 19.65 28.7 19.8 27.6 21.1 26.5 22.4 26.25 22.3 26.2 22.55 Q25.1 22.6 24.65 23.7 L24.3 23.45 22.15 24.1 19.9 24.4 19.75 24.3 19.25 24.3 18.5 24.15 Q15.65 23.55 13.9 22.65 12.05 21.7 10.05 19.8 L9.7 19.95 9.45 19.35 Q8.3 20.4 7.25 19.65 6.4 19.0 5.9 17.45 5.45 15.3 6.8 11.8 L6.1 11.35 6.05 11.55 5.4 11.7 5.25 11.9 2.55 12.85 Q1.05 13.15 0.0 12.0 0.05 10.25 1.3 9.15 2.45 8.15 4.3 7.85 L2.8 6.15 Q2.85 4.85 4.4 4.1 L5.75 3.95 7.1 4.0 7.3 3.55 Q9.15 4.3 9.6 4.9 L10.45 4.05 10.95 3.15 15.65 0.95 Q18.55 -0.35 20.75 0.1 23.1 -0.2 25.5 1.2 L29.4 4.15 Q32.05 2.75 34.5 3.0 37.5 3.35 37.7 6.4 37.35 6.8 37.3 7.2 L36.35 7.85 Q38.1 7.95 39.75 8.85 41.7 9.9 42.1 11.4 42.7 13.95 40.1 13.75 37.7 13.6 36.3 12.15 L36.3 11.85 35.9 11.55 35.9 11.15 34.55 10.35 35.05 9.95 35.15 9.85 34.75 9.7 34.3 9.85 33.9 8.3 34.35 8.15" fill="#ffffff" fill-rule="evenodd" stroke="none"/>
    <path d="M27.3 16.9 Q27.65 14.8 26.8 12.85 26.25 11.55 24.7 9.6 25.15 10.2 24.65 14.6 24.3 17.8 27.3 16.9 M29.6 8.6 L30.05 9.55 30.4 10.45 Q30.45 14.6 28.55 17.7 26.45 21.15 22.55 22.2 18.45 23.35 13.85 21.15 8.8 18.8 8.9 14.45 9.1 9.5 9.95 7.6 11.3 4.6 15.8 2.75 18.0 1.85 20.8 1.95 23.65 2.1 25.55 3.3 27.6 4.65 28.35 6.0 29.1 6.45 29.45 7.55 29.8 8.5 29.6 8.6" fill="#6da9c9" fill-rule="evenodd" stroke="none"/>
    <path d="M8.1 18.2 Q7.0 17.45 8.05 13.7 8.15 14.95 9.0 16.7 9.2 18.0 8.1 18.2" fill="#693c3c" fill-rule="evenodd" stroke="none"/>
    <path d="M30.5 14.0 Q31.4 15.7 30.5 17.75 29.75 17.2 29.95 15.95 L30.5 14.0" fill="#693c3c" fill-rule="evenodd" stroke="none"/>
    <path d="M16.55 5.75 L18.05 5.8 Q18.45 5.85 18.2 6.35 L17.7 6.95 Q16.6 7.55 15.15 7.55 10.85 7.55 12.7 6.2 L12.65 6.7 14.4 6.85 Q15.4 6.95 16.05 6.5 16.55 6.3 16.55 5.75" fill="#324d95" fill-rule="evenodd" stroke="none"/>
    <path d="M25.6 6.85 Q26.3 7.3 25.4 7.8 L24.05 8.2 Q21.4 8.0 20.95 7.3 20.35 6.5 21.2 6.55 L22.35 6.8 Q23.75 7.15 25.6 6.85" fill="#324d95" fill-rule="evenodd" stroke="none"/>
    <path d="M22.1 13.1 Q24.15 14.75 24.85 14.2 24.05 14.85 24.95 16.2 25.9 17.6 27.0 17.05 26.45 18.35 25.15 17.55 23.85 16.8 24.45 15.95 23.85 16.7 22.4 15.95 20.9 14.85 20.45 14.7 19.4 14.35 18.25 15.05 L16.35 16.4 Q15.15 17.15 13.8 16.75 12.4 16.35 11.9 15.0 L11.7 13.35 Q11.7 12.0 12.25 12.0 L12.35 11.85 13.0 13.75 Q13.5 14.75 14.75 14.25 15.4 14.0 16.65 13.0 17.85 12.05 18.6 11.8 19.9 11.35 22.1 13.1" fill="#324d95" fill-rule="evenodd" stroke="none"/>
    <path d="M4.4 9.5 L5.0 9.5 Q5.1 9.8 3.8 10.45 L2.2 11.2 Q2.1 10.55 3.15 10.1 L4.4 9.5 M5.2 6.05 Q5.55 5.75 6.7 5.7 L8.2 5.9 5.2 6.05 M16.75 4.4 Q19.2 4.15 18.2 5.3 17.95 5.65 15.9 5.6 L13.4 5.45 13.6 5.0 13.9 4.85 16.75 4.4 M27.0 14.3 Q27.25 16.1 26.35 16.8 24.7 17.65 25.2 15.0 L26.0 11.8 Q26.75 12.75 27.0 14.3 M21.35 4.2 L21.5 4.15 23.65 4.4 Q25.35 4.5 25.15 5.45 L22.9 5.5 Q20.85 5.2 21.35 4.2 M26.5 3.3 L27.3 4.3 Q29.95 6.85 30.25 10.0 30.45 12.05 29.6 14.9 28.75 17.65 27.5 19.35 26.2 21.2 23.5 21.75 L20.3 22.2 Q20.8 21.65 22.25 21.0 L24.35 19.9 Q25.95 18.7 27.3 16.5 28.05 15.25 28.55 12.45 29.15 9.1 27.65 9.15 L27.6 8.65 26.8 8.85 26.85 7.25 Q27.0 6.25 26.6 5.75 25.6 4.3 24.15 3.7 21.0 2.25 16.8 2.15 L16.85 1.9 17.25 1.75 16.75 1.75 17.7 1.6 Q19.65 1.15 22.2 1.6 L23.5 1.85 Q25.55 2.45 26.5 3.3 M37.1 9.8 Q37.65 9.85 39.0 10.85 40.4 11.9 39.85 12.2 38.55 11.8 37.1 9.8 M30.5 5.55 Q32.0 4.55 33.75 4.5 35.7 4.5 35.65 6.15 L33.15 6.3 30.5 5.55" fill="#c5dae8" fill-rule="evenodd" stroke="none"/>
    <path d="M5.2 6.05 L8.2 5.9 7.15 5.7 6.1 5.9 5.2 6.05 M7.95 4.95 Q10.1 5.95 7.7 6.8 5.25 7.65 4.3 6.45 3.25 5.15 5.4 5.05 L7.95 4.95" fill="#3e336f" fill-rule="evenodd" stroke="none"/>
    <path d="M39.0 10.85 Q37.65 9.85 37.1 9.8 L38.9 11.8 39.85 12.2 Q40.4 11.9 39.0 10.85 M40.45 10.8 Q41.6 11.65 40.8 12.55 39.95 13.45 38.85 12.7 38.1 12.6 37.55 11.9 L36.7 10.55 35.75 9.85 Q35.2 9.55 35.05 8.95 L36.7 8.9 38.2 9.2 Q38.55 9.05 40.45 10.8" fill="#3e336f" fill-rule="evenodd" stroke="none"/>
    <path d="M5.0 9.5 L4.65 9.6 Q4.4 9.6 4.25 9.75 3.9 9.45 3.0 10.1 2.1 10.8 2.2 11.2 L3.8 10.45 Q5.1 9.8 5.0 9.5 M4.25 11.3 Q1.85 12.3 1.05 11.6 1.2 10.3 3.2 9.15 5.3 8.0 6.05 9.3 6.6 10.2 4.25 11.3" fill="#3e336f" fill-rule="evenodd" stroke="none"/>
    <path d="M26.05 16.8 Q26.45 16.9 26.7 16.3 27.15 15.35 26.9 13.95 26.7 12.65 26.0 11.8 L26.0 12.8 25.7 13.65 25.45 14.85 Q25.3 15.6 25.45 16.05 L26.05 16.8 M25.85 9.55 Q25.65 9.95 26.35 11.05 L27.25 12.55 Q27.8 14.1 27.45 16.05 27.05 18.35 25.3 17.1 24.55 16.55 24.45 15.3 24.0 15.65 23.6 15.3 L22.15 13.9 Q21.3 13.15 20.35 12.95 18.95 12.65 17.75 13.45 L15.75 15.25 Q14.85 16.2 13.65 15.65 12.5 15.15 12.3 13.95 12.2 13.45 12.25 12.6 12.3 11.5 12.7 11.55 13.65 9.8 16.85 8.85 19.9 7.9 21.7 8.5 23.6 9.15 24.85 11.05 L24.7 9.65 Q24.75 9.05 25.85 9.55" fill="#3e336f" fill-rule="evenodd" stroke="none"/>
    <path d="M15.65 6.85 Q12.9 7.25 12.5 6.4 13.4 5.55 14.85 5.6 L17.35 5.65 16.8 6.35 Q16.45 6.75 15.65 6.85" fill="#3e336f" fill-rule="evenodd" stroke="none"/>
    <path d="M8.8 17.1 L9.0 16.7 Q8.15 14.95 8.05 13.7 7.0 17.45 8.1 18.2 L8.8 17.1 M29.85 16.2 L30.1 17.05 Q30.25 17.6 30.5 17.75 31.4 15.7 30.5 14.0 L29.85 16.2 M24.2 2.65 L20.7 1.95 Q16.9 1.6 13.45 4.15 L11.5 5.75 Q10.55 6.7 10.15 7.85 9.85 8.75 9.75 10.65 L9.4 13.25 9.85 15.3 Q10.05 16.55 10.35 17.25 10.8 18.15 11.75 18.85 L13.55 20.05 Q14.95 21.05 17.2 21.7 19.6 22.45 21.1 22.25 23.25 22.0 25.55 20.25 27.75 18.55 28.85 16.6 29.9 14.85 30.0 11.85 30.05 8.75 29.0 7.0 L28.65 7.35 28.5 7.15 28.45 7.05 Q28.9 6.2 27.2 4.6 25.8 3.25 24.2 2.65 M32.45 4.05 L35.35 4.3 Q36.7 5.05 36.4 6.65 L33.35 6.75 30.0 6.4 Q31.0 8.3 31.3 11.8 L31.7 15.85 Q31.7 16.95 31.35 17.55 L30.35 18.75 29.95 18.65 30.15 18.6 29.6 18.1 29.3 17.4 27.7 19.7 Q26.35 21.3 25.6 21.35 L25.0 21.9 24.2 22.25 22.2 22.95 20.15 23.35 18.7 23.1 17.1 22.95 Q16.65 22.85 15.35 22.15 L13.7 21.35 Q11.8 20.65 9.7 17.85 L9.7 17.95 9.65 17.85 9.6 17.65 Q8.15 19.4 7.4 18.35 6.75 17.4 7.05 15.35 7.7 10.1 9.8 6.5 11.35 3.75 14.65 2.35 17.5 1.15 21.0 1.15 23.25 1.1 25.7 2.5 L28.9 5.05 30.55 4.9 32.45 4.05 M30.5 5.55 Q32.15 5.15 33.7 6.05 34.65 6.65 35.15 6.35 35.7 6.1 35.25 5.1 34.2 4.5 32.85 4.65 31.6 4.85 30.5 5.55" fill="#3e336f" fill-rule="evenodd" stroke="none"/>
    <path d="M16.2 4.9 Q14.9 4.9 13.5 5.65 12.7 4.75 14.7 4.1 15.9 3.65 17.2 3.55 17.6 3.5 18.3 3.95 18.95 4.4 18.35 4.45 L16.2 4.9" fill="#3e336f" fill-rule="evenodd" stroke="none"/>
    <path d="M24.05 5.35 L22.3 5.0 Q21.35 4.85 21.0 3.95 L22.6 3.8 Q23.8 4.05 24.3 3.8 L24.85 4.45 25.15 5.2 23.95 5.15 Q23.85 5.25 24.05 5.35" fill="#3e336f" fill-rule="evenodd" stroke="none"/>
    <path d="M21.9 6.85 Q20.75 6.5 21.65 6.1 L23.15 5.7 25.1 6.2 Q26.5 6.7 25.0 7.05 L21.9 6.85" fill="#3e336f" fill-rule="evenodd" stroke="none"/>
  </g>
</svg>
