<?xml version="1.0" encoding="UTF-8" standalone="no"?>
<svg xmlns:xlink="http://www.w3.org/1999/xlink" height="100.0px" width="100.0px" xmlns="http://www.w3.org/2000/svg">
  <g transform="matrix(1.0, 0.0, 0.0, 1.0, 0.0, 0.0)">
    <path d="M0.0 6.25 L0.0 0.0 6.7 0.0 93.65 0.0 100.0 0.0 100.0 6.25 100.0 93.85 100.0 100.0 93.65 100.0 6.7 100.0 0.0 100.0 0.0 93.85 0.0 6.25" fill="#333333" fill-rule="evenodd" stroke="none"/>
    <path d="M3.0 6.25 L3.0 3.0 6.7 3.0 93.65 3.0 97.0 3.0 97.0 6.25 97.0 93.85 97.0 97.0 93.65 97.0 6.7 97.0 3.0 97.0 3.0 93.85 3.0 6.25" fill="#3c3c3c" fill-rule="evenodd" stroke="none"/>
  </g>
</svg>
