<?xml version="1.0" encoding="UTF-8" standalone="no"?>
<svg xmlns:xlink="http://www.w3.org/1999/xlink" height="215.0px" width="313.4px" xmlns="http://www.w3.org/2000/svg">
  <g transform="matrix(1.0, 0.0, 0.0, 1.0, 0.0, 0.0)">
    <path d="M150.45 170.95 Q149.45 170.0 148.1 170.0 146.75 170.0 145.8 170.95 144.85 171.95 144.85 173.25 144.85 174.6 145.8 175.6 146.75 176.55 148.1 176.55 149.45 176.55 150.45 175.6 151.4 174.6 151.4 173.25 151.4 171.95 150.45 170.95 M151.85 166.25 Q151.85 165.5 151.3 164.95 150.75 164.4 150.0 164.4 149.2 164.4 148.65 164.95 148.1 165.5 148.1 166.25 148.1 167.05 148.65 167.6 149.2 168.15 150.0 168.15 150.75 168.15 151.3 167.6 151.85 167.05 151.85 166.25 M268.3 143.55 L268.1 143.4 266.25 146.25 264.1 148.75 262.95 150.3 261.9 151.8 261.0 152.55 260.05 153.3 258.2 156.05 Q256.9 158.25 256.85 159.0 256.8 159.65 257.35 161.2 L258.2 163.75 262.75 180.35 266.95 196.15 Q267.25 191.5 268.35 183.15 L269.95 169.75 270.7 165.15 Q271.1 162.45 270.95 160.85 270.85 159.2 270.2 156.5 L269.3 152.3 Q268.6 148.1 268.3 143.55 M254.65 108.0 L253.5 109.95 Q252.8 111.25 252.1 113.6 L250.8 117.5 Q248.95 122.65 248.75 124.35 248.35 127.9 250.65 130.95 251.75 125.05 254.2 116.05 L257.85 102.05 255.85 106.05 254.65 108.0 M291.8 111.6 L291.35 105.9 Q291.0 102.1 291.0 100.0 289.45 103.0 286.1 107.5 L281.05 114.8 281.9 117.45 Q282.35 119.15 282.7 119.85 284.1 117.85 287.05 115.5 L291.8 111.6 M163.5 189.2 Q167.25 188.3 168.1 185.95 L168.5 186.05 168.95 186.15 Q170.1 189.1 168.3 192.85 166.45 196.6 163.25 197.75 158.95 198.45 156.6 195.7 154.3 193.0 156.35 190.0 L163.5 189.2 M174.5 183.95 L176.5 184.1 Q179.3 185.2 179.75 189.1 180.3 193.1 177.65 194.55 173.7 195.05 170.65 193.35 L170.3 191.85 172.4 188.85 Q173.45 186.9 173.15 184.95 173.55 184.2 174.5 183.95 M191.35 122.8 L192.05 118.65 Q192.4 116.35 192.05 114.55 L191.9 114.4 Q187.15 120.85 184.65 126.1 181.3 133.15 180.8 140.25 181.1 140.35 181.3 140.95 181.5 141.5 182.0 141.45 L184.95 137.8 187.85 133.75 188.55 132.05 Q188.9 130.85 189.2 130.35 L190.0 129.4 190.7 128.35 Q191.0 127.45 191.1 125.75 L191.35 122.8 M208.2 129.7 Q208.7 132.2 210.4 134.0 211.8 135.45 214.25 136.75 215.85 133.85 216.05 129.4 216.3 124.7 214.6 122.3 L208.2 129.7 M239.05 54.9 L233.15 54.85 233.45 56.85 239.3 55.8 Q242.4 55.0 244.25 53.8 242.1 54.7 239.05 54.9 M234.0 44.9 L230.85 44.9 231.65 48.5 238.9 45.85 Q242.85 44.25 245.1 42.35 L240.05 43.75 234.0 44.9 M227.05 34.45 L227.3 32.75 226.45 33.7 227.05 34.45 M306.6 18.85 L309.45 22.55 Q311.1 24.8 311.8 26.75 313.6 31.4 313.35 37.7 313.15 43.15 311.45 49.4 311.2 49.5 311.2 49.3 L311.15 48.9 309.95 51.65 Q309.35 53.25 307.8 53.45 307.7 52.65 308.35 50.7 309.0 48.8 308.75 47.4 306.3 54.7 304.05 59.15 301.05 65.1 297.2 68.75 297.25 69.0 297.55 68.75 297.7 69.05 297.25 69.35 L296.35 69.95 Q291.95 72.5 290.3 72.1 L292.3 69.95 Q293.6 68.65 294.15 67.6 L290.4 69.45 Q287.85 70.85 286.1 71.3 L283.15 74.2 Q281.2 76.0 280.25 77.15 279.65 79.7 279.55 82.35 281.75 83.3 286.7 82.95 L293.7 82.55 Q295.9 88.15 297.4 96.25 298.8 103.7 299.2 110.95 299.4 114.1 298.5 118.6 L296.85 126.25 Q294.6 137.9 284.45 146.4 L282.9 156.85 283.05 157.75 282.7 158.5 Q284.3 163.7 287.05 171.35 L291.65 184.05 294.5 193.3 296.35 197.65 Q297.65 200.4 298.0 202.4 295.45 206.0 292.05 208.5 287.75 211.65 283.4 211.95 L275.7 211.1 271.95 210.5 Q270.05 210.1 269.15 209.1 268.1 209.45 267.15 210.5 L265.6 212.3 Q263.2 214.15 258.2 214.2 L249.45 213.45 243.6 211.95 Q239.65 210.65 238.9 209.6 238.35 208.85 238.45 207.05 238.55 205.45 237.5 204.9 L239.95 189.95 242.75 173.65 243.6 169.9 Q244.15 167.55 243.9 166.75 243.75 166.15 242.8 165.75 L241.4 165.05 240.4 164.05 239.55 162.85 239.35 161.75 Q239.2 160.95 238.9 160.7 L235.3 157.85 Q233.6 156.3 232.65 153.95 231.15 150.2 232.1 144.5 232.75 140.5 234.85 134.65 235.1 133.85 235.85 132.65 L236.85 130.8 Q237.5 128.55 238.05 127.4 L242.85 117.15 Q245.8 111.0 247.95 107.1 253.9 96.35 262.55 85.6 L268.2 84.5 274.0 83.2 274.5 81.5 274.85 79.7 Q273.95 79.85 269.25 81.5 265.9 82.7 263.45 82.2 263.45 81.15 264.8 80.55 L266.95 79.5 269.45 77.3 271.85 74.95 266.45 78.15 260.15 79.8 253.0 80.5 251.3 80.45 Q250.3 80.3 249.95 79.7 250.45 79.05 251.55 78.95 L253.3 78.7 Q256.05 77.75 259.25 74.3 255.0 76.8 249.35 76.75 244.35 76.7 238.9 74.6 L235.5 73.1 Q233.2 72.1 231.45 71.95 L231.4 72.2 Q229.1 77.75 225.8 80.6 L222.8 82.85 Q220.9 84.15 219.95 85.3 219.3 86.15 218.55 87.8 L217.4 90.35 Q216.2 92.85 214.6 94.9 213.1 96.8 210.4 98.35 L205.85 101.1 Q204.45 102.1 204.3 102.95 L209.2 103.9 Q212.4 104.4 214.6 103.8 214.5 104.15 215.15 104.15 L215.9 104.3 Q216.95 106.35 217.65 109.6 L218.8 115.05 220.1 120.95 220.6 123.8 221.15 126.65 221.55 127.25 221.95 127.85 222.1 128.55 222.15 129.15 223.35 131.6 224.5 134.05 Q225.45 137.05 225.85 140.45 226.35 144.35 226.0 147.65 L225.15 151.7 224.65 155.45 Q224.4 157.65 223.85 158.95 L222.15 162.1 220.8 163.4 Q220.0 164.1 219.95 164.8 L216.25 165.35 Q213.95 165.55 212.55 164.65 L214.0 162.1 Q214.7 160.6 213.9 159.1 211.65 162.8 209.35 169.15 L208.4 172.05 Q208.2 173.3 209.35 174.55 L211.9 176.9 214.4 179.3 Q214.95 182.6 216.55 186.9 L219.3 194.25 221.35 201.25 Q222.55 205.05 224.15 207.35 224.0 208.75 224.65 209.5 222.4 211.75 221.35 212.4 219.25 213.7 216.25 213.7 211.8 213.7 207.9 212.5 203.65 211.2 202.0 209.0 202.1 208.0 201.45 207.15 201.95 201.4 201.75 193.5 L201.3 180.8 201.4 179.65 201.45 178.6 200.8 176.8 Q200.1 175.55 199.95 174.9 L199.45 172.4 198.95 169.7 Q198.05 165.85 197.8 163.65 196.9 164.75 195.8 167.1 L193.9 170.7 Q195.1 189.0 200.8 207.7 200.35 208.2 200.25 208.65 L200.3 209.7 Q198.95 213.6 192.6 214.7 186.45 215.75 181.8 213.4 L180.45 212.35 179.3 211.35 177.95 210.5 Q177.3 210.05 177.1 209.5 179.9 203.6 182.15 194.35 L185.65 177.9 186.5 175.0 Q187.0 173.2 186.85 172.05 186.7 170.55 185.55 167.55 184.5 164.6 184.35 163.15 L175.8 163.0 Q171.0 162.7 168.35 160.95 167.65 161.4 165.9 163.75 164.0 166.15 163.9 166.95 L171.85 166.8 Q177.1 166.7 179.3 168.3 181.65 169.95 182.25 172.6 182.85 175.05 181.85 177.55 179.55 183.4 173.25 183.75 170.7 183.9 168.6 182.45 166.65 181.15 165.75 179.05 165.3 178.15 165.2 176.35 L164.85 173.7 Q164.65 173.05 164.05 172.45 L162.85 171.5 162.05 171.7 Q161.9 174.95 162.4 177.05 162.55 177.8 164.0 181.15 165.1 183.7 164.85 185.15 164.5 187.45 161.35 188.2 158.2 188.95 156.8 187.0 155.7 185.4 156.35 182.35 L157.5 177.4 Q157.15 177.35 156.2 177.85 L154.65 178.4 Q155.75 180.3 154.9 181.75 154.2 183.05 152.5 183.45 L149.4 183.2 Q147.8 182.4 147.55 180.6 145.45 180.95 142.9 179.65 140.4 178.45 139.5 176.55 137.85 173.0 139.05 168.65 140.3 164.1 143.7 163.3 143.65 161.45 144.9 160.3 146.05 159.3 147.65 159.2 149.35 159.1 150.45 160.1 151.7 161.2 151.6 163.1 L156.85 162.95 Q159.45 163.65 160.35 165.65 160.75 164.1 162.55 160.9 164.35 157.65 165.3 156.75 162.85 153.45 163.85 147.75 164.55 144.0 167.0 138.6 168.7 134.9 171.4 131.45 L176.95 125.15 Q180.45 121.3 186.35 115.4 L189.3 112.6 192.05 109.65 Q188.8 111.2 181.45 116.25 174.5 121.0 170.05 122.8 L166.8 124.25 Q164.9 125.1 163.8 125.15 L161.75 125.1 159.6 124.95 147.85 124.15 144.85 123.6 141.8 123.1 135.9 122.45 120.2 118.75 Q111.05 116.75 104.55 116.75 98.0 116.75 90.75 118.6 83.95 120.3 78.0 126.15 78.05 127.0 77.25 128.1 L76.0 130.0 Q75.6 130.85 75.1 132.95 L74.1 135.9 Q73.5 135.35 73.7 133.85 L73.95 131.5 74.25 130.9 74.8 130.85 Q74.8 130.55 74.45 130.4 74.2 130.25 74.45 130.0 75.6 126.85 76.9 124.8 78.35 122.55 80.5 120.6 83.7 117.7 89.5 116.35 94.2 115.25 101.2 115.05 L103.3 115.15 105.4 115.25 Q113.05 115.15 124.55 117.3 138.3 119.9 143.0 120.3 149.35 120.75 156.5 119.0 162.95 117.35 167.65 114.55 L169.8 113.1 171.85 111.55 175.7 108.25 Q177.3 106.5 178.75 104.15 L178.95 103.95 178.95 103.8 Q173.9 107.9 163.8 111.35 154.95 114.4 147.0 113.85 L141.75 114.35 136.6 114.7 Q136.8 113.8 137.6 113.3 L139.45 112.55 140.45 111.9 141.3 111.35 146.05 110.25 150.7 109.0 Q152.35 108.35 153.95 107.05 L156.6 104.65 Q155.2 105.1 153.35 106.65 L150.35 108.7 146.35 109.65 142.3 110.0 139.55 110.1 136.75 110.2 121.0 109.35 109.9 107.15 Q105.9 106.15 100.65 103.6 L92.1 99.25 83.35 95.2 80.1 92.85 76.45 90.7 Q76.45 90.25 75.75 89.5 75.2 88.85 75.45 88.35 76.1 88.35 77.95 89.2 79.6 89.95 80.85 89.7 76.8 87.9 71.1 84.2 L61.55 77.95 Q49.7 70.75 38.15 71.0 35.2 71.1 28.75 72.7 20.65 74.8 15.5 77.15 8.75 80.15 5.05 84.3 L2.7 88.35 Q1.25 90.55 1.7 93.2 2.5 98.5 9.1 101.85 15.35 105.0 21.2 103.8 25.55 102.9 29.4 97.25 L28.3 95.35 Q27.6 94.35 26.6 94.25 25.3 94.05 23.75 94.9 22.5 95.5 21.55 96.55 22.35 97.45 23.75 96.8 L25.9 95.75 Q27.1 98.1 23.7 98.9 22.35 99.25 21.25 98.9 20.05 98.45 19.85 97.4 19.7 96.75 20.4 95.4 L21.55 93.7 Q23.05 92.0 25.05 91.9 26.9 91.8 28.5 92.95 32.3 95.75 31.1 100.95 30.9 101.95 29.95 102.85 28.8 103.95 28.4 104.8 25.35 106.6 23.75 107.3 21.0 108.65 18.15 108.7 16.2 108.7 11.95 107.3 8.55 106.25 6.0 104.4 3.2 102.4 2.05 99.95 0.95 97.6 0.5 95.75 0.05 93.75 0.0 91.2 L0.2 88.15 Q0.3 87.45 0.75 86.6 L1.7 85.0 2.95 81.85 Q3.6 80.35 4.55 79.1 L6.0 77.7 7.55 76.25 10.3 73.45 13.45 71.2 19.35 67.65 20.75 66.85 22.0 66.15 25.35 65.25 29.05 64.45 34.85 62.9 41.35 62.3 48.0 63.15 54.8 64.45 61.2 65.9 Q64.75 66.8 67.4 67.85 68.65 68.3 70.5 69.35 L73.45 71.0 76.85 72.5 80.35 74.05 Q90.65 79.3 95.2 80.75 104.85 83.75 113.1 81.25 113.0 81.05 112.55 81.1 L111.75 81.1 Q113.6 80.7 116.0 78.85 119.0 76.45 119.85 76.05 123.1 74.45 130.45 73.9 138.65 73.2 141.8 72.2 146.5 70.65 150.95 67.25 L158.4 60.6 154.3 62.8 Q151.45 64.3 150.0 65.3 148.5 65.6 146.25 66.6 L142.65 68.2 Q132.95 71.7 123.95 72.1 113.65 72.55 106.05 68.85 L103.5 67.25 101.0 65.5 97.0 62.9 Q94.45 61.65 91.6 61.95 90.8 62.3 91.0 63.1 91.25 64.1 90.95 64.45 90.05 64.45 89.6 63.25 89.05 62.0 88.6 61.75 L89.2 59.85 Q89.6 58.95 90.45 58.4 92.15 58.1 93.75 58.4 95.0 58.65 96.65 59.4 97.3 59.75 98.65 60.1 100.15 60.8 102.4 62.45 L106.05 65.15 Q107.55 66.05 109.95 66.75 L114.3 68.0 126.0 67.5 Q131.45 66.5 136.1 63.95 L122.6 65.85 Q114.2 66.15 110.75 62.6 109.45 61.3 108.75 59.2 107.9 56.65 109.25 55.55 L110.15 56.45 Q110.45 57.0 110.1 57.75 L112.45 61.3 Q116.75 63.4 124.55 62.8 131.2 62.3 136.9 58.65 140.75 56.25 146.5 50.55 L150.85 46.45 155.4 42.25 Q161.4 36.4 165.85 33.55 L167.65 32.2 169.4 30.85 Q171.55 29.45 175.35 27.7 L181.8 24.65 Q189.2 21.65 197.95 21.4 207.25 21.1 215.05 23.95 219.15 25.45 223.5 30.15 236.9 17.25 240.25 14.55 250.4 6.45 261.2 3.2 L269.65 1.4 Q275.35 0.05 278.7 0.0 280.35 -0.05 282.1 0.55 L285.1 1.7 Q285.65 2.75 286.6 3.35 L291.5 6.05 Q294.6 7.7 296.35 9.05 L297.55 10.3 298.85 11.6 302.9 15.15 306.6 18.85" fill="#cccccc" fill-rule="evenodd" stroke="none"/>
  </g>
</svg>
