<?xml version="1.0" encoding="UTF-8" standalone="no"?>
<svg xmlns:xlink="http://www.w3.org/1999/xlink" height="32.55px" width="774.4px" xmlns="http://www.w3.org/2000/svg">
  <g transform="matrix(1.0, 0.0, 0.0, 1.0, 193.6, 16.25)">
    <path d="M4.75 -14.3 Q14.5 -19.4 24.2 -11.05 35.65 -0.95 48.4 -11.05 60.5 -21.45 72.6 -11.05 84.05 -0.95 96.8 -11.05 108.9 -21.45 121.0 -11.05 132.45 -0.95 145.2 -11.05 157.3 -21.45 169.4 -11.05 180.85 -0.95 193.6 -11.05 196.0 -13.1 198.35 -14.3 208.1 -19.4 217.8 -11.05 229.25 -0.95 242.0 -11.05 254.1 -21.45 266.2 -11.05 277.65 -0.95 290.4 -11.05 302.5 -21.45 314.6 -11.05 326.05 -0.95 338.8 -11.05 350.9 -21.45 363.0 -11.05 374.45 -0.95 387.2 -11.05 389.6 -13.1 391.95 -14.3 401.7 -19.4 411.4 -11.05 422.85 -0.95 435.6 -11.05 447.7 -21.45 459.8 -11.05 471.25 -0.95 484.0 -11.05 496.1 -21.45 508.2 -11.05 519.65 -0.95 532.4 -11.05 544.5 -21.45 556.6 -11.05 568.05 -0.95 580.8 -11.05 L580.8 16.3 -193.6 16.3 -193.6 -11.05 Q-181.5 -21.45 -169.4 -11.05 -157.95 -0.95 -145.2 -11.05 -133.1 -21.45 -121.0 -11.05 -109.55 -0.95 -96.8 -11.05 -84.7 -21.45 -72.6 -11.05 -61.15 -0.95 -48.4 -11.05 -36.3 -21.45 -24.2 -11.05 -12.75 -0.95 0.0 -11.05 2.4 -13.1 4.75 -14.3" fill="#666666" fill-rule="evenodd" stroke="none"/>
  </g>
</svg>
