<?xml version="1.0" encoding="UTF-8" standalone="no"?>
<svg xmlns:xlink="http://www.w3.org/1999/xlink" height="32.6px" width="774.4px" xmlns="http://www.w3.org/2000/svg">
  <g transform="matrix(1.0, 0.0, 0.0, 1.0, 241.75, 16.3)">
    <path d="M7.15 -15.35 L9.45 -16.0 13.15 -16.25 Q18.8 -15.95 24.45 -11.1 29.75 -6.45 35.3 -6.05 L39.05 -6.3 41.35 -6.95 Q44.85 -8.2 48.4 -11.05 51.95 -14.1 55.55 -15.35 L57.85 -16.0 61.55 -16.25 Q67.2 -15.95 72.85 -11.1 78.15 -6.45 83.7 -6.05 L87.45 -6.3 89.75 -6.95 Q93.25 -8.2 96.8 -11.05 100.35 -14.1 103.95 -15.35 L106.25 -16.0 109.95 -16.25 Q115.6 -15.95 121.25 -11.1 126.55 -6.45 132.1 -6.05 L135.85 -6.3 138.15 -6.95 Q141.65 -8.2 145.2 -11.05 150.5 -15.6 155.8 -16.15 162.75 -17.05 169.65 -11.1 174.95 -6.45 180.5 -6.05 L184.25 -6.3 186.55 -6.95 Q190.05 -8.2 193.6 -11.05 197.15 -14.1 200.75 -15.35 L203.05 -16.0 206.75 -16.25 Q212.4 -15.95 218.05 -11.1 223.35 -6.45 228.9 -6.05 L232.65 -6.3 234.95 -6.95 Q238.45 -8.2 242.0 -11.05 245.55 -14.1 249.15 -15.35 L251.45 -16.0 255.15 -16.25 Q260.8 -15.95 266.45 -11.1 271.75 -6.45 277.3 -6.05 L281.05 -6.3 283.35 -6.95 Q286.85 -8.2 290.4 -11.05 293.95 -14.1 297.55 -15.35 L299.85 -16.0 303.55 -16.25 Q309.2 -15.95 314.85 -11.1 320.15 -6.45 325.7 -6.05 L329.45 -6.3 331.75 -6.95 Q335.25 -8.2 338.8 -11.05 344.1 -15.6 349.4 -16.15 356.35 -17.05 363.25 -11.1 368.55 -6.45 374.1 -6.05 L377.85 -6.3 380.15 -6.95 Q383.65 -8.2 387.2 -11.05 390.75 -14.1 394.35 -15.35 L396.65 -16.0 400.35 -16.25 Q406.0 -15.95 411.65 -11.1 416.95 -6.45 422.5 -6.05 L426.25 -6.3 428.55 -6.95 Q432.0 -8.2 435.6 -11.05 L435.6 -10.9 435.85 -11.1 Q447.95 -21.5 460.05 -11.1 471.5 -1.0 484.25 -11.1 496.35 -21.5 508.45 -11.1 519.9 -1.0 532.65 -11.1 L532.65 16.25 435.6 16.25 435.6 16.3 -193.6 16.3 -193.6 16.25 -241.75 16.25 -241.75 -11.1 Q-229.65 -21.5 -217.55 -11.1 -206.2 -1.1 -193.6 -10.9 L-193.6 -11.05 Q-190.05 -14.1 -186.45 -15.35 L-184.15 -16.0 -180.45 -16.25 Q-174.8 -15.95 -169.15 -11.1 -163.85 -6.45 -158.3 -6.05 L-154.55 -6.3 -152.25 -6.95 Q-148.75 -8.2 -145.2 -11.05 -141.65 -14.1 -138.05 -15.35 L-135.75 -16.0 -132.05 -16.25 Q-126.4 -15.95 -120.75 -11.1 -115.45 -6.45 -109.9 -6.05 L-106.15 -6.3 -103.85 -6.95 Q-100.35 -8.2 -96.8 -11.05 -93.25 -14.1 -89.65 -15.35 L-87.35 -16.0 -83.65 -16.25 Q-78.0 -15.95 -72.35 -11.1 -67.05 -6.45 -61.5 -6.05 L-57.75 -6.3 -55.45 -6.95 Q-51.95 -8.2 -48.4 -11.05 -43.1 -15.6 -37.8 -16.15 -30.85 -17.05 -23.95 -11.1 -18.65 -6.45 -13.1 -6.05 L-9.35 -6.3 -7.05 -6.95 Q-3.55 -8.2 0.0 -11.05 3.55 -14.1 7.15 -15.35" fill="#666666" fill-rule="evenodd" stroke="none"/>
  </g>
</svg>
