<?xml version="1.0" encoding="UTF-8" standalone="no"?>
<svg xmlns:xlink="http://www.w3.org/1999/xlink" height="20.75px" width="639.35px" xmlns="http://www.w3.org/2000/svg">
  <g transform="matrix(1.0, 0.0, 0.0, 1.0, 134.6, 10.35)">
    <path d="M16.85 -7.05 Q24.8 -0.6 33.65 -7.05 42.05 -13.65 50.5 -7.05 58.45 -0.6 67.3 -7.05 75.7 -13.65 84.15 -7.05 92.1 -0.6 100.95 -7.05 109.35 -13.65 117.8 -7.05 125.75 -0.6 134.6 -7.05 143.0 -13.65 151.45 -7.05 159.4 -0.6 168.25 -7.05 176.65 -13.65 185.1 -7.05 193.05 -0.6 201.9 -7.05 210.3 -13.65 218.75 -7.05 226.7 -0.6 235.55 -7.05 243.95 -13.65 252.4 -7.05 260.35 -0.6 269.2 -7.05 277.6 -13.65 286.05 -7.05 294.0 -0.6 302.85 -7.05 311.25 -13.65 319.7 -7.05 327.65 -0.6 336.5 -7.05 344.9 -13.65 353.35 -7.05 361.3 -0.6 370.15 -7.05 378.55 -13.65 387.0 -7.05 394.95 -0.6 403.8 -7.05 412.2 -13.65 420.65 -7.05 428.6 -0.6 437.45 -7.05 445.85 -13.65 454.3 -7.05 462.25 -0.6 471.1 -7.05 479.5 -13.65 487.95 -7.05 495.9 -0.6 504.75 -7.05 L504.75 10.4 -134.6 10.4 -134.6 -7.05 Q-126.2 -13.65 -117.75 -7.05 -109.8 -0.6 -100.95 -7.05 -92.55 -13.65 -84.1 -7.05 -76.15 -0.6 -67.3 -7.05 -58.9 -13.65 -50.45 -7.05 -42.5 -0.6 -33.65 -7.05 -25.25 -13.65 -16.8 -7.05 -8.85 -0.6 0.0 -7.05 8.4 -13.65 16.85 -7.05" fill="#3c3c3c" fill-rule="evenodd" stroke="none"/>
  </g>
</svg>
