<?xml version="1.0" encoding="UTF-8" standalone="no"?>
<svg xmlns:xlink="http://www.w3.org/1999/xlink" height="20.8px" width="538.4px" xmlns="http://www.w3.org/2000/svg">
  <g transform="matrix(1.0, 0.0, 0.0, 1.0, 134.75, 10.4)">
    <path d="M14.35 -8.7 Q15.6 -8.05 16.85 -7.05 L19.1 -5.45 16.7 -7.1 14.35 -8.7 M48.0 -8.7 L50.5 -7.05 52.75 -5.45 50.35 -7.1 48.0 -8.7 M81.65 -8.7 L84.15 -7.05 86.4 -5.45 84.0 -7.1 81.65 -8.7 M115.3 -8.7 Q116.55 -8.05 117.8 -7.05 L120.05 -5.45 Q118.85 -6.15 117.65 -7.1 L115.3 -8.7 M134.6 10.35 L134.6 10.4 -134.6 10.4 -134.6 10.35 134.6 10.35 M-120.25 -8.7 Q-119.0 -8.05 -117.75 -7.05 L-115.5 -5.45 Q-116.7 -6.15 -117.9 -7.1 L-120.25 -8.7 M-86.6 -8.7 L-84.1 -7.05 -81.85 -5.45 -84.25 -7.1 -86.6 -8.7 M-52.95 -8.7 L-50.45 -7.05 -48.2 -5.45 -50.6 -7.1 Q-51.8 -8.05 -52.95 -8.7 M-19.3 -8.7 L-16.8 -7.05 -14.55 -5.45 -16.95 -7.1 -19.3 -8.7" fill="#333333" fill-rule="evenodd" stroke="none"/>
    <path d="M-14.55 -5.45 L-12.2 -4.4 -9.3 -3.85 Q-4.85 -3.65 -0.15 -7.1 4.4 -10.65 8.95 -10.35 L11.95 -9.75 14.35 -8.7 16.7 -7.1 19.1 -5.45 21.45 -4.4 24.35 -3.85 Q28.8 -3.65 33.5 -7.1 38.05 -10.65 42.6 -10.35 L45.6 -9.75 48.0 -8.7 50.35 -7.1 52.75 -5.45 55.1 -4.4 58.0 -3.85 Q62.45 -3.65 67.15 -7.1 71.7 -10.65 76.25 -10.35 L79.25 -9.75 81.65 -8.7 84.0 -7.1 86.4 -5.45 88.75 -4.4 91.65 -3.85 Q96.1 -3.65 100.8 -7.1 105.35 -10.65 109.9 -10.35 L112.9 -9.75 115.3 -8.7 117.65 -7.1 Q118.85 -6.15 120.05 -5.45 L122.4 -4.4 125.3 -3.85 Q129.75 -3.65 134.45 -7.1 142.85 -13.7 151.3 -7.1 159.25 -0.65 168.1 -7.1 176.5 -13.7 184.95 -7.1 192.9 -0.65 201.75 -7.1 210.15 -13.7 218.6 -7.1 226.55 -0.65 235.4 -7.1 243.8 -13.7 252.25 -7.1 260.2 -0.65 269.05 -7.1 277.45 -13.7 285.9 -7.1 293.85 -0.65 302.7 -7.1 311.1 -13.7 319.55 -7.1 327.5 -0.65 336.35 -7.1 344.75 -13.7 353.2 -7.1 361.15 -0.65 370.0 -7.1 378.4 -13.7 386.85 -7.1 394.8 -0.65 403.65 -7.1 L403.65 10.35 134.6 10.35 -134.6 10.35 -134.75 10.35 -134.75 -7.1 Q-130.2 -10.65 -125.65 -10.35 L-122.65 -9.75 -120.25 -8.7 -117.9 -7.1 Q-116.7 -6.15 -115.5 -5.45 L-113.15 -4.4 -110.25 -3.85 Q-105.8 -3.65 -101.1 -7.1 -96.55 -10.65 -92.0 -10.35 L-89.0 -9.75 -86.6 -8.7 -84.25 -7.1 -81.85 -5.45 -79.5 -4.4 -76.6 -3.85 Q-72.15 -3.65 -67.45 -7.1 -62.9 -10.65 -58.35 -10.35 L-55.35 -9.75 -52.95 -8.7 Q-51.8 -8.05 -50.6 -7.1 L-48.2 -5.45 -45.85 -4.4 -42.95 -3.85 Q-38.5 -3.65 -33.8 -7.1 -29.25 -10.65 -24.7 -10.35 L-21.7 -9.75 -19.3 -8.7 -16.95 -7.1 -14.55 -5.45" fill="#3c3c3c" fill-rule="evenodd" stroke="none"/>
  </g>
</svg>
