<?xml version="1.0" encoding="UTF-8" standalone="no"?>
<svg xmlns:xlink="http://www.w3.org/1999/xlink" height="33.0px" width="34.0px" xmlns="http://www.w3.org/2000/svg">
  <g transform="matrix(1.0, 0.0, 0.0, 1.0, 15.4, 33.0)">
    <path d="M16.15 -9.25 L14.85 -8.35 13.35 -7.5 13.15 -7.4 Q10.55 -5.45 6.55 -3.4 L-0.65 0.0 -2.45 -1.55 -4.15 -3.15 -15.15 -11.7 -15.35 -12.9 Q-15.5 -13.8 -15.25 -14.2 L-11.65 -14.6 -7.5 -14.85 -9.4 -32.15 Q-3.7 -31.8 7.4 -32.5 L8.9 -32.75 10.2 -32.95 Q10.65 -32.9 11.45 -32.0 12.3 -31.05 12.15 -30.65 L11.7 -28.3 11.4 -25.85 10.4 -20.15 9.4 -13.9 15.05 -13.85 16.8 -14.0 18.55 -13.6 18.5 -12.15 18.6 -11.0 Q18.0 -10.75 16.15 -9.25 M17.65 -12.65 L9.95 -12.85 9.35 -12.0 8.8 -11.15 17.45 -11.65 17.65 -12.65 M8.3 -32.0 L0.15 -31.25 -7.15 -31.05 -7.2 -30.95 -6.85 -30.75 -6.7 -30.45 Q-4.3 -30.15 -0.5 -30.45 L5.35 -30.85 10.25 -31.55 Q10.0 -32.05 9.4 -32.05 L8.3 -32.0 M10.0 -30.05 L1.35 -28.95 Q-4.1 -28.3 -6.75 -28.8 L-5.25 -14.3 -5.8 -12.65 Q-6.15 -11.65 -6.75 -11.35 L-6.6 -11.55 Q-6.35 -11.75 -6.6 -11.65 L-12.7 -11.35 -0.05 -1.15 7.95 -5.9 Q13.15 -8.85 15.8 -10.8 L11.45 -10.6 7.45 -10.1 8.25 -18.75 10.0 -30.05 M-6.8 -13.0 L-6.9 -13.7 -14.6 -13.05 -14.6 -12.85 Q-14.15 -12.3 -13.75 -12.15 -12.55 -11.8 -10.45 -12.15 L-6.75 -12.3 -6.8 -13.0" fill="#6f3321" fill-rule="evenodd" stroke="none"/>
    <path d="M-14.6 -12.85 L-14.6 -13.05 -6.9 -13.7 -6.8 -13.0 -6.75 -12.3 -10.45 -12.15 Q-12.55 -11.8 -13.75 -12.15 -14.15 -12.3 -14.6 -12.85" fill="#ce8218" fill-rule="evenodd" stroke="none"/>
    <path d="M10.05 -30.15 L8.4 -18.85 Q7.8 -15.0 7.45 -10.1 L11.45 -10.6 15.8 -10.8 Q13.15 -8.85 7.95 -5.9 L-0.05 -1.15 -12.7 -11.35 -6.6 -11.65 Q-6.35 -11.75 -6.6 -11.55 L-6.75 -11.35 Q-6.15 -11.65 -5.8 -12.65 L-5.25 -14.3 -7.15 -29.1 Q-4.45 -28.55 1.15 -29.15 L10.05 -30.15" fill="#f4b120" fill-rule="evenodd" stroke="none"/>
    <path d="M9.4 -32.05 Q10.0 -32.05 10.25 -31.55 L5.35 -30.85 -0.5 -30.45 Q-4.3 -30.15 -6.7 -30.45 L-6.85 -30.75 -7.2 -30.95 -7.15 -31.05 0.15 -31.25 8.3 -32.0 9.4 -32.05" fill="#ce8218" fill-rule="evenodd" stroke="none"/>
    <path d="M17.45 -11.65 L8.8 -11.15 9.35 -12.0 9.95 -12.85 17.65 -12.65 17.45 -11.65" fill="#ce8218" fill-rule="evenodd" stroke="none"/>
  </g>
</svg>
