<?xml version="1.0" encoding="UTF-8" standalone="no"?>
<svg xmlns:xlink="http://www.w3.org/1999/xlink" height="139.7px" width="268.9px" xmlns="http://www.w3.org/2000/svg">
  <g transform="matrix(1.0, 0.0, 0.0, 1.0, 120.65, 84.75)">
    <path d="M28.75 -50.5 Q35.85 -47.05 40.15 -49.1 43.2 -50.55 73.95 -49.15 L104.05 -47.45 114.5 -37.0 117.1 -4.9 140.5 -4.9 142.4 -3.65 Q144.6 -2.0 146.05 -0.1 150.6 5.95 145.7 12.45 140.85 18.95 108.95 37.6 93.0 46.95 78.05 54.95 L27.7 41.25 -1.8 52.45 -38.25 37.7 -66.9 48.95 -120.65 23.8 -113.15 -10.75 -117.25 -43.95 -49.55 -50.05 -38.25 -53.5 -40.85 -68.25 -28.7 -84.75 7.75 -83.9 Q11.05 -80.5 14.4 -75.9 21.0 -66.7 21.0 -60.75 21.0 -54.2 28.75 -50.5" fill="#000099" fill-opacity="0.0" fill-rule="evenodd" stroke="none"/>
    <path d="M27.4 -31.75 L36.8 -18.1 5.65 -6.55 -12.5 -15.2 27.4 -31.75" fill="#999999" fill-rule="evenodd" stroke="none"/>
  </g>
</svg>
