<?xml version="1.0" encoding="UTF-8" standalone="no"?>
<svg xmlns:xlink="http://www.w3.org/1999/xlink" height="81.85px" width="43.5px" xmlns="http://www.w3.org/2000/svg">
  <g transform="matrix(1.0, 0.0, 0.0, 1.0, 0.0, 0.0)">
    <path d="M19.35 7.9 L19.3 4.9 34.55 4.6 34.6 7.6 19.35 7.9" fill="#f9cf17" fill-rule="evenodd" stroke="none"/>
    <path d="M43.5 2.0 L31.1 2.35 31.05 0.35 43.45 0.0 43.5 2.0" fill="#f9cf17" fill-rule="evenodd" stroke="none"/>
    <path d="M11.1 14.65 L11.05 11.65 26.85 11.35 26.9 14.35 11.1 14.65" fill="#f9cf17" fill-rule="evenodd" stroke="none"/>
    <path d="M6.85 21.55 L6.8 18.55 22.55 18.25 22.6 21.25 6.85 21.55" fill="#f9cf17" fill-rule="evenodd" stroke="none"/>
    <path d="M0.05 28.75 L0.0 25.75 18.65 25.45 18.7 28.45 0.05 28.75" fill="#f5e6a2" fill-rule="evenodd" stroke="none"/>
    <path d="M1.85 35.9 L1.8 32.9 16.5 32.6 16.55 35.6 1.85 35.9" fill="#f5e6a2" fill-rule="evenodd" stroke="none"/>
    <path d="M4.0 43.1 L3.9 40.1 16.15 39.8 16.2 42.8 4.0 43.1" fill="#f9cf17" fill-rule="evenodd" stroke="none"/>
    <path d="M5.05 49.4 L5.0 46.4 17.2 46.1 17.3 49.1 5.05 49.4" fill="#f9cf17" fill-rule="evenodd" stroke="none"/>
    <path d="M6.5 55.4 L6.4 52.4 18.65 52.1 18.7 55.1 6.5 55.4" fill="#f9cf17" fill-rule="evenodd" stroke="none"/>
    <path d="M7.9 61.65 L7.85 58.65 20.05 58.35 20.15 61.35 7.9 61.65" fill="#f9cf17" fill-rule="evenodd" stroke="none"/>
    <path d="M9.7 66.75 L9.65 63.75 21.85 63.45 21.9 66.45 9.7 66.75" fill="#f9cf17" fill-rule="evenodd" stroke="none"/>
    <path d="M15.4 71.65 L15.35 69.65 27.55 69.35 27.6 71.35 15.4 71.65" fill="#f9cf17" fill-rule="evenodd" stroke="none"/>
    <path d="M20.05 76.15 L20.0 74.15 32.2 73.85 32.25 75.85 20.05 76.15" fill="#f9cf17" fill-rule="evenodd" stroke="none"/>
    <path d="M25.05 79.45 L25.0 77.45 37.2 77.15 37.25 79.15 25.05 79.45" fill="#f9cf17" fill-rule="evenodd" stroke="none"/>
    <path d="M30.0 79.85 L42.2 79.55 42.25 81.55 30.05 81.85 30.0 79.85" fill="#f9cf17" fill-rule="evenodd" stroke="none"/>
  </g>
</svg>
