<?xml version="1.0" encoding="UTF-8" standalone="no"?>
<svg xmlns:xlink="http://www.w3.org/1999/xlink" height="116.9px" width="364.75px" xmlns="http://www.w3.org/2000/svg">
  <g transform="matrix(1.0, 0.0, 0.0, 1.0, 182.55, 65.3)">
    <path d="M27.25 -9.65 L72.65 -24.75 116.4 -7.55 97.8 6.05 182.2 20.55 116.4 51.6 39.15 28.35 -8.05 45.75 -72.4 21.55 -117.05 36.0 -182.55 15.75 -170.4 -16.0 -148.25 -25.75 -111.05 -31.6 -93.3 -28.45 -71.85 -31.55 -71.85 -49.95 -44.65 -56.55 -18.9 -51.75 28.3 -65.3 66.9 -47.85 58.35 -45.15 81.2 -29.6 21.15 -12.15 27.25 -9.65" fill="#999999" fill-rule="evenodd" stroke="none"/>
    <path d="M85.65 28.35 L74.9 31.25 69.6 37.35 47.6 32.35 Q47.65 30.15 49.65 27.7 53.65 22.75 63.5 21.55 73.3 20.35 87.25 16.95 L99.25 13.8 117.6 8.35 139.6 11.35 Q116.4 18.65 104.95 22.5 97.8 24.95 85.65 28.35" fill="#53a8f6" fill-rule="evenodd" stroke="none"/>
  </g>
</svg>
