<?xml version="1.0" encoding="UTF-8" standalone="no"?>
<svg xmlns:xlink="http://www.w3.org/1999/xlink" height="124.9px" width="364.0px" xmlns="http://www.w3.org/2000/svg">
  <g transform="matrix(1.0, 0.0, 0.0, 1.0, 0.0, 0.0)">
    <path d="M254.05 43.3 L297.8 61.7 281.0 74.65 364.0 88.65 297.8 124.9 248.95 109.15 229.0 104.35 229.25 102.85 220.55 100.05 173.35 118.7 109.0 92.8 64.35 108.25 0.0 84.65 11.0 52.7 33.15 42.25 70.35 36.0 88.1 39.35 109.55 36.05 109.55 16.4 136.75 9.3 162.5 14.5 209.7 0.0 249.0 20.65 239.75 21.55 262.6 38.15 202.55 56.75 208.65 59.45 254.05 43.3" fill="#37888f" fill-rule="evenodd" stroke="none"/>
  </g>
</svg>
