<?xml version="1.0" encoding="UTF-8" standalone="no"?>
<svg xmlns:xlink="http://www.w3.org/1999/xlink" height="93.7px" width="96.3px" xmlns="http://www.w3.org/2000/svg">
  <g transform="matrix(1.0, 0.0, 0.0, 1.0, 46.5, 42.05)">
    <path d="M49.7 44.7 L49.45 45.7 Q38.25 48.8 23.6 50.4 L25.95 50.0 40.3 47.65 Q46.7 46.45 49.7 44.7" fill="#152242" fill-rule="evenodd" stroke="none"/>
    <path d="M49.7 44.7 Q46.7 46.45 40.3 47.65 L25.95 50.0 23.6 50.4 Q38.25 48.8 49.45 45.7 L49.7 44.7 Z" fill="none" stroke="#152242" stroke-linecap="butt" stroke-linejoin="miter" stroke-width="0.25"/>
    <path d="M15.6 51.1 L12.1 51.3 8.7 51.55" fill="none" stroke="#152242" stroke-linecap="butt" stroke-linejoin="miter" stroke-width="0.25"/>
    <path d="M-36.7 48.6 L-34.8 49.2 Q-41.8 48.0 -46.05 45.9 L-46.3 45.4 -41.65 47.0 -36.7 48.6" fill="#152242" fill-rule="evenodd" stroke="none"/>
    <path d="M-36.7 48.6 L-41.65 47.0 -46.3 45.4 -46.05 45.9 Q-41.8 48.0 -34.8 49.2 L-36.7 48.6 Z" fill="none" stroke="#152242" stroke-linecap="butt" stroke-linejoin="miter" stroke-width="0.25"/>
    <path d="M-7.95 -38.95 Q-7.85 -39.3 -7.3 -39.3 -6.6 -39.35 -6.5 -39.5 -5.3 -40.4 -4.8 -41.8 -3.85 -42.35 -3.15 -41.65 L-2.0 -40.3 -0.55 -40.2 Q0.2 -40.15 0.55 -39.65 L0.35 -39.25 0.2 -38.85 -3.85 -39.3 -7.95 -38.95" fill="#152242" fill-rule="evenodd" stroke="none"/>
    <path d="M10.35 -39.55 Q9.95 -39.2 8.7 -39.2 L6.95 -39.0 Q7.05 -40.8 8.35 -40.8 8.65 -40.8 9.25 -40.1 9.85 -39.4 10.35 -39.55" fill="#152242" fill-rule="evenodd" stroke="none"/>
    <path d="M12.15 -39.35 L12.0 -39.2 12.0 -38.85 Q11.4 -39.35 10.8 -39.3 L11.5 -39.55 12.15 -39.35" fill="#152242" fill-rule="evenodd" stroke="none"/>
    <path d="M4.65 -39.1 L5.9 -38.95 5.1 -38.65 Q4.6 -38.55 4.65 -39.1" fill="#152242" fill-rule="evenodd" stroke="none"/>
    <path d="M-15.1 -39.5 L-18.65 -39.45 -22.05 -39.15 Q-19.05 -42.55 -17.55 -40.1 L-17.15 -40.3 -16.6 -40.2 -14.9 -40.3 Q-13.9 -40.25 -13.75 -39.35 -13.75 -39.1 -14.15 -39.25 L-15.1 -39.5" fill="#152242" fill-rule="evenodd" stroke="none"/>
  </g>
</svg>
