<?xml version="1.0" encoding="UTF-8" standalone="no"?>
<svg xmlns:xlink="http://www.w3.org/1999/xlink" height="40.4px" width="64.0px" xmlns="http://www.w3.org/2000/svg">
  <g transform="matrix(1.0, 0.0, 0.0, 1.0, 24.0, 30.0)">
    <path d="M33.2 -26.75 Q35.55 -24.7 37.45 -20.75 L38.95 -17.65 Q39.55 -16.0 39.8 -13.9 40.35 -9.3 39.45 -5.05 38.55 -0.75 36.25 2.35 L34.15 5.0 Q33.2 6.0 31.65 7.15 30.35 8.0 28.7 8.65 L25.25 9.65 23.1 9.95 21.05 10.4 Q19.65 10.55 18.95 9.7 17.65 9.7 15.7 9.0 13.85 8.45 12.55 7.65 L10.95 6.2 Q10.0 5.2 9.2 5.0 L8.0 3.45 6.65 2.0 Q4.05 -1.1 2.3 -8.75 L3.15 -8.95 Q3.6 -8.95 3.7 -9.5 L3.45 -10.0 Q3.05 -10.15 3.2 -10.6 L2.7 -10.8 Q2.25 -10.9 2.15 -11.05 2.5 -17.5 5.5 -21.9 7.6 -25.05 9.55 -26.55 11.95 -28.45 15.25 -29.3 L20.7 -30.0 23.9 -29.55 27.3 -28.95 30.6 -28.25 Q32.0 -27.75 33.2 -26.75" fill="#8fc73b" fill-rule="evenodd" stroke="none"/>
    <path d="M2.1 -22.4 Q1.9 -21.9 1.1 -21.85 L-0.4 -21.8 -2.05 -21.0 Q-2.9 -20.75 -3.45 -21.9 L-5.85 -22.05 Q-7.35 -21.9 -7.35 -23.2 -6.9 -23.4 -6.7 -22.95 L-6.15 -22.35 Q-3.9 -22.6 1.05 -22.5 1.35 -22.75 1.45 -23.5 L1.9 -23.1 2.1 -22.4" fill="#152242" fill-rule="evenodd" stroke="none"/>
    <path d="M-20.95 -22.0 L-18.9 -22.4 -16.9 -22.4 -14.3 -22.45 -13.8 -22.4 -13.9 -21.35 -16.15 -21.45 Q-17.35 -21.35 -17.8 -20.55 -18.35 -20.45 -18.9 -20.95 L-20.05 -21.65 -22.6 -21.35 Q-23.95 -21.1 -24.0 -22.05 L-23.35 -22.15 -22.8 -21.8 -20.95 -22.0" fill="#152242" fill-rule="evenodd" stroke="none"/>
    <path d="M-6.05 -18.15 L-5.9 -17.95 -5.5 -14.0 Q-5.3 -11.5 -5.75 -10.3 -6.1 -10.35 -6.25 -11.75 L-6.4 -14.8 Q-6.4 -16.85 -6.55 -17.7 -6.2 -17.75 -6.05 -18.15" fill="#52919d" fill-rule="evenodd" stroke="none"/>
    <path d="M-6.05 -18.15 L-5.9 -17.95 -5.5 -14.0 Q-5.3 -11.5 -5.75 -10.3 -6.1 -10.35 -6.25 -11.75 L-6.4 -14.8 Q-6.4 -16.85 -6.55 -17.7 -6.2 -17.75 -6.05 -18.15 Z" fill="none" stroke="#95cfd7" stroke-linecap="butt" stroke-linejoin="miter" stroke-width="1.5"/>
    <path d="M-22.2 -14.95 L-21.05 -14.95 Q-20.25 -15.35 -20.3 -16.3 L-18.6 -16.35 -17.2 -15.1 -15.8 -15.05 Q-15.05 -15.05 -14.75 -14.7 -15.1 -14.2 -15.8 -14.35 L-16.9 -14.7 -17.65 -14.6 -18.45 -14.55 -23.2 -14.65 -22.2 -14.95" fill="#152242" fill-rule="evenodd" stroke="none"/>
  </g>
</svg>
