<?xml version="1.0" encoding="UTF-8" standalone="no"?>
<svg xmlns:xlink="http://www.w3.org/1999/xlink" height="100.65px" width="105.5px" xmlns="http://www.w3.org/2000/svg">
  <g transform="matrix(1.0, 0.0, 0.0, 1.0, 50.8, 48.55)">
    <path d="M-2.9 -9.1 Q-2.1 -8.95 -1.2 -9.7 -0.35 -10.45 0.55 -10.15 -1.5 -8.25 -2.45 -4.9 L-2.5 -3.75 Q-2.6 -3.0 -3.25 -3.0 -3.55 -3.15 -3.55 -3.75 L-3.4 -4.65 -3.2 -6.6 -2.9 -9.1" fill="#52919d" fill-rule="evenodd" stroke="none"/>
    <path d="M-2.9 -9.1 Q-2.1 -8.95 -1.2 -9.7 -0.35 -10.45 0.55 -10.15 -1.5 -8.25 -2.45 -4.9 L-2.5 -3.75 Q-2.6 -3.0 -3.25 -3.0 -3.55 -3.15 -3.55 -3.75 L-3.4 -4.65 -3.2 -6.6 -2.9 -9.1 Z" fill="none" stroke="#95cfd7" stroke-linecap="butt" stroke-linejoin="miter" stroke-width="1.5"/>
    <path d="M-3.8 -9.55 Q-4.45 -5.55 -4.45 -2.95 -4.8 -3.15 -4.8 -3.8 L-4.75 -5.1 -5.2 -8.35 Q-5.25 -9.95 -3.8 -9.55" fill="#52919d" fill-rule="evenodd" stroke="none"/>
    <path d="M-3.8 -9.55 Q-4.45 -5.55 -4.45 -2.95 -4.8 -3.15 -4.8 -3.8 L-4.75 -5.1 -5.2 -8.35 Q-5.25 -9.95 -3.8 -9.55 Z" fill="none" stroke="#95cfd7" stroke-linecap="butt" stroke-linejoin="miter" stroke-width="1.5"/>
    <path d="M-9.2 -9.05 Q-9.0 -10.2 -8.1 -9.65 L-6.15 -8.55 -5.85 -5.7 -5.5 -2.9 Q-5.45 -2.7 -5.85 -2.75 -6.2 -2.85 -6.2 -2.6 L-7.2 -4.55 Q-7.7 -5.8 -8.3 -6.35 -8.1 -6.9 -8.7 -7.7 -9.25 -8.55 -9.2 -9.05" fill="#52919d" fill-rule="evenodd" stroke="none"/>
    <path d="M-9.2 -9.05 Q-9.0 -10.2 -8.1 -9.65 L-6.15 -8.55 -5.85 -5.7 -5.5 -2.9 Q-5.45 -2.7 -5.85 -2.75 -6.2 -2.85 -6.2 -2.6 L-7.2 -4.55 Q-7.7 -5.8 -8.3 -6.35 -8.1 -6.9 -8.7 -7.7 -9.25 -8.55 -9.2 -9.05 Z" fill="none" stroke="#95cfd7" stroke-linecap="butt" stroke-linejoin="miter" stroke-width="1.5"/>
    <path d="M4.6 0.95 L6.25 3.15 Q8.15 5.8 9.6 7.15 11.5 9.0 14.05 10.05 L14.2 10.7 14.25 11.5 Q13.45 9.85 11.15 10.05 9.05 10.2 7.9 11.4 L7.3 9.95 Q6.95 9.0 6.45 8.6 L5.4 9.7 4.3 10.8 3.05 9.75 1.85 8.5 -0.05 10.05 Q0.0 8.15 -0.75 6.4 L-2.35 3.7 -1.9 2.75 -1.4 1.7 Q-1.2 0.6 -1.7 -1.3 -1.7 -3.05 -0.75 -5.3 0.2 -7.65 1.35 -8.3 L2.15 -4.55 Q2.65 -2.45 3.25 -1.15 L4.6 0.95" fill="#f979ad" fill-rule="evenodd" stroke="none"/>
    <path d="M-7.45 -2.4 Q-8.55 -3.0 -10.2 -5.45 -11.7 -7.65 -13.25 -8.2 -13.5 -8.55 -13.25 -8.55 L-11.55 -8.5 -9.9 -8.05 -8.6 -5.15 -7.8 -3.75 Q-7.4 -2.95 -7.45 -2.4" fill="#52919d" fill-rule="evenodd" stroke="none"/>
    <path d="M-7.45 -2.4 Q-8.55 -3.0 -10.2 -5.45 -11.7 -7.65 -13.25 -8.2 -13.5 -8.55 -13.25 -8.55 L-11.55 -8.5 -9.9 -8.05 -8.6 -5.15 -7.8 -3.75 Q-7.4 -2.95 -7.45 -2.4 Z" fill="none" stroke="#95cfd7" stroke-linecap="butt" stroke-linejoin="miter" stroke-width="1.5"/>
    <path d="M-3.05 0.65 Q-3.1 2.55 -4.65 2.55 -6.25 2.55 -6.45 1.0 L-6.25 -0.1 -5.85 -1.35 -4.65 -0.95 -3.6 -0.45 -3.4 0.3 -3.05 0.65" fill="#52919d" fill-rule="evenodd" stroke="none"/>
    <path d="M-3.05 0.65 Q-3.1 2.55 -4.65 2.55 -6.25 2.55 -6.45 1.0 L-6.25 -0.1 -5.85 -1.35 -4.65 -0.95 -3.6 -0.45 -3.4 0.3 -3.05 0.65 Z" fill="none" stroke="#95cfd7" stroke-linecap="butt" stroke-linejoin="miter" stroke-width="1.5"/>
    <path d="M37.7 3.7 Q40.4 5.35 41.15 6.5 L39.5 8.3 37.1 12.0 34.65 15.65 Q32.8 15.2 29.65 13.8 26.55 12.45 24.95 12.0 25.6 11.15 27.3 10.5 L30.0 9.4 30.7 9.7 31.55 9.6 31.15 10.45 30.8 11.4 Q31.1 12.2 32.35 12.9 33.75 13.7 34.1 14.2 L38.0 7.6 Q37.85 6.9 37.2 6.4 L35.85 5.8 Q36.05 5.4 36.8 4.8 L37.7 3.7" fill="#95cfd7" fill-rule="evenodd" stroke="none"/>
    <path d="M37.7 3.7 Q40.4 5.35 41.15 6.5 L39.5 8.3 37.1 12.0 34.65 15.65 Q32.8 15.2 29.65 13.8 26.55 12.45 24.95 12.0 25.6 11.15 27.3 10.5 L30.0 9.4 30.7 9.7 31.55 9.6 31.15 10.45 30.8 11.4 Q31.1 12.2 32.35 12.9 33.75 13.7 34.1 14.2 L38.0 7.6 Q37.85 6.9 37.2 6.4 L35.85 5.8 Q36.05 5.4 36.8 4.8 L37.7 3.7 Z" fill="none" stroke="#75c2c6" stroke-linecap="butt" stroke-linejoin="miter" stroke-width="1.0"/>
    <path d="M36.8 7.45 Q36.5 8.5 35.45 10.05 34.45 11.55 34.05 12.6 33.05 12.25 31.9 11.35 L32.6 9.4 33.3 7.45 Q35.05 5.9 36.8 7.45" fill="#ffffff" fill-rule="evenodd" stroke="none"/>
    <path d="M-15.55 3.6 L-16.55 4.3 -17.6 4.45 -18.5 3.5 Q-18.95 2.7 -19.45 2.7 L-16.35 2.5 -13.45 2.05 -13.25 3.3 -14.3 3.55 -15.55 3.6" fill="#152242" fill-rule="evenodd" stroke="none"/>
    <path d="M-5.75 3.35 L-5.05 3.55 -4.15 3.5 -2.8 6.45 Q-2.05 8.3 -2.85 9.95 L-4.2 10.05 Q-5.2 10.85 -6.1 10.45 -6.4 9.05 -6.05 6.95 -5.65 4.45 -5.75 3.35" fill="#52919d" fill-rule="evenodd" stroke="none"/>
    <path d="M-5.75 3.35 L-5.05 3.55 -4.15 3.5 -2.8 6.45 Q-2.05 8.3 -2.85 9.95 L-4.2 10.05 Q-5.2 10.85 -6.1 10.45 -6.4 9.05 -6.05 6.95 -5.65 4.45 -5.75 3.35 Z" fill="none" stroke="#95cfd7" stroke-linecap="butt" stroke-linejoin="miter" stroke-width="1.5"/>
    <path d="M-20.8 2.35 Q-20.6 2.95 -21.65 3.0 -22.75 3.0 -23.0 2.5 L-22.8 2.0 Q-22.7 1.9 -21.95 2.3 L-20.8 2.35" fill="#152242" fill-rule="evenodd" stroke="none"/>
    <path d="M42.35 14.5 L41.75 14.95 Q40.45 16.5 39.1 19.65 L36.95 24.75 Q33.25 24.95 32.0 25.5 33.3 21.35 36.3 16.65 L41.75 8.85 Q42.05 8.9 42.2 9.65 L42.45 11.2 43.2 13.05 Q43.3 13.45 42.35 14.5" fill="#37888f" fill-rule="evenodd" stroke="none"/>
    <path d="M15.35 10.85 L16.15 11.25 17.15 11.45 17.2 13.3 17.3 15.1 16.35 16.2 15.45 17.35 15.35 14.2 15.35 10.85" fill="#95cfd7" fill-rule="evenodd" stroke="none"/>
    <path d="M15.35 10.85 L16.15 11.25 17.15 11.45 17.2 13.3 17.3 15.1 16.35 16.2 15.45 17.35 15.35 14.2 15.35 10.85 Z" fill="none" stroke="#75c2c6" stroke-linecap="butt" stroke-linejoin="miter" stroke-width="1.0"/>
    <path d="M20.95 11.95 L21.0 26.95 Q21.1 36.35 20.75 42.55 L18.3 41.95 Q19.5 23.55 19.45 13.7 L19.35 12.85 Q19.3 12.35 19.55 12.0 L20.2 11.95 20.95 11.95" fill="#492a18" fill-rule="evenodd" stroke="none"/>
    <path d="M11.9 11.45 L8.4 16.65 Q6.5 19.85 5.8 23.2 L5.1 23.1 Q4.65 23.05 4.55 23.25 5.1 19.65 7.85 12.6 8.7 12.6 9.9 11.65 10.8 10.95 11.9 11.45" fill="#94d6f0" fill-rule="evenodd" stroke="none"/>
    <path d="M14.35 23.5 Q14.45 30.75 14.7 35.1 L13.1 35.65 13.35 32.5 Q13.45 30.6 13.75 29.6 L13.05 29.1 Q12.55 28.85 12.6 28.45 12.4 28.5 12.6 28.95 11.7 28.35 9.75 27.85 7.75 27.3 6.9 26.65 L-2.2 27.45 -2.2 26.35 -2.2 25.4 2.65 25.25 Q5.75 25.35 6.95 24.55 8.0 20.7 8.4 19.7 9.35 17.1 10.65 15.65 11.25 14.1 12.4 13.4 12.6 12.6 13.35 12.45 L13.8 11.9 Q14.0 11.55 14.2 11.8 L14.35 23.5" fill="#f979ad" fill-rule="evenodd" stroke="none"/>
    <path d="M33.75 17.3 Q32.5 19.25 30.75 24.15 L30.4 25.35 29.65 26.3 Q29.6 28.0 28.5 31.15 27.4 34.3 27.3 36.4 L25.65 36.4 23.65 36.15 25.0 31.3 26.4 26.55 27.35 22.65 Q27.75 20.35 27.15 18.55 26.7 17.05 25.45 15.95 24.05 14.75 22.15 14.55 L22.3 12.5 Q25.15 13.1 28.2 14.6 L33.75 17.3" fill="#95cfd7" fill-rule="evenodd" stroke="none"/>
    <path d="M33.75 17.3 Q32.5 19.25 30.75 24.15 L30.4 25.35 29.65 26.3 Q29.6 28.0 28.5 31.15 27.4 34.3 27.3 36.4 L25.65 36.4 23.65 36.15 25.0 31.3 26.4 26.55 27.35 22.65 Q27.75 20.35 27.15 18.55 26.7 17.05 25.45 15.95 24.05 14.75 22.15 14.55 L22.3 12.5 Q25.15 13.1 28.2 14.6 L33.75 17.3 Z" fill="none" stroke="#75c2c6" stroke-linecap="butt" stroke-linejoin="miter" stroke-width="1.0"/>
    <path d="M3.25 12.1 Q2.65 14.85 1.5 23.1 L0.45 23.55 -0.7 23.65 -0.65 15.4 -0.75 13.95 -0.6 12.6 Q-0.3 11.95 0.5 11.45 L1.85 10.55 2.55 11.35 Q2.85 12.0 3.25 12.1" fill="#94d6f0" fill-rule="evenodd" stroke="none"/>
    <path d="M6.95 12.35 Q5.5 16.2 4.0 21.1 L3.6 22.6 Q3.25 23.4 2.55 23.4 2.3 22.85 2.55 21.65 L3.0 19.45 4.0 12.9 4.9 11.95 5.85 11.0 6.3 11.7 Q6.55 12.2 6.95 12.35" fill="#94d6f0" fill-rule="evenodd" stroke="none"/>
    <path d="M-1.5 12.35 L-1.7 17.65 -1.8 23.7 -4.7 23.55 -6.15 13.1 -5.15 12.45 -4.2 11.55 -2.85 11.65 -1.5 12.35" fill="#94d6f0" fill-rule="evenodd" stroke="none"/>
    <path d="M-8.7 23.7 L-10.35 23.75 -12.05 23.7 Q-13.2 20.3 -16.25 12.6 -15.95 11.9 -14.55 10.5 L-13.25 11.9 Q-12.45 12.8 -11.7 13.05 L-8.7 23.7" fill="#94d6f0" fill-rule="evenodd" stroke="none"/>
    <path d="M-8.95 11.1 Q-7.95 12.65 -7.05 13.0 L-6.35 18.3 Q-5.9 21.55 -5.8 23.65 -6.15 23.5 -6.65 23.65 L-7.6 23.65 -10.6 13.15 -9.75 12.05 -8.95 11.1" fill="#94d6f0" fill-rule="evenodd" stroke="none"/>
    <path d="M26.15 24.05 L24.05 30.95 Q22.7 35.2 22.4 36.75 22.05 36.7 22.1 36.2 L22.2 35.5 Q21.85 31.8 22.0 26.3 L22.15 16.3 22.2 15.8 Q24.6 16.6 25.7 18.6 26.95 20.95 26.15 24.05" fill="#304338" fill-rule="evenodd" stroke="none"/>
    <path d="M26.15 24.05 L24.05 30.95 Q22.7 35.2 22.4 36.75 22.05 36.7 22.1 36.2 L22.2 35.5 Q21.85 31.8 22.0 26.3 L22.15 16.3 22.2 15.8 Q24.6 16.6 25.7 18.6 26.95 20.95 26.15 24.05 Z" fill="none" stroke="#304338" stroke-linecap="butt" stroke-linejoin="miter" stroke-width="1.0"/>
    <path d="M-17.3 12.35 L-15.15 17.85 Q-13.85 21.25 -13.25 23.55 L-14.55 23.4 -15.7 23.15 -17.05 19.0 Q-17.8 16.25 -18.45 15.0 L-19.45 13.5 -20.35 12.0 -20.65 11.95 -19.05 11.8 -17.3 12.35" fill="#94d6f0" fill-rule="evenodd" stroke="none"/>
    <path d="M45.55 23.2 L44.25 24.95 Q43.55 26.05 43.25 27.15 43.75 27.25 44.35 27.7 L45.25 28.4 Q46.85 27.0 47.55 24.95 L46.6 24.05 Q46.05 23.4 45.55 23.2 M51.1 23.4 Q51.1 23.9 50.65 24.25 L49.9 24.85 46.65 27.5 Q44.85 29.15 43.85 30.9 39.85 27.85 38.25 25.95 38.8 24.15 40.0 21.9 L41.95 18.15 Q43.95 19.05 46.6 20.65 L51.1 23.4 M42.1 20.3 L41.6 20.5 Q41.65 21.35 40.75 22.85 39.85 24.25 40.05 25.25 L41.3 25.9 42.35 26.75 Q42.6 25.8 43.4 24.65 L44.5 22.75 43.4 21.7 Q42.7 21.15 42.75 20.3 L42.1 20.3" fill="#95cfd7" fill-rule="evenodd" stroke="none"/>
    <path d="M45.55 23.2 L44.25 24.95 Q43.55 26.05 43.25 27.15 43.75 27.25 44.35 27.7 L45.25 28.4 Q46.85 27.0 47.55 24.95 L46.6 24.05 Q46.05 23.4 45.55 23.2 M51.1 23.4 Q51.1 23.9 50.65 24.25 L49.9 24.85 46.65 27.5 Q44.85 29.15 43.85 30.9 39.85 27.85 38.25 25.95 38.8 24.15 40.0 21.9 L41.95 18.15 Q43.95 19.05 46.6 20.65 L51.1 23.4 M42.1 20.3 L41.6 20.5 Q41.65 21.35 40.75 22.85 39.85 24.25 40.05 25.25 L41.3 25.9 42.35 26.75 Q42.6 25.8 43.4 24.65 L44.5 22.75 43.4 21.7 Q42.7 21.15 42.75 20.3 L42.1 20.3" fill="none" stroke="#75c2c6" stroke-linecap="butt" stroke-linejoin="miter" stroke-width="1.0"/>
    <path d="M17.35 16.7 Q17.95 19.65 17.55 25.4 L17.0 34.8 16.5 34.7 Q16.1 34.65 16.05 34.9 L15.65 33.3 15.55 31.7 15.1 22.05 15.45 22.0 15.7 21.75 Q15.85 18.6 17.35 16.7" fill="#304338" fill-rule="evenodd" stroke="none"/>
    <path d="M17.35 16.7 Q17.95 19.65 17.55 25.4 L17.0 34.8 16.5 34.7 Q16.1 34.65 16.05 34.9 L15.65 33.3 15.55 31.7 15.1 22.05 15.45 22.0 15.7 21.75 Q15.85 18.6 17.35 16.7 Z" fill="none" stroke="#304338" stroke-linecap="butt" stroke-linejoin="miter" stroke-width="1.0"/>
    <path d="M-39.0 19.25 Q-38.6 20.5 -37.8 21.1 L-35.75 20.55 Q-35.35 21.85 -35.25 23.65 -36.8 24.15 -37.3 24.95 -36.9 25.5 -36.4 27.05 -35.85 28.5 -35.35 29.0 L-34.6 29.0 -34.1 28.8 -31.85 40.0 -32.15 41.05 Q-32.15 41.45 -31.55 41.45 L-32.9 41.65 -34.45 41.65 Q-36.0 36.95 -39.0 30.55 L-40.55 27.1 Q-42.1 25.35 -43.9 21.35 -45.95 16.95 -47.0 15.45 L-42.1 14.3 -36.9 13.65 -36.7 14.65 -36.6 15.8 Q-38.35 15.5 -39.45 16.75 L-39.0 19.25 M-39.9 18.6 L-40.65 16.1 -40.8 15.95 -41.05 15.85 Q-41.7 16.0 -42.5 16.5 L-43.95 17.3 -42.95 19.75 Q-42.3 21.15 -42.6 22.0 L-40.85 21.7 -39.05 21.0 -39.9 18.6 M-37.65 24.75 L-38.95 24.85 Q-39.85 25.3 -40.45 25.2 -40.05 28.2 -38.15 29.95 -36.45 29.3 -36.3 29.1 -36.4 28.35 -36.95 26.95 L-37.65 24.75 M-35.8 36.85 L-34.35 37.05 Q-33.5 37.1 -33.0 36.6 -33.1 35.45 -33.55 34.1 -34.0 32.55 -34.6 31.7 -36.65 31.9 -37.15 32.7 L-36.25 34.7 Q-35.7 35.95 -35.8 36.85" fill="#95cfd7" fill-rule="evenodd" stroke="none"/>
    <path d="M-39.0 19.25 Q-38.6 20.5 -37.8 21.1 L-35.75 20.55 Q-35.35 21.85 -35.25 23.65 -36.8 24.15 -37.3 24.95 -36.9 25.5 -36.4 27.05 -35.85 28.5 -35.35 29.0 L-34.6 29.0 -34.1 28.8 -31.85 40.0 -32.15 41.05 Q-32.15 41.45 -31.55 41.45 L-32.9 41.65 -34.45 41.65 Q-36.0 36.95 -39.0 30.55 L-40.55 27.1 Q-42.1 25.35 -43.9 21.35 -45.95 16.95 -47.0 15.45 L-42.1 14.3 -36.9 13.65 -36.7 14.65 -36.6 15.8 Q-38.35 15.5 -39.45 16.75 L-39.0 19.25 M-39.9 18.6 L-40.65 16.1 -40.8 15.95 -41.05 15.85 Q-41.7 16.0 -42.5 16.5 L-43.95 17.3 -42.95 19.75 Q-42.3 21.15 -42.6 22.0 L-40.85 21.7 -39.05 21.0 -39.9 18.6 M-37.65 24.75 L-38.95 24.85 Q-39.85 25.3 -40.45 25.2 -40.05 28.2 -38.15 29.95 -36.45 29.3 -36.3 29.1 -36.4 28.35 -36.95 26.95 L-37.65 24.75 M-35.8 36.85 L-34.35 37.05 Q-33.5 37.1 -33.0 36.6 -33.1 35.45 -33.55 34.1 -34.0 32.55 -34.6 31.7 -36.65 31.9 -37.15 32.7 L-36.25 34.7 Q-35.7 35.95 -35.8 36.85" fill="none" stroke="#75c2c6" stroke-linecap="butt" stroke-linejoin="miter" stroke-width="1.0"/>
    <path d="M42.1 22.1 Q42.45 22.15 42.8 22.5 L43.4 22.8 42.6 23.9 42.0 25.15 Q41.65 25.15 41.45 24.85 L41.0 24.45 41.6 23.35 42.1 22.1" fill="#ffffff" fill-rule="evenodd" stroke="none"/>
    <path d="M45.6 24.6 L46.05 24.85 46.45 25.2 45.9 26.2 45.1 27.0 44.75 26.8 Q44.6 26.55 44.35 26.6 L45.6 24.6" fill="#ffffff" fill-rule="evenodd" stroke="none"/>
    <path d="M45.35 39.25 Q44.85 39.15 44.1 38.55 L42.75 37.75 41.3 37.25 Q40.45 36.95 40.25 36.3 L41.4 36.95 Q42.1 37.45 42.75 37.4 43.45 37.3 43.95 36.45 L44.95 35.05 Q44.75 34.0 45.1 33.05 L45.55 31.55 Q46.4 29.8 48.15 28.1 L51.25 25.2 52.05 28.35 53.05 31.3 Q48.25 33.9 45.35 39.25" fill="#37888f" fill-rule="evenodd" stroke="none"/>
    <path d="M-35.85 19.9 L-37.0 19.95 -38.0 19.85 -38.55 17.15 Q-37.35 16.1 -36.65 17.3 -36.25 18.05 -35.85 19.9" fill="#ffffff" fill-rule="evenodd" stroke="none"/>
    <path d="M-40.8 18.65 L-40.0 20.35 -41.45 20.7 Q-42.15 20.1 -42.75 17.75 L-42.15 17.45 -41.65 17.05 Q-41.15 17.5 -40.8 18.65" fill="#ffffff" fill-rule="evenodd" stroke="none"/>
    <path d="M-38.6 38.65 L-40.15 36.0 -42.25 32.7 -43.6 30.3 Q-44.35 28.95 -45.25 28.05 L-49.25 24.3 Q-47.85 20.85 -47.2 17.5 -47.0 17.5 -46.9 17.6 L-46.75 17.7 Q-44.9 21.7 -40.75 29.15 -37.15 36.05 -35.7 41.55 L-36.6 41.65 -37.55 41.55 Q-37.75 40.25 -38.6 38.65" fill="#37888f" fill-rule="evenodd" stroke="none"/>
    <path d="M39.6 32.4 L38.55 32.6 37.1 32.5 35.4 29.55 Q34.2 27.7 33.75 26.55 L34.2 26.45 Q37.3 30.35 39.6 32.4" fill="#7fcb3f" fill-rule="evenodd" stroke="none"/>
    <path d="M39.6 32.4 L38.55 32.6 37.1 32.5 35.4 29.55 Q34.2 27.7 33.75 26.55 L34.2 26.45 Q37.3 30.35 39.6 32.4 Z" fill="none" stroke="#7fcb3f" stroke-linecap="butt" stroke-linejoin="miter" stroke-width="1.0"/>
    <path d="M35.95 32.55 L34.45 32.2 32.6 29.75 Q31.4 28.3 31.1 27.0 L31.95 26.9 32.65 26.8 Q33.05 27.6 34.4 29.6 L35.95 32.55" fill="#7fcb3f" fill-rule="evenodd" stroke="none"/>
    <path d="M35.95 32.55 L34.45 32.2 32.6 29.75 Q31.4 28.3 31.1 27.0 L31.95 26.9 32.65 26.8 Q33.05 27.6 34.4 29.6 L35.95 32.55 Z" fill="none" stroke="#7fcb3f" stroke-linecap="butt" stroke-linejoin="miter" stroke-width="1.0"/>
    <path d="M-4.05 25.35 L-3.6 25.4 -3.5 28.95 -3.2 32.1 -3.75 32.3 -4.45 32.3 -4.4 28.85 -4.05 25.35" fill="#ffffff" fill-rule="evenodd" stroke="none"/>
    <path d="M30.5 29.0 Q31.3 29.65 32.1 31.05 L33.4 33.3 Q33.05 33.8 33.05 34.75 L33.15 36.45 31.0 36.15 28.55 35.95 29.45 32.6 30.5 29.0" fill="#37888f" fill-rule="evenodd" stroke="none"/>
    <path d="M6.3 28.5 L6.45 30.5 6.4 32.7 2.1 32.25 -2.15 32.2 -2.05 28.85 2.2 28.8 6.3 28.5" fill="#37888f" fill-rule="evenodd" stroke="none"/>
    <path d="M-34.3 27.9 L-34.8 28.05 Q-35.25 27.7 -35.55 26.75 L-36.15 25.3 Q-35.2 24.0 -34.8 25.35 L-34.3 27.9" fill="#ffffff" fill-rule="evenodd" stroke="none"/>
    <path d="M7.35 28.75 L9.25 29.2 11.3 29.55 Q10.75 30.15 9.4 30.75 7.9 31.35 7.45 31.75 L7.4 30.2 7.35 28.75" fill="#37888f" fill-rule="evenodd" stroke="none"/>
    <path d="M43.8 33.85 Q44.1 34.5 43.7 35.2 L43.0 36.2 Q42.0 36.3 41.45 35.5 L40.55 33.9 Q41.0 33.6 42.35 33.9 L43.8 33.85" fill="#7fcb3f" fill-rule="evenodd" stroke="none"/>
    <path d="M-37.5 28.65 L-37.9 28.7 -38.4 28.7 Q-38.55 27.65 -39.45 26.3 -38.65 25.35 -38.1 26.5 L-37.5 28.65" fill="#ffffff" fill-rule="evenodd" stroke="none"/>
    <path d="M-6.15 32.5 L-10.5 32.6 -15.05 32.8 -15.7 29.05 -6.2 29.35 -6.15 32.5" fill="#37888f" fill-rule="evenodd" stroke="none"/>
    <path d="M39.8 33.8 Q39.8 36.4 38.1 36.05 37.75 35.85 37.6 35.15 L37.2 34.05 39.8 33.8" fill="#7fcb3f" fill-rule="evenodd" stroke="none"/>
    <path d="M11.8 30.8 Q11.5 32.5 11.55 35.75 L11.35 41.2 8.85 42.75 6.35 44.3 6.3 39.0 6.4 33.85 Q7.4 33.55 9.05 32.3 10.65 31.1 11.8 30.8" fill="#75c2c6" fill-rule="evenodd" stroke="none"/>
    <path d="M11.8 30.8 Q11.5 32.5 11.55 35.75 L11.35 41.2 8.85 42.75 6.35 44.3 6.3 39.0 6.4 33.85 Q7.4 33.55 9.05 32.3 10.65 31.1 11.8 30.8 Z" fill="none" stroke="#75c2c6" stroke-linecap="butt" stroke-linejoin="miter" stroke-width="2.0"/>
    <path d="M33.95 33.75 L34.1 33.95 35.35 34.15 36.7 34.0 Q36.4 34.25 36.5 35.0 L36.4 36.2 Q36.0 36.7 35.3 36.8 34.55 36.85 34.05 36.4 L33.95 33.75" fill="#7fcb3f" fill-rule="evenodd" stroke="none"/>
    <path d="M-19.9 30.95 L-20.0 30.75 -20.35 30.6 -20.5 30.15 -18.7 29.8 Q-17.65 29.55 -17.1 29.1 -16.5 29.4 -16.35 30.6 L-16.1 32.55 -17.3 32.1 Q-18.25 31.5 -18.5 31.4 L-19.85 31.1 -19.9 30.95" fill="#37888f" fill-rule="evenodd" stroke="none"/>
    <path d="M36.95 36.65 L37.85 37.25 38.95 37.2 40.55 38.1 Q41.6 38.55 42.0 39.05 43.4 39.2 43.45 39.9 42.55 39.8 40.25 40.4 L36.65 40.8 Q36.0 40.7 35.0 40.2 L33.4 39.45 Q31.3 38.5 30.9 37.8 31.25 37.65 34.25 37.85 36.25 37.9 36.95 36.65" fill="#94d6f0" fill-rule="evenodd" stroke="none"/>
    <path d="M5.3 44.4 L0.0 44.8 -5.3 44.95 -8.8 45.5 -12.55 45.75 -13.1 34.7 -9.55 34.55 -6.35 34.25 -4.6 33.7 -3.3 33.7 -1.85 33.75 1.55 33.35 5.4 33.6 Q5.1 36.95 5.3 44.4" fill="#94d6f0" fill-rule="evenodd" stroke="none"/>
    <path d="M5.3 44.4 L0.0 44.8 -5.3 44.95 -8.8 45.5 -12.55 45.75 -13.1 34.7 -9.55 34.55 -6.35 34.25 -4.6 33.7 -3.3 33.7 -1.85 33.75 1.55 33.35 5.4 33.6 Q5.1 36.95 5.3 44.4 Z" fill="none" stroke="#75c2c6" stroke-linecap="butt" stroke-linejoin="miter" stroke-width="2.0"/>
    <path d="M-22.45 31.55 Q-20.8 31.65 -18.45 33.1 -15.85 34.7 -14.35 35.0 L-14.05 40.15 -13.9 45.45 -17.55 43.7 -21.25 41.95 -21.85 36.8 Q-22.2 32.9 -22.45 31.55" fill="#75c2c6" fill-rule="evenodd" stroke="none"/>
    <path d="M-22.45 31.55 Q-20.8 31.65 -18.45 33.1 -15.85 34.7 -14.35 35.0 L-14.05 40.15 -13.9 45.45 -17.55 43.7 -21.25 41.95 -21.85 36.8 Q-22.2 32.9 -22.45 31.55 Z" fill="none" stroke="#75c2c6" stroke-linecap="butt" stroke-linejoin="miter" stroke-width="2.0"/>
    <path d="M46.9 43.9 L43.85 45.05 42.85 45.65 41.75 46.25 40.5 46.4 39.15 46.5 31.8 48.0 26.4 48.5 9.7 50.3 5.4 50.2 -0.05 50.5 -5.75 50.7 -12.7 50.7 -19.45 50.0 -25.1 49.3 Q-38.0 46.95 -47.05 43.75 -43.1 42.0 -39.5 40.85 L-38.5 42.8 -36.85 42.85 Q-35.55 43.45 -34.15 43.35 L-31.5 42.85 Q-31.0 41.6 -30.45 41.4 L-22.45 41.0 Q-22.65 42.4 -22.25 42.75 L-17.8 44.8 Q-14.95 45.9 -13.7 47.1 L-11.35 46.9 -8.95 46.7 -7.7 46.55 -6.6 46.25 -4.75 45.9 0.6 46.05 5.7 46.45 7.6 45.15 9.6 43.7 12.5 41.85 13.0 36.85 14.85 36.15 17.05 36.0 16.95 40.65 Q16.95 43.2 18.0 44.0 L20.15 44.1 Q21.5 43.65 22.1 42.5 21.8 41.25 21.9 39.95 L22.05 37.25 22.3 37.65 Q22.45 37.95 22.75 37.85 L25.8 38.0 26.7 38.25 Q27.2 38.4 27.35 37.95 28.0 39.5 30.05 41.0 L33.85 43.5 34.9 44.45 36.05 45.1 37.9 45.1 39.85 44.8 43.85 44.65 Q44.8 43.9 45.5 41.5 48.35 41.8 49.9 42.5 L46.9 43.9" fill="#4d4d4d" fill-rule="evenodd" stroke="none"/>
    <path d="M30.35 39.15 L33.3 40.7 36.1 42.35 36.0 42.85 36.0 43.7 34.65 42.55 33.25 41.35 Q31.05 40.15 30.35 39.15" fill="#94d6f0" fill-rule="evenodd" stroke="none"/>
    <path d="M-34.0 35.8 L-34.4 36.1 -35.0 36.2 Q-35.6 34.15 -36.15 33.3 -35.25 32.25 -34.75 33.5 -34.4 34.2 -34.0 35.8" fill="#ffffff" fill-rule="evenodd" stroke="none"/>
    <path d="M43.55 41.0 L44.0 41.05 43.2 43.4 40.0 43.6 36.9 43.45 Q36.9 42.75 37.5 42.55 L38.55 42.25 Q41.15 41.15 43.55 41.0" fill="#94d6f0" fill-rule="evenodd" stroke="none"/>
    <path d="M13.2 -38.6 Q13.55 -40.15 12.35 -40.6 L10.15 -40.8 9.35 -41.55 8.6 -42.15 Q7.65 -42.35 6.95 -41.6 L5.8 -40.0 5.2 -40.25 4.6 -40.5 3.15 -39.25 Q3.1 -38.0 3.85 -37.25 L4.5 -25.1 Q4.7 -24.5 5.4 -24.55 3.5 -22.55 2.5 -18.95 1.95 -16.9 1.1 -11.45 0.35 -12.25 -0.55 -11.75 L-1.9 -10.6 -2.85 -11.7 Q-3.6 -12.25 -4.05 -11.85 L-4.4 -14.65 Q-4.4 -16.55 -4.85 -17.5 L-4.95 -20.15 Q-6.95 -20.15 -7.7 -18.3 -7.95 -17.55 -7.6 -15.2 -7.15 -12.6 -7.35 -11.45 -8.3 -12.65 -9.4 -11.95 -10.3 -11.3 -10.8 -9.9 -11.6 -10.45 -13.25 -10.35 -12.4 -17.1 -16.95 -16.3 -17.3 -17.3 -18.65 -17.6 L-21.0 -17.4 -21.45 -16.75 -21.85 -16.1 Q-23.75 -16.1 -24.35 -15.45 -24.7 -14.35 -23.45 -12.75 L-22.8 0.25 -23.6 1.2 -24.35 2.35 -23.85 3.3 Q-23.2 3.8 -23.1 4.05 L-21.55 4.35 -20.05 4.35 Q-19.55 4.5 -18.55 5.15 -17.75 5.75 -17.1 5.7 L-16.3 5.4 -15.3 4.85 -13.4 4.45 Q-12.5 4.3 -12.15 3.4 L-13.05 0.7 -12.85 -3.0 -12.95 -6.45 Q-11.9 -5.75 -10.65 -3.8 -9.35 -1.8 -8.4 -1.1 -9.3 1.25 -7.55 3.0 L-8.7 8.3 -9.1 8.0 Q-9.3 7.75 -9.6 7.85 -10.55 9.05 -11.55 11.15 L-13.15 9.75 -14.7 8.25 Q-15.5 8.4 -16.1 9.45 L-17.2 11.15 Q-18.55 10.35 -20.6 10.3 -22.9 10.3 -23.7 11.35 L-23.9 12.05 Q-23.85 13.2 -21.85 13.6 L-19.75 16.1 -17.95 20.55 Q-16.8 23.3 -16.3 25.2 L-11.5 25.55 -6.65 25.45 Q-6.85 25.75 -6.55 26.25 -6.15 26.85 -6.35 27.4 L-16.95 27.35 Q-17.6 27.35 -20.1 28.35 -22.35 29.3 -23.5 28.8 -23.75 29.05 -23.5 30.2 -23.3 31.2 -23.75 31.4 -22.9 35.45 -22.85 37.8 L-22.65 38.85 Q-22.6 39.55 -23.1 39.5 -23.4 39.7 -23.45 39.25 L-23.5 38.6 -24.75 27.3 Q-25.8 14.35 -26.1 7.25 L-26.45 -0.75 Q-26.65 -5.4 -27.35 -8.75 -27.15 -9.7 -27.35 -11.45 L-27.65 -14.6 -27.75 -16.9 Q-27.85 -18.25 -28.2 -19.15 -28.05 -19.95 -28.2 -21.4 L-28.45 -23.9 -28.85 -31.65 Q-29.1 -36.7 -29.5 -40.4 -29.55 -41.3 -29.85 -41.85 L-29.9 -43.35 -30.1 -44.35 -30.15 -45.0 -30.25 -45.75 Q-30.25 -45.95 -30.15 -45.75 L-25.85 -46.25 -21.45 -46.95 -18.35 -46.8 -15.15 -46.8 -7.8 -46.45 -5.05 -46.5 -3.5 -46.7 -1.95 -46.95 -0.35 -46.75 1.25 -46.55 5.1 -46.75 9.1 -47.2 13.1 -47.15 Q13.75 -36.6 13.55 -31.4 13.55 -30.6 14.3 -30.6 13.85 -30.25 12.4 -29.9 11.65 -34.25 11.9 -37.5 L12.6 -37.95 13.2 -38.6 M2.8 -23.9 L1.85 -24.55 1.6 -31.4 1.0 -38.05 1.5 -38.8 1.8 -39.7 1.25 -40.5 0.65 -41.2 -1.3 -41.45 Q-2.05 -42.55 -3.2 -43.0 -4.5 -43.5 -5.65 -42.75 L-6.2 -41.8 -6.7 -40.9 Q-8.75 -40.6 -9.3 -39.4 -9.2 -39.0 -8.7 -38.5 L-8.05 -37.55 -7.5 -31.15 Q-7.2 -27.5 -7.25 -24.55 -8.3 -23.9 -8.8 -22.1 -8.2 -21.05 -6.5 -20.95 L-3.85 -20.75 Q-3.35 -19.2 -1.9 -19.35 -0.55 -19.45 0.3 -20.65 3.2 -20.55 3.55 -23.15 L2.8 -23.9 M-17.4 -41.85 Q-18.4 -43.05 -19.7 -42.8 -20.95 -42.5 -21.75 -41.2 L-23.45 -41.45 -25.45 -41.2 Q-25.4 -40.9 -25.9 -40.3 L-26.3 -39.4 -25.7 -38.45 -24.75 -37.65 Q-24.4 -36.35 -24.4 -34.25 L-24.4 -30.5 Q-24.0 -28.15 -23.95 -26.9 L-24.15 -25.95 -24.25 -23.7 Q-24.45 -22.7 -25.1 -21.85 -24.95 -20.6 -23.4 -19.7 L-21.7 -20.45 Q-20.95 -20.75 -20.15 -20.45 L-19.0 -19.65 Q-18.4 -19.1 -17.9 -19.0 L-17.7 -19.15 -17.6 -19.3 -17.4 -19.2 -17.05 -19.1 -16.4 -19.6 -15.7 -20.2 Q-12.75 -19.85 -12.5 -21.8 -12.4 -22.4 -12.9 -23.05 L-13.55 -24.35 Q-13.3 -24.6 -13.3 -25.35 -13.7 -27.7 -13.75 -31.1 L-13.75 -37.3 -12.95 -38.35 Q-12.55 -39.1 -12.65 -40.15 L-13.3 -41.2 -14.3 -42.05 -15.8 -42.0 -17.4 -41.85" fill="#f979ad" fill-rule="evenodd" stroke="none"/>
    <path d="M-41.35 -29.55 Q-36.95 -37.45 -31.6 -44.65 -30.9 -43.7 -30.65 -42.05 L-30.35 -39.1 -29.25 -23.95 -29.3 -21.0 -28.9 -15.95 -28.55 -11.7 -28.65 -11.5 -26.75 14.1 Q-25.6 30.2 -24.65 39.55 L-30.85 40.3 -33.45 26.2 -34.35 19.25 Q-34.95 15.25 -35.7 12.4 -35.65 11.1 -36.0 9.25 L-36.65 6.2 -37.8 -2.1 -39.0 -10.8 -39.35 -12.25 -39.3 -14.9 Q-39.45 -16.95 -40.45 -22.2 -41.25 -26.85 -41.35 -29.55" fill="#79415d" fill-rule="evenodd" stroke="none"/>
    <path d="M35.6 26.6 Q37.65 27.3 41.75 30.7 L42.7 31.3 Q43.2 31.65 43.15 32.25 43.1 32.5 42.3 32.55 L41.3 32.55 39.15 30.55 35.6 26.6" fill="#7fcb3f" fill-rule="evenodd" stroke="none"/>
    <path d="M35.6 26.6 Q37.65 27.3 41.75 30.7 L42.7 31.3 Q43.2 31.65 43.15 32.25 43.1 32.5 42.3 32.55 L41.3 32.55 39.15 30.55 35.6 26.6 Z" fill="none" stroke="#7fcb3f" stroke-linecap="butt" stroke-linejoin="miter" stroke-width="1.0"/>
    <path d="M1.9 -23.1 L1.45 -23.5 Q1.35 -22.75 1.05 -22.5 -3.9 -22.6 -6.15 -22.35 L-6.7 -22.95 Q-6.9 -23.4 -7.35 -23.2 -7.35 -21.9 -5.85 -22.05 L-3.45 -21.9 Q-2.9 -20.75 -2.05 -21.0 L-0.4 -21.8 1.1 -21.85 Q1.9 -21.9 2.1 -22.4 L1.9 -23.1 M3.55 -23.15 Q3.2 -20.55 0.3 -20.65 -0.55 -19.45 -1.9 -19.35 -3.35 -19.2 -3.85 -20.75 L-6.5 -20.95 Q-8.2 -21.05 -8.8 -22.1 -8.3 -23.9 -7.25 -24.55 -7.2 -27.5 -7.5 -31.15 L-8.05 -37.55 -8.7 -38.5 Q-9.2 -39.0 -9.3 -39.4 -8.75 -40.6 -6.7 -40.9 L-6.2 -41.8 -5.65 -42.75 Q-4.5 -43.5 -3.2 -43.0 -2.05 -42.55 -1.3 -41.45 L0.65 -41.2 1.25 -40.5 1.8 -39.7 1.5 -38.8 1.0 -38.05 1.6 -31.4 1.85 -24.55 2.8 -23.9 3.55 -23.15 M-7.95 -38.95 L-3.85 -39.3 0.2 -38.85 0.35 -39.25 0.55 -39.65 Q0.2 -40.15 -0.55 -40.2 L-2.0 -40.3 -3.15 -41.65 Q-3.85 -42.35 -4.8 -41.8 -5.3 -40.4 -6.5 -39.5 -6.6 -39.35 -7.3 -39.3 -7.85 -39.3 -7.95 -38.95 M-1.7 -38.5 L-7.05 -38.15 Q-6.45 -35.8 -6.25 -31.05 L-5.95 -23.4 0.5 -23.45 Q0.8 -28.8 0.1 -33.95 L-0.4 -36.85 Q-0.85 -38.55 -1.7 -38.5" fill="#152242" fill-rule="evenodd" stroke="none"/>
    <path d="M1.9 -23.1 L1.45 -23.5 Q1.35 -22.75 1.05 -22.5 -3.9 -22.6 -6.15 -22.35 L-6.7 -22.95 Q-6.9 -23.4 -7.35 -23.2 -7.35 -21.9 -5.85 -22.05 L-3.45 -21.9 Q-2.9 -20.75 -2.05 -21.0 L-0.4 -21.8 1.1 -21.85 Q1.9 -21.9 2.1 -22.4 L1.9 -23.1 M3.55 -23.15 Q3.2 -20.55 0.3 -20.65 -0.55 -19.45 -1.9 -19.35 -3.35 -19.2 -3.85 -20.75 L-6.5 -20.95 Q-8.2 -21.05 -8.8 -22.1 -8.3 -23.9 -7.25 -24.55 -7.2 -27.5 -7.5 -31.15 L-8.05 -37.55 -8.7 -38.5 Q-9.2 -39.0 -9.3 -39.4 -8.75 -40.6 -6.7 -40.9 L-6.2 -41.8 -5.65 -42.75 Q-4.5 -43.5 -3.2 -43.0 -2.05 -42.55 -1.3 -41.45 L0.65 -41.2 1.25 -40.5 1.8 -39.7 1.5 -38.8 1.0 -38.05 1.6 -31.4 1.85 -24.55 2.8 -23.9 3.55 -23.15 M-7.95 -38.95 L-3.85 -39.3 0.2 -38.85 0.35 -39.25 0.55 -39.65 Q0.2 -40.15 -0.55 -40.2 L-2.0 -40.3 -3.15 -41.65 Q-3.85 -42.35 -4.8 -41.8 -5.3 -40.4 -6.5 -39.5 -6.6 -39.35 -7.3 -39.3 -7.85 -39.3 -7.95 -38.95 M-1.7 -38.5 L-7.05 -38.15 Q-6.45 -35.8 -6.25 -31.05 L-5.95 -23.4 0.5 -23.45 Q0.8 -28.8 0.1 -33.95 L-0.4 -36.85 Q-0.85 -38.55 -1.7 -38.5" fill="none" stroke="#152242" stroke-linecap="butt" stroke-linejoin="miter" stroke-width="0.25"/>
    <path d="M-14.3 -42.05 L-13.3 -41.2 -12.65 -40.15 Q-12.55 -39.1 -12.95 -38.35 L-13.75 -37.3 -13.75 -31.1 Q-13.7 -27.7 -13.3 -25.35 -13.3 -24.6 -13.55 -24.35 L-12.9 -23.05 Q-12.4 -22.4 -12.5 -21.8 -12.75 -19.85 -15.7 -20.2 L-16.4 -19.6 -17.05 -19.1 -17.4 -19.2 -17.6 -19.3 -17.7 -19.15 -17.9 -19.0 Q-18.4 -19.1 -19.0 -19.65 L-20.15 -20.45 Q-20.95 -20.75 -21.7 -20.45 L-23.4 -19.7 Q-24.95 -20.6 -25.1 -21.85 -24.45 -22.7 -24.25 -23.7 L-24.15 -25.95 -23.95 -26.9 Q-24.0 -28.15 -24.4 -30.5 L-24.4 -34.25 Q-24.4 -36.35 -24.75 -37.65 L-25.7 -38.45 -26.3 -39.4 -25.9 -40.3 Q-25.4 -40.9 -25.45 -41.2 L-23.45 -41.45 -21.75 -41.2 Q-20.95 -42.5 -19.7 -42.8 -18.4 -43.05 -17.4 -41.85 L-15.8 -42.0 -14.3 -42.05 M-17.55 -40.1 Q-19.05 -42.55 -22.05 -39.15 L-18.65 -39.45 -15.1 -39.5 -14.15 -39.25 Q-13.75 -39.1 -13.75 -39.35 -13.9 -40.25 -14.9 -40.3 L-16.6 -40.2 -17.15 -40.3 -17.55 -40.1 M-19.1 -37.65 L-21.8 -37.5 -23.75 -37.25 Q-23.5 -36.3 -23.5 -34.15 L-23.45 -30.55 Q-23.05 -28.2 -23.0 -27.0 L-22.85 -23.2 -18.6 -23.45 -14.65 -24.05 -14.65 -30.9 Q-14.65 -35.15 -14.8 -37.9 -15.8 -38.1 -17.2 -37.9 L-19.1 -37.65 M-23.9 -39.55 Q-24.55 -39.45 -24.4 -38.85 L-23.35 -38.95 Q-22.75 -38.95 -22.65 -39.35 L-23.9 -39.55 M-22.8 -21.8 L-23.35 -22.15 -24.0 -22.05 Q-23.95 -21.1 -22.6 -21.35 L-20.05 -21.65 -18.9 -20.95 Q-18.35 -20.45 -17.8 -20.55 -17.35 -21.35 -16.15 -21.45 L-13.9 -21.35 -13.8 -22.4 -14.3 -22.45 -16.9 -22.4 -18.9 -22.4 -20.95 -22.0 -22.8 -21.8" fill="#152242" fill-rule="evenodd" stroke="none"/>
    <path d="M-14.3 -42.05 L-13.3 -41.2 -12.65 -40.15 Q-12.55 -39.1 -12.95 -38.35 L-13.75 -37.3 -13.75 -31.1 Q-13.7 -27.7 -13.3 -25.35 -13.3 -24.6 -13.55 -24.35 L-12.9 -23.05 Q-12.4 -22.4 -12.5 -21.8 -12.75 -19.85 -15.7 -20.2 L-16.4 -19.6 -17.05 -19.1 -17.4 -19.2 -17.6 -19.3 -17.7 -19.15 -17.9 -19.0 Q-18.4 -19.1 -19.0 -19.65 L-20.15 -20.45 Q-20.95 -20.75 -21.7 -20.45 L-23.4 -19.7 Q-24.95 -20.6 -25.1 -21.85 -24.45 -22.7 -24.25 -23.7 L-24.15 -25.95 -23.95 -26.9 Q-24.0 -28.15 -24.4 -30.5 L-24.4 -34.25 Q-24.4 -36.35 -24.75 -37.65 L-25.7 -38.45 -26.3 -39.4 -25.9 -40.3 Q-25.4 -40.9 -25.45 -41.2 L-23.45 -41.45 -21.75 -41.2 Q-20.95 -42.5 -19.7 -42.8 -18.4 -43.05 -17.4 -41.85 L-15.8 -42.0 -14.3 -42.05 M-17.55 -40.1 Q-19.05 -42.55 -22.05 -39.15 L-18.65 -39.45 -15.1 -39.5 -14.15 -39.25 Q-13.75 -39.1 -13.75 -39.35 -13.9 -40.25 -14.9 -40.3 L-16.6 -40.2 -17.15 -40.3 -17.55 -40.1 M-19.1 -37.65 L-21.8 -37.5 -23.75 -37.25 Q-23.5 -36.3 -23.5 -34.15 L-23.45 -30.55 Q-23.05 -28.2 -23.0 -27.0 L-22.85 -23.2 -18.6 -23.45 -14.65 -24.05 -14.65 -30.9 Q-14.65 -35.15 -14.8 -37.9 -15.8 -38.1 -17.2 -37.9 L-19.1 -37.65 M-23.9 -39.55 Q-24.55 -39.45 -24.4 -38.85 L-23.35 -38.95 Q-22.75 -38.95 -22.65 -39.35 L-23.9 -39.55 M-22.8 -21.8 L-23.35 -22.15 -24.0 -22.05 Q-23.95 -21.1 -22.6 -21.35 L-20.05 -21.65 -18.9 -20.95 Q-18.35 -20.45 -17.8 -20.55 -17.35 -21.35 -16.15 -21.45 L-13.9 -21.35 -13.8 -22.4 -14.3 -22.45 -16.9 -22.4 -18.9 -22.4 -20.95 -22.0 -22.8 -21.8" fill="none" stroke="#152242" stroke-linecap="butt" stroke-linejoin="miter" stroke-width="0.25"/>
    <path d="M42.1 20.3 L42.75 20.3 Q42.7 21.15 43.4 21.7 L44.5 22.75 43.4 24.65 Q42.6 25.8 42.35 26.75 L41.3 25.9 40.05 25.25 Q39.85 24.25 40.75 22.85 41.65 21.35 41.6 20.5 L42.1 20.3 M41.6 23.35 L41.0 24.45 41.45 24.85 Q41.65 25.15 42.0 25.15 L42.6 23.9 43.4 22.8 42.8 22.5 Q42.45 22.15 42.1 22.1 L41.6 23.35" fill="#152242" fill-rule="evenodd" stroke="none"/>
    <path d="M42.1 20.3 L42.75 20.3 Q42.7 21.15 43.4 21.7 L44.5 22.75 43.4 24.65 Q42.6 25.8 42.35 26.75 L41.3 25.9 40.05 25.25 Q39.85 24.25 40.75 22.85 41.65 21.35 41.6 20.5 L42.1 20.3 M41.6 23.35 L41.0 24.45 41.45 24.85 Q41.65 25.15 42.0 25.15 L42.6 23.9 43.4 22.8 42.8 22.5 Q42.45 22.15 42.1 22.1 L41.6 23.35" fill="none" stroke="#152242" stroke-linecap="butt" stroke-linejoin="miter" stroke-width="0.25"/>
    <path d="M44.35 26.6 Q44.6 26.55 44.75 26.8 L45.1 27.0 45.9 26.2 46.45 25.2 46.05 24.85 45.6 24.6 44.35 26.6 M47.55 24.95 Q46.85 27.0 45.25 28.4 L44.35 27.7 Q43.75 27.25 43.25 27.15 43.55 26.05 44.25 24.95 L45.55 23.2 Q46.05 23.4 46.6 24.05 L47.55 24.95" fill="#152242" fill-rule="evenodd" stroke="none"/>
    <path d="M44.35 26.6 Q44.6 26.55 44.75 26.8 L45.1 27.0 45.9 26.2 46.45 25.2 46.05 24.85 45.6 24.6 44.35 26.6 M47.55 24.95 Q46.85 27.0 45.25 28.4 L44.35 27.7 Q43.75 27.25 43.25 27.15 43.55 26.05 44.25 24.95 L45.55 23.2 Q46.05 23.4 46.6 24.05 L47.55 24.95" fill="none" stroke="#152242" stroke-linecap="butt" stroke-linejoin="miter" stroke-width="0.25"/>
    <path d="M-39.05 21.0 L-40.85 21.7 -42.6 22.0 Q-42.3 21.15 -42.95 19.75 L-43.95 17.3 -42.5 16.5 Q-41.7 16.0 -41.05 15.85 L-40.8 15.95 -40.65 16.1 -39.9 18.6 -39.05 21.0 M-42.15 17.45 L-42.75 17.75 Q-42.15 20.1 -41.45 20.7 L-40.0 20.35 -40.8 18.65 Q-41.15 17.5 -41.65 17.05 L-42.15 17.45" fill="#152242" fill-rule="evenodd" stroke="none"/>
    <path d="M-39.05 21.0 L-40.85 21.7 -42.6 22.0 Q-42.3 21.15 -42.95 19.75 L-43.95 17.3 -42.5 16.5 Q-41.7 16.0 -41.05 15.85 L-40.8 15.95 -40.65 16.1 -39.9 18.6 -39.05 21.0 M-42.15 17.45 L-42.75 17.75 Q-42.15 20.1 -41.45 20.7 L-40.0 20.35 -40.8 18.65 Q-41.15 17.5 -41.65 17.05 L-42.15 17.45" fill="none" stroke="#152242" stroke-linecap="butt" stroke-linejoin="miter" stroke-width="0.25"/>
    <path d="M-39.45 26.3 Q-38.55 27.65 -38.4 28.7 L-37.9 28.7 -37.5 28.65 -38.1 26.5 Q-38.65 25.35 -39.45 26.3 M-36.95 26.95 Q-36.4 28.35 -36.3 29.1 -36.45 29.3 -38.15 29.95 -40.05 28.2 -40.45 25.2 -39.85 25.3 -38.95 24.85 L-37.65 24.75 -36.95 26.95" fill="#152242" fill-rule="evenodd" stroke="none"/>
    <path d="M-39.45 26.3 Q-38.55 27.65 -38.4 28.7 L-37.9 28.7 -37.5 28.65 -38.1 26.5 Q-38.65 25.35 -39.45 26.3 M-36.95 26.95 Q-36.4 28.35 -36.3 29.1 -36.45 29.3 -38.15 29.95 -40.05 28.2 -40.45 25.2 -39.85 25.3 -38.95 24.85 L-37.65 24.75 -36.95 26.95" fill="none" stroke="#152242" stroke-linecap="butt" stroke-linejoin="miter" stroke-width="0.25"/>
    <path d="M-36.25 34.7 L-37.15 32.7 Q-36.65 31.9 -34.6 31.7 -34.0 32.55 -33.55 34.1 -33.1 35.45 -33.0 36.6 -33.5 37.1 -34.35 37.05 L-35.8 36.85 Q-35.7 35.95 -36.25 34.7 M-34.0 35.8 Q-34.4 34.2 -34.75 33.5 -35.25 32.25 -36.15 33.3 -35.6 34.15 -35.0 36.2 L-34.4 36.1 -34.0 35.8" fill="#152242" fill-rule="evenodd" stroke="none"/>
    <path d="M-36.25 34.7 L-37.15 32.7 Q-36.65 31.9 -34.6 31.7 -34.0 32.55 -33.55 34.1 -33.1 35.45 -33.0 36.6 -33.5 37.1 -34.35 37.05 L-35.8 36.85 Q-35.7 35.95 -36.25 34.7 M-34.0 35.8 Q-34.4 34.2 -34.75 33.5 -35.25 32.25 -36.15 33.3 -35.6 34.15 -35.0 36.2 L-34.4 36.1 -34.0 35.8" fill="none" stroke="#152242" stroke-linecap="butt" stroke-linejoin="miter" stroke-width="0.25"/>
    <path d="M34.65 42.55 L36.0 43.7 36.0 42.85 36.1 42.35 33.3 40.7 30.35 39.15 Q31.05 40.15 33.25 41.35 L34.65 42.55 M40.0 43.6 L43.2 43.4 44.0 41.05 43.55 41.0 Q41.15 41.15 38.55 42.25 L37.5 42.55 Q36.9 42.75 36.9 43.45 L40.0 43.6 M33.4 33.3 L32.1 31.05 Q31.3 29.65 30.5 29.0 L29.45 32.6 28.55 35.95 31.0 36.15 33.15 36.45 33.05 34.75 Q33.05 33.8 33.4 33.3 M43.8 33.85 L42.35 33.9 Q41.0 33.6 40.55 33.9 L41.45 35.5 Q42.0 36.3 43.0 36.2 L43.7 35.2 Q44.1 34.5 43.8 33.85 M37.85 37.25 L36.95 36.65 Q36.25 37.9 34.25 37.85 31.25 37.65 30.9 37.8 31.3 38.5 33.4 39.45 L35.0 40.2 Q36.0 40.7 36.65 40.8 L40.25 40.4 Q42.55 39.8 43.45 39.9 43.4 39.2 42.0 39.05 41.6 38.55 40.55 38.1 L38.95 37.2 37.85 37.25 M36.4 36.2 L36.5 35.0 Q36.4 34.25 36.7 34.0 L35.35 34.15 34.1 33.95 33.95 33.75 34.05 36.4 Q34.55 36.85 35.3 36.8 36.0 36.7 36.4 36.2 M37.2 34.05 L37.6 35.15 Q37.75 35.85 38.1 36.05 39.8 36.4 39.8 33.8 L37.2 34.05 M41.3 32.55 L42.3 32.55 Q43.1 32.5 43.15 32.25 43.2 31.65 42.7 31.3 L41.75 30.7 Q37.65 27.3 35.6 26.6 L39.15 30.55 41.3 32.55 M5.2 44.6 Q5.1 37.35 5.45 33.85 L1.6 33.5 -1.8 33.8 -3.25 33.75 -4.55 33.7 -6.3 34.2 -13.05 34.55 -12.9 40.25 -12.7 45.6 -8.9 45.45 -5.4 44.95 Q-3.95 44.85 -0.1 44.9 L5.2 44.6 M6.3 28.5 L2.2 28.8 -2.05 28.85 -2.15 32.2 2.1 32.25 6.4 32.7 6.45 30.5 6.3 28.5 M7.4 30.2 L7.45 31.75 Q7.9 31.35 9.4 30.75 10.75 30.15 11.3 29.55 L9.25 29.2 7.35 28.75 7.4 30.2 M11.9 31.15 Q10.75 31.4 9.15 32.55 7.45 33.8 6.45 34.1 6.3 35.65 6.3 39.25 L6.25 44.55 Q7.2 44.2 8.8 43.05 10.35 41.95 11.3 41.55 L11.55 36.05 Q11.55 32.85 11.9 31.15 M15.7 21.75 L15.45 22.0 15.1 22.05 15.55 31.7 15.65 33.3 16.05 34.9 Q16.1 34.65 16.5 34.7 L17.0 34.8 17.55 25.4 Q17.95 19.65 17.35 16.7 15.85 18.6 15.7 21.75 M11.9 11.45 Q10.8 10.95 9.9 11.65 8.7 12.6 7.85 12.6 5.1 19.65 4.55 23.25 4.65 23.05 5.1 23.1 L5.8 23.2 Q6.5 19.85 8.4 16.65 L11.9 11.45 M6.95 12.35 Q6.55 12.2 6.3 11.7 L5.85 11.0 4.9 11.95 4.0 12.9 3.0 19.45 2.55 21.65 Q2.3 22.85 2.55 23.4 3.25 23.4 3.6 22.6 L4.0 21.1 Q5.5 16.2 6.95 12.35 M3.25 12.1 Q2.85 12.0 2.55 11.35 L1.85 10.55 0.5 11.45 Q-0.3 11.95 -0.6 12.6 L-0.75 13.95 -0.65 15.4 -0.7 23.65 0.45 23.55 1.5 23.1 Q2.65 14.85 3.25 12.1 M19.35 12.85 L19.45 13.7 Q19.5 23.55 18.3 41.95 L20.75 42.55 Q21.1 36.35 21.0 26.95 L20.95 11.95 20.2 11.95 19.55 12.0 Q19.3 12.35 19.35 12.85 M15.35 10.85 L15.35 14.2 15.45 17.35 16.35 16.2 17.3 15.1 17.2 13.3 17.15 11.45 16.15 11.25 15.35 10.85 M14.2 11.8 Q14.0 11.55 13.8 11.9 L13.35 12.45 Q12.6 12.6 12.4 13.4 11.25 14.1 10.65 15.65 9.35 17.1 8.4 19.7 8.0 20.7 6.95 24.55 5.75 25.35 2.65 25.25 L-2.2 25.4 -2.2 26.35 -2.2 27.45 6.9 26.65 Q7.75 27.3 9.75 27.85 11.7 28.35 12.6 28.95 12.4 28.5 12.6 28.45 12.55 28.85 13.05 29.1 L13.75 29.6 Q13.45 30.6 13.35 32.5 L13.1 35.65 14.7 35.1 Q14.45 30.75 14.35 23.5 L14.2 11.8 M34.2 26.45 L33.75 26.55 Q34.2 27.7 35.4 29.55 L37.1 32.5 38.55 32.6 39.6 32.4 Q37.3 30.35 34.2 26.45 M32.65 26.8 L31.95 26.9 31.1 27.0 Q31.4 28.3 32.6 29.75 L34.45 32.2 35.95 32.55 34.4 29.6 Q33.05 27.6 32.65 26.8 M25.45 15.95 Q26.7 17.05 27.15 18.55 27.75 20.35 27.35 22.65 L26.4 26.55 25.0 31.3 23.65 36.15 25.65 36.4 27.3 36.4 Q27.4 34.3 28.5 31.15 29.6 28.0 29.65 26.3 L30.4 25.35 30.75 24.15 Q32.5 19.25 33.75 17.3 L28.2 14.6 Q25.15 13.1 22.3 12.5 L22.15 14.55 Q24.05 14.75 25.45 15.95 M26.15 24.05 Q26.95 20.95 25.7 18.6 24.6 16.6 22.2 15.8 L22.15 16.3 21.9 25.95 Q21.85 31.45 22.2 35.5 L22.1 36.2 Q22.05 36.7 22.4 36.75 22.7 35.2 24.05 30.95 L26.15 24.05 M42.45 11.2 L42.2 9.65 Q42.05 8.9 41.75 8.85 L36.3 16.65 Q33.3 21.35 32.0 25.5 33.25 24.95 36.95 24.75 L39.1 19.65 Q40.45 16.5 41.75 14.95 L42.35 14.5 Q43.3 13.45 43.2 13.05 L42.45 11.2 M34.05 12.6 Q34.45 11.55 35.45 10.05 36.5 8.5 36.8 7.45 35.05 5.9 33.3 7.45 L32.6 9.4 31.9 11.35 Q33.05 12.25 34.05 12.6 M37.7 3.7 L36.8 4.8 Q36.05 5.4 35.85 5.8 L37.2 6.4 Q37.85 6.9 38.0 7.6 L34.1 14.2 Q33.75 13.7 32.35 12.9 31.1 12.2 30.8 11.4 L31.15 10.45 31.55 9.6 30.7 9.7 30.0 9.4 27.3 10.5 Q25.6 11.15 24.95 12.0 26.55 12.45 29.65 13.8 32.8 15.2 34.65 15.65 L37.1 12.0 39.5 8.3 41.15 6.5 Q40.4 5.35 37.7 3.7 M46.9 43.9 L49.9 42.5 Q48.35 41.8 45.5 41.5 44.8 43.9 43.85 44.65 L39.85 44.8 37.9 45.1 36.05 45.1 34.9 44.45 33.85 43.5 30.05 41.0 Q28.0 39.5 27.35 37.95 27.2 38.4 26.7 38.25 L25.8 38.0 22.75 37.85 Q22.45 37.95 22.3 37.65 L22.05 37.25 21.9 39.95 Q21.8 41.25 22.1 42.5 21.5 43.65 20.15 44.1 L18.0 44.0 Q16.95 43.2 16.95 40.65 L17.05 36.0 14.85 36.15 13.0 36.85 12.5 41.85 9.6 43.7 7.6 45.15 5.7 46.45 0.6 46.05 -4.75 45.9 -6.6 46.25 -7.7 46.55 -8.95 46.7 -11.35 46.9 -13.7 47.1 Q-14.95 45.9 -17.8 44.8 L-22.25 42.75 Q-22.65 42.4 -22.45 41.0 L-30.45 41.4 Q-31.0 41.6 -31.5 42.85 L-34.15 43.35 Q-35.55 43.45 -36.85 42.85 L-38.5 42.8 -39.5 40.85 Q-43.1 42.0 -47.05 43.75 -38.0 46.95 -25.1 49.3 L-19.45 50.0 -12.7 50.7 -5.75 50.7 -0.05 50.5 5.4 50.2 9.7 50.3 26.4 48.5 31.8 48.0 39.15 46.5 40.5 46.4 41.75 46.25 42.85 45.65 43.85 45.05 46.9 43.9 M53.05 31.3 L52.05 28.35 51.25 25.2 48.15 28.1 Q46.4 29.8 45.55 31.55 L45.1 33.05 Q44.75 34.0 44.95 35.05 L43.95 36.45 Q43.45 37.3 42.75 37.4 42.1 37.45 41.4 36.95 L40.25 36.3 Q40.45 36.95 41.3 37.25 L42.75 37.75 44.1 38.55 Q44.85 39.15 45.35 39.25 48.25 33.9 53.05 31.3 M50.65 24.25 Q51.1 23.9 51.1 23.4 L46.6 20.65 Q43.95 19.05 41.95 18.15 L40.0 21.9 Q38.8 24.15 38.25 25.95 39.85 27.85 43.85 30.9 44.85 29.15 46.65 27.5 L49.9 24.85 50.65 24.25 M3.25 -1.15 Q2.65 -2.45 2.15 -4.55 L1.35 -8.3 Q0.2 -7.65 -0.75 -5.3 -1.7 -3.05 -1.7 -1.3 -1.2 0.6 -1.4 1.7 L-1.9 2.75 -2.35 3.7 -0.75 6.4 Q0.0 8.15 -0.05 10.05 L1.85 8.5 3.05 9.75 4.3 10.8 5.4 9.7 6.45 8.6 Q6.95 9.0 7.3 9.95 L7.9 11.4 Q9.05 10.2 11.15 10.05 13.45 9.85 14.25 11.5 L14.2 10.7 14.05 10.05 Q11.5 9.0 9.6 7.15 8.15 5.8 6.25 3.15 L4.6 0.95 3.25 -1.15 M10.65 -37.75 L7.85 -37.7 4.95 -37.3 5.2 -31.9 5.4 -26.45 Q5.8 -26.2 5.95 -26.1 6.25 -25.9 6.2 -25.45 L7.5 -26.4 8.65 -27.5 11.15 -29.5 10.8 -33.75 10.65 -37.75 M11.5 -39.55 L10.8 -39.3 Q11.4 -39.35 12.0 -38.85 L12.0 -39.2 12.15 -39.35 11.5 -39.55 M9.25 -40.1 Q8.65 -40.8 8.35 -40.8 7.05 -40.8 6.95 -39.0 L8.7 -39.2 Q9.95 -39.2 10.35 -39.55 9.85 -39.4 9.25 -40.1 M4.65 -39.1 Q4.6 -38.55 5.1 -38.65 L5.9 -38.95 4.65 -39.1 M13.2 -38.6 L12.6 -37.95 11.9 -37.5 Q11.65 -34.25 12.4 -29.9 13.85 -30.25 14.3 -30.6 13.55 -30.6 13.55 -31.4 13.75 -36.6 13.1 -47.15 L9.1 -47.2 5.1 -46.75 1.25 -46.55 -0.35 -46.75 -1.95 -46.95 -3.5 -46.7 -5.05 -46.5 -7.8 -46.45 -15.15 -46.8 -18.35 -46.8 -21.45 -46.95 -25.85 -46.25 -30.15 -45.75 Q-30.25 -45.95 -30.25 -45.75 L-30.15 -45.0 -30.1 -44.35 -29.9 -43.35 -29.85 -41.85 Q-29.55 -41.3 -29.5 -40.4 -29.1 -36.7 -28.85 -31.65 L-28.45 -23.9 -28.2 -21.4 Q-28.05 -19.95 -28.2 -19.15 -27.85 -18.25 -27.75 -16.9 L-27.65 -14.6 -27.35 -11.45 Q-27.15 -9.7 -27.35 -8.75 -26.65 -5.4 -26.45 -0.75 L-26.1 7.25 Q-25.8 14.35 -24.75 27.3 L-23.5 38.6 -23.45 39.25 Q-23.4 39.7 -23.1 39.5 -22.6 39.55 -22.65 38.85 L-22.85 37.8 Q-22.9 35.45 -23.75 31.4 -23.3 31.2 -23.5 30.2 -23.75 29.05 -23.5 28.8 -22.35 29.3 -20.1 28.35 -17.6 27.35 -16.95 27.35 L-6.35 27.4 Q-6.15 26.85 -6.55 26.25 -6.85 25.75 -6.65 25.45 L-11.5 25.55 -16.3 25.2 Q-16.8 23.3 -17.95 20.55 L-19.75 16.1 -21.85 13.6 Q-23.85 13.2 -23.9 12.05 L-23.7 11.35 Q-22.9 10.3 -20.6 10.3 -18.55 10.35 -17.2 11.15 L-16.1 9.45 Q-15.5 8.4 -14.7 8.25 L-13.15 9.75 -11.55 11.15 Q-10.55 9.05 -9.6 7.85 -9.3 7.75 -9.1 8.0 L-8.7 8.3 -7.55 3.0 Q-9.3 1.25 -8.4 -1.1 -9.35 -1.8 -10.65 -3.8 -11.9 -5.75 -12.95 -6.45 L-12.85 -3.0 -13.05 0.7 -12.15 3.4 Q-12.5 4.3 -13.4 4.45 L-15.3 4.85 -16.3 5.4 -17.1 5.7 Q-17.75 5.75 -18.55 5.15 -19.55 4.5 -20.05 4.35 L-21.55 4.35 -23.1 4.05 Q-23.2 3.8 -23.85 3.3 L-24.35 2.35 -23.6 1.2 -22.8 0.25 -23.45 -12.75 Q-24.7 -14.35 -24.35 -15.45 -23.75 -16.1 -21.85 -16.1 L-21.45 -16.75 -21.0 -17.4 -18.65 -17.6 Q-17.3 -17.3 -16.95 -16.3 -12.4 -17.1 -13.25 -10.35 -11.6 -10.45 -10.8 -9.9 -10.3 -11.3 -9.4 -11.95 -8.3 -12.65 -7.35 -11.45 -7.15 -12.6 -7.6 -15.2 -7.95 -17.55 -7.7 -18.3 -6.95 -20.15 -4.95 -20.15 L-4.85 -17.5 Q-4.4 -16.55 -4.4 -14.65 L-4.05 -11.85 Q-3.6 -12.25 -2.85 -11.7 L-1.9 -10.6 -0.55 -11.75 Q0.35 -12.25 1.1 -11.45 1.95 -16.9 2.5 -18.95 3.5 -22.55 5.4 -24.55 4.7 -24.5 4.5 -25.1 L3.85 -37.25 Q3.1 -38.0 3.15 -39.25 L4.6 -40.5 5.2 -40.25 5.8 -40.0 6.95 -41.6 Q7.65 -42.35 8.6 -42.15 L9.35 -41.55 10.15 -40.8 12.35 -40.6 Q13.55 -40.15 13.2 -38.6 M23.4 -31.45 L27.95 -30.95 Q30.8 -30.45 32.35 -29.55 L33.5 -28.7 Q34.05 -28.15 34.6 -27.9 37.2 -26.6 38.65 -22.05 L39.75 -19.75 40.85 -17.3 41.55 -15.55 42.1 -13.65 Q42.8 -9.75 41.55 -4.45 41.2 -2.95 40.15 -0.75 L38.55 2.75 40.75 4.4 Q42.45 5.4 43.05 6.0 L43.15 7.0 42.9 8.05 Q43.05 9.65 43.85 11.1 L45.55 13.4 44.35 15.05 Q43.4 16.0 43.15 16.7 L44.3 17.6 45.65 18.3 49.3 20.5 Q51.55 21.85 52.8 23.05 52.5 24.4 52.85 25.9 L53.75 28.7 54.3 30.4 Q54.55 31.3 54.4 31.75 54.2 32.45 52.6 33.3 L50.35 34.5 Q49.15 35.4 48.1 36.9 L46.4 39.7 49.2 40.65 Q50.8 41.2 51.6 42.0 L51.1 45.25 49.5 45.7 49.45 45.7 49.7 44.7 Q46.7 46.45 40.3 47.65 L25.95 50.0 8.7 51.55 -25.7 50.4 -34.8 49.2 -36.7 48.6 -41.65 47.0 -46.3 45.4 -46.05 45.9 -48.2 44.8 -48.75 43.4 Q-48.6 42.6 -46.8 41.85 L-44.45 41.05 -42.05 40.0 Q-40.85 39.55 -39.65 39.45 -42.9 31.2 -50.55 25.55 -50.45 24.5 -49.55 22.1 -48.65 19.65 -48.45 18.45 L-48.15 14.3 -42.65 13.15 -37.1 12.05 -38.25 1.3 Q-38.4 -0.55 -39.05 -3.75 L-39.9 -8.85 -41.15 -19.35 -42.45 -29.65 -39.75 -34.3 -36.8 -38.75 -36.35 -39.2 -35.6 -40.35 -35.55 -40.85 -33.9 -42.95 -31.1 -47.05 -29.1 -47.05 -27.9 -46.9 -27.5 -47.1 -27.1 -47.35 -26.1 -47.3 -24.5 -47.25 -13.55 -47.75 -2.6 -48.0 3.5 -48.1 8.95 -48.3 14.25 -47.9 14.2 -47.3 Q14.1 -46.95 14.6 -47.0 14.05 -43.55 14.5 -38.7 L15.1 -30.85 17.7 -31.15 20.45 -31.55 23.4 -31.45 M33.2 -26.75 Q32.0 -27.75 30.6 -28.25 L27.3 -28.95 23.9 -29.55 20.7 -30.0 15.25 -29.3 Q11.95 -28.45 9.55 -26.55 7.6 -25.05 5.5 -21.9 2.5 -17.5 2.15 -11.05 2.25 -10.9 2.7 -10.8 L3.2 -10.6 Q3.05 -10.15 3.45 -10.0 L3.7 -9.5 Q3.6 -8.95 3.15 -8.95 L2.3 -8.75 Q4.05 -1.1 6.65 2.0 L8.0 3.45 9.2 5.0 Q10.0 5.2 10.95 6.2 L12.55 7.65 Q13.85 8.45 15.7 9.0 17.65 9.7 18.95 9.7 19.65 10.55 21.05 10.4 L23.1 9.95 25.25 9.65 28.7 8.65 Q30.35 8.0 31.65 7.15 33.2 6.0 34.15 5.0 L36.25 2.35 Q38.55 -0.75 39.45 -5.05 40.35 -9.3 39.8 -13.9 39.55 -16.0 38.95 -17.65 L37.45 -20.75 Q35.55 -24.7 33.2 -26.75 M-28.55 -11.7 L-28.9 -15.95 -29.3 -21.0 -29.25 -23.95 -30.35 -39.1 -30.65 -42.05 Q-30.9 -43.7 -31.6 -44.65 -36.95 -37.45 -41.35 -29.55 -41.25 -26.85 -40.45 -22.2 -39.45 -16.95 -39.3 -14.9 L-39.35 -12.25 -39.0 -10.8 -37.8 -2.1 -36.65 6.2 -36.0 9.25 Q-35.65 11.1 -35.7 12.4 -34.95 15.25 -34.35 19.25 L-33.45 26.2 -30.85 40.3 -24.65 39.55 Q-25.6 30.2 -26.75 14.1 L-28.65 -11.5 -28.55 -11.7 -28.5 -11.3 -28.5 -11.7 -28.55 -11.7 M-6.15 32.5 L-6.2 29.35 -15.7 29.05 -15.05 32.8 -10.5 32.6 -6.15 32.5 M-36.6 41.65 L-35.7 41.55 Q-37.15 36.05 -40.75 29.15 -44.9 21.7 -46.75 17.7 L-46.9 17.6 Q-47.0 17.5 -47.2 17.5 -47.85 20.85 -49.25 24.3 L-45.25 28.05 Q-44.35 28.95 -43.6 30.3 L-42.25 32.7 -40.15 36.0 -38.6 38.65 Q-37.75 40.25 -37.55 41.55 L-36.6 41.65 M-22.35 31.2 L-21.85 36.45 -21.3 41.6 Q-20.05 42.2 -17.65 43.5 L-14.05 45.3 -14.3 34.8 Q-15.8 34.5 -18.35 32.85 -20.7 31.35 -22.35 31.2 M-20.5 30.15 L-20.35 30.6 -20.0 30.75 -19.9 30.95 -19.85 31.1 -18.5 31.4 Q-18.25 31.5 -17.3 32.1 L-16.1 32.55 -16.35 30.6 Q-16.5 29.4 -17.1 29.1 -17.65 29.55 -18.7 29.8 L-20.5 30.15 M-36.15 25.3 L-35.55 26.75 Q-35.25 27.7 -34.8 28.05 L-34.3 27.9 -34.8 25.35 Q-35.2 24.0 -36.15 25.3 M-39.0 19.25 L-39.45 16.75 Q-38.35 15.5 -36.6 15.8 L-36.7 14.65 -36.9 13.65 -42.1 14.3 -47.0 15.45 Q-45.95 16.95 -43.9 21.35 -42.1 25.35 -40.55 27.1 L-39.0 30.55 Q-36.0 36.95 -34.45 41.65 L-32.9 41.65 -31.55 41.45 Q-32.15 41.45 -32.15 41.05 L-31.85 40.0 -34.1 28.8 -34.6 29.0 -35.35 29.0 Q-35.85 28.5 -36.4 27.05 -36.9 25.5 -37.3 24.95 -36.8 24.15 -35.25 23.65 -35.35 21.85 -35.75 20.55 L-37.8 21.1 Q-38.6 20.5 -39.0 19.25 M-35.85 19.9 Q-36.25 18.05 -36.65 17.3 -37.35 16.1 -38.55 17.15 L-38.0 19.85 -37.0 19.95 -35.85 19.9 M-21.65 3.0 Q-20.6 2.95 -20.8 2.35 L-21.95 2.3 Q-22.7 1.9 -22.8 2.0 L-23.0 2.5 Q-22.75 3.0 -21.65 3.0 M-3.6 25.4 L-4.05 25.35 -4.4 28.85 -4.45 32.3 -3.75 32.3 -3.2 32.1 -3.5 28.95 -3.6 25.4 M-8.95 11.1 L-9.75 12.05 -10.6 13.15 -7.6 23.65 -6.65 23.65 Q-6.15 23.5 -5.8 23.65 -5.9 21.55 -6.35 18.3 L-7.05 13.0 Q-7.95 12.65 -8.95 11.1 M-14.55 10.5 Q-15.95 11.9 -16.25 12.6 -13.2 20.3 -12.05 23.7 L-10.35 23.75 -8.7 23.7 -11.7 13.05 Q-12.45 12.8 -13.25 11.9 L-14.55 10.5 M-17.3 12.35 L-19.05 11.8 -20.65 11.95 -20.35 12.0 -19.45 13.5 -18.45 15.0 Q-17.8 16.25 -17.05 19.0 L-15.7 23.15 -14.55 23.4 -13.25 23.55 Q-13.85 21.25 -15.15 17.85 L-17.3 12.35 M-13.25 3.3 L-13.45 2.05 -16.35 2.5 -19.45 2.7 Q-18.95 2.7 -18.5 3.5 L-17.6 4.45 -16.55 4.3 -15.55 3.6 -14.3 3.55 -13.25 3.3 M-4.2 11.55 L-5.15 12.45 -6.15 13.1 -4.7 23.55 -1.8 23.7 -1.7 17.65 -1.5 12.35 -2.85 11.65 -4.2 11.55 M-5.75 3.35 Q-5.65 4.45 -6.05 6.95 -6.4 9.05 -6.1 10.45 -5.2 10.85 -4.2 10.05 L-2.85 9.95 Q-2.05 8.3 -2.8 6.45 L-4.15 3.5 -5.05 3.55 -5.75 3.35 M-6.25 -0.1 L-6.45 1.0 Q-6.25 2.55 -4.65 2.55 -3.1 2.55 -3.05 0.65 L-3.4 0.3 -3.6 -0.45 -4.65 -0.95 -5.85 -1.35 -6.25 -0.1 M-3.8 -9.55 Q-5.25 -9.95 -5.2 -8.35 L-4.75 -5.1 -4.8 -3.8 Q-4.8 -3.15 -4.45 -2.95 -4.45 -5.55 -3.8 -9.55 M-2.45 -4.9 Q-1.5 -8.25 0.55 -10.15 -0.35 -10.45 -1.2 -9.7 -2.1 -8.95 -2.9 -9.1 L-3.2 -6.6 -3.4 -4.65 -3.55 -3.75 Q-3.55 -3.15 -3.25 -3.0 -2.6 -3.0 -2.5 -3.75 L-2.45 -4.9 M-9.2 -9.05 Q-9.25 -8.55 -8.7 -7.7 -8.1 -6.9 -8.3 -6.35 -7.7 -5.8 -7.2 -4.55 L-6.2 -2.6 Q-6.2 -2.85 -5.85 -2.75 -5.45 -2.7 -5.5 -2.9 L-5.85 -5.7 -6.15 -8.55 -8.1 -9.65 Q-9.0 -10.2 -9.2 -9.05 M-13.25 -8.55 Q-13.5 -8.55 -13.25 -8.2 -11.7 -7.65 -10.2 -5.45 -8.55 -3.0 -7.45 -2.4 -7.4 -2.95 -7.8 -3.75 L-8.6 -5.15 -9.9 -8.05 -11.55 -8.5 -13.25 -8.55 M-5.9 -17.95 L-6.05 -18.15 Q-6.2 -17.75 -6.55 -17.7 -6.4 -16.85 -6.4 -14.8 L-6.25 -11.75 Q-6.1 -10.35 -5.75 -10.3 -5.3 -11.5 -5.5 -14.0 L-5.9 -17.95 M-22.1 -6.15 L-21.75 0.7 -13.95 0.95 Q-13.9 -0.25 -14.15 -3.3 -14.25 -5.85 -13.8 -6.9 L-14.75 -6.75 -15.7 -6.55 Q-16.3 -7.2 -15.7 -8.15 -14.7 -9.5 -14.65 -9.75 -14.5 -10.55 -14.85 -11.55 L-15.5 -13.35 Q-19.1 -13.65 -22.2 -13.35 -22.4 -10.35 -22.1 -6.15 M-20.3 -16.3 Q-20.25 -15.35 -21.05 -14.95 L-22.2 -14.95 -23.2 -14.65 -18.45 -14.55 -17.65 -14.6 -16.9 -14.7 -15.8 -14.35 Q-15.1 -14.2 -14.75 -14.7 -15.05 -15.05 -15.8 -15.05 L-17.2 -15.1 -18.6 -16.35 -20.3 -16.3" fill="#152242" fill-rule="evenodd" stroke="none"/>
    <path d="M33.2 -26.75 Q35.55 -24.7 37.45 -20.75 L38.95 -17.65 Q39.55 -16.0 39.8 -13.9 40.35 -9.3 39.45 -5.05 38.55 -0.75 36.25 2.35 L34.15 5.0 Q33.2 6.0 31.65 7.15 30.35 8.0 28.7 8.65 L25.25 9.65 23.1 9.95 21.05 10.4 Q19.65 10.55 18.95 9.7 17.65 9.7 15.7 9.0 13.85 8.45 12.55 7.65 L10.95 6.2 Q10.0 5.2 9.2 5.0 L8.0 3.45 6.65 2.0 Q4.05 -1.1 2.3 -8.75 L3.15 -8.95 Q3.6 -8.95 3.7 -9.5 L3.45 -10.0 Q3.05 -10.15 3.2 -10.6 L2.7 -10.8 Q2.25 -10.9 2.15 -11.05 2.5 -17.5 5.5 -21.9 7.6 -25.05 9.55 -26.55 11.95 -28.45 15.25 -29.3 L20.7 -30.0 23.9 -29.55 27.3 -28.95 30.6 -28.25 Q32.0 -27.75 33.2 -26.75 M23.4 -31.45 L20.45 -31.55 17.7 -31.15 15.1 -30.85 14.5 -38.7 Q14.05 -43.55 14.6 -47.0 14.1 -46.95 14.2 -47.3 L14.25 -47.9 8.95 -48.3 3.5 -48.1 -2.6 -48.0 -13.55 -47.75 -24.5 -47.25 -26.1 -47.3 -27.1 -47.35 -27.5 -47.1 -27.9 -46.9 -29.1 -47.05 -31.1 -47.05 -33.9 -42.95 -35.55 -40.85 -35.6 -40.35 -36.35 -39.2 -36.8 -38.75 -39.75 -34.3 -42.45 -29.65 -41.15 -19.35 -39.9 -8.85 -39.05 -3.75 Q-38.4 -0.55 -38.25 1.3 L-37.1 12.05 -42.65 13.15 -48.15 14.3 -48.45 18.45 Q-48.65 19.65 -49.55 22.1 -50.45 24.5 -50.55 25.55 -42.9 31.2 -39.65 39.45 -40.85 39.55 -42.05 40.0 L-44.45 41.05 -46.8 41.85 Q-48.6 42.6 -48.75 43.4 L-48.2 44.8 -46.05 45.9 -46.3 45.4 -41.65 47.0 -36.7 48.6 -34.8 49.2 -25.7 50.4 8.7 51.55 25.95 50.0 40.3 47.65 Q46.7 46.45 49.7 44.7 L49.45 45.7 49.5 45.7 51.1 45.25 51.6 42.0 Q50.8 41.2 49.2 40.65 L46.4 39.7 48.1 36.9 Q49.15 35.4 50.35 34.5 L52.6 33.3 Q54.2 32.45 54.4 31.75 54.55 31.3 54.3 30.4 L53.75 28.7 52.85 25.9 Q52.5 24.4 52.8 23.05 51.55 21.85 49.3 20.5 L45.65 18.3 44.3 17.6 43.15 16.7 Q43.4 16.0 44.35 15.05 L45.55 13.4 43.85 11.1 Q43.05 9.65 42.9 8.05 L43.15 7.0 43.05 6.0 Q42.45 5.4 40.75 4.4 L38.55 2.75 40.15 -0.75 Q41.2 -2.95 41.55 -4.45 42.8 -9.75 42.1 -13.65 L41.55 -15.55 40.85 -17.3 39.75 -19.75 38.65 -22.05 Q37.2 -26.6 34.6 -27.9 34.05 -28.15 33.5 -28.7 L32.35 -29.55 Q30.8 -30.45 27.95 -30.95 L23.4 -31.45 M13.2 -38.6 Q13.55 -40.15 12.35 -40.6 L10.15 -40.8 9.35 -41.55 8.6 -42.15 Q7.65 -42.35 6.95 -41.6 L5.8 -40.0 5.2 -40.25 4.6 -40.5 3.15 -39.25 Q3.1 -38.0 3.85 -37.25 L4.5 -25.1 Q4.7 -24.5 5.4 -24.55 3.5 -22.55 2.5 -18.95 1.95 -16.9 1.1 -11.45 0.35 -12.25 -0.55 -11.75 L-1.9 -10.6 -2.85 -11.7 Q-3.6 -12.25 -4.05 -11.85 L-4.4 -14.65 Q-4.4 -16.55 -4.85 -17.5 L-4.95 -20.15 Q-6.95 -20.15 -7.7 -18.3 -7.95 -17.55 -7.6 -15.2 -7.15 -12.6 -7.35 -11.45 -8.3 -12.65 -9.4 -11.95 -10.3 -11.3 -10.8 -9.9 -11.6 -10.45 -13.25 -10.35 -12.4 -17.1 -16.95 -16.3 -17.3 -17.3 -18.65 -17.6 L-21.0 -17.4 -21.45 -16.75 -21.85 -16.1 Q-23.75 -16.1 -24.35 -15.45 -24.7 -14.35 -23.45 -12.75 L-22.8 0.25 -23.6 1.2 -24.35 2.35 -23.85 3.3 Q-23.2 3.8 -23.1 4.05 L-21.55 4.35 -20.05 4.35 Q-19.55 4.5 -18.55 5.15 -17.75 5.75 -17.1 5.7 L-16.3 5.4 -15.3 4.85 -13.4 4.45 Q-12.5 4.3 -12.15 3.4 L-13.05 0.7 -12.85 -3.0 -12.95 -6.45 Q-11.9 -5.75 -10.65 -3.8 -9.35 -1.8 -8.4 -1.1 -9.3 1.25 -7.55 3.0 L-8.7 8.3 -9.1 8.0 Q-9.3 7.75 -9.6 7.85 -10.55 9.05 -11.55 11.15 L-13.15 9.75 -14.7 8.25 Q-15.5 8.4 -16.1 9.45 L-17.2 11.15 Q-18.55 10.35 -20.6 10.3 -22.9 10.3 -23.7 11.35 L-23.9 12.05 Q-23.85 13.2 -21.85 13.6 L-19.75 16.1 -17.95 20.55 Q-16.8 23.3 -16.3 25.2 L-11.5 25.55 -6.65 25.45 Q-6.85 25.75 -6.55 26.25 -6.15 26.85 -6.35 27.4 L-16.95 27.35 Q-17.6 27.35 -20.1 28.35 -22.35 29.3 -23.5 28.8 -23.75 29.05 -23.5 30.2 -23.3 31.2 -23.75 31.4 -22.9 35.45 -22.85 37.8 L-22.65 38.85 Q-22.6 39.55 -23.1 39.5 -23.4 39.7 -23.45 39.25 L-23.5 38.6 -24.75 27.3 Q-25.8 14.35 -26.1 7.25 L-26.45 -0.75 Q-26.65 -5.4 -27.35 -8.75 -27.15 -9.7 -27.35 -11.45 L-27.65 -14.6 -27.75 -16.9 Q-27.85 -18.25 -28.2 -19.15 -28.05 -19.95 -28.2 -21.4 L-28.45 -23.9 -28.85 -31.65 Q-29.1 -36.7 -29.5 -40.4 -29.55 -41.3 -29.85 -41.85 L-29.9 -43.35 -30.1 -44.35 -30.15 -45.0 -30.25 -45.75 Q-30.25 -45.95 -30.15 -45.75 L-25.85 -46.25 -21.45 -46.95 -18.35 -46.8 -15.15 -46.8 -7.8 -46.45 -5.05 -46.5 -3.5 -46.7 -1.95 -46.95 -0.35 -46.75 1.25 -46.55 5.1 -46.75 9.1 -47.2 13.1 -47.15 Q13.75 -36.6 13.55 -31.4 13.55 -30.6 14.3 -30.6 13.85 -30.25 12.4 -29.9 11.65 -34.25 11.9 -37.5 L12.6 -37.95 13.2 -38.6 M4.65 -39.1 L5.9 -38.95 5.1 -38.65 Q4.6 -38.55 4.65 -39.1 M9.25 -40.1 Q9.85 -39.4 10.35 -39.55 9.95 -39.2 8.7 -39.2 L6.95 -39.0 Q7.05 -40.8 8.35 -40.8 8.65 -40.8 9.25 -40.1 M11.5 -39.55 L12.15 -39.35 12.0 -39.2 12.0 -38.85 Q11.4 -39.35 10.8 -39.3 L11.5 -39.55 M10.65 -37.75 L10.8 -33.75 11.15 -29.5 8.65 -27.5 7.5 -26.4 6.2 -25.45 Q6.25 -25.9 5.95 -26.1 5.8 -26.2 5.4 -26.45 L5.2 -31.9 4.95 -37.3 7.85 -37.7 10.65 -37.75 M3.25 -1.15 L4.6 0.95 6.25 3.15 Q8.15 5.8 9.6 7.15 11.5 9.0 14.05 10.05 L14.2 10.7 14.25 11.5 Q13.45 9.85 11.15 10.05 9.05 10.2 7.9 11.4 L7.3 9.95 Q6.95 9.0 6.45 8.6 L5.4 9.7 4.3 10.8 3.05 9.75 1.85 8.5 -0.05 10.05 Q0.0 8.15 -0.75 6.4 L-2.35 3.7 -1.9 2.75 -1.4 1.7 Q-1.2 0.6 -1.7 -1.3 -1.7 -3.05 -0.75 -5.3 0.2 -7.65 1.35 -8.3 L2.15 -4.55 Q2.65 -2.45 3.25 -1.15 M50.65 24.25 L49.9 24.85 46.65 27.5 Q44.85 29.15 43.85 30.9 39.85 27.85 38.25 25.95 38.8 24.15 40.0 21.9 L41.95 18.15 Q43.95 19.05 46.6 20.65 L51.1 23.4 Q51.1 23.9 50.65 24.25 M53.05 31.3 Q48.25 33.9 45.35 39.25 44.85 39.15 44.1 38.55 L42.75 37.75 41.3 37.25 Q40.45 36.95 40.25 36.3 L41.4 36.95 Q42.1 37.45 42.75 37.4 43.45 37.3 43.95 36.45 L44.95 35.05 Q44.75 34.0 45.1 33.05 L45.55 31.55 Q46.4 29.8 48.15 28.1 L51.25 25.2 52.05 28.35 53.05 31.3 M46.9 43.9 L43.85 45.05 42.85 45.65 41.75 46.25 40.5 46.4 39.15 46.5 31.8 48.0 26.4 48.5 9.7 50.3 5.4 50.2 -0.05 50.5 -5.75 50.7 -12.7 50.7 -19.45 50.0 -25.1 49.3 Q-38.0 46.95 -47.05 43.75 -43.1 42.0 -39.5 40.85 L-38.5 42.8 -36.85 42.85 Q-35.55 43.45 -34.15 43.35 L-31.5 42.85 Q-31.0 41.6 -30.45 41.4 L-22.45 41.0 Q-22.65 42.4 -22.25 42.75 L-17.8 44.8 Q-14.95 45.9 -13.7 47.1 L-11.35 46.9 -8.95 46.7 -7.7 46.55 -6.6 46.25 -4.75 45.9 0.6 46.05 5.7 46.45 7.6 45.15 9.6 43.7 12.5 41.85 13.0 36.85 14.85 36.15 17.05 36.0 16.95 40.65 Q16.95 43.2 18.0 44.0 L20.15 44.1 Q21.5 43.65 22.1 42.5 21.8 41.25 21.9 39.95 L22.05 37.25 22.3 37.65 Q22.45 37.95 22.75 37.85 L25.8 38.0 26.7 38.25 Q27.2 38.4 27.35 37.95 28.0 39.5 30.05 41.0 L33.85 43.5 34.9 44.45 36.05 45.1 37.9 45.1 39.85 44.8 43.85 44.65 Q44.8 43.9 45.5 41.5 48.35 41.8 49.9 42.5 L46.9 43.9 M37.7 3.7 Q40.4 5.35 41.15 6.5 L39.5 8.3 37.1 12.0 34.65 15.65 Q32.8 15.2 29.65 13.8 26.55 12.45 24.95 12.0 25.6 11.15 27.3 10.5 L30.0 9.4 30.7 9.7 31.55 9.6 31.15 10.45 30.8 11.4 Q31.1 12.2 32.35 12.9 33.75 13.7 34.1 14.2 L38.0 7.6 Q37.85 6.9 37.2 6.4 L35.85 5.8 Q36.05 5.4 36.8 4.8 L37.7 3.7 M34.05 12.6 Q33.05 12.25 31.9 11.35 L32.6 9.4 33.3 7.45 Q35.05 5.9 36.8 7.45 36.5 8.5 35.45 10.05 34.45 11.55 34.05 12.6 M42.45 11.2 L43.2 13.05 Q43.3 13.45 42.35 14.5 L41.75 14.95 Q40.45 16.5 39.1 19.65 L36.95 24.75 Q33.25 24.95 32.0 25.5 33.3 21.35 36.3 16.65 L41.75 8.85 Q42.05 8.9 42.2 9.65 L42.45 11.2 M26.15 24.05 L24.05 30.95 Q22.7 35.2 22.4 36.75 22.05 36.7 22.1 36.2 L22.2 35.5 Q21.85 31.45 21.9 25.95 L22.15 16.3 22.2 15.8 Q24.6 16.6 25.7 18.6 26.95 20.95 26.15 24.05 M25.45 15.95 Q24.05 14.75 22.15 14.55 L22.3 12.5 Q25.15 13.1 28.2 14.6 L33.75 17.3 Q32.5 19.25 30.75 24.15 L30.4 25.35 29.65 26.3 Q29.6 28.0 28.5 31.15 27.4 34.3 27.3 36.4 L25.65 36.4 23.65 36.15 25.0 31.3 26.4 26.55 27.35 22.65 Q27.75 20.35 27.15 18.55 26.7 17.05 25.45 15.95 M32.65 26.8 Q33.05 27.6 34.4 29.6 L35.95 32.55 34.45 32.2 32.6 29.75 Q31.4 28.3 31.1 27.0 L31.95 26.9 32.65 26.8 M34.2 26.45 Q37.3 30.35 39.6 32.4 L38.55 32.6 37.1 32.5 35.4 29.55 Q34.2 27.7 33.75 26.55 L34.2 26.45 M14.2 11.8 L14.35 23.5 Q14.45 30.75 14.7 35.1 L13.1 35.65 13.35 32.5 Q13.45 30.6 13.75 29.6 L13.05 29.1 Q12.55 28.85 12.6 28.45 12.4 28.5 12.6 28.95 11.7 28.35 9.75 27.85 7.75 27.3 6.9 26.65 L-2.2 27.45 -2.2 26.35 -2.2 25.4 2.65 25.25 Q5.75 25.35 6.95 24.55 8.0 20.7 8.4 19.7 9.35 17.1 10.65 15.65 11.25 14.1 12.4 13.4 12.6 12.6 13.35 12.45 L13.8 11.9 Q14.0 11.55 14.2 11.8 M15.35 10.85 L16.15 11.25 17.15 11.45 17.2 13.3 17.3 15.1 16.35 16.2 15.45 17.35 15.35 14.2 15.35 10.85 M19.35 12.85 Q19.3 12.35 19.55 12.0 L20.2 11.95 20.95 11.95 21.0 26.95 Q21.1 36.35 20.75 42.55 L18.3 41.95 Q19.5 23.55 19.45 13.7 L19.35 12.85 M3.25 12.1 Q2.65 14.85 1.5 23.1 L0.45 23.55 -0.7 23.65 -0.65 15.4 -0.75 13.95 -0.6 12.6 Q-0.3 11.95 0.5 11.45 L1.85 10.55 2.55 11.35 Q2.85 12.0 3.25 12.1 M6.95 12.35 Q5.5 16.2 4.0 21.1 L3.6 22.6 Q3.25 23.4 2.55 23.4 2.3 22.85 2.55 21.65 L3.0 19.45 4.0 12.9 4.9 11.95 5.85 11.0 6.3 11.7 Q6.55 12.2 6.95 12.35 M11.9 11.45 L8.4 16.65 Q6.5 19.85 5.8 23.2 L5.1 23.1 Q4.65 23.05 4.55 23.25 5.1 19.65 7.85 12.6 8.7 12.6 9.9 11.65 10.8 10.95 11.9 11.45 M15.7 21.75 Q15.85 18.6 17.35 16.7 17.95 19.65 17.55 25.4 L17.0 34.8 16.5 34.7 Q16.1 34.65 16.05 34.9 L15.65 33.3 15.55 31.7 15.1 22.05 15.45 22.0 15.7 21.75 M11.9 31.15 Q11.55 32.85 11.55 36.05 L11.3 41.55 Q10.35 41.95 8.8 43.05 7.2 44.2 6.25 44.55 L6.3 39.25 Q6.3 35.65 6.45 34.1 7.45 33.8 9.15 32.55 10.75 31.4 11.9 31.15 M7.4 30.2 L7.35 28.75 9.25 29.2 11.3 29.55 Q10.75 30.15 9.4 30.75 7.9 31.35 7.45 31.75 L7.4 30.2 M6.3 28.5 L6.45 30.5 6.4 32.7 2.1 32.25 -2.15 32.2 -2.05 28.85 2.2 28.8 6.3 28.5 M5.2 44.6 L-0.1 44.9 Q-3.95 44.85 -5.4 44.95 L-8.9 45.45 -12.7 45.6 -12.9 40.25 -13.05 34.55 -6.3 34.2 -4.55 33.7 -3.25 33.75 -1.8 33.8 1.6 33.5 5.45 33.85 Q5.1 37.35 5.2 44.6 M41.3 32.55 L39.15 30.55 35.6 26.6 Q37.65 27.3 41.75 30.7 L42.7 31.3 Q43.2 31.65 43.15 32.25 43.1 32.5 42.3 32.55 L41.3 32.55 M37.2 34.05 L39.8 33.8 Q39.8 36.4 38.1 36.05 37.75 35.85 37.6 35.15 L37.2 34.05 M36.4 36.2 Q36.0 36.7 35.3 36.8 34.55 36.85 34.05 36.4 L33.95 33.75 34.1 33.95 35.35 34.15 36.7 34.0 Q36.4 34.25 36.5 35.0 L36.4 36.2 M37.85 37.25 L38.95 37.2 40.55 38.1 Q41.6 38.55 42.0 39.05 43.4 39.2 43.45 39.9 42.55 39.8 40.25 40.4 L36.65 40.8 Q36.0 40.7 35.0 40.2 L33.4 39.45 Q31.3 38.5 30.9 37.8 31.25 37.65 34.25 37.85 36.25 37.9 36.95 36.65 L37.85 37.25 M43.8 33.85 Q44.1 34.5 43.7 35.2 L43.0 36.2 Q42.0 36.3 41.45 35.5 L40.55 33.9 Q41.0 33.6 42.35 33.9 L43.8 33.85 M33.4 33.3 Q33.05 33.8 33.05 34.75 L33.15 36.45 31.0 36.15 28.55 35.95 29.45 32.6 30.5 29.0 Q31.3 29.65 32.1 31.05 L33.4 33.3 M40.0 43.6 L36.9 43.45 Q36.9 42.75 37.5 42.55 L38.55 42.25 Q41.15 41.15 43.55 41.0 L44.0 41.05 43.2 43.4 40.0 43.6 M34.65 42.55 L33.25 41.35 Q31.05 40.15 30.35 39.15 L33.3 40.7 36.1 42.35 36.0 42.85 36.0 43.7 34.65 42.55 M-20.3 -16.3 L-18.6 -16.35 -17.2 -15.1 -15.8 -15.05 Q-15.05 -15.05 -14.75 -14.7 -15.1 -14.2 -15.8 -14.35 L-16.9 -14.7 -17.65 -14.6 -18.45 -14.55 -23.2 -14.65 -22.2 -14.95 -21.05 -14.95 Q-20.25 -15.35 -20.3 -16.3 M-22.1 -6.15 Q-22.4 -10.35 -22.2 -13.35 -19.1 -13.65 -15.5 -13.35 L-14.85 -11.55 Q-14.5 -10.55 -14.65 -9.75 -14.7 -9.5 -15.7 -8.15 -16.3 -7.2 -15.7 -6.55 L-14.75 -6.75 -13.8 -6.9 Q-14.25 -5.85 -14.15 -3.3 -13.9 -0.25 -13.95 0.95 L-21.75 0.7 -22.1 -6.15 M-5.9 -17.95 L-5.5 -14.0 Q-5.3 -11.5 -5.75 -10.3 -6.1 -10.35 -6.25 -11.75 L-6.4 -14.8 Q-6.4 -16.85 -6.55 -17.7 -6.2 -17.75 -6.05 -18.15 L-5.9 -17.95 M-13.25 -8.55 L-11.55 -8.5 -9.9 -8.05 -8.6 -5.15 -7.8 -3.75 Q-7.4 -2.95 -7.45 -2.4 -8.55 -3.0 -10.2 -5.45 -11.7 -7.65 -13.25 -8.2 -13.5 -8.55 -13.25 -8.55 M-9.2 -9.05 Q-9.0 -10.2 -8.1 -9.65 L-6.15 -8.55 -5.85 -5.7 -5.5 -2.9 Q-5.45 -2.7 -5.85 -2.75 -6.2 -2.85 -6.2 -2.6 L-7.2 -4.55 Q-7.7 -5.8 -8.3 -6.35 -8.1 -6.9 -8.7 -7.7 -9.25 -8.55 -9.2 -9.05 M-2.45 -4.9 L-2.5 -3.75 Q-2.6 -3.0 -3.25 -3.0 -3.55 -3.15 -3.55 -3.75 L-3.4 -4.65 -3.2 -6.6 -2.9 -9.1 Q-2.1 -8.95 -1.2 -9.7 -0.35 -10.45 0.55 -10.15 -1.5 -8.25 -2.45 -4.9 M-3.8 -9.55 Q-4.45 -5.55 -4.45 -2.95 -4.8 -3.15 -4.8 -3.8 L-4.75 -5.1 -5.2 -8.35 Q-5.25 -9.95 -3.8 -9.55 M-6.25 -0.1 L-5.85 -1.35 -4.65 -0.95 -3.6 -0.45 -3.4 0.3 -3.05 0.65 Q-3.1 2.55 -4.65 2.55 -6.25 2.55 -6.45 1.0 L-6.25 -0.1 M-5.75 3.35 L-5.05 3.55 -4.15 3.5 -2.8 6.45 Q-2.05 8.3 -2.85 9.95 L-4.2 10.05 Q-5.2 10.85 -6.1 10.45 -6.4 9.05 -6.05 6.95 -5.65 4.45 -5.75 3.35 M-4.2 11.55 L-2.85 11.65 -1.5 12.35 -1.7 17.65 -1.8 23.7 -4.7 23.55 -6.15 13.1 -5.15 12.45 -4.2 11.55 M-13.25 3.3 L-14.3 3.55 -15.55 3.6 -16.55 4.3 -17.6 4.45 -18.5 3.5 Q-18.95 2.7 -19.45 2.7 L-16.35 2.5 -13.45 2.05 -13.25 3.3 M-17.3 12.35 L-15.15 17.85 Q-13.85 21.25 -13.25 23.55 L-14.55 23.4 -15.7 23.15 -17.05 19.0 Q-17.8 16.25 -18.45 15.0 L-19.45 13.5 -20.35 12.0 -20.65 11.95 -19.05 11.8 -17.3 12.35 M-14.55 10.5 L-13.25 11.9 Q-12.45 12.8 -11.7 13.05 L-8.7 23.7 -10.35 23.75 -12.05 23.7 Q-13.2 20.3 -16.25 12.6 -15.95 11.9 -14.55 10.5 M-8.95 11.1 Q-7.95 12.65 -7.05 13.0 L-6.35 18.3 Q-5.9 21.55 -5.8 23.65 -6.15 23.5 -6.65 23.65 L-7.6 23.65 -10.6 13.15 -9.75 12.05 -8.95 11.1 M-3.6 25.4 L-3.5 28.95 -3.2 32.1 -3.75 32.3 -4.45 32.3 -4.4 28.85 -4.05 25.35 -3.6 25.4 M-21.65 3.0 Q-22.75 3.0 -23.0 2.5 L-22.8 2.0 Q-22.7 1.9 -21.95 2.3 L-20.8 2.35 Q-20.6 2.95 -21.65 3.0 M-35.85 19.9 L-37.0 19.95 -38.0 19.85 -38.55 17.15 Q-37.35 16.1 -36.65 17.3 -36.25 18.05 -35.85 19.9 M-39.0 19.25 Q-38.6 20.5 -37.8 21.1 L-35.75 20.55 Q-35.35 21.85 -35.25 23.65 -36.8 24.15 -37.3 24.95 -36.9 25.5 -36.4 27.05 -35.85 28.5 -35.35 29.0 L-34.6 29.0 -34.1 28.8 -31.85 40.0 -32.15 41.05 Q-32.15 41.45 -31.55 41.45 L-32.9 41.65 -34.45 41.65 Q-36.0 36.95 -39.0 30.55 L-40.55 27.1 Q-42.1 25.35 -43.9 21.35 -45.95 16.95 -47.0 15.45 L-42.1 14.3 -36.9 13.65 -36.7 14.65 -36.6 15.8 Q-38.35 15.5 -39.45 16.75 L-39.0 19.25 M-36.15 25.3 Q-35.2 24.0 -34.8 25.35 L-34.3 27.9 -34.8 28.05 Q-35.25 27.7 -35.55 26.75 L-36.15 25.3 M-20.5 30.15 L-18.7 29.8 Q-17.65 29.55 -17.1 29.1 -16.5 29.4 -16.35 30.6 L-16.1 32.55 -17.3 32.1 Q-18.25 31.5 -18.5 31.4 L-19.85 31.1 -19.9 30.95 -20.0 30.75 -20.35 30.6 -20.5 30.15 M-22.35 31.2 Q-20.7 31.35 -18.35 32.85 -15.8 34.5 -14.3 34.8 L-14.05 45.3 -17.65 43.5 Q-20.05 42.2 -21.3 41.6 L-21.85 36.45 -22.35 31.2 M-36.6 41.65 L-37.55 41.55 Q-37.75 40.25 -38.6 38.65 L-40.15 36.0 -42.25 32.7 -43.6 30.3 Q-44.35 28.95 -45.25 28.05 L-49.25 24.3 Q-47.85 20.85 -47.2 17.5 -47.0 17.5 -46.9 17.6 L-46.75 17.7 Q-44.9 21.7 -40.75 29.15 -37.15 36.05 -35.7 41.55 L-36.6 41.65 M-6.15 32.5 L-10.5 32.6 -15.05 32.8 -15.7 29.05 -6.2 29.35 -6.15 32.5" fill="none" stroke="#152242" stroke-linecap="butt" stroke-linejoin="miter" stroke-width="0.5"/>
    <path d="M-41.35 -29.55 Q-36.95 -37.45 -31.6 -44.65 -30.9 -43.7 -30.65 -42.05 L-30.35 -39.1 -29.25 -23.95 -29.3 -21.0 -28.9 -15.95 -28.55 -11.7" fill="none" stroke="#152242" stroke-linecap="butt" stroke-linejoin="miter" stroke-width="0.5"/>
    <path d="M-28.55 -11.7 L-28.5 -11.7 -28.5 -11.3 -28.55 -11.7" fill="none" stroke="#152242" stroke-linecap="round" stroke-linejoin="miter" stroke-width="0.5"/>
    <path d="M-28.55 -11.7 L-28.65 -11.5 -26.75 14.1 Q-25.6 30.2 -24.65 39.55 L-30.85 40.3 -33.45 26.2 -34.35 19.25 Q-34.95 15.25 -35.7 12.4 -35.65 11.1 -36.0 9.25 L-36.65 6.2 -37.8 -2.1 -39.0 -10.8 -39.35 -12.25 -39.3 -14.9 Q-39.45 -16.95 -40.45 -22.2 -41.25 -26.85 -41.35 -29.55" fill="none" stroke="#152242" stroke-linecap="round" stroke-linejoin="miter" stroke-width="0.5"/>
  </g>
</svg>
