<?xml version="1.0" encoding="UTF-8" standalone="no"?>
<svg xmlns:xlink="http://www.w3.org/1999/xlink" height="26.95px" width="129.35px" xmlns="http://www.w3.org/2000/svg">
  <g transform="matrix(1.0, 0.0, 0.0, 1.0, 0.0, 0.0)">
    <path d="M24.35 4.8 L23.05 4.75 Q22.0 6.8 21.0 10.85 L19.35 17.6 18.1 21.8 Q17.15 24.05 15.35 24.7 13.9 23.5 12.65 20.9 L10.5 16.75 Q9.7 17.65 8.65 20.0 7.65 22.4 6.8 23.25 4.75 23.75 4.15 21.7 L3.85 18.15 2.4 10.05 Q1.2 4.5 1.05 2.35 L0.3 1.4 Q-0.15 0.85 0.1 0.1 L2.4 0.2 4.7 0.85 Q5.55 3.95 6.0 8.35 L6.5 16.25 Q7.1 16.0 7.7 15.0 L8.7 13.6 7.95 13.15 Q7.45 12.9 7.6 12.45 8.35 11.85 10.35 11.9 12.3 11.9 13.3 12.4 13.35 12.9 13.0 13.25 L12.35 13.75 Q12.75 14.9 13.85 16.9 L15.35 20.0 Q17.45 10.4 20.2 1.75 26.35 2.5 25.5 4.9 L24.35 4.8" fill="#ffffff" fill-rule="evenodd" stroke="none"/>
    <path d="M78.15 7.65 Q78.9 8.9 79.0 12.5 79.3 19.0 78.95 25.95 L77.8 25.9 76.9 25.55 Q76.5 22.8 76.95 19.8 L70.35 20.35 Q70.2 21.05 70.5 23.05 70.8 25.0 70.6 25.75 70.1 26.35 68.65 26.45 L67.85 18.55 67.2 10.05 68.85 9.7 Q69.45 11.0 69.7 13.85 L70.15 18.4 73.7 17.55 77.1 16.65 76.8 11.55 Q76.65 8.45 78.15 7.65" fill="#ffffff" fill-rule="evenodd" stroke="none"/>
    <path d="M104.55 5.9 L103.7 6.85 99.55 7.35 95.4 7.9 95.4 11.4 98.5 11.65 Q100.45 11.65 100.55 13.0 100.1 13.8 98.4 13.8 L95.4 13.85 Q95.1 15.1 95.2 18.75 95.3 22.15 94.75 23.5 L93.0 23.6 Q92.4 22.05 92.6 18.75 L92.9 13.1 Q92.65 9.55 92.8 8.15 93.0 5.85 95.2 5.3 L100.2 4.7 Q103.0 4.55 105.15 4.7 105.05 5.3 104.55 5.9" fill="#ffffff" fill-rule="evenodd" stroke="none"/>
    <path d="M47.85 10.65 L47.15 11.95 44.7 11.55 42.15 11.3 40.8 24.6 39.65 24.8 38.55 24.65 Q38.25 22.65 38.8 18.15 L39.55 10.8 36.5 10.35 Q35.0 9.95 35.05 8.5 L38.8 8.6 43.4 9.25 46.15 9.5 Q47.55 9.75 47.85 10.65" fill="#ffffff" fill-rule="evenodd" stroke="none"/>
    <path d="M48.25 18.35 L52.5 13.15 49.7 12.9 Q48.1 12.25 49.1 10.8 50.3 11.0 53.15 10.85 55.65 10.95 56.4 12.4 L48.35 23.1 52.5 23.6 Q55.4 23.9 56.6 24.5 56.25 25.8 55.6 26.7 L49.15 25.85 Q45.15 25.55 44.3 23.95 45.55 21.45 48.25 18.35" fill="#ffffff" fill-rule="evenodd" stroke="none"/>
    <path d="M129.35 2.15 L126.05 10.0 Q124.05 14.75 122.15 17.4 120.55 17.35 119.35 15.9 L117.45 13.4 117.1 16.8 116.65 20.15 115.8 20.4 114.65 20.45 Q113.8 18.2 114.25 12.35 114.75 6.1 114.05 3.5 115.55 3.1 116.65 4.8 L118.15 7.7 Q120.1 11.1 121.7 12.95 122.95 11.3 124.2 7.9 125.7 3.75 126.35 2.55 L127.9 1.95 Q128.85 1.6 129.35 2.15" fill="#ffffff" fill-rule="evenodd" stroke="none"/>
    <path d="M61.05 18.7 L60.9 24.1 Q61.5 24.8 63.4 24.85 L65.85 25.1 Q66.2 26.8 63.55 26.95 L59.0 26.85 Q58.45 24.7 58.75 20.2 L59.25 13.25 60.75 13.6 61.05 18.7" fill="#ffffff" fill-rule="evenodd" stroke="none"/>
    <path d="M109.6 10.6 Q110.25 12.15 109.05 14.05 L106.8 14.55 Q105.4 14.75 104.7 14.1 104.65 15.7 105.65 16.8 106.65 17.9 108.05 17.95 108.75 18.0 109.8 17.35 110.7 16.8 111.35 17.0 112.7 17.85 111.75 19.35 110.95 20.55 109.65 21.1 105.3 21.65 103.1 18.45 101.05 15.5 102.15 11.6 102.7 9.7 104.35 8.9 L107.45 8.75 Q109.1 9.25 109.6 10.6 M104.45 11.75 L106.15 11.65 Q107.15 11.6 107.05 10.9 106.5 10.25 105.55 10.65 104.6 11.05 104.45 11.75" fill="#ffffff" fill-rule="evenodd" stroke="none"/>
    <path d="M26.45 11.75 Q26.65 13.3 25.85 17.55 25.1 21.2 25.8 22.8 27.35 21.9 28.55 18.5 30.05 14.1 30.6 13.25 32.15 13.1 32.65 14.85 L33.2 18.1 33.8 20.75 34.1 22.95 34.75 22.95 Q35.25 23.0 35.35 23.4 35.2 24.35 34.2 24.95 L32.7 25.25 Q31.55 25.0 31.25 22.05 31.15 18.75 30.85 17.8 L29.6 21.05 28.05 24.05 Q26.95 25.3 25.55 25.5 23.95 25.75 23.25 24.2 22.45 22.45 22.95 18.25 L23.95 11.4 25.2 11.35 Q25.9 11.35 26.45 11.75" fill="#ffffff" fill-rule="evenodd" stroke="none"/>
    <path d="M81.55 20.45 Q80.15 16.8 82.2 14.05 83.7 12.05 86.3 11.7 89.1 11.3 90.9 13.35 90.65 14.15 91.05 15.2 L91.65 17.05 Q91.8 19.4 90.3 21.45 88.7 23.6 86.55 23.8 83.0 24.15 81.55 20.45 M86.1 20.5 Q87.85 20.55 87.85 18.3 87.8 16.3 86.75 15.05 84.45 15.2 84.55 17.85 84.6 20.45 86.1 20.5" fill="#ffffff" fill-rule="evenodd" stroke="none"/>
  </g>
</svg>
