<?xml version="1.0" encoding="UTF-8" standalone="no"?>
<svg xmlns:xlink="http://www.w3.org/1999/xlink" height="121.55px" width="201.3px" xmlns="http://www.w3.org/2000/svg">
  <g transform="matrix(1.0, 0.0, 0.0, 1.0, 72.45, 76.05)">
    <path d="M35.15 -56.05 L128.85 -46.5 121.95 -14.4 78.55 -4.0 67.25 24.65 15.2 45.5 -23.0 45.5 -71.6 22.05 -72.45 1.25 -37.75 -21.35 -37.0 -30.75 Q-36.8 -40.95 -39.5 -44.75 -41.15 -47.1 -39.75 -52.1 -38.25 -57.25 -34.3 -62.35 -24.05 -75.4 -8.25 -76.0 6.4 -76.55 22.25 -66.35 30.15 -61.25 35.15 -56.05" fill="#000099" fill-opacity="0.0" fill-rule="evenodd" stroke="none"/>
    <path d="M42.65 -3.15 L67.8 12.25 -3.7 29.0 -60.15 12.25 -38.8 0.55 Q7.15 0.15 42.65 -3.15" fill="#999999" fill-rule="evenodd" stroke="none"/>
  </g>
</svg>
