<?xml version="1.0" encoding="UTF-8" standalone="no"?>
<svg xmlns:xlink="http://www.w3.org/1999/xlink" height="125.95px" width="115.0px" xmlns="http://www.w3.org/2000/svg">
  <g transform="matrix(1.0, 0.0, 0.0, 1.0, 63.25, 66.2)">
    <path d="M38.75 46.9 L19.75 52.0 Q8.5 55.05 1.45 57.65 L1.5 56.35 1.25 54.95 Q13.95 51.4 39.05 44.7 39.35 45.1 39.1 45.85 L38.75 46.9" fill="#778b13" fill-rule="evenodd" stroke="none"/>
    <path d="M0.95 57.55 L-7.85 56.6 -16.75 55.5 -41.7 52.65 -41.45 49.5 Q-18.7 51.85 0.6 54.55 L0.85 56.1 0.95 57.55" fill="#778b13" fill-rule="evenodd" stroke="none"/>
    <path d="M-46.9 46.2 L-49.55 45.7 -49.1 44.25 Q-48.9 43.3 -49.1 42.85 L-43.8 44.45 Q-40.45 45.55 -38.3 45.9 L-39.6 46.9 Q-40.4 47.55 -41.05 47.65 L-44.1 47.15 -46.9 46.2" fill="#152242" fill-rule="evenodd" stroke="none"/>
    <path d="M-47.1 47.0 L-49.75 46.55 -50.65 46.3 -50.4 45.4 Q-49.9 44.0 -49.9 43.45 L-49.9 43.25 -50.65 41.65 -48.95 42.0 -43.55 43.6 Q-40.15 44.8 -38.15 45.05 L-35.85 45.35 -37.85 46.6 -39.05 47.6 Q-40.1 48.4 -40.95 48.5 L-41.4 48.55 Q-42.6 48.55 -44.55 47.85 L-47.1 47.0 M-48.4 45.0 L-44.05 46.2 -41.4 46.8 -41.15 46.8 Q-40.65 46.7 -40.3 46.35 L-48.2 44.0 -48.4 45.0" fill="#715a4c" fill-rule="evenodd" stroke="none"/>
    <path d="M-25.35 -40.95 L-24.0 -35.7 Q-29.45 -32.05 -36.7 -27.4 -37.75 -30.7 -40.5 -36.65 -39.2 -37.3 -37.6 -38.65 L-35.0 -40.85 Q-32.8 -42.6 -27.15 -45.75 -26.2 -43.95 -25.35 -40.95 M-30.4 -40.95 L-31.7 -40.55 -33.15 -40.35 Q-33.25 -39.7 -32.4 -37.85 L-31.7 -36.1 -30.75 -34.9 -27.95 -36.15 -29.1 -38.65 Q-29.75 -40.2 -30.4 -40.95 M-36.7 -38.0 L-38.1 -37.0 Q-37.85 -36.55 -37.9 -35.9 -37.2 -35.3 -36.4 -33.8 L-35.0 -31.55 -33.8 -32.4 -32.6 -33.3 Q-33.95 -35.6 -35.1 -38.3 -35.8 -38.55 -36.7 -38.0" fill="#987f65" fill-rule="evenodd" stroke="none"/>
    <path d="M-26.15 -40.5 Q-26.8 -42.95 -27.55 -44.55 L-33.1 -41.2 -32.8 -41.2 -32.0 -41.4 -30.4 -41.85 -30.35 -41.85 -30.0 -41.8 -29.7 -41.5 Q-28.95 -40.6 -28.3 -39.0 L-26.8 -35.75 -27.65 -35.35 -30.45 -34.05 -30.8 -33.95 -31.1 -34.1 Q-31.9 -34.55 -32.45 -35.7 L-33.2 -37.45 Q-34.0 -39.4 -34.05 -40.1 L-34.0 -40.45 -34.0 -40.55 -35.6 -39.3 -35.55 -39.3 -34.45 -39.05 -34.3 -38.7 -31.85 -33.75 -31.65 -33.4 -31.8 -33.0 Q-32.1 -32.2 -33.45 -31.6 L-34.25 -31.15 -34.9 -30.0 -35.7 -31.0 -37.15 -33.35 -38.45 -35.35 -38.75 -35.6 -38.75 -36.0 -38.8 -36.3 -38.9 -36.6 -39.4 -36.3 Q-37.25 -31.75 -36.25 -28.75 L-25.0 -36.1 -26.15 -40.5 M-23.45 -35.0 Q-30.9 -30.05 -36.25 -26.65 L-37.2 -26.0 -37.55 -27.15 Q-38.65 -30.55 -41.3 -36.3 L-41.6 -37.05 -40.95 -37.4 Q-39.7 -38.05 -38.2 -39.35 -37.35 -40.05 -35.6 -41.5 -33.25 -43.35 -27.6 -46.5 -27.15 -46.7 -26.8 -46.95 L-26.35 -46.15 Q-25.35 -44.3 -24.5 -41.2 L-23.15 -36.0 -23.0 -35.35 -23.45 -35.0 M-30.9 -36.45 L-30.5 -35.85 -29.15 -36.55 -29.95 -38.45 -30.8 -40.05 -32.15 -39.5 -30.9 -36.45 M-37.1 -36.65 L-37.05 -36.3 -34.9 -32.9 -33.65 -33.4 -35.7 -37.5 -37.1 -36.65" fill="#715a4c" fill-rule="evenodd" stroke="none"/>
    <path d="M-22.0 -35.9 Q-18.45 -13.95 -16.0 4.45 L-15.05 12.15 Q-14.45 16.35 -14.3 20.3 L-14.2 27.3 Q-14.15 31.55 -13.75 34.5 -13.15 40.2 -13.4 45.55 -24.6 42.95 -32.05 40.55 -33.05 35.35 -34.25 26.1 -35.6 15.95 -36.3 11.85 L-39.85 -9.2 -41.25 -16.4 -41.6 -17.55 -42.05 -18.8 -42.25 -20.75 Q-42.3 -21.9 -42.5 -22.5 L-37.9 -25.8 -33.15 -28.95 Q-29.9 -31.0 -28.3 -32.1 L-26.0 -33.75 Q-24.65 -34.6 -23.45 -34.9 L-22.1 -36.05 -22.0 -35.9 M-33.7 -19.05 Q-32.65 -16.0 -32.5 -15.1 L-34.45 -14.4 -36.4 -13.7 Q-34.8 -10.45 -34.4 -8.0 L-31.0 -7.65 -27.6 -7.45 -25.2 -6.85 -23.15 -6.7 Q-22.4 -6.8 -21.75 -7.75 L-20.55 -9.1 -21.05 -12.35 Q-21.35 -14.4 -22.1 -15.4 L-23.8 -15.55 -25.45 -15.8 -25.95 -17.65 -26.1 -19.35 -26.9 -22.05 Q-27.2 -23.9 -27.7 -24.8 L-34.5 -22.7 Q-34.65 -21.45 -33.7 -19.05 M-30.85 -5.15 L-30.0 1.65 Q-33.0 2.25 -34.1 3.0 -33.4 6.15 -33.45 7.9 L-23.35 9.35 Q-22.95 8.6 -22.0 8.75 -21.65 8.1 -20.75 7.55 L-19.25 6.65 -19.4 4.05 Q-19.45 2.2 -19.8 1.1 L-23.05 0.35 Q-23.4 -3.3 -24.0 -5.75 L-27.65 -5.9 -30.85 -5.15 M-19.25 19.55 L-20.85 19.4 -22.6 19.2 -22.4 13.0 -30.2 12.45 -30.0 19.8 -32.8 21.6 Q-32.45 22.4 -32.35 24.3 L-31.95 27.2 -27.3 27.5 -22.4 27.95 -20.75 26.55 -19.05 25.2 -19.3 22.4 -19.25 19.55" fill="#987f65" fill-rule="evenodd" stroke="none"/>
    <path d="M-21.0 -36.5 L-20.9 -36.1 Q-17.0 -11.6 -14.9 4.3 L-13.95 12.0 Q-13.4 15.6 -13.2 20.25 L-13.05 27.3 -12.7 34.4 Q-12.2 38.5 -12.2 42.8 L-12.3 46.9 -13.6 46.65 Q-25.0 44.0 -32.45 41.6 L-33.05 41.35 -33.15 40.8 -35.3 26.3 Q-36.65 16.05 -37.35 12.05 L-40.95 -9.05 -42.25 -16.15 -42.65 -17.1 -43.15 -18.65 -43.35 -20.65 -43.55 -22.15 -43.7 -22.85 -43.25 -23.3 Q-41.5 -24.8 -38.45 -26.7 -34.7 -29.15 -33.8 -29.85 L-28.9 -33.0 -26.75 -34.5 -24.1 -35.8 Q-23.4 -36.65 -22.5 -37.05 L-22.4 -37.1 -22.35 -37.1 -22.1 -37.15 -21.45 -37.0 -21.0 -36.5 M-25.4 -32.8 L-27.7 -31.2 -32.5 -28.1 Q-33.7 -27.2 -37.05 -25.05 L-41.3 -22.05 -41.0 -19.05 -40.2 -16.75 Q-39.65 -14.8 -38.8 -9.4 L-35.2 11.65 -33.85 20.85 -33.3 20.6 -31.1 19.2 -31.25 12.45 -31.3 11.45 -28.9 11.35 -22.25 11.95 -21.35 12.1 -21.3 13.8 Q-21.3 16.2 -21.45 18.3 L-20.55 18.3 -18.7 18.6 -18.2 18.9 -18.2 22.8 -17.95 24.95 -17.8 25.7 -18.45 26.1 -21.7 28.8 -22.1 29.1 -22.6 29.0 -27.35 28.55 -32.1 28.25 -32.85 28.15 -32.9 27.9 -31.1 39.7 Q-24.15 41.95 -14.4 44.2 L-14.4 42.8 Q-14.4 38.6 -14.9 34.65 L-15.3 27.35 -15.4 20.35 Q-15.55 16.05 -16.1 12.3 L-17.05 4.6 Q-19.05 -10.65 -22.8 -34.0 L-22.8 -33.95 -23.15 -33.85 Q-24.1 -33.6 -25.4 -32.8 M-32.65 -19.2 L-31.45 -15.25 -31.25 -14.45 -32.05 -14.05 -34.9 -13.15 Q-33.85 -10.85 -33.45 -8.9 L-30.55 -8.8 -27.35 -8.55 -25.25 -8.0 -23.65 -7.8 -23.3 -7.8 -22.6 -8.35 -21.75 -9.5 -22.15 -12.25 Q-22.3 -13.65 -22.7 -14.4 L-25.7 -14.75 -26.4 -14.9 -26.5 -15.6 -26.95 -17.15 -27.2 -18.95 -27.2 -19.2 Q-27.65 -20.1 -27.95 -21.9 L-28.35 -23.45 -33.4 -21.9 -32.65 -19.2 M-34.8 -23.7 L-27.95 -25.85 -27.1 -26.05 -26.7 -25.25 Q-26.2 -24.25 -25.8 -22.3 -25.55 -20.65 -25.15 -19.85 L-24.9 -19.5 -25.0 -19.15 -25.0 -18.95 -24.55 -16.75 -21.9 -16.45 -21.5 -16.35 -21.25 -16.05 Q-20.25 -14.75 -19.95 -12.5 L-19.45 -9.45 -19.25 -8.7 -19.9 -8.2 -20.85 -7.1 Q-21.7 -5.9 -22.85 -5.65 -22.4 -3.6 -22.05 -0.5 L-19.7 0.0 -18.95 0.1 -18.7 0.8 Q-18.4 1.85 -18.3 4.0 L-18.2 6.5 -18.1 7.05 -18.5 7.45 -20.2 8.55 -21.0 9.2 -21.35 9.9 -22.15 9.8 -22.35 9.8 -22.4 9.85 -22.8 10.6 -23.6 10.4 -33.6 8.95 -34.6 8.8 -34.5 7.6 Q-34.5 6.15 -35.15 3.2 L-35.3 2.5 -34.7 2.1 Q-33.55 1.35 -31.2 0.8 L-31.9 -5.1 -31.95 -5.85 -30.05 -6.55 -32.3 -6.6 -34.65 -6.95 -35.4 -7.1 -35.5 -7.85 Q-35.75 -10.05 -37.35 -13.2 L-37.85 -14.2 Q-37.35 -14.4 -36.95 -14.65 L-33.8 -15.7 -34.7 -18.45 Q-35.6 -20.85 -35.6 -22.35 L-35.55 -23.5 -34.8 -23.7 M-26.25 -4.9 L-29.65 -4.4 -28.9 1.5 -28.75 2.45 -29.7 2.65 -32.85 3.55 Q-32.45 5.25 -32.4 6.95 L-23.8 8.15 -23.55 7.95 -22.55 7.6 -21.3 6.6 -20.4 6.15 -20.5 4.1 Q-20.5 3.05 -20.65 2.1 L-23.35 1.45 -24.05 1.25 -24.1 0.5 -24.9 -4.85 -26.25 -4.9 M-23.8 19.85 L-23.7 19.1 -23.45 13.9 -28.9 13.55 -29.1 13.55 -28.85 19.7 -28.8 20.4 -29.45 20.75 -31.55 22.05 Q-31.3 22.75 -31.2 24.25 L-31.05 26.25 -27.1 26.45 -22.7 26.75 -20.25 24.75 -20.4 22.8 -20.3 20.45 -21.25 20.45 -23.05 20.15 -23.8 19.85" fill="#715a4c" fill-rule="evenodd" stroke="none"/>
    <path d="M6.95 -30.6 Q0.75 -32.8 -9.4 -35.35 L-18.1 -36.65 -20.25 -36.85 -22.1 -37.3 Q-22.25 -36.35 -23.45 -36.05 -23.8 -38.1 -24.7 -41.05 L-26.3 -45.95 -20.2 -45.4 -14.2 -44.6 -8.6 -42.95 -3.25 -41.25 Q-1.0 -40.6 1.85 -39.35 L6.75 -37.1 7.0 -33.9 6.95 -30.6" fill="#c5b384" fill-rule="evenodd" stroke="none"/>
    <path d="M2.2 -40.15 L7.1 -37.9 7.55 -37.7 7.6 -37.15 7.9 -32.5 7.8 -30.5 7.65 -29.4 6.65 -29.8 Q1.15 -31.75 -9.6 -34.5 -13.7 -35.5 -18.15 -35.8 L-21.65 -36.2 Q-22.3 -35.45 -23.2 -35.25 -23.7 -35.05 -24.15 -34.95 L-24.35 -35.9 Q-24.65 -37.9 -25.55 -40.75 L-27.15 -45.75 -27.55 -47.0 -26.2 -46.8 -20.15 -46.3 -13.95 -45.45 -8.3 -43.75 -3.0 -42.1 Q-0.65 -41.4 2.2 -40.15 M6.2 -32.5 L5.9 -36.5 Q-0.4 -39.55 -3.5 -40.45 L-8.85 -42.1 -14.4 -43.75 -19.65 -44.5 -25.05 -44.95 Q-23.2 -39.05 -22.9 -37.75 L-22.65 -38.6 -21.65 -38.05 -18.05 -37.5 Q-13.25 -37.2 -9.15 -36.15 -0.5 -34.1 6.15 -31.8 L6.2 -32.5" fill="#987f65" fill-rule="evenodd" stroke="none"/>
    <path d="M6.2 -30.35 L9.15 -29.15 12.25 -28.15 15.15 -26.85 Q15.55 -24.9 15.75 -21.15 16.0 -16.75 16.2 -15.2 15.65 -15.15 15.45 -15.5 L15.25 -16.4 14.9 -21.1 11.5 -22.0 7.85 -22.7 Q7.7 -21.1 7.9 -18.65 L8.1 -15.0 7.1 -15.0 6.3 -14.85 6.3 -10.65 Q7.0 -9.85 9.05 -9.0 L9.75 -8.55 10.75 -8.6 16.3 -9.1 16.45 -4.9 Q16.5 -1.85 16.75 -0.35 L16.1 -0.7 15.35 -0.75 15.2 -3.7 14.7 -6.7 12.1 -7.05 9.15 -6.8 9.25 -3.85 9.35 -0.65 6.95 -0.75 7.3 3.85 9.4 5.25 11.55 6.65 16.75 5.8 16.8 9.35 16.85 12.8 16.6 12.75 16.4 12.8 Q16.1 11.95 16.05 10.35 16.0 8.6 15.75 7.9 L10.55 8.2 10.85 13.55 9.25 13.65 9.1 15.8 Q8.85 17.15 9.05 17.9 L9.85 18.75 10.95 19.45 12.95 20.95 15.9 20.4 Q15.45 23.7 15.45 32.5 L13.2 31.25 Q11.85 30.45 10.65 30.55 10.25 26.75 10.2 25.0 L10.2 22.35 Q10.05 20.95 8.85 20.75 L3.45 20.9 -2.0 21.15 -1.05 21.0 -0.1 20.95 Q0.3 20.85 0.55 20.45 L1.05 20.0 Q0.8 19.15 1.05 17.8 L1.35 15.75 -0.95 14.55 -3.25 13.65 Q-3.2 10.9 -3.9 7.9 L-9.7 7.7 Q-10.4 8.2 -10.2 10.25 L-10.0 13.2 -11.2 13.35 -12.3 13.55 -11.8 19.8 Q-9.2 21.7 -3.55 21.25 L-3.75 21.6 -4.2 22.05 Q-4.3 22.55 -4.0 23.45 L-4.0 28.45 Q-3.8 30.85 -3.9 31.1 L-4.4 32.3 Q-4.75 32.95 -4.65 33.5 L-4.25 34.1 -3.75 34.7 -3.65 39.3 -3.65 43.7 -8.1 44.9 -12.75 45.9 Q-12.65 43.2 -13.0 38.55 L-13.6 30.95 -13.85 17.7 -14.45 12.45 -15.25 6.95 Q-16.65 -7.45 -18.6 -18.5 L-21.45 -36.35 Q-13.35 -36.4 -3.25 -33.0 L0.0 -32.2 3.3 -31.45 6.2 -30.35 M1.95 -24.4 L-0.2 -24.45 Q-0.2 -24.1 -0.4 -24.05 0.25 -22.75 0.25 -18.3 L2.25 -18.25 4.4 -18.3 4.55 -18.6 4.8 -18.7 4.95 -21.9 Q4.95 -24.0 4.1 -24.45 L1.95 -24.4 M-4.0 -20.5 L-4.2 -24.7 -8.45 -24.5 -12.4 -24.7 -12.3 -24.8 -12.6 -24.7 -12.65 -24.45 Q-12.9 -23.3 -12.35 -20.65 -11.9 -17.9 -12.1 -16.75 L-14.1 -16.65 -13.95 -14.4 -13.85 -12.05 Q-12.0 -10.45 -8.95 -9.45 L-8.85 -9.65 -8.65 -9.75 -4.3 -10.0 0.0 -10.2 -0.4 -12.9 -0.75 -15.5 -2.15 -16.1 -3.65 -16.75 -4.0 -20.5 M-3.55 -8.6 L-7.2 -8.15 -10.8 -7.45 -10.5 -2.65 Q-11.25 -2.5 -12.3 -1.8 -12.0 -1.0 -12.0 0.65 L-11.9 3.4 -11.05 3.55 -10.2 4.05 Q-7.9 5.1 -7.25 5.15 L-5.9 4.9 -4.3 4.55 -1.4 4.7 1.05 4.65 1.2 1.65 Q1.15 -0.2 0.6 -0.95 -1.1 -1.05 -2.35 -2.65 -2.3 -3.75 -2.6 -5.45 L-2.85 -8.0 Q-3.2 -8.05 -3.3 -8.2 L-3.55 -8.6 M5.45 -8.0 Q2.6 -7.75 1.45 -8.0 0.95 -6.3 1.9 -2.0 L4.0 -2.15 6.1 -2.25 6.05 -5.1 Q5.95 -7.0 5.45 -8.0 M4.8 15.35 L7.55 14.85 Q7.55 10.65 7.15 8.3 4.4 8.15 1.45 8.95 L2.1 15.3 4.8 15.35 M11.55 25.1 Q11.45 28.1 12.0 30.0 13.45 30.4 15.0 29.6 15.35 26.95 14.7 25.0 L11.55 25.1 M-11.15 28.55 Q-11.4 29.65 -11.15 32.3 L-10.7 36.3 Q-10.3 36.85 -8.95 36.8 L-6.7 36.9 Q-6.1 35.7 -6.4 33.15 L-6.8 28.9 Q-7.4 28.45 -8.85 28.5 L-11.15 28.55" fill="#c5b384" fill-rule="evenodd" stroke="none"/>
    <path d="M-3.55 -32.2 Q-13.1 -35.35 -20.45 -35.5 L-17.75 -18.65 Q-15.8 -7.6 -14.4 6.9 L-13.6 12.35 -13.0 17.65 -12.7 30.9 -12.2 37.65 Q-11.85 42.0 -11.85 44.35 L-11.85 44.85 -4.5 43.0 -4.5 41.75 -4.7 35.0 -4.95 34.7 -5.5 33.65 -5.55 33.55 -5.45 34.7 Q-5.55 36.45 -5.95 37.25 L-6.3 38.0 -7.05 37.75 -8.0 37.6 -9.3 37.65 Q-10.65 37.65 -11.4 36.85 L-11.55 36.6 -11.6 36.3 -12.15 29.95 -12.0 28.35 -11.85 27.6 -10.65 27.7 -8.45 27.6 Q-7.1 27.6 -6.35 28.2 L-5.95 28.4 -5.95 28.9 -5.55 33.2 -5.1 31.75 -4.75 30.9 -4.75 30.5 -4.9 28.5 -4.85 24.15 -4.9 23.5 -5.1 22.3 -5.1 22.2 -5.45 22.25 Q-10.05 22.1 -12.3 20.45 L-12.65 20.25 -12.65 19.85 -13.15 13.65 -13.2 13.05 -12.8 12.8 Q-12.2 12.45 -11.25 12.45 L-10.8 12.4 -11.15 9.35 Q-11.15 7.8 -10.25 7.0 L-9.95 6.75 -9.6 6.8 -3.8 7.05 -3.2 7.1 -3.0 7.7 Q-2.4 10.55 -2.4 12.95 -1.05 13.4 1.2 14.65 L0.5 8.25 1.25 8.1 6.6 7.4 7.9 7.45 8.05 8.15 8.4 13.05 8.9 12.85 10.0 12.45 9.65 8.3 9.6 7.7 10.15 7.4 10.85 7.2 8.95 5.9 6.7 4.5 6.45 4.25 6.35 3.9 6.05 -1.35 3.95 -1.2 2.0 -1.15 1.55 -1.1 Q2.05 -0.1 2.05 1.75 L1.9 5.35 1.25 5.5 -0.05 5.65 -3.75 5.4 -4.25 5.45 -5.65 5.7 -7.2 6.0 -7.3 6.0 -9.05 5.55 -11.4 4.35 -11.8 4.25 -11.85 4.25 -12.65 4.3 -12.75 3.5 -12.9 0.7 -13.1 -1.55 -13.45 -2.3 -12.65 -2.6 -11.45 -3.25 -11.75 -7.35 -11.8 -8.15 -9.25 -8.65 Q-12.4 -9.7 -14.45 -11.35 L-14.8 -11.65 -14.7 -12.75 -15.0 -16.25 -14.95 -17.25 Q-14.6 -17.4 -14.35 -17.5 L-12.9 -17.65 -12.9 -17.75 -13.2 -20.4 -13.6 -23.4 -13.5 -24.6 -13.5 -24.7 -13.25 -25.25 -12.8 -25.6 -11.6 -25.7 -11.5 -25.35 -10.1 -25.3 -4.85 -25.55 -3.4 -25.55 -3.35 -24.8 -3.1 -20.75 -2.85 -17.25 -1.95 -16.95 Q-0.85 -16.65 -0.25 -16.2 L0.0 -16.0 0.15 -15.7 0.45 -13.0 0.8 -10.4 1.2 -9.2 -2.95 -9.25 -2.7 -8.85 -2.6 -8.8 -1.95 -8.65 -1.95 -7.8 -1.7 -5.6 Q-1.4 -4.0 -1.4 -2.95 -0.5 -1.9 0.7 -1.85 L1.05 -1.8 1.05 -1.85 Q0.4 -4.7 0.4 -6.45 0.4 -7.5 0.65 -8.25 L0.85 -8.95 1.6 -8.85 2.95 -8.75 6.0 -8.85 6.25 -8.3 Q6.8 -7.1 6.9 -5.1 L6.95 -2.3 7.0 -1.7 8.1 -1.8 8.5 -1.8 8.25 -5.95 8.3 -7.6 9.5 -7.75 8.55 -8.25 Q6.6 -9.05 5.65 -10.15 L5.4 -10.4 5.4 -15.5 6.05 -15.65 7.1 -15.9 7.25 -15.85 6.9 -20.95 7.1 -23.7 8.1 -23.55 11.45 -22.9 14.85 -22.05 14.4 -26.3 11.75 -27.4 8.85 -28.35 3.0 -30.6 -0.2 -31.35 -3.55 -32.2 M9.45 -29.95 L12.5 -28.95 15.6 -27.6 15.95 -27.4 16.0 -27.0 Q16.45 -24.9 16.6 -21.15 L17.05 -15.3 17.15 -14.4 16.3 -14.3 16.05 -14.3 Q15.55 -14.3 15.15 -14.55 14.75 -14.85 14.6 -15.25 L14.4 -16.3 Q14.2 -17.45 14.1 -20.5 L8.65 -21.65 8.65 -20.95 9.0 -15.45 8.95 -14.1 8.1 -14.05 8.05 -14.05 7.15 -14.1 7.15 -11.05 Q7.65 -10.6 9.5 -9.75 L9.95 -9.5 10.0 -9.4 10.65 -9.5 16.3 -9.95 17.1 -10.0 17.15 -9.2 17.3 -4.9 Q17.35 -1.85 17.6 -0.5 L17.8 0.8 16.5 0.5 15.8 0.15 15.6 0.05 14.6 0.35 14.5 -0.7 Q14.35 -4.35 14.0 -6.0 L12.35 -6.15 10.0 -6.0 10.0 -5.95 10.25 -1.2 10.2 -0.65 10.2 0.8 8.95 0.1 8.1 -0.1 7.85 -0.1 8.1 3.35 9.85 4.45 Q11.1 5.1 11.75 5.65 L16.6 4.95 17.65 4.8 17.55 14.5 16.5 13.65 16.4 13.65 15.8 13.7 15.6 13.1 Q15.25 12.15 15.2 10.75 L15.0 8.7 13.6 8.65 11.45 8.8 11.7 12.7 11.6 14.85 10.5 14.3 10.2 14.25 10.0 15.9 9.85 17.15 9.9 17.65 9.95 17.75 11.5 18.8 13.15 20.05 15.75 19.55 16.9 19.4 16.75 20.5 Q16.3 24.15 16.3 28.95 L16.35 33.75 15.2 33.3 12.9 32.05 Q11.75 31.4 11.0 31.4 L10.7 31.4 9.85 31.5 9.3 25.05 9.35 22.95 9.2 21.9 Q9.05 21.7 8.7 21.6 L7.7 21.6 3.05 21.8 -1.75 22.0 -3.0 22.0 -3.35 22.35 -3.15 23.4 -3.15 28.4 -2.95 30.5 -3.0 31.25 -3.55 32.55 -3.75 33.2 -3.75 33.3 -3.7 33.35 -3.6 33.6 -3.0 34.25 -2.9 34.5 -2.9 34.8 -2.75 41.75 -2.85 44.35 -3.45 44.5 -12.6 46.75 -13.65 46.9 -13.6 44.35 Q-13.55 42.1 -13.95 37.8 L-14.45 30.95 -14.75 17.75 Q-14.8 15.95 -15.35 12.65 L-16.1 7.05 Q-17.7 -8.45 -19.45 -18.4 L-22.35 -36.25 -22.5 -37.2 -21.2 -37.2 Q-13.05 -37.2 -2.95 -33.85 L0.2 -33.05 3.5 -32.3 9.45 -29.95 M5.8 -18.35 L5.35 -18.0 5.45 -17.1 4.2 -17.5 3.6 -17.55 1.2 -17.25 -0.15 -17.5 -0.65 -17.75 -0.75 -21.3 Q-0.95 -23.2 -1.2 -23.65 L-1.75 -24.75 -1.15 -24.85 -1.2 -25.2 0.5 -25.35 3.0 -25.25 3.95 -25.3 4.25 -25.35 4.55 -25.2 Q5.35 -24.7 5.55 -23.7 L5.8 -21.95 5.7 -19.35 5.8 -18.35 M3.0 -23.5 L0.65 -23.6 1.0 -21.5 1.1 -18.95 1.2 -18.95 3.6 -19.3 3.9 -19.25 4.0 -21.95 3.9 -23.3 3.8 -23.55 3.0 -23.5 M-5.0 -23.8 L-7.5 -23.65 -10.1 -23.55 -11.85 -23.65 -11.85 -23.4 -11.5 -20.75 Q-11.15 -18.75 -11.15 -17.75 L-11.25 -16.6 -11.35 -15.85 -13.2 -15.9 -12.95 -12.75 -13.0 -12.4 Q-11.45 -11.25 -9.25 -10.5 L-8.7 -10.6 -8.45 -10.6 -4.95 -10.8 -1.2 -11.1 -1.1 -11.1 -1.55 -14.9 -2.5 -15.3 Q-3.65 -15.6 -4.2 -16.05 L-4.45 -16.25 -4.5 -16.6 Q-5.0 -19.25 -5.0 -23.8 M-3.95 -7.55 L-4.05 -7.65 -9.9 -6.7 -9.65 -2.75 -9.55 -1.95 -10.35 -1.8 -11.3 -1.35 Q-11.05 0.0 -11.1 2.6 L-10.55 2.85 -9.85 3.25 -8.35 3.95 -7.2 4.3 -6.15 4.05 -4.35 3.7 -3.75 3.7 -1.75 3.8 -0.05 3.9 0.25 3.9 0.3 1.75 Q0.4 0.65 0.05 -0.15 -1.9 -0.55 -3.0 -2.15 L-3.2 -2.35 -3.2 -2.95 Q-3.2 -4.5 -3.7 -7.4 L-3.95 -7.55 M2.95 -7.0 L2.15 -7.05 2.15 -6.45 Q2.15 -5.1 2.6 -3.0 L5.2 -3.05 4.9 -7.1 2.95 -7.0 M15.45 -7.4 L15.55 -7.1 15.5 -8.2 12.05 -7.9 12.35 -7.9 15.0 -7.55 15.45 -7.4 M15.8 6.75 L14.6 6.95 15.8 7.05 15.8 6.75 M3.45 14.55 L6.7 14.2 Q6.7 11.5 6.35 9.15 L2.4 9.6 2.95 14.55 3.45 14.55 M2.15 16.2 Q1.85 17.9 1.85 18.9 L1.9 19.8 2.0 20.15 7.7 19.85 9.0 19.9 Q10.2 20.05 10.8 21.1 L11.1 22.95 11.05 24.3 14.65 24.15 14.85 21.5 13.0 21.8 12.75 21.8 12.5 21.7 10.4 20.15 9.35 19.5 Q8.45 18.8 8.2 18.1 L8.1 17.15 8.25 15.65 7.7 15.75 3.45 16.3 2.15 16.2 M-4.15 13.05 Q-4.15 10.95 -4.65 8.75 L-9.25 8.6 -9.4 9.35 -9.05 12.65 -9.1 13.4 -9.2 13.9 -9.75 14.0 -11.05 14.2 -11.35 14.2 -10.95 19.3 Q-8.95 20.45 -5.45 20.45 L-3.65 20.35 -3.35 20.35 -3.1 20.5 -2.9 20.7 -2.45 20.4 -1.2 20.1 -0.6 20.15 -0.35 20.1 -0.15 19.95 0.15 19.65 0.05 18.9 Q0.05 17.8 0.4 16.2 L-1.65 15.15 Q-2.75 14.6 -3.45 14.5 L-4.15 14.35 -4.15 13.05 M13.45 25.95 L12.4 25.9 12.4 26.35 12.65 29.25 12.85 29.25 14.2 29.0 14.25 28.05 14.05 25.9 13.45 25.95 M14.6 31.1 L14.6 30.7 14.15 30.8 14.6 31.1 M-10.4 29.4 L-10.4 29.95 -9.85 35.8 -9.3 35.85 -8.0 35.8 -7.3 35.85 -7.2 34.7 -7.4 32.2 -7.7 29.4 -8.45 29.35 -10.4 29.4" fill="#987f65" fill-rule="evenodd" stroke="none"/>
    <path d="M-27.05 -60.75 L-18.4 -58.05 Q-18.35 -56.65 -18.85 -55.15 L-22.65 -56.25 Q-25.3 -56.85 -26.5 -57.35 L-26.75 -58.95 Q-26.85 -60.2 -27.05 -60.75" fill="#1d1311" fill-rule="evenodd" stroke="none"/>
    <path d="M-27.7 -61.45 L-26.9 -61.2 -18.3 -58.45 -17.95 -58.35 -17.95 -57.55 Q-17.95 -56.5 -18.4 -55.0 L-18.55 -54.6 -19.0 -54.75 -22.8 -55.8 -26.7 -56.95 -26.85 -57.0 -26.95 -57.2 -27.2 -58.95 Q-27.3 -60.2 -27.5 -60.65 L-27.7 -61.45 M-26.15 -57.65 L-22.65 -56.7 -19.1 -55.7 Q-18.85 -56.65 -18.85 -57.55 L-18.85 -57.7 -26.45 -60.1 -26.15 -57.65" fill="#715a4c" fill-rule="evenodd" stroke="none"/>
    <path d="M-27.85 -60.65 Q-27.5 -60.05 -27.35 -59.1 L-27.25 -57.45 -30.5 -56.6 -33.9 -55.85 -34.5 -57.35 -35.0 -58.7 -27.85 -60.65" fill="#1d1311" fill-rule="evenodd" stroke="none"/>
    <path d="M-35.5 -58.65 L-35.55 -59.05 -35.1 -59.1 Q-33.45 -59.45 -28.0 -61.1 L-27.7 -61.2 -27.55 -60.9 Q-27.05 -60.25 -26.95 -59.15 L-26.85 -57.45 -26.8 -57.1 -27.15 -57.05 -30.4 -56.25 Q-32.45 -55.6 -33.85 -55.45 L-34.2 -55.4 -34.3 -55.75 -34.9 -57.2 -35.5 -58.65 M-33.55 -56.35 L-30.65 -57.05 -27.7 -57.8 Q-27.8 -59.55 -28.05 -60.2 -32.4 -58.8 -34.45 -58.35 L-33.55 -56.35" fill="#715a4c" fill-rule="evenodd" stroke="none"/>
    <path d="M-26.3 -56.4 L-25.8 -52.55 -25.55 -49.4 -27.05 -49.3 -28.7 -49.3 Q-29.2 -49.2 -29.95 -48.55 -30.55 -47.95 -30.95 -48.0 -31.1 -49.3 -31.75 -51.3 L-32.6 -54.55 -33.05 -55.25 -29.65 -56.35 Q-27.6 -57.0 -26.3 -56.4" fill="#987f65" fill-rule="evenodd" stroke="none"/>
    <path d="M-25.25 -52.65 Q-25.4 -55.1 -25.65 -56.3 L-22.65 -55.65 -19.9 -54.85 Q-20.85 -51.55 -20.65 -48.55 L-24.7 -49.1 -25.25 -52.65" fill="#c5b384" fill-rule="evenodd" stroke="none"/>
    <path d="M-27.95 -47.65 Q-27.5 -47.35 -27.25 -46.25 L-32.5 -43.25 -35.3 -41.25 -37.95 -39.05 Q-39.5 -37.8 -40.8 -37.4 L-40.1 -38.15 -39.1 -38.65 -36.8 -40.6 -34.5 -42.75 -31.25 -45.05 -28.15 -47.55 Q-28.05 -47.5 -27.95 -47.65" fill="#534036" fill-rule="evenodd" stroke="none"/>
    <path d="M-49.95 -41.55 Q-49.05 -41.45 -48.3 -40.95 -46.1 -39.4 -44.85 -34.65 -43.45 -29.45 -45.5 -27.1 -45.75 -27.35 -45.6 -27.75 L-45.35 -28.5 Q-44.85 -32.3 -46.4 -35.85 -47.85 -39.3 -50.5 -40.85 L-51.65 -41.15 Q-51.0 -41.75 -49.95 -41.55" fill="#56979e" fill-rule="evenodd" stroke="none"/>
    <path d="M-30.85 -40.15 L-31.6 -39.8 Q-31.95 -39.5 -32.3 -39.5 L-31.6 -37.45 -30.75 -35.6 Q-29.65 -35.7 -28.8 -36.55 L-29.75 -38.45 -30.85 -40.15 M-29.1 -38.65 L-27.95 -36.15 -30.75 -34.9 -31.7 -36.1 -32.4 -37.85 Q-33.25 -39.7 -33.15 -40.35 L-31.7 -40.55 -30.4 -40.95 Q-29.75 -40.2 -29.1 -38.65" fill="#1d1311" fill-rule="evenodd" stroke="none"/>
    <path d="M-51.9 -40.5 Q-48.55 -39.75 -46.9 -35.25 -45.35 -31.0 -46.5 -27.2 -49.1 -27.45 -51.35 -30.1 L-51.9 -30.15 -52.45 -30.6 Q-53.4 -33.35 -53.65 -35.25 -54.05 -38.25 -53.0 -40.35 L-51.9 -40.5" fill="#95cfd7" fill-rule="evenodd" stroke="none"/>
    <path d="M-28.8 -36.55 Q-29.65 -35.7 -30.75 -35.6 L-31.6 -37.45 -32.3 -39.5 Q-31.95 -39.5 -31.6 -39.8 L-30.85 -40.15 -29.75 -38.45 -28.8 -36.55" fill="#ffffff" fill-rule="evenodd" stroke="none"/>
    <path d="M-36.55 -37.05 L-37.15 -36.55 -36.05 -34.55 Q-35.4 -33.35 -34.75 -32.75 L-33.65 -33.65 -34.7 -35.7 Q-35.2 -37.05 -35.95 -37.5 L-36.55 -37.05 M-36.7 -38.0 Q-35.8 -38.55 -35.1 -38.3 -33.95 -35.6 -32.6 -33.3 L-33.8 -32.4 -35.0 -31.55 -36.4 -33.8 Q-37.2 -35.3 -37.9 -35.9 -37.85 -36.55 -38.1 -37.0 L-36.7 -38.0" fill="#1d1311" fill-rule="evenodd" stroke="none"/>
    <path d="M-33.65 -33.65 L-34.75 -32.75 Q-35.4 -33.35 -36.05 -34.55 L-37.15 -36.55 -36.55 -37.05 -35.95 -37.5 Q-35.2 -37.05 -34.7 -35.7 L-33.65 -33.65" fill="#ffffff" fill-rule="evenodd" stroke="none"/>
    <path d="M-43.55 -33.65 L-42.65 -33.6 -41.8 -33.55 Q-40.2 -30.85 -38.9 -27.1 -39.45 -27.35 -39.75 -28.15 L-40.2 -29.6 Q-41.05 -31.7 -42.15 -32.75 L-43.45 -32.75 -43.55 -33.65" fill="#534036" fill-rule="evenodd" stroke="none"/>
    <path d="M-49.65 -26.95 Q-47.9 -25.8 -46.05 -26.1 -47.8 -24.85 -49.8 -26.15 L-53.1 -28.3 -54.55 -27.9 -55.75 -27.2 Q-56.15 -27.4 -56.25 -28.05 L-52.4 -29.15 -49.65 -26.95" fill="#534036" fill-rule="evenodd" stroke="none"/>
    <path d="M-30.4 -23.2 L-30.1 -21.3 -29.65 -19.65 -28.6 -19.9 -27.35 -20.2 -27.95 -23.5 -30.4 -23.2 M-34.5 -22.7 L-27.7 -24.8 Q-27.2 -23.9 -26.9 -22.05 L-26.1 -19.35 -25.95 -17.65 -25.45 -15.8 -23.8 -15.55 -22.1 -15.4 Q-21.35 -14.4 -21.05 -12.35 L-20.55 -9.1 -21.75 -7.75 Q-22.4 -6.8 -23.15 -6.7 L-25.2 -6.85 -27.6 -7.45 -31.0 -7.65 -34.4 -8.0 Q-34.8 -10.45 -36.4 -13.7 L-34.45 -14.4 -32.5 -15.1 Q-32.65 -16.0 -33.7 -19.05 -34.65 -21.45 -34.5 -22.7 M-30.65 -19.55 L-31.65 -22.95 -33.65 -22.3 -32.7 -19.15 -30.65 -19.55 M-31.25 -17.9 L-32.4 -17.8 -31.95 -16.15 -31.45 -14.55 Q-30.1 -14.0 -29.0 -14.0 L-29.55 -16.05 -30.1 -18.05 -31.25 -17.9 M-34.1 -10.95 L-33.35 -9.0 -23.7 -8.0 Q-23.85 -9.6 -24.5 -12.7 L-34.9 -13.0 -34.1 -10.95 M-28.05 -14.0 L-25.85 -14.0 -27.05 -18.8 -29.25 -18.4 -28.05 -14.0 M-23.8 -12.45 L-22.95 -8.6 Q-21.55 -8.9 -21.7 -10.8 L-22.3 -14.0 -22.9 -12.95 Q-23.25 -12.25 -23.8 -12.45" fill="#1d1311" fill-rule="evenodd" stroke="none"/>
    <path d="M-4.95 -19.35 L-7.15 -19.55 -6.9 -17.25 -6.45 -15.3 -4.4 -15.3 Q-4.75 -15.85 -4.8 -17.2 L-4.95 -19.35 M-5.25 -23.6 L-6.6 -23.65 -7.65 -23.6 Q-7.35 -22.15 -7.35 -20.9 L-6.35 -20.85 -4.95 -20.9 Q-5.05 -22.8 -5.25 -23.6 M-3.65 -16.75 L-2.15 -16.1 -0.75 -15.5 -0.4 -12.9 0.0 -10.2 -4.3 -10.0 -8.65 -9.75 -8.85 -9.65 -8.95 -9.45 Q-12.0 -10.45 -13.85 -12.05 L-13.95 -14.4 -14.1 -16.65 -12.1 -16.75 Q-11.9 -17.9 -12.35 -20.65 -12.9 -23.3 -12.65 -24.45 L-12.6 -24.7 -12.3 -24.8 -12.4 -24.7 -8.45 -24.5 -4.2 -24.7 -4.0 -20.5 -3.65 -16.75 M-5.15 -14.6 L-8.65 -14.1 -8.2 -10.4 -4.65 -10.5 -1.05 -10.75 Q-0.85 -11.55 -1.0 -12.8 L-1.25 -14.65 Q-2.95 -14.9 -5.15 -14.6 M-10.25 -23.8 L-11.55 -23.4 Q-11.35 -23.1 -11.3 -22.25 L-11.15 -20.9 -8.4 -20.8 Q-8.35 -21.9 -8.75 -23.6 L-10.25 -23.8 M-10.95 -19.45 L-10.35 -16.4 Q-9.7 -15.0 -7.8 -15.2 -7.85 -16.95 -8.2 -19.55 L-10.95 -19.45 M-9.4 -14.65 L-11.45 -15.35 Q-12.9 -15.65 -13.6 -16.0 L-13.15 -12.25 Q-11.1 -10.7 -8.95 -10.2 -8.9 -11.3 -9.4 -14.65" fill="#1d1311" fill-rule="evenodd" stroke="none"/>
    <path d="M2.0 -23.75 L0.55 -23.6 Q0.6 -22.0 1.05 -19.35 L3.8 -19.35 3.8 -21.7 3.6 -23.7 2.0 -23.75 M4.1 -24.45 Q4.95 -24.0 4.95 -21.9 L4.8 -18.7 4.55 -18.6 4.4 -18.3 2.25 -18.25 0.25 -18.3 Q0.25 -22.75 -0.4 -24.05 -0.2 -24.1 -0.2 -24.45 L1.95 -24.4 4.1 -24.45" fill="#1d1311" fill-rule="evenodd" stroke="none"/>
    <path d="M-8.75 -23.6 Q-8.35 -21.9 -8.4 -20.8 L-11.15 -20.9 -11.3 -22.25 Q-11.35 -23.1 -11.55 -23.4 L-10.25 -23.8 -8.75 -23.6" fill="#ffffff" fill-rule="evenodd" stroke="none"/>
    <path d="M3.6 -23.7 L3.8 -21.7 3.8 -19.35 1.05 -19.35 Q0.6 -22.0 0.55 -23.6 L2.0 -23.75 3.6 -23.7" fill="#ffffff" fill-rule="evenodd" stroke="none"/>
    <path d="M-4.95 -20.9 L-6.35 -20.85 -7.35 -20.9 Q-7.35 -22.15 -7.65 -23.6 L-6.6 -23.65 -5.25 -23.6 Q-5.05 -22.8 -4.95 -20.9" fill="#ffffff" fill-rule="evenodd" stroke="none"/>
    <path d="M-27.95 -23.5 L-27.35 -20.2 -28.6 -19.9 -29.65 -19.65 -30.1 -21.3 -30.4 -23.2 -27.95 -23.5" fill="#ffffff" fill-rule="evenodd" stroke="none"/>
    <path d="M-31.65 -22.95 L-30.65 -19.55 -32.7 -19.15 -33.65 -22.3 -31.65 -22.95" fill="#ffffff" fill-rule="evenodd" stroke="none"/>
    <path d="M11.75 -21.1 L12.85 -20.95 14.0 -20.7 Q14.35 -20.3 14.35 -18.5 L12.1 -18.8 12.1 -20.1 11.75 -21.1" fill="#ffffff" fill-rule="evenodd" stroke="none"/>
    <path d="M-8.2 -19.55 Q-7.85 -16.95 -7.8 -15.2 -9.7 -15.0 -10.35 -16.4 L-10.95 -19.45 -8.2 -19.55" fill="#ffffff" fill-rule="evenodd" stroke="none"/>
    <path d="M-4.4 -15.3 L-6.45 -15.3 -6.9 -17.25 -7.15 -19.55 -4.95 -19.35 -4.8 -17.2 Q-4.75 -15.85 -4.4 -15.3" fill="#ffffff" fill-rule="evenodd" stroke="none"/>
    <path d="M-27.05 -18.8 L-25.85 -14.0 -28.05 -14.0 -29.25 -18.4 -27.05 -18.8" fill="#ffffff" fill-rule="evenodd" stroke="none"/>
    <path d="M-30.1 -18.05 L-29.55 -16.05 -29.0 -14.0 Q-30.1 -14.0 -31.45 -14.55 L-31.95 -16.15 -32.4 -17.8 -31.25 -17.9 -30.1 -18.05" fill="#ffffff" fill-rule="evenodd" stroke="none"/>
    <path d="M8.7 -17.7 L10.95 -17.7 11.25 -13.8 Q9.4 -13.45 9.0 -14.75 L8.7 -17.7" fill="#ffffff" fill-rule="evenodd" stroke="none"/>
    <path d="M12.3 -17.4 L13.25 -17.3 14.2 -17.25 14.55 -14.35 12.5 -14.1 12.3 -17.4" fill="#ffffff" fill-rule="evenodd" stroke="none"/>
    <path d="M-13.6 -16.0 Q-12.9 -15.65 -11.45 -15.35 L-9.4 -14.65 Q-8.9 -11.3 -8.95 -10.2 -11.1 -10.7 -13.15 -12.25 L-13.6 -16.0" fill="#715a4c" fill-rule="evenodd" stroke="none"/>
    <path d="M-1.25 -14.65 L-1.0 -12.8 Q-0.85 -11.55 -1.05 -10.75 L-4.65 -10.5 -8.2 -10.4 -8.65 -14.1 -5.15 -14.6 Q-2.95 -14.9 -1.25 -14.65" fill="#715a4c" fill-rule="evenodd" stroke="none"/>
    <path d="M6.85 -14.35 L8.2 -13.8 9.45 -13.15 Q9.75 -11.6 9.7 -9.35 8.25 -9.9 6.95 -10.85 L6.9 -12.6 6.85 -14.35" fill="#715a4c" fill-rule="evenodd" stroke="none"/>
    <path d="M-22.3 -14.0 L-21.7 -10.8 Q-21.55 -8.9 -22.95 -8.6 L-23.8 -12.45 Q-23.25 -12.25 -22.9 -12.95 L-22.3 -14.0" fill="#1d1311" fill-rule="evenodd" stroke="none"/>
    <path d="M17.25 -13.5 L17.35 -11.8 17.25 -10.05 13.75 -9.8 10.55 -9.55 Q10.05 -11.9 10.45 -13.1 L13.8 -13.45 Q15.9 -13.75 17.25 -13.5" fill="#715a4c" fill-rule="evenodd" stroke="none"/>
    <path d="M-24.5 -12.7 Q-23.85 -9.6 -23.7 -8.0 L-33.35 -9.0 -34.1 -10.95 -34.9 -13.0 -24.5 -12.7" fill="#534036" fill-rule="evenodd" stroke="none"/>
    <path d="M-4.4 -6.5 Q-5.2 -6.8 -6.55 -6.5 -6.1 -5.95 -6.0 -4.55 L-4.3 -4.65 -4.4 -6.5 M-2.6 -5.45 Q-2.3 -3.75 -2.35 -2.65 -1.1 -1.05 0.6 -0.95 1.15 -0.2 1.2 1.65 L1.05 4.65 -1.4 4.7 -4.3 4.55 -5.9 4.9 -7.25 5.15 Q-7.9 5.1 -10.2 4.05 L-11.05 3.55 -11.9 3.4 -12.0 0.65 Q-12.0 -1.0 -12.3 -1.8 -11.25 -2.5 -10.5 -2.65 L-10.8 -7.45 -7.2 -8.15 -3.55 -8.6 -3.3 -8.2 Q-3.2 -8.05 -2.85 -8.0 L-2.6 -5.45 M-4.2 -3.2 L-5.9 -3.25 -5.8 -0.15 Q-4.35 -0.3 -3.75 -0.6 -4.05 -0.9 -4.05 -1.8 L-4.2 -3.2 M-0.1 0.05 L-3.45 0.2 Q-5.1 0.35 -6.35 0.8 L-6.5 2.5 -6.35 4.25 Q-3.4 3.25 0.0 3.75 L-0.1 0.05 M-9.8 -6.3 L-9.5 -4.2 -7.35 -4.3 -7.45 -6.5 -9.8 -6.3 M-10.95 -0.85 L-10.8 3.0 Q-8.95 3.95 -7.35 4.3 L-7.65 0.6 Q-9.4 -0.4 -10.95 -0.85 M-9.25 -2.9 L-8.95 -0.95 -7.05 -0.15 -7.25 -3.2 -9.25 -2.9" fill="#1d1311" fill-rule="evenodd" stroke="none"/>
    <path d="M2.0 -6.95 L2.3 -3.0 5.25 -3.1 4.95 -6.95 3.35 -7.1 2.0 -6.95 M5.45 -8.0 Q5.95 -7.0 6.05 -5.1 L6.1 -2.25 4.0 -2.15 1.9 -2.0 Q0.95 -6.3 1.45 -8.0 2.6 -7.75 5.45 -8.0" fill="#1d1311" fill-rule="evenodd" stroke="none"/>
    <path d="M4.95 -6.95 L5.25 -3.1 2.3 -3.0 2.0 -6.95 3.35 -7.1 4.95 -6.95" fill="#ffffff" fill-rule="evenodd" stroke="none"/>
    <path d="M-4.3 -4.65 L-6.0 -4.55 Q-6.1 -5.95 -6.55 -6.5 -5.2 -6.8 -4.4 -6.5 L-4.3 -4.65" fill="#ffffff" fill-rule="evenodd" stroke="none"/>
    <path d="M-7.45 -6.5 L-7.35 -4.3 -9.5 -4.2 -9.8 -6.3 -7.45 -6.5" fill="#ffffff" fill-rule="evenodd" stroke="none"/>
    <path d="M11.55 -6.4 Q12.0 -5.0 11.75 -3.8 L10.45 -3.9 10.3 -5.0 10.2 -6.3 11.55 -6.4" fill="#ffffff" fill-rule="evenodd" stroke="none"/>
    <path d="M12.5 -6.4 L14.1 -6.2 14.25 -5.05 14.45 -3.9 13.55 -3.75 12.6 -3.8 Q12.35 -5.15 12.5 -6.4" fill="#ffffff" fill-rule="evenodd" stroke="none"/>
    <path d="M-27.95 -4.65 L-28.95 -4.6 -29.9 -4.4 -29.85 -3.25 -29.55 -2.25 -28.55 -2.25 -27.6 -2.15 -27.75 -3.35 -27.95 -4.65 M-26.95 -4.85 L-26.4 -2.25 -24.6 -2.15 -24.8 -4.95 -26.95 -4.85 M-24.0 -5.75 Q-23.4 -3.3 -23.05 0.35 L-19.8 1.1 Q-19.45 2.2 -19.4 4.05 L-19.25 6.65 -20.75 7.55 Q-21.65 8.1 -22.0 8.75 -22.95 8.6 -23.35 9.35 L-33.45 7.9 Q-33.4 6.15 -34.1 3.0 -33.0 2.25 -30.0 1.65 L-30.85 -5.15 -27.65 -5.9 -24.0 -5.75 M-21.7 2.85 L-22.4 3.65 -22.25 5.55 Q-22.0 6.8 -22.1 7.25 -21.7 7.15 -21.05 6.65 -20.45 6.25 -20.0 6.15 -20.1 3.3 -20.8 2.15 L-21.7 2.85 M-25.45 2.9 L-24.0 3.0 -24.2 0.8 -24.4 -1.4 -25.2 -1.5 -26.3 -1.4 -25.45 2.9 M-23.6 4.25 L-33.05 3.4 Q-32.9 4.0 -32.9 5.3 L-32.5 6.95 -27.75 7.45 -23.05 8.0 -23.6 4.25 M-29.0 3.0 L-26.85 2.9 -27.5 -1.5 -28.45 -1.45 -29.55 -1.5 -29.3 0.75 -29.0 3.0" fill="#1d1311" fill-rule="evenodd" stroke="none"/>
    <path d="M20.5 -1.6 Q20.75 -3.6 21.75 -5.05 23.35 -3.75 22.5 -0.25 L21.75 -0.4 20.95 -0.35 Q20.9 0.1 21.2 0.6 L21.85 1.45 Q20.25 0.8 20.5 -1.6" fill="#95cfd7" fill-rule="evenodd" stroke="none"/>
    <path d="M-24.8 -4.95 L-24.6 -2.15 -26.4 -2.25 -26.95 -4.85 -24.8 -4.95" fill="#ffffff" fill-rule="evenodd" stroke="none"/>
    <path d="M-27.75 -3.35 L-27.6 -2.15 -28.55 -2.25 -29.55 -2.25 -29.85 -3.25 -29.9 -4.4 -28.95 -4.6 -27.95 -4.65 -27.75 -3.35" fill="#ffffff" fill-rule="evenodd" stroke="none"/>
    <path d="M-5.8 -0.15 L-5.9 -3.25 -4.2 -3.2 -4.05 -1.8 Q-4.05 -0.9 -3.75 -0.6 -4.35 -0.3 -5.8 -0.15" fill="#ffffff" fill-rule="evenodd" stroke="none"/>
    <path d="M-7.25 -3.2 L-7.05 -0.15 -8.95 -0.95 -9.25 -2.9 -7.25 -3.2" fill="#ffffff" fill-rule="evenodd" stroke="none"/>
    <path d="M14.45 -3.0 L14.7 0.7 12.85 0.9 Q13.05 0.5 12.9 -0.9 12.65 -2.5 12.75 -2.9 L14.45 -3.0" fill="#ffffff" fill-rule="evenodd" stroke="none"/>
    <path d="M10.45 -2.75 L11.1 -2.65 11.85 -2.75 12.0 -0.85 12.1 1.0 11.25 0.95 10.55 0.7 10.45 -2.75" fill="#ffffff" fill-rule="evenodd" stroke="none"/>
    <path d="M-29.55 -1.5 L-28.45 -1.45 -27.5 -1.5 -26.85 2.9 -29.0 3.0 -29.3 0.75 -29.55 -1.5" fill="#ffffff" fill-rule="evenodd" stroke="none"/>
    <path d="M-26.3 -1.4 L-25.2 -1.5 -24.4 -1.4 -24.2 0.8 -24.0 3.0 -25.45 2.9 -26.3 -1.4" fill="#ffffff" fill-rule="evenodd" stroke="none"/>
    <path d="M-10.95 -0.85 Q-9.4 -0.4 -7.65 0.6 L-7.35 4.3 Q-8.95 3.95 -10.8 3.0 L-10.95 -0.85" fill="#715a4c" fill-rule="evenodd" stroke="none"/>
    <path d="M7.55 -0.35 Q8.25 -0.1 9.25 0.6 L10.95 1.55 11.0 3.45 11.0 5.4 Q8.7 4.3 7.85 3.4 L7.55 -0.35" fill="#715a4c" fill-rule="evenodd" stroke="none"/>
    <path d="M-0.1 0.05 L0.0 3.75 Q-3.4 3.25 -6.35 4.25 L-6.5 2.5 -6.35 0.8 Q-5.1 0.35 -3.45 0.2 L-0.1 0.05" fill="#715a4c" fill-rule="evenodd" stroke="none"/>
    <path d="M-20.8 2.15 Q-20.1 3.3 -20.0 6.15 -20.45 6.25 -21.05 6.65 -21.7 7.15 -22.1 7.25 -22.0 6.8 -22.25 5.55 L-22.4 3.65 -21.7 2.85 -20.8 2.15" fill="#1d1311" fill-rule="evenodd" stroke="none"/>
    <path d="M-23.6 4.25 L-23.05 8.0 -27.75 7.45 -32.5 6.95 -32.9 5.3 Q-32.9 4.0 -33.05 3.4 L-23.6 4.25" fill="#534036" fill-rule="evenodd" stroke="none"/>
    <path d="M2.75 9.75 L2.9 11.95 3.05 14.05 5.0 14.15 Q6.05 13.95 6.65 13.55 L6.45 9.55 Q5.7 9.4 4.55 9.55 L2.75 9.75 M2.1 15.3 L1.45 8.95 Q4.4 8.15 7.15 8.3 7.55 10.65 7.55 14.85 L4.8 15.35 2.1 15.3" fill="#1d1311" fill-rule="evenodd" stroke="none"/>
    <path d="M13.8 8.4 L14.6 8.4 15.25 8.55 15.25 10.3 14.35 10.3 13.7 10.1 13.8 8.4" fill="#ffffff" fill-rule="evenodd" stroke="none"/>
    <path d="M13.05 8.55 L13.05 9.45 13.15 10.2 11.55 10.4 11.45 8.75 13.05 8.55" fill="#ffffff" fill-rule="evenodd" stroke="none"/>
    <path d="M-7.25 8.65 L-7.15 11.05 -9.25 11.15 -9.25 9.9 -9.4 8.75 -8.3 8.7 -7.25 8.65" fill="#ffffff" fill-rule="evenodd" stroke="none"/>
    <path d="M-4.4 11.15 L-5.9 11.05 -6.25 8.65 -4.5 8.85 -4.4 11.15" fill="#ffffff" fill-rule="evenodd" stroke="none"/>
    <path d="M6.45 9.55 L6.65 13.55 Q6.05 13.95 5.0 14.15 L3.05 14.05 2.9 11.95 2.75 9.75 4.55 9.55 Q5.7 9.4 6.45 9.55" fill="#ffffff" fill-rule="evenodd" stroke="none"/>
    <path d="M13.9 10.8 L14.65 10.95 15.35 11.05 15.55 14.45 14.35 14.65 13.9 10.8" fill="#ffffff" fill-rule="evenodd" stroke="none"/>
    <path d="M11.65 10.95 L13.15 10.95 13.6 14.55 12.65 14.35 11.85 14.05 11.7 12.35 Q11.5 11.5 11.65 10.95" fill="#ffffff" fill-rule="evenodd" stroke="none"/>
    <path d="M-7.05 12.15 L-6.8 15.4 -8.95 14.85 -9.15 12.15 -7.05 12.15" fill="#ffffff" fill-rule="evenodd" stroke="none"/>
    <path d="M-4.4 12.05 L-4.3 15.4 -5.6 15.4 -5.9 12.15 -5.15 12.1 -4.4 12.05" fill="#ffffff" fill-rule="evenodd" stroke="none"/>
    <path d="M-27.15 13.35 L-29.25 13.45 -29.3 15.2 -29.35 16.75 -28.1 16.75 -27.05 16.6 -27.0 14.7 Q-27.0 13.7 -27.15 13.35 M-26.3 13.35 L-26.1 16.45 Q-24.8 16.15 -23.15 16.45 L-23.1 15.0 Q-23.0 14.05 -23.15 13.65 L-26.3 13.35 M-27.05 17.4 L-29.35 17.4 -29.4 19.45 Q-29.25 20.85 -29.45 21.5 L-27.05 21.65 -27.05 17.4 M-26.1 17.15 L-25.95 19.7 -25.75 21.75 -23.45 21.75 -23.15 17.25 -24.6 17.1 -26.1 17.15 M-21.2 21.3 L-22.1 22.4 Q-21.7 23.45 -21.45 26.15 L-20.6 25.55 -19.9 24.7 Q-19.7 24.0 -19.9 22.6 L-20.2 20.3 -21.2 21.3 M-19.3 22.4 L-19.05 25.2 -20.75 26.55 -22.4 27.95 -27.3 27.5 -31.95 27.2 -32.35 24.3 Q-32.45 22.4 -32.8 21.6 L-30.0 19.8 -30.2 12.45 -22.4 13.0 -22.6 19.2 -20.85 19.4 -19.25 19.55 -19.3 22.4 M-22.5 26.95 L-22.95 22.4 -31.65 21.95 -31.45 26.6 -27.15 26.75 -22.5 26.95" fill="#1d1311" fill-rule="evenodd" stroke="none"/>
    <path d="M-40.3 12.45 Q-39.35 14.0 -38.9 16.85 L-38.45 21.95 Q-38.1 27.65 -38.1 39.05 L-37.9 40.4 Q-37.85 41.45 -38.3 41.6 -38.95 41.75 -39.05 40.9 L-39.1 39.2 -39.5 29.85 -39.85 20.4 Q-39.95 16.4 -40.8 12.8 L-40.55 12.6 -40.3 12.45" fill="#75c2c6" fill-rule="evenodd" stroke="none"/>
    <path d="M-23.15 13.65 Q-23.0 14.05 -23.1 15.0 L-23.15 16.45 Q-24.8 16.15 -26.1 16.45 L-26.3 13.35 -23.15 13.65" fill="#ffffff" fill-rule="evenodd" stroke="none"/>
    <path d="M-27.15 13.35 Q-27.0 13.7 -27.0 14.7 L-27.05 16.6 -28.1 16.75 -29.35 16.75 -29.3 15.2 -29.25 13.45 -27.15 13.35" fill="#ffffff" fill-rule="evenodd" stroke="none"/>
    <path d="M35.15 14.05 Q35.65 14.75 35.75 17.5 34.7 17.1 34.25 16.2 33.9 15.5 33.75 14.05 34.2 13.9 35.15 14.05" fill="#bb252e" fill-rule="evenodd" stroke="none"/>
    <path d="M-11.55 14.35 Q-10.5 14.6 -8.3 15.75 L-8.0 20.3 Q-9.85 20.2 -10.8 19.65 L-11.3 17.1 -11.55 14.35" fill="#715a4c" fill-rule="evenodd" stroke="none"/>
    <path d="M21.15 14.85 L21.4 14.85 Q20.95 17.0 19.55 19.1 L13.6 19.8 13.6 15.95 17.3 15.35 21.15 14.85" fill="#715a4c" fill-rule="evenodd" stroke="none"/>
    <path d="M25.1 14.85 Q26.3 17.9 24.4 18.25 L24.0 15.5 Q24.55 14.85 25.1 14.85" fill="#bb252e" fill-rule="evenodd" stroke="none"/>
    <path d="M-41.05 16.05 Q-40.8 16.15 -40.7 16.65 L-40.6 17.4 Q-44.3 22.25 -48.4 26.4 -48.85 25.7 -48.15 24.95 L-46.8 23.55 -45.1 21.45 -43.55 19.25 Q-41.75 17.3 -41.05 16.05" fill="#56979e" fill-rule="evenodd" stroke="none"/>
    <path d="M0.0 19.65 L-7.25 20.4 -7.45 18.25 -7.65 16.15 -3.9 16.35 0.25 16.15 0.25 17.9 0.0 19.65" fill="#715a4c" fill-rule="evenodd" stroke="none"/>
    <path d="M-23.15 17.25 L-23.45 21.75 -25.75 21.75 -25.95 19.7 -26.1 17.15 -24.6 17.1 -23.15 17.25" fill="#ffffff" fill-rule="evenodd" stroke="none"/>
    <path d="M34.2 17.15 L35.85 18.25 35.85 19.25 Q34.65 18.7 34.2 18.35 L34.2 17.15" fill="#ffffff" fill-rule="evenodd" stroke="none"/>
    <path d="M-27.05 17.4 L-27.05 21.65 -29.45 21.5 Q-29.25 20.85 -29.4 19.45 L-29.35 17.4 -27.05 17.4" fill="#ffffff" fill-rule="evenodd" stroke="none"/>
    <path d="M33.45 17.5 L33.55 18.25 32.85 18.35 32.1 18.45 32.0 17.8 32.7 17.65 33.45 17.5" fill="#715a4c" fill-rule="evenodd" stroke="none"/>
    <path d="M30.85 18.1 L30.85 18.75 28.1 19.35 27.95 18.85 27.9 18.35 29.45 18.0 30.85 18.1" fill="#715a4c" fill-rule="evenodd" stroke="none"/>
    <path d="M25.65 18.0 Q26.15 18.2 26.05 19.35 L24.85 20.1 Q24.55 19.95 24.55 18.75 L25.65 18.0" fill="#ffffff" fill-rule="evenodd" stroke="none"/>
    <path d="M27.15 18.45 L27.3 18.85 27.35 19.45 26.7 19.55 Q27.0 19.35 26.8 19.15 L26.6 18.55 27.15 18.45" fill="#ffffff" fill-rule="evenodd" stroke="none"/>
    <path d="M33.45 19.1 L33.35 22.7 Q32.75 22.3 32.3 21.4 L31.7 19.65 Q31.9 19.0 33.45 19.1" fill="#ffffff" fill-rule="evenodd" stroke="none"/>
    <path d="M34.2 19.2 L35.05 19.55 Q35.45 19.9 35.85 19.9 L35.95 22.3 35.05 21.7 34.3 20.95 34.2 19.2" fill="#bb252e" fill-rule="evenodd" stroke="none"/>
    <path d="M25.05 25.65 L24.85 20.85 Q24.95 20.6 25.4 20.45 L25.95 20.1 26.6 22.05 Q27.1 23.45 26.95 24.15 L26.2 25.05 25.05 25.65" fill="#bb252e" fill-rule="evenodd" stroke="none"/>
    <path d="M-20.2 20.3 L-19.9 22.6 Q-19.7 24.0 -19.9 24.7 L-20.6 25.55 -21.45 26.15 Q-21.7 23.45 -22.1 22.4 L-21.2 21.3 -20.2 20.3" fill="#1d1311" fill-rule="evenodd" stroke="none"/>
    <path d="M8.95 22.05 L9.6 28.25 9.8 29.4 9.9 30.55 9.6 31.6 9.85 32.2 10.2 32.85 10.3 34.7 Q10.2 36.05 10.45 36.65 L9.9 36.5 9.35 36.3 Q8.3 27.55 8.1 22.8 L3.45 22.65 -2.1 22.8 Q-2.3 24.45 -2.15 27.4 L-2.1 32.4 Q-2.85 32.35 -2.95 31.45 L-2.9 29.9 -3.35 21.95 2.75 22.05 8.95 22.05" fill="#534036" fill-rule="evenodd" stroke="none"/>
    <path d="M-22.95 22.4 L-22.5 26.95 -27.15 26.75 -31.45 26.6 -31.65 21.95 -22.95 22.4" fill="#534036" fill-rule="evenodd" stroke="none"/>
    <path d="M-48.4 30.1 L-49.55 27.6 -50.5 24.9 -50.45 24.75 -50.7 24.7 -50.55 24.25 -50.25 24.0 Q-49.4 25.15 -48.9 26.85 -48.3 28.7 -48.4 30.1" fill="#75c2c6" fill-rule="evenodd" stroke="none"/>
    <path d="M7.15 24.1 L7.45 26.75 7.55 29.6 5.45 29.6 5.25 26.8 5.15 24.1 6.1 24.05 7.15 24.1" fill="#ffffff" fill-rule="evenodd" stroke="none"/>
    <path d="M34.4 24.0 Q35.35 24.75 35.85 24.8 L35.85 25.85 35.05 25.0 34.4 24.0" fill="#ffffff" fill-rule="evenodd" stroke="none"/>
    <path d="M4.0 24.15 L4.35 29.15 4.7 34.5 3.5 34.05 2.75 24.1 4.0 24.15" fill="#534036" fill-rule="evenodd" stroke="none"/>
    <path d="M1.9 24.15 L2.1 29.8 -0.4 30.0 Q-0.45 27.15 -0.85 24.35 L1.9 24.15" fill="#ffffff" fill-rule="evenodd" stroke="none"/>
    <path d="M12.5 26.3 L12.85 29.35 13.3 29.25 13.8 29.15 13.8 26.15 12.5 26.3 M14.7 25.0 Q15.35 26.95 15.0 29.6 13.45 30.4 12.0 30.0 11.45 28.1 11.55 25.1 L14.7 25.0" fill="#1d1311" fill-rule="evenodd" stroke="none"/>
    <path d="M27.15 25.1 Q27.3 26.4 26.6 26.9 L25.05 27.6 25.05 26.3 26.2 25.75 Q26.8 25.2 27.15 25.1" fill="#ffffff" fill-rule="evenodd" stroke="none"/>
    <path d="M34.4 25.3 L35.15 26.0 35.75 26.65 35.6 27.2 Q35.45 27.85 35.6 29.7 34.6 29.35 34.5 27.95 L34.4 25.3" fill="#bb252e" fill-rule="evenodd" stroke="none"/>
    <path d="M13.8 26.15 L13.8 29.15 13.3 29.25 12.85 29.35 12.5 26.3 13.8 26.15" fill="#ffffff" fill-rule="evenodd" stroke="none"/>
    <path d="M-46.4 26.3 Q-44.45 27.45 -42.7 27.85 -43.8 32.85 -47.05 36.8 -49.6 39.8 -54.15 42.95 -54.35 44.45 -54.15 44.7 -55.7 46.05 -57.95 45.15 -60.15 44.25 -60.6 42.45 -56.05 41.35 -52.35 37.95 -48.85 34.7 -47.0 30.35 -46.75 29.75 -46.4 26.3" fill="#95cfd7" fill-rule="evenodd" stroke="none"/>
    <path d="M25.2 31.9 L25.1 30.2 25.1 28.25 26.05 27.7 27.05 27.2 Q27.6 28.8 27.05 30.15 26.5 31.6 25.2 31.9" fill="#bb252e" fill-rule="evenodd" stroke="none"/>
    <path d="M-10.2 29.6 L-9.7 35.75 Q-8.8 36.05 -7.45 35.75 L-7.8 29.5 -10.2 29.6 M-6.8 28.9 L-6.4 33.15 Q-6.1 35.7 -6.7 36.9 L-8.95 36.8 Q-10.3 36.85 -10.7 36.3 L-11.15 32.3 Q-11.4 29.65 -11.15 28.55 L-8.85 28.5 Q-7.4 28.45 -6.8 28.9" fill="#1d1311" fill-rule="evenodd" stroke="none"/>
    <path d="M-10.45 29.4 L-10.25 29.35 -9.25 29.35 -7.85 29.25 -7.55 29.25 -7.55 29.5 -7.25 35.75 -7.25 35.95 -7.4 36.0 -8.6 36.1 -9.75 36.0 -9.85 35.95 -9.9 35.75 -10.45 29.65 -10.45 29.4 M-11.0 28.8 L-11.05 29.95 -10.5 36.2 Q-10.1 36.55 -9.3 36.55 L-8.0 36.5 -6.85 36.6 Q-6.55 35.8 -6.55 34.7 L-6.8 31.95 -7.1 29.0 Q-7.55 28.7 -8.45 28.7 L-10.65 28.8 -11.0 28.8 M-6.6 28.9 L-6.35 31.8 -6.1 34.7 Q-6.1 36.15 -6.55 37.0 L-6.6 37.15 -6.8 37.1 -8.0 36.95 -9.3 37.0 Q-10.4 37.0 -10.85 36.4 L-10.95 36.35 -10.95 36.3 -11.5 29.95 -11.35 28.5 -11.3 28.3 -11.15 28.35 -8.45 28.25 Q-7.35 28.25 -6.7 28.7 L-6.6 28.8 -6.6 28.9 M-8.6 35.65 L-7.7 35.6 -8.0 29.75 -9.95 29.8 Q-9.75 31.35 -9.5 35.6 L-8.6 35.65" fill="#1d1311" fill-rule="evenodd" stroke="none"/>
    <path d="M-7.8 29.5 L-7.45 35.75 Q-8.8 36.05 -9.7 35.75 L-10.2 29.6 -7.8 29.5" fill="#ffffff" fill-rule="evenodd" stroke="none"/>
    <path d="M34.5 29.9 Q35.4 30.2 35.6 30.95 L35.7 32.85 Q34.95 32.5 34.55 31.65 34.2 30.75 34.5 29.9" fill="#bb252e" fill-rule="evenodd" stroke="none"/>
    <path d="M7.7 30.45 L6.7 30.7 5.55 30.75 5.5 30.55 5.45 30.45 6.55 30.2 7.7 30.45" fill="#534036" fill-rule="evenodd" stroke="none"/>
    <path d="M2.0 30.45 L2.2 30.85 -0.3 31.1 -0.3 30.55 2.0 30.45" fill="#534036" fill-rule="evenodd" stroke="none"/>
    <path d="M-42.5 30.75 Q-43.3 35.05 -46.6 38.8 -48.4 40.95 -53.1 44.7 -53.3 43.85 -52.75 43.2 L-51.45 42.0 -49.6 40.55 Q-48.65 39.8 -47.85 38.85 -44.3 34.65 -42.5 30.75" fill="#56979e" fill-rule="evenodd" stroke="none"/>
    <path d="M27.15 31.2 Q27.55 32.05 26.75 32.85 26.15 33.55 25.1 33.8 L25.2 33.0 Q25.15 32.5 25.4 32.2 L26.45 31.9 27.15 31.2" fill="#ffffff" fill-rule="evenodd" stroke="none"/>
    <path d="M7.75 31.4 Q7.7 33.1 8.2 35.85 L5.8 34.8 5.7 33.05 Q5.5 31.95 5.7 31.4 L6.75 31.25 7.75 31.4" fill="#ffffff" fill-rule="evenodd" stroke="none"/>
    <path d="M2.2 31.6 L2.4 33.7 0.0 33.05 -0.1 31.65 2.2 31.6" fill="#ffffff" fill-rule="evenodd" stroke="none"/>
    <path d="M11.25 31.75 Q13.2 32.25 15.3 33.75 L18.7 36.3 18.8 39.65 18.7 42.75 18.9 44.85 Q18.9 46.1 18.1 46.45 17.8 44.65 17.8 41.4 L17.7 36.1 14.35 34.0 Q12.2 32.85 11.25 31.75" fill="#ffffff" fill-rule="evenodd" stroke="none"/>
    <path d="M34.3 32.4 L35.7 33.8 35.6 35.15 34.85 34.7 34.2 34.15 34.3 32.4" fill="#ffffff" fill-rule="evenodd" stroke="none"/>
    <path d="M-3.75 32.6 Q5.7 36.05 10.85 38.4 L10.8 43.55 Q10.7 46.8 10.85 48.6 10.0 48.45 9.85 47.15 L9.8 44.95 9.8 38.85 8.15 38.15 6.2 37.55 Q0.3 35.2 -0.85 34.8 L-2.9 34.1 Q-4.1 33.6 -3.75 32.6" fill="#ffffff" fill-rule="evenodd" stroke="none"/>
    <path d="M27.15 33.25 Q27.85 38.5 25.4 38.85 L25.2 36.5 25.1 34.5 26.2 33.9 27.15 33.25" fill="#bb252e" fill-rule="evenodd" stroke="none"/>
    <path d="M49.05 33.35 Q50.95 33.8 51.0 34.7 51.05 35.7 49.5 36.35 48.0 37.0 46.7 36.65 L48.45 35.5 Q49.35 34.65 49.05 33.35" fill="#bb252e" fill-rule="evenodd" stroke="none"/>
    <path d="M34.2 35.0 L35.6 36.1 Q35.45 36.45 35.45 37.7 L35.35 39.3 Q34.6 38.9 34.0 38.15 L34.1 36.65 34.2 35.0" fill="#bb252e" fill-rule="evenodd" stroke="none"/>
    <path d="M-2.0 35.45 L-1.8 38.35 Q-1.6 39.9 -0.95 40.55 0.3 40.6 2.15 41.2 L5.05 42.0 Q5.2 43.25 4.95 45.15 L7.05 45.55 9.05 46.0 Q9.3 46.85 9.05 48.6 L3.35 47.25 -2.1 45.55 Q-2.2 38.55 -2.85 35.25 L-2.45 35.3 -2.0 35.45" fill="#987f65" fill-rule="evenodd" stroke="none"/>
    <path d="M-0.3 36.2 L2.75 37.1 2.95 38.6 Q1.0 38.8 0.0 38.6 L-0.2 37.55 -0.3 36.2" fill="#ffffff" fill-rule="evenodd" stroke="none"/>
    <path d="M3.7 37.65 L4.2 37.6 4.7 37.75 4.8 38.6 4.4 38.55 3.8 38.6 3.9 38.05 3.7 37.65" fill="#534036" fill-rule="evenodd" stroke="none"/>
    <path d="M15.9 37.85 L16.6 37.95 16.75 40.0 16.85 42.1 Q15.8 41.7 15.35 41.35 15.35 39.25 15.0 38.8 L15.65 38.55 Q16.0 38.35 15.9 37.85" fill="#534036" fill-rule="evenodd" stroke="none"/>
    <path d="M26.8 38.6 Q27.35 39.4 26.65 40.1 L25.4 41.0 Q25.15 40.8 25.15 40.35 L25.2 39.5 Q26.5 39.05 26.8 38.6" fill="#ffffff" fill-rule="evenodd" stroke="none"/>
    <path d="M11.65 38.85 L12.4 39.25 13.15 39.6 11.65 40.05 11.65 38.85" fill="#715a4c" fill-rule="evenodd" stroke="none"/>
    <path d="M-44.85 39.0 L-44.25 40.4 -43.85 42.0 Q-44.65 41.9 -45.05 40.7 -45.4 39.55 -44.85 39.0" fill="#75c2c6" fill-rule="evenodd" stroke="none"/>
    <path d="M9.15 39.4 L9.15 40.65 Q7.4 41.7 4.95 41.35 3.4 41.15 0.7 40.25 2.15 39.65 4.35 39.6 L8.4 39.5 Q8.35 39.15 8.65 39.25 L9.15 39.4" fill="#715a4c" fill-rule="evenodd" stroke="none"/>
    <path d="M13.9 40.15 L14.0 42.2 11.75 42.95 11.75 40.9 Q12.15 40.6 13.9 40.15" fill="#987f65" fill-rule="evenodd" stroke="none"/>
    <path d="M-45.85 40.35 Q-45.5 40.5 -45.5 41.0 L-46.05 40.8 -45.85 40.35" fill="#ffffff" fill-rule="evenodd" stroke="none"/>
    <path d="M26.6 44.95 L25.2 45.05 Q25.05 44.45 25.15 43.3 L25.2 41.7 25.95 41.2 26.7 40.8 Q27.0 41.35 26.75 42.7 L26.6 44.95" fill="#bb252e" fill-rule="evenodd" stroke="none"/>
    <path d="M33.65 40.9 L35.15 42.55 Q35.0 43.25 33.55 42.85 L33.65 40.9" fill="#bb252e" fill-rule="evenodd" stroke="none"/>
    <path d="M9.15 43.7 L7.5 44.1 5.7 44.4 5.8 43.4 5.7 42.3 8.95 41.35 9.2 42.4 9.15 43.7" fill="#987f65" fill-rule="evenodd" stroke="none"/>
    <path d="M16.95 43.7 L11.85 45.35 11.75 43.6 14.55 42.85 Q16.05 42.7 16.95 43.7" fill="#715a4c" fill-rule="evenodd" stroke="none"/>
    <path d="M-54.5 45.7 Q-55.3 46.95 -57.7 46.9 -60.1 46.85 -61.1 45.55 L-62.05 43.3 Q-61.85 42.85 -61.1 42.75 -60.45 44.55 -58.6 45.5 -56.55 46.6 -54.5 45.7" fill="#56979e" fill-rule="evenodd" stroke="none"/>
    <path d="M9.15 44.3 L9.15 45.45 8.2 45.25 7.05 44.95 Q7.7 44.5 9.15 44.3" fill="#ffffff" fill-rule="evenodd" stroke="none"/>
    <path d="M16.95 44.4 L17.05 46.45 14.65 47.5 12.0 48.3 12.0 47.25 11.85 46.1 16.95 44.4" fill="#987f65" fill-rule="evenodd" stroke="none"/>
    <path d="M-53.75 46.0 L-53.5 46.05 -53.2 46.1 -53.3 49.5 Q-53.75 49.15 -53.75 48.05 L-53.75 46.0" fill="#534036" fill-rule="evenodd" stroke="none"/>
    <path d="M-60.9 46.5 L-60.6 46.6 -60.7 49.2 -60.9 47.95 -60.9 46.5" fill="#534036" fill-rule="evenodd" stroke="none"/>
    <path d="M-0.65 -63.05 L-0.5 -62.35 Q-0.05 -61.9 0.95 -61.7 L2.75 -61.4 4.2 -63.85 5.45 -66.2 Q5.9 -66.25 6.0 -65.9 L6.3 -65.45 Q6.0 -63.75 4.5 -61.1 L7.9 -60.3 11.45 -59.55 Q11.4 -59.3 11.7 -59.0 12.0 -58.7 11.75 -58.45 L11.6 -58.25 Q11.35 -58.25 11.45 -58.05 L7.55 -58.8 3.8 -59.65 2.95 -58.15 2.2 -56.6 Q2.75 -56.25 3.1 -57.0 3.55 -57.7 3.05 -57.8 L3.4 -57.85 3.8 -57.8 4.2 -56.05 6.45 -55.55 Q6.85 -56.3 6.3 -56.3 L7.35 -56.0 7.95 -55.15 10.4 -54.4 Q11.85 -53.85 12.85 -53.65 L13.15 -52.75 Q12.1 -52.55 10.7 -53.1 L8.2 -53.65 8.1 -52.85 8.1 -51.9 Q7.4 -51.7 7.3 -51.9 6.65 -52.5 6.65 -54.0 6.2 -54.4 4.7 -54.65 4.55 -54.05 4.9 -52.85 5.25 -51.75 5.05 -51.15 L4.55 -51.15 3.9 -51.15 Q3.55 -51.85 3.35 -53.0 L2.95 -55.05 1.65 -55.45 Q0.6 -53.55 -0.55 -50.4 L-2.55 -45.15 3.55 -42.55 Q6.85 -40.9 8.5 -38.75 L8.9 -34.95 9.15 -30.7 14.45 -28.75 16.8 -32.55 19.25 -36.35 18.65 -38.25 Q18.3 -39.5 18.6 -40.25 19.2 -40.0 19.5 -38.9 L20.0 -37.4 Q20.85 -37.45 20.7 -39.0 20.45 -40.7 20.95 -40.95 L21.4 -40.25 21.6 -39.3 22.7 -40.4 22.45 -41.2 Q22.35 -41.7 22.7 -41.9 23.1 -41.95 23.2 -41.65 L23.35 -41.05 26.4 -43.75 Q27.75 -43.1 28.9 -41.45 L30.7 -38.55 Q31.1 -38.6 31.85 -39.0 L32.9 -39.3 33.35 -38.95 33.65 -38.65 Q33.65 -38.3 32.55 -38.0 31.25 -37.7 31.15 -37.5 31.45 -36.55 31.8 -36.15 L33.0 -36.1 34.1 -35.8 Q34.05 -35.2 33.35 -35.3 L32.1 -35.35 Q32.15 -34.95 32.35 -34.5 L32.7 -33.65 33.5 -33.65 Q34.0 -33.65 34.1 -33.4 L34.15 -33.2 34.1 -33.0 33.65 -32.75 32.9 -32.85 33.45 -30.7 35.7 -31.15 Q35.45 -30.2 33.65 -29.9 34.2 -28.15 33.85 -27.3 33.25 -27.45 33.05 -28.0 L32.9 -29.25 32.5 -29.3 31.9 -29.25 32.05 -30.0 Q32.15 -30.4 32.6 -30.5 L32.3 -31.7 32.0 -32.95 31.25 -32.9 Q30.7 -32.95 30.6 -33.2 30.65 -33.6 31.05 -33.7 L31.7 -33.75 31.05 -35.35 29.75 -35.25 Q29.45 -35.55 29.45 -36.25 L30.5 -36.35 30.45 -36.65 30.3 -37.2 29.35 -36.65 28.3 -36.45 Q27.9 -37.1 28.5 -37.5 L29.65 -38.0 Q28.3 -41.05 26.8 -42.55 L25.15 -41.15 23.8 -39.5 24.25 -38.3 Q24.45 -37.6 24.0 -37.4 23.65 -37.5 23.5 -38.0 L23.35 -38.85 22.65 -38.15 Q22.3 -37.6 21.95 -37.4 L22.25 -36.2 Q22.35 -35.45 22.05 -35.1 21.8 -35.1 21.7 -35.65 L21.25 -36.25 Q20.55 -36.1 20.55 -35.2 L20.3 -33.75 20.0 -33.95 19.75 -34.4 17.7 -31.35 15.55 -28.3 16.75 -27.6 Q17.3 -25.6 17.55 -21.55 17.8 -16.95 18.1 -15.2 18.3 -15.0 18.75 -14.75 L19.45 -14.45 19.7 -11.75 Q20.0 -9.95 19.9 -9.2 L19.1 -9.15 18.3 -8.9 18.15 -4.75 19.55 -6.25 Q20.5 -6.85 21.95 -6.7 23.5 -5.6 24.15 -3.9 24.9 -1.95 24.2 0.05 24.7 0.15 25.35 -0.6 L26.5 -1.5 28.1 -1.35 29.65 -0.75 29.55 -0.15 29.1 0.15 28.0 -0.2 27.05 -0.6 Q26.5 -0.55 25.45 0.7 24.45 1.75 23.45 1.55 23.2 1.65 23.2 1.95 L23.05 2.55 Q22.5 3.1 21.65 3.2 L20.1 2.9 Q19.75 3.8 20.2 5.9 20.0 6.15 19.35 6.25 L18.3 6.35 18.6 8.95 18.7 11.85 20.65 13.1 Q21.75 13.8 22.9 13.95 22.55 17.4 20.75 20.3 L17.35 20.75 Q17.95 27.15 17.6 33.7 L19.5 35.15 Q20.5 36.0 20.1 37.55 L22.05 38.05 24.2 38.4 24.55 38.5 24.55 28.55 24.15 21.95 Q23.8 18.1 22.9 15.4 23.65 13.4 25.75 13.45 26.5 13.75 26.8 14.95 L27.35 16.95 32.8 16.15 32.6 14.55 Q32.3 13.7 32.5 13.0 33.25 12.25 34.55 12.45 35.85 12.7 36.25 13.65 36.85 14.85 37.0 21.15 L36.9 24.3 Q36.8 26.1 37.15 26.95 37.35 27.6 40.3 29.8 43.45 32.25 47.45 32.85 L47.65 32.55 47.75 32.3 50.0 33.0 Q51.35 33.55 51.75 34.5 51.55 36.35 49.35 37.05 47.3 37.75 45.15 37.0 L40.6 34.5 38.75 33.15 37.0 31.9 36.75 36.75 36.4 41.2 38.55 41.45 Q40.15 41.65 40.8 42.1 41.0 43.6 40.7 45.65 40.35 47.65 39.65 48.95 31.2 51.05 14.9 55.9 L5.45 58.75 Q3.3 59.75 2.55 59.75 L1.35 59.45 -0.65 59.35 -2.85 59.2 -26.85 56.15 -38.6 54.95 -39.95 54.85 -41.25 54.65 -42.3 54.0 -43.1 53.3 Q-43.45 52.55 -43.1 50.95 -42.7 49.15 -42.8 48.5 L-46.8 47.45 -50.7 46.3 -50.9 44.6 Q-51.9 44.8 -51.9 47.15 -51.95 50.0 -52.3 50.6 L-53.5 50.75 -54.8 50.6 Q-55.5 49.85 -55.35 48.2 L-56.95 48.3 -58.6 48.4 -59.25 50.7 Q-60.4 51.05 -62.4 50.25 -62.6 49.45 -62.3 48.3 L-61.95 46.5 Q-62.0 46.05 -62.8 44.35 -63.45 42.95 -63.2 41.8 -59.95 41.15 -55.65 38.25 -53.95 37.15 -51.45 34.5 -49.7 32.75 -49.55 31.9 -49.4 31.15 -50.5 27.95 L-51.9 24.35 Q-51.45 23.5 -50.4 23.05 -49.15 22.55 -48.9 23.75 L-46.65 21.2 -44.4 18.55 -41.45 15.1 Q-41.35 14.5 -41.55 13.55 -41.75 12.65 -41.55 12.15 -40.1 11.75 -39.55 11.35 -38.75 11.65 -38.45 12.7 L-38.2 14.45 Q-36.95 22.0 -36.4 38.4 L-34.2 37.75 Q-36.55 19.05 -39.95 1.35 L-41.2 -4.5 -42.25 -10.2 -42.55 -12.6 Q-42.65 -14.05 -42.9 -15.0 L-43.9 -18.35 Q-44.45 -20.3 -44.4 -21.95 -44.3 -22.5 -44.85 -22.4 L-42.8 -24.2 -40.5 -25.9 Q-40.95 -27.55 -42.5 -31.15 -43.75 -27.45 -44.85 -25.2 L-46.65 -24.5 -48.5 -24.25 Q-48.95 -24.35 -50.5 -25.6 -54.65 -28.55 -56.0 -25.9 -58.0 -25.15 -59.3 -26.75 -60.3 -28.05 -60.6 -30.2 -59.6 -31.15 -58.4 -30.6 -57.35 -30.05 -56.9 -28.95 -56.1 -29.05 -55.15 -29.45 L-53.55 -30.2 Q-54.6 -33.05 -54.7 -36.3 -54.8 -40.15 -53.2 -41.9 -52.4 -42.8 -50.9 -42.95 -49.4 -43.1 -48.0 -42.45 -46.25 -41.65 -45.15 -39.2 L-43.35 -34.7 -41.9 -34.8 -42.2 -35.85 -42.7 -37.1 Q-42.55 -37.75 -41.8 -38.25 L-40.5 -39.05 -37.3 -42.0 -34.1 -44.95 Q-33.85 -45.1 -33.3 -45.4 L-32.6 -46.05 Q-32.8 -48.9 -34.2 -53.45 -35.3 -53.95 -35.85 -56.25 L-36.8 -59.2 -31.85 -61.0 Q-28.9 -62.05 -26.95 -62.15 -25.95 -62.2 -24.7 -61.65 L-22.4 -60.75 -19.55 -60.0 -16.95 -59.3 -16.5 -58.65 -15.9 -57.95 Q-15.6 -57.15 -16.25 -55.5 -16.8 -54.15 -17.45 -53.25 L-18.4 -53.25 Q-19.05 -50.3 -18.6 -48.35 L-9.15 -46.5 -9.5 -51.9 Q-9.85 -52.2 -10.75 -52.7 -11.5 -53.2 -11.65 -53.65 L-10.55 -53.55 -9.5 -53.35 Q-9.2 -53.4 -9.4 -54.1 -11.45 -54.85 -11.65 -55.75 L-9.4 -55.55 Q-9.15 -55.75 -9.15 -56.5 L-10.4 -57.25 Q-11.15 -57.7 -11.25 -58.35 -10.95 -58.6 -10.25 -58.35 L-9.05 -57.95 -8.7 -59.3 Q-8.45 -60.1 -8.5 -60.45 -7.65 -60.35 -7.4 -59.5 -7.15 -58.8 -7.35 -57.85 L-6.3 -57.35 -5.25 -56.8 -5.3 -56.6 -5.25 -56.3 -7.45 -56.2 Q-7.8 -56.0 -7.65 -55.45 L-6.45 -55.1 Q-5.7 -54.9 -5.5 -54.55 -5.65 -53.95 -6.35 -53.85 L-7.8 -53.9 Q-7.9 -53.2 -7.1 -53.05 L-5.8 -52.8 -5.6 -52.15 Q-5.75 -51.75 -6.45 -51.7 L-7.65 -51.7 Q-7.95 -50.9 -7.85 -49.3 L-7.55 -46.35 -6.0 -45.9 -4.2 -45.5 -2.15 -50.9 0.0 -56.05 -1.15 -57.15 0.55 -57.25 1.9 -59.95 -0.1 -60.65 -0.15 -60.0 -0.1 -59.3 -1.05 -59.3 -1.7 -61.2 -2.45 -61.25 -3.0 -61.0 -3.0 -59.2 -4.1 -59.3 Q-4.75 -61.95 -4.75 -64.65 L-4.05 -64.6 -3.25 -64.45 -3.1 -63.5 -2.9 -62.6 -2.2 -62.6 Q-1.85 -62.65 -1.6 -62.35 L-1.6 -63.6 -1.05 -63.6 Q-0.8 -63.55 -0.65 -63.05 M-3.25 -33.0 Q-13.35 -36.4 -21.45 -36.35 L-18.6 -18.5 Q-16.65 -7.45 -15.25 6.95 L-14.45 12.45 -13.85 17.7 -13.6 30.95 -13.0 38.55 Q-12.65 43.2 -12.75 45.9 L-8.1 44.9 -3.65 43.7 -3.65 39.3 -3.75 34.7 -4.25 34.1 -4.65 33.5 Q-4.75 32.95 -4.4 32.3 L-3.9 31.1 Q-3.8 30.85 -4.0 28.45 L-4.0 23.45 Q-4.3 22.55 -4.2 22.05 L-3.75 21.6 -3.55 21.25 Q-9.2 21.7 -11.8 19.8 L-12.3 13.55 -11.2 13.35 -10.0 13.2 -10.2 10.25 Q-10.4 8.2 -9.7 7.7 L-3.9 7.9 Q-3.2 10.9 -3.25 13.65 L-0.95 14.55 1.35 15.75 1.05 17.8 Q0.8 19.15 1.05 20.0 L0.55 20.45 Q0.3 20.85 -0.1 20.95 L-1.05 21.0 -2.0 21.15 3.45 20.9 8.85 20.75 Q10.05 20.95 10.2 22.35 L10.2 25.0 Q10.25 26.75 10.65 30.55 11.85 30.45 13.2 31.25 L15.45 32.5 Q15.45 23.7 15.9 20.4 L12.95 20.95 10.95 19.45 9.85 18.75 9.05 17.9 Q8.85 17.15 9.1 15.8 L9.25 13.65 10.85 13.55 10.55 8.2 15.75 7.9 Q16.0 8.6 16.05 10.35 16.1 11.95 16.4 12.8 L16.6 12.75 16.85 12.8 16.8 9.35 16.75 5.8 11.55 6.65 9.4 5.25 7.3 3.85 6.95 -0.75 9.35 -0.65 9.25 -3.85 9.15 -6.8 12.1 -7.05 14.7 -6.7 15.2 -3.7 15.35 -0.75 16.1 -0.7 16.75 -0.35 Q16.5 -1.85 16.45 -4.9 L16.3 -9.1 10.75 -8.6 9.75 -8.55 9.05 -9.0 Q7.0 -9.85 6.3 -10.65 L6.3 -14.85 7.1 -15.0 8.1 -15.0 7.9 -18.65 Q7.7 -21.1 7.85 -22.7 L11.5 -22.0 14.9 -21.1 15.25 -16.4 15.45 -15.5 Q15.65 -15.15 16.2 -15.2 16.0 -16.75 15.75 -21.15 15.55 -24.9 15.15 -26.85 L12.25 -28.15 9.15 -29.15 6.2 -30.35 3.3 -31.45 0.0 -32.2 -3.25 -33.0 M-3.25 -41.25 L-8.6 -42.95 -14.2 -44.6 -20.2 -45.4 -26.3 -45.95 -24.7 -41.05 Q-23.8 -38.1 -23.45 -36.05 -22.25 -36.35 -22.1 -37.3 L-20.25 -36.85 -18.1 -36.65 -9.4 -35.35 Q0.75 -32.8 6.95 -30.6 L7.0 -33.9 6.75 -37.1 1.85 -39.35 Q-1.0 -40.6 -3.25 -41.25 M-0.6 -41.8 L-3.55 -42.85 -7.8 -44.2 -12.15 -45.3 -16.4 -46.15 -19.7 -46.6 -27.05 -47.45 Q-26.95 -46.7 -26.25 -46.55 L-24.9 -46.5 -19.8 -46.05 -13.95 -45.25 -12.2 -44.5 1.55 -40.15 Q2.0 -40.15 1.65 -40.25 0.85 -41.15 -0.6 -41.8 M8.6 -18.9 L10.85 -18.8 10.55 -21.55 8.5 -21.85 Q8.4 -20.0 8.6 -18.9 M11.75 -21.1 L12.1 -20.1 12.1 -18.8 14.35 -18.5 Q14.35 -20.3 14.0 -20.7 L12.85 -20.95 11.75 -21.1 M13.25 -17.3 L12.3 -17.4 12.5 -14.1 14.55 -14.35 14.2 -17.25 13.25 -17.3 M8.7 -17.7 L9.0 -14.75 Q9.4 -13.45 11.25 -13.8 L10.95 -17.7 8.7 -17.7 M10.45 -13.1 Q10.05 -11.9 10.55 -9.55 L13.75 -9.8 17.25 -10.05 17.35 -11.8 17.25 -13.5 Q15.9 -13.75 13.8 -13.45 L10.45 -13.1 M6.95 -10.85 Q8.25 -9.9 9.7 -9.35 9.75 -11.6 9.45 -13.15 L8.2 -13.8 6.85 -14.35 6.9 -12.6 6.95 -10.85 M10.3 -5.0 L10.45 -3.9 11.75 -3.8 Q12.0 -5.0 11.55 -6.4 L10.2 -6.3 10.3 -5.0 M12.6 -3.8 L13.55 -3.75 14.45 -3.9 14.25 -5.05 14.1 -6.2 12.5 -6.4 Q12.35 -5.15 12.6 -3.8 M21.05 -5.85 Q19.4 -5.7 18.75 -2.9 18.1 -0.05 19.65 0.8 L19.6 1.1 19.55 1.45 20.95 1.9 20.65 1.45 20.1 0.8 Q19.5 -0.6 20.05 -2.7 20.55 -4.75 21.6 -5.6 L21.05 -5.85 M48.45 35.5 L46.7 36.65 Q48.0 37.0 49.5 36.35 51.05 35.7 51.0 34.7 50.95 33.8 49.05 33.35 49.35 34.65 48.45 35.5 M47.85 33.9 Q47.8 34.4 47.55 34.4 L47.75 33.9 Q47.25 34.1 46.05 34.85 44.95 35.55 44.15 35.75 L47.25 35.65 Q49.1 34.7 48.2 33.5 47.95 33.5 47.85 33.9 M47.0 33.5 Q44.05 33.0 41.45 31.35 L37.15 28.05 Q36.9 29.15 37.0 30.95 38.05 31.5 40.3 33.6 42.5 35.35 44.4 35.0 45.05 34.9 45.75 34.4 L47.0 33.5 M39.4 43.3 L36.6 42.75 Q36.25 44.0 34.2 43.85 32.1 43.75 32.8 41.9 L28.55 40.9 28.4 43.75 Q28.3 45.3 27.7 46.1 L25.85 46.0 Q24.7 45.9 24.3 45.25 24.45 41.15 24.65 40.05 L20.2 38.85 20.2 46.9 18.15 47.65 16.0 48.3 13.1 49.35 Q11.05 50.05 10.2 50.05 L8.15 49.55 5.7 48.7 3.3 48.1 -1.35 47.05 Q-3.75 46.3 -3.65 44.4 L-7.05 45.25 -10.5 46.1 -12.3 46.5 Q-13.25 46.55 -13.7 46.0 -25.5 43.5 -32.6 40.9 L-33.05 38.85 -34.65 39.4 -36.3 39.9 Q-35.95 41.7 -37.45 42.3 -38.95 42.9 -39.95 41.8 L-39.9 41.5 -39.85 41.3 -43.25 41.8 Q-42.7 42.3 -43.1 42.75 L-44.45 42.6 -45.35 42.0 Q-45.7 42.3 -46.6 42.45 L-48.0 42.65 -44.85 43.55 -41.55 44.5 Q-37.4 45.35 -37.15 46.1 L-38.8 47.1 Q-40.0 47.75 -40.2 48.4 L-40.8 48.5 -41.15 48.95 -36.35 49.4 -33.25 49.85 Q-33.2 49.4 -32.8 49.7 L-32.65 49.85 -32.5 49.85 -22.85 50.95 -13.6 52.0 -13.5 51.9 Q-13.4 52.1 -13.25 51.8 L-12.55 52.25 -5.8 53.15 1.05 53.9 3.4 53.75 11.75 51.4 15.55 50.6 20.65 49.0 26.05 47.75 29.1 46.7 34.1 45.45 38.75 44.2 Q38.65 43.9 38.95 43.7 L39.4 43.3 M39.05 44.7 Q13.95 51.4 1.25 54.95 L1.5 56.35 1.45 57.65 Q8.5 55.05 19.75 52.0 L38.75 46.9 39.1 45.85 Q39.35 45.1 39.05 44.7 M22.5 -0.25 Q23.35 -3.75 21.75 -5.05 20.75 -3.6 20.5 -1.6 20.25 0.8 21.85 1.45 L21.2 0.6 Q20.9 0.1 20.95 -0.35 L21.75 -0.4 22.5 -0.25 M16.5 4.85 Q16.5 4.5 16.85 4.55 17.1 4.5 17.15 4.75 L17.15 5.3 18.7 5.15 18.8 1.45 15.25 1.25 11.65 1.65 11.55 3.65 11.65 5.7 16.5 5.3 16.5 4.85 M24.0 15.5 L24.4 18.25 Q26.3 17.9 25.1 14.85 24.55 14.85 24.0 15.5 M17.3 15.35 L13.6 15.95 13.6 19.8 19.55 19.1 Q20.95 17.0 21.4 14.85 L21.15 14.85 17.3 15.35 M24.85 20.1 L26.05 19.35 Q26.15 18.2 25.65 18.0 L24.55 18.75 Q24.55 19.95 24.85 20.1 M24.85 20.85 L25.05 25.65 26.2 25.05 26.95 24.15 Q27.1 23.45 26.6 22.05 L25.95 20.1 25.4 20.45 Q24.95 20.6 24.85 20.85 M33.75 14.05 Q33.9 15.5 34.25 16.2 34.7 17.1 35.75 17.5 35.65 14.75 35.15 14.05 34.2 13.9 33.75 14.05 M30.85 18.1 L29.45 18.0 27.9 18.35 27.95 18.85 28.1 19.35 30.85 18.75 30.85 18.1 M30.6 19.45 L29.0 19.95 Q28.0 20.15 27.9 20.5 29.7 24.1 33.55 27.95 L33.5 26.05 33.45 24.15 Q31.35 21.25 30.95 19.55 L30.6 19.45 M26.7 19.55 L27.35 19.45 27.3 18.85 27.15 18.45 26.6 18.55 26.8 19.15 Q27.0 19.35 26.7 19.55 M35.85 18.25 L34.2 17.15 34.2 18.35 Q34.65 18.7 35.85 19.25 L35.85 18.25 M32.85 18.35 L33.55 18.25 33.45 17.5 32.7 17.65 32.0 17.8 32.1 18.45 32.85 18.35 M33.35 22.7 L31.7 19.65 32.3 21.4 Q32.75 22.3 33.35 22.7 M35.85 19.9 Q35.45 19.9 35.05 19.55 L34.2 19.2 34.3 20.95 35.05 21.7 35.95 22.3 35.85 19.9 M34.4 22.05 Q34.4 22.65 34.8 23.3 35.25 24.0 35.95 24.15 L35.95 23.55 35.95 23.15 35.05 22.6 34.4 22.05 M12.9 -0.9 Q13.05 0.5 12.85 0.9 L14.7 0.7 14.45 -3.0 12.75 -2.9 Q12.65 -2.5 12.9 -0.9 M11.85 -2.75 L11.1 -2.65 10.45 -2.75 10.55 0.7 11.25 0.95 12.1 1.0 12.0 -0.85 11.85 -2.75 M7.55 -0.35 L7.85 3.4 Q8.7 4.3 11.0 5.4 L11.0 3.45 10.95 1.55 9.25 0.6 Q8.25 -0.1 7.55 -0.35 M14.6 8.4 L13.8 8.4 13.7 10.1 14.35 10.3 15.25 10.3 15.25 8.55 14.6 8.4 M13.05 8.55 L11.45 8.75 11.55 10.4 13.15 10.2 13.05 9.45 13.05 8.55 M-4.3 15.4 L-4.4 12.05 -5.15 12.1 -5.9 12.15 -5.6 15.4 -4.3 15.4 M0.25 17.9 L0.25 16.15 -3.9 16.35 -7.65 16.15 -7.45 18.25 -7.25 20.4 0.0 19.65 0.25 17.9 M-3.35 21.95 L-2.9 29.9 -2.95 31.45 Q-2.85 32.35 -2.1 32.4 L-2.15 27.4 Q-2.3 24.45 -2.1 22.8 L3.45 22.65 8.1 22.8 Q8.3 27.55 9.35 36.3 L9.9 36.5 10.45 36.65 Q10.2 36.05 10.3 34.7 L10.2 32.85 9.85 32.2 9.6 31.6 9.9 30.55 9.8 29.4 9.6 28.25 8.95 22.05 2.75 22.05 -3.35 21.95 M14.65 10.95 L13.9 10.8 14.35 14.65 15.55 14.45 15.35 11.05 14.65 10.95 M11.7 12.35 L11.85 14.05 12.65 14.35 13.6 14.55 13.15 10.95 11.65 10.95 Q11.5 11.5 11.7 12.35 M11.4 14.95 L10.0 14.45 Q9.65 16.75 9.9 17.8 L11.45 19.15 Q12.35 19.95 13.15 20.0 12.9 19.45 12.95 17.75 L12.85 15.3 11.4 14.95 M-4.5 8.85 L-6.25 8.65 -5.9 11.05 -4.4 11.15 -4.5 8.85 M5.15 24.1 L5.25 26.8 5.45 29.6 7.55 29.6 7.45 26.75 7.15 24.1 6.1 24.05 5.15 24.1 M5.7 31.4 Q5.5 31.95 5.7 33.05 L5.8 34.8 8.2 35.85 Q7.7 33.1 7.75 31.4 L6.75 31.25 5.7 31.4 M5.45 30.45 L5.5 30.55 5.55 30.75 6.7 30.7 7.7 30.45 6.55 30.2 5.45 30.45 M11.25 31.75 Q12.2 32.85 14.35 34.0 L17.7 36.1 17.8 41.4 Q17.8 44.65 18.1 46.45 18.9 46.1 18.9 44.85 L18.7 42.75 18.8 39.65 18.7 36.3 15.3 33.75 Q13.2 32.25 11.25 31.75 M13.15 34.65 Q11.8 33.75 10.85 33.5 11.0 35.75 11.4 36.65 12.0 38.1 13.45 38.25 L15.15 37.95 15.35 36.2 13.15 34.65 M2.75 24.1 L3.5 34.05 4.7 34.5 4.35 29.15 4.0 24.15 2.75 24.1 M-2.85 35.25 Q-2.2 38.55 -2.1 45.55 L3.35 47.25 9.05 48.6 Q9.3 46.85 9.05 46.0 L7.05 45.55 4.95 45.15 Q5.2 43.25 5.05 42.0 L2.15 41.2 Q0.3 40.6 -0.95 40.55 -1.6 39.9 -1.8 38.35 L-2.0 35.45 -2.45 35.3 -2.85 35.25 M-0.85 34.8 Q0.3 35.2 6.2 37.55 L8.15 38.15 9.8 38.85 9.8 44.95 9.85 47.15 Q10.0 48.45 10.85 48.6 10.7 46.8 10.8 43.55 L10.85 38.4 Q5.7 36.05 -3.75 32.6 -4.1 33.6 -2.9 34.1 L-0.85 34.8 M2.2 30.85 L2.0 30.45 -0.3 30.55 -0.3 31.1 2.2 30.85 M-0.1 31.65 L0.0 33.05 2.4 33.7 2.2 31.6 -0.1 31.65 M-0.85 24.35 Q-0.45 27.15 -0.4 30.0 L2.1 29.8 1.9 24.15 -0.85 24.35 M3.7 37.65 L3.9 38.05 3.8 38.6 4.4 38.55 4.8 38.6 4.7 37.75 4.2 37.6 3.7 37.65 M2.75 37.1 L-0.3 36.2 -0.2 37.55 0.0 38.6 Q1.0 38.8 2.95 38.6 L2.75 37.1 M4.95 41.35 Q7.4 41.7 9.15 40.65 L9.15 39.4 8.65 39.25 Q8.35 39.15 8.4 39.5 L4.35 39.6 Q2.15 39.65 0.7 40.25 3.4 41.15 4.95 41.35 M15.0 38.8 Q15.35 39.25 15.35 41.35 15.8 41.7 16.85 42.1 L16.75 40.0 16.6 37.95 15.9 37.85 Q16.0 38.35 15.65 38.55 L15.0 38.8 M11.65 38.85 L11.65 40.05 13.15 39.6 12.4 39.25 11.65 38.85 M13.9 40.15 Q12.15 40.6 11.75 40.9 L11.75 42.95 14.0 42.2 13.9 40.15 M8.95 41.35 L5.7 42.3 5.8 43.4 5.7 44.4 7.5 44.1 9.15 43.7 9.2 42.4 8.95 41.35 M9.15 44.3 Q7.7 44.5 7.05 44.95 L8.2 45.25 9.15 45.45 9.15 44.3 M12.0 47.25 L12.0 48.3 14.65 47.5 17.05 46.45 16.95 44.4 11.85 46.1 12.0 47.25 M11.85 45.35 L16.95 43.7 Q16.05 42.7 14.55 42.85 L11.75 43.6 11.85 45.35 M35.85 25.85 L35.85 24.8 Q35.35 24.75 34.4 24.0 L35.05 25.0 35.85 25.85 M35.6 27.2 L35.75 26.65 35.15 26.0 34.4 25.3 34.5 27.95 Q34.6 29.35 35.6 29.7 35.45 27.85 35.6 27.2 M27.15 31.2 L26.45 31.9 25.4 32.2 Q25.15 32.5 25.2 33.0 L25.1 33.8 Q26.15 33.55 26.75 32.85 27.55 32.05 27.15 31.2 M35.6 30.95 Q35.4 30.2 34.5 29.9 34.2 30.75 34.55 31.65 34.95 32.5 35.7 32.85 L35.6 30.95 M35.6 35.15 L35.7 33.8 34.3 32.4 34.2 34.15 34.85 34.7 35.6 35.15 M34.2 35.0 L34.1 36.65 34.0 38.15 Q34.6 38.9 35.35 39.3 L35.45 37.7 Q35.45 36.45 35.6 36.1 L34.2 35.0 M27.05 27.2 L26.05 27.7 25.1 28.25 25.1 30.2 25.2 31.9 Q26.5 31.6 27.05 30.15 27.6 28.8 27.05 27.2 M25.05 26.3 L25.05 27.6 26.6 26.9 Q27.3 26.4 27.15 25.1 26.8 25.2 26.2 25.75 L25.05 26.3 M25.1 34.5 L25.2 36.5 25.4 38.85 Q27.85 38.5 27.15 33.25 L26.2 33.9 25.1 34.5 M25.2 41.7 L25.15 43.3 Q25.05 44.45 25.2 45.05 L26.6 44.95 26.75 42.7 Q27.0 41.35 26.7 40.8 L25.95 41.2 25.2 41.7 M25.4 41.0 L26.65 40.1 Q27.35 39.4 26.8 38.6 26.5 39.05 25.2 39.5 L25.15 40.35 Q25.15 40.8 25.4 41.0 M34.0 39.05 Q33.6 39.8 34.2 40.55 34.65 41.2 35.25 41.35 L35.3 40.85 35.35 39.8 34.6 39.55 34.0 39.05 M33.55 42.85 Q35.0 43.25 35.15 42.55 L33.65 40.9 33.55 42.85 M32.9 40.9 Q33.55 36.85 33.45 28.8 31.15 26.55 28.4 22.8 28.85 26.4 28.75 31.4 L28.65 39.8 32.9 40.9 M0.6 54.55 Q-18.7 51.85 -41.45 49.5 L-41.7 52.65 -16.75 55.5 -7.85 56.6 0.95 57.55 0.85 56.1 0.6 54.55 M-34.5 -57.35 L-33.9 -55.85 -30.5 -56.6 -27.25 -57.45 -27.35 -59.1 Q-27.5 -60.05 -27.85 -60.65 L-35.0 -58.7 -34.5 -57.35 M-26.75 -58.95 L-26.5 -57.35 Q-25.3 -56.85 -22.65 -56.25 L-18.85 -55.15 Q-18.35 -56.65 -18.4 -58.05 L-27.05 -60.75 Q-26.85 -60.2 -26.75 -58.95 M-29.65 -56.35 L-33.05 -55.25 -32.6 -54.55 -31.75 -51.3 Q-31.1 -49.3 -30.95 -48.0 -30.55 -47.95 -29.95 -48.55 -29.2 -49.2 -28.7 -49.3 L-27.05 -49.3 -25.55 -49.4 -25.8 -52.55 -26.3 -56.4 Q-27.6 -57.0 -29.65 -56.35 M-50.5 -40.85 Q-47.85 -39.3 -46.4 -35.85 -44.85 -32.3 -45.35 -28.5 L-45.6 -27.75 Q-45.75 -27.35 -45.5 -27.1 -43.45 -29.45 -44.85 -34.65 -46.1 -39.4 -48.3 -40.95 -49.05 -41.45 -49.95 -41.55 -51.0 -41.75 -51.65 -41.15 L-50.5 -40.85 M-53.0 -40.35 Q-54.05 -38.25 -53.65 -35.25 -53.4 -33.35 -52.45 -30.6 L-51.9 -30.15 -51.35 -30.1 Q-49.1 -27.45 -46.5 -27.2 -45.35 -31.0 -46.9 -35.25 -48.55 -39.75 -51.9 -40.5 L-53.0 -40.35 M-59.85 -29.7 Q-59.55 -28.05 -57.85 -26.35 L-57.2 -26.4 -56.55 -26.45 Q-56.75 -27.4 -57.55 -28.35 L-58.8 -30.0 -59.45 -30.0 -59.85 -29.7 M-49.8 -26.15 Q-47.8 -24.85 -46.05 -26.1 -47.9 -25.8 -49.65 -26.95 L-52.4 -29.15 -56.25 -28.05 Q-56.15 -27.4 -55.75 -27.2 L-54.55 -27.9 -53.1 -28.3 -49.8 -26.15 M-20.65 -48.55 Q-20.85 -51.55 -19.9 -54.85 L-22.65 -55.65 -25.65 -56.3 Q-25.4 -55.1 -25.25 -52.65 L-24.7 -49.1 -20.65 -48.55 M-25.35 -40.95 Q-26.2 -43.95 -27.15 -45.75 -32.8 -42.6 -35.0 -40.85 L-37.6 -38.65 Q-39.2 -37.3 -40.5 -36.65 -37.75 -30.7 -36.7 -27.4 -29.45 -32.05 -24.0 -35.7 L-25.35 -40.95 M-22.1 -36.05 L-23.45 -34.9 Q-24.65 -34.6 -26.0 -33.75 L-28.3 -32.1 Q-29.9 -31.0 -33.15 -28.95 L-37.9 -25.8 -42.5 -22.5 Q-42.3 -21.9 -42.25 -20.75 L-42.05 -18.8 -41.6 -17.55 -41.25 -16.4 -39.85 -9.2 -36.3 11.85 Q-35.6 15.95 -34.25 26.1 -33.05 35.35 -32.05 40.55 -24.6 42.95 -13.4 45.55 -13.15 40.2 -13.75 34.5 -14.15 31.55 -14.2 27.3 L-14.3 20.3 Q-14.45 16.35 -15.05 12.15 L-16.0 4.45 Q-18.45 -13.95 -22.0 -35.9 L-22.1 -36.05 M-31.25 -45.05 L-34.5 -42.75 -36.8 -40.6 -39.1 -38.65 -40.1 -38.15 -40.8 -37.4 Q-39.5 -37.8 -37.95 -39.05 L-35.3 -41.25 -32.5 -43.25 -27.25 -46.25 Q-27.5 -47.35 -27.95 -47.65 -28.05 -47.5 -28.15 -47.55 L-31.25 -45.05 M-42.15 -32.75 Q-41.05 -31.7 -40.2 -29.6 L-39.75 -28.15 Q-39.45 -27.35 -38.9 -27.1 -40.2 -30.85 -41.8 -33.55 L-42.65 -33.6 -43.55 -33.65 -43.45 -32.75 -42.15 -32.75 M-9.4 8.75 L-9.25 9.9 -9.25 11.15 -7.15 11.05 -7.25 8.65 -8.3 8.7 -9.4 8.75 M-9.15 12.15 L-8.95 14.85 -6.8 15.4 -7.05 12.15 -9.15 12.15 M-8.0 20.3 L-8.3 15.75 Q-10.5 14.6 -11.55 14.35 L-11.3 17.1 -10.8 19.65 Q-9.85 20.2 -8.0 20.3 M-40.8 12.8 Q-39.95 16.4 -39.85 20.4 L-39.5 29.85 -39.1 39.2 -39.05 40.9 Q-38.95 41.75 -38.3 41.6 -37.85 41.45 -37.9 40.4 L-38.1 39.05 Q-38.1 27.65 -38.45 21.95 L-38.9 16.85 Q-39.35 14.0 -40.3 12.45 L-40.55 12.6 -40.8 12.8 M-40.7 16.65 Q-40.8 16.15 -41.05 16.05 -41.75 17.3 -43.55 19.25 L-45.1 21.45 -46.8 23.55 -48.15 24.95 Q-48.85 25.7 -48.4 26.4 -44.2 22.1 -40.6 17.4 L-40.7 16.65 M-47.0 30.35 Q-48.85 34.7 -52.35 37.95 -56.05 41.35 -60.6 42.45 -60.15 44.25 -57.95 45.15 -55.7 46.05 -54.15 44.7 -54.35 44.45 -54.15 42.95 -49.6 39.8 -47.05 36.8 -43.8 32.85 -42.7 27.85 -44.45 27.45 -46.4 26.3 -46.75 29.75 -47.0 30.35 M-48.9 26.85 Q-49.4 25.15 -50.25 24.0 L-50.55 24.25 -50.7 24.7 -50.45 24.75 -50.5 24.9 -49.55 27.6 -48.4 30.1 Q-48.3 28.7 -48.9 26.85 M-41.5 32.55 Q-42.45 35.7 -44.2 38.4 L-43.55 40.45 -41.5 40.0 Q-40.4 39.7 -39.75 39.4 -40.25 23.6 -40.6 18.65 L-45.75 24.55 -43.45 25.45 -41.05 26.05 Q-40.55 29.0 -41.5 32.55 M-45.85 40.35 L-46.05 40.8 -45.5 41.0 Q-45.5 40.5 -45.85 40.35 M-44.25 40.4 L-44.85 39.0 Q-45.4 39.55 -45.05 40.7 -44.65 41.9 -43.85 42.0 L-44.25 40.4 M-47.85 38.85 Q-48.65 39.8 -49.6 40.55 L-51.45 42.0 -52.75 43.2 Q-53.3 43.85 -53.1 44.7 -48.4 40.95 -46.6 38.8 -43.3 35.05 -42.5 30.75 -44.3 34.65 -47.85 38.85 M-60.9 46.5 L-60.9 47.95 -60.7 49.2 -60.6 46.6 -60.9 46.5 M-61.1 45.55 Q-60.1 46.85 -57.7 46.9 -55.3 46.95 -54.5 45.7 -56.55 46.6 -58.6 45.5 -60.45 44.55 -61.1 42.75 -61.85 42.85 -62.05 43.3 L-61.1 45.55 M-53.5 46.05 L-53.75 46.0 -53.75 48.05 Q-53.75 49.15 -53.3 49.5 L-53.2 46.1 -53.5 46.05" fill="#1d1311" fill-rule="evenodd" stroke="none"/>
    <path d="M1.55 -40.15 L-12.2 -44.5 -13.95 -45.25 -19.8 -46.05 -24.9 -46.5 -26.25 -46.55 Q-26.95 -46.7 -27.05 -47.45 L-19.7 -46.6 -16.4 -46.15 -12.15 -45.3 -7.8 -44.2 -3.55 -42.85 -0.6 -41.8 Q0.85 -41.15 1.65 -40.25 2.0 -40.15 1.55 -40.15" fill="#534036" fill-rule="evenodd" stroke="none"/>
    <path d="M21.6 -5.6 Q20.55 -4.75 20.05 -2.7 19.5 -0.6 20.1 0.8 L20.65 1.45 20.95 1.9 19.55 1.45 19.6 1.1 19.65 0.8 Q18.1 -0.05 18.75 -2.9 19.4 -5.7 21.05 -5.85 L21.6 -5.6" fill="#56979e" fill-rule="evenodd" stroke="none"/>
    <path d="M10.0 14.45 L11.4 14.95 12.85 15.3 12.95 17.75 Q12.9 19.45 13.15 20.0 12.35 19.95 11.45 19.15 L9.9 17.8 Q9.65 16.75 10.0 14.45" fill="#715a4c" fill-rule="evenodd" stroke="none"/>
    <path d="M34.4 22.05 L35.05 22.6 35.95 23.15 35.95 23.55 35.95 24.15 Q35.25 24.0 34.8 23.3 34.4 22.65 34.4 22.05" fill="#ffffff" fill-rule="evenodd" stroke="none"/>
    <path d="M10.85 33.5 Q11.8 33.75 13.15 34.65 L15.35 36.2 15.15 37.95 13.45 38.25 Q12.0 38.1 11.4 36.65 11.0 35.75 10.85 33.5" fill="#c5b384" fill-rule="evenodd" stroke="none"/>
    <path d="M47.55 34.4 Q47.8 34.4 47.85 33.9 47.95 33.5 48.2 33.5 49.1 34.7 47.25 35.65 L44.15 35.75 Q44.95 35.55 46.05 34.85 47.25 34.1 47.75 33.9 L47.55 34.4" fill="#534036" fill-rule="evenodd" stroke="none"/>
    <path d="M38.75 44.2 L34.1 45.45 29.1 46.7 26.05 47.75 20.65 49.0 15.55 50.6 11.75 51.4 3.4 53.75 1.05 53.9 -5.8 53.15 -12.55 52.25 -13.25 51.8 Q-13.4 52.1 -13.5 51.9 L-13.6 52.0 -22.85 50.95 -32.5 49.85 -32.65 49.85 -32.8 49.7 Q-33.2 49.4 -33.25 49.85 L-36.35 49.4 -41.15 48.95 -40.8 48.5 -40.2 48.4 Q-40.0 47.75 -38.8 47.1 L-37.15 46.1 Q-37.4 45.35 -41.55 44.5 L-44.85 43.55 -48.0 42.65 -46.6 42.45 Q-45.7 42.3 -45.35 42.0 L-44.45 42.6 -43.1 42.75 Q-42.7 42.3 -43.25 41.8 L-39.85 41.3 -39.9 41.5 -39.95 41.8 Q-38.95 42.9 -37.45 42.3 -35.95 41.7 -36.3 39.9 L-34.65 39.4 -33.05 38.85 -32.6 40.9 Q-25.5 43.5 -13.7 46.0 -13.25 46.55 -12.3 46.5 L-10.5 46.1 -7.05 45.25 -3.65 44.4 Q-3.75 46.3 -1.35 47.05 L3.3 48.1 5.7 48.7 8.15 49.55 10.2 50.05 Q11.05 50.05 13.1 49.35 L16.0 48.3 18.15 47.65 20.2 46.9 20.2 38.85 24.65 40.05 Q24.45 41.15 24.3 45.25 24.7 45.9 25.85 46.0 L27.7 46.1 Q28.3 45.3 28.4 43.75 L28.55 40.9 32.8 41.9 Q32.1 43.75 34.2 43.85 36.25 44.0 36.6 42.75 L39.4 43.3 38.95 43.7 Q38.65 43.9 38.75 44.2 M-24.9 50.45 L-25.35 50.35 Q-26.55 49.9 -26.85 50.15 L-25.35 50.5 -24.9 50.45" fill="#b5ce42" fill-rule="evenodd" stroke="none"/>
    <path d="M34.0 39.05 L34.6 39.55 35.35 39.8 35.3 40.85 35.25 41.35 Q34.65 41.2 34.2 40.55 33.6 39.8 34.0 39.05" fill="#ffffff" fill-rule="evenodd" stroke="none"/>
    <path d="M-26.85 50.15 Q-26.55 49.9 -25.35 50.35 L-24.9 50.45 -25.35 50.5 -26.85 50.15" fill="#1d1311" fill-rule="evenodd" stroke="none"/>
    <path d="M-58.8 -30.0 L-57.55 -28.35 Q-56.75 -27.4 -56.55 -26.45 L-57.2 -26.4 -57.85 -26.35 Q-59.55 -28.05 -59.85 -29.7 L-59.45 -30.0 -58.8 -30.0" fill="#534036" fill-rule="evenodd" stroke="none"/>
    <path d="M8.5 -21.85 L10.55 -21.55 10.85 -18.8 8.6 -18.9 Q8.4 -20.0 8.5 -21.85" fill="#ffffff" fill-rule="evenodd" stroke="none"/>
    <path d="M18.7 5.15 L17.15 5.3 17.15 4.75 Q17.1 4.5 16.85 4.55 16.5 4.5 16.5 4.85 L16.5 5.3 11.65 5.7 11.55 3.65 11.65 1.65 15.25 1.25 18.8 1.45 18.7 5.15" fill="#715a4c" fill-rule="evenodd" stroke="none"/>
  </g>
</svg>
