<?xml version="1.0" encoding="UTF-8" standalone="no"?>
<svg xmlns:xlink="http://www.w3.org/1999/xlink" height="13.15px" width="15.85px" xmlns="http://www.w3.org/2000/svg">
  <g transform="matrix(1.0, 0.0, 0.0, 1.0, -0.05, -0.05)">
    <path d="M15.65 6.6 Q15.65 3.9 13.4 1.95 11.15 0.05 7.95 0.05 4.8 0.05 2.55 1.95 0.3 3.9 0.3 6.6 0.3 9.35 2.55 11.25 4.8 13.2 7.95 13.2 11.15 13.2 13.4 11.25 15.65 9.35 15.65 6.6" fill="url(#gradient0)" fill-rule="evenodd" stroke="none"/>
    <path d="M13.2 10.9 Q11.05 12.7 7.95 12.7 4.9 12.7 2.7 10.9 0.55 9.1 0.55 6.6 0.55 4.1 2.7 2.35 4.9 0.55 7.95 0.55 11.05 0.55 13.2 2.35 15.4 4.1 15.4 6.6 15.4 9.1 13.2 10.9 M15.9 6.6 Q15.9 3.9 13.55 1.95 11.25 0.05 7.95 0.05 4.7 0.05 2.35 1.95 0.05 3.9 0.05 6.6 0.05 9.35 2.35 11.25 4.7 13.2 7.95 13.2 11.25 13.2 13.55 11.25 15.9 9.35 15.9 6.6" fill="url(#gradient1)" fill-rule="evenodd" stroke="none"/>
  </g>
  <defs>
    <linearGradient gradientTransform="matrix(-0.0022, -0.0049, 0.0049, -0.0022, 7.65, 5.9)" gradientUnits="userSpaceOnUse" id="gradient0" spreadMethod="pad" x1="-819.2" x2="819.2">
      <stop offset="0.043137254901960784" stop-color="#f9cf17"/>
      <stop offset="0.4823529411764706" stop-color="#fef5b1"/>
      <stop offset="0.5411764705882353" stop-color="#fefac5"/>
      <stop offset="0.5764705882352941" stop-color="#fef8bd"/>
      <stop offset="0.6392156862745098" stop-color="#fdf2a6"/>
      <stop offset="0.6941176470588235" stop-color="#fcec8b"/>
      <stop offset="1.0" stop-color="#f9cf17"/>
    </linearGradient>
    <linearGradient gradientTransform="matrix(0.0, -0.008, 0.0081, 0.0, 7.95, 6.6)" gradientUnits="userSpaceOnUse" id="gradient1" spreadMethod="pad" x1="-819.2" x2="819.2">
      <stop offset="0.0" stop-color="#c59717"/>
      <stop offset="0.33725490196078434" stop-color="#d1a940"/>
      <stop offset="0.8588235294117647" stop-color="#fcec8b"/>
      <stop offset="1.0" stop-color="#fefac5"/>
    </linearGradient>
  </defs>
</svg>
