<?xml version="1.0" encoding="UTF-8" standalone="no"?>
<svg xmlns:xlink="http://www.w3.org/1999/xlink" height="35.65px" width="113.0px" xmlns="http://www.w3.org/2000/svg">
  <g transform="matrix(1.0, 0.0, 0.0, 1.0, 0.0, 0.0)">
    <path d="M5.95 6.1 L9.2 15.6 6.7 15.6 4.35 8.65 2.35 12.15 2.35 15.6 0.0 15.55 0.0 0.15 2.35 0.15 2.35 8.1 6.8 0.15 9.05 0.15 5.95 6.1" fill="#ffffff" fill-rule="evenodd" stroke="none"/>
    <path d="M25.75 7.8 Q25.75 6.7 25.3 5.75 25.0 4.85 24.15 4.0 23.4 3.3 22.45 2.9 21.45 2.45 20.35 2.45 19.2 2.45 18.25 2.9 L16.5 4.0 Q15.8 4.7 15.35 5.75 14.9 6.8 14.9 7.8 14.9 8.85 15.35 9.9 15.85 10.95 16.5 11.6 17.15 12.3 18.25 12.75 L20.35 13.15 22.45 12.75 24.15 11.6 25.3 9.9 Q25.75 8.95 25.75 7.8 M23.45 0.65 Q24.85 1.25 25.95 2.3 27.05 3.5 27.65 4.75 28.25 6.15 28.25 7.8 28.25 9.5 27.65 10.8 27.05 12.2 25.95 13.3 24.85 14.35 23.45 14.95 22.05 15.55 20.35 15.55 18.65 15.55 17.25 14.95 15.85 14.35 14.75 13.3 13.65 12.3 13.05 10.8 12.4 9.4 12.4 7.8 12.4 6.3 13.05 4.75 13.65 3.35 14.75 2.3 15.85 1.25 17.25 0.65 18.85 0.05 20.35 0.05 L23.45 0.65" fill="#ffffff" fill-rule="evenodd" stroke="none"/>
    <path d="M39.3 15.6 L33.85 6.0 33.85 15.55 31.45 15.55 31.45 0.15 33.6 0.15 38.65 9.4 38.65 0.1 41.0 0.1 41.0 15.55 39.3 15.6" fill="#ffffff" fill-rule="evenodd" stroke="none"/>
    <path d="M47.05 2.35 L46.6 2.35 46.6 10.0 46.95 10.0 Q47.9 10.0 48.8 9.45 50.55 8.25 50.55 6.25 50.55 5.2 50.1 4.25 48.95 2.35 47.05 2.35 M50.5 10.95 L52.7 15.6 50.15 15.6 48.5 11.95 46.6 12.2 46.6 15.55 44.2 15.55 44.2 0.1 46.6 0.1 Q48.5 0.1 50.1 1.0 52.9 3.0 52.9 6.25 52.9 8.15 51.8 9.7 L50.5 10.95" fill="#ffffff" fill-rule="evenodd" stroke="none"/>
    <path d="M59.8 10.65 L62.2 10.65 61.0 5.7 59.8 10.65 M61.7 0.0 L65.9 15.6 63.5 15.6 62.85 13.15 59.15 13.15 58.45 15.6 56.05 15.6 60.3 0.0 61.7 0.0" fill="#ffffff" fill-rule="evenodd" stroke="none"/>
    <path d="M72.2 13.1 Q76.85 12.25 77.05 7.85 76.85 3.55 72.2 2.55 L71.5 2.55 71.5 13.1 72.2 13.1 M69.1 0.1 L71.5 0.1 Q78.95 0.85 79.45 7.85 79.0 14.8 71.5 15.65 L69.1 15.65 69.1 0.1" fill="#ffffff" fill-rule="evenodd" stroke="none"/>
    <path d="M82.6 7.2 L89.55 7.2 89.55 9.0 82.6 9.0 82.6 7.2" fill="#ffffff" fill-rule="evenodd" stroke="none"/>
    <path d="M23.65 20.9 Q24.45 20.3 25.2 20.0 L27.05 19.65 28.4 19.9 29.7 20.5 29.7 22.75 28.7 22.2 27.95 21.9 27.05 21.75 Q26.05 21.75 25.25 22.45 24.55 23.2 24.55 24.0 24.6 24.95 25.2 25.4 25.7 25.85 27.05 26.5 L28.5 27.15 29.55 28.0 30.4 29.25 30.75 31.0 Q30.75 31.9 30.35 32.7 L29.25 34.25 27.6 35.3 25.65 35.65 23.8 35.35 22.15 34.45 22.15 31.75 22.9 32.45 23.7 32.9 24.65 33.3 25.75 33.5 Q26.8 33.5 27.55 32.7 28.25 32.0 28.25 30.85 28.25 29.95 27.65 29.4 27.0 28.8 25.7 28.2 L24.35 27.45 23.3 26.6 22.45 25.5 Q22.15 24.7 22.15 23.85 22.25 22.95 22.6 22.25 22.95 21.5 23.65 20.9" fill="#ffffff" fill-rule="evenodd" stroke="none"/>
    <path d="M34.0 19.6 L36.4 19.6 36.4 35.55 34.0 35.55 34.0 19.6" fill="#ffffff" fill-rule="evenodd" stroke="none"/>
    <path d="M47.1 19.7 L47.1 22.15 42.15 22.15 42.15 28.0 47.1 28.0 47.1 30.4 42.15 30.4 42.15 33.15 47.1 33.15 47.1 35.55 39.7 35.55 39.7 19.7 47.1 19.7" fill="#ffffff" fill-rule="evenodd" stroke="none"/>
    <path d="M52.8 19.6 Q60.55 20.45 61.05 27.65 60.55 34.8 52.8 35.65 L50.35 35.65 50.35 19.6 52.8 19.6 M52.8 22.2 L52.8 33.1 53.6 33.1 Q58.35 32.1 58.55 27.65 58.3 23.15 53.6 22.2 L52.8 22.2" fill="#ffffff" fill-rule="evenodd" stroke="none"/>
    <path d="M64.3 19.7 L66.75 19.7 66.75 33.15 72.25 33.15 72.25 35.55 64.3 35.55 64.3 19.7" fill="#ffffff" fill-rule="evenodd" stroke="none"/>
    <path d="M77.95 19.6 L77.95 29.4 Q77.95 33.1 80.45 33.1 82.95 33.1 82.95 29.4 L82.95 19.6 85.35 19.6 85.35 29.4 Q85.35 35.35 80.45 35.55 75.55 35.35 75.55 29.4 L75.55 19.6 77.95 19.6" fill="#ffffff" fill-rule="evenodd" stroke="none"/>
    <path d="M98.5 19.6 L98.5 35.55 96.7 35.6 91.1 25.7 91.1 35.55 88.65 35.55 88.65 19.65 90.85 19.65 96.1 29.2 96.1 19.6 98.5 19.6" fill="#ffffff" fill-rule="evenodd" stroke="none"/>
    <path d="M113.0 35.1 L109.9 35.65 Q105.95 35.65 103.3 32.3 101.75 30.2 101.75 27.7 101.75 23.5 105.65 20.9 107.55 19.7 110.0 19.7 111.55 19.7 113.0 20.25 L113.0 22.95 112.85 22.95 Q111.6 22.2 109.95 22.2 106.8 22.2 105.0 25.1 104.4 26.35 104.4 27.7 104.4 30.6 107.0 32.45 108.45 33.2 110.0 33.2 L110.95 33.05 110.95 30.4 109.2 30.4 109.2 28.0 113.0 28.0 113.0 35.1" fill="#ffffff" fill-rule="evenodd" stroke="none"/>
  </g>
</svg>
