<?xml version="1.0" encoding="UTF-8" standalone="no"?>
<svg xmlns:xlink="http://www.w3.org/1999/xlink" height="53.85px" width="50.75px" xmlns="http://www.w3.org/2000/svg">
  <g transform="matrix(1.0, 0.0, 0.0, 1.0, 25.4, 26.9)">
    <path d="M22.2 -4.45 L22.25 -2.8 Q22.0 -1.75 21.05 -1.45 L17.9 -1.25 16.85 -1.25 15.4 7.35 15.65 7.4 Q17.1 7.75 17.4 8.4 L17.9 9.2 18.5 10.0 19.15 10.35 20.65 11.25 20.7 11.45 20.75 11.55 Q21.0 12.15 19.9 14.0 L18.25 16.2 17.15 16.7 16.0 17.1 Q15.3 17.45 14.7 18.2 L13.65 19.6 Q12.4 21.2 10.0 21.3 L5.85 21.7 Q5.2 21.95 4.1 22.75 L2.35 23.75 0.1 23.9 -2.15 23.5 -4.3 23.15 -6.35 23.5 Q-8.6 24.4 -10.05 23.1 -11.25 21.5 -11.7 21.3 L-13.3 21.15 -14.85 21.1 Q-16.35 20.85 -16.95 19.35 -17.6 17.8 -18.0 17.7 -19.3 17.35 -19.8 16.7 -20.3 16.0 -20.1 14.75 L-20.1 13.9 Q-21.15 12.7 -20.15 11.2 -19.8 10.35 -18.2 9.35 L-16.7 8.4 -16.7 8.3 -17.65 2.5 Q-21.2 0.7 -21.6 0.2 -22.2 -0.6 -22.3 -1.65 -22.4 -2.65 -21.95 -3.25 L-19.8 -6.2 -21.7 -9.45 -17.7 -13.6 -14.5 -13.25 -12.6 -15.75 -12.2 -15.65 -10.5 -15.55 Q-6.45 -15.55 -1.05 -16.65 4.95 -17.9 6.95 -19.5 7.65 -20.05 8.8 -20.05 L10.65 -19.75 10.85 -19.65 11.0 -19.5 22.15 -4.55 22.2 -4.45" fill="#ffffff" fill-rule="evenodd" stroke="none"/>
    <path d="M22.2 -4.45 L22.15 -4.55 11.0 -19.5 10.85 -19.65 10.65 -19.75 8.8 -20.05 Q7.65 -20.05 6.95 -19.5 4.95 -17.9 -1.05 -16.65 -6.45 -15.55 -10.5 -15.55 L-12.2 -15.65 -12.6 -15.75 -14.5 -13.25 -17.7 -13.6 -21.7 -9.45 -19.8 -6.2 -21.95 -3.25 Q-22.4 -2.65 -22.3 -1.65 -22.2 -0.6 -21.6 0.2 -21.2 0.7 -17.65 2.5 L-16.7 8.3 -16.7 8.4 -18.2 9.35 Q-19.8 10.35 -20.15 11.2 -21.15 12.7 -20.1 13.9 L-20.1 14.75 Q-20.3 16.0 -19.8 16.7 -19.3 17.35 -18.0 17.7 -17.6 17.8 -16.95 19.35 -16.35 20.85 -14.85 21.1 L-13.3 21.15 -11.7 21.3 Q-11.25 21.5 -10.05 23.1 -8.6 24.4 -6.35 23.5 L-4.3 23.15 -2.15 23.5 0.1 23.9 2.35 23.75 4.1 22.75 Q5.2 21.95 5.85 21.7 L10.0 21.3 Q12.4 21.2 13.65 19.6 L14.7 18.2 Q15.3 17.45 16.0 17.1 L17.15 16.7 18.25 16.2 19.9 14.0 Q21.0 12.15 20.75 11.55 L20.7 11.45 20.65 11.25 19.15 10.35 18.5 10.0 17.9 9.2 17.4 8.4 Q17.1 7.75 15.65 7.4 L15.4 7.35 16.85 -1.25 17.9 -1.25 21.05 -1.45 Q22.0 -1.75 22.25 -2.8 L22.2 -4.45 Z" fill="none" stroke="#ffffff" stroke-linecap="butt" stroke-linejoin="miter" stroke-width="6.0"/>
    <path d="M-13.75 -22.9 Q-13.35 -22.0 -13.45 -20.85 L-12.85 -20.7 Q-12.3 -20.25 -12.45 -18.85 -12.6 -17.4 -14.0 -17.15 L-15.35 -17.2 -15.6 -16.55 Q-17.15 -14.85 -18.95 -16.75 L-19.1 -16.9 -19.25 -16.8 Q-20.35 -16.25 -21.35 -17.85 -22.4 -19.5 -20.15 -21.0 -20.65 -22.45 -19.45 -23.2 L-17.1 -23.25 Q-14.55 -24.7 -13.75 -22.9" fill="#ffffff" fill-rule="evenodd" stroke="none"/>
    <path d="M-13.75 -22.9 Q-14.55 -24.7 -17.1 -23.25 L-19.45 -23.2 Q-20.65 -22.45 -20.15 -21.0 -22.4 -19.5 -21.35 -17.85 -20.35 -16.25 -19.25 -16.8 L-19.1 -16.9 -18.95 -16.75 Q-17.15 -14.85 -15.6 -16.55 L-15.35 -17.2 -14.0 -17.15 Q-12.6 -17.4 -12.45 -18.85 -12.3 -20.25 -12.85 -20.7 L-13.45 -20.85 Q-13.35 -22.0 -13.75 -22.9 Z" fill="none" stroke="#ffffff" stroke-linecap="butt" stroke-linejoin="miter" stroke-width="6.0"/>
    <path d="M15.05 7.6 Q16.75 7.75 17.4 8.4 L17.9 9.2 18.5 10.0 19.75 10.7 20.75 11.55 Q21.0 12.15 19.9 14.0 L18.25 16.2 17.15 16.7 16.0 17.1 Q15.3 17.45 14.7 18.2 L13.65 19.6 Q12.4 21.2 10.0 21.3 L5.85 21.7 Q5.2 21.95 4.1 22.75 L2.35 23.75 0.1 23.9 -2.15 23.5 -4.3 23.15 -6.35 23.5 Q-8.6 24.4 -10.05 23.1 -11.25 21.5 -11.7 21.3 L-13.3 21.15 -14.85 21.1 Q-16.35 20.85 -16.95 19.35 -17.6 17.8 -18.0 17.7 -19.45 17.3 -19.9 16.5 -20.35 15.65 -20.0 14.05 -21.35 12.65 -19.95 10.9 -18.9 9.6 -17.2 8.8 L-2.05 7.45 Q6.45 7.0 12.55 7.45 L15.05 7.6" fill="url(#gradient0)" fill-rule="evenodd" stroke="none"/>
    <path d="M15.65 7.4 Q17.4 7.85 17.4 8.5 L17.45 9.15 Q17.55 9.85 17.95 9.95 20.1 10.55 20.65 11.25 20.85 11.5 20.15 12.05 19.4 12.6 19.5 12.8 L19.35 13.95 Q19.0 14.85 18.35 15.25 17.3 16.0 14.85 16.5 L14.2 17.85 12.6 19.5 Q11.75 20.0 9.4 19.95 L6.95 19.9 5.9 20.55 3.7 22.0 Q2.55 22.75 -0.35 22.35 L-3.5 21.6 -5.4 21.9 -8.35 22.2 Q-9.1 22.1 -10.4 21.05 L-11.7 19.9 -12.9 19.9 -15.0 19.55 Q-15.95 19.1 -17.0 17.5 L-17.8 15.95 Q-19.35 16.0 -20.0 15.2 -20.25 14.85 -20.1 13.7 L-19.9 12.4 Q-20.9 11.35 -18.9 9.85 L-16.7 8.4 Q-16.7 5.6 -1.2 6.1 L15.65 7.4" fill="url(#gradient1)" fill-rule="evenodd" stroke="none"/>
    <path d="M-17.0 12.8 Q-16.15 13.25 -16.85 13.75 L-18.2 14.0 -17.8 13.2 Q-17.45 12.85 -17.0 12.8" fill="#d0fd9b" fill-rule="evenodd" stroke="none"/>
    <path d="M-13.05 15.3 L-13.4 15.25 -12.9 15.7 -15.25 15.9 Q-15.05 15.35 -14.25 15.15 -13.4 14.9 -13.05 15.3" fill="#d0fd9b" fill-rule="evenodd" stroke="none"/>
    <path d="M-9.8 16.1 L-9.9 16.3 Q-9.15 16.55 -9.25 17.0 -9.35 17.45 -10.15 17.35 -11.9 17.25 -11.55 16.65 -11.2 16.05 -9.8 16.1" fill="#d0fd9b" fill-rule="evenodd" stroke="none"/>
    <path d="M-7.4 18.25 L-7.45 18.0 -6.6 18.5 -9.1 18.45 Q-8.05 17.85 -7.4 18.25" fill="#d0fd9b" fill-rule="evenodd" stroke="none"/>
    <path d="M-13.2 17.05 L-13.2 16.85 Q-12.6 16.85 -12.3 17.3 L-14.45 17.25 -13.9 16.9 -13.2 17.05" fill="#d0fd9b" fill-rule="evenodd" stroke="none"/>
    <path d="M-3.15 17.9 L-3.05 6.55 9.15 -16.25 16.55 -3.1 13.9 11.9 -2.0 18.95 -3.15 17.9" fill="url(#gradient2)" fill-rule="evenodd" stroke="none"/>
    <path d="M15.15 2.4 Q13.8 -0.2 11.55 -2.3 7.15 -6.6 2.95 -4.3 2.55 -4.05 5.65 -9.7 L8.85 -15.4 16.8 -5.55 15.15 2.4" fill="#a4a4a4" fill-rule="evenodd" stroke="none"/>
    <path d="M-2.75 18.15 L-15.85 9.25 -17.35 -0.6 -2.65 4.65 -2.75 18.15" fill="url(#gradient3)" fill-rule="evenodd" stroke="none"/>
    <path d="M-12.95 3.65 L-7.05 5.85 -7.15 11.3 -12.7 8.5 -12.95 3.65" fill="url(#gradient4)" fill-rule="evenodd" stroke="none"/>
    <path d="M4.45 16.1 L4.55 2.7 11.3 0.8 10.35 13.5 4.45 16.1" fill="url(#gradient5)" fill-rule="evenodd" stroke="none"/>
    <path d="M5.15 3.15 L5.05 15.65 9.8 13.6 10.65 1.6 5.15 3.15 M3.8 17.0 L3.95 2.25 11.95 0.0 10.95 13.9 3.8 17.0" fill="#000000" fill-rule="evenodd" stroke="none"/>
    <path d="M6.4 3.85 L9.5 3.9 9.35 7.95 6.45 8.75 6.4 3.85" fill="url(#gradient6)" fill-rule="evenodd" stroke="none"/>
    <path d="M-15.2 8.85 Q-3.55 18.05 -1.75 17.95 0.25 17.85 13.25 11.45 L16.2 -5.7 8.2 -16.85 -17.15 -3.25 -15.2 8.85 M-16.5 9.7 L-18.7 -4.0 8.6 -18.65 17.65 -6.05 14.5 12.4 Q1.2 19.3 -1.9 19.55 -3.45 19.65 -16.5 9.7" fill="#6c56a7" fill-rule="evenodd" stroke="none"/>
    <path d="M-15.2 8.85 Q-3.55 18.05 -1.75 17.95 0.25 17.85 13.25 11.45 L16.2 -5.7 8.2 -16.85 -17.15 -3.25 -15.2 8.85 M-16.5 9.7 L-18.7 -4.0 8.6 -18.65 17.65 -6.05 14.5 12.4 Q1.2 19.3 -1.9 19.55 -3.45 19.65 -16.5 9.7" fill="none" stroke="#6c56a7" stroke-linecap="butt" stroke-linejoin="miter" stroke-width="1.0"/>
    <path d="M21.55 -4.25 Q22.15 -2.85 21.15 -2.1 L18.45 -1.8 16.5 -2.1 9.05 -13.7 Q1.85 1.05 -0.55 4.75 -2.05 7.05 -4.8 7.05 L-7.25 6.6 -13.9 3.55 -21.0 -0.2 Q-21.5 -0.85 -21.6 -1.65 -21.7 -2.45 -21.4 -2.85 L-12.3 -14.95 Q-9.35 -14.45 -2.45 -15.7 4.9 -17.05 7.4 -18.95 L10.4 -19.1 21.55 -4.25" fill="url(#gradient7)" fill-rule="evenodd" stroke="none"/>
    <path d="M19.85 -2.15 L9.5 -15.85 Q-0.65 5.5 -2.0 6.5 -3.0 7.2 -4.6 7.3 L-6.75 6.95 Q-7.55 6.35 -20.65 0.35 L-21.25 -1.85 -16.0 0.3 -8.2 3.4 -5.5 3.8 Q-3.5 3.7 -2.5 2.4 -2.1 1.9 2.45 -7.65 6.95 -17.05 8.1 -18.45 8.75 -19.2 9.75 -18.85 L10.6 -18.35 21.35 -4.3 21.35 -2.3 19.85 -2.15" fill="url(#gradient8)" fill-rule="evenodd" stroke="none"/>
    <path d="M22.2 -4.45 L22.25 -2.8 Q22.0 -1.75 21.05 -1.45 L17.9 -1.25 16.15 -1.25 9.1 -12.3 Q2.8 0.9 0.0 5.1 -1.65 7.75 -4.9 7.75 L-6.7 7.5 -7.5 7.25 Q-20.85 1.25 -21.6 0.2 -22.2 -0.6 -22.3 -1.65 -22.4 -2.65 -21.95 -3.25 L-12.85 -15.4 -12.6 -15.75 -12.2 -15.65 -10.5 -15.55 Q-6.45 -15.55 -1.05 -16.65 4.95 -17.9 6.95 -19.5 7.65 -20.05 8.8 -20.05 L10.65 -19.75 10.85 -19.65 11.0 -19.5 22.15 -4.55 22.2 -4.45 M17.9 -2.65 L20.65 -2.75 Q21.1 -2.9 20.9 -3.95 L10.0 -18.5 8.8 -18.65 7.8 -18.4 Q5.45 -16.6 -0.9 -15.3 -6.5 -14.15 -10.5 -14.15 L-12.0 -14.2 -20.85 -2.45 -20.9 -1.7 -20.45 -0.65 Q-19.35 0.35 -6.95 6.0 L-6.35 6.2 -4.9 6.35 Q-2.45 6.35 -1.15 4.35 1.2 0.75 8.4 -14.0 L8.95 -15.15 16.95 -2.65 17.9 -2.65" fill="#000000" fill-rule="evenodd" stroke="none"/>
    <path d="M-14.0 -17.15 L-15.35 -17.2 -15.6 -16.55 Q-17.15 -14.85 -18.95 -16.75 L-19.1 -16.9 -19.25 -16.8 Q-20.35 -16.25 -21.35 -17.85 -22.4 -19.5 -20.15 -21.0 -20.65 -22.45 -19.45 -23.2 L-17.1 -23.25 Q-14.55 -24.7 -13.75 -22.9 -13.35 -22.0 -13.45 -20.85 L-12.85 -20.7 Q-12.3 -20.25 -12.45 -18.85 -12.6 -17.4 -14.0 -17.15" fill="url(#gradient9)" fill-rule="evenodd" stroke="none"/>
    <path d="M-20.2 -9.15 L-15.85 -8.15 -14.6 -3.9 -17.5 -4.8 -20.2 -9.15" fill="url(#gradient10)" fill-rule="evenodd" stroke="none"/>
    <path d="M-15.85 -8.15 L-13.0 -11.8 -12.45 -6.2 -14.65 -3.75 -15.85 -8.15" fill="#a4a4a4" fill-rule="evenodd" stroke="none"/>
    <path d="M-20.15 -9.1 L-17.35 -12.45 -13.0 -11.9 -15.85 -8.15 -20.15 -9.1" fill="#ffffff" fill-rule="evenodd" stroke="none"/>
    <path d="M-15.95 -9.25 L-18.45 -9.8 -16.9 -11.5 -14.65 -11.1 -15.95 -9.25" fill="url(#gradient11)" fill-rule="evenodd" stroke="none"/>
    <path d="M-17.5 -5.05 L-14.6 -4.05 -12.6 -6.3 -13.3 -11.7 -17.15 -12.15 -19.95 -9.25 -17.5 -5.05 M-17.7 -13.6 L-12.05 -12.95 -11.15 -5.85 -14.2 -2.4 -18.45 -3.9 -21.7 -9.45 -17.7 -13.6" fill="#7c3f88" fill-rule="evenodd" stroke="none"/>
  </g>
  <defs>
    <linearGradient gradientTransform="matrix(0.014, -0.0069, -0.0069, -0.014, 2.95, 12.15)" gradientUnits="userSpaceOnUse" id="gradient0" spreadMethod="pad" x1="-819.2" x2="819.2">
      <stop offset="0.0" stop-color="#53c93f"/>
      <stop offset="1.0" stop-color="#d0fd9b"/>
    </linearGradient>
    <linearGradient gradientTransform="matrix(0.0186, -0.0035, -0.0035, -0.0186, 1.65, 13.15)" gradientUnits="userSpaceOnUse" id="gradient1" spreadMethod="pad" x1="-819.2" x2="819.2">
      <stop offset="0.0" stop-color="#a5ea72"/>
      <stop offset="1.0" stop-color="#aaec77"/>
    </linearGradient>
    <linearGradient gradientTransform="matrix(0.0103, -0.0215, -0.0215, -0.0103, 11.3, -2.95)" gradientUnits="userSpaceOnUse" id="gradient2" spreadMethod="pad" x1="-819.2" x2="819.2">
      <stop offset="0.0" stop-color="#ffffff"/>
      <stop offset="1.0" stop-color="#a4a4a4"/>
    </linearGradient>
    <linearGradient gradientTransform="matrix(5.0E-4, -0.0083, -0.0083, -5.0E-4, -9.8, 4.95)" gradientUnits="userSpaceOnUse" id="gradient3" spreadMethod="pad" x1="-819.2" x2="819.2">
      <stop offset="0.0" stop-color="#ffffff"/>
      <stop offset="1.0" stop-color="#a4a4a4"/>
    </linearGradient>
    <linearGradient gradientTransform="matrix(2.0E-4, -0.0023, -0.0023, -2.0E-4, -10.05, 7.45)" gradientUnits="userSpaceOnUse" id="gradient4" spreadMethod="pad" x1="-819.2" x2="819.2">
      <stop offset="0.0" stop-color="#723ba1"/>
      <stop offset="0.14901960784313725" stop-color="#6e399b"/>
      <stop offset="0.34509803921568627" stop-color="#63338b"/>
      <stop offset="0.5686274509803921" stop-color="#512a71"/>
      <stop offset="0.807843137254902" stop-color="#381d4d"/>
      <stop offset="1.0" stop-color="#20102b"/>
    </linearGradient>
    <linearGradient gradientTransform="matrix(5.0E-4, -0.0054, -0.0054, -5.0E-4, 7.35, 8.9)" gradientUnits="userSpaceOnUse" id="gradient5" spreadMethod="pad" x1="-819.2" x2="819.2">
      <stop offset="0.0" stop-color="#723ba1"/>
      <stop offset="0.14901960784313725" stop-color="#6e399b"/>
      <stop offset="0.34509803921568627" stop-color="#63338b"/>
      <stop offset="0.5686274509803921" stop-color="#512a71"/>
      <stop offset="0.807843137254902" stop-color="#381d4d"/>
      <stop offset="1.0" stop-color="#20102b"/>
    </linearGradient>
    <linearGradient gradientTransform="matrix(1.0E-4, -0.0028, -0.0028, -1.0E-4, 7.9, 5.2)" gradientUnits="userSpaceOnUse" id="gradient6" spreadMethod="pad" x1="-819.2" x2="819.2">
      <stop offset="0.0" stop-color="#7c3f88"/>
      <stop offset="0.20784313725490197" stop-color="#6e387b"/>
      <stop offset="0.6" stop-color="#4b2656"/>
      <stop offset="1.0" stop-color="#20102b"/>
    </linearGradient>
    <linearGradient gradientTransform="matrix(0.0012, -0.0122, -0.0122, -0.0012, 0.25, -4.85)" gradientUnits="userSpaceOnUse" id="gradient7" spreadMethod="pad" x1="-819.2" x2="819.2">
      <stop offset="0.0" stop-color="#703b9c"/>
      <stop offset="0.15294117647058825" stop-color="#6c3996"/>
      <stop offset="0.3568627450980392" stop-color="#613387"/>
      <stop offset="0.5843137254901961" stop-color="#4e296d"/>
      <stop offset="0.8274509803921568" stop-color="#351b49"/>
      <stop offset="1.0" stop-color="#20102b"/>
    </linearGradient>
    <linearGradient gradientTransform="matrix(0.007, -0.014, -0.014, -0.007, 2.15, -6.25)" gradientUnits="userSpaceOnUse" id="gradient8" spreadMethod="pad" x1="-819.2" x2="819.2">
      <stop offset="0.0" stop-color="#cb9af8"/>
      <stop offset="1.0" stop-color="#703c9a"/>
    </linearGradient>
    <linearGradient gradientTransform="matrix(-5.0E-4, 0.0046, 0.0046, 5.0E-4, -16.95, -19.8)" gradientUnits="userSpaceOnUse" id="gradient9" spreadMethod="pad" x1="-819.2" x2="819.2">
      <stop offset="0.0" stop-color="#ffffff"/>
      <stop offset="1.0" stop-color="#d4b0f9"/>
    </linearGradient>
    <linearGradient gradientTransform="matrix(-6.0E-4, -0.0022, -0.0022, 6.0E-4, -17.4, -6.55)" gradientUnits="userSpaceOnUse" id="gradient10" spreadMethod="pad" x1="-819.2" x2="819.2">
      <stop offset="0.0" stop-color="#ffffff"/>
      <stop offset="1.0" stop-color="#a4a4a4"/>
    </linearGradient>
    <linearGradient gradientTransform="matrix(7.0E-4, 0.0028, 0.0028, -7.0E-4, -16.95, -12.1)" gradientUnits="userSpaceOnUse" id="gradient11" spreadMethod="pad" x1="-819.2" x2="819.2">
      <stop offset="0.0" stop-color="#ffffff"/>
      <stop offset="1.0" stop-color="#a4a4a4"/>
    </linearGradient>
  </defs>
</svg>
