<?xml version="1.0" encoding="UTF-8" standalone="no"?>
<svg xmlns:xlink="http://www.w3.org/1999/xlink" height="9.2px" width="64.05px" xmlns="http://www.w3.org/2000/svg">
  <g transform="matrix(1.0, 0.0, 0.0, 1.0, -33.25, -13.65)">
    <path d="M37.35 15.05 Q38.1 15.95 38.1 17.55 38.1 19.05 37.4 20.0 36.6 20.95 34.95 20.95 L33.25 20.95 33.25 14.1 34.7 14.1 Q36.55 14.1 37.35 15.05 M36.4 15.6 Q36.0 15.0 35.15 15.0 L34.4 15.0 34.4 20.0 35.15 20.0 Q36.85 20.0 36.85 17.65 36.85 16.25 36.4 15.6" fill="#664e05" fill-rule="evenodd" stroke="none"/>
    <path d="M42.6 16.35 Q43.25 16.95 43.25 18.5 L43.25 18.75 40.25 18.75 40.25 18.8 Q40.25 20.25 41.5 20.25 42.1 20.25 42.75 19.75 L43.15 20.4 Q42.45 21.05 41.35 21.05 40.3 21.05 39.7 20.35 39.05 19.65 39.05 18.45 39.05 17.2 39.7 16.5 40.3 15.8 41.2 15.8 42.0 15.8 42.6 16.35 M41.2 16.65 Q40.25 16.65 40.25 17.95 L42.1 17.95 Q42.1 16.65 41.2 16.65" fill="#664e05" fill-rule="evenodd" stroke="none"/>
    <path d="M45.5 15.8 L45.5 20.95 44.45 20.95 44.45 16.0 45.5 15.8 M44.95 15.2 Q44.25 15.2 44.25 14.5 44.25 14.2 44.5 14.0 44.7 13.75 45.0 13.75 45.7 13.75 45.7 14.5 45.7 15.2 44.95 15.2" fill="#664e05" fill-rule="evenodd" stroke="none"/>
    <path d="M50.85 17.2 L50.85 20.95 49.8 20.95 49.8 17.6 Q49.8 16.75 49.2 16.75 48.75 16.75 48.1 17.3 L48.1 20.95 47.05 20.95 47.05 17.25 46.85 16.1 47.85 15.8 48.0 16.5 Q48.85 15.8 49.55 15.8 50.85 15.8 50.85 17.2" fill="#664e05" fill-rule="evenodd" stroke="none"/>
    <path d="M58.45 14.1 L58.3 15.05 55.8 15.05 55.8 16.9 57.9 16.9 57.9 17.85 55.8 17.85 55.8 19.95 58.55 19.95 58.55 20.95 54.65 20.95 54.65 14.1 58.45 14.1" fill="#664e05" fill-rule="evenodd" stroke="none"/>
    <path d="M59.6 14.5 Q59.6 13.75 60.3 13.75 61.0 13.75 61.0 14.5 61.0 15.2 60.3 15.2 59.6 15.2 59.6 14.5 M59.75 20.95 L59.75 16.0 60.85 15.8 60.85 20.95 59.75 20.95" fill="#664e05" fill-rule="evenodd" stroke="none"/>
    <path d="M67.0 16.4 L66.15 16.75 65.75 16.7 65.95 16.9 66.1 17.55 Q66.1 18.25 65.6 18.65 65.05 19.1 64.2 19.1 63.5 19.3 63.5 19.55 L64.75 19.75 Q65.4 19.75 65.9 20.1 66.45 20.5 66.45 21.2 66.45 22.85 64.2 22.85 61.95 22.85 61.95 21.45 L62.05 20.95 63.1 20.95 63.0 21.3 Q63.0 22.0 64.1 22.0 65.3 22.0 65.3 21.25 65.3 20.55 63.9 20.55 62.3 20.55 62.3 19.8 62.3 19.25 63.25 18.9 62.1 18.6 62.1 17.5 62.1 16.75 62.65 16.3 63.2 15.8 64.1 15.8 L65.6 16.1 Q66.05 16.1 66.5 15.75 L67.0 16.4 M64.95 17.5 Q64.95 16.65 64.1 16.65 63.2 16.65 63.2 17.5 63.2 18.35 64.1 18.35 64.95 18.35 64.95 17.5" fill="#664e05" fill-rule="evenodd" stroke="none"/>
    <path d="M71.45 18.75 L68.5 18.75 68.5 18.8 Q68.5 20.25 69.7 20.25 L70.95 19.75 71.4 20.4 Q70.6 21.05 69.6 21.05 68.55 21.05 67.95 20.35 67.3 19.65 67.3 18.45 67.3 17.25 67.9 16.5 68.5 15.8 69.45 15.8 70.25 15.8 70.8 16.35 71.45 16.95 71.45 18.5 L71.45 18.75 M69.45 16.65 Q68.5 16.65 68.5 17.95 L70.35 17.95 Q70.35 16.65 69.45 16.65" fill="#664e05" fill-rule="evenodd" stroke="none"/>
    <path d="M75.4 20.95 L75.4 17.6 Q75.4 16.75 74.85 16.75 74.3 16.75 73.75 17.3 L73.75 20.95 72.65 20.95 72.65 17.25 72.5 16.1 73.45 15.8 73.65 16.5 Q74.5 15.8 75.2 15.8 76.5 15.8 76.5 17.2 L76.5 20.95 75.4 20.95" fill="#664e05" fill-rule="evenodd" stroke="none"/>
    <path d="M79.0 16.45 Q79.8 15.8 80.55 15.8 81.45 15.8 81.75 16.45 L81.95 17.4 81.95 20.95 80.9 20.95 80.9 17.55 Q80.9 16.75 80.25 16.75 79.65 16.75 79.05 17.35 L79.05 20.95 77.95 20.95 77.95 15.0 77.85 13.9 78.95 13.65 79.05 14.85 79.0 16.45" fill="#664e05" fill-rule="evenodd" stroke="none"/>
    <path d="M87.2 18.75 L84.25 18.75 84.25 18.8 Q84.25 20.25 85.45 20.25 86.1 20.25 86.7 19.75 L87.15 20.4 Q86.35 21.05 85.35 21.05 84.3 21.05 83.7 20.35 83.05 19.65 83.05 18.45 83.05 17.25 83.65 16.5 84.25 15.8 85.2 15.8 86.0 15.8 86.55 16.35 87.2 16.95 87.2 18.5 L87.2 18.75 M85.2 16.65 Q84.25 16.65 84.25 17.95 L86.1 17.95 Q86.1 16.65 85.2 16.65" fill="#664e05" fill-rule="evenodd" stroke="none"/>
    <path d="M88.25 14.5 Q88.25 13.75 88.95 13.75 89.7 13.75 89.7 14.5 89.7 15.2 88.95 15.2 88.25 15.2 88.25 14.5 M88.4 20.95 L88.4 16.0 89.5 15.8 89.5 20.95 88.4 20.95" fill="#664e05" fill-rule="evenodd" stroke="none"/>
    <path d="M96.25 20.95 L96.25 17.5 Q96.25 16.75 95.75 16.75 95.3 16.75 94.65 17.3 L94.65 20.95 93.65 20.95 93.65 17.5 Q93.65 16.75 93.1 16.75 92.6 16.75 92.05 17.25 L92.05 20.95 91.0 20.95 91.0 17.35 90.85 16.1 91.8 15.8 92.0 16.45 Q92.65 15.8 93.3 15.8 94.05 15.8 94.5 16.55 95.25 15.8 96.0 15.8 97.3 15.8 97.3 17.3 L97.3 20.95 96.25 20.95" fill="#664e05" fill-rule="evenodd" stroke="none"/>
  </g>
</svg>
