<?xml version="1.0" encoding="UTF-8" standalone="no"?>
<svg xmlns:xlink="http://www.w3.org/1999/xlink" height="100.45px" width="120.0px" xmlns="http://www.w3.org/2000/svg">
  <g transform="matrix(1.0, 0.0, 0.0, 1.0, -2.4, 4.8)">
    <path d="M66.6 82.05 Q65.0 82.75 64.8 83.55 64.55 84.55 65.15 85.55 L66.05 87.2 Q68.8 88.4 71.1 87.2 73.5 86.0 72.1 83.4 L71.0 82.15 Q70.25 81.6 69.6 81.5 68.2 81.3 66.6 82.05 M90.3 74.65 L90.15 77.3 89.85 83.1 89.55 82.95 Q89.45 83.9 88.75 81.8 L87.25 80.35 Q86.2 79.6 85.5 79.55 84.3 79.5 83.45 80.9 L82.15 83.4 Q82.05 85.7 85.55 86.15 89.1 86.55 89.35 84.2 89.65 84.6 89.55 84.75 89.45 84.95 89.7 85.3 L89.3 85.65 89.55 85.75 87.55 87.55 Q85.85 88.65 85.35 89.45 L85.7 89.9 85.45 89.9 Q85.25 89.3 84.6 89.45 L83.6 89.75 75.8 90.65 Q71.1 90.9 67.35 90.75 65.35 90.95 64.45 90.75 63.55 90.5 62.1 89.0 60.8 87.7 59.55 87.85 59.35 88.3 59.8 88.9 60.3 89.6 60.2 90.25 L58.6 89.65 57.15 88.95 Q57.6 83.85 55.15 80.75 52.55 77.5 47.55 77.8 L44.35 78.4 Q42.45 78.95 41.45 79.55 39.35 81.05 38.5 84.05 36.65 83.4 35.95 82.5 35.15 81.4 35.6 79.4 L33.5 79.45 31.4 79.9 Q31.05 77.8 29.25 76.65 27.4 75.5 25.2 75.7 23.45 75.9 22.5 77.45 21.8 78.5 21.4 80.85 21.2 80.5 21.0 80.95 20.75 81.55 20.3 81.15 20.25 80.95 20.65 81.0 21.0 81.05 20.95 80.85 L20.55 80.55 Q20.3 80.35 20.45 80.7 20.05 80.4 20.2 79.95 L20.45 79.1 20.5 76.2 Q20.5 74.35 20.75 73.05 21.45 69.0 23.0 65.5 L41.05 70.15 44.2 71.15 46.3 71.45 48.35 71.75 49.95 72.4 51.85 72.75 55.85 73.85 59.7 74.9 59.9 75.3 Q59.85 75.75 60.2 75.9 L60.8 76.45 61.45 77.15 65.0 77.95 68.3 78.75 77.85 78.1 80.1 78.3 81.1 77.95 82.7 78.1 84.25 77.95 88.9 72.75 Q90.1 73.05 90.3 74.65" fill="#f9cf84" fill-rule="evenodd" stroke="none"/>
    <path d="M90.3 74.65 Q90.1 73.05 88.9 72.75 L84.25 77.95 82.7 78.1 81.1 77.95 80.1 78.3 77.85 78.1 68.3 78.75 65.0 77.95 61.45 77.15 60.8 76.45 60.2 75.9 Q59.85 75.75 59.9 75.3 L59.7 74.9 55.85 73.85 51.85 72.75 49.95 72.4 48.35 71.75 46.3 71.45 44.2 71.15 41.05 70.15 23.0 65.5 Q21.45 69.0 20.75 73.05 20.5 74.35 20.5 76.2 L20.45 79.1 20.2 79.95 Q20.05 80.4 20.45 80.7 20.3 80.35 20.55 80.55 L20.95 80.85 Q21.0 81.05 20.65 81.0 20.25 80.95 20.3 81.15 20.75 81.55 21.0 80.95 21.2 80.5 21.4 80.85 21.8 78.5 22.5 77.45 23.45 75.9 25.2 75.7 27.4 75.5 29.25 76.65 31.05 77.8 31.4 79.9 L33.5 79.45 35.6 79.4 Q35.15 81.4 35.95 82.5 36.65 83.4 38.5 84.05 39.35 81.05 41.45 79.55 42.45 78.95 44.35 78.4 L47.55 77.8 Q52.55 77.5 55.15 80.75 57.6 83.85 57.15 88.95 L58.6 89.65 60.2 90.25 Q60.3 89.6 59.8 88.9 59.35 88.3 59.55 87.85 60.8 87.7 62.1 89.0 63.55 90.5 64.45 90.75 65.35 90.95 67.35 90.75 71.1 90.9 75.8 90.65 L83.6 89.75 84.6 89.45 Q85.25 89.3 85.45 89.9 L85.7 89.9 85.35 89.45 Q85.85 88.65 87.55 87.55 L89.55 85.75 89.3 85.65 89.7 85.3 Q89.45 84.95 89.55 84.75 89.65 84.6 89.35 84.2 89.1 86.55 85.55 86.15 82.05 85.7 82.15 83.4 L83.45 80.9 Q84.3 79.5 85.5 79.55 86.2 79.6 87.25 80.35 L88.75 81.8 Q89.45 83.9 89.55 82.95 L89.85 83.1 90.15 77.3 90.3 74.65 M66.6 82.05 Q68.2 81.3 69.6 81.5 70.25 81.6 71.0 82.15 L72.1 83.4 Q73.5 86.0 71.1 87.2 68.8 88.4 66.05 87.2 L65.15 85.55 Q64.55 84.55 64.8 83.55 65.0 82.75 66.6 82.05" fill="none" stroke="#f6b138" stroke-linecap="butt" stroke-linejoin="miter" stroke-width="2.0"/>
    <path d="M21.2 79.4 Q21.65 79.85 21.25 79.95" fill="none" stroke="#f6b138" stroke-linecap="butt" stroke-linejoin="miter" stroke-width="2.0"/>
    <path d="M30.85 1.15 L32.4 2.4 31.25 2.9 30.2 3.55 29.25 2.7 Q28.75 2.2 28.6 1.6 L30.85 1.15" fill="#ffffff" fill-rule="evenodd" stroke="none"/>
    <path d="M62.1 6.8 L62.2 10.7 56.5 11.35 Q56.4 11.05 56.65 11.0 56.9 10.95 56.8 10.7 L56.45 6.9 56.0 3.35 Q59.9 3.05 61.45 2.4 L61.75 2.75 62.1 6.8" fill="#ffffff" fill-rule="evenodd" stroke="none"/>
    <path d="M34.15 3.95 Q33.85 4.45 34.15 4.45 34.05 4.85 33.4 5.05 32.55 5.25 32.4 5.4 L31.55 4.85 Q31.05 4.4 30.7 4.3 31.75 3.3 32.85 3.05 L33.45 3.55 34.15 3.95" fill="#ffffff" fill-rule="evenodd" stroke="none"/>
    <path d="M46.1 13.7 Q45.25 12.05 45.0 11.0 L43.9 5.1 Q47.2 3.85 50.6 4.1 L50.9 8.6 51.1 12.8 46.1 13.7" fill="#ffffff" fill-rule="evenodd" stroke="none"/>
    <path d="M37.5 4.45 Q37.9 4.7 38.1 5.65 L38.65 7.0 Q38.15 6.95 37.4 6.15 36.5 5.15 36.05 4.9 36.15 4.65 36.65 4.65 L37.5 4.45" fill="#ffffff" fill-rule="evenodd" stroke="none"/>
    <path d="M37.2 7.15 Q36.0 7.35 35.1 8.15 L34.05 7.15 32.85 6.2 33.85 5.55 34.8 4.9 Q36.2 5.9 37.2 7.15" fill="#ffffff" fill-rule="evenodd" stroke="none"/>
    <path d="M40.25 10.05 L41.35 11.1 42.3 12.3 Q41.2 12.6 40.4 13.25 L39.25 12.3 38.15 11.35 39.25 10.7 40.25 10.05" fill="#ffffff" fill-rule="evenodd" stroke="none"/>
    <path d="M65.75 14.65 L65.6 18.45 65.6 22.35 64.5 22.45 63.5 22.65 63.25 18.55 63.0 14.8 65.75 14.65" fill="#ffffff" fill-rule="evenodd" stroke="none"/>
    <path d="M62.2 14.95 L62.45 19.2 62.7 22.8 61.5 23.15 60.35 23.45 Q59.85 21.95 59.7 19.4 L59.55 15.45 60.9 15.15 62.2 14.95" fill="#ffffff" fill-rule="evenodd" stroke="none"/>
    <path d="M54.75 15.75 Q55.1 17.2 55.3 20.1 L55.7 23.9 54.05 24.3 52.15 24.55 Q52.1 21.2 51.1 16.25 L54.75 15.75" fill="#ffffff" fill-rule="evenodd" stroke="none"/>
    <path d="M46.95 25.15 L43.7 25.5 42.75 17.35 44.55 17.2 Q45.6 17.05 45.8 16.75 46.55 20.9 46.95 25.15" fill="#ffffff" fill-rule="evenodd" stroke="none"/>
    <path d="M64.95 25.35 Q64.9 25.85 64.45 26.6 L63.05 26.95 61.75 27.25 Q61.8 26.1 62.9 25.5 L64.95 25.35" fill="#ffffff" fill-rule="evenodd" stroke="none"/>
    <path d="M56.65 31.75 L53.3 31.45 49.35 31.9 48.2 31.9 Q47.6 31.95 47.25 32.25 47.25 33.65 47.75 36.2 L48.2 40.2 Q48.1 40.5 48.4 40.6 L48.7 41.0 46.65 41.15 44.5 41.3 Q44.65 39.6 44.15 36.65 L43.4 31.75 35.75 33.05 Q35.8 34.3 36.2 36.55 L36.7 40.2 36.65 41.25 Q36.65 41.95 37.05 42.25 L34.95 42.75 33.7 36.45 Q32.95 32.75 32.7 30.15 L46.75 27.55 61.45 25.65 59.2 30.1 56.95 34.45 Q56.4 33.5 56.65 31.75" fill="#e4aeb0" fill-rule="evenodd" stroke="none"/>
    <path d="M56.65 31.75 L53.3 31.45 49.35 31.9 48.2 31.9 Q47.6 31.95 47.25 32.25 47.25 33.65 47.75 36.2 L48.2 40.2 Q48.1 40.5 48.4 40.6 L48.7 41.0 46.65 41.15 44.5 41.3 Q44.65 39.6 44.15 36.65 L43.4 31.75 35.75 33.05 Q35.8 34.3 36.2 36.55 L36.7 40.2 36.65 41.25 Q36.65 41.95 37.05 42.25 L34.95 42.75 33.7 36.45 Q32.95 32.75 32.7 30.15 L46.75 27.55 61.45 25.65 59.2 30.1 56.95 34.45 Q56.4 33.5 56.65 31.75 Z" fill="none" stroke="#cb5c62" stroke-linecap="butt" stroke-linejoin="miter" stroke-width="1.0"/>
    <path d="M64.0 27.75 L63.5 29.0 62.85 30.3 Q61.2 30.15 60.2 30.8 60.1 30.35 60.5 29.5 L61.25 28.2 62.55 28.1 64.0 27.75" fill="#ffffff" fill-rule="evenodd" stroke="none"/>
    <path d="M65.25 29.0 Q65.6 33.05 65.25 38.6 L62.85 38.75 60.65 39.05 Q63.05 33.1 65.25 29.0" fill="#e4aeb0" fill-rule="evenodd" stroke="none"/>
    <path d="M65.25 29.0 Q65.6 33.05 65.25 38.6 L62.85 38.75 60.65 39.05 Q63.05 33.1 65.25 29.0 Z" fill="none" stroke="#cb5c62" stroke-linecap="butt" stroke-linejoin="miter" stroke-width="1.0"/>
    <path d="M55.55 32.4 L55.75 34.2 55.85 36.0 55.55 36.8 Q55.3 37.2 55.55 37.45 55.15 37.35 54.9 37.9 L54.4 38.75 Q53.55 40.0 53.45 40.35 L51.0 40.5 49.0 40.85 Q49.2 38.95 48.8 36.65 L48.05 33.05 49.4 32.7 50.9 32.7 51.7 32.4 55.55 32.4" fill="#ffffff" fill-rule="evenodd" stroke="none"/>
    <path d="M42.45 32.7 L42.6 32.85 43.2 36.6 43.55 40.5 43.85 40.9 44.05 41.3 38.5 41.8 38.1 41.85 38.0 42.1 Q37.7 41.75 37.55 41.05 L37.5 39.85 36.7 33.65 Q40.65 33.55 42.45 32.7" fill="#ffffff" fill-rule="evenodd" stroke="none"/>
    <path d="M85.7 34.15 Q86.25 34.65 86.35 35.75 L86.5 37.8 87.1 44.05 84.4 44.6 Q83.55 37.8 83.45 34.45 L84.65 34.35 85.7 34.15" fill="#bb252e" fill-rule="evenodd" stroke="none"/>
    <path d="M12.45 35.85 Q14.55 40.2 15.35 44.8 L14.05 44.95 13.8 45.3 Q13.6 45.7 13.9 45.75 13.05 45.8 12.6 46.5 12.35 46.9 12.15 48.0 11.55 47.7 11.0 46.8 L10.1 45.1 9.65 44.1 9.3 42.9 8.15 39.55 10.15 37.55 Q11.35 36.35 12.45 35.85" fill="#6a151a" fill-rule="evenodd" stroke="none"/>
    <path d="M12.45 35.85 Q14.55 40.2 15.35 44.8 L14.05 44.95 13.8 45.3 Q13.6 45.7 13.9 45.75 13.05 45.8 12.6 46.5 12.35 46.9 12.15 48.0 11.55 47.7 11.0 46.8 L10.1 45.1 9.65 44.1 9.3 42.9 8.15 39.55 10.15 37.55 Q11.35 36.35 12.45 35.85 Z" fill="none" stroke="#8e5053" stroke-linecap="butt" stroke-linejoin="miter" stroke-width="1.0"/>
    <path d="M18.4 36.2 Q18.85 37.2 19.2 39.85 L18.05 39.85 17.55 37.75 Q17.35 36.5 18.4 36.2" fill="#ffffff" fill-rule="evenodd" stroke="none"/>
    <path d="M57.95 41.0 Q58.0 42.9 58.75 47.85 L57.85 47.9 56.95 48.0 Q56.75 48.0 56.7 48.35 56.65 48.75 56.35 48.65 55.6 47.25 55.3 45.3 L55.05 41.3 56.45 41.15 57.95 41.0" fill="#ffffff" fill-rule="evenodd" stroke="none"/>
    <path d="M49.15 41.8 L49.95 47.65 48.2 47.35 46.6 47.2 Q45.95 43.8 45.95 42.1 L47.55 41.95 49.15 41.8" fill="#ffffff" fill-rule="evenodd" stroke="none"/>
    <path d="M95.75 44.45 Q95.5 44.9 95.55 45.25 L95.3 45.05 95.4 44.6 95.2 44.9 94.95 44.8 95.1 45.15 94.75 45.1 95.25 45.45 Q95.8 45.65 94.6 45.6 L94.6 44.35 95.2 44.4 95.75 44.45" fill="#ffffff" fill-rule="evenodd" stroke="none"/>
    <path d="M24.25 46.4 Q24.6 46.85 24.8 48.0 L25.2 49.75 24.6 49.9 23.95 50.05 23.45 48.6 23.15 46.85 23.8 46.75 24.25 46.4" fill="#ffffff" fill-rule="evenodd" stroke="none"/>
    <path d="M19.0 48.15 Q19.35 47.7 20.45 47.5 L20.85 49.35 21.2 51.2 20.8 51.5 20.15 51.7 19.7 49.75 Q19.45 48.7 19.0 48.15" fill="#ffffff" fill-rule="evenodd" stroke="none"/>
    <path d="M80.45 57.55 L78.85 57.7 77.55 57.85 76.45 56.9 75.45 55.65 73.6 54.15 71.8 52.95 Q74.45 52.0 77.0 53.65 79.05 55.0 80.45 57.55" fill="#ffffff" fill-rule="evenodd" stroke="none"/>
    <path d="M76.1 58.05 L70.7 58.7 69.25 55.95 Q68.4 54.4 67.5 53.6 69.05 52.9 70.2 53.1 71.15 53.3 72.6 54.35 L73.55 55.3 75.05 56.55 Q75.9 57.35 76.1 58.05" fill="#ffffff" fill-rule="evenodd" stroke="none"/>
    <path d="M66.4 53.75 Q67.4 54.5 68.3 56.0 L69.75 58.7 68.15 59.05 66.55 59.3 Q66.1 58.05 65.1 56.7 L63.35 54.35 64.75 53.95 66.4 53.75" fill="#ffffff" fill-rule="evenodd" stroke="none"/>
    <path d="M65.6 59.5 L63.7 59.7 61.9 59.95 Q62.35 56.95 61.15 54.5 L61.65 54.6 62.2 54.35 64.15 56.65 Q65.2 58.05 65.6 59.5" fill="#ffffff" fill-rule="evenodd" stroke="none"/>
    <path d="M26.05 57.4 L47.75 60.1 53.85 60.85 60.5 61.25 Q60.2 65.0 59.85 73.7 58.85 73.6 58.85 72.35 L58.9 70.3 Q58.75 69.15 57.95 67.6 L56.8 65.35 Q48.7 64.4 43.9 65.35 44.2 66.15 43.9 67.6 43.5 69.1 43.7 69.7 L23.15 64.55 24.55 60.9 26.05 57.4" fill="#f6b138" fill-rule="evenodd" stroke="none"/>
    <path d="M86.05 74.3 L85.2 75.25 Q84.0 76.75 83.9 77.15 L75.6 77.4 67.5 77.65 64.85 76.95 62.2 76.35 Q61.2 75.35 61.0 73.75 60.8 72.65 61.0 69.7 L61.45 61.25 Q69.8 59.3 81.25 58.5 L82.75 59.95 Q83.55 60.85 83.75 61.9 83.25 62.25 82.75 61.5 L81.65 60.45 Q76.55 61.7 67.0 62.5 L64.5 62.6 Q63.0 62.7 62.2 63.3 62.55 65.25 62.55 69.25 L62.7 75.25 Q63.3 75.65 64.8 75.7 L66.5 76.35 68.3 76.85 73.4 76.5 79.0 76.35 Q82.2 76.3 83.6 75.7 84.25 75.45 85.15 74.5 85.95 73.55 86.5 73.35 L86.05 74.3" fill="#f6b138" fill-rule="evenodd" stroke="none"/>
    <path d="M85.5 69.05 L86.0 70.4 86.1 72.15 84.7 73.55 83.1 74.75 77.85 75.4 71.6 75.7 Q67.55 76.0 63.65 74.5 L63.35 63.5 Q69.45 63.6 79.15 62.05 L81.25 61.7 Q82.15 61.9 83.1 63.6 L84.4 66.3 85.5 69.05" fill="#b7d2d4" fill-rule="evenodd" stroke="none"/>
    <path d="M9.3 64.25 Q10.05 65.05 10.4 67.1 L9.8 67.4 9.15 67.6 8.35 65.05 Q8.35 64.7 8.7 64.55 L9.3 64.25" fill="#ffffff" fill-rule="evenodd" stroke="none"/>
    <path d="M93.65 66.0 L91.75 66.85 Q90.6 67.35 90.35 68.1 L88.1 67.6 87.65 66.25 Q87.3 65.45 87.45 65.05 L90.15 65.5 93.65 66.0" fill="#ffffff" fill-rule="evenodd" stroke="none"/>
    <path d="M45.5 66.0 L51.0 66.0 56.0 66.15 Q57.15 67.85 57.55 69.15 58.15 70.95 57.95 73.2 L51.65 71.7 Q47.65 70.6 45.15 70.3 L45.25 68.3 Q45.3 66.75 45.5 66.0" fill="#b7d2d4" fill-rule="evenodd" stroke="none"/>
    <path d="M97.15 66.95 L95.55 67.9 93.95 68.9 91.6 68.4 Q92.4 67.45 94.0 66.95 95.75 66.5 97.15 66.95" fill="#a01f28" fill-rule="evenodd" stroke="none"/>
    <path d="M100.7 67.75 L99.6 68.55 Q98.65 69.0 98.45 69.35 L95.75 69.05 97.3 68.2 98.6 67.1 Q99.45 67.15 100.7 67.75" fill="#ffffff" fill-rule="evenodd" stroke="none"/>
    <path d="M103.85 68.7 Q103.55 69.05 102.25 69.5 101.2 69.9 100.85 70.5 L100.2 70.15 99.4 70.0 102.1 68.4 102.9 68.35 103.85 68.7" fill="#a01f28" fill-rule="evenodd" stroke="none"/>
    <path d="M89.7 70.65 L88.75 68.7 93.1 69.6 97.95 70.15 Q98.65 70.2 100.2 71.3 L101.95 71.6 104.25 72.25 106.75 72.75 108.0 72.65 109.3 72.75 Q108.8 74.2 107.15 74.5 105.45 74.75 104.8 73.2 102.25 72.45 97.35 71.8 L89.7 70.65" fill="#ffffff" fill-rule="evenodd" stroke="none"/>
    <path d="M107.55 69.5 L106.15 70.45 Q105.1 70.9 104.8 71.45 L103.5 71.15 102.1 70.8 Q102.4 70.55 103.7 70.05 104.7 69.65 104.95 69.05 L106.2 69.35 107.55 69.5" fill="#ffffff" fill-rule="evenodd" stroke="none"/>
    <path d="M9.15 73.35 L9.8 75.55 Q10.05 77.2 10.4 77.8 L9.8 78.0 9.15 78.1 8.5 76.2 Q8.1 75.05 8.0 74.15 8.1 74.0 8.6 73.8 L9.15 73.35" fill="#ffffff" fill-rule="evenodd" stroke="none"/>
    <path d="M104.95 87.85 L104.7 88.0 103.2 88.0 Q105.2 85.45 108.35 82.15 L114.05 76.35 115.4 75.1 Q116.1 74.55 117.25 74.6 116.5 76.0 115.0 77.45 L112.3 79.9 109.95 82.6 104.95 87.85" fill="#6a151a" fill-rule="evenodd" stroke="none"/>
    <path d="M104.95 75.9 Q102.5 80.1 98.45 85.6 L97.4 87.25 Q96.6 88.2 95.55 88.0 L99.85 81.8 104.0 75.55 104.5 75.7 Q104.7 75.95 104.95 75.9" fill="#6a151a" fill-rule="evenodd" stroke="none"/>
    <path d="M34.45 80.35 L34.5 81.3 Q34.45 82.05 34.65 82.3 L32.4 83.0 30.2 83.75 Q30.35 82.3 31.35 81.35 32.6 80.2 34.45 80.35" fill="#ffffff" fill-rule="evenodd" stroke="none"/>
    <path d="M68.95 82.95 Q68.9 83.85 70.05 84.2 69.85 84.85 70.55 84.95 70.0 87.1 67.65 86.35 65.25 85.55 66.05 83.4 L67.45 82.95 Q68.25 82.6 68.95 82.95" fill="#ffffff" fill-rule="evenodd" stroke="none"/>
    <path d="M45.5 84.8 L46.95 85.45 48.05 86.25 48.0 86.65 47.75 86.9 48.35 87.05 Q48.95 88.55 47.55 89.75 46.2 90.95 44.85 90.55 43.35 90.15 43.2 88.15 42.95 86.2 44.35 85.3 L44.95 85.1 Q45.3 85.05 45.5 84.8" fill="#ffffff" fill-rule="evenodd" stroke="none"/>
    <path d="M27.15 85.45 L27.3 88.0 22.5 87.7 22.65 85.45 27.15 85.45" fill="#ffffff" fill-rule="evenodd" stroke="none"/>
    <path d="M34.9 87.55 L34.65 88.95 Q32.6 89.2 30.35 90.25 L26.65 92.2 Q26.15 90.4 26.35 88.95 26.9 88.8 27.2 89.1 L27.8 89.45 30.35 87.9 Q31.9 87.05 33.5 86.9 L33.95 86.65 34.15 86.25 34.75 86.35 35.25 86.25 34.9 87.55" fill="#ffffff" fill-rule="evenodd" stroke="none"/>
    <path d="M19.85 88.15 L25.4 88.95 25.5 90.75 25.7 92.35 22.75 92.2 20.0 91.55 19.85 88.15" fill="#ffffff" fill-rule="evenodd" stroke="none"/>
    <path d="M56.95 2.4 Q55.85 2.45 54.9 2.9 55.5 4.05 55.6 7.2 55.7 10.25 56.35 11.35 L55.7 11.35 Q55.8 12.05 56.6 12.15 L57.95 12.15 59.35 11.9 60.8 11.65 62.3 11.6 63.35 11.2 63.0 6.4 Q62.9 3.65 62.35 1.45 L56.95 2.4 M65.95 4.75 L65.9 12.6 47.1 15.75 46.7 15.2 Q46.5 14.85 46.1 14.8 46.05 14.5 46.4 14.6 L46.95 14.5 48.2 14.15 49.5 13.7 51.0 13.75 52.3 13.4 Q52.0 11.85 51.8 8.25 51.65 4.7 51.25 3.05 L51.0 3.45 50.9 2.9 46.75 3.55 Q44.25 3.85 42.75 4.45 L43.65 8.5 Q44.1 11.2 44.7 13.1 L40.1 8.75 39.3 6.3 Q38.8 4.85 38.65 3.8 L36.8 3.7 34.95 3.95 33.6 2.4 Q32.8 1.4 31.9 1.15 33.65 0.45 36.55 -0.05 L41.8 -0.8 47.1 -1.6 52.15 -1.6 58.6 -2.5 65.6 -3.2 Q66.0 -0.95 65.95 4.75" fill="#e4aeb0" fill-rule="evenodd" stroke="none"/>
    <path d="M56.95 2.4 Q55.85 2.45 54.9 2.9 55.5 4.05 55.6 7.2 55.7 10.25 56.35 11.35 L55.7 11.35 Q55.8 12.05 56.6 12.15 L57.95 12.15 59.35 11.9 60.8 11.65 62.3 11.6 63.35 11.2 63.0 6.4 Q62.9 3.65 62.35 1.45 L56.95 2.4 M65.95 4.75 L65.9 12.6 47.1 15.75 46.7 15.2 Q46.5 14.85 46.1 14.8 46.05 14.5 46.4 14.6 L46.95 14.5 48.2 14.15 49.5 13.7 51.0 13.75 52.3 13.4 Q52.0 11.85 51.8 8.25 51.65 4.7 51.25 3.05 L51.0 3.45 50.9 2.9 46.75 3.55 Q44.25 3.85 42.75 4.45 L43.65 8.5 Q44.1 11.2 44.7 13.1 L40.1 8.75 39.3 6.3 Q38.8 4.85 38.65 3.8 L36.8 3.7 34.95 3.95 33.6 2.4 Q32.8 1.4 31.9 1.15 33.65 0.45 36.55 -0.05 L41.8 -0.8 47.1 -1.6 52.15 -1.6 58.6 -2.5 65.6 -3.2 Q66.0 -0.95 65.95 4.75" fill="none" stroke="#cb5c62" stroke-linecap="butt" stroke-linejoin="miter" stroke-width="1.0"/>
    <path d="M31.15 7.95 Q31.95 9.25 32.45 11.55 L33.05 15.45 37.4 14.65 Q39.65 14.55 40.3 16.25 L40.4 16.55 35.55 17.5 30.7 18.35 30.15 15.25 29.4 11.8 29.25 8.75 28.6 6.45 Q28.2 5.25 28.25 4.3 28.75 4.6 28.45 4.6 28.9 4.75 29.8 5.65 L31.25 7.0 31.05 7.5 Q30.95 7.75 31.15 7.95 M39.6 16.35 L40.3 16.25 39.6 16.35" fill="#e4aeb0" fill-rule="evenodd" stroke="none"/>
    <path d="M31.15 7.95 Q31.95 9.25 32.45 11.55 L33.05 15.45 37.4 14.65 Q39.65 14.55 40.3 16.25" fill="none" stroke="#cb5c62" stroke-linecap="butt" stroke-linejoin="miter" stroke-width="1.0"/>
    <path d="M40.3 16.25 L40.4 16.55 35.55 17.5 30.7 18.35 30.15 15.25 29.4 11.8 29.25 8.75 28.6 6.45 Q28.2 5.25 28.25 4.3 28.75 4.6 28.45 4.6 28.9 4.75 29.8 5.65 L31.25 7.0 31.05 7.5 Q30.95 7.75 31.15 7.95 M40.3 16.25 L39.6 16.35" fill="none" stroke="#cb5c62" stroke-linecap="round" stroke-linejoin="miter" stroke-width="1.0"/>
    <path d="M38.65 8.15 L38.95 8.9 39.75 9.4 38.75 10.0 Q37.9 10.25 37.7 10.55 L36.6 9.7 35.6 8.75 Q35.95 8.4 36.65 8.1 L37.85 7.5 Q38.3 8.65 38.65 8.15" fill="#ffffff" fill-rule="evenodd" stroke="none"/>
    <path d="M50.3 16.4 L51.0 20.4 51.35 24.7 47.75 25.0 47.55 23.2 Q47.45 22.2 46.95 21.7 47.3 20.75 47.15 19.35 L46.75 17.05 48.35 16.7 50.3 16.4" fill="#ffffff" fill-rule="evenodd" stroke="none"/>
    <path d="M88.25 31.1 L87.1 32.0 Q86.5 32.55 86.3 33.2 L83.45 33.65 Q83.75 32.1 88.25 31.1" fill="#d3777c" fill-rule="evenodd" stroke="none"/>
    <path d="M65.15 40.5 L65.1 41.8 64.95 47.2 63.9 47.3 62.85 47.35 62.35 42.25 62.5 41.0 Q62.45 40.3 61.75 40.35 61.45 41.7 61.7 43.95 L61.9 47.5 59.55 47.85 Q59.2 43.55 58.6 40.85 L61.7 40.15 64.95 39.55 Q65.15 39.85 65.15 40.5" fill="#ffffff" fill-rule="evenodd" stroke="none"/>
    <path d="M87.3 45.1 L85.7 52.1 Q84.55 56.55 84.25 58.85 83.95 58.85 83.95 58.7 L83.9 58.2 Q83.6 58.5 83.75 58.55 L83.75 58.85 83.4 58.45 83.45 57.7 Q83.55 56.9 84.0 55.2 L84.7 52.3 86.15 45.25 86.75 45.2 87.3 45.1" fill="#d3777c" fill-rule="evenodd" stroke="none"/>
    <path d="M93.3 47.2 Q92.8 47.2 92.85 47.5 L93.15 47.5 93.3 47.2 M92.7 47.65 Q92.5 47.55 92.65 47.25 L92.85 46.7 93.1 46.95 93.5 46.85 Q93.7 47.8 92.7 47.65" fill="#ffffff" fill-rule="evenodd" stroke="none"/>
    <path d="M94.75 47.05 Q94.75 47.2 95.1 47.2 L94.6 47.35 94.6 46.7 95.4 46.7 Q95.15 47.15 95.4 47.2 95.35 47.4 95.2 47.2 95.0 46.9 94.75 47.05" fill="#ffffff" fill-rule="evenodd" stroke="none"/>
    <path d="M69.45 52.0 L68.0 52.3 65.4 52.95 Q53.7 50.75 45.3 48.65 L48.8 48.8 52.8 49.45 55.55 49.7 58.25 50.05 64.4 51.05 70.85 51.7 70.25 52.05 69.45 52.0 M50.2 49.6 Q50.7 49.6 50.3 49.25 49.65 49.55 50.2 49.6" fill="#ffffff" fill-rule="evenodd" stroke="none"/>
    <path d="M44.2 49.25 L46.95 50.05 50.65 50.8 Q53.3 51.3 54.9 51.85 L48.3 50.9 41.45 49.75 42.75 49.25 Q43.4 49.1 44.2 49.25" fill="#ffffff" fill-rule="evenodd" stroke="none"/>
    <path d="M26.35 56.45 Q26.65 55.8 27.15 56.25 27.1 54.4 29.7 51.7 31.5 52.35 34.4 52.5 L39.45 52.8 44.05 53.6 56.5 55.15 Q59.1 55.65 60.2 56.1 L60.35 58.25 60.35 60.1 60.2 60.25 Q60.1 60.1 60.0 60.1 L50.4 59.6 41.05 58.5 33.65 57.6 26.35 56.45" fill="#ffffff" fill-rule="evenodd" stroke="none"/>
    <path d="M55.85 52.0 L58.4 52.5 57.65 52.6 56.8 52.3 56.15 52.3 Q55.8 52.3 55.85 52.0" fill="#ffffff" fill-rule="evenodd" stroke="none"/>
    <path d="M110.45 70.0 Q108.5 72.15 106.25 71.6 L108.35 70.45 Q109.7 69.8 110.45 70.0" fill="#a01f28" fill-rule="evenodd" stroke="none"/>
    <path d="M17.25 56.15 Q18.45 59.7 19.0 62.7 L19.75 65.5 20.15 68.1 Q20.1 69.05 19.35 70.7 L18.2 73.2 Q18.2 73.5 18.4 73.05 18.65 73.4 18.55 74.2 18.45 75.05 18.05 75.25 17.45 75.4 17.1 74.9 L16.6 74.0 Q16.0 72.95 15.1 70.5 L13.55 66.95 Q13.1 64.25 11.35 60.9 11.35 60.55 11.65 60.45 11.1 60.1 10.75 59.0 L9.95 57.05 Q11.65 54.25 14.05 48.0 14.55 48.2 14.8 48.95 L15.2 50.25 17.25 56.15 M17.6 74.75 L17.4 74.75 17.4 75.1 18.2 74.9 18.15 74.65 18.05 74.5 Q18.1 75.05 17.8 74.9 L17.6 74.75" fill="#6a151a" fill-rule="evenodd" stroke="none"/>
    <path d="M17.25 56.15 Q18.45 59.7 19.0 62.7 L19.75 65.5 20.15 68.1 Q20.1 69.05 19.35 70.7 L18.2 73.2 Q18.2 73.5 18.4 73.05 18.65 73.4 18.55 74.2 18.45 75.05 18.05 75.25 17.45 75.4 17.1 74.9 L16.6 74.0 Q16.0 72.95 15.1 70.5 L13.55 66.95 Q13.1 64.25 11.35 60.9 11.35 60.55 11.65 60.45 11.1 60.1 10.75 59.0 L9.95 57.05 Q11.65 54.25 14.05 48.0 14.55 48.2 14.8 48.95 L15.2 50.25 17.25 56.15 M17.6 74.75 L17.4 74.75 17.4 75.1 18.2 74.9 18.15 74.65 18.05 74.5 Q18.1 75.05 17.8 74.9 L17.6 74.75" fill="none" stroke="#8e5053" stroke-linecap="butt" stroke-linejoin="miter" stroke-width="1.0"/>
    <path d="M32.55 8.45 L33.05 8.6 Q34.3 10.25 37.85 13.7 L33.85 14.15 32.55 8.45" fill="#ffffff" fill-rule="evenodd" stroke="none"/>
    <path d="M44.7 14.5 Q42.95 15.25 41.65 15.15 L41.25 14.55 40.9 13.9 41.9 13.4 42.75 12.8 43.9 13.8 44.7 14.5" fill="#ffffff" fill-rule="evenodd" stroke="none"/>
    <path d="M45.2 15.65 L45.95 15.75 44.55 16.05 43.25 16.1 Q43.85 15.7 45.3 15.3 L45.2 15.65" fill="#ffffff" fill-rule="evenodd" stroke="none"/>
    <path d="M41.65 17.55 Q42.1 18.9 42.4 21.7 42.6 24.55 42.9 25.5 L39.3 26.15 Q38.7 20.65 38.15 18.0 L41.65 17.55" fill="#ffffff" fill-rule="evenodd" stroke="none"/>
    <path d="M58.75 15.45 Q58.65 20.55 59.4 23.3 59.0 23.65 58.05 23.8 L56.5 24.05 56.15 19.95 55.55 15.75 57.1 15.55 58.75 15.45" fill="#ffffff" fill-rule="evenodd" stroke="none"/>
    <path d="M37.05 18.2 Q37.65 19.5 37.95 22.15 L38.5 26.45 37.35 26.55 Q36.7 26.6 36.4 26.8 L35.75 22.9 34.95 18.8 Q35.05 18.55 35.9 18.5 L37.05 18.2" fill="#ffffff" fill-rule="evenodd" stroke="none"/>
    <path d="M34.15 18.8 L34.85 22.95 Q35.25 25.4 35.25 26.95 L33.65 27.1 32.25 27.1 31.85 23.05 Q31.6 20.7 30.95 19.45 32.35 18.9 34.15 18.8" fill="#ffffff" fill-rule="evenodd" stroke="none"/>
    <path d="M62.2 31.1 Q62.35 31.55 61.95 32.35 61.45 33.2 61.45 33.65 L58.25 34.15 59.55 31.75 60.9 31.45 62.2 31.1" fill="#ffffff" fill-rule="evenodd" stroke="none"/>
    <path d="M60.8 34.6 L59.7 36.8 58.05 37.05 56.35 37.15 57.1 36.2 57.8 34.9 59.15 34.85 60.8 34.6" fill="#ffffff" fill-rule="evenodd" stroke="none"/>
    <path d="M97.0 34.25 Q97.35 34.95 97.5 36.15 97.7 37.3 97.5 37.8 L97.05 37.85 Q96.75 37.95 97.15 38.25 94.4 38.85 91.15 40.35 L90.7 41.25 90.15 42.1 90.1 42.8 Q89.95 43.15 90.35 43.05 89.45 43.65 88.1 43.7 L88.0 42.25 Q87.85 41.45 88.1 41.0 87.8 40.9 87.65 39.25 L87.45 36.0 Q87.0 34.3 87.1 33.85 87.4 32.65 88.75 32.05 90.65 31.25 90.95 30.95 L91.9 31.2 92.85 30.95 95.05 32.35 Q96.6 33.3 97.0 34.25" fill="#ffffff" fill-rule="evenodd" stroke="none"/>
    <path d="M59.05 37.8 Q58.8 38.05 58.25 39.7 L54.9 40.2 Q54.8 39.8 55.25 39.15 55.85 38.35 55.85 37.95 L57.6 38.0 59.05 37.8" fill="#ffffff" fill-rule="evenodd" stroke="none"/>
    <path d="M98.3 38.75 L100.4 39.3 Q101.7 39.7 102.25 40.35 L96.05 40.65 Q96.25 40.2 97.0 39.85 L98.15 39.7 98.25 39.25 98.3 38.75" fill="#ffffff" fill-rule="evenodd" stroke="none"/>
    <path d="M21.2 32.85 L22.35 37.0 23.45 41.45 Q22.6 42.05 20.7 42.7 L17.75 43.8 Q16.55 42.25 15.55 39.55 L13.9 34.75 17.45 33.7 21.2 32.85 M19.2 34.9 Q17.0 35.65 16.3 36.8 L16.9 38.5 17.4 40.2 Q16.8 40.4 17.1 41.15 L18.55 40.9 Q19.7 40.4 20.15 40.35 L19.2 34.9" fill="#ffffff" fill-rule="evenodd" stroke="none"/>
    <path d="M93.3 42.25 L100.05 41.8 101.4 41.7 Q102.1 41.65 102.4 41.15 103.3 41.05 103.2 41.65 103.0 42.55 100.85 43.05 L96.85 43.45 92.85 42.9 91.95 42.55 Q91.45 42.25 91.9 41.8 L92.5 41.75 93.3 42.25" fill="#d3777c" fill-rule="evenodd" stroke="none"/>
    <path d="M96.75 45.05 L96.85 44.35 Q101.35 44.2 102.55 43.25 102.5 48.05 96.7 50.4 L96.65 49.25 96.55 48.15 Q98.45 48.15 98.6 47.35 L97.65 47.3 96.55 47.5 Q96.85 46.9 96.55 46.85 L98.65 46.3 Q100.05 45.95 99.75 44.95 L98.3 45.45 96.55 45.6 96.75 45.05" fill="#ffffff" fill-rule="evenodd" stroke="none"/>
    <path d="M37.05 43.55 L38.15 48.45 37.25 48.5 36.4 48.65 35.8 46.35 35.25 43.7 36.2 43.5 37.05 43.55" fill="#ffffff" fill-rule="evenodd" stroke="none"/>
    <path d="M45.0 42.25 L45.3 44.45 45.8 46.85 Q42.9 48.05 38.95 48.3 38.45 44.7 37.85 43.4 L39.25 43.15 Q40.0 43.05 40.4 42.75 L40.95 45.55 Q41.15 47.4 41.95 47.85 42.3 47.5 41.95 45.45 41.7 43.5 41.2 42.6 L45.0 42.25" fill="#ffffff" fill-rule="evenodd" stroke="none"/>
    <path d="M53.95 41.65 L54.1 41.8 Q54.5 46.05 55.05 48.3 L50.75 47.85 Q50.55 44.95 49.95 41.8 L53.95 41.65" fill="#ffffff" fill-rule="evenodd" stroke="none"/>
    <path d="M29.3 16.0 L30.95 26.0 35.1 48.95 32.1 49.45 29.25 50.05 27.15 52.0 25.55 45.2 Q24.3 40.65 23.95 38.75 L22.6 31.85 20.95 25.35 Q19.6 21.15 19.0 18.8 L18.55 16.65 Q18.15 15.4 17.4 14.8 L21.7 8.95 23.95 6.05 25.2 4.75 25.85 3.75 Q26.3 3.2 26.65 3.35 L26.5 3.7 27.05 4.75 27.3 6.05 29.3 16.0" fill="#6a151a" fill-rule="evenodd" stroke="none"/>
    <path d="M29.3 16.0 L30.95 26.0 35.1 48.95 32.1 49.45 29.25 50.05 27.15 52.0 25.55 45.2 Q24.3 40.65 23.95 38.75 L22.6 31.85 20.95 25.35 Q19.6 21.15 19.0 18.8 L18.55 16.65 Q18.15 15.4 17.4 14.8 L21.7 8.95 23.95 6.05 25.2 4.75 25.85 3.75 Q26.3 3.2 26.65 3.35 L26.5 3.7 27.05 4.75 27.3 6.05 29.3 16.0 Z" fill="none" stroke="#8e5053" stroke-linecap="butt" stroke-linejoin="miter" stroke-width="1.0"/>
    <path d="M93.5 48.65 L93.5 49.85 93.5 51.05 Q93.0 51.2 92.75 50.4 92.45 49.7 92.5 48.8 L93.5 48.65" fill="#ffffff" fill-rule="evenodd" stroke="none"/>
    <path d="M94.45 48.45 L95.55 48.45 Q95.65 50.0 95.9 50.55 L94.45 51.2 94.55 49.9 94.45 48.45" fill="#ffffff" fill-rule="evenodd" stroke="none"/>
    <path d="M43.0 50.8 L50.75 52.3 57.95 53.6 52.0 53.45 45.95 52.65 40.8 52.1 35.9 51.2 35.35 51.1 Q35.0 51.05 34.95 50.7 38.25 50.05 43.0 50.8" fill="#ffffff" fill-rule="evenodd" stroke="none"/>
    <path d="M17.9 47.65 Q19.25 50.15 19.35 52.95 20.0 53.05 20.8 52.55 L22.2 51.7 Q22.0 48.75 20.75 46.25 20.1 46.4 19.25 46.9 L17.9 47.65 M22.35 45.9 Q22.1 48.0 22.8 49.7 23.65 51.8 25.4 50.55 L25.8 51.85 26.2 53.1 25.15 54.95 Q24.4 55.95 24.6 56.75 L24.2 56.85 24.25 57.4 Q23.8 57.05 23.6 55.8 23.45 54.4 23.15 54.05 L21.45 54.85 Q20.4 55.25 20.15 55.65 L20.7 58.2 Q20.95 59.8 21.7 60.3 L22.7 59.9 23.45 59.3 Q23.1 61.25 21.4 64.55 L21.3 65.15 20.95 65.35 19.65 60.6 17.95 53.05 Q16.85 48.85 15.35 46.05 20.25 43.75 23.45 42.75 23.85 43.05 24.05 44.15 24.2 45.45 24.4 45.75 L23.55 45.95 22.35 45.9" fill="#ffffff" fill-rule="evenodd" stroke="none"/>
    <path d="M22.65 55.3 Q22.65 55.95 22.95 56.95 L23.15 58.5 22.45 58.95 21.7 59.3 Q21.5 57.0 21.05 55.8 L21.85 55.6 Q22.3 55.3 22.65 55.3" fill="#ffffff" fill-rule="evenodd" stroke="none"/>
    <path d="M115.65 70.8 Q114.05 71.8 110.25 71.95 110.15 71.55 111.0 71.15 112.0 70.65 112.0 70.15 L113.9 70.45 115.65 70.8" fill="#ffffff" fill-rule="evenodd" stroke="none"/>
    <path d="M120.0 71.45 L119.4 72.15 118.85 72.9 109.65 74.5 Q109.3 74.75 109.3 74.3 L109.8 74.0 110.25 73.2 114.95 72.2 120.0 71.45" fill="#ffffff" fill-rule="evenodd" stroke="none"/>
    <path d="M14.2 76.5 L13.8 76.6 13.4 76.7 12.75 74.15 Q12.3 72.75 13.1 72.25 L13.55 74.2 Q13.95 75.5 13.75 75.55 13.6 75.7 13.95 75.85 14.3 76.0 14.2 76.5" fill="#ffffff" fill-rule="evenodd" stroke="none"/>
    <path d="M40.75 85.3 L40.1 85.05 Q39.7 84.8 39.45 84.8 40.65 81.35 44.95 79.65 49.45 77.95 53.3 80.35 55.6 82.75 55.7 88.5 L54.1 88.0 Q54.55 86.35 53.75 84.75 53.35 83.85 52.0 82.3 49.65 79.45 45.45 80.7 41.3 81.9 40.75 85.3" fill="#80a4a4" fill-rule="evenodd" stroke="none"/>
    <path d="M22.65 81.5 L26.55 81.3 30.35 81.15 Q29.7 81.7 29.4 82.7 29.0 83.8 29.25 84.7 27.85 84.5 27.45 84.05 L27.15 84.3 26.85 84.55 23.75 84.3 20.75 84.2 Q20.65 84.1 20.7 83.7 L20.45 83.1 Q20.8 83.05 21.55 82.4 22.1 81.8 22.5 81.95 L22.65 81.5" fill="#ffffff" fill-rule="evenodd" stroke="none"/>
    <path d="M16.3 80.85 L16.9 82.2 17.25 83.75 Q17.05 84.2 15.8 84.2 L15.4 82.55 15.0 81.15 16.3 80.85" fill="#ffffff" fill-rule="evenodd" stroke="none"/>
    <path d="M11.65 81.8 Q12.15 82.15 12.3 83.2 L12.3 84.8 11.5 84.8 Q11.35 83.45 10.85 82.45 L11.2 82.1 11.65 81.8" fill="#ffffff" fill-rule="evenodd" stroke="none"/>
    <path d="M86.8 83.4 L87.0 83.15 87.3 83.25 87.05 83.8 87.1 84.4 Q86.5 85.1 85.0 85.0 83.55 84.85 83.25 84.05 82.85 82.35 84.95 81.8 87.0 81.3 86.8 83.4" fill="#ffffff" fill-rule="evenodd" stroke="none"/>
    <path d="M52.8 86.25 L52.9 86.65 52.95 87.05 51.1 87.35 51.0 87.0 50.9 86.55 52.8 86.25" fill="#ffffff" fill-rule="evenodd" stroke="none"/>
    <path d="M49.7 87.1 Q50.2 87.65 50.1 88.9 49.85 90.3 48.7 90.55 48.4 90.2 49.5 89.15 L49.35 87.5 49.0 86.1 49.3 86.2 49.65 86.1 Q49.4 86.4 49.55 86.55 L49.8 86.75 Q49.9 87.3 49.7 87.1" fill="#ffffff" fill-rule="evenodd" stroke="none"/>
    <path d="M61.45 2.4 Q59.9 3.05 56.0 3.35 L56.45 6.9 56.8 10.7 Q56.9 10.95 56.65 11.0 56.4 11.05 56.5 11.35 L62.2 10.7 62.1 6.8 61.75 2.75 61.45 2.4 M62.35 1.45 Q62.9 3.65 63.0 6.4 L63.35 11.2 62.3 11.6 60.8 11.65 59.35 11.9 57.95 12.15 56.6 12.15 Q55.8 12.05 55.7 11.35 L56.35 11.35 Q55.7 10.25 55.6 7.2 55.5 4.05 54.9 2.9 55.85 2.45 56.95 2.4 L62.35 1.45" fill="#350b0d" fill-rule="evenodd" stroke="none"/>
    <path d="M20.15 40.35 Q19.7 40.4 18.55 40.9 L17.1 41.15 Q16.8 40.4 17.4 40.2 L16.9 38.5 16.3 36.8 Q17.0 35.65 19.2 34.9 L20.15 40.35 M17.55 37.75 L18.05 39.85 19.2 39.85 Q18.85 37.2 18.4 36.2 17.35 36.5 17.55 37.75" fill="#350b0d" fill-rule="evenodd" stroke="none"/>
    <path d="M20.75 46.25 Q22.0 48.75 22.2 51.7 L20.8 52.55 Q20.0 53.05 19.35 52.95 19.25 50.15 17.9 47.65 L19.25 46.9 Q20.1 46.4 20.75 46.25 M20.85 49.35 L20.45 47.5 Q19.35 47.7 19.0 48.15 19.45 48.7 19.7 49.75 L20.15 51.7 20.8 51.5 21.2 51.2 20.85 49.35" fill="#350b0d" fill-rule="evenodd" stroke="none"/>
    <path d="M93.15 47.5 L92.85 47.5 Q92.8 47.2 93.3 47.2 L93.15 47.5" fill="#350b0d" fill-rule="evenodd" stroke="none"/>
    <path d="M50.3 49.25 Q50.7 49.6 50.2 49.6 49.65 49.55 50.3 49.25" fill="#350b0d" fill-rule="evenodd" stroke="none"/>
    <path d="M8.6 73.8 Q8.1 74.0 8.0 74.15 8.1 75.05 8.5 76.2 L9.15 78.1 9.8 78.0 10.4 77.8 Q10.05 77.2 9.8 75.55 L9.15 73.35 8.6 73.8 M9.95 72.4 L10.7 75.45 Q11.2 77.3 11.15 78.6 L9.6 78.75 Q9.35 78.95 9.55 79.25 L9.45 79.75 Q8.85 79.85 8.65 79.35 L8.5 78.45 7.85 76.7 7.2 74.9 6.9 74.5 6.55 74.0 8.15 72.9 Q9.1 72.2 9.95 72.4" fill="#350b0d" fill-rule="evenodd" stroke="none"/>
    <path d="M17.4 79.4 L17.1 79.1 Q17.1 79.05 17.4 78.95 L17.4 79.4" fill="#350b0d" fill-rule="evenodd" stroke="none"/>
    <path d="M66.6 82.05 Q68.2 81.3 69.6 81.5 70.25 81.6 71.0 82.15 L72.1 83.4 Q73.5 86.0 71.1 87.2 68.8 88.4 66.05 87.2 L65.15 85.55 Q64.55 84.55 64.8 83.55 65.0 82.75 66.6 82.05 M70.55 84.95 Q69.85 84.85 70.05 84.2 68.9 83.85 68.95 82.95 68.25 82.6 67.45 82.95 L66.05 83.4 Q65.25 85.55 67.65 86.35 70.0 87.1 70.55 84.95" fill="#350b0d" fill-rule="evenodd" stroke="none"/>
    <path d="M87.1 84.4 L87.05 83.8 87.3 83.25 87.0 83.15 86.8 83.4 Q87.0 81.3 84.95 81.8 82.85 82.35 83.25 84.05 83.55 84.85 85.0 85.0 86.5 85.1 87.1 84.4 M50.9 86.55 L51.0 87.0 51.1 87.35 52.95 87.05 52.9 86.65 52.8 86.25 50.9 86.55 M49.7 87.1 Q49.9 87.3 49.8 86.75 L49.55 86.55 Q49.4 86.4 49.65 86.1 L49.3 86.2 49.0 86.1 49.35 87.5 49.5 89.15 Q48.4 90.2 48.7 90.55 49.85 90.3 50.1 88.9 50.2 87.65 49.7 87.1 M56.8 52.3 L57.65 52.6 58.4 52.5 55.85 52.0 Q55.8 52.3 56.15 52.3 L56.8 52.3 M61.65 54.6 L61.15 54.5 Q62.35 56.95 61.9 59.95 L63.7 59.7 65.6 59.5 Q65.2 58.05 64.15 56.65 L62.2 54.35 61.65 54.6 M86.55 67.65 L85.7 66.65 86.65 69.15 Q87.4 70.65 86.95 71.45 86.35 71.25 86.0 70.45 L85.5 69.05 84.4 66.3 83.1 63.6 Q82.15 61.9 81.25 61.7 L79.15 62.05 Q69.45 63.6 63.35 63.5 L63.65 74.5 Q67.55 76.0 71.6 75.7 L77.85 75.4 83.1 74.75 Q83.9 74.5 85.2 73.05 86.35 71.7 87.3 71.6 87.4 71.8 87.65 71.8 87.9 71.8 87.9 71.95 87.75 71.95 87.85 72.05 L88.1 72.1 Q88.4 71.4 88.0 70.55 L87.1 69.05 86.55 67.65 M84.8 63.7 Q84.5 63.0 83.9 63.15 L84.5 64.05 Q84.75 64.75 85.2 64.85 L84.8 63.7 M87.45 63.9 L87.9 63.8 87.35 63.65 Q86.9 63.55 86.8 63.8 L87.45 63.9 M69.75 58.7 L68.3 56.0 Q67.4 54.5 66.4 53.75 L64.75 53.95 63.35 54.35 65.1 56.7 Q66.1 58.05 66.55 59.3 L68.15 59.05 69.75 58.7 M72.6 54.35 Q71.15 53.3 70.2 53.1 69.05 52.9 67.5 53.6 68.4 54.4 69.25 55.95 L70.7 58.7 76.1 58.05 Q75.9 57.35 75.05 56.55 L73.55 55.3 72.6 54.35 M70.25 52.05 L70.85 51.7 64.4 51.05 58.25 50.05 55.55 49.7 52.8 49.45 48.8 48.8 45.3 48.65 Q53.7 50.75 65.4 52.95 L68.0 52.3 69.45 52.0 70.25 52.05 M78.85 57.7 L80.45 57.55 Q79.05 55.0 77.0 53.65 74.45 52.0 71.8 52.95 L73.6 54.15 75.45 55.65 76.45 56.9 77.55 57.85 78.85 57.7 M82.75 59.95 L81.25 58.5 Q69.8 59.3 61.45 61.25 L61.0 69.7 Q60.8 72.65 61.0 73.75 61.2 75.35 62.2 76.35 L64.85 76.95 67.5 77.65 75.6 77.4 83.9 77.15 Q84.0 76.75 85.2 75.25 L86.05 74.3 86.5 73.35 Q85.95 73.55 85.15 74.5 84.25 75.45 83.6 75.7 82.2 76.3 79.0 76.35 L73.4 76.5 68.3 76.85 66.5 76.35 64.8 75.7 Q63.3 75.65 62.7 75.25 L62.55 69.25 Q62.55 65.25 62.2 63.3 63.0 62.7 64.5 62.6 L67.0 62.5 Q76.55 61.7 81.65 60.45 L82.75 61.5 Q83.25 62.25 83.75 61.9 83.55 60.85 82.75 59.95 M32.4 83.0 L34.65 82.3 Q34.45 82.05 34.5 81.3 L34.45 80.35 Q32.6 80.2 31.35 81.35 30.35 82.3 30.2 83.75 L32.4 83.0 M29.4 85.75 L28.85 85.7 28.25 85.6 28.25 87.7 30.8 86.5 Q32.35 85.7 33.5 85.95 L33.55 84.65 Q33.6 83.85 33.2 83.75 L31.1 84.6 Q29.8 85.05 29.4 85.75 M45.5 84.8 Q45.3 85.05 44.95 85.1 L44.35 85.3 Q42.95 86.2 43.2 88.15 43.35 90.15 44.85 90.55 46.2 90.95 47.55 89.75 48.95 88.55 48.35 87.05 L47.75 86.9 48.0 86.65 48.05 86.25 46.95 85.45 45.5 84.8 M34.9 87.55 L35.25 86.25 34.75 86.35 34.15 86.25 33.95 86.65 33.5 86.9 Q31.9 87.05 30.35 87.9 L27.8 89.45 27.2 89.1 Q26.9 88.8 26.35 88.95 26.15 90.4 26.65 92.2 L30.35 90.25 Q32.6 89.2 34.65 88.95 L34.9 87.55 M39.45 84.8 Q39.7 84.8 40.1 85.05 L40.75 85.3 Q41.3 81.9 45.45 80.7 49.65 79.45 52.0 82.3 53.35 83.85 53.75 84.75 54.55 86.35 54.1 88.0 L55.7 88.5 Q55.6 82.75 53.3 80.35 49.45 77.95 44.95 79.65 40.65 81.35 39.45 84.8 M20.0 91.55 L22.75 92.2 25.7 92.35 25.5 90.75 25.4 88.95 19.85 88.15 20.0 91.55 M11.2 82.1 L10.85 82.45 Q11.35 83.45 11.5 84.8 L12.3 84.8 12.3 83.2 Q12.15 82.15 11.65 81.8 L11.2 82.1 M22.65 85.45 L22.5 87.7 27.3 88.0 27.15 85.45 22.65 85.45 M22.65 81.5 L22.5 81.95 Q22.1 81.8 21.55 82.4 20.8 83.05 20.45 83.1 L20.7 83.7 Q20.65 84.1 20.75 84.2 L23.75 84.3 26.85 84.55 27.15 84.3 27.45 84.05 Q27.85 84.5 29.25 84.7 29.0 83.8 29.4 82.7 29.7 81.7 30.35 81.15 L26.55 81.3 22.65 81.5 M17.25 83.75 L16.9 82.2 16.3 80.85 15.0 81.15 15.4 82.55 15.8 84.2 Q17.05 84.2 17.25 83.75 M18.4 83.55 Q18.2 83.4 18.4 82.9 18.5 82.5 18.05 82.45 L18.05 83.15 Q18.05 83.5 18.4 83.55 M18.2 81.15 Q18.05 81.15 17.85 81.3 L17.6 81.15 Q17.55 81.65 17.85 81.6 L18.2 81.15 M17.1 79.55 L17.55 79.35 18.05 79.25 17.75 78.95 18.05 78.45 Q17.7 78.7 17.4 78.35 17.15 77.9 16.8 77.95 16.65 78.7 17.1 79.55 M10.7 64.7 L11.15 66.3 11.8 66.15 12.3 65.85 11.4 63.3 10.2 61.1 7.9 62.1 5.45 63.0 7.55 68.55 Q7.9 68.6 8.35 68.25 8.25 66.55 7.05 64.45 7.9 63.55 10.1 63.15 L10.7 64.7 M12.6 67.1 L12.45 67.45 10.2 68.55 9.6 69.05 8.95 69.05 8.5 69.7 Q6.85 70.85 4.8 71.75 5.05 73.55 6.25 76.65 7.5 80.0 7.85 81.8 8.4 82.45 8.75 83.65 L9.3 85.45 10.85 85.3 9.8 81.15 12.45 80.7 Q13.7 83.5 13.4 85.6 L15.05 85.6 17.6 85.95 Q20.35 86.8 20.95 85.75 19.7 85.65 19.2 85.05 L18.7 84.4 17.15 84.95 15.35 85.3 14.35 82.75 Q13.9 81.1 14.35 80.05 L15.2 80.25 16.15 80.2 Q15.6 78.05 15.8 76.7 L16.15 75.7 15.45 73.8 14.35 71.6 13.5 69.05 12.6 67.1 M9.3 64.25 L8.7 64.55 Q8.35 64.7 8.35 65.05 L9.15 67.6 9.8 67.4 10.4 67.1 Q10.05 65.05 9.3 64.25 M22.95 56.95 Q22.65 55.95 22.65 55.3 22.3 55.3 21.85 55.6 L21.05 55.8 Q21.5 57.0 21.7 59.3 L22.45 58.95 23.15 58.5 22.95 56.95 M15.2 50.25 L14.8 48.95 Q14.55 48.2 14.05 48.0 11.65 54.25 9.95 57.05 L10.75 59.0 Q11.1 60.1 11.65 60.45 11.35 60.55 11.35 60.9 13.1 64.25 13.55 66.95 L15.1 70.5 Q16.0 72.95 16.6 74.0 L17.1 74.9 Q17.45 75.4 18.05 75.25 18.45 75.05 18.55 74.2 18.65 73.4 18.4 73.05 18.2 73.5 18.2 73.2 L19.35 70.7 Q20.1 69.05 20.15 68.1 L19.75 65.5 19.0 62.7 Q18.45 59.7 17.25 56.15 L15.2 50.25 M45.25 68.3 L45.15 70.3 Q47.65 70.6 51.65 71.7 L57.95 73.2 Q58.15 70.95 57.55 69.15 57.15 67.85 56.0 66.15 L51.0 66.0 45.5 66.0 Q45.3 66.75 45.25 68.3 M26.05 57.4 L24.55 60.9 23.15 64.55 43.7 69.7 Q43.5 69.1 43.9 67.6 44.2 66.15 43.9 65.35 48.7 64.4 56.8 65.35 L57.95 67.6 Q58.75 69.15 58.9 70.3 L58.85 72.35 Q58.85 73.6 59.85 73.7 60.2 65.0 60.5 61.25 L53.85 60.85 47.75 60.1 26.05 57.4 M44.05 53.6 L39.45 52.8 34.4 52.5 Q31.5 52.35 29.7 51.7 27.1 54.4 27.15 56.25 26.65 55.8 26.35 56.45 L33.65 57.6 41.05 58.5 50.4 59.6 60.0 60.1 Q60.1 60.1 60.2 60.25 L60.35 60.1 60.35 58.25 60.2 56.1 Q59.1 55.65 56.5 55.15 L44.05 53.6 M34.95 50.7 Q35.0 51.05 35.35 51.1 L35.9 51.2 40.8 52.1 45.95 52.65 52.0 53.45 57.95 53.6 50.75 52.3 43.0 50.8 Q38.25 50.05 34.95 50.7 M44.2 49.25 Q43.4 49.1 42.75 49.25 L41.45 49.75 48.3 50.9 54.9 51.85 Q53.3 51.3 50.65 50.8 L46.95 50.05 44.2 49.25 M39.25 43.15 L37.85 43.4 Q38.45 44.7 38.95 48.3 42.9 48.05 45.8 46.85 L45.3 44.45 45.0 42.25 41.2 42.6 Q41.7 43.5 41.95 45.45 42.3 47.5 41.95 47.85 41.15 47.4 40.95 45.55 L40.4 42.75 Q40.0 43.05 39.25 43.15 M37.05 43.55 L36.2 43.5 35.25 43.7 35.8 46.35 36.4 48.65 37.25 48.5 38.15 48.45 37.05 43.55 M42.6 32.85 L42.45 32.7 Q40.65 33.55 36.7 33.65 L37.5 39.85 37.55 41.05 Q37.7 41.75 38.0 42.1 L38.1 41.85 38.5 41.8 44.05 41.3 43.85 40.9 43.55 40.5 43.2 36.6 42.6 32.85 M22.35 45.9 L23.55 45.95 24.4 45.75 Q24.2 45.45 24.05 44.15 23.85 43.05 23.45 42.75 20.25 43.75 15.35 46.05 16.85 48.85 17.95 53.05 L19.65 60.6 20.95 65.35 21.3 65.15 21.4 64.55 Q23.1 61.25 23.45 59.3 L22.7 59.9 21.7 60.3 Q20.95 59.8 20.7 58.2 L20.15 55.65 Q20.4 55.25 21.45 54.85 L23.15 54.05 Q23.45 54.4 23.6 55.8 23.8 57.05 24.25 57.4 L24.2 56.85 24.6 56.75 Q24.4 55.95 25.15 54.95 L26.2 53.1 25.8 51.85 25.4 50.55 Q23.65 51.8 22.8 49.7 22.1 48.0 22.35 45.9 M23.8 46.75 L23.15 46.85 23.45 48.6 23.95 50.05 24.6 49.9 25.2 49.75 24.8 48.0 Q24.6 46.85 24.25 46.4 L23.8 46.75 M12.45 35.85 Q11.35 36.35 10.15 37.55 L8.15 39.55 9.3 42.9 9.65 44.1 10.1 45.1 11.0 46.8 Q11.55 47.7 12.15 48.0 12.35 46.9 12.6 46.5 13.05 45.8 13.9 45.75 13.6 45.7 13.8 45.3 L14.05 44.95 15.35 44.8 Q14.55 40.2 12.45 35.85 M21.2 32.85 L17.45 33.7 13.9 34.75 15.55 39.55 Q16.55 42.25 17.75 43.8 L20.7 42.7 Q22.6 42.05 23.45 41.45 L22.35 37.0 21.2 32.85 M41.65 17.55 L38.15 18.0 Q38.7 20.65 39.3 26.15 L42.9 25.5 Q42.6 24.55 42.4 21.7 42.1 18.9 41.65 17.55 M45.3 15.3 Q43.85 15.7 43.25 16.1 L44.55 16.05 45.95 15.75 45.2 15.65 45.3 15.3 M35.9 18.5 Q35.05 18.55 34.95 18.8 L35.75 22.9 36.4 26.8 Q36.7 26.6 37.35 26.55 L38.5 26.45 37.95 22.15 Q37.65 19.5 37.05 18.2 L35.9 18.5 M40.4 13.25 Q41.2 12.6 42.3 12.3 L41.35 11.1 40.25 10.05 39.25 10.7 38.15 11.35 39.25 12.3 40.4 13.25 M44.7 14.5 L43.9 13.8 42.75 12.8 41.9 13.4 40.9 13.9 41.25 14.55 41.65 15.15 Q42.95 15.25 44.7 14.5 M33.05 8.6 L32.55 8.45 33.85 14.15 37.85 13.7 Q34.3 10.25 33.05 8.6 M34.15 18.8 Q32.35 18.9 30.95 19.45 31.6 20.7 31.85 23.05 L32.25 27.1 33.65 27.1 35.25 26.95 Q35.25 25.4 34.85 22.95 L34.15 18.8 M30.2 3.55 L31.25 2.9 32.4 2.4 30.85 1.15 28.6 1.6 Q28.75 2.2 29.25 2.7 L30.2 3.55 M34.15 4.45 Q33.85 4.45 34.15 3.95 L33.45 3.55 32.85 3.05 Q31.75 3.3 30.7 4.3 31.05 4.4 31.55 4.85 L32.4 5.4 Q32.55 5.25 33.4 5.05 34.05 4.85 34.15 4.45 M28.45 4.6 Q28.75 4.6 28.25 4.3 28.2 5.25 28.6 6.45 L29.25 8.75 29.4 11.8 30.15 15.25 30.7 18.35 35.55 17.5 40.4 16.55 Q39.85 14.55 37.4 14.65 L33.05 15.45 32.45 11.55 Q31.95 9.25 31.15 7.95 30.95 7.75 31.05 7.5 L31.25 7.0 29.8 5.65 Q28.9 4.75 28.45 4.6 M27.05 4.75 L26.5 3.7 26.65 3.35 Q26.3 3.2 25.85 3.75 L25.2 4.75 23.95 6.05 21.7 8.95 17.4 14.8 Q18.15 15.4 18.55 16.65 L19.0 18.8 Q19.6 21.15 20.95 25.35 L22.6 31.85 23.95 38.75 Q24.3 40.65 25.55 45.2 L27.15 52.0 29.25 50.05 32.1 49.45 35.1 48.95 30.95 26.0 29.3 16.0 27.3 6.05 27.05 4.75 M38.65 8.15 Q38.3 8.65 37.85 7.5 L36.65 8.1 Q35.95 8.4 35.6 8.75 L36.6 9.7 37.7 10.55 Q37.9 10.25 38.75 10.0 L39.75 9.4 38.95 8.9 38.65 8.15 M35.1 8.15 Q36.0 7.35 37.2 7.15 36.2 5.9 34.8 4.9 L33.85 5.55 32.85 6.2 34.05 7.15 35.1 8.15 M36.65 4.65 Q36.15 4.65 36.05 4.9 36.5 5.15 37.4 6.15 38.15 6.95 38.65 7.0 L38.1 5.65 Q37.9 4.7 37.5 4.45 L36.65 4.65 M46.95 25.15 Q46.55 20.9 45.8 16.75 45.6 17.05 44.55 17.2 L42.75 17.35 43.7 25.5 46.95 25.15 M87.3 45.1 L86.75 45.2 86.15 45.25 84.7 52.3 84.0 55.2 Q83.55 56.9 83.45 57.7 L83.4 58.45 83.75 58.85 83.75 58.55 Q83.6 58.5 83.9 58.2 L83.95 58.7 Q83.95 58.85 84.25 58.85 84.55 56.55 85.7 52.1 L87.3 45.1 M88.25 31.1 Q83.75 32.1 83.45 33.65 L86.3 33.2 Q86.5 32.55 87.1 32.0 L88.25 31.1 M84.65 34.35 L83.45 34.45 84.4 44.6 87.1 44.05 86.5 37.8 86.35 35.75 Q86.25 34.65 85.7 34.15 L84.65 34.35 M65.15 40.5 Q65.15 39.85 64.95 39.55 L61.7 40.15 58.6 40.85 Q59.2 43.55 59.55 47.85 L61.9 47.5 61.7 43.95 Q61.45 41.7 61.75 40.35 62.45 40.3 62.5 41.0 L62.35 42.25 62.85 47.35 63.9 47.3 64.95 47.2 65.1 41.8 65.15 40.5 M62.85 38.75 L65.25 38.6 Q65.6 33.05 65.25 29.0 63.05 33.1 60.65 39.05 L62.85 38.75 M49.95 47.65 L49.15 41.8 47.55 41.95 45.95 42.1 Q45.95 43.8 46.6 47.2 L48.2 47.35 49.95 47.65 M49.95 41.8 Q50.55 44.95 50.75 47.85 L55.05 48.3 Q54.5 46.05 54.1 41.8 L53.95 41.65 49.95 41.8 M56.45 41.15 L55.05 41.3 55.3 45.3 Q55.6 47.25 56.35 48.65 56.65 48.75 56.7 48.35 56.75 48.0 56.95 48.0 L57.85 47.9 58.75 47.85 Q58.0 42.9 57.95 41.0 L56.45 41.15 M55.25 39.15 Q54.8 39.8 54.9 40.2 L58.25 39.7 Q58.8 38.05 59.05 37.8 L57.6 38.0 55.85 37.95 Q55.85 38.35 55.25 39.15 M49.4 32.7 L48.05 33.05 48.8 36.65 Q49.2 38.95 49.0 40.85 L51.0 40.5 53.45 40.35 Q53.55 40.0 54.4 38.75 L54.9 37.9 Q55.15 37.35 55.55 37.45 55.3 37.2 55.55 36.8 L55.85 36.0 55.75 34.2 55.55 32.4 51.7 32.4 50.9 32.7 49.4 32.7 M56.65 31.75 Q56.4 33.5 56.95 34.45 L59.2 30.1 61.45 25.65 46.75 27.55 32.7 30.15 Q32.95 32.75 33.7 36.45 L34.95 42.75 37.05 42.25 Q36.65 41.95 36.65 41.25 L36.7 40.2 36.2 36.55 Q35.8 34.3 35.75 33.05 L43.4 31.75 44.15 36.65 Q44.65 39.6 44.5 41.3 L46.65 41.15 48.7 41.0 48.4 40.6 Q48.1 40.5 48.2 40.2 L47.75 36.2 Q47.25 33.65 47.25 32.25 47.6 31.95 48.2 31.9 L49.35 31.9 53.3 31.45 56.65 31.75 M60.9 31.45 L59.55 31.75 58.25 34.15 61.45 33.65 Q61.45 33.2 61.95 32.35 62.35 31.55 62.2 31.1 L60.9 31.45 M60.8 34.6 L59.15 34.85 57.8 34.9 57.1 36.2 56.35 37.15 58.05 37.05 59.7 36.8 60.8 34.6 M64.0 27.75 L62.55 28.1 61.25 28.2 60.5 29.5 Q60.1 30.35 60.2 30.8 61.2 30.15 62.85 30.3 L63.5 29.0 64.0 27.75 M64.95 25.35 L62.9 25.5 Q61.8 26.1 61.75 27.25 L63.05 26.95 64.45 26.6 Q64.9 25.85 64.95 25.35 M65.6 18.45 L65.75 14.65 63.0 14.8 63.25 18.55 63.5 22.65 64.5 22.45 65.6 22.35 65.6 18.45 M62.45 19.2 L62.2 14.95 60.9 15.15 59.55 15.45 59.7 19.4 Q59.85 21.95 60.35 23.45 L61.5 23.15 62.7 22.8 62.45 19.2 M55.3 20.1 Q55.1 17.2 54.75 15.75 L51.1 16.25 Q52.1 21.2 52.15 24.55 L54.05 24.3 55.7 23.9 55.3 20.1 M55.55 15.75 L56.15 19.95 56.5 24.05 58.05 23.8 Q59.0 23.65 59.4 23.3 58.65 20.55 58.75 15.45 L57.1 15.55 55.55 15.75 M51.0 20.4 L50.3 16.4 48.35 16.7 46.75 17.05 47.15 19.35 Q47.3 20.75 46.95 21.7 47.45 22.2 47.55 23.2 L47.75 25.0 51.35 24.7 51.0 20.4 M46.1 13.7 L51.1 12.8 50.9 8.6 50.6 4.1 Q47.2 3.85 43.9 5.1 L45.0 11.0 Q45.25 12.05 46.1 13.7 M65.95 4.75 Q66.0 -0.95 65.6 -3.2 L58.6 -2.5 52.15 -1.6 47.1 -1.6 41.8 -0.8 36.55 -0.05 Q33.65 0.45 31.9 1.15 32.8 1.4 33.6 2.4 L34.95 3.95 36.8 3.7 38.65 3.8 Q38.8 4.85 39.3 6.3 L40.1 8.75 44.7 13.1 Q44.1 11.2 43.65 8.5 L42.75 4.45 Q44.25 3.85 46.75 3.55 L50.9 2.9 51.0 3.45 51.25 3.05 Q51.65 4.7 51.8 8.25 52.0 11.85 52.3 13.4 L51.0 13.75 49.5 13.7 48.2 14.15 46.95 14.5 46.4 14.6 Q46.05 14.5 46.1 14.8 46.5 14.85 46.7 15.2 L47.1 15.75 65.9 12.6 65.95 4.75 M92.2 79.35 Q92.25 83.05 91.9 85.6 L91.4 87.85 93.8 87.85 95.0 86.5 98.7 80.9 102.25 75.1 92.05 73.35 92.2 79.35 M90.15 77.3 L90.3 74.65 Q90.1 73.05 88.9 72.75 L84.25 77.95 82.7 78.1 81.1 77.95 80.1 78.3 77.85 78.1 68.3 78.75 65.0 77.95 61.45 77.15 60.8 76.45 60.2 75.9 Q59.85 75.75 59.9 75.3 L59.7 74.9 55.85 73.85 51.85 72.75 49.95 72.4 48.35 71.75 46.3 71.45 44.2 71.15 41.05 70.15 23.0 65.5 Q21.45 69.0 20.75 73.05 20.5 74.35 20.5 76.2 L20.45 79.1 20.2 79.95 Q20.05 80.4 20.45 80.7 20.3 80.35 20.55 80.55 L20.95 80.85 Q21.0 81.05 20.65 81.0 20.25 80.95 20.3 81.15 20.75 81.55 21.0 80.95 21.2 80.5 21.4 80.85 21.8 78.5 22.5 77.45 23.45 75.9 25.2 75.7 27.4 75.5 29.25 76.65 31.05 77.8 31.4 79.9 L33.5 79.45 35.6 79.4 Q35.15 81.4 35.95 82.5 36.65 83.4 38.5 84.05 39.35 81.05 41.45 79.55 42.45 78.95 44.35 78.4 L47.55 77.8 Q52.55 77.5 55.15 80.75 57.6 83.85 57.15 88.95 L58.6 89.65 60.2 90.25 Q60.3 89.6 59.8 88.9 59.35 88.3 59.55 87.85 60.8 87.7 62.1 89.0 63.55 90.5 64.45 90.75 65.35 90.95 67.35 90.75 71.1 90.9 75.8 90.65 L83.6 89.75 84.65 89.45 Q85.35 89.35 85.5 90.1 85.3 90.45 84.75 90.55 L83.75 90.75 80.6 91.15 77.05 91.4 72.75 91.85 71.05 91.7 69.95 91.85 68.95 92.0 63.65 91.7 62.5 90.7 Q61.75 90.05 61.25 90.1 61.5 90.4 61.2 91.4 L61.0 92.5 Q61.15 93.2 62.05 93.4 L63.8 93.6 65.55 94.05 67.0 94.4 70.25 94.15 73.55 93.6 79.55 93.35 85.05 92.8 Q87.25 92.45 88.3 91.05 89.3 89.75 89.05 87.85 88.45 88.05 87.35 89.1 86.3 90.0 85.7 89.95 L85.35 89.45 Q85.85 88.65 87.55 87.55 L89.55 85.75 89.3 85.65 89.7 85.3 Q89.45 84.95 89.55 84.75 89.65 84.6 89.35 84.2 89.1 86.55 85.55 86.15 82.05 85.7 82.15 83.4 L83.45 80.9 Q84.3 79.5 85.5 79.55 86.2 79.6 87.25 80.35 L88.75 81.8 Q89.45 83.9 89.55 82.95 L89.85 83.1 90.15 77.3 M104.95 75.9 Q104.7 75.95 104.5 75.7 L104.0 75.55 Q102.7 77.8 100.2 81.3 L96.35 86.85 95.55 88.0 Q96.7 88.2 97.55 87.05 L98.45 85.6 Q102.5 80.1 104.95 75.9 M109.45 75.7 L106.1 76.2 98.7 87.1 98.15 88.0 100.85 88.0 102.35 86.4 112.6 75.4 112.75 75.25 112.6 75.1 109.45 75.7 M110.45 70.0 Q109.7 69.8 108.35 70.45 L106.25 71.6 Q108.5 72.15 110.45 70.0 M103.85 68.7 L102.9 68.35 102.1 68.4 99.4 70.0 100.2 70.15 100.85 70.5 Q101.2 69.9 102.25 69.5 103.55 69.05 103.85 68.7 M104.95 69.05 Q104.7 69.65 103.7 70.05 102.4 70.55 102.1 70.8 L103.5 71.15 104.8 71.45 Q105.1 70.9 106.15 70.45 L107.55 69.5 106.2 69.35 104.95 69.05 M102.25 66.75 L101.0 66.5 98.75 66.0 Q100.95 67.1 103.2 67.3 103.0 66.95 102.25 66.75 M103.7 66.95 L104.55 67.55 105.3 67.75 Q105.15 67.8 105.3 68.1 107.9 69.1 111.7 68.9 L103.7 66.95 M89.7 70.65 L97.35 71.8 Q102.25 72.45 104.8 73.2 105.45 74.75 107.15 74.5 108.8 74.2 109.3 72.75 L108.0 72.65 106.75 72.75 104.25 72.25 101.95 71.6 100.2 71.3 Q98.65 70.2 97.95 70.15 L93.1 69.6 88.75 68.7 89.7 70.65 M97.3 68.2 L95.75 69.05 98.45 69.35 Q98.65 69.0 99.6 68.55 L100.7 67.75 Q99.45 67.15 98.6 67.1 L97.3 68.2 M92.35 64.55 L90.2 64.2 88.1 63.8 Q88.9 64.6 90.95 64.7 L92.35 64.55 M93.65 66.0 L90.15 65.5 87.45 65.05 Q87.3 65.45 87.65 66.25 L88.1 67.6 90.35 68.1 Q90.6 67.35 91.75 66.85 L93.65 66.0 M95.55 67.9 L97.15 66.95 Q95.75 66.5 94.0 66.95 92.4 67.45 91.6 68.4 L93.95 68.9 95.55 67.9 M93.5 51.05 L93.5 49.85 93.5 48.65 92.5 48.8 Q92.45 49.7 92.75 50.4 93.0 51.2 93.5 51.05 M95.9 50.55 Q95.65 50.0 95.55 48.45 L94.45 48.45 94.55 49.9 94.45 51.2 95.9 50.55 M119.4 72.15 L120.0 71.45 114.95 72.2 110.25 73.2 109.8 74.0 109.3 74.3 Q109.3 74.75 109.65 74.5 L118.85 72.9 119.4 72.15 M119.5 70.3 L118.3 70.1 117.1 69.85 Q117.3 70.45 118.2 70.6 L119.5 70.3 M115.65 70.8 L113.9 70.45 112.0 70.15 Q112.0 70.65 111.0 71.15 110.15 71.55 110.25 71.95 114.05 71.8 115.65 70.8 M95.4 47.2 Q95.15 47.15 95.4 46.7 L94.6 46.7 94.6 47.35 95.1 47.2 Q94.75 47.2 94.75 47.05 95.0 46.9 95.2 47.2 95.35 47.4 95.4 47.2 M96.75 45.05 L96.55 45.6 98.3 45.45 99.75 44.95 Q100.05 45.95 98.65 46.3 L96.55 46.85 Q96.85 46.9 96.55 47.5 L97.65 47.3 98.6 47.35 Q98.45 48.15 96.55 48.15 L96.65 49.25 96.7 50.4 Q102.5 48.05 102.55 43.25 101.35 44.2 96.85 44.35 L96.75 45.05 M95.75 44.45 L95.2 44.4 94.6 44.35 94.6 45.6 Q95.8 45.65 95.25 45.45 L94.75 45.1 95.1 45.15 94.95 44.8 95.2 44.9 95.4 44.6 95.3 45.05 95.55 45.25 Q95.5 44.9 95.75 44.45 M92.85 46.7 L92.65 47.25 Q92.5 47.55 92.7 47.65 93.7 47.8 93.5 46.85 L93.1 46.95 92.85 46.7 M93.3 42.25 L92.5 41.75 91.9 41.8 Q91.45 42.25 91.95 42.55 L92.85 42.9 96.85 43.45 100.85 43.05 Q103.0 42.55 103.2 41.65 103.3 41.05 102.4 41.15 102.1 41.65 101.4 41.7 L100.05 41.8 93.3 42.25 M98.3 38.75 L98.25 39.25 98.15 39.7 97.0 39.85 Q96.25 40.2 96.05 40.65 L102.25 40.35 Q101.7 39.7 100.4 39.3 L98.3 38.75 M92.7 29.65 Q96.15 31.7 96.9 32.4 98.9 34.35 98.6 37.6 101.05 38.15 104.0 40.05 104.4 41.4 103.7 44.35 103.4 45.8 102.25 47.5 L100.55 49.75 Q96.7 52.3 95.1 52.65 93.95 52.8 92.75 52.25 91.55 51.75 91.25 51.05 90.85 50.15 91.4 48.05 91.9 46.0 91.25 44.8 89.9 44.35 88.4 44.8 88.35 46.05 87.7 48.3 L86.65 52.3 Q86.35 53.55 86.0 56.45 L85.3 59.3 Q85.0 60.75 85.7 61.9 L104.4 65.4 Q115.5 67.35 122.1 69.5 121.95 69.75 122.15 69.8 L122.35 69.85 Q122.65 70.5 121.6 71.8 L119.85 73.7 Q111.75 81.95 108.15 85.95 L104.95 87.85 105.7 87.0 109.95 82.6 112.3 79.9 115.0 77.45 Q116.5 76.0 117.25 74.6 116.1 74.55 115.4 75.1 L114.05 76.35 Q106.8 83.65 104.1 86.95 L103.2 88.0 104.7 88.0 102.0 89.6 90.8 89.95 90.05 91.5 88.9 92.8 86.9 93.5 84.25 93.95 78.2 95.0 66.85 95.5 Q63.35 95.1 61.9 94.55 59.45 93.55 59.7 91.55 57.85 90.4 57.15 90.25 L56.15 90.25 55.65 89.9 55.05 89.6 53.45 89.75 53.15 89.4 52.8 88.95 Q52.55 88.9 52.85 88.5 53.2 88.15 52.65 88.15 L52.0 88.35 Q51.5 88.35 51.35 88.5 51.0 90.75 47.65 91.5 44.4 92.25 42.6 90.55 41.8 88.35 41.95 87.2 L42.3 86.4 Q42.45 85.85 42.1 85.75 41.7 85.75 41.75 86.25 41.75 86.8 41.2 86.75 L34.45 83.4 34.45 85.3 35.45 85.2 36.25 85.3 Q36.5 85.95 36.05 87.2 L35.45 89.6 Q31.8 90.75 28.6 92.35 27.1 93.35 26.5 93.45 L22.8 93.3 19.2 92.35 19.0 90.25 Q19.1 88.75 18.7 88.35 15.45 88.5 10.6 87.35 L9.9 87.65 Q8.7 86.25 8.0 84.5 L7.25 83.4 5.95 80.05 4.55 75.85 Q3.65 73.6 2.4 72.4 3.15 71.65 6.75 69.35 L3.7 61.9 7.05 61.05 9.95 59.65 9.25 58.25 Q8.7 57.45 8.65 56.9 8.6 55.95 9.85 53.85 L11.35 50.9 6.75 39.7 8.85 37.25 11.35 34.75 12.95 33.2 Q13.45 32.9 15.8 32.55 L18.3 32.05 Q19.55 31.75 20.45 31.25 20.65 30.0 19.7 27.2 L18.2 22.8 17.1 19.0 16.1 16.75 Q15.6 15.6 15.8 14.95 16.05 14.4 16.8 13.6 L18.05 12.15 Q21.55 7.7 23.3 4.6 25.05 1.55 26.35 0.5 L36.15 -1.25 46.3 -2.7 67.35 -4.8 66.95 -4.25 67.5 -3.85 Q67.1 -2.75 67.2 -1.45 L67.5 0.95 67.55 5.15 67.35 9.25 67.5 12.95 67.65 16.55 67.85 25.1 68.0 33.2 68.0 35.2 68.3 36.5 68.1 39.8 67.85 43.05 68.0 46.25 Q68.15 48.15 67.85 49.45 L71.85 50.3 Q74.25 50.8 75.65 51.35 L78.85 53.95 82.3 56.25 Q84.1 49.15 84.4 46.4 L84.3 46.05 84.4 46.05 84.7 45.9 Q84.55 45.55 84.0 45.7 L82.95 45.6 82.95 40.5 Q82.9 37.4 82.45 35.2 82.05 32.6 83.75 31.25 84.95 30.3 88.0 29.9 L92.7 29.65 M92.85 30.95 L91.9 31.2 90.95 30.95 Q90.65 31.25 88.75 32.05 87.4 32.65 87.1 33.85 87.0 34.3 87.45 36.0 L87.65 39.25 Q87.8 40.9 88.1 41.0 87.85 41.45 88.0 42.25 L88.1 43.7 Q89.45 43.65 90.35 43.05 89.95 43.15 90.1 42.8 L90.15 42.1 90.7 41.25 91.15 40.35 Q94.4 38.85 97.15 38.25 96.75 37.95 97.05 37.85 L97.5 37.8 Q97.7 37.3 97.5 36.15 97.35 34.95 97.0 34.25 96.6 33.3 95.05 32.35 L92.85 30.95" fill="#350b0d" fill-rule="evenodd" stroke="none"/>
    <path d="M18.2 74.9 L17.4 75.1 17.4 74.75 17.6 74.75 17.8 74.9 Q18.1 75.05 18.05 74.5 L18.15 74.65 18.2 74.9" fill="#350b0d" fill-rule="evenodd" stroke="none"/>
    <path d="M13.1 72.25 Q12.3 72.75 12.75 74.15 L13.4 76.7 13.8 76.6 14.2 76.5 Q14.3 76.0 13.95 75.85 13.6 75.7 13.75 75.55 13.95 75.5 13.55 74.2 L13.1 72.25 M13.55 70.8 L14.45 73.9 Q14.9 75.9 15.5 76.85 13.95 77.65 12.95 77.8 L12.2 75.1 11.15 72.25 12.4 71.55 Q13.1 70.9 13.55 70.8" fill="#350b0d" fill-rule="evenodd" stroke="none"/>
    <path d="M12.3 65.85 L11.8 66.15 11.15 66.3 10.7 64.7 10.1 63.15 Q7.9 63.55 7.05 64.45 8.25 66.55 8.35 68.25 7.9 68.6 7.55 68.55 L5.45 63.0 7.9 62.1 10.2 61.1 11.4 63.3 12.3 65.85" fill="#350b0d" fill-rule="evenodd" stroke="none"/>
    <path d="M85.7 66.65 L86.55 67.65 87.1 69.05 88.0 70.55 Q88.4 71.4 88.1 72.1 L87.85 72.05 Q87.75 71.95 87.9 71.95 87.9 71.8 87.65 71.8 87.4 71.8 87.3 71.6 86.75 71.65 86.1 72.15 L86.0 70.4 Q86.25 71.25 86.95 71.45 87.4 70.65 86.65 69.15 L85.7 66.65" fill="#350b0d" fill-rule="evenodd" stroke="none"/>
    <path d="M83.9 63.15 Q84.5 63.0 84.8 63.7 L85.2 64.85 Q84.75 64.75 84.5 64.05 L83.9 63.15" fill="#350b0d" fill-rule="evenodd" stroke="none"/>
    <path d="M86.8 63.8 Q86.9 63.55 87.35 63.65 L87.9 63.8 87.45 63.9 86.8 63.8" fill="#350b0d" fill-rule="evenodd" stroke="none"/>
    <path d="M90.95 64.7 Q88.9 64.6 88.1 63.8 L90.2 64.2 92.35 64.55 90.95 64.7" fill="#350b0d" fill-rule="evenodd" stroke="none"/>
    <path d="M17.6 81.15 L17.85 81.3 Q18.05 81.15 18.2 81.15 L17.85 81.6 Q17.55 81.65 17.6 81.15" fill="#350b0d" fill-rule="evenodd" stroke="none"/>
    <path d="M18.05 82.45 Q18.5 82.5 18.4 82.9 18.2 83.4 18.4 83.55 18.05 83.5 18.05 83.15 L18.05 82.45" fill="#350b0d" fill-rule="evenodd" stroke="none"/>
    <path d="M29.4 85.75 Q29.8 85.05 31.1 84.6 L33.2 83.75 Q33.6 83.85 33.55 84.65 L33.5 85.95 Q32.35 85.7 30.8 86.5 L28.25 87.7 28.25 85.6 28.85 85.7 29.4 85.75" fill="#350b0d" fill-rule="evenodd" stroke="none"/>
    <path d="M67.0 94.4 L65.55 94.05 63.8 93.6 62.05 93.4 Q61.15 93.2 61.0 92.5 L61.2 91.4 Q61.5 90.4 61.25 90.1 61.75 90.05 62.5 90.7 L63.65 91.7 68.95 92.0 69.95 91.85 71.05 91.7 72.75 91.85 77.05 91.4 80.6 91.15 83.75 90.75 84.75 90.55 Q85.3 90.45 85.5 90.1 L85.45 89.9 85.7 89.9 85.7 89.95 Q86.3 90.0 87.35 89.1 88.45 88.05 89.05 87.85 89.3 89.75 88.3 91.05 87.25 92.45 85.05 92.8 L79.55 93.35 73.55 93.6 70.25 94.15 67.0 94.4" fill="#350b0d" fill-rule="evenodd" stroke="none"/>
    <path d="M98.75 66.0 L101.0 66.5 102.25 66.75 Q103.0 66.95 103.2 67.3 100.95 67.1 98.75 66.0" fill="#350b0d" fill-rule="evenodd" stroke="none"/>
    <path d="M17.1 79.55 Q16.65 78.7 16.8 77.95 17.15 77.9 17.4 78.35 17.7 78.7 18.05 78.45 L17.75 78.95 18.05 79.25 17.55 79.35 17.1 79.55" fill="#350b0d" fill-rule="evenodd" stroke="none"/>
    <path d="M17.4 78.95 L17.4 79.4 17.1 79.1 Q17.1 79.05 17.4 78.95" fill="#350b0d" fill-rule="evenodd" stroke="none"/>
    <path d="M103.7 66.95 L111.7 68.9 Q107.9 69.1 105.3 68.1 105.15 67.8 105.3 67.75 L104.55 67.55 103.7 66.95" fill="#350b0d" fill-rule="evenodd" stroke="none"/>
    <path d="M117.1 69.85 L118.3 70.1 119.5 70.3 118.2 70.6 Q117.3 70.45 117.1 69.85" fill="#350b0d" fill-rule="evenodd" stroke="none"/>
    <path d="M12.6 67.1 L13.5 69.05 14.35 71.6 15.45 73.8 16.15 75.7 15.8 76.7 Q15.6 78.05 16.15 80.2 L15.2 80.25 14.35 80.05 Q13.9 81.1 14.35 82.75 L15.35 85.3 17.15 84.95 18.7 84.4 Q19.1 85.6 20.95 85.75 20.35 86.8 17.6 85.95 L13.4 85.6 Q13.7 83.5 12.45 80.7 L9.8 81.15 10.85 85.3 9.3 85.45 8.75 83.65 Q8.4 82.45 7.85 81.8 7.5 80.0 6.25 76.65 5.05 73.55 4.8 71.75 6.85 70.85 8.5 69.7 L8.95 69.05 9.6 69.05 10.2 68.55 12.45 67.45 12.6 67.1 M6.9 74.5 L7.2 74.9 7.85 76.7 8.5 78.45 8.65 79.35 Q8.85 79.85 9.45 79.75 L9.55 79.25 Q9.35 78.95 9.6 78.75 L11.15 78.6 Q11.2 77.3 10.7 75.45 L9.95 72.4 Q9.1 72.2 8.15 72.9 L6.55 74.0 6.9 74.5 M11.15 72.25 L12.2 75.1 12.95 77.8 Q13.95 77.65 15.5 76.85 14.9 75.9 14.45 73.9 L13.55 70.8 Q13.1 70.9 12.4 71.55 L11.15 72.25" fill="#350b0d" fill-rule="evenodd" stroke="none"/>
    <path d="M35.4 17.35 Q35.9 18.1 36.0 19.85 L36.05 22.45 Q36.05 24.0 36.3 24.75 L36.7 25.9 37.0 27.05 35.8 26.85 35.6 25.65 35.15 23.15 34.6 20.65 Q34.15 19.1 34.25 18.05 L35.6 17.8 35.4 17.35" fill="#350b0d" fill-rule="evenodd" stroke="none"/>
    <path d="M50.85 18.1 Q50.2 16.8 50.2 16.25 L51.35 16.05 52.1 15.9 51.85 15.55 52.25 15.7 52.1 15.9 52.6 17.6 52.95 20.15 53.4 24.5 Q51.6 24.65 51.15 24.95 L51.05 22.65 51.1 20.35 50.85 18.1" fill="#350b0d" fill-rule="evenodd" stroke="none"/>
    <path d="M56.45 87.9 L59.15 88.9 Q61.1 89.7 60.95 90.8 L58.2 89.65 Q56.25 88.7 56.45 87.9" fill="#350b0d" fill-rule="evenodd" stroke="none"/>
    <path d="M35.15 80.5 Q34.75 79.95 33.7 80.1 L32.25 80.4 Q31.05 80.5 30.9 79.85 L30.75 79.15 Q30.15 78.85 30.15 78.35 L30.4 78.35 30.75 79.15 31.15 79.25 32.8 79.25 36.05 79.55 36.2 81.0 Q36.3 81.9 36.65 82.3 37.35 83.0 39.35 83.45 L39.35 84.25 Q38.25 84.65 36.05 83.1 35.4 82.65 35.45 81.8 35.45 80.85 35.15 80.5" fill="#350b0d" fill-rule="evenodd" stroke="none"/>
    <path d="M38.2 84.9 L40.15 84.9 40.05 85.1 41.0 84.4 Q41.6 83.85 42.05 83.7 L43.7 83.75 45.3 84.1 43.5 85.1 Q42.45 85.85 42.0 86.95 41.75 86.75 41.05 86.6 L40.0 86.35 39.1 85.65 38.2 84.9" fill="#350b0d" fill-rule="evenodd" stroke="none"/>
    <path d="M32.25 65.8 Q37.55 67.3 42.15 69.0 L51.95 72.05 57.05 73.3 59.65 73.9 Q61.3 74.4 61.55 75.55 L62.05 75.7 62.15 76.2 Q62.85 76.25 63.0 77.0 L60.75 76.15 58.4 75.4 53.45 74.15 43.25 71.75 27.1 67.6 Q24.9 66.95 21.45 66.95 L21.75 66.35 22.35 65.3 Q22.6 64.65 23.25 64.55 L24.7 64.65 26.25 64.85 Q29.35 65.0 32.25 65.8" fill="#350b0d" fill-rule="evenodd" stroke="none"/>
    <path d="M90.8 87.6 Q91.35 87.2 92.7 87.35 L94.65 87.6 98.55 87.9 104.4 88.15 104.15 88.35 Q99.8 88.0 97.65 88.3 L93.8 89.0 92.0 89.1 91.15 89.35 90.2 89.4 90.8 87.6" fill="#350b0d" fill-rule="evenodd" stroke="none"/>
    <path d="M46.4 46.3 L48.75 46.75 54.25 47.7 59.75 48.4 65.25 49.35 70.7 50.05 Q73.95 50.55 75.9 51.8 77.15 52.6 79.25 54.8 L80.95 56.05 Q82.05 56.8 82.3 57.65 L81.05 57.85 Q80.45 58.0 79.95 57.45 L79.2 56.55 78.55 55.5 Q76.85 53.25 75.15 52.3 74.1 51.8 72.6 51.8 L71.3 51.6 70.1 51.35 64.8 50.75 62.05 50.25 59.2 49.85 53.75 49.15 48.75 48.05 46.05 48.2 43.55 48.9 32.85 51.1 Q29.5 51.55 28.4 53.3 28.1 53.7 27.9 54.4 L27.6 55.6 27.0 56.75 Q26.6 57.55 26.65 57.95 L26.9 58.2 25.3 58.15 26.6 55.75 27.7 53.45 28.4 52.25 Q28.75 51.6 29.25 51.2 30.35 50.3 32.1 49.85 L37.9 48.45 40.65 47.65 44.0 46.95 45.1 46.5 46.4 46.3" fill="#350b0d" fill-rule="evenodd" stroke="none"/>
    <path d="M30.15 52.05 Q29.15 52.65 28.6 53.5 27.9 54.6 26.6 57.95 L25.3 57.95 25.55 56.85 25.95 55.85 Q26.45 54.05 27.0 53.3 27.6 52.35 28.8 52.0 L31.2 51.5 30.15 52.05" fill="#350b0d" fill-rule="evenodd" stroke="none"/>
    <path d="M103.0 86.85 L106.85 86.75 104.15 88.35 98.05 88.1 94.1 88.5 90.2 88.6 90.15 86.45 91.35 86.75 95.25 86.55 99.2 86.75 103.0 86.85" fill="#350b0d" fill-rule="evenodd" stroke="none"/>
  </g>
</svg>
