<?xml version="1.0" encoding="UTF-8" standalone="no"?>
<svg xmlns:xlink="http://www.w3.org/1999/xlink" height="37.05px" width="120.0px" xmlns="http://www.w3.org/2000/svg">
  <g transform="matrix(1.0, 0.0, 0.0, 1.0, 11.0, -2.75)">
    <path d="M55.9 9.6 Q54.45 9.6 53.65 8.85 52.65 8.0 52.25 6.8 52.25 5.85 51.7 5.5 51.1 5.0 49.85 5.0 48.5 5.0 46.6 5.95 45.0 6.8 43.0 9.05 L39.35 13.75 Q37.55 16.25 35.65 19.35 33.8 22.9 32.8 26.15 31.75 29.6 31.35 32.55 32.35 36.0 33.15 36.0 36.95 36.0 46.1 25.7 L46.1 26.3 42.05 31.05 39.35 33.65 Q34.65 38.85 30.15 38.85 28.75 38.85 27.5 38.15 26.25 37.4 25.9 36.6 23.95 33.8 23.95 31.95 23.95 29.5 24.8 26.85 25.75 24.05 27.1 21.65 L21.55 21.65 Q20.25 25.05 17.65 28.05 15.2 30.8 12.25 33.15 8.6 35.75 4.85 37.3 1.0 38.85 -3.05 38.85 L-5.65 38.45 Q-7.0 37.95 -7.95 37.2 -9.4 36.25 -10.15 35.05 -11.0 33.8 -11.0 31.95 L-10.65 30.8 -9.8 29.65 -8.55 28.9 Q-7.8 28.55 -7.35 28.55 -6.45 28.55 -5.9 28.9 L-4.85 29.65 Q-4.4 30.15 -4.35 30.65 L-4.2 33.15 -4.85 33.6 -5.45 33.65 -5.4 34.55 -4.85 35.45 Q-4.4 36.4 -3.6 37.0 -2.75 37.7 -1.8 37.7 0.4 37.7 2.4 36.9 4.4 35.95 6.2 34.3 L8.35 31.15 Q9.5 29.5 10.5 26.75 L13.3 21.4 Q14.3 19.35 14.75 19.35 18.05 13.3 22.45 9.55 26.95 5.75 32.0 4.4 L26.35 4.4 18.55 5.25 Q15.05 6.1 11.1 7.85 6.55 9.6 4.45 11.8 2.45 14.05 2.45 17.1 2.45 19.25 3.35 20.15 4.3 21.1 6.2 21.1 L9.05 20.6 Q10.25 20.0 11.1 18.75 L12.5 17.0 Q12.95 16.05 12.95 14.8 L12.95 13.6 12.3 12.8 12.25 12.45 13.6 13.05 13.6 15.3 Q13.6 17.0 12.95 18.65 12.3 20.2 10.5 21.1 9.05 22.45 7.25 22.9 L3.65 23.4 0.55 23.0 -1.8 22.25 Q-2.75 21.4 -3.2 20.15 -3.6 19.05 -3.6 17.65 -3.6 13.7 -0.9 11.05 1.8 8.35 7.4 6.2 11.9 4.8 16.15 4.35 L25.9 3.95 36.05 3.9 37.55 3.3 38.35 2.8 42.45 2.75 Q42.85 2.75 42.95 3.1 L43.0 4.4 36.2 4.4 Q34.95 4.4 33.1 5.8 31.15 7.2 28.95 10.15 26.55 12.45 24.85 15.15 23.05 18.05 22.15 20.55 L27.6 20.55 Q29.95 16.65 32.85 13.6 35.75 10.55 39.35 8.45 42.55 5.9 45.8 4.9 48.9 3.95 52.25 3.95 55.35 3.95 57.25 4.8 58.9 5.65 58.9 7.35 58.9 8.7 58.15 9.1 57.4 9.6 55.9 9.6" fill="#ffffff" fill-rule="evenodd" stroke="none"/>
    <path d="M49.55 18.6 L50.4 18.6 50.4 20.8 50.1 20.8 49.65 20.75 Q48.05 20.9 47.7 22.1 47.25 23.3 47.3 24.6 L48.0 33.3 Q48.1 35.05 48.6 36.25 49.1 37.55 50.4 37.6 L50.4 39.75 Q47.25 39.75 45.35 37.85 43.35 36.0 43.15 32.75 L42.75 26.45 Q42.7 25.05 43.1 23.65 43.6 22.25 44.45 21.2 45.35 20.15 46.6 19.45 48.05 18.65 49.55 18.6 M50.55 20.6 L50.45 19.8 50.55 19.3 50.5 18.65 Q53.4 18.85 55.2 20.8 57.05 22.8 57.3 25.55 L57.75 31.7 Q57.9 34.25 56.7 36.4 55.45 38.55 53.0 39.3 L53.0 39.15 52.9 39.15 52.9 39.4 52.35 39.55 52.4 39.2 52.3 39.2 52.3 39.4 52.25 39.4 52.25 39.55 52.2 39.55 52.05 39.6 52.05 39.55 51.95 39.55 52.0 39.6 51.9 39.6 51.7 39.7 51.8 39.55 52.05 39.45 52.1 39.15 52.0 39.15 52.0 39.3 51.9 39.4 51.7 39.4 51.8 39.25 51.7 39.2 51.65 39.05 51.6 39.05 51.5 39.25 51.45 39.25 51.3 39.05 51.3 38.95 51.1 39.1 51.1 39.05 50.9 38.95 50.9 39.1 50.85 39.1 50.75 38.55 50.6 38.55 50.7 38.25 50.55 37.9 50.7 37.9 50.7 37.75 50.55 37.75 50.6 37.65 50.8 37.6 Q52.25 37.55 52.65 36.25 L52.8 36.25 52.8 36.15 52.7 36.15 Q52.7 36.0 52.8 36.0 L52.85 36.0 52.85 35.95 52.9 35.85 52.85 35.85 52.85 35.8 53.1 34.8 53.1 34.0 53.1 33.95 53.0 33.65 53.0 32.95 53.0 32.9 52.95 32.45 53.0 32.45 53.1 32.25 52.95 32.2 52.95 32.1 53.0 32.2 53.1 32.2 52.9 31.8 52.9 31.6 53.0 31.65 53.0 31.5 52.9 31.5 52.9 31.35 53.0 31.2 53.0 31.1 52.9 31.1 52.9 31.0 53.1 30.15 53.15 30.2 53.15 30.25 53.35 30.35 53.35 30.45 53.4 30.45 53.4 30.2 53.5 30.2 53.45 30.05 53.4 30.05 53.35 29.95 53.2 30.05 53.1 30.05 53.1 29.55 53.0 29.55 53.0 29.85 52.85 29.85 52.85 29.95 53.0 29.95 53.0 30.15 52.85 30.15 52.8 30.1 52.8 29.6 52.85 29.6 52.9 29.5 52.8 29.5 52.7 29.1 52.8 29.1 52.7 29.0 52.65 28.2 52.7 28.15 53.15 28.15 53.15 28.05 53.1 27.95 53.15 27.95 53.15 27.85 53.0 27.85 53.0 27.75 Q52.8 27.75 52.8 27.85 L52.65 27.9 52.65 27.45 52.6 27.45 52.6 27.35 52.65 27.35 52.55 26.45 52.6 26.45 52.55 26.3 52.5 26.3 52.5 26.2 52.85 26.15 52.85 26.05 52.7 26.05 52.55 26.1 52.55 26.15 52.5 26.15 52.35 24.3 51.9 22.1 Q51.5 21.1 50.55 20.85 L50.55 20.6 M54.0 23.85 L54.0 23.95 54.1 23.95 54.1 24.05 54.35 24.25 54.35 24.3 54.45 24.45 54.45 24.35 54.9 24.6 54.75 24.85 54.9 24.85 55.2 24.85 55.55 24.95 55.6 24.95 55.6 24.6 55.45 24.55 55.35 24.45 55.05 24.15 54.95 24.15 54.75 24.05 54.75 24.25 54.65 24.25 54.55 24.05 54.4 24.0 54.4 23.95 54.35 23.95 54.25 23.9 54.15 23.8 54.0 23.85 M55.5 25.9 L55.35 25.85 55.3 25.85 55.3 25.9 55.5 25.9 M53.5 26.3 L53.65 26.3 53.65 26.4 53.7 26.4 53.8 26.65 53.85 26.5 53.65 26.05 53.4 26.05 53.5 26.3 M53.85 26.65 L53.8 26.65 53.8 27.0 53.7 27.05 53.65 27.3 53.85 27.15 53.95 27.3 53.95 27.35 54.25 27.3 54.25 27.15 54.0 27.15 53.85 26.7 53.85 26.65 M53.15 27.55 L53.15 27.6 53.35 27.6 53.35 27.7 53.45 27.65 53.4 27.65 53.4 27.6 53.65 27.6 53.5 27.45 53.5 27.3 53.45 27.3 53.45 27.45 53.35 27.4 53.2 27.55 53.15 27.55 M52.6 25.4 L52.6 25.25 52.5 25.25 52.5 25.4 52.6 25.4 M52.85 28.9 L52.85 28.95 52.9 28.95 52.9 28.9 52.95 28.85 53.0 28.85 52.95 28.7 53.0 28.5 52.85 28.5 52.8 28.65 52.8 28.9 52.85 28.9 M52.8 30.15 L52.95 30.2 52.95 30.35 52.9 30.65 52.85 30.65 52.8 30.15 M55.8 29.0 L55.9 28.9 56.15 28.9 55.9 28.6 55.9 28.8 55.8 28.95 55.8 29.0 M54.6 29.15 L54.6 29.25 54.65 29.3 54.85 29.25 54.85 29.2 54.6 29.15 M54.9 29.6 L54.75 29.6 54.75 29.8 54.9 29.8 54.9 29.6 M54.05 28.65 L53.95 28.7 53.95 28.85 53.8 28.7 53.8 28.9 53.55 28.9 53.55 29.0 53.65 28.95 53.7 29.0 53.75 29.0 53.8 28.95 53.8 29.0 53.85 29.0 53.85 28.9 54.0 28.85 54.05 28.85 54.05 28.9 54.1 28.9 54.1 28.85 54.25 28.85 54.25 28.8 54.3 28.7 54.25 28.65 54.1 28.65 54.1 28.7 54.05 28.7 54.05 28.65 M53.7 29.0 L53.65 29.1 53.7 29.1 53.7 29.0 M53.0 29.3 L53.0 29.4 52.95 29.4 52.9 29.45 52.95 29.5 53.0 29.45 53.0 29.5 53.1 29.5 53.1 29.25 53.0 29.3 M53.45 29.25 L53.5 29.15 53.45 29.15 53.5 29.0 53.5 28.95 53.4 29.0 53.4 29.1 53.2 29.15 53.25 29.25 53.45 29.25 M53.95 30.25 L53.7 30.15 53.65 30.2 53.65 30.25 53.8 30.4 53.95 30.4 53.95 30.25 M54.1 30.85 L53.95 30.9 54.15 31.15 54.1 31.05 54.1 30.85 M53.4 31.45 L53.15 31.45 53.15 31.35 53.1 31.35 53.1 31.65 53.15 31.65 53.15 31.8 53.2 31.8 53.35 31.8 53.45 31.8 53.45 31.65 53.4 31.6 53.5 31.6 53.5 31.45 53.4 31.5 53.4 31.45 M55.65 30.65 L55.65 30.8 55.8 30.8 55.8 30.65 55.65 30.65 M56.45 29.95 L56.45 30.05 56.55 30.05 56.55 30.1 56.65 30.1 56.55 29.95 56.45 29.95 M56.2 33.35 L56.15 33.35 56.15 33.5 56.35 33.5 56.2 33.3 56.2 33.35 M55.25 32.65 L55.05 32.65 55.05 32.6 55.0 32.6 55.0 32.65 55.05 32.7 55.05 32.75 55.2 32.75 55.2 32.85 55.25 32.85 55.25 32.95 55.35 32.95 55.35 32.9 55.5 32.9 55.5 32.85 55.45 32.85 55.5 32.7 55.45 32.7 55.5 32.6 55.45 32.6 55.25 32.65 M54.45 32.65 L54.45 32.7 54.3 32.7 54.55 32.85 54.55 32.75 54.6 32.75 54.6 32.65 54.65 32.65 54.65 32.35 54.45 32.4 54.45 32.55 54.4 32.65 54.45 32.65 M54.7 33.15 L54.9 33.15 54.9 33.2 54.95 33.15 54.95 33.2 55.05 33.15 55.0 33.05 55.0 32.7 54.9 32.7 54.9 32.75 54.85 32.75 54.9 33.05 54.7 33.05 54.7 33.15 M54.4 32.95 L54.3 32.95 54.1 32.9 54.1 32.95 53.95 32.95 53.95 33.05 53.95 33.3 54.1 33.3 54.1 33.5 54.25 33.5 54.25 33.2 54.15 33.2 54.15 33.15 54.1 33.15 54.1 33.05 54.25 33.15 54.4 33.05 54.4 32.95 M54.4 33.25 L54.45 33.3 54.6 33.3 54.6 33.2 54.4 33.25 M54.55 33.65 L54.4 33.6 54.35 33.65 54.25 33.65 54.25 33.7 54.4 33.8 54.4 33.85 54.45 33.85 54.45 33.65 54.55 33.65 M53.95 33.05 L53.8 33.0 53.8 32.95 53.7 32.95 53.7 32.9 53.65 32.85 53.5 32.85 53.65 33.15 53.55 33.15 53.65 33.2 53.55 33.2 53.55 33.35 53.65 33.35 53.65 33.5 53.8 33.65 53.95 33.65 53.95 33.3 53.8 33.3 53.8 33.35 53.7 33.05 53.95 33.05 M53.15 32.9 L53.15 32.7 53.1 32.7 53.0 32.95 53.1 32.95 53.15 32.9 M54.1 33.5 L54.05 33.45 54.05 33.5 54.1 33.5 M53.7 34.1 L53.7 34.4 53.75 34.4 53.75 34.5 53.8 34.55 53.8 34.6 53.85 34.6 53.85 34.55 53.95 34.55 53.95 34.4 54.0 34.4 53.95 34.1 53.7 34.1 M54.3 34.85 L54.4 34.85 54.4 34.8 54.3 34.8 54.3 34.85 M53.35 35.4 L53.4 35.25 53.45 35.2 53.1 35.2 53.1 35.25 53.2 35.25 53.1 35.5 53.2 35.5 53.2 35.55 53.15 35.55 53.0 35.5 53.0 35.8 53.15 35.65 53.15 35.7 53.2 35.7 53.35 35.45 53.35 35.5 53.45 35.5 53.45 35.4 53.35 35.4 M54.05 35.4 L53.95 35.5 54.05 35.55 53.95 35.55 53.95 35.7 54.0 35.7 54.0 35.8 54.1 35.8 54.1 35.65 54.05 35.65 Q54.15 35.55 54.3 35.5 L54.25 35.5 54.25 35.45 54.1 35.4 54.05 35.4 M55.65 34.85 L55.75 34.9 55.85 35.0 55.9 34.85 55.85 34.8 55.65 34.8 55.65 34.85 M55.3 35.25 L55.3 35.4 55.35 35.4 55.35 35.25 55.3 35.25 M52.85 36.6 L52.65 36.65 52.65 36.75 52.6 36.8 52.7 36.9 52.85 37.0 53.0 36.9 53.1 36.9 53.0 36.8 52.95 36.7 52.95 36.65 Q52.85 36.5 52.85 36.65 L52.85 36.6 M51.9 38.3 L51.8 38.3 51.7 38.25 51.7 38.35 51.9 38.3 M53.7 36.8 L53.7 36.9 53.8 36.9 53.8 36.95 53.65 36.9 53.65 37.0 53.75 37.05 53.85 37.05 53.85 37.0 53.95 37.0 53.95 37.1 54.3 36.95 54.3 36.9 54.1 36.9 54.1 36.8 54.05 36.8 54.05 36.65 53.95 36.75 53.7 36.8 M53.45 39.05 L53.65 39.05 53.65 38.85 53.45 38.85 53.45 39.05" fill="#ffffff" fill-rule="evenodd" stroke="none"/>
    <path d="M72.0 18.6 L72.0 19.8 72.1 19.3 72.05 18.65 Q74.9 18.85 76.8 20.8 78.55 22.7 78.85 25.55 L79.35 31.7 Q79.5 34.25 78.25 36.4 77.0 38.55 74.6 39.3 L74.6 39.15 74.45 39.15 74.45 39.4 74.0 39.55 74.0 39.2 73.95 39.2 73.95 39.4 73.85 39.4 73.85 39.55 73.75 39.55 73.7 39.6 73.7 39.55 73.5 39.55 73.65 39.6 73.45 39.6 73.25 39.7 73.4 39.55 73.5 39.5 73.7 39.45 73.75 39.15 73.55 39.15 73.55 39.3 73.45 39.4 73.25 39.4 73.4 39.25 73.25 39.2 73.2 39.05 73.15 39.05 73.1 39.25 73.05 39.25 72.9 39.05 72.9 38.95 72.65 39.1 72.65 39.05 72.5 38.95 72.5 39.1 72.4 39.1 72.3 38.55 72.2 38.55 72.25 38.25 72.1 37.9 72.25 37.9 72.25 37.75 72.1 37.75 72.2 37.65 72.35 37.6 Q73.8 37.55 74.25 36.25 L74.35 36.25 74.35 36.15 74.3 36.15 74.35 36.0 74.4 36.0 74.45 35.95 74.45 35.85 74.4 35.85 74.4 35.8 Q74.7 34.85 74.6 33.65 L74.65 33.65 74.6 33.6 74.6 33.3 74.65 33.3 74.65 33.2 74.6 33.2 74.6 32.9 74.55 32.45 74.65 32.45 74.7 32.25 74.55 32.2 74.55 32.1 74.65 32.2 74.7 32.2 74.45 31.8 74.45 31.6 74.65 31.65 74.65 31.5 74.45 31.5 74.45 31.35 74.6 31.2 74.6 31.1 74.45 31.1 74.45 31.0 74.7 30.15 74.75 30.2 74.75 30.25 74.9 30.35 74.9 30.45 74.95 30.45 74.95 30.2 75.05 30.2 75.0 30.05 74.95 30.05 74.9 29.95 74.85 30.05 74.7 30.05 74.7 29.55 74.65 29.55 74.6 29.85 74.4 29.85 74.4 29.95 74.6 29.95 74.6 30.15 74.45 30.15 74.35 30.1 74.35 29.6 74.4 29.6 74.45 29.5 74.35 29.5 74.3 29.1 74.35 29.1 74.3 29.0 74.25 28.2 74.3 28.15 74.45 28.15 74.45 27.95 74.65 28.15 74.75 28.15 74.7 28.05 74.7 27.95 74.75 27.95 74.75 27.85 74.6 27.85 74.6 27.75 Q74.4 27.75 74.4 27.85 L74.25 27.9 74.1 26.45 74.15 26.45 74.1 26.3 74.05 26.3 74.05 26.2 74.4 26.15 74.4 26.05 74.3 26.05 74.1 26.1 74.1 26.15 74.05 26.15 74.0 24.3 73.45 22.1 Q73.1 21.1 72.1 20.85 L72.1 20.7 72.2 20.6 72.1 20.6 72.0 19.8 72.0 20.8 71.65 20.8 71.2 20.75 Q69.7 20.9 69.25 22.1 68.8 23.1 68.95 24.6 L69.55 33.3 Q69.6 34.8 70.15 36.25 70.7 37.55 72.0 37.6 L72.0 39.75 Q68.9 39.75 66.9 37.85 64.9 36.0 64.75 32.75 L64.4 26.45 Q64.2 25.1 64.7 23.65 65.1 22.4 66.0 21.2 66.9 20.15 68.2 19.45 69.55 18.65 71.15 18.6 L72.0 18.6 M75.6 23.95 L75.75 23.95 75.75 24.05 75.9 24.25 76.05 24.45 76.05 24.35 76.45 24.6 76.35 24.85 76.45 24.85 76.75 24.85 77.1 24.95 77.15 24.95 77.25 24.8 77.15 24.6 77.05 24.55 76.95 24.45 76.7 24.15 76.5 24.15 76.35 24.05 76.35 24.25 76.2 24.25 76.15 24.05 75.95 24.0 75.95 23.95 75.9 23.95 75.75 23.8 75.6 23.85 75.6 23.95 M74.6 24.3 L74.35 24.15 74.4 24.2 74.4 24.3 74.4 24.35 74.6 24.35 74.6 24.3 M75.9 24.3 L75.85 24.25 75.85 24.35 75.9 24.3 M77.05 25.9 L76.95 25.85 76.85 25.85 76.85 25.9 77.05 25.9 M74.95 26.05 L75.05 26.3 75.2 26.3 75.2 26.4 75.25 26.4 75.35 26.65 75.45 26.5 75.2 26.05 74.95 26.05 M75.35 26.65 L75.35 27.0 75.25 27.05 75.2 27.3 75.45 27.15 75.5 27.3 75.55 27.35 75.85 27.3 75.85 27.15 75.6 27.15 75.45 26.7 75.45 26.65 75.35 26.65 M75.0 27.45 L74.9 27.4 74.85 27.55 74.75 27.55 74.75 27.6 74.9 27.6 74.9 27.7 75.0 27.65 74.95 27.65 74.95 27.6 75.2 27.6 75.05 27.45 75.05 27.3 75.0 27.3 75.0 27.45 M74.4 28.05 L74.35 28.05 74.35 27.9 74.45 27.95 74.4 27.95 74.4 28.05 M74.4 28.5 L74.4 28.65 74.35 28.9 74.4 28.9 74.4 28.95 74.45 28.95 74.45 28.9 74.55 28.85 74.6 28.85 74.55 28.7 74.6 28.5 74.4 28.5 M75.95 28.05 L75.9 28.05 75.9 28.2 75.95 28.2 75.95 28.05 M75.65 28.65 L75.55 28.7 75.55 28.85 75.45 28.8 75.35 28.7 75.35 28.9 75.15 28.9 75.15 29.0 75.2 28.95 75.25 29.0 75.3 29.0 75.35 28.95 75.35 29.0 75.45 29.0 75.45 28.9 75.6 28.85 75.65 28.85 75.65 28.9 75.75 28.9 75.75 28.85 75.85 28.85 75.85 28.8 75.9 28.7 75.85 28.65 75.75 28.65 75.75 28.7 75.65 28.7 75.65 28.65 M76.4 29.2 L76.15 29.15 76.2 29.25 76.2 29.3 76.4 29.25 76.4 29.2 M76.35 29.8 L76.45 29.8 76.45 29.6 76.35 29.6 76.35 29.8 M75.25 29.0 L75.2 29.1 75.25 29.1 75.25 29.0 M75.05 29.15 L75.05 28.95 74.95 29.0 74.95 29.1 74.85 29.15 74.9 29.25 75.0 29.25 75.05 29.15 M74.55 30.35 L74.45 30.65 74.4 30.65 74.35 30.15 74.6 30.2 74.55 30.2 74.55 30.35 M74.7 31.65 L74.75 31.65 74.75 31.8 74.85 31.8 74.9 31.8 75.0 31.8 75.0 31.65 74.95 31.6 75.05 31.6 75.05 31.45 74.95 31.5 74.95 31.45 74.75 31.45 74.75 31.35 74.7 31.35 74.7 31.65 M75.65 30.5 L75.9 30.5 75.9 30.45 75.65 30.45 75.65 30.5 M75.75 31.05 L75.75 30.85 75.55 30.9 75.8 31.15 75.75 31.05 M76.8 31.5 L76.8 31.4 76.7 31.4 76.8 31.5 M77.55 28.6 L77.45 28.8 77.35 28.95 77.35 29.0 77.45 28.9 77.75 28.9 77.55 28.6 M77.25 30.65 L77.25 30.8 77.35 30.8 77.35 30.65 77.25 30.65 M77.75 33.3 L77.75 33.5 77.9 33.5 77.75 33.3 M77.25 34.8 L77.25 34.85 77.3 34.9 77.4 35.0 77.45 34.85 77.4 34.8 77.25 34.8 M77.55 34.85 L77.45 34.85 77.45 35.0 77.55 34.85 M76.8 32.65 L76.7 32.65 76.7 32.6 76.65 32.6 76.65 32.65 76.7 32.7 76.7 32.75 76.8 32.75 76.8 32.95 76.95 32.95 76.95 32.9 77.05 32.9 77.05 32.85 77.0 32.85 77.05 32.7 77.0 32.7 77.05 32.6 77.0 32.6 Q77.0 32.45 76.8 32.65 M76.65 32.7 L76.45 32.7 76.45 32.75 76.4 32.75 76.45 33.05 76.25 33.05 76.25 33.15 76.45 33.15 76.45 33.2 76.55 33.15 76.55 33.2 76.7 33.15 76.65 33.05 76.65 32.7 M76.2 32.35 L76.05 32.4 76.05 32.55 75.95 32.65 76.05 32.65 76.05 32.7 75.9 32.7 75.95 32.75 76.1 32.85 76.1 32.75 76.15 32.75 76.15 32.65 76.2 32.65 76.2 32.35 M75.75 32.95 L75.55 32.95 75.55 33.05 75.55 33.3 75.75 33.3 75.75 33.5 75.85 33.5 75.85 33.2 75.8 33.2 75.8 33.15 75.75 33.15 75.75 33.05 75.85 33.15 75.95 33.05 75.95 32.95 75.85 32.95 75.75 32.9 75.75 32.95 M76.15 33.2 L75.95 33.25 76.05 33.3 76.15 33.3 76.15 33.2 M75.9 34.0 L75.9 34.1 75.95 34.1 76.05 34.0 75.95 33.95 75.9 34.0 M76.05 33.65 L76.1 33.65 75.95 33.6 75.9 33.65 75.85 33.65 75.85 33.7 75.95 33.8 75.95 33.85 76.05 33.85 76.05 33.65 M75.35 32.35 L75.25 32.35 75.25 32.45 75.35 32.45 75.35 32.35 M75.15 33.15 L75.2 33.2 75.15 33.2 75.15 33.35 75.2 33.35 75.2 33.5 75.35 33.65 75.5 33.65 75.55 33.35 75.5 33.35 75.5 33.3 75.35 33.3 75.35 33.35 75.25 33.05 75.55 33.05 75.35 33.0 75.35 32.95 75.25 32.95 75.25 32.9 75.2 32.85 75.05 32.85 75.2 33.15 75.15 33.15 M74.7 32.95 L74.7 32.9 74.75 32.75 74.75 32.7 74.7 32.7 74.65 32.95 74.7 32.95 M75.55 34.1 L75.25 34.1 75.25 34.4 75.3 34.4 75.3 34.5 75.35 34.55 75.35 34.6 75.45 34.6 75.45 34.55 75.55 34.55 75.55 34.4 75.6 34.4 75.55 34.1 M74.7 35.25 L74.85 35.25 74.7 35.5 74.85 35.5 74.85 35.55 74.7 35.55 74.65 35.5 74.6 35.65 74.6 35.8 74.75 35.65 74.75 35.7 74.85 35.7 74.9 35.55 74.9 35.5 75.0 35.5 75.0 35.4 74.9 35.4 74.95 35.25 75.0 35.2 74.7 35.2 74.7 35.25 M75.6 35.4 L75.55 35.5 75.65 35.55 75.55 35.55 75.5 35.7 75.6 35.7 75.6 35.8 75.75 35.8 75.75 35.65 75.65 35.65 75.9 35.5 75.85 35.5 75.85 35.45 75.75 35.4 75.9 35.4 75.9 35.35 75.6 35.25 75.6 35.4 M77.0 34.85 L76.95 34.85 76.95 35.0 77.0 35.0 77.0 34.85 M76.95 35.25 L76.85 35.25 76.85 35.4 76.95 35.4 76.95 35.25 M75.65 36.65 L75.5 36.75 75.25 36.8 75.25 36.9 75.35 36.9 75.35 36.95 75.2 36.9 75.2 37.0 75.3 37.05 75.45 37.05 75.45 37.0 75.55 37.0 75.5 37.05 75.5 37.1 75.9 36.95 75.9 36.9 75.75 36.9 75.75 36.8 75.65 36.8 75.65 36.65 M75.45 36.1 L75.25 36.0 75.25 36.05 75.35 36.25 75.45 36.15 75.45 36.1 M74.15 36.8 L74.35 36.9 74.4 37.0 74.65 36.9 74.7 36.9 74.6 36.8 74.55 36.7 74.55 36.65 74.4 36.65 74.4 36.6 74.3 36.65 74.25 36.75 74.15 36.8 M75.0 38.85 L75.0 39.05 75.2 39.05 75.2 38.85 75.0 38.85" fill="#ffffff" fill-rule="evenodd" stroke="none"/>
    <path d="M107.1 7.65 L108.3 7.65 108.65 7.75 108.9 7.95 109.0 8.3 108.8 8.6 107.85 9.0 107.7 9.35 106.8 10.2 105.8 10.55 105.65 11.25 104.75 12.0 Q104.5 12.1 104.5 12.35 104.5 12.7 104.85 12.9 L105.15 13.4 104.5 14.0 Q104.5 14.5 104.85 15.25 L105.15 17.0 104.5 17.5 104.5 32.25 104.75 32.7 105.65 33.55 105.8 33.95 106.35 34.75 106.4 35.05 107.7 35.05 107.7 35.7 107.9 36.05 107.9 36.4 107.7 36.9 106.7 37.55 106.1 38.05 105.8 38.6 Q105.4 38.95 105.15 39.45 105.0 39.8 104.5 39.8 L103.65 39.75 Q103.25 39.7 103.25 39.2 L102.65 38.15 100.9 36.45 100.25 35.7 98.9 35.05 98.85 34.3 Q98.8 33.95 98.3 33.95 L98.25 34.25 Q98.15 34.55 97.7 34.55 L97.35 35.05 97.05 35.05 96.85 35.55 96.95 35.7 96.4 36.3 94.55 38.05 94.15 38.3 93.4 39.55 92.6 39.8 92.05 39.75 92.0 39.2 91.3 38.8 88.95 36.3 88.0 35.45 87.0 35.05 87.0 35.7 86.35 36.05 Q85.75 36.45 85.75 36.9 L85.2 36.6 85.15 36.3 85.2 36.0 Q85.35 35.7 85.75 35.7 L87.0 34.55 87.0 21.7 89.95 19.2 90.8 18.2 Q90.8 17.7 91.15 17.5 L91.45 17.0 91.2 17.0 91.45 16.95 91.8 16.75 92.0 16.4 92.5 16.55 92.9 17.0 93.25 17.5 Q93.25 18.0 92.95 18.1 L92.85 18.2 93.95 18.2 94.3 18.6 94.6 19.05 95.0 19.5 95.8 19.9 96.4 21.15 97.3 21.7 Q97.7 21.95 97.7 22.3 L98.05 22.6 98.9 22.95 98.9 18.75 98.6 18.2 Q98.3 18.0 98.3 17.5 L98.9 17.0 98.9 14.0 98.35 13.0 97.6 12.1 96.4 11.15 95.55 11.25 Q95.15 11.45 95.15 12.35 L94.55 12.35 94.55 12.9 93.25 13.4 92.65 13.35 92.6 12.9 92.85 12.4 93.35 11.8 94.0 11.35 Q94.3 11.15 94.55 11.15 L96.8 8.45 97.95 7.45 Q98.55 7.05 99.55 7.05 L100.85 7.05 100.85 7.65 101.45 7.75 101.65 7.95 101.5 8.3 104.5 11.15 105.1 10.85 105.7 10.2 106.25 9.35 106.55 8.25 107.1 7.65 M99.05 8.15 L99.55 8.3 99.85 8.25 Q100.25 8.05 100.25 7.65 L98.9 7.65 99.05 8.15 M99.05 9.6 L98.35 10.1 97.9 10.6 97.7 11.15 Q99.55 11.15 99.55 9.35 99.25 9.35 99.05 9.6 M101.5 9.35 L101.5 8.75 100.85 8.75 100.9 9.1 Q100.95 9.35 101.5 9.35 M99.8 11.45 L100.25 10.55 100.25 10.0 98.3 11.8 98.9 12.35 99.8 11.45 M100.85 11.8 L99.55 12.35 99.55 12.9 100.75 12.6 Q101.5 12.2 101.5 11.8 L100.85 11.8 M100.85 15.2 L101.5 15.1 101.95 14.7 102.15 14.0 Q101.75 14.0 101.25 14.3 L100.85 14.65 100.85 15.2 M99.65 17.45 L100.25 17.5 101.2 16.95 101.85 16.35 102.15 15.8 101.55 15.8 Q101.8 15.8 101.45 15.9 L100.75 16.15 99.95 16.55 Q99.55 16.75 99.55 17.0 L99.65 17.45 M100.25 14.0 L101.45 13.65 102.15 12.9 99.55 14.0 100.25 14.0 M98.25 8.9 Q98.15 8.75 97.7 8.75 L97.7 9.35 97.05 9.35 97.1 9.65 Q97.25 10.0 97.7 10.0 L98.3 9.35 98.25 8.9 M92.4 19.55 L91.05 20.3 90.2 20.5 90.15 21.05 89.55 21.15 89.35 21.55 88.95 21.95 88.3 22.3 88.3 22.95 Q88.75 22.95 88.95 22.6 89.1 22.3 89.55 22.3 L89.55 22.9 88.3 23.95 Q89.25 23.95 89.8 23.6 L90.8 22.95 90.75 22.35 90.2 22.3 89.6 22.8 90.1 22.0 90.7 21.15 91.45 20.5 92.6 20.15 Q93.25 19.8 93.25 19.3 92.9 19.3 92.4 19.55 M92.6 23.4 L91.45 23.4 91.7 24.2 92.0 24.55 92.6 23.95 92.6 32.25 92.65 32.75 93.25 32.85 92.6 32.85 Q92.6 33.3 93.05 33.35 L93.95 33.45 94.3 33.9 94.6 34.45 95.0 34.85 95.8 35.05 96.65 34.5 Q97.05 34.45 97.05 33.95 L98.25 33.05 Q98.9 32.55 98.9 31.65 L98.6 30.85 98.3 30.45 Q98.3 29.95 98.6 29.65 L98.9 29.3 98.9 28.15 98.3 27.55 98.85 27.15 98.9 25.15 98.45 24.15 97.35 23.0 95.8 21.7 94.55 21.7 94.05 22.6 93.45 23.1 92.6 23.4 M91.95 21.65 L92.0 21.15 Q91.6 21.15 91.5 21.45 L91.45 21.7 91.95 21.65 M90.2 23.95 L89.0 24.85 Q88.3 25.35 88.3 25.75 L89.5 25.35 Q90.2 24.95 90.2 24.55 L90.2 23.95 M89.55 25.75 L88.3 26.95 88.95 27.55 89.55 26.95 90.2 26.95 90.2 26.35 90.15 26.05 89.9 25.85 89.55 25.75 M89.55 28.15 L89.95 28.15 90.0 28.05 90.2 27.55 89.55 28.15 M88.3 31.65 L88.4 32.1 88.95 32.25 90.0 31.5 90.2 31.05 88.95 31.05 88.3 31.65 M88.3 30.45 L89.5 30.2 90.2 29.9 90.2 29.3 89.0 29.65 Q88.3 30.05 88.3 30.45 M88.95 29.3 L89.95 28.15 89.0 28.2 Q88.3 28.3 88.3 28.65 L88.35 29.0 Q88.5 29.3 88.95 29.3 M103.25 20.5 L103.9 20.5 103.9 19.9 103.25 19.9 103.25 20.5 M102.15 19.9 L101.5 19.3 100.85 19.3 99.55 20.5 100.9 20.45 101.55 20.25 102.15 19.9 M102.7 20.5 L102.15 20.5 Q101.6 20.5 101.25 20.9 100.85 21.25 100.85 21.7 L101.5 21.7 99.55 23.4 99.55 23.95 100.85 23.95 100.65 24.45 99.55 25.15 100.25 25.75 100.85 25.15 100.4 25.8 100.0 26.05 99.7 26.3 Q99.55 26.4 99.55 26.95 99.55 27.35 99.85 27.45 L100.25 27.55 100.55 27.1 101.85 26.2 102.15 25.75 102.05 25.5 101.6 25.4 101.5 25.15 Q101.5 24.75 101.85 24.55 L102.7 23.95 102.15 23.95 102.15 23.4 101.5 23.95 101.15 23.9 Q100.85 23.8 100.85 23.4 101.3 23.4 101.75 23.05 L102.15 22.3 102.05 22.05 101.85 21.8 101.55 21.7 102.15 21.7 Q102.15 21.15 102.45 20.85 L102.7 20.5 M102.15 17.5 L100.95 17.95 Q100.25 18.3 100.25 18.75 L100.25 19.3 Q100.65 19.3 100.85 18.95 L101.5 18.2 102.15 18.2 102.15 17.5 M99.85 22.25 Q100.25 22.15 100.25 21.7 L99.85 21.75 Q99.55 21.85 99.55 22.3 L99.85 22.25 M103.9 21.7 L103.25 21.15 103.3 21.65 103.9 21.7 M102.15 26.95 L101.5 26.95 100.85 27.55 100.25 27.55 100.25 28.65 100.75 28.5 101.45 28.0 101.9 27.4 102.15 26.95 M102.15 28.15 L100.85 28.65 100.45 28.85 Q100.3 29.0 100.3 29.3 L100.25 29.9 100.9 29.8 101.65 29.45 102.4 28.9 102.7 28.15 102.15 28.15 M101.25 30.2 L100.85 30.45 102.1 30.4 102.15 29.9 101.5 29.9 101.25 30.2 M100.85 30.45 L100.4 30.7 100.25 31.05 100.25 31.65 Q100.7 31.65 100.75 31.3 L100.85 30.45 M101.55 31.35 Q101.35 31.5 101.5 31.65 L101.55 31.95 Q101.65 32.25 102.15 32.25 L102.15 31.05 Q101.65 31.05 101.55 31.35 M102.1 32.95 L101.5 32.85 100.85 33.45 102.15 33.45 102.1 32.95 M102.15 35.7 Q102.15 36.15 102.45 36.25 L102.7 36.3 103.25 35.7 103.2 35.15 102.7 35.05 102.15 35.7 M102.65 34.25 Q102.5 33.95 102.15 33.95 101.65 33.95 101.55 34.3 L101.5 35.05 100.85 35.7 101.5 35.7 102.1 35.35 102.5 35.0 102.7 34.55 102.65 34.25 M100.25 32.3 L99.55 32.85 100.25 32.85 101.05 32.55 101.5 32.25 100.25 32.3 M103.3 36.35 L103.25 36.9 104.15 36.75 Q104.5 36.7 104.5 36.3 L103.3 36.35 M92.55 35.15 L92.0 35.05 91.45 35.7 91.5 36.0 92.0 36.3 92.6 35.7 92.55 35.15 M90.0 33.05 L90.2 32.25 Q89.7 32.3 89.25 32.6 L88.6 32.95 88.3 33.45 88.35 33.65 Q88.5 33.95 88.95 33.95 88.95 33.55 89.1 33.45 L89.6 33.3 90.0 33.05 M90.2 33.95 L89.55 34.3 Q88.95 34.7 88.95 35.05 L89.55 35.05 90.15 34.75 90.6 34.4 90.8 33.95 90.2 33.95 M90.2 35.7 L91.1 35.35 91.45 34.55 91.0 34.6 90.55 34.8 90.2 35.05 90.2 35.7" fill="#ffffff" fill-rule="evenodd" stroke="none"/>
  </g>
</svg>
