<?xml version="1.0" encoding="UTF-8" standalone="no"?>
<svg xmlns:xlink="http://www.w3.org/1999/xlink" height="148.7px" width="187.0px" xmlns="http://www.w3.org/2000/svg">
  <g transform="matrix(1.0, 0.0, 0.0, 1.0, 89.0, 91.25)">
    <path d="M11.1 -90.35 Q17.7 -89.0 22.45 -86.5 L42.3 -37.5 98.0 -34.5 89.65 0.5 89.65 19.45 44.6 46.45 15.6 57.45 -31.75 45.45 -68.35 11.45 -88.2 -23.5 -89.0 -45.5 -29.45 -53.5 Q-28.5 -59.75 -25.7 -67.1 -20.15 -81.85 -11.15 -87.5 -2.05 -93.1 11.1 -90.35" fill="#000099" fill-opacity="0.0" fill-rule="evenodd" stroke="none"/>
    <path d="M51.75 -22.4 Q53.5 -22.0 61.35 -16.3 L68.8 -10.65 80.2 0.4 84.0 12.15 58.4 25.2 21.4 38.85 -10.85 38.25 -35.5 26.5 -48.8 14.75 -30.5 8.0 -69.65 1.7 -76.3 -1.55 -62.05 -20.45 -61.15 -38.7 -45.0 -45.2 -35.5 -40.0 -25.1 -45.2 -14.65 -38.05 7.15 -36.1 20.45 -30.25 51.75 -22.4" fill="#999999" fill-rule="evenodd" stroke="none"/>
  </g>
</svg>
