<?xml version="1.0" encoding="UTF-8" standalone="no"?>
<svg xmlns:xlink="http://www.w3.org/1999/xlink" height="6.0px" width="10.1px" xmlns="http://www.w3.org/2000/svg">
  <g transform="matrix(1.0, 0.0, 0.0, 1.0, -2.9, -3.3)">
    <path d="M10.4 3.3 L10.85 3.4 Q11.35 3.5 11.65 3.9 12.0 4.25 12.0 4.75 L11.95 5.05 11.85 5.45 12.3 5.55 12.65 5.8 12.9 6.2 13.0 6.65 12.75 7.35 12.3 7.75 11.8 8.0 11.55 8.1 11.2 8.2 10.95 8.3 10.65 8.4 10.55 8.1 10.75 8.0 11.2 7.65 11.35 7.5 11.4 7.4 11.55 7.35 11.6 7.35 11.8 7.3 12.2 7.0 12.3 6.65 12.25 6.4 Q12.2 6.25 12.0 6.2 L11.6 6.1 10.9 6.2 11.0 5.7 11.05 5.45 11.05 5.3 11.15 5.25 11.25 4.95 11.25 4.75 11.1 4.3 Q10.95 4.1 10.65 4.0 L10.4 4.0 Q10.0 4.0 9.6 4.3 L9.2 4.7 9.05 4.9 7.8 4.65 6.4 5.0 6.25 4.6 6.1 4.35 Q5.8 4.05 5.4 4.05 L4.9 4.25 Q4.75 4.45 4.75 4.6 L4.75 4.65 4.85 4.85 5.05 5.0 4.95 5.2 4.9 5.5 4.95 5.8 5.0 5.9 4.9 6.35 4.55 6.3 4.3 6.3 3.85 6.35 3.6 6.65 3.7 6.85 4.0 7.1 4.65 7.5 4.8 7.55 4.85 7.65 4.95 7.75 5.3 8.0 5.5 8.15 5.4 8.5 5.25 8.45 5.1 8.4 4.9 8.35 4.6 8.2 4.35 8.1 3.95 7.9 3.2 7.3 2.9 6.65 2.95 6.4 Q3.1 5.95 3.6 5.75 L4.2 5.6 4.2 5.5 4.25 5.2 4.05 4.65 4.05 4.6 Q4.05 4.15 4.35 3.8 4.75 3.4 5.35 3.4 L5.4 3.4 6.15 3.55 6.65 3.95 6.85 4.2 7.8 4.0 8.75 4.15 9.1 3.85 Q9.75 3.3 10.4 3.3" fill="#c49617" fill-rule="evenodd" stroke="none"/>
    <path d="M11.85 5.8 Q12.45 5.9 12.55 6.3 12.8 7.0 12.2 7.45 L11.6 7.7 11.4 7.95 10.75 8.55 Q9.5 9.4 7.8 9.3 6.2 9.25 5.2 8.55 L4.7 8.05 4.55 7.8 3.85 7.4 Q3.15 6.95 3.3 6.5 3.45 6.05 4.05 5.95 L4.65 6.0 4.8 5.8 4.45 5.0 Q4.25 4.1 5.2 3.85 5.9 3.65 6.35 4.2 L6.7 4.8 7.8 4.4 8.9 4.75 Q9.0 4.45 9.25 4.1 9.75 3.5 10.5 3.65 11.5 3.8 11.55 4.8 L11.45 5.75 11.35 5.8 11.85 5.8" fill="#f9cf17" fill-rule="evenodd" stroke="none"/>
  </g>
</svg>
