<?xml version="1.0" encoding="UTF-8" standalone="no"?>
<svg xmlns:xlink="http://www.w3.org/1999/xlink" height="143.2px" width="117.55px" xmlns="http://www.w3.org/2000/svg">
  <g transform="matrix(1.0, 0.0, 0.0, 1.0, 0.0, -0.05)">
    <path d="M97.55 129.9 Q98.25 127.2 98.35 125.75 L96.3 125.55 94.05 125.8 93.8 127.55 94.05 127.95 95.25 128.7 Q96.1 129.3 96.65 129.5 L97.55 129.9 M97.65 123.5 L95.5 120.55 94.65 124.1 Q96.85 124.1 97.65 123.5 M94.7 120.35 L93.25 119.3 92.95 124.3 93.35 124.25 93.75 124.2 94.7 120.35 M87.25 121.65 L87.55 121.75 88.2 115.2 87.8 118.6 87.25 121.65 M90.15 116.25 L89.0 115.5 Q88.85 116.15 88.85 118.25 L88.4 122.4 90.1 124.05 91.85 124.0 92.3 121.05 Q92.5 119.15 92.25 118.1 L91.45 118.35 90.55 118.25 91.25 117.05 90.15 116.25 M97.65 108.1 L96.95 107.85 96.35 107.45 Q96.3 107.15 96.6 107.0 L97.05 106.7 97.45 105.85 90.45 106.35 90.1 106.3 Q89.8 110.65 89.35 112.7 L90.65 113.95 92.0 115.0 93.0 112.5 Q93.6 110.95 94.35 110.4 L94.5 113.8 Q94.7 116.2 95.35 117.2 96.85 112.35 97.65 108.1 M32.3 118.25 Q32.4 119.85 33.0 122.65 L35.6 119.3 Q33.1 118.3 32.3 118.25 M36.5 116.55 L35.85 113.05 31.7 114.65 31.65 114.7 Q34.85 116.2 36.5 116.55 M39.55 115.5 L39.4 111.4 38.45 111.65 36.85 112.55 37.85 116.9 39.55 115.5 M27.05 116.2 L28.55 121.3 30.2 126.6 32.3 123.5 30.7 115.0 27.05 116.2 M38.9 108.1 L38.6 108.45 39.0 108.55 38.9 108.1 M30.5 103.85 L31.25 104.5 31.55 104.65 31.5 104.7 34.45 107.05 Q33.3 102.25 32.9 99.8 L32.35 99.9 31.6 100.05 Q31.45 99.6 31.65 98.4 L28.2 100.4 28.7 101.65 28.8 100.95 29.2 100.8 29.6 101.3 30.0 101.75 Q29.8 102.9 30.5 103.85 M41.55 114.35 L41.55 112.2 41.1 111.95 40.6 111.8 40.3 110.45 39.9 111.0 40.2 115.05 41.55 114.35 M74.15 108.4 L72.05 107.15 69.8 106.15 70.15 110.6 70.7 110.8 Q72.05 111.3 73.7 112.45 L73.7 112.25 74.15 108.4 M75.15 108.6 L74.75 110.85 74.65 113.25 78.45 116.6 79.35 117.4 Q79.45 115.8 80.25 110.3 77.9 108.85 75.15 108.6 M74.35 103.95 Q71.95 103.15 70.9 102.5 L69.5 102.05 69.7 104.55 71.7 105.2 74.2 105.9 74.35 103.95 M78.75 105.05 Q78.85 105.25 78.55 105.15 L75.4 104.2 75.25 106.1 Q76.1 106.55 80.5 108.3 L80.75 105.6 Q80.65 105.35 79.7 105.3 78.85 105.25 78.8 104.8 78.6 104.8 78.75 105.05 M67.4 87.6 L67.9 87.95 68.3 87.45 67.4 87.6 M23.9 88.1 Q25.6 90.0 28.6 91.5 L30.15 92.4 31.5 93.05 32.05 93.1 32.2 92.95 32.25 93.15 34.45 93.0 36.45 93.15 36.2 94.25 Q35.9 94.85 35.9 95.3 L33.7 97.0 34.45 98.1 Q34.85 98.75 34.8 99.35 L34.35 99.45 34.0 99.45 34.8 103.35 35.7 107.35 Q37.0 106.9 38.4 105.85 L38.6 104.05 Q38.6 102.85 38.85 102.5 L39.0 102.7 39.1 101.95 38.85 101.4 38.45 100.75 38.1 99.75 37.55 99.05 Q38.25 97.45 38.75 96.85 38.3 96.85 37.95 96.3 L37.3 95.55 Q38.7 92.2 39.85 90.65 L40.0 90.45 35.0 90.45 29.95 90.4 Q26.95 90.1 26.45 88.85 L27.7 87.35 28.85 85.7 Q27.15 87.0 23.9 88.1 M86.05 31.1 Q91.2 20.2 92.75 12.8 94.35 12.6 94.5 14.2 L94.25 17.2 Q93.2 28.2 97.0 38.3 100.7 48.2 107.85 54.1 108.1 54.7 107.75 55.05 105.95 55.8 103.4 55.6 L98.95 54.95 Q99.45 58.2 102.4 61.6 L104.2 63.8 105.55 64.65 107.45 66.25 109.8 67.55 Q109.15 68.55 107.35 68.7 L104.0 68.65 97.6 68.3 Q98.0 74.35 103.55 81.0 106.1 84.0 108.85 85.55 L109.6 85.7 110.25 85.95 109.65 86.65 109.25 87.5 106.35 88.45 103.5 89.25 Q105.05 93.4 107.2 95.85 109.75 98.9 113.7 100.1 113.5 100.5 113.65 100.8 L113.8 101.3 Q113.0 102.4 111.15 103.0 L108.0 103.85 104.1 105.05 99.85 105.45 99.8 105.45 100.05 107.4 100.25 109.0 98.65 108.7 97.4 113.55 96.15 118.4 97.65 120.3 99.15 122.2 Q99.3 120.85 100.0 118.4 L100.85 115.0 100.2 114.9 Q99.6 114.9 99.55 114.6 99.6 114.4 99.8 114.15 L99.85 113.5 101.4 111.3 102.6 108.8 Q103.25 109.25 103.0 112.1 L103.1 114.15 Q103.15 115.15 102.85 115.5 L102.3 115.55 101.85 115.4 101.25 118.6 Q101.0 120.65 100.55 121.55 L99.65 126.15 98.45 130.5 99.55 131.55 100.5 133.25 101.55 134.6 103.85 135.5 Q102.95 137.35 100.35 137.55 L95.5 137.55 Q94.2 137.6 91.4 138.4 88.7 139.2 86.95 139.25 L80.4 139.25 77.0 139.25 76.35 139.1 75.7 138.9 72.5 139.1 69.2 139.4 66.15 139.2 63.1 138.75 58.3 138.95 53.5 139.4 49.45 139.1 45.3 138.9 37.5 139.2 29.5 140.5 Q28.9 140.6 29.0 138.2 29.15 135.75 28.5 135.7 L25.3 135.2 25.95 133.8 Q25.35 133.65 24.8 133.3 23.45 130.4 22.2 126.25 L20.1 118.6 15.65 119.4 10.6 119.6 Q7.85 119.45 7.95 118.25 8.0 118.0 8.25 117.9 L8.95 117.6 Q12.7 115.0 15.65 108.6 7.2 110.5 4.55 108.25 10.35 102.45 11.35 95.05 10.3 95.8 7.7 96.35 4.7 97.0 4.3 95.8 4.05 95.1 4.55 94.75 L5.55 94.3 Q8.6 91.15 9.1 84.45 L6.25 85.4 3.25 85.3 4.6 81.45 Q5.45 79.05 5.65 77.2 7.3 63.15 4.15 53.55 4.85 53.05 5.45 53.75 L6.55 54.8 8.4 59.6 Q9.4 62.55 10.6 64.05 10.5 64.25 10.75 64.5 L10.6 64.7 13.9 68.3 17.45 72.3 18.8 73.4 19.85 74.7 Q21.45 74.9 22.65 76.2 L23.6 76.35 24.65 76.45 24.55 77.3 24.4 78.0 Q23.45 78.5 20.25 79.25 21.35 80.95 24.2 81.9 L29.45 83.3 29.7 83.7 29.8 84.05 Q33.7 78.5 35.4 74.45 L30.7 75.1 25.65 75.55 Q24.8 75.0 24.65 74.45 32.4 68.0 35.55 59.25 L33.95 59.95 31.85 60.4 28.25 61.3 Q26.1 61.7 24.8 60.9 24.85 60.05 25.7 59.65 L27.2 59.0 Q30.15 56.5 32.0 54.2 L34.05 51.35 Q35.05 49.65 35.3 47.95 L29.85 48.65 24.9 48.5 Q24.85 47.9 25.4 47.45 L26.3 46.7 27.2 45.35 28.1 43.8 29.85 40.9 Q35.4 30.9 36.05 15.7 L36.05 9.0 Q35.85 6.35 36.3 5.45 37.0 6.1 37.3 7.5 L37.8 9.85 39.2 14.7 40.0 16.2 40.85 19.35 41.75 22.4 43.9 27.6 Q44.65 29.3 46.55 32.3 L48.4 35.5 50.5 38.5 56.8 45.2 Q56.2 46.8 53.7 47.3 L49.35 47.7 Q51.35 50.3 54.6 52.25 57.85 54.2 61.75 55.2 61.6 55.65 61.75 56.1 L61.85 56.85 Q60.7 57.7 58.75 58.45 L55.3 59.75 Q56.1 61.85 57.5 63.5 L60.6 66.45 Q61.8 67.45 64.2 68.55 L67.95 70.65 Q67.55 71.8 66.05 72.5 L63.25 73.4 Q59.8 74.5 57.2 74.55 57.95 78.15 62.15 80.75 L61.6 79.95 Q62.5 79.35 64.05 78.55 65.9 77.65 66.5 77.3 72.95 73.5 78.25 65.9 L73.25 65.3 Q70.35 64.85 68.8 64.05 L68.1 62.7 69.25 62.05 70.55 61.7 Q73.15 60.8 75.5 58.5 L79.4 53.85 75.15 53.45 Q72.45 53.25 71.95 51.85 72.3 52.0 72.25 51.75 L72.25 51.25 73.2 50.45 74.2 49.8 76.9 47.4 79.4 43.6 Q81.8 40.1 86.05 31.1" fill="#ffffff" fill-rule="evenodd" stroke="none"/>
    <path d="M97.0 17.5 Q96.05 27.65 99.45 37.0 102.9 46.4 109.6 52.0 L110.2 52.5 110.45 53.15 Q111.15 55.2 109.95 56.75 L109.5 57.35 108.8 57.6 Q106.4 58.6 103.35 58.35 L106.0 61.7 106.1 61.75 Q106.9 62.1 107.4 62.6 L107.55 62.75 Q109.4 64.45 110.8 64.95 L114.05 66.2 112.1 69.05 Q110.5 71.5 106.5 71.5 L100.95 71.35 Q102.1 75.0 105.65 79.25 107.7 81.65 109.9 82.95 111.15 83.25 111.85 83.7 L113.85 85.1 112.65 87.25 111.95 88.25 111.75 89.35 110.4 90.0 107.3 91.05 Q108.65 93.65 110.4 95.2 112.1 96.7 114.5 97.45 L117.55 98.4 116.5 100.6 116.55 101.35 116.55 102.25 116.0 103.0 Q114.9 104.4 113.05 105.2 L109.85 106.2 105.15 107.6 Q106.05 109.05 105.75 112.35 L105.8 113.6 Q106.05 115.9 105.05 117.2 L104.3 118.2 104.05 118.2 104.0 118.75 103.2 122.25 Q102.95 124.8 101.7 129.15 L101.55 129.65 101.8 130.0 103.2 132.4 107.65 133.8 106.35 136.65 Q104.65 140.35 99.35 140.35 L97.75 140.3 95.65 140.3 92.45 141.0 Q89.2 141.95 87.05 142.0 L82.55 142.0 79.15 142.0 76.8 142.0 75.4 141.65 72.3 141.9 69.35 142.15 64.9 141.8 62.85 141.5 57.55 141.8 53.6 142.15 53.25 142.15 50.75 142.0 49.3 141.85 47.8 141.8 44.85 141.65 42.85 141.5 34.45 142.5 29.85 143.25 29.45 143.25 Q28.15 143.25 27.2 142.3 26.45 141.55 26.3 140.35 26.2 139.7 26.25 138.15 L26.2 138.1 21.25 137.55 22.45 134.8 22.3 134.45 Q20.35 130.4 18.1 121.8 L10.35 122.35 Q7.3 122.15 6.0 120.6 5.05 119.4 5.2 117.95 5.4 115.85 7.5 115.25 8.95 114.15 10.4 112.15 5.2 112.45 2.75 110.3 L0.45 108.35 2.6 106.25 Q6.0 102.95 7.45 99.2 L5.95 99.3 Q3.95 99.3 2.8 98.3 2.0 97.65 1.7 96.7 1.35 95.7 1.55 94.65 1.85 92.85 3.9 92.0 5.0 90.7 5.7 88.4 3.55 88.65 1.9 87.7 L0.0 86.6 1.55 81.85 Q2.75 78.55 2.95 76.9 4.5 63.55 1.55 54.4 L0.9 52.5 2.55 51.3 Q3.6 50.55 4.75 50.55 6.55 50.55 7.8 52.3 L8.45 52.5 9.0 53.55 10.65 57.8 Q11.75 61.1 12.75 62.3 L13.9 63.7 13.75 64.0 15.8 66.35 19.4 70.35 20.05 70.9 21.55 72.25 22.5 72.65 22.9 72.3 Q27.6 68.45 30.45 63.6 L26.9 64.15 Q24.95 64.15 23.35 63.25 L21.95 62.4 22.05 60.75 Q22.2 57.9 25.25 56.9 L25.55 56.8 Q27.9 54.8 29.85 52.45 L30.75 51.3 27.4 51.55 24.1 51.1 22.25 50.55 22.15 48.6 Q22.1 46.45 24.1 45.0 L24.3 44.85 27.45 39.55 Q32.6 30.15 33.3 15.55 L33.3 9.2 33.25 8.75 Q33.05 5.85 33.85 4.25 L35.5 0.8 38.25 3.45 Q39.7 4.9 40.25 8.0 L40.45 9.15 41.8 13.8 41.95 14.05 42.6 15.35 43.35 18.2 44.3 21.45 46.45 26.5 47.95 29.25 49.55 32.0 Q51.45 35.35 52.6 36.7 L60.0 44.55 59.4 46.2 Q58.4 48.65 55.6 49.6 58.7 51.55 62.45 52.5 L65.25 53.25 64.5 55.6 Q64.8 56.5 64.55 57.5 L64.3 58.45 63.55 59.05 Q61.75 60.3 59.2 61.25 60.4 62.75 62.35 64.35 L65.5 66.15 Q68.05 67.25 69.6 68.4 L71.25 69.65 71.0 70.3 73.15 68.05 Q69.6 67.6 67.5 66.5 L66.85 66.15 66.4 65.45 65.55 63.75 64.9 62.15 66.0 60.85 Q67.1 59.65 69.2 59.25 L69.6 59.15 Q72.0 58.25 74.05 56.1 70.3 55.55 69.35 52.75 L67.25 46.7 71.2 48.5 72.5 47.6 73.05 47.15 74.9 45.55 76.0 43.8 77.15 42.05 Q79.25 38.95 83.2 30.75 L83.55 29.95 Q88.6 19.35 90.05 12.2 L90.5 10.3 93.15 10.0 Q95.0 10.0 96.2 11.35 97.1 12.4 97.25 14.05 L97.1 16.75 97.0 17.5 M91.45 25.75 L88.55 32.3 88.15 33.1 Q84.25 41.4 81.65 45.15 L80.75 46.6 78.9 49.3 77.3 50.8 80.25 51.2 83.9 52.4 81.6 55.5 Q77.8 60.65 74.7 62.7 L83.1 63.85 80.5 67.5 Q74.85 75.55 67.85 79.7 L65.7 80.8 63.15 82.2 62.45 81.15 60.7 83.1 Q55.55 79.9 54.5 75.15 L53.8 71.9 57.1 71.8 Q59.45 71.75 62.45 70.8 60.4 69.8 58.85 68.6 56.55 66.65 55.4 65.3 53.7 63.3 52.7 60.75 L51.75 58.15 56.65 56.35 Q50.5 53.65 47.2 49.4 L44.15 45.55 52.55 44.7 48.5 40.35 Q46.65 38.15 44.75 34.65 L43.25 32.15 41.35 28.7 38.4 20.95 Q37.05 33.45 32.25 42.2 L30.05 45.85 38.45 44.85 38.0 48.3 Q37.75 50.5 36.55 52.55 L34.2 55.85 32.9 57.35 33.9 57.0 41.2 51.65 38.15 60.15 Q35.65 67.0 30.95 72.2 L35.3 71.7 39.45 71.7 37.95 75.5 Q36.0 80.05 32.05 85.6 L29.25 84.05 29.0 84.95 31.35 86.75 30.9 87.7 35.35 87.7 40.1 87.7 45.3 88.0 42.0 92.35 Q41.4 93.2 40.95 94.15 L44.85 94.15 40.85 98.7 40.7 98.85 40.9 99.4 40.95 99.6 Q41.75 100.6 41.85 101.7 L41.7 103.4 41.55 103.85 43.0 109.8 43.0 109.85 43.85 110.7 44.4 111.5 44.25 112.5 44.3 114.1 44.5 116.4 42.3 117.0 41.7 117.35 40.1 118.6 39.7 119.0 39.9 120.2 38.7 119.95 32.55 128.1 29.35 133.05 Q31.8 133.7 31.8 137.4 L33.5 137.1 Q39.7 136.0 42.85 136.0 L45.7 136.2 47.9 136.3 53.4 136.65 56.9 136.3 63.4 136.0 65.75 136.35 68.75 136.65 69.1 136.65 71.7 136.45 75.45 136.15 75.75 136.15 77.35 136.5 78.95 136.5 82.65 136.5 86.85 136.5 90.95 135.7 Q93.6 134.9 95.35 134.8 L98.0 134.8 98.2 134.8 97.3 133.15 96.8 132.7 96.25 132.3 95.1 131.85 95.1 131.95 94.7 131.6 93.5 130.85 93.05 130.5 92.05 130.15 91.6 129.2 89.5 127.5 89.85 126.8 88.9 126.75 86.3 124.25 84.05 123.35 84.6 120.95 85.2 117.0 85.45 114.8 86.3 114.9 86.3 114.85 86.65 113.55 86.45 113.3 86.65 112.15 87.3 106.45 87.6 102.9 90.65 103.6 99.65 102.7 100.1 102.7 100.3 102.75 102.15 102.5 102.1 102.65 105.25 101.8 108.7 100.8 Q103.7 97.6 100.95 90.2 L99.9 87.5 104.7 86.05 Q103.1 84.7 101.45 82.8 98.7 79.5 97.25 76.65 95.1 72.65 94.85 68.5 L94.6 65.05 98.0 65.6 102.45 65.9 102.3 65.75 100.95 64.15 100.3 63.4 Q96.75 59.15 96.25 55.35 L95.7 51.65 102.45 52.75 Q97.75 47.55 94.9 40.5 92.05 33.5 91.45 25.75 M8.95 66.9 Q9.0 72.15 8.4 77.55 8.15 79.8 7.3 82.1 L8.6 81.75 12.1 81.05 11.85 84.6 Q11.45 89.5 9.95 92.7 L15.05 89.15 14.1 95.45 Q13.2 101.75 9.5 106.7 L15.05 105.9 20.55 104.7 18.15 109.8 Q16.25 113.85 13.75 116.85 L18.45 116.1 22.15 115.45 22.9 118.35 Q25.25 127.5 26.9 131.25 L28.9 131.85 26.25 123.15 24.4 116.9 23.75 114.45 33.5 111.05 33.3 109.7 32.6 109.1 31.0 107.8 30.75 111.3 26.3 102.95 25.55 101.2 24.85 98.9 26.05 98.35 26.1 97.55 27.2 97.8 30.15 96.1 30.6 95.8 30.15 95.8 30.1 95.45 28.2 94.5 27.3 93.95 Q23.75 92.1 21.8 89.9 L19.1 86.8 24.65 84.9 Q19.75 83.45 17.95 80.8 L15.7 77.45 17.8 76.95 17.3 75.7 16.7 75.25 15.45 74.2 8.95 66.9 M29.0 80.3 L30.55 77.9 27.25 78.35 27.4 79.5 26.85 79.8 29.0 80.3 M68.3 91.65 L60.5 85.9 75.25 83.7 68.3 91.65 M78.0 102.1 L81.5 102.0 81.5 102.8 Q82.8 103.25 83.3 104.5 L83.55 105.1 83.25 108.6 83.2 108.85 83.25 108.9 82.85 112.15 82.75 112.1 82.75 112.4 Q82.2 115.6 82.1 117.6 L81.65 123.65 77.4 119.35 72.9 115.35 72.05 114.7 69.7 113.35 67.75 112.7 67.4 113.15 66.3 98.15 72.05 100.0 72.35 100.15 75.15 101.3 78.0 102.1" fill="#ffffff" fill-rule="evenodd" stroke="none"/>
    <path d="M51.45 98.3 L51.75 98.8 51.9 99.25 51.6 99.3 50.85 98.8 50.05 98.8 Q49.6 98.9 49.35 99.35 49.1 99.95 49.25 100.95 L49.5 101.7 49.95 102.25 50.35 102.45 51.0 102.45 51.65 102.05 52.1 101.3 52.45 101.2 52.45 102.15 51.95 102.5 51.1 102.75 50.35 102.85 49.65 102.75 49.0 102.4 48.55 101.85 48.3 101.15 Q48.05 100.15 48.55 99.45 49.1 98.65 50.0 98.45 L51.45 98.3" fill="#ffffff" fill-rule="evenodd" stroke="none"/>
    <path d="M51.45 98.3 L51.75 98.8 51.9 99.25 51.6 99.3 50.85 98.8 50.05 98.8 Q49.6 98.9 49.35 99.35 49.1 99.95 49.25 100.95 L49.5 101.7 49.95 102.25 50.35 102.45 51.0 102.45 51.65 102.05 52.1 101.3 52.45 101.2 52.45 102.15 51.95 102.5 51.1 102.75 50.35 102.85 49.65 102.75 49.0 102.4 48.55 101.85 48.3 101.15 Q48.05 100.15 48.55 99.45 49.1 98.65 50.0 98.45 L51.45 98.3 Z" fill="none" stroke="#ffffff" stroke-linecap="butt" stroke-linejoin="miter" stroke-width="3.0"/>
    <path d="M52.75 97.9 L53.55 97.8 53.9 97.7 54.0 97.65 54.9 97.45 55.55 97.35 56.1 97.45 56.5 97.75 56.75 98.2 56.6 99.2 55.8 99.75 55.4 99.8 55.05 99.7 55.0 99.45 55.15 99.45 55.25 99.4 55.65 99.15 Q55.9 98.9 55.75 98.5 L55.55 98.0 55.25 97.75 54.75 97.8 Q54.55 97.8 54.4 97.95 L54.4 98.0 54.75 99.55 54.8 99.65 54.85 99.8 54.85 99.9 55.15 101.1 55.2 101.4 55.85 101.35 55.9 101.45 55.9 101.6 55.8 101.6 54.8 101.8 54.05 102.05 53.85 102.1 53.8 101.95 53.8 101.85 53.95 101.75 54.3 101.5 54.3 101.35 54.25 101.3 54.2 101.0 53.5 98.3 53.4 98.2 53.2 98.15 52.8 98.15 52.75 97.9" fill="#ffffff" fill-rule="evenodd" stroke="none"/>
    <path d="M52.75 97.9 L53.55 97.8 53.9 97.7 54.0 97.65 54.9 97.45 55.55 97.35 56.1 97.45 56.5 97.75 56.75 98.2 56.6 99.2 55.8 99.75 55.4 99.8 55.05 99.7 55.0 99.45 55.15 99.45 55.25 99.4 55.65 99.15 Q55.9 98.9 55.75 98.5 L55.55 98.0 55.25 97.75 54.75 97.8 Q54.55 97.8 54.4 97.95 L54.4 98.0 54.75 99.55 54.8 99.65 54.85 99.8 54.85 99.9 55.15 101.1 55.2 101.4 55.85 101.35 55.9 101.45 55.9 101.6 55.8 101.6 54.8 101.8 54.05 102.05 53.85 102.1 53.8 101.95 53.8 101.85 53.95 101.75 54.3 101.5 54.3 101.35 54.25 101.3 54.2 101.0 53.5 98.3 53.4 98.2 53.2 98.15 52.8 98.15 52.75 97.9 Z" fill="none" stroke="#ffffff" stroke-linecap="butt" stroke-linejoin="miter" stroke-width="3.0"/>
    <path d="M57.5 97.15 L57.45 96.9 57.55 96.85 58.9 96.6 59.35 96.45 59.6 96.4 59.6 96.45 59.65 96.65 59.3 96.75 59.05 96.9 59.1 97.3 59.15 97.45 59.2 97.55 59.65 99.5 59.95 100.05 60.3 100.25 60.85 100.25 61.4 100.05 61.85 99.6 61.9 99.2 61.8 98.55 61.35 96.8 61.3 96.65 61.15 96.4 60.9 96.35 60.6 96.45 60.55 96.45 60.5 96.2 61.95 95.85 62.05 95.85 62.1 96.0 62.1 96.1 61.6 96.3 61.6 96.4 61.75 97.05 61.8 97.15 61.9 97.65 62.1 98.25 62.25 99.15 62.2 99.55 61.95 99.95 61.45 100.35 60.7 100.6 59.85 100.7 59.2 100.45 58.85 99.95 58.3 97.75 58.1 97.15 57.65 97.15 57.5 97.15" fill="#ffffff" fill-rule="evenodd" stroke="none"/>
    <path d="M57.5 97.15 L57.45 96.9 57.55 96.85 58.9 96.6 59.35 96.45 59.6 96.4 59.6 96.45 59.65 96.65 59.3 96.75 59.05 96.9 59.1 97.3 59.15 97.45 59.2 97.55 59.65 99.5 59.95 100.05 60.3 100.25 60.85 100.25 61.4 100.05 61.85 99.6 61.9 99.2 61.8 98.55 61.35 96.8 61.3 96.65 61.15 96.4 60.9 96.35 60.6 96.45 60.55 96.45 60.5 96.2 61.95 95.85 62.05 95.85 62.1 96.0 62.1 96.1 61.6 96.3 61.6 96.4 61.75 97.05 61.8 97.15 61.9 97.65 62.1 98.25 62.25 99.15 62.2 99.55 61.95 99.95 61.45 100.35 60.7 100.6 59.85 100.7 59.2 100.45 58.85 99.95 58.3 97.75 58.1 97.15 57.65 97.15 57.5 97.15 Z" fill="none" stroke="#ffffff" stroke-linecap="butt" stroke-linejoin="miter" stroke-width="3.0"/>
    <path d="M51.55 104.0 L51.95 103.8 52.6 103.8 52.7 104.1 52.7 104.15 52.6 104.2 52.4 104.05 52.2 103.95 52.0 103.95 51.65 104.25 Q51.5 104.45 51.6 104.85 L51.75 105.2 52.0 105.45 52.35 105.45 52.5 105.4 52.6 105.35 52.6 105.25 52.5 104.85 52.3 104.85 52.25 104.8 52.25 104.75 52.3 104.7 52.55 104.65 52.6 104.65 52.8 104.6 52.9 104.6 53.0 104.55 53.0 104.65 52.9 104.75 52.9 104.95 52.95 105.15 52.95 105.25 52.95 105.3 52.75 105.45 52.35 105.6 52.0 105.65 51.75 105.6 51.5 105.45 51.35 105.25 51.2 104.95 51.2 104.55 51.3 104.25 51.55 104.0" fill="#ffffff" fill-rule="evenodd" stroke="none"/>
    <path d="M51.55 104.0 L51.95 103.8 52.6 103.8 52.7 104.1 52.7 104.15 52.6 104.2 52.4 104.05 52.2 103.95 52.0 103.95 51.65 104.25 Q51.5 104.45 51.6 104.85 L51.75 105.2 52.0 105.45 52.35 105.45 52.5 105.4 52.6 105.35 52.6 105.25 52.5 104.85 52.3 104.85 52.25 104.8 52.25 104.75 52.3 104.7 52.55 104.65 52.6 104.65 52.8 104.6 52.9 104.6 53.0 104.55 53.0 104.65 52.9 104.75 52.9 104.95 52.95 105.15 52.95 105.25 52.95 105.3 52.75 105.45 52.35 105.6 52.0 105.65 51.75 105.6 51.5 105.45 51.35 105.25 51.2 104.95 51.2 104.55 51.3 104.25 51.55 104.0 Z" fill="none" stroke="#ffffff" stroke-linecap="butt" stroke-linejoin="miter" stroke-width="3.0"/>
    <path d="M55.7 104.75 L55.65 104.8 55.5 104.8 55.15 104.85 54.9 104.95 54.85 104.95 54.8 104.85 54.9 104.8 55.0 104.8 55.05 104.75 55.0 104.4 54.95 104.3 54.9 104.15 54.8 104.15 54.2 104.3 54.05 104.3 54.0 104.35 54.05 104.45 54.05 104.5 54.15 104.9 54.15 105.0 54.35 104.95 54.45 104.95 54.45 105.05 54.35 105.1 54.3 105.1 54.1 105.15 53.9 105.15 53.85 105.2 53.6 105.25 53.55 105.15 53.7 105.1 53.8 105.05 53.75 104.75 53.65 104.45 53.6 104.15 53.6 104.1 53.55 104.0 53.55 103.9 53.5 103.85 53.45 103.65 53.2 103.65 53.2 103.55 53.25 103.55 53.35 103.5 53.55 103.5 53.65 103.45 53.7 103.45 53.9 103.4 54.0 103.35 54.05 103.35 54.05 103.4 54.1 103.45 53.85 103.55 53.85 103.7 53.9 103.75 53.9 103.95 53.95 104.0 53.95 104.15 54.25 104.15 54.35 104.1 54.8 104.0 54.9 103.95 54.85 103.75 54.85 103.7 54.75 103.45 54.75 103.35 54.45 103.35 54.45 103.25 54.5 103.25 54.6 103.2 54.85 103.2 54.9 103.15 55.1 103.15 55.15 103.1 55.25 103.1 55.3 103.05 55.35 103.15 55.2 103.25 55.1 103.3 55.1 103.35 55.15 103.35 55.15 103.5 55.2 103.7 55.25 103.8 55.25 104.0 55.35 104.2 55.35 104.4 55.4 104.55 55.45 104.65 55.7 104.65 55.7 104.75" fill="#ffffff" fill-rule="evenodd" stroke="none"/>
    <path d="M55.7 104.75 L55.65 104.8 55.5 104.8 55.15 104.85 54.9 104.95 54.85 104.95 54.8 104.85 54.9 104.8 55.0 104.8 55.05 104.75 55.0 104.4 54.95 104.3 54.9 104.15 54.8 104.15 54.2 104.3 54.05 104.3 54.0 104.35 54.05 104.45 54.05 104.5 54.15 104.9 54.15 105.0 54.35 104.95 54.45 104.95 54.45 105.05 54.35 105.1 54.3 105.1 54.1 105.15 53.9 105.15 53.85 105.2 53.6 105.25 53.55 105.15 53.7 105.1 53.8 105.05 53.75 104.75 53.65 104.45 53.6 104.15 53.6 104.1 53.55 104.0 53.55 103.9 53.5 103.85 53.45 103.65 53.2 103.65 53.2 103.55 53.25 103.55 53.35 103.5 53.55 103.5 53.65 103.45 53.7 103.45 53.9 103.4 54.0 103.35 54.05 103.35 54.05 103.4 54.1 103.45 53.85 103.55 53.85 103.7 53.9 103.75 53.9 103.95 53.95 104.0 53.95 104.15 54.25 104.15 54.35 104.1 54.8 104.0 54.9 103.95 54.85 103.75 54.85 103.7 54.75 103.45 54.75 103.35 54.45 103.35 54.45 103.25 54.5 103.25 54.6 103.2 54.85 103.2 54.9 103.15 55.1 103.15 55.15 103.1 55.25 103.1 55.3 103.05 55.35 103.15 55.2 103.25 55.1 103.3 55.1 103.35 55.15 103.35 55.15 103.5 55.2 103.7 55.25 103.8 55.25 104.0 55.35 104.2 55.35 104.4 55.4 104.55 55.45 104.65 55.7 104.65 55.7 104.75 Z" fill="none" stroke="#ffffff" stroke-linecap="butt" stroke-linejoin="miter" stroke-width="3.0"/>
    <path d="M57.0 103.4 L56.55 104.35 56.55 104.4 56.5 104.45 56.55 104.45 56.85 104.35 56.95 104.3 57.05 104.1 57.05 104.05 57.15 104.05 57.15 104.3 57.2 104.4 56.2 104.65 56.15 104.65 56.15 104.6 56.65 103.55 56.2 103.65 56.1 103.85 56.1 103.9 56.0 103.9 56.0 103.55 56.05 103.45 56.1 103.4 56.15 103.45 56.15 103.55 56.25 103.55 57.0 103.35 57.0 103.4" fill="#ffffff" fill-rule="evenodd" stroke="none"/>
    <path d="M57.0 103.4 L56.55 104.35 56.55 104.4 56.5 104.45 56.55 104.45 56.85 104.35 56.95 104.3 57.05 104.1 57.05 104.05 57.15 104.05 57.15 104.3 57.2 104.4 56.2 104.65 56.15 104.65 56.15 104.6 56.65 103.55 56.2 103.65 56.1 103.85 56.1 103.9 56.0 103.9 56.0 103.55 56.05 103.45 56.1 103.4 56.15 103.45 56.15 103.55 56.25 103.55 57.0 103.35 57.0 103.4 Z" fill="none" stroke="#ffffff" stroke-linecap="butt" stroke-linejoin="miter" stroke-width="3.0"/>
    <path d="M59.65 103.45 L59.7 103.55 59.7 103.85 59.55 103.9 59.45 103.9 59.35 103.95 59.25 103.95 59.1 104.0 59.05 104.0 58.7 104.1 58.6 104.1 58.6 104.0 59.0 103.25 59.1 102.95 59.1 102.7 59.0 102.55 58.9 102.45 58.75 102.45 58.6 102.5 58.5 102.65 58.5 102.85 58.4 102.9 58.35 102.8 58.4 102.5 Q58.6 102.3 58.8 102.25 L59.2 102.3 59.4 102.6 59.4 102.75 59.35 102.9 59.15 103.3 58.85 103.75 59.0 103.75 59.5 103.6 59.55 103.45 59.55 103.4 59.65 103.35 59.65 103.45" fill="#ffffff" fill-rule="evenodd" stroke="none"/>
    <path d="M59.65 103.45 L59.7 103.55 59.7 103.85 59.55 103.9 59.45 103.9 59.35 103.95 59.25 103.95 59.1 104.0 59.05 104.0 58.7 104.1 58.6 104.1 58.6 104.0 59.0 103.25 59.1 102.95 59.1 102.7 59.0 102.55 58.9 102.45 58.75 102.45 58.6 102.5 58.5 102.65 58.5 102.85 58.4 102.9 58.35 102.8 58.4 102.5 Q58.6 102.3 58.8 102.25 L59.2 102.3 59.4 102.6 59.4 102.75 59.35 102.9 59.15 103.3 58.85 103.75 59.0 103.75 59.5 103.6 59.55 103.45 59.55 103.4 59.65 103.35 59.65 103.45 Z" fill="none" stroke="#ffffff" stroke-linecap="butt" stroke-linejoin="miter" stroke-width="3.0"/>
    <path d="M60.7 103.6 L60.7 103.75 60.65 103.9 60.55 104.1 60.45 104.2 60.35 104.2 60.3 104.1 60.45 103.95 60.45 103.8 60.45 103.75 60.35 103.7 60.2 103.65 60.15 103.55 60.2 103.4 60.35 103.35 60.55 103.4 60.7 103.6" fill="#ffffff" fill-rule="evenodd" stroke="none"/>
    <path d="M60.7 103.6 L60.7 103.75 60.65 103.9 60.55 104.1 60.45 104.2 60.35 104.2 60.3 104.1 60.45 103.95 60.45 103.8 60.45 103.75 60.35 103.7 60.2 103.65 60.15 103.55 60.2 103.4 60.35 103.35 60.55 103.4 60.7 103.6 Z" fill="none" stroke="#ffffff" stroke-linecap="butt" stroke-linejoin="miter" stroke-width="3.0"/>
    <path d="M61.65 101.6 L61.7 101.7 61.7 101.85 61.75 101.95 61.75 102.1 61.8 102.15 61.8 102.25 61.85 102.35 61.85 102.45 61.9 102.65 62.1 102.65 62.15 102.85 62.05 102.9 61.95 102.9 61.95 102.95 62.0 103.0 62.0 103.15 62.05 103.25 62.05 103.35 61.95 103.35 61.85 103.4 61.75 103.4 61.7 103.15 61.65 103.0 61.65 102.95 61.5 103.0 61.4 103.05 61.15 103.1 61.05 103.1 61.0 103.0 61.0 102.9 61.05 102.75 61.2 102.2 61.35 101.95 61.4 101.8 61.45 101.7 61.45 101.6 61.65 101.6 M61.4 102.0 L61.4 102.05 61.3 102.25 61.25 102.45 61.25 102.55 61.15 102.7 61.1 102.85 61.2 102.85 61.25 102.8 61.35 102.8 61.55 102.75 61.6 102.75 61.6 102.55 61.55 102.45 61.55 102.35 61.5 102.1 61.45 102.0 61.45 101.95 61.4 102.0" fill="#ffffff" fill-rule="evenodd" stroke="none"/>
    <path d="M61.65 101.6 L61.7 101.7 61.7 101.85 61.75 101.95 61.75 102.1 61.8 102.15 61.8 102.25 61.85 102.35 61.85 102.45 61.9 102.65 62.1 102.65 62.15 102.85 62.05 102.9 61.95 102.9 61.95 102.95 62.0 103.0 62.0 103.15 62.05 103.25 62.05 103.35 61.95 103.35 61.85 103.4 61.75 103.4 61.7 103.15 61.65 103.0 61.65 102.95 61.5 103.0 61.4 103.05 61.15 103.1 61.05 103.1 61.0 103.0 61.0 102.9 61.05 102.75 61.2 102.2 61.35 101.95 61.4 101.8 61.45 101.7 61.45 101.6 61.65 101.6 M61.4 102.0 L61.4 102.05 61.3 102.25 61.25 102.45 61.25 102.55 61.15 102.7 61.1 102.85 61.2 102.85 61.25 102.8 61.35 102.8 61.55 102.75 61.6 102.75 61.6 102.55 61.55 102.45 61.55 102.35 61.5 102.1 61.45 102.0 61.45 101.95 61.4 102.0" fill="none" stroke="#ffffff" stroke-linecap="butt" stroke-linejoin="miter" stroke-width="3.0"/>
    <path d="M40.85 19.35 L41.75 22.4 43.9 27.6 Q44.65 29.3 46.55 32.3 L48.4 35.5 50.5 38.5 56.8 45.2 Q56.2 46.8 53.7 47.3 L49.35 47.7 Q51.35 50.3 54.6 52.25 57.85 54.2 61.75 55.2 61.6 55.65 61.75 56.1 L61.85 56.85 Q60.7 57.7 58.75 58.45 L55.3 59.75 Q56.1 61.85 57.5 63.5 L60.6 66.45 Q61.8 67.45 64.2 68.55 L67.95 70.65 Q67.55 71.8 66.05 72.5 L63.25 73.4 Q59.8 74.5 57.2 74.55 58.0 78.15 62.05 80.7 63.8 81.75 69.85 84.3 L71.5 84.3 Q72.4 85.15 71.65 86.0 L70.25 87.2 61.6 88.7 52.65 90.15 Q52.55 92.8 53.0 98.25 L53.25 107.1 Q53.5 112.25 54.3 116.1 L54.65 116.95 55.05 120.3 Q55.2 122.4 55.55 123.65 54.8 125.7 51.85 126.25 48.9 126.8 47.05 125.3 L46.8 124.7 Q46.65 124.35 46.2 124.45 44.7 119.7 44.15 109.85 L43.2 100.3 42.0 90.65 36.0 90.45 29.95 90.4 Q26.95 90.1 26.45 88.85 L27.7 87.35 28.85 85.7 Q27.15 87.0 23.9 88.1 25.6 90.0 28.6 91.5 L30.15 92.4 31.5 93.05 34.1 93.05 36.45 93.15 36.2 94.25 Q35.9 94.85 35.9 95.3 30.95 99.15 28.2 100.4 28.85 102.55 31.2 104.45 L35.05 107.6 37.55 108.25 40.25 109.0 40.25 109.8 40.35 110.4 Q39.75 111.6 38.45 111.65 36.15 113.05 33.0 114.2 L27.05 116.2 29.35 123.85 Q30.95 128.7 31.5 131.75 27.95 135.3 24.8 133.3 23.45 130.4 22.2 126.25 L20.1 118.6 15.65 119.4 10.6 119.6 Q7.85 119.45 7.95 118.25 8.0 118.0 8.25 117.9 L8.95 117.6 Q12.7 115.0 15.65 108.6 7.2 110.5 4.55 108.25 10.35 102.45 11.35 95.05 10.3 95.8 7.7 96.35 4.7 97.0 4.3 95.8 4.05 95.1 4.55 94.75 L5.55 94.3 Q8.6 91.15 9.1 84.45 L6.25 85.4 3.25 85.3 4.6 81.45 Q5.45 79.05 5.65 77.2 7.3 63.15 4.15 53.55 4.85 53.05 5.45 53.75 L6.55 54.8 8.4 59.6 Q9.4 62.55 10.6 64.05 10.5 64.25 10.75 64.5 L10.6 64.7 13.9 68.3 17.45 72.3 18.8 73.4 19.85 74.7 Q21.45 74.9 22.65 76.2 L23.6 76.35 24.65 76.45 24.55 77.3 24.4 78.0 Q23.45 78.5 20.25 79.25 21.35 80.95 24.2 81.9 L29.45 83.3 29.7 83.7 29.8 84.05 Q33.7 78.5 35.4 74.45 L30.7 75.1 25.65 75.55 Q24.8 75.0 24.65 74.45 32.4 68.0 35.55 59.25 L33.95 59.95 31.85 60.4 28.25 61.3 Q26.1 61.7 24.8 60.9 24.85 60.05 25.7 59.65 L27.2 59.0 Q30.15 56.5 32.0 54.2 L34.05 51.35 Q35.05 49.65 35.3 47.95 L29.85 48.65 24.9 48.5 Q24.85 47.9 25.4 47.45 L26.3 46.7 27.2 45.35 28.1 43.8 29.85 40.9 Q35.4 30.9 36.05 15.7 L36.05 9.0 Q35.85 6.35 36.3 5.45 37.0 6.1 37.3 7.5 L37.8 9.85 39.2 14.7 40.0 16.2 40.85 19.35" fill="#000000" fill-rule="evenodd" stroke="none"/>
    <path d="M86.05 31.1 Q91.2 20.2 92.75 12.8 94.35 12.6 94.5 14.2 L94.25 17.2 Q93.2 28.2 97.0 38.3 100.7 48.2 107.85 54.1 108.1 54.7 107.75 55.05 105.95 55.8 103.4 55.6 L98.95 54.95 Q99.45 58.2 102.4 61.6 L104.2 63.8 105.55 64.65 107.45 66.25 109.8 67.55 Q109.15 68.55 107.35 68.7 L104.0 68.65 97.6 68.3 Q98.0 74.35 103.55 81.0 106.1 84.0 108.85 85.55 L109.6 85.7 110.25 85.95 109.65 86.65 109.25 87.5 106.35 88.45 103.5 89.25 Q105.05 93.4 107.2 95.85 109.75 98.9 113.7 100.1 113.5 100.5 113.65 100.8 L113.8 101.3 Q113.0 102.4 111.15 103.0 L108.0 103.85 104.1 105.05 99.85 105.45 94.8 106.05 90.45 106.35 89.3 106.0 89.1 108.9 88.75 111.8 88.7 112.05 88.35 112.15 Q88.75 112.6 88.6 113.35 L88.25 114.75 87.75 118.8 Q87.5 121.05 87.05 122.4 85.5 123.6 82.7 122.9 79.95 122.2 79.25 120.7 79.45 120.75 79.35 120.25 L79.25 119.15 Q79.3 116.7 79.95 112.45 80.65 107.85 80.75 105.6 80.65 105.35 79.7 105.3 78.85 105.25 78.8 104.8 78.6 104.8 78.75 105.05 78.85 105.25 78.55 105.15 L74.6 104.0 Q72.25 103.3 70.9 102.5 66.45 101.15 63.75 100.0 60.25 98.45 57.8 96.4 58.2 95.55 59.3 94.9 L61.25 94.0 Q63.5 92.65 66.05 90.0 L70.25 85.15 Q66.9 84.05 65.3 83.25 62.65 81.85 61.6 79.95 62.5 79.35 64.05 78.55 65.9 77.65 66.5 77.3 72.95 73.5 78.25 65.9 L73.25 65.3 Q70.35 64.85 68.8 64.05 L68.1 62.7 69.25 62.05 70.55 61.7 Q73.15 60.8 75.5 58.5 L79.4 53.85 75.15 53.45 Q72.45 53.25 71.95 51.85 72.3 52.0 72.25 51.75 L72.25 51.25 73.2 50.45 74.2 49.8 76.9 47.4 79.4 43.6 Q81.8 40.1 86.05 31.1" fill="#000000" fill-rule="evenodd" stroke="none"/>
    <path d="M79.65 117.7 L80.8 118.75 Q81.7 119.35 83.4 119.8 L85.85 120.65 86.2 121.0 86.5 121.3 87.25 121.65 88.05 122.1 90.3 124.2 92.45 126.3 93.25 127.0 94.05 127.95 95.25 128.7 Q96.1 129.3 96.65 129.5 98.6 130.2 99.55 131.55 L100.5 133.25 101.55 134.6 103.85 135.5 Q102.95 137.35 100.35 137.55 L95.5 137.55 Q94.2 137.6 91.4 138.4 88.7 139.2 86.95 139.25 L80.4 139.25 77.0 139.25 76.35 139.1 75.7 138.9 72.5 139.1 69.2 139.4 66.15 139.2 63.1 138.75 58.3 138.95 53.5 139.4 49.45 139.1 45.3 138.9 37.5 139.2 29.5 140.5 Q28.9 140.6 29.0 138.2 29.15 135.75 28.5 135.7 L25.3 135.2 Q26.7 131.95 29.95 127.0 32.45 123.15 34.75 120.3 36.8 117.85 38.25 116.55 40.6 114.5 41.8 114.3 43.15 114.1 44.8 115.15 46.55 116.2 47.6 116.15 48.5 116.05 50.2 115.0 L52.8 114.0 55.05 114.3 57.6 114.45 58.75 113.95 59.8 113.3 62.55 111.6 Q64.15 110.5 65.25 110.15 67.25 109.5 70.7 110.8 72.6 111.5 74.75 113.3 L78.45 116.6 79.65 117.7" fill="#152242" fill-rule="evenodd" stroke="none"/>
    <path d="M67.7 112.45 Q71.95 113.2 78.1 118.7 L83.0 122.05 Q86.4 124.1 87.8 125.55 L89.8 127.85 Q90.85 129.05 92.2 129.8 L95.6 131.4 Q97.7 132.6 97.9 134.05 L95.2 133.55 92.45 133.3 88.2 132.5 83.95 131.6 80.1 131.65 Q77.2 131.7 76.65 131.2 75.7 130.35 76.2 130.2 76.9 129.95 76.8 129.5 76.4 127.7 75.45 127.5 L72.25 127.15 Q72.45 126.5 73.15 125.75 L74.35 124.55 Q72.15 123.8 68.3 124.5 L62.15 125.55 Q62.15 124.2 64.15 123.45 66.2 122.7 66.15 121.75 66.1 120.3 63.85 120.05 L60.65 120.1 51.15 120.4 Q45.25 120.35 41.9 118.85 39.65 117.85 40.45 116.9 L43.5 114.8 52.7 112.65 Q55.3 111.55 60.15 111.65 L67.7 112.45" fill="#907dac" fill-rule="evenodd" stroke="none"/>
    <path d="M46.9 77.65 Q43.25 83.3 43.75 89.8 L41.8 89.1 Q41.8 79.9 46.9 77.65" fill="#666666" fill-rule="evenodd" stroke="none"/>
    <path d="M39.7 93.1 L40.6 91.35 41.65 89.95 Q42.2 89.9 42.95 90.3 42.05 91.1 41.35 92.85 L40.2 95.85 Q39.15 96.1 38.65 95.85 38.3 95.4 38.75 94.55 L39.7 93.1" fill="#666666" fill-rule="evenodd" stroke="none"/>
    <path d="M40.4 96.85 L40.6 96.95 44.2 110.1 47.75 123.1 Q45.75 122.0 43.55 120.1 L42.8 116.85 Q42.2 114.85 42.15 113.7 L42.3 112.1 41.5 110.5 40.55 108.85 40.15 106.8 39.65 104.8 39.8 103.55 40.0 102.25 Q39.95 101.35 39.5 100.45 L38.5 98.9 Q39.0 97.5 40.3 96.75 L40.4 96.85" fill="#666666" fill-rule="evenodd" stroke="none"/>
    <path d="M61.7 101.05 Q62.05 101.15 61.8 101.5 L61.3 101.55 61.5 101.35 61.7 101.05" fill="#000000" fill-rule="evenodd" stroke="none"/>
    <path d="M63.45 105.0 L63.7 105.5 Q63.75 106.0 63.45 106.0 63.2 105.95 63.3 105.55 L63.45 105.0" fill="#000000" fill-rule="evenodd" stroke="none"/>
    <path d="M54.35 108.25 L54.75 108.25 Q54.65 109.1 54.95 109.6 54.4 109.7 54.35 109.05 L54.35 108.25" fill="#000000" fill-rule="evenodd" stroke="none"/>
    <path d="M59.4 85.85 Q61.2 85.7 63.7 86.6 69.65 88.8 68.3 94.05 65.1 96.4 64.55 99.1 L63.85 99.5 Q63.45 99.8 63.4 100.2 L64.45 100.1 65.2 99.2 Q65.35 100.0 64.4 101.25 63.6 102.3 64.3 103.05 64.3 102.25 64.75 101.55 L65.7 100.3 Q65.55 99.0 65.9 98.05 66.2 97.35 66.95 96.5 L68.4 96.4 69.2 106.3 70.25 116.2 63.0 118.5 55.45 120.55 Q55.95 119.65 55.6 118.55 L54.95 116.5 55.55 115.65 Q55.9 115.05 55.4 114.65 55.65 113.55 55.4 112.1 L54.95 110.0 Q54.3 110.25 54.55 111.25 L55.0 112.95 54.8 114.25 Q54.7 114.3 54.1 113.8 53.45 113.3 52.8 113.45 52.6 112.1 52.2 111.45 L51.6 111.4 50.95 111.45 Q50.7 110.8 49.6 110.7 L47.8 110.7 47.2 109.75 46.45 108.95 Q46.3 109.5 46.7 110.05 L47.25 111.0 50.0 111.15 Q50.5 112.1 52.0 111.85 51.9 112.35 52.3 113.8 53.9 113.95 54.7 115.05 L54.2 115.85 Q53.85 116.25 53.8 116.6 L54.15 117.45 Q54.55 118.0 54.55 118.3 54.65 119.05 54.35 119.8 L53.75 121.2 Q52.75 121.3 51.15 122.1 L48.55 123.2 47.2 118.4 45.95 113.45 45.85 112.75 Q44.75 110.05 44.05 107.6 L43.15 104.35 42.1 100.1 40.85 95.95 41.9 92.95 Q42.6 91.3 43.65 90.7 44.65 90.75 45.5 92.7 46.25 94.4 47.6 94.1 47.55 94.4 47.85 94.75 L48.3 95.35 48.4 96.2 Q48.5 96.75 48.95 96.75 49.25 95.55 47.7 93.6 L46.75 93.7 46.0 91.7 Q45.55 90.5 44.9 90.1 44.25 87.45 44.45 85.5 L45.05 82.85 Q46.55 78.25 49.1 76.7 L49.65 76.7 49.95 76.4 51.65 76.9 56.0 80.85 Q58.45 83.25 59.4 85.85 M61.8 101.5 Q62.05 101.15 61.7 101.05 L61.5 101.35 61.3 101.55 61.8 101.5 M63.7 105.5 L63.45 105.0 63.3 105.55 Q63.2 105.95 63.45 106.0 63.75 106.0 63.7 105.5 M55.2 107.9 L55.5 108.45 Q55.15 107.75 55.65 106.25 56.15 104.7 55.8 103.9 55.6 104.3 55.35 105.55 L54.8 107.35 55.2 107.9 M54.35 108.25 L54.35 109.05 Q54.4 109.7 54.95 109.6 54.65 109.1 54.75 108.25 L54.35 108.25" fill="#999999" fill-rule="evenodd" stroke="none"/>
    <path d="M40.3 95.9 L40.9 94.25 41.8 91.95 Q42.45 90.8 43.4 90.25 L43.5 90.2 43.7 90.2 44.4 90.35 44.35 90.15 44.15 88.6 Q43.8 86.95 43.9 85.45 44.1 84.2 44.6 82.7 46.1 77.9 48.85 76.25 L49.45 76.15 49.45 75.8 50.05 75.9 51.75 76.4 51.9 76.4 52.05 76.5 54.15 78.45 57.3 81.45 Q58.9 83.3 59.75 85.3 61.45 85.2 63.9 86.1 70.25 88.45 68.8 94.2 L68.75 94.35 68.6 94.5 66.8 96.0 66.9 96.0 68.35 95.9 68.85 95.8 69.35 101.6 Q70.0 110.85 70.8 116.1 L70.85 116.55 70.45 116.7 Q66.5 118.15 59.2 120.05 L54.4 121.4 55.0 120.3 Q55.4 119.55 55.1 118.75 L54.65 120.35 54.25 121.3 54.15 121.65 53.8 121.7 Q52.8 121.8 51.2 122.65 L48.65 123.7 48.2 123.8 48.05 123.35 46.35 117.15 45.35 113.1 45.35 112.9 45.3 112.8 43.55 107.75 41.95 101.7 40.35 96.1 40.3 95.9 M51.4 77.35 L50.6 77.15 50.25 77.0 49.5 77.2 49.35 77.15 Q47.0 78.6 45.55 83.05 L44.95 85.55 Q44.85 86.7 45.15 88.4 L45.35 89.8 Q46.15 90.4 46.65 92.15 L47.0 93.15 47.75 93.1 47.95 93.1 48.1 93.3 49.15 94.9 Q49.65 96.05 49.45 96.85 L49.4 97.25 48.95 97.25 Q48.0 97.25 47.85 95.9 L47.8 95.55 47.2 94.7 Q45.75 94.75 44.95 92.7 44.35 91.35 43.75 91.25 42.75 91.95 41.9 94.6 L41.4 95.95 42.95 101.45 46.25 112.45 46.3 112.55 47.35 116.9 48.9 122.55 50.75 121.75 Q52.35 120.85 53.35 120.7 L53.7 119.9 Q54.15 119.0 54.05 118.4 L53.75 117.8 Q53.25 117.1 53.25 116.55 53.3 115.95 53.9 115.45 L54.15 115.15 Q53.5 114.45 52.25 114.3 L51.85 114.25 51.8 113.85 51.65 113.15 51.5 112.4 Q50.35 112.5 49.7 111.65 L48.85 111.65 47.05 111.5 46.75 111.4 46.7 111.05 46.4 110.5 Q45.7 109.65 45.95 108.8 L46.15 108.25 46.65 108.5 Q47.25 108.75 47.8 109.75 L48.05 110.2 48.95 110.15 Q50.7 110.15 51.25 110.9 L51.4 110.9 52.4 110.95 52.55 111.0 52.65 111.2 52.7 111.25 52.7 111.3 53.1 112.6 53.15 112.9 Q53.8 112.9 54.45 113.45 L54.45 112.95 54.25 112.0 Q53.75 110.45 54.2 109.9 L54.1 109.85 Q53.75 109.45 53.85 108.55 L53.85 108.45 53.45 107.75 54.5 107.75 54.2 107.45 54.35 107.15 54.85 105.35 55.35 103.65 55.85 102.6 56.3 103.7 Q56.7 104.65 56.15 106.4 55.7 107.7 55.95 108.2 L55.25 108.7 55.35 109.25 55.4 109.25 55.4 109.35 55.8 109.95 55.45 110.0 55.7 111.05 Q56.15 113.4 55.95 114.5 L56.2 115.1 Q56.25 115.7 55.5 116.6 L55.5 116.65 55.85 117.7 Q56.35 118.9 56.25 119.8 L58.95 119.05 69.7 115.85 Q68.95 110.6 68.3 101.65 L67.95 96.95 67.7 97.0 67.2 97.0 Q66.0 98.4 66.2 100.25 L66.25 100.45 65.85 100.9 Q64.8 102.15 64.8 103.05 L64.85 104.4 63.9 103.4 Q62.85 102.3 64.0 100.9 63.5 101.0 63.1 100.65 L62.85 100.45 62.9 100.15 Q62.95 99.4 63.85 98.9 L64.05 98.8 Q64.75 96.1 67.8 93.75 69.0 89.1 63.5 87.1 61.15 86.2 59.45 86.35 L59.05 86.4 58.9 86.0 Q58.15 84.0 56.6 82.25 L53.45 79.25 51.4 77.35 M62.4 101.35 Q62.3 102.2 61.5 102.2 61.2 102.2 60.95 101.9 L60.8 101.75 60.8 101.55 Q60.8 101.2 61.15 100.95 L61.1 100.4 61.8 100.55 Q62.5 100.7 62.4 101.35 M62.95 104.3 L63.6 104.5 64.15 105.05 64.2 105.8 Q64.15 106.55 63.5 106.55 L63.4 106.55 63.35 106.5 62.85 106.15 Q62.65 105.8 62.9 105.1 L62.95 104.95 62.95 104.3" fill="#7f7f7f" fill-rule="evenodd" stroke="none"/>
    <path d="M54.8 107.35 L55.35 105.55 Q55.6 104.3 55.8 103.9 56.15 104.7 55.65 106.25 55.15 107.75 55.5 108.45 L55.2 107.9 54.8 107.35" fill="#000000" fill-rule="evenodd" stroke="none"/>
    <path d="M39.85 90.65 L40.7 89.3 41.05 87.5 41.3 84.75 Q41.45 83.1 41.75 82.1 42.75 78.65 46.35 76.45 L47.75 75.5 Q48.6 75.05 49.55 75.1 51.45 75.2 53.55 76.9 L56.65 79.9 Q58.6 81.75 60.15 84.4 61.25 84.5 62.45 85.1 L64.55 86.2 65.9 86.55 67.9 87.95 Q69.25 88.9 69.45 89.8 L69.4 91.05 69.3 92.5 69.35 96.75 Q69.25 99.8 69.4 101.45 L69.75 105.0 Q69.9 109.8 70.5 113.25 L71.05 116.4 Q70.8 117.05 70.15 117.35 L68.65 117.85 61.75 119.85 55.85 121.55 54.95 121.9 54.05 122.1 Q53.9 122.1 53.3 122.6 52.4 122.45 50.95 123.1 L48.45 123.9 48.1 124.15 47.9 124.5 45.4 123.0 44.2 122.25 43.2 121.3 Q42.9 120.9 42.3 118.05 41.3 114.3 41.55 112.2 L41.1 111.95 40.6 111.8 39.55 107.9 Q38.8 105.45 38.75 103.9 L38.95 102.95 39.1 101.95 38.85 101.4 38.45 100.75 38.1 99.75 37.55 99.05 Q38.25 97.45 38.75 96.85 38.3 96.85 37.95 96.3 L37.3 95.55 Q38.7 92.2 39.85 90.65 M40.2 95.85 L41.35 92.85 Q42.05 91.1 42.95 90.3 42.2 89.9 41.65 89.95 L40.6 91.35 39.7 93.1 38.75 94.55 Q38.3 95.4 38.65 95.85 39.15 96.1 40.2 95.85 M38.5 98.9 L39.5 100.45 Q39.95 101.35 40.0 102.25 L39.8 103.55 39.65 104.8 40.15 106.8 40.55 108.85 41.5 110.5 42.3 112.1 42.15 113.7 Q42.2 114.85 42.8 116.85 L43.55 120.1 Q45.75 122.0 47.75 123.1 L44.2 110.1 40.6 96.95 40.4 96.85 40.3 96.75 Q39.0 97.5 38.5 98.9 M56.0 80.85 L51.65 76.9 49.95 76.4 49.65 76.7 49.1 76.7 Q46.55 78.25 45.05 82.85 L44.45 85.5 Q44.25 87.45 44.9 90.1 45.55 90.5 46.0 91.7 L46.75 93.7 47.7 93.6 Q49.25 95.55 48.95 96.75 48.5 96.75 48.4 96.2 L48.3 95.35 47.85 94.75 Q47.55 94.4 47.6 94.1 46.25 94.4 45.5 92.7 44.65 90.75 43.65 90.7 42.6 91.3 41.9 92.95 L40.85 95.95 42.1 100.1 43.15 104.35 44.05 107.6 Q44.75 110.05 45.85 112.75 L45.95 113.45 47.2 118.4 48.55 123.2 51.15 122.1 Q52.75 121.3 53.75 121.2 L54.35 119.8 Q54.65 119.05 54.55 118.3 54.55 118.0 54.15 117.45 L53.8 116.6 Q53.85 116.25 54.2 115.85 L54.7 115.05 Q53.9 113.95 52.3 113.8 51.9 112.35 52.0 111.85 50.5 112.1 50.0 111.15 L47.25 111.0 46.7 110.05 Q46.3 109.5 46.45 108.95 L47.2 109.75 47.8 110.7 49.6 110.7 Q50.7 110.8 50.95 111.45 L51.6 111.4 52.2 111.45 Q52.6 112.1 52.8 113.45 53.45 113.3 54.1 113.8 54.7 114.3 54.8 114.25 L55.0 112.95 54.55 111.25 Q54.3 110.25 54.95 110.0 L55.4 112.1 Q55.65 113.55 55.4 114.65 55.9 115.05 55.55 115.65 L54.95 116.5 55.6 118.55 Q55.95 119.65 55.45 120.55 L63.0 118.5 70.25 116.2 69.2 106.3 68.4 96.4 66.95 96.5 Q66.2 97.35 65.9 98.05 65.55 99.0 65.7 100.3 L64.75 101.55 Q64.3 102.25 64.3 103.05 63.6 102.3 64.4 101.25 65.35 100.0 65.2 99.2 L64.45 100.1 63.4 100.2 Q63.45 99.8 63.85 99.5 L64.55 99.1 Q65.1 96.4 68.3 94.05 69.65 88.8 63.7 86.6 61.2 85.7 59.4 85.85 58.45 83.25 56.0 80.85 M43.75 89.8 Q43.25 83.3 46.9 77.65 41.8 79.9 41.8 89.1 L43.75 89.8" fill="#333333" fill-rule="evenodd" stroke="none"/>
    <path d="M49.15 91.65 Q49.0 90.7 49.5 90.0 50.0 89.25 50.6 89.5 51.0 89.65 51.05 90.2 L51.2 91.2 52.1 91.05 Q52.05 88.4 54.3 88.15 56.6 87.9 56.7 90.45 L57.75 89.7 58.45 88.4 59.4 88.35 Q59.85 88.7 59.95 89.25 L59.75 90.25 60.6 91.05 Q60.9 91.6 60.65 92.4 L59.2 92.25 57.25 92.2 57.35 93.0 57.3 94.05 55.9 94.4 54.45 94.15 53.7 94.4 52.75 94.2 Q52.6 93.6 52.7 93.0 L52.15 92.95 51.4 92.9 Q51.5 94.25 50.4 94.45 49.3 94.65 49.1 93.5 L49.4 92.75 49.65 92.1 49.15 91.65 M49.6 91.3 Q50.35 91.35 50.2 92.15 50.15 92.75 49.7 93.45 49.85 93.9 50.55 93.95 L50.7 93.2 50.6 92.5 Q50.9 92.2 51.5 92.25 L52.55 92.3 Q52.55 91.8 52.15 91.55 L50.85 91.65 Q50.25 91.15 50.45 90.15 50.05 90.0 49.8 90.45 49.55 90.8 49.6 91.3 M58.95 88.8 Q58.9 89.45 58.0 90.3 L56.8 91.35 58.55 91.7 60.3 91.85 Q60.35 91.3 59.7 91.1 L58.85 90.5 59.2 89.9 59.4 89.2 58.95 88.8 M56.1 91.15 L55.75 89.45 Q55.45 88.6 54.55 88.55 54.0 88.55 53.4 89.05 52.7 89.6 52.6 90.4 52.5 90.85 53.0 91.85 53.4 92.7 53.1 93.6 L53.8 93.7 Q54.15 92.4 54.45 92.4 54.8 92.8 54.8 93.65 L55.5 93.8 55.6 93.15 55.95 92.85 56.3 93.35 Q56.45 93.7 56.75 93.55 L56.6 92.35 56.1 91.15" fill="#000000" fill-rule="evenodd" stroke="none"/>
    <path d="M59.4 89.2 L59.2 89.9 58.85 90.5 59.7 91.1 Q60.35 91.3 60.3 91.85 L58.55 91.7 56.8 91.35 58.0 90.3 Q58.9 89.45 58.95 88.8 L59.4 89.2" fill="#e6e6e6" fill-rule="evenodd" stroke="none"/>
    <path d="M56.6 92.35 L56.75 93.55 Q56.45 93.7 56.3 93.35 L55.95 92.85 55.6 93.15 55.5 93.8 54.8 93.65 Q54.8 92.8 54.45 92.4 54.15 92.4 53.8 93.7 L53.1 93.6 Q53.4 92.7 53.0 91.85 52.5 90.85 52.6 90.4 52.7 89.6 53.4 89.05 54.0 88.55 54.55 88.55 55.45 88.6 55.75 89.45 L56.1 91.15 56.6 92.35 M54.65 90.6 Q54.75 91.05 55.15 91.05 55.6 91.1 55.65 90.45 55.5 90.15 55.15 90.2 L54.65 90.6 M53.7 91.05 L54.05 91.35 54.35 91.2 54.4 90.6 54.05 90.05 Q53.45 90.4 53.4 90.7 L53.7 91.05" fill="#e6e6e6" fill-rule="evenodd" stroke="none"/>
    <path d="M55.65 90.45 Q55.6 91.1 55.15 91.05 54.75 91.05 54.65 90.6 L55.15 90.2 Q55.5 90.15 55.65 90.45" fill="#000000" fill-rule="evenodd" stroke="none"/>
    <path d="M54.05 90.05 L54.4 90.6 54.35 91.2 54.05 91.35 53.7 91.05 53.4 90.7 Q53.45 90.4 54.05 90.05" fill="#000000" fill-rule="evenodd" stroke="none"/>
    <path d="M50.45 90.15 Q50.25 91.15 50.85 91.65 L52.15 91.55 Q52.55 91.8 52.55 92.3 L51.5 92.25 Q50.9 92.2 50.6 92.5 L50.7 93.2 50.55 93.95 Q49.85 93.9 49.7 93.45 50.15 92.75 50.2 92.15 50.35 91.35 49.6 91.3 49.55 90.8 49.8 90.45 50.05 90.0 50.45 90.15" fill="#e6e6e6" fill-rule="evenodd" stroke="none"/>
    <path d="M85.45 97.95 L82.6 108.7 Q83.55 109.4 84.5 109.65 84.9 107.55 85.3 106.75 L85.65 106.9 86.0 107.05 Q85.4 110.45 88.35 112.05 L89.05 106.95 89.55 101.65 Q89.1 101.65 88.55 102.1 L87.6 101.15 88.0 100.8 88.4 100.5 89.4 97.7 89.65 96.15 Q89.85 95.2 90.35 94.9 L90.8 98.35 Q91.2 100.5 92.25 101.2 L91.95 101.85 Q90.9 101.55 90.75 101.1 L90.05 106.7 89.35 112.7 90.65 113.95 92.0 115.0 93.0 112.5 Q93.6 110.95 94.35 110.4 L94.5 113.8 Q94.7 116.2 95.35 117.2 96.85 112.35 97.65 108.1 L96.95 107.85 96.35 107.45 Q96.3 107.15 96.6 107.0 L97.05 106.7 Q97.75 105.05 99.2 102.8 L99.45 101.65 Q99.65 101.0 100.05 101.1 100.5 101.5 100.25 102.4 L99.8 104.0 Q99.65 105.1 99.95 106.75 L100.25 109.0 98.65 108.7 97.4 113.55 96.15 118.4 97.65 120.3 99.15 122.2 Q99.3 120.85 100.0 118.4 L100.85 115.0 100.2 114.9 Q99.6 114.9 99.55 114.6 99.6 114.4 99.8 114.15 L99.85 113.5 101.4 111.3 102.6 108.8 Q103.25 109.25 103.0 112.1 L103.1 114.15 Q103.15 115.15 102.85 115.5 L102.3 115.55 101.85 115.4 101.25 118.6 Q101.0 120.65 100.55 121.55 L99.6 126.4 98.35 131.0 98.05 132.9 97.4 134.65 96.25 134.45 97.45 130.1 Q98.25 127.5 98.35 125.75 L96.3 125.55 94.05 125.8 93.8 127.45 Q93.6 128.4 93.1 128.6 92.9 128.2 92.95 127.4 L93.05 126.45 Q92.65 127.05 92.55 128.1 L92.4 130.0 91.8 133.5 91.4 136.85 90.4 137.1 Q90.45 135.15 90.8 132.2 L91.45 127.1 Q90.45 126.5 88.15 126.6 L84.85 127.0 84.75 131.3 Q84.6 133.8 84.75 135.25 L84.3 135.65 83.75 136.0 Q83.65 130.75 83.95 127.1 83.25 127.25 82.5 127.75 L81.25 128.65 78.75 130.4 78.5 135.1 Q77.95 135.15 77.4 134.7 L77.4 132.55 77.25 130.5 73.05 130.6 69.0 131.15 Q67.85 135.3 67.7 136.85 L67.25 137.1 66.9 137.2 Q66.25 136.4 66.7 134.6 L67.4 131.7 Q63.7 129.35 59.55 127.65 59.2 128.7 58.95 131.3 58.75 133.9 58.35 135.05 L57.8 134.85 57.4 134.5 58.2 130.75 Q58.65 128.5 58.7 126.7 57.8 126.05 56.1 125.65 L53.2 125.05 Q52.7 124.9 50.95 124.15 49.65 123.55 48.85 123.5 49.0 124.65 48.5 127.25 L48.5 130.15 Q48.45 131.8 47.75 132.4 47.35 132.25 47.35 131.1 L47.6 127.35 47.85 123.7 Q47.35 123.3 45.8 122.9 44.3 122.55 43.8 122.05 L40.7 121.45 41.0 130.1 40.55 130.3 40.0 130.35 Q39.7 128.45 39.7 125.6 L39.75 120.9 38.95 120.5 Q38.95 121.25 37.95 121.5 37.6 121.2 37.15 119.9 L34.75 118.95 32.3 118.25 Q32.45 120.15 33.2 123.5 L34.05 128.6 33.45 128.8 33.0 128.05 32.9 127.0 31.05 116.7 Q29.8 110.1 29.25 106.05 L28.6 106.2 27.85 106.1 Q28.7 103.25 28.8 100.95 L29.2 100.8 29.6 101.3 30.0 101.75 Q29.85 102.75 30.35 103.6 L31.55 104.65 31.45 105.15 31.35 105.6 30.05 105.3 30.6 108.85 Q30.85 110.8 31.25 112.15 L34.7 108.15 32.9 99.8 32.35 99.9 31.6 100.05 Q31.5 99.6 31.85 97.55 32.15 95.75 31.6 94.8 L31.8 93.8 Q31.9 93.2 32.2 92.95 33.05 95.75 33.65 96.9 L34.4 98.05 34.8 99.35 34.35 99.45 34.0 99.45 34.8 103.35 35.7 107.35 Q37.0 106.9 38.4 105.85 L38.6 104.05 Q38.6 102.85 38.85 102.5 39.4 102.85 39.55 104.05 L39.9 106.15 Q40.15 107.0 41.1 107.95 40.9 108.4 41.25 108.8 41.6 109.25 41.45 109.65 40.7 109.95 39.8 108.95 L40.05 113.1 40.35 117.8 Q42.75 119.9 47.9 120.4 L48.25 116.75 Q48.4 114.2 48.0 113.95 47.9 113.8 47.9 114.15 47.9 114.6 47.7 114.5 L47.2 114.5 Q47.05 114.5 47.05 114.15 47.0 113.8 46.8 113.85 47.75 112.55 48.95 109.25 L49.35 109.3 49.65 109.45 50.15 112.3 Q50.5 113.95 50.45 115.0 50.1 115.1 49.85 114.8 L49.55 114.5 49.2 117.75 48.9 120.8 51.3 122.0 53.85 123.0 56.35 124.0 58.9 124.3 59.15 121.85 58.7 121.9 58.05 121.95 Q58.05 121.6 58.35 121.2 L58.85 120.45 59.45 118.85 Q59.8 117.85 60.2 117.35 60.5 117.6 60.6 118.2 L60.75 119.25 61.15 121.3 61.4 121.75 61.7 122.15 61.2 122.7 Q60.95 122.7 60.75 122.35 60.5 122.0 60.25 121.95 60.05 122.6 60.0 123.5 L59.9 125.05 Q63.25 127.75 67.8 129.8 L68.15 129.05 68.3 128.15 Q68.15 128.05 67.7 127.9 L67.05 127.65 68.75 125.4 68.95 124.6 Q69.35 124.55 69.7 123.4 69.95 122.45 70.6 122.65 70.2 123.75 70.35 125.6 L70.6 128.55 69.9 128.6 Q69.5 128.45 69.4 128.7 L77.3 128.25 77.45 122.4 76.45 121.85 77.3 119.25 77.8 116.8 Q78.4 116.75 78.5 117.5 L78.6 118.7 79.15 120.55 79.65 122.0 Q79.55 122.25 79.2 122.2 L78.55 122.15 Q78.35 123.15 78.5 124.6 L78.6 127.05 Q81.95 125.6 84.1 124.0 84.75 117.7 84.55 113.5 L83.25 113.5 83.4 112.8 83.65 112.1 Q83.35 111.45 82.0 110.95 L81.2 114.0 80.5 117.1 Q80.15 118.25 79.6 118.05 79.3 117.85 79.45 117.3 L79.8 116.45 81.0 110.75 Q79.45 109.8 78.4 109.35 76.95 108.75 75.15 108.6 74.85 109.6 74.75 111.6 L74.55 114.6 Q74.25 116.15 73.75 115.9 73.35 115.7 73.7 112.25 L74.15 108.4 71.95 107.1 69.55 106.05 Q69.55 105.8 69.7 105.6 L69.85 105.3 69.45 105.05 Q69.25 104.85 69.35 104.45 L71.6 105.15 74.2 105.9 Q75.0 96.6 74.65 92.4 L73.85 92.65 Q73.3 92.85 72.95 92.45 73.95 90.05 74.7 86.75 L74.9 86.85 75.95 89.8 Q76.65 91.65 76.55 93.05 L76.15 92.95 75.75 92.75 Q75.85 100.05 75.25 106.1 L81.4 108.6 Q81.75 108.35 81.8 107.75 L81.85 106.8 83.2 102.15 84.35 97.45 83.8 97.35 83.15 97.25 84.45 94.85 85.7 92.7 Q86.1 93.0 86.15 94.0 L86.15 95.8 86.45 97.0 86.6 98.15 86.05 98.15 85.45 97.95 M34.65 111.05 Q33.9 111.4 33.0 112.75 L31.65 114.7 Q34.85 116.2 36.5 116.55 L35.65 112.2 35.4 111.2 Q35.2 110.75 34.65 111.05 M36.9 109.5 L36.3 109.7 37.9 117.1 38.8 117.4 39.75 117.6 39.45 112.65 Q39.35 109.8 38.9 108.1 L38.3 109.05 Q37.95 109.65 37.5 109.8 37.25 109.4 36.9 109.5 M89.0 115.5 Q88.85 116.15 88.85 118.25 L88.5 121.3 Q88.3 123.1 88.4 124.05 89.15 123.95 91.85 124.0 L92.3 121.05 Q92.5 119.15 92.25 118.1 L91.45 118.35 90.55 118.25 91.25 117.05 90.15 116.25 89.0 115.5 M87.1 114.05 Q86.45 113.45 85.75 113.5 L84.9 124.1 87.5 124.05 Q87.45 122.15 87.8 119.4 L88.2 115.05 87.1 114.05 M93.25 119.3 L92.95 124.3 93.35 124.25 93.75 124.2 94.7 120.35 93.25 119.3 M95.5 120.55 L94.65 124.1 Q96.85 124.1 97.65 123.5 L95.5 120.55" fill="#000000" fill-rule="evenodd" stroke="none"/>
    <path d="M63.7 100.6 L64.3 102.75 Q64.75 103.85 65.8 104.1 66.75 106.85 66.65 108.0 66.45 110.05 63.9 110.95 62.05 111.6 59.85 110.45 L56.1 108.6 Q53.5 108.05 52.7 107.6 51.35 106.75 52.85 104.6 55.1 101.65 56.45 101.45 57.25 101.3 58.2 101.85 L59.7 102.8 60.1 99.25 Q61.3 98.15 62.35 98.7 63.25 99.2 63.7 100.6" fill="#999999" fill-rule="evenodd" stroke="none"/>
    <path d="M50.85 98.1 L51.2 98.7 51.4 99.2 51.05 99.25 Q50.7 98.9 50.15 98.7 L49.25 98.65 Q48.65 98.8 48.45 99.3 48.15 100.1 48.35 101.1 L48.65 101.95 49.15 102.6 49.6 102.85 50.35 102.85 51.05 102.4 51.6 101.5 51.95 101.4 52.0 101.7 52.0 102.5 51.4 102.9 50.45 103.2 49.55 103.3 48.8 103.2 48.05 102.75 47.5 102.15 47.2 101.4 Q46.95 100.25 47.55 99.4 48.1 98.5 49.2 98.3 L50.1 98.15 50.85 98.1" fill="#333333" fill-rule="evenodd" stroke="none"/>
    <path d="M52.4 97.95 L52.35 97.65 53.25 97.5 53.6 97.4 53.75 97.4 54.8 97.1 55.5 97.0 56.15 97.1 56.6 97.5 56.85 98.0 Q57.0 98.65 56.7 99.15 L55.8 99.75 55.35 99.8 54.95 99.75 54.9 99.45 55.05 99.4 55.15 99.4 55.65 99.1 55.8 98.3 55.5 97.75 55.15 97.5 54.6 97.5 Q54.3 97.55 54.25 97.7 L54.2 97.8 54.6 99.5 54.75 99.95 55.15 101.65 55.9 101.55 55.95 101.7 55.95 101.85 55.8 101.9 54.65 102.1 53.8 102.35 53.6 102.45 53.55 102.25 53.5 102.15 53.7 102.05 54.1 101.8 54.05 101.6 54.05 101.5 53.95 101.2 53.2 98.1 53.05 97.95 52.4 97.95" fill="#333333" fill-rule="evenodd" stroke="none"/>
    <path d="M57.75 96.8 L57.65 96.5 57.8 96.45 59.85 96.0 60.15 95.95 60.15 96.0 60.2 96.2 60.2 96.25 59.8 96.35 59.55 96.5 59.6 96.95 59.65 97.15 59.65 97.25 59.8 97.9 60.2 99.45 60.55 100.05 60.95 100.3 61.55 100.3 62.2 100.1 62.5 99.85 62.7 99.6 62.8 99.15 62.7 98.4 62.15 96.4 61.95 95.95 61.65 95.9 61.3 96.0 61.25 96.0 61.2 95.7 62.85 95.3 62.9 95.3 62.95 95.5 63.0 95.6 62.45 95.8 62.4 95.95 62.5 96.15 62.6 96.65 63.0 98.1 63.15 99.1 63.1 99.5 62.85 100.0 62.25 100.45 61.4 100.75 60.4 100.8 59.7 100.55 59.3 100.0 59.05 99.2 58.45 96.8 57.9 96.75 57.75 96.8" fill="#333333" fill-rule="evenodd" stroke="none"/>
    <path d="M51.65 103.8 L52.35 103.8 52.45 104.15 52.45 104.2 52.35 104.2 52.15 104.05 51.9 103.95 51.7 103.95 51.3 104.25 51.3 104.95 51.45 105.3 51.7 105.55 52.05 105.55 52.25 105.5 52.3 105.45 52.35 105.35 52.25 104.95 52.2 104.9 51.95 104.9 51.95 104.8 52.0 104.8 52.25 104.75 52.35 104.7 52.55 104.65 52.65 104.65 52.75 104.6 52.75 104.7 52.65 104.8 52.65 105.0 52.75 105.35 52.75 105.4 52.5 105.55 52.05 105.7 51.7 105.75 51.45 105.7 51.2 105.6 51.0 105.35 50.85 105.0 50.85 104.6 50.95 104.25 51.25 104.0 51.65 103.8" fill="#333333" fill-rule="evenodd" stroke="none"/>
    <path d="M53.1 103.5 L53.35 103.45 53.5 103.45 53.75 103.35 53.9 103.35 53.9 103.45 53.65 103.55 53.65 103.65 53.7 103.7 53.7 103.8 53.75 104.0 53.75 104.1 53.8 104.2 53.85 104.2 54.05 104.15 54.15 104.15 54.65 104.0 54.75 104.0 54.7 103.75 54.7 103.7 54.65 103.45 54.6 103.35 54.35 103.3 54.3 103.3 54.3 103.25 54.35 103.2 54.5 103.2 54.75 103.15 54.8 103.15 55.0 103.1 55.05 103.05 55.15 103.05 55.25 103.0 55.25 103.1 55.1 103.2 55.0 103.25 55.0 103.3 55.05 103.35 55.05 103.5 55.1 103.7 55.15 103.8 55.3 104.45 55.35 104.6 55.35 104.7 55.4 104.7 55.6 104.75 55.65 104.85 55.4 104.85 54.75 105.05 54.7 105.05 54.7 104.95 54.9 104.85 54.95 104.8 54.9 104.45 54.85 104.35 54.8 104.15 54.7 104.15 54.05 104.3 54.0 104.3 53.95 104.35 53.85 104.35 53.85 104.55 53.95 105.0 54.0 105.05 54.3 105.05 54.3 105.15 54.2 105.15 54.15 105.2 53.95 105.2 53.75 105.25 53.7 105.25 53.65 105.3 53.35 105.35 53.35 105.25 53.55 105.2 53.6 105.15 53.55 104.8 53.45 104.5 53.45 104.45 53.4 104.2 53.4 104.15 53.35 104.05 53.35 103.9 53.3 103.85 53.25 103.65 53.0 103.65 52.95 103.6 52.95 103.55 53.05 103.5 53.1 103.5" fill="#333333" fill-rule="evenodd" stroke="none"/>
    <path d="M57.0 103.4 L56.55 104.4 56.55 104.45 56.5 104.5 56.55 104.5 56.85 104.4 56.95 104.35 57.05 104.1 57.1 104.05 57.15 104.05 57.2 104.15 57.2 104.45 56.2 104.7 56.15 104.7 56.1 104.65 56.35 104.2 56.6 103.55 56.45 103.55 56.2 103.65 56.05 103.85 56.05 103.9 55.95 103.95 55.95 103.55 56.0 103.4 56.05 103.4 56.1 103.45 56.15 103.55 56.2 103.5 57.0 103.35 57.0 103.4" fill="#333333" fill-rule="evenodd" stroke="none"/>
    <path d="M59.85 103.35 L59.85 103.55 59.9 103.85 59.75 103.9 59.6 103.9 59.5 103.95 59.4 103.95 59.25 104.0 59.2 104.0 59.05 104.05 58.8 104.1 58.75 104.1 58.7 104.05 59.15 103.2 59.25 102.9 59.25 102.65 59.05 102.35 58.85 102.35 58.7 102.45 58.6 102.6 58.6 102.8 58.5 102.85 58.5 102.75 58.5 102.45 Q58.65 102.25 58.95 102.15 L59.35 102.2 59.6 102.5 59.6 102.65 59.55 102.85 58.95 103.75 59.15 103.75 59.4 103.65 59.55 103.65 59.7 103.6 59.7 103.45 59.75 103.35 59.85 103.35" fill="#333333" fill-rule="evenodd" stroke="none"/>
    <path d="M60.8 104.1 L60.65 104.2 60.65 104.25 60.55 104.15 60.6 104.1 60.7 103.95 60.7 103.75 60.55 103.7 60.45 103.65 60.4 103.55 60.4 103.4 60.55 103.3 60.8 103.35 60.95 103.6 60.95 103.75 60.9 103.95 60.8 104.1" fill="#333333" fill-rule="evenodd" stroke="none"/>
    <path d="M62.0 101.45 L62.0 101.65 62.05 101.7 62.05 101.85 62.1 101.9 62.1 102.05 62.15 102.15 62.15 102.25 62.2 102.35 62.25 102.6 62.35 102.6 62.4 102.55 62.45 102.55 62.5 102.8 62.4 102.8 62.3 102.85 62.3 102.95 62.35 103.05 62.35 103.2 62.4 103.3 62.25 103.35 62.1 103.35 62.1 103.4 62.05 103.1 62.0 102.95 62.0 102.9 61.8 102.95 61.7 103.0 61.45 103.05 61.3 103.05 61.3 102.95 61.25 102.9 61.25 102.85 61.5 102.1 61.65 101.85 61.7 101.7 61.75 101.6 61.75 101.5 61.85 101.45 62.0 101.45 M61.75 101.9 L61.75 101.85 61.7 101.9 61.7 101.95 61.6 102.15 61.55 102.4 61.5 102.45 61.4 102.8 61.45 102.8 61.55 102.75 61.65 102.75 61.85 102.7 61.95 102.65 61.9 102.55 61.9 102.45 61.85 102.35 61.85 102.25 61.8 102.0 61.75 101.9" fill="#333333" fill-rule="evenodd" stroke="none"/>
    <path d="M75.2 5.9 Q75.7 6.7 75.8 7.5 72.1 6.9 69.95 8.85 L67.55 11.15 65.15 13.1 Q61.2 12.75 57.4 8.95 L55.8 10.05 54.5 11.15 Q53.65 8.8 53.35 7.5 52.3 7.85 51.35 8.7 L49.85 10.35 Q50.3 8.55 50.6 8.05 L51.1 7.6 51.3 6.75 52.15 5.85 53.5 4.3 Q54.5 3.4 55.35 3.9 L55.85 4.3 56.4 4.75 Q57.75 5.45 59.9 6.95 60.05 6.95 60.05 7.3 60.05 7.6 60.4 7.5 60.9 6.65 61.05 5.2 61.45 5.2 62.05 6.15 62.65 7.1 63.1 7.05 63.55 7.05 63.85 6.35 L64.35 5.1 Q65.1 5.7 66.1 7.5 L66.7 7.4 68.55 4.15 Q69.7 2.3 70.75 1.35 L71.9 0.35 Q72.6 -0.05 73.65 0.05 76.85 2.15 78.3 4.2 L76.35 4.1 Q74.95 3.95 74.35 4.55 L75.2 5.9" fill="#000000" fill-rule="evenodd" stroke="none"/>
    <path d="M62.35 9.85 L62.35 9.4 62.55 9.6 62.55 10.05 61.7 9.85 61.2 9.2 Q61.7 9.2 62.35 9.85" fill="#ffffff" fill-rule="evenodd" stroke="none"/>
    <path d="M64.2 9.6 Q64.45 8.7 65.2 8.2 L65.55 8.5 Q65.25 9.55 64.4 9.4 L64.2 9.6" fill="#ffffff" fill-rule="evenodd" stroke="none"/>
    <path d="M66.05 20.65 Q67.45 19.25 68.35 18.9 69.45 19.35 70.35 20.9 L71.75 23.6 72.9 21.45 73.1 22.45 Q73.2 23.1 73.45 23.2 L74.0 22.35 74.4 21.35 74.75 22.3 74.95 23.4 77.5 20.9 Q80.3 23.25 80.95 26.6 81.25 27.65 81.0 27.95 L80.0 26.45 Q79.35 25.3 78.75 25.0 L78.35 26.55 Q78.1 27.45 77.65 27.7 76.9 26.2 76.2 26.0 74.1 28.3 72.3 28.35 L71.7 27.6 Q71.35 27.15 70.95 27.1 69.0 23.8 66.95 24.75 66.65 25.2 66.35 25.1 66.35 24.1 66.9 22.85 66.0 22.75 64.45 23.5 64.55 22.65 65.15 21.95 L66.05 20.65" fill="#000000" fill-rule="evenodd" stroke="none"/>
    <path d="M73.95 24.6 L74.6 24.2 73.9 24.75 73.9 24.45 73.95 24.3 73.95 24.6" fill="#ffffff" fill-rule="evenodd" stroke="none"/>
    <path d="M73.05 24.45 L72.95 24.3 Q72.5 24.45 72.3 23.75 L72.5 23.6 73.05 24.45" fill="#ffffff" fill-rule="evenodd" stroke="none"/>
  </g>
</svg>
