<?xml version="1.0" encoding="UTF-8" standalone="no"?>
<svg xmlns:xlink="http://www.w3.org/1999/xlink" height="28.5px" width="140.0px" xmlns="http://www.w3.org/2000/svg">
  <g transform="matrix(1.0, 0.0, 0.0, 1.0, 5.2, 1.3)">
    <path d="M13.4 1.1 L12.9 0.55 12.3 0.25 11.75 -0.2 10.45 -0.25 9.15 0.3 8.9 0.55 8.5 0.65 8.5 0.75 7.8 1.75 8.65 2.15 10.1 2.5 10.2 2.65 10.4 2.7 10.8 2.85 11.7 3.05 12.55 2.9 13.15 2.3 13.55 1.7 13.4 1.1 M14.65 1.4 L14.55 2.25 14.1 3.45 13.55 3.95 12.3 4.5 11.75 4.05 10.45 3.95 9.55 3.55 8.9 3.2 8.85 3.35 9.0 3.45 9.25 4.2 9.4 4.2 9.45 4.45 10.15 5.45 10.75 7.5 10.9 8.85 11.25 9.4 11.3 9.95 11.45 10.2 11.55 10.75 11.55 11.3 11.7 11.7 11.8 12.35 12.3 13.25 12.3 14.45 12.5 16.1 12.0 17.9 12.0 18.0 12.1 18.0 11.9 19.0 11.45 19.55 11.4 19.95 11.3 19.95 11.05 20.45 10.5 20.65 9.75 21.8 9.1 22.2 9.0 22.45 8.0 22.95 6.9 23.05 4.8 24.0 3.65 24.05 1.95 23.5 0.6 22.85 Q0.45 22.65 -0.1 22.4 L-0.85 21.65 -0.85 21.5 -2.4 20.4 -2.85 19.25 -2.85 17.9 -2.4 16.4 -1.1 14.5 -0.35 13.8 2.0 12.4 2.15 12.0 2.7 11.65 4.45 11.6 4.9 11.55 5.55 11.7 6.2 12.2 6.2 12.35 6.45 12.8 6.9 13.9 6.9 14.7 6.65 15.15 6.6 15.55 6.4 15.95 5.75 16.3 5.4 17.3 3.75 18.3 3.0 18.5 1.1 18.4 0.75 18.1 0.25 17.25 0.05 16.4 0.05 16.3 0.55 15.4 1.15 15.15 1.6 15.15 2.1 15.5 2.15 16.55 1.95 17.05 1.95 17.3 2.6 17.5 3.3 17.5 3.4 17.35 4.05 17.15 4.1 16.65 3.5 16.45 3.45 16.05 3.7 14.6 3.85 14.1 4.4 13.6 4.5 13.2 4.45 12.65 3.9 12.5 3.25 12.45 2.7 12.75 2.55 13.0 2.05 13.1 1.65 13.55 1.2 13.9 0.75 14.35 0.25 14.45 -0.05 14.7 -0.5 15.4 -0.9 15.65 -1.1 16.3 -1.8 17.5 -1.8 18.55 -1.4 20.0 -0.7 20.3 -0.2 20.75 1.65 21.4 1.95 21.55 2.55 21.5 3.25 21.85 3.95 21.9 5.55 21.6 6.05 21.3 6.45 20.7 6.5 20.45 6.95 20.15 7.45 19.3 7.75 19.0 7.9 18.6 8.45 17.8 8.5 17.3 8.7 16.8 8.95 15.9 8.9 15.0 9.1 14.15 9.15 13.2 8.75 11.9 8.15 9.1 7.85 8.8 7.85 8.55 7.55 7.95 7.25 6.75 6.8 5.65 6.35 4.9 6.3 4.2 5.95 3.35 5.45 2.65 3.45 3.6 2.45 3.85 1.6 4.2 0.0 4.4 -0.75 4.35 -1.75 4.0 -2.4 3.5 -2.85 3.3 -3.2 3.3 -3.45 2.9 Q-4.0 2.65 -4.65 2.35 L-4.9 2.15 -5.2 1.75 -5.05 0.95 -4.85 0.6 -4.5 0.15 -4.2 -0.1 -3.85 -0.3 -3.7 -0.6 -3.35 -0.95 -3.15 -1.05 -3.15 -1.15 -2.4 -1.3 -1.05 -1.25 1.0 -0.8 1.2 -0.5 1.35 0.1 1.3 0.45 0.5 0.5 -0.1 1.1 -0.75 1.1 -1.15 0.7 -0.85 0.05 -1.25 -0.1 -1.75 0.1 -2.95 0.1 -3.5 0.5 -3.45 1.4 -2.55 2.15 -1.45 2.8 -0.65 3.1 -0.4 3.2 2.3 2.95 4.85 2.1 5.25 1.85 5.6 1.8 5.95 1.25 6.65 0.55 6.9 0.2 7.8 -0.1 7.95 -0.35 8.4 -0.45 8.75 -0.8 9.15 -0.9 9.9 -1.25 10.5 -1.15 11.3 -1.25 12.55 -0.8 13.2 -0.2 13.55 -0.05 13.55 0.1 14.0 0.25 14.05 0.55 14.65 1.25 14.65 1.4" fill="#ffffff" fill-rule="evenodd" stroke="none"/>
    <path d="M21.7 15.9 L21.0 15.95 20.45 15.8 19.7 15.85 19.05 16.2 18.95 16.45 18.7 16.8 18.3 17.95 18.1 18.3 18.05 18.65 17.65 18.85 17.65 19.15 17.5 19.5 17.25 19.6 17.25 19.75 16.85 20.25 16.7 21.2 16.9 21.2 16.7 22.6 16.8 22.95 17.0 23.1 17.55 23.4 18.25 23.35 19.0 23.1 19.95 22.65 20.35 22.3 20.5 21.85 20.75 21.55 21.3 21.3 21.7 21.4 21.8 21.75 22.05 22.0 22.0 22.4 21.9 22.5 21.45 22.9 21.05 23.25 20.0 23.7 19.9 23.8 19.4 23.9 19.15 24.05 19.05 24.0 18.9 24.35 18.6 24.3 18.25 24.65 17.65 24.6 17.1 24.35 16.55 24.3 16.25 24.15 16.3 23.9 15.8 23.45 15.65 22.95 15.35 22.6 14.8 22.35 14.65 21.8 14.4 21.4 14.35 20.65 14.4 19.9 14.65 19.1 15.1 18.2 15.5 17.75 15.45 17.6 15.5 17.3 15.65 17.35 15.9 16.8 15.9 16.7 16.2 16.35 16.6 16.2 16.7 15.9 17.0 15.5 17.4 15.25 17.65 14.75 18.1 14.6 18.3 14.35 18.65 14.4 19.25 14.1 20.25 14.05 20.8 13.95 21.7 14.3 21.9 14.7 22.45 14.9 22.85 15.2 23.9 15.25 24.2 15.4 24.45 15.65 24.4 16.0 24.15 16.4 23.85 16.75 22.8 16.8 21.7 15.9" fill="#ffffff" fill-rule="evenodd" stroke="none"/>
    <path d="M40.3 4.65 L40.6 4.55 40.95 4.8 41.2 5.4 40.95 6.85 40.5 7.1 40.2 8.0 39.9 8.1 39.75 8.4 39.45 8.9 39.0 8.95 38.3 9.1 36.35 8.85 35.1 8.15 34.8 7.7 34.7 7.45 34.5 7.4 34.35 7.0 33.65 6.85 32.85 7.3 32.85 7.45 32.7 7.45 32.55 8.2 32.35 8.3 32.3 8.75 31.3 11.45 31.2 11.6 30.8 11.8 30.65 13.4 30.4 14.1 30.35 14.7 30.1 14.95 30.1 15.35 29.4 16.25 29.3 17.05 29.35 17.5 29.65 17.15 30.3 16.95 30.9 16.45 31.2 16.4 31.75 15.75 32.05 15.8 32.4 15.5 32.6 15.5 32.9 15.25 33.9 15.25 34.55 16.05 34.55 16.2 34.65 16.35 34.85 17.1 35.05 17.25 34.8 18.0 34.35 18.5 34.15 18.9 34.0 18.9 33.85 19.45 33.8 20.5 33.7 20.6 33.65 21.15 33.45 21.3 33.0 22.45 32.8 22.85 32.5 23.1 32.4 23.6 32.5 24.0 32.85 23.9 33.9 23.15 34.05 23.15 34.05 23.3 33.9 23.95 33.65 24.05 33.65 24.15 33.5 24.3 32.85 25.05 32.1 25.35 31.9 25.3 31.1 25.25 30.45 24.65 30.25 23.8 30.2 23.1 30.4 22.95 30.3 22.55 30.4 21.9 30.5 21.75 30.5 21.5 30.65 21.3 30.9 20.7 31.2 20.25 31.3 19.9 31.6 19.3 31.65 18.75 32.15 17.9 32.15 17.65 32.3 17.65 32.3 17.35 32.5 17.25 32.5 17.1 32.6 17.1 32.75 16.85 32.65 16.3 32.15 16.3 31.8 16.5 31.45 16.85 30.7 17.25 30.65 17.65 30.2 17.8 30.2 17.9 30.1 18.05 29.75 18.15 29.6 18.25 29.2 18.35 29.1 18.6 29.0 18.6 28.9 18.85 28.9 18.95 28.5 19.1 28.5 19.45 28.15 20.5 28.05 20.9 27.9 21.1 27.9 21.2 27.85 21.35 27.65 21.55 27.55 21.85 27.45 21.95 27.4 22.2 27.15 22.45 26.9 23.35 26.75 23.5 26.35 24.1 26.25 24.35 25.7 24.9 25.4 25.1 25.4 25.25 25.0 25.5 24.05 25.15 23.85 25.0 23.9 24.9 23.7 24.6 23.85 24.05 23.95 23.95 24.05 23.95 24.05 23.8 24.45 23.35 24.95 20.3 25.05 20.15 25.35 19.95 25.45 19.55 25.8 19.35 25.8 19.15 25.7 19.05 25.75 18.75 26.1 18.4 26.2 18.15 26.5 18.0 26.7 17.8 26.75 17.35 27.0 16.9 27.2 16.1 27.25 15.55 27.6 15.05 28.25 14.4 28.3 14.05 28.45 14.05 28.4 13.65 28.55 13.4 28.6 13.0 28.75 12.9 28.8 12.4 28.9 12.25 28.95 11.85 29.4 11.1 29.45 10.8 29.75 10.15 29.85 10.0 30.0 10.0 30.0 9.75 30.2 9.3 30.2 8.3 30.3 7.95 30.4 7.95 30.4 7.7 30.95 7.5 31.05 7.2 31.6 6.85 31.8 6.85 31.9 6.55 32.15 6.35 32.9 6.15 33.05 6.15 33.7 5.9 34.6 5.95 35.55 6.0 35.85 5.9 36.4 5.95 36.8 6.05 37.05 6.25 37.7 6.5 38.2 6.85 38.55 7.25 38.9 7.4 39.35 7.35 39.75 7.1 40.1 6.4 40.25 5.8 40.2 4.9 40.3 4.65" fill="#ffffff" fill-rule="evenodd" stroke="none"/>
    <path d="M41.95 16.95 L41.45 17.45 41.3 17.95 41.15 18.25 41.05 18.65 40.4 20.35 40.25 20.65 40.15 21.05 39.8 21.35 39.75 21.6 39.8 21.85 39.45 22.35 39.4 22.9 39.2 23.1 39.2 23.45 39.05 23.8 38.75 23.95 38.75 24.45 38.85 24.65 39.25 24.9 39.5 24.8 40.1 24.4 40.45 24.1 40.55 24.15 40.9 23.9 41.45 23.15 41.45 23.05 41.65 22.9 42.0 22.35 42.2 21.85 42.8 20.8 42.8 20.65 43.1 20.3 43.25 19.65 43.6 19.0 43.6 18.85 43.7 18.3 43.95 18.2 43.95 18.1 43.9 17.95 44.25 17.15 44.35 17.15 44.5 16.8 43.85 16.45 43.15 16.6 42.7 16.55 41.95 16.95 M44.3 15.65 L44.7 15.65 45.35 15.9 45.75 15.75 45.95 15.9 46.05 16.15 46.85 16.1 47.2 15.8 47.4 15.95 47.75 15.85 47.8 15.95 47.95 16.35 47.8 16.6 47.6 16.75 47.6 16.9 46.7 16.95 46.55 17.25 46.55 17.65 46.45 17.8 46.45 18.15 46.3 18.15 46.3 18.3 46.15 18.55 46.05 18.85 45.8 19.05 45.9 19.35 45.8 19.6 45.5 20.6 45.0 21.3 45.1 21.3 45.1 21.45 Q44.9 21.65 44.65 21.8 L44.3 22.2 44.25 22.4 44.3 22.55 44.15 23.8 44.05 23.8 44.05 24.0 43.8 24.4 43.9 24.7 44.2 24.8 44.9 24.2 45.5 23.95 45.65 24.35 45.35 25.05 44.75 25.55 44.15 26.25 43.1 26.55 42.9 26.5 42.9 26.4 42.6 26.4 41.95 25.65 41.9 24.45 41.55 24.15 40.85 24.95 40.7 25.2 40.15 25.35 39.9 25.7 39.25 25.95 38.9 25.8 38.55 25.9 37.9 25.55 37.55 25.4 37.15 25.0 36.85 24.0 36.75 23.15 36.95 22.4 37.0 22.4 37.25 21.55 37.2 21.25 37.2 21.1 37.35 20.65 37.55 20.3 37.65 20.05 38.05 19.65 38.65 18.5 38.85 17.85 39.1 17.65 39.35 17.3 39.9 17.1 40.15 17.0 40.3 17.0 40.65 16.6 41.05 16.25 41.2 16.0 42.2 15.65 43.05 15.8 43.4 16.05 43.85 16.1 44.3 15.65" fill="#ffffff" fill-rule="evenodd" stroke="none"/>
    <path d="M55.1 11.25 L55.05 12.2 54.85 12.35 54.85 12.45 54.75 12.6 54.75 12.95 54.3 13.6 54.15 14.3 53.9 14.85 55.05 15.05 55.3 15.0 55.9 15.0 56.15 15.1 56.5 15.1 56.9 15.15 57.15 15.75 57.0 16.35 56.7 16.4 56.3 16.3 55.6 16.05 55.15 16.05 54.55 16.15 54.5 16.3 53.85 16.25 53.5 16.6 53.35 17.1 53.1 17.7 53.1 18.25 52.95 18.9 52.75 19.1 52.85 19.85 52.65 19.95 52.5 20.2 52.65 20.45 52.4 20.8 52.3 21.35 52.15 21.4 51.9 21.9 51.9 22.0 51.45 22.3 51.55 22.7 51.3 23.0 51.2 23.35 50.9 23.9 50.85 24.15 50.95 24.25 51.2 24.25 51.2 24.6 51.05 24.7 51.2 25.05 51.25 25.5 51.85 25.35 52.1 25.55 52.3 25.4 52.55 25.5 53.5 25.1 53.9 24.75 54.15 23.95 54.15 23.3 54.45 22.55 54.7 22.15 54.45 21.95 54.7 21.75 54.7 21.6 55.05 21.35 55.45 21.35 55.75 21.45 56.05 22.25 55.85 22.6 55.8 23.05 55.35 23.55 55.0 23.8 55.0 23.95 54.65 24.45 54.55 25.0 54.25 25.45 53.9 25.75 53.6 26.1 53.05 26.45 52.8 26.55 52.5 26.55 52.4 26.85 52.2 26.85 52.05 26.7 51.7 26.85 51.55 26.95 51.0 27.05 51.0 26.9 50.2 26.8 49.9 26.8 49.65 26.5 49.25 26.2 48.8 25.7 48.8 25.0 48.75 24.9 48.75 24.3 49.05 23.4 49.1 22.9 49.3 22.65 49.45 22.3 49.45 21.7 49.85 21.1 49.85 20.6 50.1 19.75 50.4 19.4 50.25 19.05 50.7 17.65 50.7 17.55 50.8 17.0 51.05 17.0 51.25 16.1 51.15 15.95 50.6 16.1 50.2 16.35 50.0 16.45 49.7 16.3 49.05 16.55 48.45 16.5 48.65 16.0 49.05 15.65 49.5 15.35 49.7 15.35 49.85 15.1 50.15 15.1 50.65 14.85 50.9 15.0 51.9 14.7 52.1 14.15 52.3 14.15 52.75 13.45 52.85 13.1 53.3 12.8 53.4 12.4 53.8 12.55 53.9 12.45 53.9 12.2 54.35 11.9 54.35 11.65 54.55 11.25 54.75 11.25 54.9 11.35 55.1 11.25" fill="#ffffff" fill-rule="evenodd" stroke="none"/>
    <path d="M63.35 11.35 L63.45 11.45 63.65 11.35 63.65 12.3 Q63.5 12.4 63.45 12.45 L63.45 12.55 63.3 12.65 63.3 13.05 62.9 13.7 62.75 14.4 62.5 14.95 63.65 15.15 64.5 15.05 64.8 15.15 65.15 15.15 65.5 15.25 65.8 15.8 65.7 16.4 65.3 16.5 64.95 16.35 64.2 16.15 63.75 16.15 63.2 16.25 63.1 16.35 62.5 16.35 62.1 16.7 62.0 17.2 61.75 17.85 61.75 18.35 61.65 19.0 61.4 19.3 61.55 19.95 61.35 20.05 61.2 20.3 61.3 20.6 61.1 20.9 61.0 21.5 60.85 21.5 60.65 22.05 60.65 22.15 60.15 22.45 60.3 22.85 60.05 23.1 59.95 23.5 59.6 24.05 59.6 24.3 59.7 24.4 59.95 24.4 59.95 24.7 59.8 24.85 59.95 25.2 60.0 25.65 60.65 25.5 60.9 25.7 61.05 25.5 61.3 25.6 62.3 25.25 62.65 24.85 62.9 24.05 62.9 23.4 63.15 22.65 63.4 22.25 63.2 22.05 63.4 21.8 63.4 21.65 63.75 21.45 64.15 21.45 64.45 21.55 64.75 22.3 64.55 22.7 64.55 23.15 64.15 23.65 63.75 23.9 63.75 24.05 63.4 24.6 63.3 25.1 63.05 25.55 62.65 25.85 62.4 26.2 61.85 26.6 61.6 26.65 61.3 26.65 61.15 26.95 60.95 26.95 60.85 26.8 60.45 26.95 60.35 27.05 59.8 27.2 59.8 27.05 59.05 26.95 58.65 26.95 58.45 26.65 58.0 26.4 57.55 25.85 57.6 25.2 57.5 25.1 57.5 24.55 57.8 23.6 57.85 23.1 58.0 22.9 58.15 22.45 58.15 21.9 58.35 21.55 58.55 21.3 58.55 20.75 58.75 19.9 59.1 19.55 58.95 19.25 59.35 17.8 59.35 17.7 59.45 17.15 59.65 17.15 59.75 16.9 59.9 16.25 59.75 16.1 59.25 16.25 58.9 16.5 58.65 16.6 58.3 16.5 57.65 16.7 57.15 16.7 57.25 16.2 58.15 15.5 58.35 15.5 58.45 15.25 58.8 15.25 59.25 15.05 59.5 15.15 60.05 15.0 60.5 14.8 60.7 14.25 60.9 14.25 61.35 13.6 61.45 13.2 61.9 12.9 62.0 12.55 62.35 12.65 62.45 12.55 62.45 12.3 62.9 12.0 62.9 11.75 63.1 11.35 63.35 11.35" fill="#ffffff" fill-rule="evenodd" stroke="none"/>
    <path d="M67.1 17.9 L68.0 16.95 68.2 16.7 68.65 16.3 69.45 15.9 69.9 15.9 70.3 15.8 70.65 15.9 71.0 15.85 71.2 15.75 72.05 16.05 72.55 16.15 72.85 16.55 73.15 16.65 73.3 16.9 73.7 17.1 73.95 17.45 74.1 17.95 74.3 18.7 74.25 18.85 74.15 19.3 74.35 19.65 74.25 20.05 74.35 20.6 73.9 21.55 73.55 21.9 73.1 22.05 72.4 21.95 72.2 21.8 72.0 21.8 69.8 21.5 68.8 21.15 68.45 21.35 68.25 21.75 68.2 22.2 68.0 22.7 67.9 23.25 67.9 24.15 68.35 25.3 68.7 25.45 70.0 25.45 70.65 25.2 Q71.1 24.9 71.5 24.55 L71.75 24.45 72.05 24.15 72.25 23.75 72.95 23.55 73.05 23.9 72.95 24.3 72.65 24.85 72.05 25.55 71.95 25.65 71.5 26.2 70.45 26.65 69.55 26.65 68.6 26.9 67.95 26.75 67.85 26.65 67.25 26.5 66.7 25.95 66.35 25.45 66.15 25.05 66.05 24.9 65.8 24.35 65.8 24.1 65.6 23.35 65.8 22.65 65.85 22.0 66.0 21.85 65.95 21.75 66.15 21.5 66.25 20.9 66.45 20.65 66.65 20.15 66.65 18.95 66.9 18.8 67.1 17.9 M69.35 17.7 L69.25 18.05 69.15 18.15 69.15 18.4 68.95 18.6 68.8 19.35 68.7 19.35 68.65 19.65 68.75 20.1 69.7 20.5 70.7 20.75 72.15 20.75 72.35 20.25 72.45 20.1 72.6 19.15 72.45 19.0 72.4 18.05 72.1 17.5 71.25 16.7 70.65 16.8 70.0 17.05 69.8 17.15 69.65 17.5 69.35 17.7" fill="#ffffff" fill-rule="evenodd" stroke="none"/>
    <path d="M85.85 15.85 L86.05 16.2 86.35 16.85 86.35 17.2 86.3 17.35 86.3 18.05 86.2 18.2 85.95 18.85 86.0 19.05 85.9 19.25 85.8 19.7 85.8 20.15 85.75 20.35 85.8 20.55 85.7 20.7 84.9 22.7 84.8 23.5 84.6 23.9 84.7 24.35 85.25 23.75 85.6 23.25 86.0 23.1 86.5 23.2 86.4 23.6 86.1 24.05 85.75 24.4 85.45 24.95 85.25 25.45 85.05 25.6 85.05 25.7 84.3 26.25 83.85 26.15 83.15 25.65 83.1 25.55 82.85 25.3 82.6 24.9 82.6 24.55 82.5 24.25 82.55 23.95 82.5 23.55 82.6 22.95 83.15 21.4 83.35 21.05 83.6 20.25 83.6 19.7 83.65 19.35 83.65 19.0 83.85 18.4 84.0 17.5 83.7 17.3 83.6 17.5 83.6 17.6 82.95 18.15 82.95 18.3 82.5 18.45 82.5 18.55 82.05 18.85 81.85 19.1 81.85 19.4 81.65 19.55 81.1 19.7 81.1 19.95 80.85 19.95 80.75 20.1 80.65 20.1 80.55 20.35 80.55 20.6 80.2 20.75 80.2 21.05 80.1 21.45 80.05 22.05 79.8 22.8 79.65 23.7 79.45 24.2 79.05 24.65 78.85 24.95 78.55 25.55 78.35 25.85 77.8 25.95 76.7 26.35 76.3 26.15 75.75 26.35 75.2 25.9 74.95 25.2 75.05 24.6 75.35 24.4 76.2 24.95 76.7 24.8 77.05 24.55 77.15 23.75 77.25 23.65 77.35 22.5 77.5 21.95 78.0 21.0 78.25 20.0 78.3 19.4 78.4 18.95 78.6 18.45 78.5 18.05 78.6 17.75 78.35 17.5 78.05 17.65 78.05 17.8 77.55 17.95 77.25 18.2 76.6 18.35 76.2 18.5 75.6 18.2 75.45 17.85 75.6 17.6 77.0 17.35 77.85 17.0 78.9 16.3 79.1 16.3 79.85 15.65 80.2 15.55 80.55 15.75 80.95 16.4 81.15 16.75 81.15 17.0 80.9 17.15 80.9 17.45 80.7 17.85 80.7 18.0 80.65 18.35 80.75 18.65 80.95 18.75 81.5 18.45 82.15 17.95 82.15 17.8 82.25 17.8 82.55 17.55 82.65 17.55 83.05 17.2 83.15 16.95 83.55 16.85 83.55 16.7 84.0 16.4 84.3 16.25 84.4 16.15 84.7 16.1 85.1 15.85 85.3 15.65 85.65 15.55 85.75 15.85 85.85 15.85" fill="#ffffff" fill-rule="evenodd" stroke="none"/>
    <path d="M97.75 4.1 L98.3 4.15 98.55 4.15 98.85 4.65 98.9 5.35 98.7 5.5 98.05 5.5 97.75 5.45 97.35 5.55 96.55 6.0 96.1 6.15 95.85 6.75 95.5 7.3 95.6 8.15 95.4 8.75 95.1 9.25 95.05 10.7 94.8 11.15 94.85 12.1 94.5 12.55 94.3 13.05 94.35 13.55 94.2 14.25 94.25 14.6 93.8 15.55 93.75 16.75 93.55 17.55 93.55 18.1 93.3 18.35 93.1 18.5 93.25 18.9 92.95 19.15 92.75 20.05 92.5 20.5 92.45 21.6 92.25 22.1 92.2 22.8 91.9 23.6 91.55 24.0 91.1 24.15 90.15 25.3 88.9 25.75 88.55 25.6 87.95 25.65 87.65 25.55 87.1 24.9 87.05 24.35 87.5 23.95 87.7 23.95 88.0 24.15 88.55 24.45 88.95 24.15 89.4 23.5 89.75 23.3 89.8 22.8 89.95 22.3 89.95 20.75 90.05 20.25 90.15 20.25 90.15 20.0 90.35 19.5 90.3 18.75 90.6 18.25 91.05 16.4 91.45 15.85 91.45 15.25 91.65 14.4 91.7 13.95 91.95 13.15 91.95 12.65 92.05 12.1 92.35 11.25 92.6 10.85 92.75 10.25 92.65 9.8 92.75 9.15 93.2 8.95 93.3 8.7 93.3 8.2 93.5 8.0 93.75 7.1 93.85 7.0 94.35 6.15 94.85 5.7 95.2 5.65 95.45 5.3 95.65 5.3 96.05 4.85 96.8 4.5 97.35 4.35 97.75 4.1" fill="#ffffff" fill-rule="evenodd" stroke="none"/>
    <path d="M105.2 15.65 L104.3 15.85 104.2 16.1 104.25 16.45 104.15 16.6 104.15 17.0 104.05 17.0 104.05 17.15 103.9 17.45 103.85 17.8 103.65 18.0 103.75 18.25 103.65 18.5 103.45 19.6 103.0 20.25 103.15 20.25 103.15 20.4 102.7 20.8 102.4 21.3 102.35 21.5 102.45 21.65 102.4 22.9 102.3 22.9 102.3 23.15 102.15 23.55 102.25 23.8 102.55 23.85 103.25 23.2 103.75 22.9 103.95 23.25 103.75 23.95 103.15 24.6 102.65 25.35 101.45 25.7 101.4 25.6 101.1 25.6 100.75 25.25 100.4 25.0 100.25 23.8 100.0 23.55 99.9 23.55 99.25 24.35 99.1 24.65 98.6 24.85 98.4 25.25 97.75 25.55 97.35 25.45 97.0 25.6 96.35 25.3 96.0 25.2 95.55 24.8 95.15 23.85 95.0 23.05 95.1 22.25 95.2 22.25 95.35 21.35 95.25 21.1 95.25 20.9 95.35 20.5 95.55 20.1 95.55 19.85 95.95 19.4 96.15 18.9 96.6 17.55 96.85 17.25 97.0 16.95 97.75 16.55 97.9 16.55 98.65 15.7 98.75 15.4 99.7 14.95 100.6 15.0 100.95 15.25 101.35 15.2 101.8 14.7 102.25 14.7 102.8 14.85 103.25 14.7 103.5 14.8 103.6 15.05 104.35 14.9 104.65 14.6 104.9 14.7 105.25 14.55 105.35 14.7 105.5 15.05 105.4 15.3 105.2 15.45 105.2 15.65 M100.75 15.85 L100.3 15.85 Q99.95 16.1 99.55 16.3 L99.15 16.8 99.05 17.35 98.9 17.7 98.85 18.1 98.65 18.55 98.4 19.85 98.2 20.15 98.2 20.55 97.85 20.9 97.8 21.2 97.9 21.45 97.6 21.95 97.6 22.45 97.45 22.65 97.45 23.05 97.35 23.3 97.35 23.45 97.05 23.6 97.1 24.1 97.2 24.25 97.65 24.45 97.85 24.35 98.75 23.6 98.85 23.6 99.15 23.35 99.45 22.8 99.65 22.5 99.65 22.4 99.9 22.2 100.15 21.7 100.3 21.15 100.75 20.05 100.75 19.9 101.05 19.5 101.15 18.8 101.4 18.15 101.35 18.05 101.45 17.5 101.7 17.3 101.7 17.2 101.65 17.05 101.9 16.3 102.0 16.3 102.1 15.9 101.4 15.65 100.75 15.85" fill="#ffffff" fill-rule="evenodd" stroke="none"/>
    <path d="M105.85 16.1 L107.3 15.85 109.1 14.65 109.3 14.6 110.0 13.95 110.4 13.8 110.7 14.0 111.2 14.6 111.35 15.0 111.35 15.25 111.15 15.4 111.15 15.7 111.0 16.1 111.0 16.25 110.95 16.6 111.05 16.85 111.25 17.0 111.85 16.65 112.45 16.1 112.45 15.95 112.55 15.95 112.8 15.7 112.95 15.65 113.25 15.3 113.35 15.05 113.8 14.9 113.8 14.75 114.5 14.3 114.6 14.15 114.85 14.15 115.5 13.55 115.8 13.55 115.9 13.75 116.05 13.75 116.3 14.15 116.55 14.75 116.55 15.15 116.5 15.3 116.55 15.95 116.45 16.1 116.25 16.75 116.35 17.0 116.25 17.15 116.2 18.1 116.15 18.3 116.2 18.5 116.15 18.65 116.0 18.9 115.75 19.75 115.7 20.0 115.4 20.7 115.35 21.5 115.15 21.9 115.3 22.4 115.85 21.75 116.15 21.25 116.5 21.0 117.05 21.1 116.95 21.5 116.65 22.0 116.35 22.35 115.9 23.45 115.7 23.6 115.7 23.7 115.0 24.3 114.55 24.2 113.85 23.75 113.75 23.65 113.4 23.4 113.25 23.05 113.2 22.6 113.1 22.35 113.15 22.1 113.1 21.7 113.1 21.3 113.35 20.0 113.6 19.5 113.8 19.1 114.0 18.3 114.0 17.45 113.95 17.1 114.15 16.45 114.25 15.5 113.95 15.4 113.85 15.55 113.85 15.7 113.2 16.3 113.2 16.4 112.8 16.55 112.8 16.7 112.4 17.0 112.2 17.25 112.25 17.6 112.05 17.7 111.45 17.9 111.45 18.15 111.25 18.15 111.15 18.3 111.05 18.35 110.95 18.6 110.95 18.85 110.65 19.0 110.65 19.3 110.55 19.7 110.55 20.3 110.3 21.05 110.2 21.95 110.0 22.5 109.65 22.95 109.2 23.9 109.0 24.2 108.45 24.35 108.0 24.6 107.4 24.8 107.0 24.65 106.45 24.85 105.85 24.4 105.6 23.75 105.65 23.15 106.0 23.0 106.8 23.4 107.35 23.25 107.7 22.95 107.7 22.15 107.85 22.05 107.8 21.45 107.85 20.9 108.0 20.35 108.45 19.35 108.65 18.35 108.65 17.75 108.9 16.8 108.8 16.4 108.85 16.1 108.65 15.9 108.3 16.05 108.3 16.15 107.85 16.35 107.55 16.6 106.45 17.0 105.9 16.75 105.75 16.35 105.85 16.1" fill="#ffffff" fill-rule="evenodd" stroke="none"/>
    <path d="M132.4 2.6 L132.9 2.75 134.35 2.3 134.7 2.65 134.8 3.0 134.6 3.85 134.3 4.15 134.15 4.6 133.7 5.05 133.15 4.65 133.1 4.2 131.95 3.8 131.25 3.65 130.5 3.95 130.0 4.3 129.65 4.7 129.45 5.35 129.45 5.6 129.3 5.75 129.2 6.15 129.25 6.3 129.05 6.3 129.0 7.15 128.6 7.8 128.75 7.9 128.55 8.6 128.45 9.55 128.6 9.8 128.55 10.1 128.55 10.2 128.35 10.55 128.05 11.85 127.8 12.7 127.65 13.0 127.5 13.75 127.55 14.35 127.35 14.65 127.3 15.0 127.2 15.05 126.7 15.9 126.6 17.35 126.45 18.05 126.35 18.3 126.35 18.45 126.1 18.75 126.2 19.7 125.95 20.3 125.7 20.7 125.55 21.3 125.75 21.75 126.2 22.05 Q126.6 21.9 126.95 21.7 L126.95 21.6 127.6 21.0 127.95 20.3 128.05 20.15 128.1 19.75 128.55 18.85 129.1 18.3 129.2 18.0 129.25 17.75 129.45 17.45 130.0 17.35 130.15 17.9 130.15 18.15 129.8 18.6 129.65 19.1 129.4 19.7 129.25 20.2 128.8 20.45 128.8 21.0 128.45 21.15 128.2 21.7 127.5 22.45 127.0 22.65 126.65 23.1 126.15 23.25 125.65 23.3 125.45 23.35 124.8 23.0 124.45 22.55 124.3 21.8 123.1 23.1 122.55 23.15 122.05 23.45 121.0 23.2 120.15 23.25 120.05 23.05 119.35 22.65 119.3 22.15 118.95 21.7 118.9 21.55 118.95 20.65 118.8 19.05 118.9 18.7 118.75 18.35 119.0 18.05 119.0 17.8 119.2 17.65 119.25 17.1 119.65 16.65 119.95 15.7 120.2 15.1 121.05 14.2 121.25 13.7 121.75 13.6 122.1 13.35 122.35 13.3 123.0 13.0 123.85 12.9 123.95 13.3 124.35 13.35 124.35 13.5 124.45 13.5 124.55 13.7 124.7 13.7 124.7 13.8 124.5 13.95 124.0 14.1 123.3 14.15 123.05 14.2 122.95 14.35 122.6 15.0 122.05 15.8 122.1 16.15 121.95 16.55 121.65 16.7 121.75 16.85 121.75 16.95 121.7 17.35 121.6 17.35 121.6 17.55 121.55 18.1 121.35 18.2 121.5 18.8 121.5 19.4 121.25 19.75 121.15 20.55 121.2 21.4 121.4 22.05 121.55 22.2 121.9 22.25 122.25 22.1 122.55 22.05 122.8 21.85 123.0 21.8 123.35 21.55 123.6 21.2 124.3 20.6 124.45 20.05 124.6 19.0 124.6 18.65 124.75 18.25 124.8 16.6 125.15 16.1 124.95 15.7 125.0 14.65 125.15 14.1 125.1 13.8 125.25 13.8 125.35 13.0 125.3 12.6 125.55 12.2 125.65 11.55 126.05 11.1 126.05 10.35 126.35 9.75 126.2 8.95 126.25 7.85 126.7 6.85 127.25 5.05 127.5 4.6 127.85 4.3 128.05 4.0 128.45 3.85 128.8 3.4 129.2 3.4 129.5 3.0 129.85 2.95 130.15 2.8 130.95 2.55 132.4 2.6" fill="#ffffff" fill-rule="evenodd" stroke="none"/>
  </g>
</svg>
