<?xml version="1.0" encoding="UTF-8" standalone="no"?>
<svg xmlns:xlink="http://www.w3.org/1999/xlink" height="152.05px" width="262.55px" xmlns="http://www.w3.org/2000/svg">
  <g transform="matrix(1.0, 0.0, 0.0, 1.0, 106.1, 102.65)">
    <path d="M36.8 -38.7 L156.45 -18.85 155.75 -1.0 99.75 9.45 55.75 42.4 -26.25 49.4 -60.25 32.4 -105.8 16.2 -106.1 -69.7 -25.6 -70.5 -25.25 -76.35 Q-24.4 -83.35 -21.85 -88.75 -13.75 -106.15 8.1 -101.8 30.0 -97.4 35.6 -67.6 38.4 -52.7 36.8 -38.7" fill="#ff0000" fill-opacity="0.0" fill-rule="evenodd" stroke="none"/>
    <path d="M-2.5 -23.55 Q-3.9 -21.15 -5.8 -20.15 L8.2 -24.9 26.6 -31.0 71.65 -27.45 86.1 -14.25 47.65 15.65 1.95 22.85 -32.85 19.85 -51.0 10.1 -48.1 6.55 Q-45.3 2.95 -46.0 2.75 -46.45 1.85 -46.7 1.7 L-52.7 -2.3 Q-57.55 -4.55 -58.6 -5.45 L-58.85 -5.75 -71.95 4.3 -84.6 0.2 Q-97.35 -4.15 -97.75 -5.3 -98.05 -6.05 -85.3 -15.05 L-72.55 -23.85 -68.3 -32.8 -20.35 -35.1 -9.25 -33.75 Q1.65 -31.95 0.4 -29.5 -1.4 -25.4 -2.5 -23.55 M-5.8 -20.15 Q-8.1 -19.35 -7.05 -19.65 L-5.8 -20.15" fill="#999999" fill-rule="evenodd" stroke="none"/>
  </g>
</svg>
