<?xml version="1.0" encoding="UTF-8" standalone="no"?>
<svg xmlns:xlink="http://www.w3.org/1999/xlink" height="107.3px" width="316.2px" xmlns="http://www.w3.org/2000/svg">
  <g transform="matrix(1.0, 0.0, 0.0, 1.0, 0.05, 0.0)">
    <path d="M315.15 38.6 L249.25 94.0 171.05 107.3 111.35 101.75 83.55 85.15 82.7 74.85 Q81.65 64.5 80.45 64.1 79.9 62.9 81.65 63.95 L77.35 60.75 Q69.0 56.6 67.2 54.95 L66.8 54.35 44.45 72.95 Q33.65 69.35 22.7 65.35 0.8 57.3 0.15 55.2 -0.55 52.85 1.2 26.4 L50.6 4.25 132.8 0.0 151.85 2.5 Q170.45 5.85 168.3 10.35 165.2 17.95 163.35 21.35 160.85 25.95 157.55 27.8 L181.75 18.95 Q197.05 13.4 213.25 7.6 L316.15 8.7 315.15 38.6 M157.55 27.8 Q153.85 29.2 155.6 28.65 L157.55 27.8" fill="#778b13" fill-rule="evenodd" stroke="none"/>
  </g>
</svg>
