<?xml version="1.0" encoding="UTF-8" standalone="no"?>
<svg xmlns:xlink="http://www.w3.org/1999/xlink" height="107.3px" width="315.0px" xmlns="http://www.w3.org/2000/svg">
  <g transform="matrix(1.0, 0.0, 0.0, 1.0, 0.0, 0.0)">
    <path d="M315.0 38.6 L249.1 94.0 170.9 107.3 111.2 101.75 80.1 83.75 85.1 77.15 Q89.9 70.5 88.7 70.1 87.9 68.4 87.45 68.1 L77.2 60.75 Q68.85 56.6 67.05 54.95 L66.65 54.35 44.3 72.95 Q33.5 69.35 22.55 65.35 0.65 57.3 0.0 55.25 -0.45 53.8 21.35 37.2 32.25 28.9 43.25 20.9 L50.45 4.3 132.65 0.0 151.7 2.5 Q170.3 5.9 168.15 10.4 165.05 18.0 163.2 21.4 160.75 25.9 157.5 27.8 163.2 25.6 181.6 18.95 L213.1 7.6 290.3 14.25 315.0 38.6 M157.5 27.8 Q153.65 29.2 155.45 28.65 L157.5 27.8" fill="#b5ce42" fill-rule="evenodd" stroke="none"/>
  </g>
</svg>
