<?xml version="1.0" encoding="UTF-8" standalone="no"?>
<svg xmlns:xlink="http://www.w3.org/1999/xlink" height="48.2px" width="63.25px" xmlns="http://www.w3.org/2000/svg">
  <g transform="matrix(1.0, 0.0, 0.0, 1.0, 0.0, 0.0)">
    <path d="M54.45 18.45 L58.15 18.45 Q62.0 19.2 62.85 22.8 64.25 28.75 60.5 32.2 59.3 33.25 57.75 33.95 L56.45 34.45 Q54.6 38.15 50.45 41.7 42.1 48.8 30.65 48.15 19.8 47.55 13.2 41.5 11.15 39.6 9.75 37.4 L8.8 35.55 Q6.25 34.2 3.9 32.15 -0.85 28.05 0.15 24.6 1.3 20.65 5.4 19.9 L9.3 20.0 10.4 18.65 Q8.6 15.4 8.0 11.7 6.85 4.3 13.0 2.15 17.8 0.5 20.75 5.15 22.2 7.5 23.1 10.15 L30.75 6.9 38.0 9.75 40.35 4.3 Q43.75 -0.9 48.9 0.2 55.5 1.6 56.1 9.9 56.4 14.1 55.35 17.95 L54.45 18.45" fill="url(#gradient0)" fill-rule="evenodd" stroke="none"/>
  </g>
  <defs>
    <linearGradient gradientTransform="matrix(0.0386, 0.0, 0.0, -0.0386, 31.6, 24.1)" gradientUnits="userSpaceOnUse" id="gradient0" spreadMethod="pad" x1="-819.2" x2="819.2">
      <stop offset="0.043137254901960784" stop-color="#f9cf17"/>
      <stop offset="0.4823529411764706" stop-color="#fef5b1"/>
      <stop offset="0.5411764705882353" stop-color="#fefac5"/>
      <stop offset="0.5764705882352941" stop-color="#fef8bd"/>
      <stop offset="0.6392156862745098" stop-color="#fdf2a6"/>
      <stop offset="0.6941176470588235" stop-color="#fcec8b"/>
      <stop offset="1.0" stop-color="#f9cf17"/>
    </linearGradient>
  </defs>
</svg>
