<?xml version="1.0" encoding="UTF-8" standalone="no"?>
<svg xmlns:xlink="http://www.w3.org/1999/xlink" height="65.65px" width="97.9px" xmlns="http://www.w3.org/2000/svg">
  <g transform="matrix(1.0, 0.0, 0.0, 1.0, 48.2, 16.55)">
    <path d="M34.55 -8.75 Q35.55 -7.55 36.1 -5.25 36.65 -3.0 36.3 -1.5 35.85 0.4 33.85 1.7 L30.5 3.8 Q32.8 4.55 33.85 5.75 35.2 7.25 34.6 9.75 34.2 11.4 32.75 13.1 31.35 14.65 29.85 15.45 32.95 13.9 38.5 17.35 44.15 20.85 39.75 23.5 44.1 22.8 46.35 25.8 48.7 28.85 44.5 31.8 48.15 33.0 44.95 36.45 42.8 38.7 39.65 40.5 35.7 42.6 30.65 43.5 L21.2 44.45 -0.3 46.2 Q-13.0 47.05 -21.85 46.45 -29.1 46.0 -33.8 44.55 L-42.15 42.95 Q-42.15 43.45 -42.5 43.4 -44.35 41.05 -45.15 37.5 -45.6 35.55 -45.0 34.65 L-42.85 33.05 Q-44.85 31.1 -45.35 29.85 -46.1 28.05 -44.9 25.95 -43.9 24.15 -41.85 23.55 -39.8 22.95 -37.95 24.0 -40.85 21.8 -42.75 18.1 -45.05 13.7 -43.55 10.7 -41.85 7.4 -36.8 6.05 -32.4 4.9 -30.15 6.75 -31.0 5.4 -29.35 3.95 -27.7 2.55 -26.4 3.45 -28.15 1.1 -25.55 -1.75 -24.35 -3.1 -22.8 -3.35 -21.35 -3.55 -20.3 -2.65 -22.9 -5.35 -21.75 -8.0 -20.6 -10.4 -17.05 -11.55 -13.5 -12.7 -10.65 -11.55 -7.45 -10.3 -7.35 -6.6 L-4.05 -9.6 Q-2.35 -10.7 0.1 -11.0 L4.65 -10.7 Q6.4 -10.2 7.4 -9.1 6.75 -10.85 9.0 -12.35 11.45 -13.95 14.05 -14.15 17.3 -14.4 19.95 -12.65 22.5 -10.95 22.0 -8.45 23.35 -11.55 27.5 -11.65 32.05 -11.8 34.55 -8.75" fill="#8fc73b" fill-rule="evenodd" stroke="none"/>
    <path d="M9.9 -15.5 Q12.1 -16.4 13.85 -16.55 16.2 -16.65 18.7 -15.85 21.55 -14.95 23.1 -13.15 L23.2 -13.05 Q25.2 -14.05 27.75 -14.05 30.35 -14.05 32.75 -13.0 35.2 -11.95 36.65 -10.15 37.95 -8.55 38.65 -5.8 39.3 -3.0 38.85 -1.0 38.2 1.9 35.3 3.7 38.05 6.15 37.15 10.25 36.8 11.8 35.65 13.45 38.55 14.35 40.75 15.9 43.2 17.65 43.85 19.65 44.15 20.5 44.05 21.5 46.0 22.05 47.4 23.25 48.8 24.45 49.35 26.0 50.4 28.95 48.35 31.55 48.9 32.4 49.0 33.35 49.3 36.25 45.15 39.65 43.1 41.4 40.95 42.55 36.6 44.85 31.1 45.85 L21.4 46.85 10.1 47.75 -1.8 48.65 -13.8 49.1 -22.05 48.85 Q-29.8 48.25 -34.5 46.85 L-41.25 45.55 -43.15 45.7 -44.05 45.5 -44.6 44.8 Q-46.85 42.0 -47.7 38.0 -48.5 34.55 -46.6 32.7 -49.5 29.0 -47.2 24.9 -46.05 22.7 -43.6 21.65 -45.75 18.65 -46.45 15.8 -47.3 12.35 -45.9 9.7 -44.55 7.05 -41.05 5.15 -37.5 3.3 -33.95 3.3 L-32.15 3.45 -32.15 3.4 Q-31.15 1.95 -29.55 1.25 -29.45 -0.3 -28.6 -1.85 -27.2 -4.3 -24.6 -5.3 -24.95 -7.15 -24.05 -9.05 -22.8 -11.55 -19.65 -13.1 -16.75 -14.45 -13.65 -14.45 -8.5 -14.45 -6.15 -11.15 -3.55 -12.95 -0.25 -13.35 L1.65 -13.45 5.85 -12.8 Q7.2 -14.4 9.9 -15.5 M0.4 -8.6 Q-1.35 -8.4 -2.6 -7.65 L-5.35 -5.1 -9.85 -0.2 -9.95 -6.6 Q-10.05 -7.8 -10.45 -8.45 -11.3 -9.7 -13.65 -9.7 -15.4 -9.7 -17.1 -8.9 -18.75 -8.15 -19.3 -7.1 -19.9 -5.9 -18.4 -4.3 L-17.95 -3.85 -21.8 -0.65 -22.1 -0.95 -22.25 -1.0 -23.1 -0.65 -24.0 0.35 Q-24.55 1.5 -24.15 2.15 L-23.4 3.05 -27.35 6.0 -27.65 5.8 -27.15 6.45 -31.05 9.5 -31.95 8.55 Q-32.7 8.05 -33.95 8.05 -36.0 8.05 -38.25 9.2 -40.5 10.3 -41.2 11.7 -42.2 13.65 -40.4 17.15 -38.7 20.3 -36.3 22.15 L-39.25 26.05 -41.1 25.85 Q-42.05 26.15 -42.55 27.05 -43.2 28.2 -42.95 29.0 -42.65 29.8 -40.95 31.45 L-38.9 33.45 -42.75 35.9 -42.6 37.05 Q-42.25 38.85 -41.25 40.7 L-32.95 42.3 Q-28.7 43.6 -21.65 44.1 L-13.8 44.35 -2.1 43.9 9.6 43.0 21.0 42.1 29.9 41.2 Q34.7 40.35 38.35 38.4 L41.45 36.3 43.65 34.05 43.6 34.0 39.1 32.55 42.9 29.9 Q44.8 28.65 44.45 27.55 44.15 26.85 43.25 26.35 42.2 25.8 40.95 25.8 L40.2 25.85 38.3 21.5 38.9 21.0 Q38.8 20.15 36.3 18.85 33.65 17.5 31.55 17.5 L31.1 17.55 28.6 13.35 Q29.65 12.85 30.7 11.65 31.8 10.35 32.05 9.25 32.35 8.0 31.9 7.4 31.4 6.65 29.6 6.0 L25.6 4.65 28.75 2.05 31.15 0.5 32.95 -0.65 Q33.6 -1.2 33.75 -1.95 34.0 -2.95 33.55 -4.75 33.15 -6.55 32.5 -7.3 31.75 -8.2 30.45 -8.75 29.1 -9.3 27.75 -9.3 25.3 -9.3 24.45 -7.6 L24.05 -6.5 19.1 -7.95 19.45 -9.0 Q19.5 -9.65 19.05 -10.2 18.35 -10.95 16.85 -11.45 L14.25 -11.8 11.8 -11.1 Q10.25 -10.45 9.9 -9.9 L10.55 -8.8 6.15 -6.4 Q5.5 -7.05 5.2 -7.75 4.1 -8.7 1.65 -8.7 L0.4 -8.6" fill="#5c7821" fill-rule="evenodd" stroke="none"/>
    <path d="M21.05 -0.25 Q26.0 -0.5 22.8 3.4 22.25 3.6 22.2 4.05 22.1 4.55 22.6 4.85 26.25 7.25 24.5 9.85 22.9 12.3 18.95 12.65 18.25 12.7 18.15 13.35 18.05 14.0 18.75 14.2 23.4 15.7 25.7 19.05 28.3 22.95 23.45 25.4 22.8 25.75 23.1 26.4 23.4 27.05 24.1 26.85 L31.05 26.5 Q33.05 26.55 35.1 27.2 37.8 28.0 33.25 30.15 32.85 30.35 32.85 30.85 32.8 31.35 33.25 31.5 36.85 32.95 38.15 35.7 39.3 38.3 38.1 41.2 34.45 42.85 29.85 43.6 L21.2 44.45 -0.3 46.2 Q-13.0 47.05 -21.85 46.45 -29.1 46.0 -33.8 44.55 L-35.25 44.25 -35.3 43.75 Q-35.55 42.5 -37.1 40.2 L-38.7 37.9 Q-39.45 36.45 -37.65 36.4 -37.15 36.35 -36.9 35.95 -36.65 35.55 -36.9 35.2 -38.7 32.35 -37.8 30.0 -36.8 27.35 -32.95 28.7 -32.4 28.9 -32.1 28.45 -31.75 28.0 -32.0 27.55 -34.55 22.3 -33.75 17.4 -32.7 11.45 -26.05 13.4 -25.6 13.5 -25.2 13.2 -24.8 12.85 -24.95 12.4 L-21.35 10.15 -20.35 10.1 Q-19.85 9.75 -20.05 9.25 -20.9 7.2 -20.1 5.7 -19.15 3.95 -16.2 4.95 -15.75 5.1 -15.4 4.75 -15.05 4.4 -15.15 3.95 -16.1 -0.65 -10.5 -1.2 -5.3 -1.7 -2.15 1.05 L-1.1 1.15 Q-0.55 0.85 -0.7 0.25 -1.4 -2.3 2.2 -1.65 5.65 -1.0 6.65 0.35 6.9 0.7 7.3 0.75 L8.05 0.5 Q10.4 -2.25 13.7 -3.0 17.5 -3.85 17.25 0.5 17.2 1.05 17.75 1.2 L18.7 1.05 21.05 -0.25" fill="#a9c83b" fill-rule="evenodd" stroke="none"/>
    <path d="M23.05 4.15 Q26.55 6.5 25.75 9.2 25.3 10.8 23.4 12.0 21.5 13.2 19.05 13.4 22.1 14.4 24.5 16.55 27.2 18.9 27.4 21.15 27.7 24.15 23.85 26.1 L28.45 25.6 31.15 25.7 35.4 26.45 Q36.85 26.9 36.95 27.85 37.1 29.2 33.75 30.8 L33.7 30.85 Q37.45 32.35 38.85 35.25 40.3 38.15 38.9 41.5 L38.8 41.8 38.5 41.95 Q34.7 43.65 29.85 44.45 L21.25 45.25 9.9 46.15 -13.8 47.5 -21.9 47.25 Q-29.45 46.75 -34.05 45.3 L-36.1 44.9 -36.1 44.3 -36.15 43.9 Q-36.45 42.6 -37.8 40.65 L-38.3 40.0 -39.5 38.2 Q-40.0 37.2 -39.65 36.5 -39.15 35.6 -37.7 35.6 -38.7 33.95 -38.9 32.15 -39.1 30.3 -38.3 29.1 -37.6 27.9 -36.15 27.6 L-32.8 27.9 -32.8 27.85 Q-34.25 24.8 -34.65 21.1 -35.1 16.65 -33.45 14.3 -31.1 11.1 -25.8 12.6 L-26.0 12.1 -21.4 9.25 -20.95 9.45 -20.9 9.45 Q-21.35 8.3 -21.3 7.15 -21.3 5.85 -20.65 5.0 -19.8 3.8 -18.05 3.8 L-16.0 4.15 -16.0 4.1 Q-16.55 1.55 -15.05 -0.1 -13.25 -2.05 -9.45 -2.05 L-5.0 -1.35 Q-2.85 -0.65 -1.55 0.45 -1.9 -0.9 -1.2 -1.7 -0.5 -2.55 1.05 -2.55 2.6 -2.55 4.7 -1.75 6.75 -0.95 7.4 -0.1 L7.4 -0.05 Q8.75 -1.55 10.8 -2.7 13.0 -3.9 14.75 -3.9 16.25 -3.9 17.05 -3.05 18.25 -2.0 18.1 0.4 L18.25 0.35 20.8 -1.05 21.55 -1.05 Q24.0 -1.05 24.65 0.15 25.4 1.4 23.5 3.9 L23.3 4.1 23.05 4.15 M21.3 0.55 L19.2 1.7 18.0 2.05 Q17.25 2.0 16.8 1.55 16.35 1.1 16.35 0.45 16.5 -1.3 15.8 -2.0 15.35 -2.35 14.75 -2.35 13.45 -2.35 11.55 -1.25 9.75 -0.25 8.7 1.0 8.25 1.55 7.5 1.55 6.55 1.55 5.95 0.8 5.6 0.35 4.0 -0.3 L1.05 -0.95 0.15 -0.75 Q0.0 -0.5 0.15 0.1 0.3 0.85 -0.15 1.45 -0.6 2.0 -1.4 2.05 -2.2 2.1 -2.75 1.6 -3.8 0.7 -5.65 0.15 L-9.45 -0.45 Q-12.45 -0.45 -13.7 0.9 -14.7 1.95 -14.3 3.8 -14.15 4.6 -14.7 5.25 -15.45 6.0 -16.5 5.7 L-18.05 5.4 Q-18.85 5.4 -19.25 5.9 -19.6 6.35 -19.6 7.25 L-19.25 8.95 Q-18.95 9.7 -19.4 10.3 -20.1 11.15 -21.2 11.0 L-24.05 12.8 -24.35 13.5 Q-25.15 14.5 -26.3 14.15 -30.4 12.95 -31.95 15.2 -33.35 17.15 -32.9 21.05 -32.55 24.45 -31.2 27.2 -30.8 28.05 -31.35 28.85 -32.05 29.85 -33.3 29.45 -36.0 28.5 -36.8 29.85 -37.35 30.7 -37.15 32.1 -36.95 33.55 -36.15 34.8 -35.65 35.55 -36.15 36.35 -36.55 37.15 -37.6 37.15 L-38.05 37.25 -36.9 39.1 -36.35 39.8 Q-34.7 42.25 -34.45 43.6 L-33.5 43.8 Q-29.3 45.15 -21.8 45.65 L-13.8 45.95 -2.0 45.5 9.75 44.6 21.15 43.7 29.3 42.9 Q33.85 42.2 37.4 40.65 38.4 37.95 37.2 35.7 36.0 33.45 32.9 32.25 32.0 31.9 32.0 30.95 31.95 29.95 32.85 29.45 L32.95 29.4 35.15 28.05 34.85 27.95 31.0 27.3 28.45 27.2 24.35 27.6 23.0 27.45 Q22.4 27.1 22.2 26.45 21.85 25.3 23.05 24.7 25.85 23.25 25.7 21.3 25.5 19.5 23.2 17.55 21.0 15.75 18.45 14.95 17.15 14.45 17.25 13.25 17.35 12.7 17.8 12.3 18.25 11.9 18.9 11.85 20.8 11.65 22.25 10.8 23.75 9.9 24.1 8.8 24.55 7.2 22.1 5.5 21.15 4.95 21.3 3.95 21.45 3.2 22.2 2.8 23.35 1.35 23.15 0.85 L21.3 0.55" fill="#bad36d" fill-rule="evenodd" stroke="none"/>
    <path d="M0.1 -11.0 L4.0 -10.85 Q6.25 -10.35 7.45 -9.0 6.65 -11.0 9.55 -12.7 11.9 -14.05 14.05 -14.15 17.0 -14.35 19.6 -12.85 22.65 -11.15 21.95 -8.3 23.4 -11.75 27.95 -11.7 32.25 -11.6 34.55 -8.75 35.55 -7.55 36.1 -5.25 36.65 -3.0 36.3 -1.5 35.85 0.4 33.85 1.7 L30.5 3.8 Q32.8 4.55 33.85 5.75 35.2 7.25 34.6 9.75 34.2 11.4 32.75 13.1 31.35 14.65 29.85 15.45 32.95 13.9 38.5 17.35 44.15 20.85 39.75 23.5 44.1 22.8 46.35 25.8 48.7 28.85 44.5 31.8 47.85 32.9 45.4 35.95 43.7 38.0 40.35 40.05 40.95 37.15 39.65 34.7 38.4 32.3 35.5 30.8 37.45 29.6 37.85 28.45 38.45 27.0 36.3 25.95 32.85 24.25 27.05 24.8 29.35 22.15 27.35 18.7 25.6 15.7 21.6 13.65 25.35 12.45 26.4 9.75 27.55 6.85 24.6 4.35 25.9 3.6 26.2 2.5 26.5 1.3 25.65 -0.1 24.6 -1.75 22.55 -1.85 20.85 -1.95 18.95 -1.0 18.5 -5.05 14.3 -4.65 10.5 -4.3 7.4 -1.2 5.1 -3.05 1.65 -3.25 -2.0 -3.45 -2.5 -1.15 -6.85 -3.6 -11.8 -2.5 -17.1 -1.4 -16.95 3.15 -19.45 2.75 -21.0 4.35 -22.5 5.9 -22.15 8.25 -24.15 7.95 -25.6 8.85 -27.1 9.8 -26.95 11.55 -33.4 10.3 -35.05 16.0 -36.4 20.75 -34.15 26.75 -37.85 26.15 -39.2 29.0 -40.5 31.65 -38.95 34.95 -41.65 35.5 -39.85 38.65 -37.35 43.15 -37.35 43.85 L-42.15 42.95 Q-42.15 43.45 -42.5 43.4 -44.35 41.05 -45.15 37.5 -45.6 35.55 -45.0 34.65 L-42.85 33.05 Q-44.85 31.1 -45.35 29.85 -46.1 28.05 -44.9 25.95 -43.9 24.15 -41.85 23.55 -39.8 22.95 -37.95 24.0 -40.85 21.8 -42.75 18.1 -45.05 13.7 -43.55 10.7 -41.95 7.65 -37.3 6.2 -32.4 4.7 -29.9 7.05 -31.0 5.4 -29.3 3.95 -27.65 2.55 -26.15 3.7 -28.35 0.95 -25.35 -2.0 -22.55 -4.65 -20.35 -2.7 -22.9 -5.4 -21.75 -8.0 -20.6 -10.4 -17.05 -11.55 -13.5 -12.7 -10.65 -11.55 -7.45 -10.3 -7.35 -6.6 L-4.05 -9.6 Q-2.35 -10.7 0.1 -11.0" fill="#8fc73b" fill-rule="evenodd" stroke="none"/>
  </g>
</svg>
