<?xml version="1.0" encoding="UTF-8" standalone="no"?>
<svg xmlns:xlink="http://www.w3.org/1999/xlink" height="36.15px" width="118.55px" xmlns="http://www.w3.org/2000/svg">
  <g transform="matrix(1.0, 0.0, 0.0, 1.0, 0.0, 0.0)">
    <path d="M106.05 22.4 Q107.25 25.8 103.95 29.2 102.4 30.75 99.95 31.75 L95.75 33.05 93.35 33.7 Q85.15 36.15 80.45 36.15 75.05 36.15 72.55 33.15 L72.3 32.85 Q66.95 32.55 52.0 32.45 L42.8 32.4 38.75 32.45 35.05 32.55 Q30.3 32.55 26.95 31.55 24.5 30.75 23.2 29.95 21.45 28.8 21.1 27.05 20.75 25.65 21.4 24.3 12.0 23.55 7.95 22.55 2.1 21.1 0.55 18.05 -0.5 15.95 0.5 13.75 1.75 11.15 6.55 9.0 13.0 6.15 27.65 3.1 35.5 1.45 42.3 0.8 L59.3 0.0 60.5 0.0 Q72.95 0.0 90.7 2.15 111.55 4.7 116.05 8.0 119.0 10.2 118.45 13.15 118.05 15.55 115.05 17.6 112.05 19.6 105.75 21.75 L106.05 22.4 M98.05 23.8 L97.55 17.85 98.35 17.65 Q108.9 14.6 111.8 12.5 107.25 10.3 89.75 8.15 72.6 6.05 60.5 6.05 L59.35 6.05 42.95 6.8 Q36.55 7.45 28.85 9.05 10.8 12.85 6.65 15.8 9.35 17.2 21.95 18.25 L28.3 18.9 34.0 20.1 28.15 25.55 28.75 25.75 35.05 26.45 52.0 26.4 Q69.3 26.5 76.1 27.0 L82.35 27.45 79.95 30.05 80.45 30.05 Q84.0 30.05 91.65 27.9 L94.25 27.2 97.3 26.3 Q98.85 25.7 99.6 24.95 L100.1 24.35 Q99.35 23.95 98.05 23.8" fill="#53a8f6" fill-rule="evenodd" stroke="none"/>
  </g>
</svg>
