<?xml version="1.0" encoding="UTF-8" standalone="no"?>
<svg xmlns:xlink="http://www.w3.org/1999/xlink" height="31.0px" width="112.5px" xmlns="http://www.w3.org/2000/svg">
  <g transform="matrix(1.0, 0.0, 0.0, 1.0, 56.2, -31.6)">
    <path d="M0.1 32.55 Q12.05 32.4 30.65 34.6 51.1 37.05 55.05 39.95 58.9 42.75 50.7 46.4 47.15 48.0 39.15 50.3 42.65 50.75 43.7 52.45 44.85 54.25 42.55 56.55 41.2 57.9 38.7 58.75 L34.4 60.0 Q27.3 61.95 24.65 62.3 17.8 63.3 15.6 60.7 L16.6 59.55 0.3 59.0 -16.4 58.85 -24.05 59.0 Q-28.6 59.0 -31.4 58.15 -35.55 56.85 -35.2 55.35 -35.0 54.55 -31.6 51.4 L-44.6 50.15 Q-54.6 48.95 -56.0 46.15 -58.45 41.3 -31.0 35.6 -23.2 34.0 -16.9 33.35 L0.1 32.55" fill="#bfe3f2" fill-rule="evenodd" stroke="none"/>
    <path d="M3.6 31.6 L24.9 32.9 Q46.15 35.25 46.15 40.35 46.15 45.8 29.55 49.5 16.1 52.5 4.6 52.5 -10.55 52.5 -24.7 50.5 -45.2 47.55 -42.45 41.85 -39.6 36.0 -17.7 33.2 L3.6 31.6" fill="#94d6f0" fill-rule="evenodd" stroke="none"/>
    <path d="M1.4 33.6 L16.95 34.6 Q32.45 36.4 32.45 40.35 32.45 44.35 17.8 47.1 L2.85 49.05 -15.95 47.85 Q-34.1 45.8 -32.15 41.55 -30.1 37.0 -14.15 34.85 L1.4 33.6" fill="#98ccec" fill-rule="evenodd" stroke="none"/>
    <path d="M33.75 40.35 Q33.75 45.35 18.45 48.35 10.75 49.85 2.85 50.35 L-13.8 49.4 Q-30.7 47.7 -33.15 43.95 -34.05 42.5 -33.35 41.0 -31.1 36.1 -15.85 33.75 -7.2 32.45 1.35 32.3 L17.05 33.3 Q25.6 34.3 29.7 36.0 33.75 37.75 33.75 40.35 M1.4 34.9 Q-9.05 35.15 -18.2 36.8 -29.5 38.85 -30.95 42.05 L-30.95 42.55 Q-29.45 44.9 -16.6 46.45 L2.85 47.75 Q10.1 47.4 19.55 45.35 31.15 42.9 31.15 40.35 31.15 39.35 28.2 38.2 24.35 36.75 16.8 35.9 L1.4 34.9" fill="#ffffff" fill-rule="evenodd" stroke="none"/>
  </g>
</svg>
