<?xml version="1.0" encoding="UTF-8" standalone="no"?>
<svg xmlns:xlink="http://www.w3.org/1999/xlink" height="123.75px" width="75.5px" xmlns="http://www.w3.org/2000/svg">
  <g transform="matrix(1.0, 0.0, 0.0, 1.0, 23.9, 81.4)">
    <path d="M18.15 -8.1 L20.5 -10.4 Q21.25 -10.55 24.3 -8.85 L25.05 -5.6 28.5 -3.7 28.5 -2.55 Q28.65 -1.3 29.25 -0.85 30.2 -0.1 31.0 5.25 L26.35 11.2 Q21.5 17.8 20.7 20.9 19.85 24.0 23.25 27.8 24.95 29.7 26.8 31.0 L27.95 34.25 22.0 36.35 15.35 39.8 12.3 40.05 9.25 39.6 3.6 38.8 -1.05 38.25 0.85 36.3 Q2.3 34.25 -0.1 33.85 L-12.3 34.25 Q-6.6 27.4 -4.9 27.0 -3.15 26.6 2.95 20.7 L18.6 3.55 Q15.7 0.1 15.35 -0.85 11.15 0.7 5.95 -0.95 3.35 -1.8 1.6 -2.95 1.1 -2.0 0.1 -1.25 -1.9 0.2 -4.3 -0.85 -10.75 -3.95 -8.05 -7.4 -6.7 -9.1 -4.1 -10.2 -2.45 -11.75 2.3 -9.75 4.7 -8.8 6.75 -7.5 L7.8 -6.55 Q9.05 -5.55 10.0 -5.45 L15.55 -5.8 Q16.15 -5.9 18.15 -8.1" fill="#974c27" fill-rule="evenodd" stroke="none"/>
    <path d="M7.95 -9.45 L8.25 -9.3 8.45 -9.05 Q9.6 -7.8 10.3 -7.7 L14.85 -8.0 16.8 -10.05 18.5 -11.8 Q19.2 -12.45 19.95 -12.6 L20.65 -12.7 Q22.2 -12.7 25.45 -10.85 L26.3 -10.35 27.05 -7.15 30.9 -5.0 30.8 -3.5 30.85 -2.5 Q32.4 -1.1 33.25 4.95 L33.4 5.95 32.75 6.75 Q30.0 10.0 27.3 13.85 23.55 19.1 22.9 21.5 22.45 23.2 24.5 25.75 26.1 27.75 28.1 29.1 L28.7 29.55 30.85 35.65 22.95 38.45 Q18.1 41.1 16.25 41.9 L13.25 42.35 8.6 41.8 -1.3 40.55 -6.85 39.95 -2.0 36.0 -3.3 36.0 -12.05 36.55 -17.75 37.15 -14.1 32.8 Q-7.9 25.35 -5.45 24.8 -3.85 24.05 1.3 19.1 L15.55 3.45 14.3 1.85 11.1 2.2 Q6.85 2.2 2.2 0.0 0.1 1.9 -2.4 1.9 L-5.25 1.25 Q-11.2 -1.6 -11.15 -5.55 -11.1 -7.95 -8.75 -10.0 L-5.35 -12.15 Q-4.05 -13.15 -2.05 -13.15 0.5 -13.15 4.25 -11.45 6.5 -10.4 7.95 -9.45 M21.6 3.6 L4.55 22.35 Q-1.75 28.45 -4.2 29.2 L-6.75 31.5 -3.3 31.4 0.25 31.6 Q3.0 32.0 3.55 34.15 3.85 35.25 3.35 36.45 L9.85 37.4 13.25 37.75 14.45 37.65 20.95 34.3 25.0 32.85 24.85 32.45 Q22.05 30.25 20.3 27.85 17.5 23.9 18.45 20.3 19.8 15.3 28.55 4.6 28.05 1.7 27.6 0.75 26.45 -0.35 26.25 -2.35 L23.05 -4.1 22.3 -7.3 21.1 -7.9 20.2 -6.95 Q17.8 -4.3 16.65 -3.75 L17.45 -1.7 Q18.05 -0.65 20.35 2.05 L21.6 3.6 M14.55 -3.0 L16.1 -3.6 15.9 -3.55 9.7 -3.15 Q7.45 -3.45 5.3 -5.75 L1.65 -7.6 Q-0.7 -8.55 -2.05 -8.55 L-2.55 -8.5 -2.85 -8.2 -3.25 -8.1 -5.5 -6.75 Q-6.55 -5.9 -6.55 -5.45 L-5.9 -4.55 -3.3 -2.9 -2.4 -2.7 Q-1.2 -2.7 -0.4 -4.05 L0.8 -6.2 2.85 -4.85 Q3.85 -4.25 5.35 -3.6 8.4 -2.4 11.1 -2.4 13.0 -2.4 14.55 -3.0" fill="#5e2516" fill-rule="evenodd" stroke="none"/>
    <path d="M18.15 -8.1 L20.5 -10.4 Q21.25 -10.55 24.3 -8.85 L25.05 -5.6 28.5 -3.7 28.5 -2.55 Q28.65 -1.3 29.25 -0.85 30.2 -0.1 31.0 5.25 L26.35 11.2 Q21.5 17.8 20.7 20.9 19.85 24.0 23.25 27.8 24.95 29.7 26.8 31.0 L27.95 34.25 22.0 36.35 15.35 39.8 12.3 40.05 9.25 39.6 3.6 38.8 -1.05 38.25 0.85 36.3 Q2.3 34.25 -0.1 33.85 L-12.3 34.25 Q-6.6 27.4 -4.9 27.0 -3.15 26.6 2.95 20.7 L18.6 3.55 Q15.7 0.1 15.35 -0.85 11.15 0.7 5.95 -0.95 3.35 -1.8 1.6 -2.95 1.1 -2.0 0.1 -1.25 -1.9 0.2 -4.3 -0.85 -10.75 -3.95 -8.05 -7.4 -6.7 -9.1 -4.1 -10.2 -2.45 -11.75 2.3 -9.75 4.7 -8.8 6.75 -7.5 L7.8 -6.55 Q9.05 -5.55 10.0 -5.45 L15.55 -5.8 Q16.15 -5.9 18.15 -8.1" fill="#974c27" fill-rule="evenodd" stroke="none"/>
    <path d="M18.15 -8.1 L20.5 -10.4 Q21.25 -10.55 24.3 -8.85 L25.05 -5.6 25.9 -5.15 Q24.8 -3.95 23.9 -3.6 L20.85 -3.35 Q19.1 -3.65 18.0 -4.5 L17.05 -4.7 13.35 -5.5 15.55 -5.8 Q16.15 -5.9 18.15 -8.1" fill="#b9743e" fill-rule="evenodd" stroke="none"/>
    <path d="M22.0 -0.75 L24.0 -0.95 Q25.2 -1.1 26.35 -2.0 L28.2 -3.9 28.5 -3.7 28.5 -2.55 Q28.65 -1.3 29.25 -0.85 30.2 -0.1 31.0 5.25 L26.35 11.2 Q21.5 17.8 20.7 20.9 19.85 24.0 23.25 27.8 24.95 29.7 26.8 31.0 L27.95 34.25 22.0 36.35 15.35 39.8 12.3 40.05 9.25 39.6 3.6 38.8 -1.05 38.25 0.85 36.3 Q2.3 34.25 -0.1 33.85 L-4.35 33.7 Q-2.9 31.95 0.1 29.35 L5.75 24.25 7.45 23.5 Q7.1 25.6 7.7 27.3 8.0 28.1 8.8 28.2 9.6 28.3 10.1 27.6 10.75 26.7 11.3 26.5 11.85 26.35 12.95 26.75 13.5 26.95 14.1 26.55 14.65 26.1 14.6 25.5 L13.75 20.3 Q16.4 18.65 18.35 16.7 20.8 14.3 21.95 11.75 23.4 8.65 22.7 5.85 L22.95 4.0 Q23.1 1.3 22.0 -0.75" fill="#b9743e" fill-rule="evenodd" stroke="none"/>
    <path d="M10.95 -76.1 Q10.95 -75.8 11.1 -75.65 10.7 -76.05 9.0 -76.55 L6.35 -77.05 Q4.8 -76.85 3.35 -76.05 1.8 -75.25 1.75 -74.4 L-1.55 -73.9 -2.25 -74.5 -3.55 -74.8 Q-4.7 -74.8 -4.9 -74.15 L-5.3 -73.05 -8.9 -73.05 -10.4 -72.8 -10.45 -70.1 -11.5 -70.5 -12.9 -67.3 Q-13.4 -67.3 -14.4 -66.5 L-15.55 -65.35 -15.75 -65.95 -16.3 -66.45 -15.95 -63.05 -16.2 -62.75 -17.45 -59.8 -19.25 -62.45 -19.45 -62.8 Q-19.5 -61.45 -19.1 -60.5 -18.15 -58.5 -15.4 -57.5 L-13.3 -58.55 -13.2 -54.65 -13.65 -54.15 -13.6 -53.95 -13.05 -53.5 -13.0 -52.8 Q-12.45 -47.7 -12.85 -44.35 -12.95 -43.45 -11.5 -41.3 -10.05 -39.15 -7.85 -36.95 L-4.35 -33.5 -4.95 -33.55 -4.95 -30.65 -5.9 -30.2 -6.6 -29.7 -5.3 -29.65 -8.3 -26.95 0.95 -31.2 0.6 -25.0 -7.65 -17.15 -8.9 -17.0 -10.45 -17.15 -11.25 -17.2 -13.45 -17.0 -13.6 -17.0 -14.9 -16.65 -15.55 -16.4 -15.65 -16.4 -16.15 -16.1 -17.1 -17.6 -16.25 -16.05 -16.8 -15.75 -16.9 -15.7 -17.35 -15.3 -17.45 -15.25 -17.85 -14.8 -19.25 -15.85 -17.95 -14.75 -18.35 -14.2 -19.1 -12.65 -19.1 -12.55 -19.35 -11.7 -19.35 -11.5 -19.5 -10.5 -19.55 -9.1 Q-19.4 -2.65 -15.25 1.25 -13.1 3.2 -10.8 4.0 L-8.35 4.75 -10.55 7.6 -10.6 7.65 -11.0 8.4 -11.1 8.55 -11.3 9.0 -12.95 8.4 -11.35 9.1 -11.55 9.5 -11.6 9.7 -11.8 10.25 -11.85 10.35 -12.25 11.85 -12.3 12.35 -12.35 12.55 -12.4 13.25 -12.45 13.35 -12.4 15.1 -12.3 15.85 -12.3 15.95 -11.8 17.85 -11.75 17.95 -11.6 18.35 -11.4 15.2 -9.3 16.15 -9.3 9.7 -5.95 6.1 -11.7 -4.4 -11.45 -5.15 Q-10.8 -7.15 -9.7 -8.75 -7.85 -11.55 -5.6 -11.55 -3.55 -11.55 -1.3 -9.75 L1.0 -7.4 1.3 -7.05 2.8 3.05 6.5 9.55 6.3 8.35 10.35 8.9 4.9 2.05 4.6 -7.15 11.7 -12.85 11.75 -12.95 12.3 -13.6 14.75 -13.55 11.8 -14.7 13.3 -16.55 Q14.85 -18.45 15.6 -22.25 L15.6 -23.95 15.55 -24.3 15.65 -24.6 16.0 -26.9 16.5 -30.45 18.8 -28.05 20.95 -27.6 18.8 -30.2 18.85 -31.15 18.6 -32.65 19.0 -32.65 19.15 -33.9 27.0 -34.2 29.6 -34.35 30.6 -35.15 Q31.25 -36.0 31.4 -36.8 31.5 -37.65 30.45 -38.15 L27.9 -38.05 26.4 -37.6 13.95 -36.05 14.05 -36.9 14.0 -36.9 Q13.1 -37.55 11.9 -37.7 L9.2 -38.0 10.65 -40.35 11.8 -42.75 Q13.0 -45.65 14.0 -46.8 14.85 -47.85 16.8 -48.5 17.7 -48.8 18.0 -49.0 18.95 -49.65 19.15 -51.2 L19.2 -52.3 18.75 -52.3 17.6 -54.15 17.4 -53.9 16.7 -54.15 16.1 -55.2 15.15 -61.5 19.45 -56.55 19.4 -56.45 19.45 -56.35 19.15 -56.15 19.45 -56.2 19.15 -56.1 19.1 -56.05 19.9 -55.9 20.0 -55.95 20.65 -56.55 20.95 -57.2 18.2 -60.3 20.95 -60.1 19.95 -60.85 21.8 -62.3 Q22.5 -62.8 22.25 -63.65 L21.65 -64.5 Q21.15 -64.85 20.55 -64.8 L15.05 -63.95 19.05 -67.75 19.4 -68.15 18.35 -68.4 17.6 -68.25 15.8 -71.15 Q16.25 -71.55 16.05 -72.15 L15.0 -73.4 Q14.25 -73.95 13.55 -73.95 L13.05 -73.85 11.05 -76.6 10.95 -76.1 M19.6 -71.7 Q21.95 -71.25 22.7 -69.35 23.05 -68.7 22.9 -67.8 24.85 -66.8 25.55 -64.75 26.25 -62.55 25.05 -60.8 25.5 -59.65 25.2 -58.5 24.9 -57.7 24.4 -57.3 L24.35 -56.45 Q23.95 -54.75 22.55 -53.5 22.75 -52.75 22.6 -50.75 22.2 -47.65 19.95 -46.15 L17.95 -45.2 16.7 -44.65 Q15.9 -43.65 15.0 -41.45 L14.65 -40.5 15.75 -39.95 Q16.45 -40.6 17.4 -40.6 L18.4 -40.4 Q19.45 -41.05 20.65 -40.85 L21.65 -40.5 25.95 -41.05 26.6 -41.3 Q28.3 -41.9 29.35 -41.9 30.75 -41.9 32.0 -41.25 33.35 -40.6 34.2 -39.35 L35.95 -41.15 Q38.95 -43.9 41.65 -43.75 L41.7 -43.75 42.55 -43.6 42.7 -43.55 45.4 -41.55 45.6 -41.25 46.6 -39.35 46.9 -38.5 46.9 -38.4 47.05 -37.85 47.05 -36.65 47.1 -35.7 47.9 -34.55 Q49.0 -33.2 48.7 -31.85 L49.75 -31.15 50.7 -30.7 50.7 -29.65 Q50.7 -27.5 46.35 -26.55 L46.0 -26.5 42.0 -27.3 41.05 -29.3 39.95 -29.0 39.45 -29.0 38.9 -29.3 38.4 -29.85 37.35 -23.35 37.35 -23.25 36.7 -20.85 36.15 -19.7 35.65 -18.9 35.5 -18.75 35.05 -18.1 34.9 -18.0 34.35 -17.3 34.3 -17.25 Q31.15 -13.75 27.35 -11.75 26.0 -11.0 25.2 -10.8 22.8 -10.05 17.0 -10.05 L13.8 -10.1 8.15 -5.5 8.35 0.75 13.7 7.55 13.75 7.65 13.95 7.95 14.25 8.55 Q14.75 10.05 13.5 11.9 L12.9 12.7 10.25 12.35 Q10.05 15.1 8.3 15.55 L7.6 15.6 Q5.8 15.6 4.8 13.65 L-0.5 4.2 -2.0 -5.6 -3.8 -7.25 Q-4.9 -8.1 -5.6 -8.1 L-6.65 -7.1 -7.9 -4.7 -1.7 6.65 -5.85 11.05 -5.85 15.85 -3.8 22.55 -8.25 20.45 -8.4 22.05 Q-8.6 22.8 -9.2 23.3 -9.85 23.9 -10.75 23.9 -12.25 23.9 -13.75 21.8 L-14.55 20.25 -15.0 19.1 -15.05 19.0 -15.4 18.0 -15.7 16.65 -15.7 16.45 -15.85 15.55 -15.8 12.1 -15.6 11.15 -15.6 10.95 -15.15 9.3 -15.05 9.1 -14.75 8.2 -13.85 6.4 Q-17.3 4.5 -19.55 1.55 -22.85 -2.9 -23.0 -9.05 L-22.8 -12.15 -22.75 -12.4 -21.95 -14.85 -21.35 -15.95 -21.2 -16.1 -20.55 -17.0 -19.75 -17.85 -19.65 -17.9 -17.95 -19.1 -17.8 -19.15 -16.95 -19.6 -16.0 -19.95 -14.15 -20.4 -14.1 -20.4 -11.25 -20.65 -9.7 -20.6 -9.45 -20.5 -9.25 -20.45 -4.55 -24.85 -8.5 -23.05 -12.65 -22.8 -13.2 -23.6 Q-14.3 -25.3 -14.0 -26.95 -13.6 -28.75 -11.6 -29.05 L-11.55 -29.3 -11.5 -29.9 -10.4 -30.95 -10.65 -31.15 Q-11.85 -32.15 -11.95 -33.75 -11.95 -34.85 -11.45 -35.7 -16.65 -41.4 -16.3 -44.8 -16.0 -47.0 -16.4 -51.95 -17.25 -53.05 -17.1 -54.45 -20.8 -56.0 -22.25 -59.05 -23.3 -61.3 -22.7 -64.85 L-22.15 -67.3 Q-21.95 -68.1 -21.35 -68.6 -20.75 -69.05 -19.95 -69.05 L-18.75 -68.8 -18.2 -68.5 -17.95 -67.95 -17.95 -67.9 -15.8 -69.75 Q-16.2 -70.65 -15.85 -71.85 -15.35 -73.65 -13.55 -74.2 -12.55 -76.55 -8.9 -76.55 L-7.55 -76.5 Q-6.15 -78.3 -3.55 -78.3 -1.95 -78.3 -0.4 -77.45 0.7 -78.7 2.65 -79.55 4.3 -80.3 5.9 -80.5 L6.35 -80.5 9.7 -79.95 Q13.15 -79.05 14.1 -77.4 15.75 -77.2 17.25 -76.05 18.75 -74.9 19.3 -73.35 L19.6 -71.7 M19.0 -21.6 Q18.4 -18.5 17.25 -16.35 L17.55 -16.3 18.75 -16.0 21.1 -15.85 21.55 -15.95 24.25 -17.15 28.6 -19.85 30.65 -21.55 30.95 -22.0 31.1 -22.35 31.55 -24.3 30.1 -22.0 27.05 -22.9 19.15 -24.45 19.1 -24.2 Q19.25 -23.05 19.0 -21.6 M32.95 -32.65 Q31.65 -31.2 30.2 -30.95 30.85 -29.6 30.75 -28.35 31.8 -27.8 32.05 -27.05 L32.95 -32.65 M27.3 -28.8 Q27.2 -29.55 26.2 -30.85 L25.85 -31.25 24.8 -32.25 Q24.8 -30.55 25.25 -29.45 L26.35 -27.05 24.0 -27.05 27.25 -26.4 26.55 -28.15 27.3 -28.8 M43.6 -37.5 L43.45 -37.8 43.45 -37.4 43.4 -37.15 42.4 -34.5 44.4 -30.35 44.95 -30.25 Q44.7 -30.5 44.6 -31.1 44.45 -31.9 45.1 -32.55 43.6 -34.45 43.65 -35.5 L43.55 -36.95 43.6 -37.2 43.6 -37.5" fill="#5d3812" fill-rule="evenodd" stroke="none"/>
    <path d="M10.95 -78.3 L13.4 -74.85 Q14.35 -74.9 15.45 -74.15 16.5 -73.45 16.85 -72.45 17.15 -71.7 16.85 -71.1 L18.0 -69.25 18.35 -69.25 Q19.3 -69.25 19.85 -68.85 L20.6 -68.4 19.65 -67.1 17.65 -65.2 20.4 -65.65 Q21.35 -65.8 22.1 -65.2 L23.05 -63.95 Q23.5 -62.45 22.35 -61.6 L21.4 -60.85 23.9 -59.05 20.25 -59.3 21.8 -57.5 21.8 -57.15 21.35 -56.05 20.4 -55.15 20.2 -55.1 20.0 -55.0 17.75 -55.45 19.25 -53.15 20.1 -53.1 20.0 -51.05 Q19.75 -49.15 18.5 -48.3 L17.1 -47.7 Q15.3 -47.05 14.65 -46.3 13.85 -45.3 12.6 -42.45 L11.4 -39.85 10.65 -38.7 12.0 -38.55 Q13.55 -38.3 14.55 -37.6 L14.95 -37.25 14.9 -37.05 26.3 -38.5 Q26.85 -38.55 27.6 -38.9 L29.35 -39.3 30.85 -38.95 Q32.4 -38.15 32.25 -36.65 32.1 -35.6 31.25 -34.55 30.45 -33.6 29.75 -33.5 L29.65 -33.5 27.05 -33.35 25.05 -33.25 26.45 -31.85 26.9 -31.35 Q28.0 -29.95 28.15 -28.95 L28.25 -28.5 27.6 -27.9 28.65 -25.25 23.85 -26.15 24.0 -27.9 25.0 -27.9 24.45 -29.1 Q23.95 -30.2 23.95 -32.25 L24.0 -33.2 19.95 -33.05 19.8 -31.8 19.65 -31.8 19.75 -31.2 19.7 -30.45 23.25 -26.3 18.4 -27.25 17.1 -28.55 16.5 -24.4 16.45 -24.25 16.5 -24.1 16.45 -22.1 Q15.7 -18.15 13.95 -16.0 L13.2 -15.05 15.05 -14.35 14.75 -12.65 12.7 -12.75 12.35 -12.25 12.25 -12.2 5.5 -6.75 5.75 1.7 12.35 10.0 7.35 9.35 7.35 9.4 5.75 10.0 1.95 3.35 0.45 -6.7 0.35 -6.85 Q-3.0 -10.7 -5.6 -10.7 -7.5 -10.7 -9.15 -8.0 -10.1 -6.5 -10.65 -4.85 L-10.75 -4.5 -4.9 6.25 -8.45 10.0 -8.45 17.5 -10.6 16.55 -10.75 18.45 -12.4 18.7 -12.9 17.3 -13.15 16.1 -13.15 16.0 -13.25 15.2 -13.3 15.05 -13.3 13.2 -13.2 12.45 -13.2 12.25 -13.1 11.65 -13.05 11.5 -12.9 10.8 -12.8 10.6 -12.45 9.55 -13.3 9.15 -12.6 7.55 -11.75 7.9 -11.55 7.6 -11.35 7.2 -9.85 5.2 -11.05 4.8 Q-13.55 4.0 -15.8 1.9 -20.25 -2.25 -20.4 -9.1 L-20.4 -10.4 -20.35 -10.55 -20.2 -11.65 -20.2 -11.85 -19.6 -13.75 -19.55 -13.8 -19.1 -14.55 -19.1 -14.6 -19.8 -15.2 -18.7 -16.55 -17.95 -15.95 -17.4 -16.35 -17.85 -17.2 -16.35 -18.05 -15.85 -17.25 -13.75 -17.85 -13.6 -17.85 -11.25 -18.05 -10.4 -18.0 -10.2 -18.0 -9.0 -17.85 -8.85 -17.85 -8.05 -18.0 -0.25 -25.35 0.0 -29.8 -7.95 -26.2 -8.85 -27.6 -7.4 -28.9 -8.95 -29.0 -6.3 -30.95 -5.8 -31.2 -5.8 -32.75 -6.6 -32.8 -8.65 -33.05 -9.4 -33.2 -9.3 -34.15 -9.1 -34.9 -6.75 -34.6 -8.5 -36.35 Q-10.7 -38.55 -12.15 -40.75 -13.85 -43.2 -13.7 -44.45 -13.3 -47.7 -13.9 -52.7 L-13.9 -53.05 -14.15 -53.3 Q-14.6 -53.75 -14.5 -54.2 L-14.5 -54.55 -14.05 -54.95 -14.15 -57.15 -15.35 -56.6 -15.65 -56.7 Q-18.85 -57.9 -19.9 -60.15 -20.35 -61.25 -20.3 -62.85 L-20.2 -65.95 -18.7 -63.2 -18.5 -62.95 -17.6 -61.6 -17.0 -63.1 -16.85 -63.35 -17.25 -67.35 -18.15 -66.3 -18.9 -67.9 -19.15 -68.0 -19.95 -68.2 Q-21.05 -68.2 -21.3 -67.1 L-21.35 -66.85 -21.85 -64.75 Q-22.35 -61.45 -21.45 -59.4 -20.2 -56.7 -16.75 -55.25 L-16.2 -55.05 -16.25 -54.4 Q-16.35 -53.3 -15.7 -52.45 L-15.55 -52.25 -15.55 -52.0 Q-15.1 -47.7 -15.4 -44.65 -15.8 -41.7 -10.85 -36.3 L-10.45 -35.85 -10.7 -35.35 Q-11.1 -34.45 -11.1 -33.8 -11.05 -32.65 -10.1 -31.8 L-9.05 -31.05 -10.4 -29.7 -10.65 -29.5 -10.75 -28.3 -11.45 -28.2 Q-13.0 -27.95 -13.15 -26.8 -13.4 -25.55 -12.45 -24.1 L-12.2 -23.7 -8.75 -23.9 -4.9 -25.65 -3.95 -24.25 -8.85 -19.6 -9.25 -19.55 -9.8 -19.7 -10.05 -19.75 -11.25 -19.8 -13.95 -19.55 -16.6 -18.8 -18.3 -17.9 -18.35 -17.8 -19.1 -17.25 -19.15 -17.2 -19.8 -16.5 -19.9 -16.4 -20.5 -15.65 -20.6 -15.5 -21.1 -14.6 -21.55 -13.45 -21.6 -13.35 -21.9 -12.2 -22.1 -10.75 -22.15 -9.05 Q-22.0 -3.2 -18.9 0.95 -16.75 3.8 -13.45 5.6 L-12.7 6.05 -13.35 7.2 -13.4 7.4 -13.95 8.55 -14.75 11.1 -14.75 11.3 -14.95 12.2 -15.0 13.05 -15.05 13.3 -15.0 15.45 -14.85 16.3 -14.85 16.5 -14.6 17.45 -14.55 17.75 -13.65 20.15 -13.05 21.25 -13.0 21.35 Q-11.8 23.05 -10.75 23.05 -9.65 23.05 -9.25 21.9 L-9.0 19.15 -5.2 20.95 -6.7 15.85 -6.7 10.7 -2.8 6.5 -8.9 -4.65 -8.75 -5.05 -7.7 -7.05 Q-6.55 -8.95 -5.6 -8.95 -4.45 -8.95 -2.9 -7.65 L-1.35 -6.15 -1.2 -5.95 0.3 3.95 5.55 13.2 Q6.35 14.75 7.6 14.75 L8.1 14.7 Q9.25 14.3 9.35 12.3 L9.4 11.4 12.5 11.8 12.8 11.4 Q13.8 9.95 13.4 8.85 L13.25 8.5 13.2 8.4 13.0 8.15 12.95 8.05 7.5 1.05 7.25 -5.95 13.5 -10.95 17.0 -10.9 24.95 -11.6 26.95 -12.5 Q30.5 -14.4 33.65 -17.8 L33.7 -17.9 34.25 -18.55 34.35 -18.65 35.4 -20.15 35.9 -21.2 36.5 -23.4 36.5 -23.55 37.55 -29.95 37.85 -32.2 39.1 -30.3 39.4 -30.05 39.7 -29.85 39.95 -29.85 40.65 -30.05 41.45 -30.5 42.6 -28.05 46.0 -27.35 46.15 -27.4 Q49.85 -28.15 49.85 -29.65 L49.85 -30.15 48.2 -31.1 47.7 -31.45 47.85 -32.05 Q48.1 -32.95 47.2 -34.05 L46.3 -35.3 46.25 -35.5 46.15 -36.7 46.2 -36.8 46.15 -37.7 46.1 -38.2 46.05 -38.3 45.45 -39.75 45.2 -40.2 45.15 -40.35 44.75 -40.95 42.3 -42.75 41.65 -42.85 41.55 -42.9 41.3 -42.9 Q39.15 -42.9 36.5 -40.55 L34.15 -37.85 33.45 -38.9 Q32.8 -39.95 31.6 -40.5 30.4 -41.05 29.35 -41.05 L26.95 -40.5 26.05 -40.2 21.5 -39.6 21.2 -39.75 20.5 -40.0 Q19.55 -40.15 18.9 -39.65 L18.5 -39.4 18.1 -39.55 17.6 -39.7 17.3 -39.7 Q16.85 -39.7 16.3 -39.3 L15.8 -38.85 14.3 -39.7 13.5 -40.05 14.2 -41.7 Q15.25 -44.2 16.0 -45.2 L17.65 -46.05 Q18.95 -46.5 19.45 -46.85 21.4 -48.2 21.7 -50.85 21.95 -52.35 21.7 -53.3 L21.55 -53.8 21.95 -54.15 Q23.15 -55.15 23.5 -56.65 L23.55 -57.65 23.8 -57.95 24.35 -58.8 Q24.6 -59.65 24.25 -60.45 L24.1 -60.85 24.35 -61.25 Q25.3 -62.75 24.7 -64.45 24.15 -66.2 22.5 -67.0 22.25 -67.1 21.95 -67.25 L22.05 -67.9 21.9 -69.05 Q21.3 -70.55 19.4 -70.85 L18.7 -71.05 18.75 -71.75 18.5 -73.05 Q18.0 -74.35 16.7 -75.4 15.4 -76.4 14.0 -76.55 L13.55 -76.6 13.35 -77.0 Q12.65 -78.25 9.85 -79.0 L6.3 -79.65 6.05 -79.65 Q4.5 -79.45 2.95 -78.75 1.25 -78.0 0.2 -76.9 L-0.25 -76.4 -0.85 -76.7 Q-2.1 -77.4 -3.55 -77.4 -5.8 -77.4 -6.85 -75.95 L-7.15 -75.6 -8.9 -75.65 Q-12.0 -75.65 -12.75 -73.85 L-12.9 -73.55 -13.25 -73.4 Q-14.65 -72.9 -15.0 -71.6 -15.3 -70.7 -15.0 -70.05 L-14.75 -69.4 -15.35 -69.0 -17.15 -67.5 -16.15 -67.3 -15.35 -66.85 -13.55 -68.05 -12.3 -70.85 -11.85 -70.6 -11.5 -71.4 -11.3 -71.35 -11.3 -72.65 -11.45 -72.95 -11.05 -73.4 Q-10.6 -73.95 -8.9 -73.95 L-5.9 -73.85 -5.75 -74.45 Q-5.25 -75.7 -3.55 -75.7 -2.15 -75.7 -1.2 -74.85 L1.1 -75.2 Q1.65 -76.2 3.3 -77.0 4.8 -77.75 6.25 -77.9 L6.35 -77.9 Q8.0 -77.9 10.3 -77.05 L10.95 -78.3 M13.55 -73.1 L12.85 -72.6 10.85 -75.4 10.5 -75.05 8.7 -75.75 6.4 -76.2 Q5.1 -76.0 3.85 -75.35 2.7 -74.75 2.6 -74.35 L2.55 -73.65 -2.1 -72.95 -2.35 -73.55 Q-2.75 -73.95 -3.55 -73.95 L-4.1 -73.85 -4.65 -72.2 -6.7 -72.1 -7.75 -72.15 -9.55 -72.15 -9.55 -68.8 -11.05 -69.4 -12.35 -66.45 -12.9 -66.45 -13.9 -65.85 -14.8 -64.95 -15.3 -65.1 -15.0 -62.45 -15.45 -62.3 -16.75 -59.2 Q-16.15 -58.75 -15.4 -58.45 L-12.5 -59.9 -12.3 -54.3 -12.5 -54.1 -12.25 -53.9 -12.15 -52.85 Q-11.55 -47.7 -12.0 -44.25 -12.05 -43.7 -10.9 -41.9 -9.45 -39.8 -7.25 -37.6 L-2.0 -32.35 -4.05 -32.6 -4.05 -30.4 -3.15 -30.35 -3.35 -30.2 1.9 -32.6 1.45 -24.6 -7.25 -16.35 -8.9 -16.1 -9.0 -16.1 -10.6 -16.3 -13.3 -16.15 -13.45 -16.15 -14.6 -15.85 -15.85 -15.3 -16.3 -15.05 -16.35 -15.0 -16.8 -14.65 -16.9 -14.6 -17.6 -13.7 -17.65 -13.65 -18.0 -13.1 -18.0 -13.0 -18.25 -12.4 -18.5 -11.5 -18.5 -11.35 -18.65 -10.45 -18.7 -9.1 Q-18.55 -3.1 -14.65 0.6 -12.7 2.45 -10.55 3.15 L-8.15 3.9 -12.65 -4.35 -12.3 -5.4 Q-11.5 -7.75 -10.25 -9.5 -8.2 -12.4 -5.6 -12.4 -1.9 -12.4 1.7 -7.95 L2.1 -7.4 3.65 2.75 6.3 7.45 8.35 7.75 4.05 2.35 3.75 -7.55 11.1 -13.5 11.4 -13.9 10.35 -14.3 12.6 -17.1 Q14.05 -18.75 14.75 -22.4 L14.75 -23.85 14.7 -24.3 14.8 -24.75 15.85 -32.35 17.9 -30.25 18.0 -31.1 17.6 -33.45 18.25 -33.5 18.35 -34.7 26.95 -35.05 29.4 -35.2 30.0 -35.8 Q30.45 -36.35 30.5 -36.9 L30.05 -37.4 28.25 -37.25 Q27.3 -36.85 26.5 -36.75 L13.0 -35.05 13.1 -36.45 11.8 -36.8 7.75 -37.35 9.95 -40.8 11.0 -43.1 Q12.4 -46.25 13.3 -47.35 14.3 -48.6 16.5 -49.3 L17.5 -49.7 Q18.15 -50.2 18.3 -51.3 L18.3 -51.45 17.25 -53.0 16.1 -53.45 15.25 -54.9 14.75 -57.9 14.8 -57.9 14.05 -62.9 12.45 -62.65 13.9 -64.0 13.85 -64.25 14.0 -64.1 17.25 -67.2 14.65 -71.35 15.2 -71.8 15.25 -71.85 14.55 -72.7 Q13.95 -73.1 13.55 -73.1 M20.1 -73.65 L20.4 -72.4 Q22.75 -71.6 23.5 -69.7 L23.8 -68.25 Q25.6 -67.2 26.35 -65.0 27.15 -62.65 26.0 -60.7 26.4 -59.45 26.0 -58.25 L25.25 -56.95 25.2 -56.3 Q24.8 -54.6 23.5 -53.2 L23.45 -50.65 Q23.0 -47.2 20.45 -45.45 19.9 -45.05 18.2 -44.4 L17.35 -44.05 15.8 -41.1 15.8 -41.05 17.4 -41.45 18.3 -41.3 Q19.4 -41.9 20.75 -41.75 L21.85 -41.4 25.85 -41.9 26.3 -42.1 Q28.25 -42.8 29.35 -42.8 30.9 -42.8 32.4 -42.05 L34.25 -40.7 34.6 -41.1 35.35 -41.8 Q38.65 -44.8 41.7 -44.6 L41.8 -44.6 43.1 -44.35 46.05 -42.15 46.75 -41.05 47.4 -39.7 47.75 -38.65 47.9 -37.95 47.9 -36.65 47.95 -35.95 48.55 -35.1 Q49.7 -33.75 49.6 -32.25 L51.55 -31.25 51.6 -29.65 Q51.6 -26.75 46.5 -25.7 L46.0 -25.6 41.4 -26.5 40.6 -28.2 39.2 -28.15 39.05 -28.2 38.2 -23.2 38.15 -23.05 37.5 -20.55 37.4 -20.25 36.9 -19.3 35.6 -17.45 35.0 -16.75 34.95 -16.65 Q31.85 -13.2 27.8 -10.95 L25.45 -9.95 Q23.0 -9.2 17.0 -9.2 L14.1 -9.2 9.0 -5.1 9.2 0.45 14.4 7.1 14.45 7.15 14.75 7.6 15.05 8.3 Q15.7 10.3 14.2 12.45 L13.25 13.65 11.0 13.35 Q10.55 15.95 8.5 16.35 L7.6 16.5 Q6.35 16.5 5.35 15.7 4.45 15.0 4.05 14.0 L-1.35 4.5 -2.8 -5.2 Q-4.35 -6.9 -5.45 -7.2 -6.2 -6.45 -6.95 -4.75 L-0.65 6.8 -5.0 11.4 -5.0 15.7 -2.4 24.15 -7.5 21.75 -7.55 22.3 Q-7.85 23.3 -8.65 24.0 -9.55 24.75 -10.75 24.75 -12.7 24.75 -14.45 22.3 L-14.55 22.15 -15.85 19.4 -15.9 19.3 -16.3 17.9 -16.55 16.8 -16.55 16.6 -16.8 14.3 -16.8 14.1 -16.65 12.0 -16.45 11.0 -16.45 10.75 -15.65 8.1 -15.0 6.7 Q-18.5 4.65 -20.7 1.45 -23.75 -3.0 -23.9 -9.0 L-23.85 -10.6 -23.8 -10.85 -23.65 -12.3 -23.6 -12.55 -22.75 -15.2 -22.65 -15.3 -22.05 -16.4 -21.95 -16.6 -21.25 -17.55 -21.1 -17.65 -20.25 -18.55 -19.4 -19.25 -19.25 -19.3 -18.2 -19.95 -17.25 -20.4 -14.3 -21.25 -11.25 -21.5 -9.45 -21.4 -8.65 -22.2 -13.1 -21.9 -13.9 -23.15 -14.65 -24.6 Q-15.1 -25.95 -14.85 -27.15 -14.45 -29.15 -12.35 -29.8 L-12.3 -30.35 -11.65 -30.9 Q-12.8 -32.2 -12.8 -33.75 -12.85 -34.45 -12.5 -35.55 -17.55 -41.25 -17.15 -44.9 -16.9 -47.05 -17.25 -51.65 -17.9 -52.6 -18.0 -53.9 -21.6 -55.65 -23.0 -58.65 -24.2 -61.25 -23.55 -65.0 L-23.0 -67.5 Q-22.75 -68.6 -21.9 -69.25 -21.05 -69.95 -19.95 -69.95 -19.05 -69.95 -18.4 -69.55 L-17.8 -69.3 -16.8 -70.1 Q-16.95 -71.1 -16.7 -72.05 -16.1 -74.0 -14.2 -74.9 -12.85 -77.4 -8.9 -77.4 L-7.95 -77.35 Q-6.3 -79.15 -3.55 -79.15 -2.05 -79.15 -0.6 -78.5 1.85 -80.8 5.8 -81.35 L6.35 -81.4 9.75 -80.85 Q13.3 -80.0 14.6 -78.2 16.4 -77.85 17.95 -76.6 19.5 -75.3 20.1 -73.65 M18.9 -61.15 L21.3 -63.0 21.4 -63.4 Q21.25 -64.0 20.65 -63.95 L14.95 -63.05 16.5 -61.3 18.9 -61.15 M34.25 -35.25 L32.4 -23.9 32.35 -23.95 31.9 -22.1 31.75 -21.65 31.3 -21.0 Q30.3 -20.0 29.1 -19.15 L24.65 -16.4 Q22.8 -15.45 21.8 -15.15 L21.2 -15.0 20.6 -14.95 20.5 -14.95 18.6 -15.15 16.0 -15.85 16.5 -16.75 Q17.6 -18.9 18.15 -21.75 L18.25 -24.1 18.2 -24.25 18.45 -25.45 27.25 -23.75 29.7 -23.0 30.8 -24.7 32.3 -24.15 31.25 -26.7 Q31.1 -27.25 30.35 -27.55 L29.85 -27.85 29.9 -28.4 Q30.0 -29.4 29.4 -30.55 L28.95 -31.55 30.05 -31.8 Q31.2 -32.05 32.35 -33.25 L34.25 -35.25 M17.2 -55.05 L18.35 -56.55 16.45 -58.7 16.9 -55.65 16.9 -55.5 17.2 -55.05 M19.85 -21.45 Q19.35 -18.95 18.5 -16.95 L18.9 -16.85 20.5 -16.7 20.6 -16.7 21.3 -16.8 Q22.05 -17.0 23.85 -17.95 L24.9 -18.5 29.15 -21.35 26.8 -22.05 20.0 -23.4 19.85 -21.45 M31.6 -29.4 L31.8 -30.6 31.35 -30.4 31.6 -29.4 M44.65 -37.7 L44.4 -36.9 44.5 -35.55 Q44.45 -34.7 45.75 -33.1 L46.2 -32.5 45.7 -31.95 45.45 -31.2 45.65 -30.75 47.0 -28.95 43.8 -29.6 41.5 -34.45 41.6 -34.8 42.6 -37.5 42.6 -37.75 44.3 -38.1 44.4 -37.8 44.65 -37.7 M-11.0 10.5 L-11.0 10.65 -11.4 12.0 -11.45 12.5 -11.5 12.7 -11.55 13.3 -11.55 13.4 -11.6 14.05 -11.6 14.15 -10.2 14.8 -10.2 9.35 -7.0 5.95 -7.5 5.05 -9.85 8.05 -10.75 9.85 -11.0 10.5" fill="#5d3812" fill-rule="evenodd" stroke="none"/>
    <path d="M39.6 -39.45 Q38.5 -38.95 38.0 -37.85 37.65 -37.1 36.65 -30.0 35.65 -22.85 34.95 -21.2 34.0 -18.95 30.55 -16.05 27.15 -13.2 24.7 -12.45 L17.5 -11.75 12.75 -11.85 12.6 -13.7 Q12.8 -15.5 14.35 -15.55 L17.2 -14.6 22.05 -14.3 Q24.35 -15.0 27.95 -17.3 31.85 -19.8 32.55 -21.3 33.55 -23.4 35.5 -38.2 L36.6 -39.45 Q37.95 -40.8 39.25 -41.45 43.4 -43.55 45.25 -37.95 L45.3 -36.8 45.35 -35.5 45.45 -35.1 46.55 -33.5 Q47.35 -32.5 46.8 -31.85 46.2 -31.35 46.35 -31.25 L49.0 -29.65 Q49.0 -29.2 47.5 -28.65 L46.0 -28.25 43.2 -28.8 41.7 -32.0 40.9 -31.3 Q40.1 -30.6 39.9 -30.75 39.25 -31.2 41.25 -36.3 41.1 -36.45 41.3 -36.75 L41.5 -36.95 41.75 -37.6 Q41.9 -38.8 40.55 -39.7 L39.6 -39.45" fill="#724c23" fill-rule="evenodd" stroke="none"/>
    <path d="M38.8 -37.5 Q38.4 -36.6 37.7 -31.05 L36.8 -25.1 Q36.25 -22.05 35.75 -20.9 34.7 -18.45 31.05 -15.35 27.5 -12.4 24.95 -11.6 L17.0 -10.9 12.05 -11.05 11.9 -11.65 11.7 -13.15 Q11.7 -14.6 12.35 -15.45 13.0 -16.4 14.3 -16.4 L14.5 -16.4 14.7 -16.35 16.65 -15.65 Q18.95 -14.95 20.5 -14.95 L21.8 -15.15 Q24.0 -15.85 27.45 -18.05 31.15 -20.35 31.75 -21.65 32.65 -23.5 34.65 -38.35 L34.7 -38.55 34.85 -38.75 36.9 -40.9 Q39.25 -42.9 41.3 -42.9 44.55 -42.9 46.05 -38.25 46.3 -37.35 46.15 -36.75 L46.25 -35.5 Q46.25 -35.2 47.2 -34.05 48.3 -32.65 47.6 -31.5 L49.35 -30.4 49.85 -30.15 49.85 -29.65 Q49.85 -28.15 46.15 -27.4 L46.0 -27.35 42.6 -28.05 41.4 -30.55 Q40.5 -29.85 39.95 -29.85 L39.7 -29.85 39.4 -30.0 Q38.8 -30.4 38.9 -31.4 39.0 -32.85 40.35 -36.35 40.25 -36.85 40.65 -37.25 L40.9 -37.8 Q40.9 -38.25 40.35 -38.8 39.3 -38.55 38.8 -37.5 M39.2 -40.2 L40.5 -40.6 40.8 -40.6 41.05 -40.45 42.15 -39.3 Q42.75 -38.4 42.6 -37.5 L42.2 -36.5 42.15 -36.45 42.2 -36.4 42.05 -36.0 Q41.3 -34.1 40.85 -32.4 L41.1 -32.6 41.95 -33.45 43.8 -29.6 46.0 -29.15 47.45 -29.55 45.55 -30.7 45.45 -31.2 Q45.4 -31.65 45.9 -32.15 L46.15 -32.45 45.9 -32.95 Q44.4 -34.75 44.5 -35.5 L44.4 -36.9 44.45 -37.05 44.4 -37.75 Q43.25 -41.15 41.3 -41.15 40.05 -41.15 38.45 -39.9 L36.35 -37.85 35.1 -29.3 Q33.95 -22.25 33.3 -20.9 32.5 -19.2 28.45 -16.6 24.75 -14.2 22.35 -13.5 L20.5 -13.2 Q18.05 -13.2 14.2 -14.65 L13.75 -14.4 Q13.35 -13.95 13.45 -12.7 L17.0 -12.65 24.45 -13.25 Q26.8 -13.95 30.05 -16.75 33.3 -19.55 34.15 -21.55 34.9 -23.25 36.0 -31.3 36.8 -37.2 37.25 -38.2 37.9 -39.55 39.2 -40.2" fill="#5d3812" fill-rule="evenodd" stroke="none"/>
    <path d="M36.6 -39.45 Q37.95 -40.8 39.25 -41.45 43.4 -43.55 45.25 -37.95 45.6 -36.6 44.85 -36.15 L44.0 -36.0 42.35 -35.95 Q40.75 -36.05 41.3 -36.75 42.15 -37.75 41.45 -38.8 L40.55 -39.7 39.6 -39.45 Q38.5 -38.95 38.0 -37.85 37.65 -37.1 36.65 -30.0 35.65 -22.85 34.95 -21.2 34.0 -18.95 30.55 -16.05 27.15 -13.2 24.7 -12.45 L17.5 -11.75 12.75 -11.85 12.6 -13.7 Q12.8 -15.5 14.35 -15.55 L17.2 -14.6 22.05 -14.3 Q24.35 -15.0 27.95 -17.3 31.85 -19.8 32.55 -21.3 33.55 -23.4 35.5 -38.2 L36.6 -39.45" fill="#5d3812" fill-rule="evenodd" stroke="none"/>
    <path d="M14.95 -15.3 Q14.05 -13.55 14.65 -11.8 L12.75 -11.85 12.6 -13.7 Q12.8 -15.5 14.35 -15.55 L14.95 -15.3" fill="#a37c51" fill-rule="evenodd" stroke="none"/>
    <path d="M22.55 -14.5 Q22.7 -13.15 23.8 -12.2 L21.55 -11.95 Q20.2 -13.1 20.65 -14.1 L22.05 -14.3 22.55 -14.5" fill="#a37c51" fill-rule="evenodd" stroke="none"/>
    <path d="M26.15 -16.25 Q26.55 -15.1 28.0 -14.15 L26.55 -13.25 25.8 -13.55 Q25.25 -13.6 24.95 -14.2 24.65 -14.75 24.9 -15.25 L25.05 -15.65 26.15 -16.25" fill="#a37c51" fill-rule="evenodd" stroke="none"/>
    <path d="M29.65 -18.45 Q29.9 -17.55 31.3 -16.75 L29.95 -15.6 Q28.0 -16.45 28.25 -17.35 L28.3 -17.55 29.65 -18.45" fill="#a37c51" fill-rule="evenodd" stroke="none"/>
    <path d="M32.75 -21.85 L35.05 -21.45 34.95 -21.2 Q34.45 -20.05 33.0 -18.4 L32.65 -18.55 31.85 -19.05 Q32.45 -19.75 31.9 -20.4 L32.55 -21.3 32.75 -21.85" fill="#a37c51" fill-rule="evenodd" stroke="none"/>
    <path d="M36.0 -30.6 Q36.45 -30.6 36.8 -30.95 L36.4 -28.0 34.0 -27.95 34.4 -30.6 36.0 -30.6" fill="#a37c51" fill-rule="evenodd" stroke="none"/>
    <path d="M35.1 -35.25 L37.4 -35.0 37.0 -32.25 Q36.75 -32.85 36.0 -32.85 L34.75 -32.85 35.1 -35.25" fill="#a37c51" fill-rule="evenodd" stroke="none"/>
    <path d="M37.8 -38.4 L38.15 -38.05 38.0 -37.85 37.8 -37.25 35.4 -37.5 35.5 -38.2 37.15 -39.95 Q37.3 -39.0 37.8 -38.4" fill="#a37c51" fill-rule="evenodd" stroke="none"/>
    <path d="M39.7 -39.6 Q39.15 -40.35 39.45 -41.55 L39.5 -41.55 Q40.85 -42.25 42.2 -41.9 40.55 -40.9 39.7 -39.6" fill="#a37c51" fill-rule="evenodd" stroke="none"/>
    <path d="M44.1 -40.35 L45.25 -37.95 Q45.6 -36.6 44.85 -36.15 L44.0 -36.0 42.35 -35.95 Q40.75 -36.05 41.3 -36.75 41.95 -37.45 41.65 -38.45 42.3 -39.5 44.1 -40.35" fill="#a37c51" fill-rule="evenodd" stroke="none"/>
    <path d="M33.6 -25.8 L36.05 -25.7 35.65 -23.7 33.25 -24.0 33.6 -25.8" fill="#a37c51" fill-rule="evenodd" stroke="none"/>
    <path d="M18.45 -14.3 Q18.2 -13.05 18.85 -11.8 L17.05 -11.8 16.95 -12.15 Q16.25 -13.35 17.1 -14.6 L18.45 -14.3" fill="#a37c51" fill-rule="evenodd" stroke="none"/>
    <path d="M18.55 -36.5 Q20.75 -31.7 18.9 -23.1 17.2 -15.5 14.3 -11.75 L12.95 -10.05 11.35 -12.0 9.0 -14.5 Q7.8 -15.4 5.9 -15.8 L-2.0 -16.55 -2.4 -16.55 -4.35 -16.45 -6.55 -16.3 Q-8.5 -16.3 -9.6 -17.0 L-11.65 -18.15 -2.8 -26.55 -2.35 -34.75 Q-2.35 -36.65 -1.05 -38.1 2.05 -41.75 11.7 -41.2 16.6 -40.9 18.55 -36.5 M11.5 -37.75 L9.3 -37.8 Q3.35 -37.8 1.65 -35.95 1.1 -35.4 1.1 -34.9 L1.2 -34.65 1.15 -34.65 0.6 -25.0 -4.8 -19.85 -4.7 -19.9 -2.65 -20.0 -1.85 -20.0 6.55 -19.2 Q10.15 -18.5 12.7 -15.75 14.85 -19.85 15.8 -25.45 16.9 -31.75 15.4 -35.1 14.3 -37.6 11.5 -37.75" fill="#40210b" fill-rule="evenodd" stroke="none"/>
    <path d="M0.65 -37.4 Q3.5 -39.9 11.6 -39.45 18.95 -39.05 17.9 -27.8 16.95 -17.95 12.9 -12.8 L10.15 -15.75 Q8.6 -17.05 6.2 -17.5 L-2.3 -18.3 -5.65 -18.05 Q-7.7 -17.9 -8.75 -18.5 L-1.1 -25.75 -0.5 -35.6 Q-0.25 -36.6 0.65 -37.4" fill="#f0d090" fill-rule="evenodd" stroke="none"/>
  </g>
</svg>
