<?xml version="1.0" encoding="UTF-8" standalone="no"?>
<svg xmlns:xlink="http://www.w3.org/1999/xlink" height="17.7px" width="19.05px" xmlns="http://www.w3.org/2000/svg">
  <g transform="matrix(1.0, 0.0, 0.0, 1.0, 0.0, -0.05)">
    <path d="M15.85 2.9 Q17.8 4.85 18.45 6.1 19.3 7.8 18.9 10.0 17.8 15.75 14.95 17.75 L12.7 15.25 Q12.25 14.55 12.45 14.3 L13.25 13.25 13.7 11.5 13.6 9.65 13.25 9.05 12.9 8.45 13.0 7.8 13.05 7.2 Q12.65 5.75 10.6 5.35 L7.2 5.1 Q3.85 4.9 0.05 5.85 -0.1 5.05 0.8 4.35 L0.0 4.55 1.3 4.15 3.25 3.55 5.15 2.9 Q5.9 2.6 6.8 1.9 L8.3 0.75 Q10.3 -0.45 12.4 0.4 13.95 1.0 15.85 2.9" fill="#5d3812" fill-rule="evenodd" stroke="none"/>
  </g>
</svg>
