<?xml version="1.0" encoding="UTF-8" standalone="no"?>
<svg xmlns:xlink="http://www.w3.org/1999/xlink" height="96.25px" width="71.6px" xmlns="http://www.w3.org/2000/svg">
  <g transform="matrix(1.0, 0.0, 0.0, 1.0, 22.6, 72.8)">
    <path d="M13.65 -10.55 L7.7 -5.75 7.9 0.9 Q13.45 7.7 13.85 8.7 14.35 10.15 13.15 11.65 L12.7 12.25 9.8 11.85 Q9.9 14.7 8.2 15.1 L7.6 15.2 Q5.95 15.2 5.2 13.45 L-0.1 4.05 -1.6 -5.8 -3.45 -7.5 Q-4.75 -8.5 -5.6 -8.5 -6.2 -8.5 -7.05 -7.25 L-8.4 -4.7 -2.25 6.6 -6.3 10.9 -6.3 15.9 -4.5 21.75 -8.65 19.8 -8.8 21.95 Q-9.3 23.45 -10.75 23.45 -12.0 23.45 -13.4 21.6 L-13.45 21.5 Q-15.95 17.1 -15.35 12.35 -14.95 9.1 -13.25 6.2 -16.6 4.55 -18.95 1.6 -22.45 -2.8 -22.6 -9.05 -22.65 -14.25 -19.85 -17.15 -16.85 -20.2 -11.3 -20.2 L-9.8 -20.15 -9.6 -20.1 -9.05 -20.0 Q-0.1 -21.5 6.9 -19.75 11.0 -18.7 14.85 -14.0 L15.35 -13.4 15.05 -12.7 Q14.4 -11.05 13.65 -10.55 M6.25 -17.2 Q-0.25 -18.8 -8.65 -17.45 L-10.35 -17.6 -11.3 -17.6 Q-15.75 -17.6 -18.0 -15.3 -20.05 -13.15 -20.0 -9.1 -19.85 -2.45 -15.5 1.6 -13.3 3.65 -10.95 4.4 L-9.1 4.95 -10.3 6.45 -12.4 10.65 Q-13.8 15.5 -11.25 20.05 L-11.0 15.85 -8.7 16.95 -8.9 16.3 -8.9 9.85 -5.45 6.2 -11.25 -4.45 -11.05 -5.0 Q-10.35 -6.95 -9.4 -8.4 -7.65 -11.1 -5.6 -11.1 -3.65 -11.1 -1.45 -9.25 -0.15 -8.2 0.65 -7.15 L0.9 -6.85 2.4 3.2 7.2 11.65 6.8 8.85 11.3 9.45 5.6 2.2 5.35 1.9 5.05 -6.95 12.05 -12.55 12.3 -13.0 Q9.35 -16.45 6.25 -17.2" fill="#40210b" fill-rule="evenodd" stroke="none"/>
    <path d="M13.85 -13.2 L13.2 -11.9 12.85 -11.55 6.35 -6.35 6.6 1.4 Q12.35 8.35 12.6 9.1 12.85 9.85 12.1 10.85 L8.35 10.35 Q8.85 13.6 7.85 13.85 6.85 14.1 6.35 12.85 L1.15 3.65 -0.35 -6.35 -2.05 -8.05 Q-4.05 -9.8 -5.6 -9.8 -7.15 -9.8 -8.65 -7.2 L-9.8 -4.6 -3.85 6.4 -7.6 10.35 -7.6 16.1 -6.6 19.35 -9.8 17.85 -10.05 21.6 -10.5 22.15 Q-11.2 22.4 -12.3 20.85 -15.25 15.7 -13.6 10.15 L-11.3 5.65 Q-13.75 4.9 -16.2 2.7 -21.15 -1.75 -21.3 -9.05 -21.45 -15.45 -16.75 -17.75 -13.9 -19.2 -10.1 -18.85 L-8.85 -18.75 Q-0.2 -20.2 6.6 -18.45 8.8 -17.9 10.75 -16.35 12.1 -15.25 13.85 -13.2" fill="#724c23" fill-rule="evenodd" stroke="none"/>
    <path d="M-7.6 10.35 L-7.6 16.1 -6.6 19.35 -9.8 17.85 -10.05 21.6 -10.5 22.15 Q-11.2 22.4 -12.3 20.85 -14.7 16.7 -14.05 12.25 -13.65 9.3 -12.05 6.7 -7.65 5.85 -4.75 7.35 L-7.6 10.35" fill="#30190d" fill-rule="evenodd" stroke="none"/>
    <path d="M7.8 2.85 L12.6 9.1 Q12.85 9.85 12.1 10.85 L8.35 10.35 Q8.85 13.6 7.85 13.85 6.85 14.1 6.35 12.85 L1.6 4.5 Q4.7 3.0 7.8 2.85" fill="#30190d" fill-rule="evenodd" stroke="none"/>
    <path d="M41.9 -37.9 L41.9 -37.4 Q42.1 -36.8 43.2 -36.3 44.1 -35.9 44.75 -36.8 L45.25 -37.8 45.35 -35.5 45.45 -35.1 46.55 -33.5 Q47.35 -32.5 46.8 -31.85 46.2 -31.35 46.35 -31.25 L49.0 -29.65 Q49.0 -29.2 47.5 -28.65 L46.0 -28.25 43.2 -28.8 41.7 -32.0 40.9 -31.3 Q40.1 -30.6 39.9 -30.75 39.45 -31.05 40.6 -34.55 L41.9 -37.9" fill="#40210b" fill-rule="evenodd" stroke="none"/>
    <path d="M0.0 -70.55 Q9.7 -72.9 14.7 -64.5 16.25 -61.85 17.15 -58.45 L17.75 -55.6 Q18.45 -55.4 19.1 -54.8 20.45 -53.5 20.45 -51.15 20.45 -49.1 17.7 -47.7 L14.95 -46.7 13.8 -45.05 Q12.5 -42.8 11.8 -39.9 11.05 -36.85 5.7 -34.15 1.2 -31.85 -1.1 -31.85 -3.15 -31.85 -8.95 -35.6 L-11.9 -38.9 Q-14.8 -42.6 -14.55 -44.55 -14.2 -47.75 -14.75 -52.6 -15.45 -59.55 -13.45 -62.9 -10.45 -68.05 0.0 -70.55" fill="#896238" fill-rule="evenodd" stroke="none"/>
    <path d="M15.05 -67.05 Q18.3 -62.75 19.35 -56.8 22.2 -55.1 22.2 -51.15 22.2 -48.65 19.7 -46.9 18.2 -45.8 15.95 -45.15 14.3 -43.05 13.5 -39.5 12.6 -35.75 6.6 -32.65 1.65 -30.15 -1.1 -30.15 -3.8 -30.15 -9.9 -34.15 L-10.15 -34.35 Q-16.75 -40.95 -16.3 -44.8 -15.95 -47.7 -16.45 -52.4 -17.25 -60.0 -14.85 -63.9 -11.45 -69.55 -0.4 -72.25 L3.95 -72.8 Q10.7 -72.8 15.05 -67.05 M0.45 -68.85 Q-9.4 -66.45 -12.05 -61.9 -13.7 -59.15 -13.0 -52.8 -12.45 -47.7 -12.85 -44.35 -12.95 -43.4 -11.35 -41.1 -9.85 -38.95 -7.85 -36.95 -5.75 -35.6 -3.7 -34.6 -1.7 -33.6 -1.1 -33.6 0.75 -33.6 4.85 -35.65 9.55 -38.0 10.1 -40.3 10.9 -43.5 12.35 -45.95 L13.75 -47.9 14.1 -48.25 14.6 -48.4 Q15.85 -48.65 17.15 -49.35 18.7 -50.25 18.7 -51.15 18.7 -52.6 18.05 -53.4 L17.35 -53.9 16.2 -54.2 16.05 -55.4 15.6 -57.8 Q14.95 -60.4 13.85 -62.55 10.4 -69.3 3.95 -69.3 L0.45 -68.85" fill="#40210b" fill-rule="evenodd" stroke="none"/>
    <path d="M0.0 -70.55 Q9.7 -72.9 14.7 -64.5 16.25 -61.85 17.15 -58.45 L17.75 -55.6 Q18.45 -55.4 19.1 -54.8 20.45 -53.5 20.45 -51.15 20.45 -49.1 17.7 -47.7 L14.95 -46.7 13.8 -45.05 Q12.5 -42.8 11.8 -39.9 11.05 -36.85 5.7 -34.15 1.2 -31.85 -1.1 -31.85 -3.15 -31.85 -8.95 -35.6 L-11.9 -38.9 Q-14.8 -42.6 -14.55 -44.55 -14.2 -47.75 -14.75 -52.6 -15.45 -59.55 -13.45 -62.9 -10.45 -68.05 0.0 -70.55" fill="#f0d090" fill-rule="evenodd" stroke="none"/>
  </g>
</svg>
