<?xml version="1.0" encoding="UTF-8" standalone="no"?>
<svg xmlns:xlink="http://www.w3.org/1999/xlink" height="24.45px" width="36.3px" xmlns="http://www.w3.org/2000/svg">
  <g transform="matrix(1.0, 0.0, 0.0, 1.0, 0.0, 0.05)">
    <path d="M30.6 9.15 L32.75 9.05 Q34.15 8.3 34.6 8.2 35.9 7.95 36.25 9.05 L36.25 11.2 Q36.0 13.5 34.4 14.6 L32.45 15.4 Q31.2 15.85 30.75 16.4 29.95 17.4 28.6 20.65 27.45 23.35 26.1 24.4 26.5 22.1 26.85 21.2 27.35 19.5 27.2 17.6 27.15 16.45 25.9 14.6 24.75 12.85 24.75 11.8 22.65 11.15 21.9 10.65 L20.75 9.55 19.85 8.15 19.05 7.25 17.75 7.6 14.25 7.45 Q14.2 8.45 13.1 9.0 L11.05 9.25 10.95 8.95 Q10.05 10.1 8.0 10.35 L4.6 10.0 Q4.05 9.5 3.25 9.5 L2.35 9.7 1.4 9.85 Q0.5 9.65 0.15 8.75 -0.15 7.9 0.25 7.05 L3.65 3.65 5.85 3.35 8.1 3.2 Q8.95 3.1 10.15 2.45 L12.15 1.35 Q17.65 -1.25 21.3 1.05 22.3 1.65 23.3 3.05 L24.95 5.35 Q27.55 8.25 30.6 9.15" fill="#5d3812" fill-rule="evenodd" stroke="none"/>
  </g>
</svg>
