<?xml version="1.0" encoding="UTF-8" standalone="no"?>
<svg xmlns:xlink="http://www.w3.org/1999/xlink" height="45.1px" width="53.65px" xmlns="http://www.w3.org/2000/svg">
  <g transform="matrix(1.0, 0.0, 0.0, 1.0, 20.1, 41.35)">
    <path d="M26.2 -39.35 L28.3 -40.05 Q29.8 -40.45 31.25 -39.7 34.0 -38.3 32.8 -35.45 31.7 -32.8 29.75 -32.6 L10.0 -31.9 Q-8.45 -31.5 -9.5 -32.45 -10.55 -33.35 -10.05 -34.65 L-9.3 -35.8 Q-8.95 -35.55 -4.3 -35.9 4.9 -36.55 26.2 -39.35" fill="#ad5422" fill-rule="evenodd" stroke="none"/>
    <path d="M26.25 -38.9 Q-1.15 -35.3 -8.15 -35.3 L-9.15 -35.3 Q-9.8 -34.65 -9.8 -33.8 -9.7 -33.15 -9.2 -32.75 L0.6 -32.2 0.65 -32.2 Q7.95 -32.2 18.8 -32.55 L29.7 -33.05 Q30.5 -33.15 31.45 -34.15 32.4 -35.2 32.65 -36.4 33.05 -38.35 31.05 -39.35 L29.35 -39.75 27.45 -39.3 26.25 -38.9 M27.1 -40.1 L29.35 -40.65 Q30.3 -40.65 31.4 -40.1 33.95 -38.85 33.5 -36.25 33.25 -34.8 32.1 -33.55 30.9 -32.25 29.75 -32.2 L18.85 -31.7 Q7.95 -31.35 0.65 -31.35 L0.6 -31.35 Q-8.9 -31.35 -9.8 -32.1 -10.65 -32.85 -10.65 -33.8 -10.7 -35.05 -9.65 -36.1 L-8.9 -36.85 -8.9 -36.15 -8.15 -36.15 Q-1.2 -36.15 26.15 -39.75 L27.1 -40.1" fill="#f1941a" fill-rule="evenodd" stroke="none"/>
    <path d="M28.0 -33.85 L30.35 -29.0 Q32.65 -28.1 32.65 -26.25 32.65 -25.05 31.15 -22.8 L30.25 -21.5 26.95 -22.45 16.9 -24.45 10.25 -31.3 11.05 -37.3 Q11.15 -38.55 11.95 -39.5 12.85 -40.55 14.25 -40.65 L14.4 -40.65 15.65 -40.4 Q16.4 -41.0 17.4 -41.0 L17.75 -41.0 18.35 -40.85 Q19.4 -41.5 20.7 -41.3 22.1 -41.05 22.85 -39.95 23.7 -38.7 23.35 -36.65 L23.05 -33.65 28.0 -33.85 M14.85 -32.8 L15.35 -32.25 14.9 -33.5 14.85 -32.8 M17.65 -35.4 L16.25 -31.3 19.05 -28.45 19.85 -28.3 18.35 -30.05 18.65 -33.45 17.65 -35.4" fill="#40210b" fill-rule="evenodd" stroke="none"/>
    <path d="M21.2 -36.95 L20.55 -30.75 22.8 -28.15 24.85 -27.95 23.25 -32.35 26.7 -32.5 28.8 -27.2 Q30.5 -26.8 30.5 -26.25 L29.95 -24.9 29.35 -24.0 27.5 -24.6 17.95 -26.45 12.55 -32.05 13.25 -37.1 13.4 -37.75 Q13.65 -38.4 14.35 -38.45 15.45 -38.55 15.95 -37.1 L16.4 -38.0 Q16.9 -38.9 17.45 -38.85 18.35 -38.7 18.7 -38.05 L19.05 -38.65 Q19.6 -39.25 20.4 -39.15 21.7 -38.95 21.2 -36.95" fill="#f0d090" fill-rule="evenodd" stroke="none"/>
    <path d="M2.25 -22.75 L2.25 -22.65 Q3.25 -22.8 3.05 -22.05 2.85 -21.35 2.0 -21.3 0.85 -21.2 1.1 -21.95 1.35 -22.7 2.25 -22.75" fill="#896238" fill-rule="evenodd" stroke="none"/>
    <path d="M-15.75 -15.65 L-16.4 -16.2 Q-15.1 -17.65 -13.3 -18.1 L-13.1 -17.25 Q-14.6 -16.85 -15.75 -15.65" fill="#a37c51" fill-rule="evenodd" stroke="none"/>
    <path d="M-12.7 -14.85 L-13.45 -15.25 Q-12.5 -16.7 -10.9 -17.65 L-10.5 -16.9 Q-11.9 -16.1 -12.7 -14.85" fill="#a37c51" fill-rule="evenodd" stroke="none"/>
    <path d="M-17.45 -8.5 Q-17.7 -9.05 -17.5 -10.1 L-16.9 -11.8 Q-16.35 -12.75 -15.6 -12.85 L-15.5 -12.0 -16.15 -11.35 -16.65 -9.95 -16.65 -8.85 -17.45 -8.5" fill="#a37c51" fill-rule="evenodd" stroke="none"/>
    <path d="M-18.85 -11.5 Q-18.9 -12.35 -18.25 -13.25 -17.55 -14.15 -16.75 -14.25 L-16.6 -13.35 -17.55 -12.7 Q-18.05 -12.1 -18.0 -11.6 L-18.85 -11.5" fill="#a37c51" fill-rule="evenodd" stroke="none"/>
    <path d="M-13.95 -8.65 Q-14.4 -9.5 -13.75 -10.85 -13.2 -11.95 -12.4 -12.1 L-12.2 -11.25 -13.0 -10.5 Q-13.45 -9.55 -13.15 -9.0 L-13.95 -8.65" fill="#a37c51" fill-rule="evenodd" stroke="none"/>
    <path d="M-9.35 -10.8 Q-10.45 -9.2 -10.4 -7.1 L-11.25 -7.05 Q-11.35 -9.55 -10.05 -11.3 L-9.35 -10.8" fill="#a37c51" fill-rule="evenodd" stroke="none"/>
    <path d="M-11.85 -13.0 Q-12.05 -14.3 -10.55 -15.5 -9.55 -16.3 -8.1 -16.8 L-7.8 -16.0 Q-9.2 -15.45 -10.05 -14.75 -11.1 -13.9 -11.0 -13.1 L-11.85 -13.0" fill="#a37c51" fill-rule="evenodd" stroke="none"/>
    <path d="M-8.5 -11.65 Q-8.6 -12.8 -7.8 -14.0 -7.05 -15.3 -5.95 -15.6 L-5.7 -14.75 Q-6.45 -14.55 -7.1 -13.5 -7.7 -12.5 -7.65 -11.7 L-8.5 -11.65" fill="#a37c51" fill-rule="evenodd" stroke="none"/>
    <path d="M-13.75 -1.15 Q-14.5 -1.95 -14.85 -3.4 -15.25 -4.95 -14.85 -5.9 L-14.05 -5.55 Q-14.35 -4.85 -14.0 -3.6 -13.7 -2.35 -13.1 -1.75 L-13.75 -1.15" fill="#a37c51" fill-rule="evenodd" stroke="none"/>
    <path d="M-15.8 -0.9 Q-16.4 -1.3 -16.95 -2.6 L-17.5 -4.9 Q-17.55 -5.85 -17.1 -6.25 L-16.5 -5.65 -16.65 -4.95 -16.1 -2.95 Q-15.7 -1.9 -15.3 -1.55 L-15.8 -0.9" fill="#a37c51" fill-rule="evenodd" stroke="none"/>
    <path d="M-18.8 -8.9 Q-19.2 -8.8 -19.2 -7.5 L-19.0 -5.2 -19.85 -5.0 -20.1 -7.2 Q-20.1 -9.4 -19.05 -9.75 L-18.8 -8.9" fill="#a37c51" fill-rule="evenodd" stroke="none"/>
    <path d="M-11.65 3.75 Q-13.85 2.45 -14.2 1.3 L-13.4 1.0 Q-13.05 2.0 -11.2 3.0 L-11.65 3.75" fill="#a37c51" fill-rule="evenodd" stroke="none"/>
    <path d="M-9.75 3.65 Q-9.95 2.95 -11.0 1.8 L-10.4 1.25 Q-9.25 2.4 -8.9 3.35 L-9.75 3.65" fill="#a37c51" fill-rule="evenodd" stroke="none"/>
    <path d="M-9.15 0.15 Q-10.0 -0.3 -11.15 -2.1 L-11.55 -2.7 -10.85 -3.2 -10.4 -2.55 Q-9.5 -1.05 -8.75 -0.6 L-9.15 0.15" fill="#a37c51" fill-rule="evenodd" stroke="none"/>
    <path d="M-12.05 -4.1 Q-12.75 -4.6 -12.6 -5.45 -12.45 -6.1 -11.8 -6.25 L-11.6 -5.4 -11.75 -5.25 Q-11.85 -5.0 -11.55 -4.8 L-12.05 -4.1" fill="#a37c51" fill-rule="evenodd" stroke="none"/>
    <path d="M-9.15 -8.8 L-8.8 -10.05 Q-8.4 -10.75 -7.8 -10.85 L-7.6 -10.0 -8.1 -9.55 -8.25 -8.85 -9.15 -8.8" fill="#a37c51" fill-rule="evenodd" stroke="none"/>
    <path d="M-5.55 -10.55 L-6.4 -10.6 Q-6.3 -11.3 -5.8 -12.05 L-4.6 -13.1 -4.3 -12.25 Q-4.7 -12.15 -5.1 -11.6 L-5.55 -10.55" fill="#a37c51" fill-rule="evenodd" stroke="none"/>
    <path d="M-3.85 -9.6 Q-4.2 -10.35 -3.9 -11.15 L-2.85 -12.1 -2.6 -11.25 -3.1 -10.8 -3.1 -10.0 -3.85 -9.6" fill="#a37c51" fill-rule="evenodd" stroke="none"/>
    <path d="M-1.35 -8.9 Q-1.7 -9.6 -1.6 -10.8 -1.45 -12.0 -0.95 -12.7 L-0.25 -12.2 -0.7 -10.75 Q-0.85 -9.8 -0.6 -9.25 -0.95 -9.05 -1.35 -8.9" fill="#a37c51" fill-rule="evenodd" stroke="none"/>
    <path d="M1.95 -11.55 Q1.35 -9.6 1.35 -6.45 L0.45 -6.45 Q0.45 -9.55 1.1 -11.8 L1.95 -11.55" fill="#a37c51" fill-rule="evenodd" stroke="none"/>
    <path d="M3.3 -8.65 Q2.75 -7.35 2.95 -6.0 L2.1 -5.9 Q1.95 -7.55 2.5 -8.95 L3.3 -8.65" fill="#a37c51" fill-rule="evenodd" stroke="none"/>
    <path d="M1.7 -1.95 L0.85 -1.95 0.85 -4.35 1.7 -4.35 1.7 -1.95" fill="#a37c51" fill-rule="evenodd" stroke="none"/>
    <path d="M2.6 -2.2 L2.75 -4.85 2.85 -5.4 3.7 -5.3 3.6 -4.75 3.45 -2.25 2.6 -2.2" fill="#a37c51" fill-rule="evenodd" stroke="none"/>
    <path d="M2.3 2.4 L1.45 2.35 1.35 1.5 Q1.1 0.25 1.35 -0.3 L2.15 0.1 Q2.0 0.4 2.2 1.35 L2.3 2.4" fill="#a37c51" fill-rule="evenodd" stroke="none"/>
    <path d="M3.1 2.5 Q2.95 2.1 2.95 0.8 L2.95 0.4 3.8 0.4 3.8 0.8 3.9 2.25 3.1 2.5" fill="#a37c51" fill-rule="evenodd" stroke="none"/>
    <path d="M5.6 2.35 Q5.1 2.0 5.35 1.3 L6.15 1.5 6.15 1.7 5.6 2.35" fill="#a37c51" fill-rule="evenodd" stroke="none"/>
    <path d="M4.3 -1.45 L4.45 -3.7 4.55 -6.05 5.45 -6.1 5.3 -3.6 5.2 -1.45 4.3 -1.45" fill="#a37c51" fill-rule="evenodd" stroke="none"/>
    <path d="M4.95 -8.2 L4.05 -8.2 4.05 -9.7 4.95 -9.7 4.95 -8.2" fill="#a37c51" fill-rule="evenodd" stroke="none"/>
    <path d="M6.95 -8.75 L6.7 -7.75 5.8 -7.9 6.45 -10.2 7.3 -10.15 6.95 -8.75" fill="#a37c51" fill-rule="evenodd" stroke="none"/>
    <path d="M8.0 -8.25 L7.25 -8.65 Q8.0 -10.1 9.75 -11.4 L10.25 -10.7 Q8.85 -9.75 8.0 -8.25" fill="#a37c51" fill-rule="evenodd" stroke="none"/>
    <path d="M10.9 -10.85 L10.35 -11.5 11.0 -12.35 11.7 -13.25 12.25 -12.6 11.7 -11.9 10.9 -10.85" fill="#a37c51" fill-rule="evenodd" stroke="none"/>
    <path d="M7.55 -12.0 L6.95 -12.65 7.7 -13.35 9.75 -15.2 10.2 -14.4 8.3 -12.75 7.55 -12.0" fill="#a37c51" fill-rule="evenodd" stroke="none"/>
    <path d="M4.05 -12.0 L3.2 -12.1 Q3.35 -13.0 4.65 -14.2 5.9 -15.4 6.85 -15.5 L6.9 -14.6 Q6.3 -14.55 5.25 -13.6 4.15 -12.6 4.05 -12.0" fill="#a37c51" fill-rule="evenodd" stroke="none"/>
    <path d="M2.0 -13.35 L1.25 -13.75 Q1.95 -15.0 3.45 -15.7 L3.8 -14.9 Q2.55 -14.25 2.0 -13.35" fill="#a37c51" fill-rule="evenodd" stroke="none"/>
    <path d="M1.05 -16.4 Q0.9 -15.75 -0.45 -13.85 L-1.35 -12.6 -2.1 -13.05 -1.15 -14.35 Q0.1 -16.15 0.25 -16.65 L1.05 -16.4" fill="#a37c51" fill-rule="evenodd" stroke="none"/>
    <path d="M-3.7 -13.6 L-4.2 -14.3 Q-3.4 -14.85 -2.6 -16.5 L-1.85 -16.1 Q-2.7 -14.25 -3.7 -13.6" fill="#a37c51" fill-rule="evenodd" stroke="none"/>
    <path d="M-5.05 -15.6 L-5.65 -16.2 Q-4.7 -17.2 -4.4 -18.15 L-3.55 -17.9 Q-4.0 -16.65 -5.05 -15.6" fill="#a37c51" fill-rule="evenodd" stroke="none"/>
    <path d="M-7.4 -16.45 L-8.0 -17.1 -7.0 -18.1 -6.4 -17.5 -7.4 -16.45" fill="#a37c51" fill-rule="evenodd" stroke="none"/>
    <path d="M9.65 -17.8 L11.5 -16.8 13.2 -15.2 13.7 -14.6 14.2 -13.7 14.3 -13.45 13.9 -13.75 13.45 -12.25 Q13.0 -12.35 12.7 -13.15 L12.55 -13.55 12.0 -14.2 10.65 -15.5 8.95 -16.4 8.3 -16.75 Q6.6 -17.6 3.5 -17.95 L2.9 -18.0 -3.2 -18.3 -6.0 -18.15 -6.6 -18.05 -9.3 -18.1 -8.6 -19.5 -6.85 -19.6 -6.15 -19.7 -3.25 -19.85 3.1 -19.55 3.65 -19.5 6.35 -19.1 9.0 -18.15 9.65 -17.8" fill="#40210b" fill-rule="evenodd" stroke="none"/>
    <path d="M-8.25 -36.9 L-7.85 -37.15 -5.15 -36.4 Q-3.05 -36.05 -1.45 -38.05 L-1.05 -38.1 Q-0.8 -37.85 -1.0 -37.6 -2.5 -35.65 -4.3 -35.65 L-6.2 -36.0 -8.05 -36.55 Q-8.35 -36.6 -8.25 -36.9" fill="#896238" fill-rule="evenodd" stroke="none"/>
    <path d="M-3.65 -35.3 L-3.6 -35.3 Q-3.05 -35.3 -2.55 -34.9 -3.15 -34.2 -6.65 -34.4 L-6.65 -34.9 -3.65 -35.3" fill="#fcdf94" fill-rule="evenodd" stroke="none"/>
    <path d="M2.4 -35.5 Q3.25 -34.85 1.65 -34.6 0.05 -34.4 -0.45 -34.95 -0.1 -35.45 0.85 -35.6 L2.4 -35.5" fill="#fcdf94" fill-rule="evenodd" stroke="none"/>
    <path d="M6.45 -36.25 Q7.0 -36.5 7.35 -36.05 7.85 -35.5 6.75 -34.9 6.1 -34.55 5.35 -34.55 4.5 -34.55 4.1 -35.1 4.85 -36.3 6.45 -36.25" fill="#fcdf94" fill-rule="evenodd" stroke="none"/>
    <path d="M11.8 -36.8 L11.05 -35.7 Q8.4 -35.7 9.45 -36.6 10.55 -37.5 11.8 -36.8" fill="#fcdf94" fill-rule="evenodd" stroke="none"/>
    <path d="M31.05 -38.15 L30.5 -37.95 Q32.25 -37.55 30.9 -35.65 29.5 -33.8 27.65 -34.95 25.6 -36.2 27.25 -37.75 28.05 -38.5 29.1 -38.4 L31.05 -38.15" fill="#723b1a" fill-rule="evenodd" stroke="none"/>
    <path d="M16.0 -34.95 L15.15 -34.95 15.15 -35.3 Q15.15 -37.95 15.55 -38.9 L16.35 -38.55 Q16.0 -37.7 16.0 -35.35 L16.0 -34.95" fill="#724c23" fill-rule="evenodd" stroke="none"/>
    <path d="M18.85 -35.15 L18.4 -35.15 18.15 -34.75 18.0 -35.0 18.05 -36.05 18.35 -39.3 19.2 -39.3 18.85 -35.15" fill="#724c23" fill-rule="evenodd" stroke="none"/>
  </g>
</svg>
