<?xml version="1.0" encoding="UTF-8" standalone="no"?>
<svg xmlns:xlink="http://www.w3.org/1999/xlink" height="5.85px" width="8.6px" xmlns="http://www.w3.org/2000/svg">
  <g transform="matrix(1.0, 0.0, 0.0, 1.0, -3.6, -3.75)">
    <path d="M11.75 7.25 L11.9 7.6 11.85 7.7 11.65 8.0 10.95 8.65 Q9.75 9.6 8.05 9.6 L7.85 9.55 Q5.6 9.5 4.6 8.4 L4.1 7.6 4.05 7.25 4.05 7.2 3.7 7.25 3.6 6.8 4.85 6.55 4.65 7.25 Q4.7 7.8 5.2 8.25 6.05 9.05 7.85 9.1 9.25 9.15 10.25 8.5 L11.25 7.55 10.95 7.0 12.0 6.7 12.2 7.15 11.75 7.25" fill="#c49617" fill-rule="evenodd" stroke="none"/>
    <path d="M4.6 4.95 Q4.6 4.5 4.85 4.2 5.15 3.9 5.5 3.9 5.9 3.9 6.15 4.2 L6.4 4.95 6.15 5.65 5.5 5.95 4.85 5.65 4.6 4.95" fill="#fefac5" fill-rule="evenodd" stroke="none"/>
    <path d="M5.25 4.6 L5.75 4.35 5.75 5.35 5.55 5.5 5.25 4.6" fill="#c49617" fill-rule="evenodd" stroke="none"/>
    <path d="M5.5 5.75 L5.1 4.55 5.9 4.15 5.9 5.4 5.5 5.75 M5.45 4.65 L5.6 5.15 5.6 4.55 5.45 4.65" fill="#c49617" fill-rule="evenodd" stroke="none"/>
    <path d="M10.2 3.75 Q10.7 3.75 11.05 4.2 11.4 4.6 11.4 5.25 11.4 5.85 11.05 6.3 10.7 6.75 10.2 6.75 9.7 6.75 9.35 6.3 9.0 5.85 9.0 5.25 9.0 4.6 9.35 4.2 9.7 3.75 10.2 3.75" fill="#fefac5" fill-rule="evenodd" stroke="none"/>
    <path d="M10.1 4.85 L10.75 4.8 10.35 5.65 10.05 5.65 10.1 4.85" fill="#c49617" fill-rule="evenodd" stroke="none"/>
    <path d="M10.45 5.8 L9.9 5.8 9.95 4.75 10.95 4.65 10.45 5.8 M10.2 5.55 L10.25 5.55 10.55 4.9 10.2 4.95 10.2 5.55" fill="#c49617" fill-rule="evenodd" stroke="none"/>
  </g>
</svg>
