<?xml version="1.0" encoding="UTF-8" standalone="no"?>
<svg xmlns:xlink="http://www.w3.org/1999/xlink" height="33.9px" width="29.35px" xmlns="http://www.w3.org/2000/svg">
  <g transform="matrix(1.0, 0.0, 0.0, 1.0, 20.35, -11.15)">
    <path d="M3.0 34.35 Q5.85 34.75 5.75 36.5 5.7 37.4 5.1 38.2 5.15 37.8 4.8 37.35 4.2 36.45 2.5 36.3 0.85 36.2 1.95 38.8 2.5 40.15 3.4 41.45 4.3 40.65 7.15 40.85 8.95 41.0 9.0 42.15 9.05 42.7 8.7 43.25 L7.1 42.45 Q6.0 41.9 5.6 42.3 5.2 42.7 5.65 43.15 L7.0 44.2 Q7.8 44.9 7.05 45.0 L4.7 44.85 2.5 44.5 Q1.55 44.5 -2.3 43.05 L-4.55 43.15 -6.05 43.5 -12.55 43.1 Q-14.1 43.15 -14.2 42.7 -13.65 41.7 -13.6 41.3 -13.55 41.05 -14.85 40.7 L-17.85 40.2 Q-19.3 40.15 -19.25 40.95 L-18.9 41.8 Q-20.2 41.45 -20.35 40.2 -20.3 37.75 -16.2 39.25 L-12.65 40.4 Q-13.05 39.7 -12.05 39.65 -10.8 39.6 -10.7 39.1 -10.6 38.45 -9.35 38.5 L-8.15 38.7 -8.45 37.2 -10.9 35.7 -12.6 36.65 -12.1 37.05 Q-11.75 37.5 -12.4 37.75 -13.3 38.05 -14.1 37.25 -14.9 36.4 -14.3 35.0 -13.75 33.75 -10.65 34.75 -9.1 35.2 -7.7 35.95 L-6.55 17.4 Q-7.75 15.2 -7.6 14.3 L-6.5 12.5 -5.55 11.4 Q-3.25 10.8 -1.9 11.7 -1.2 12.15 -0.95 12.7 L-1.4 13.75 -1.95 15.35 -0.8 17.75 Q0.1 19.5 -1.3 19.5 -2.75 19.55 -2.15 20.75 L-1.3 21.95 -1.35 36.35 Q-1.2 35.35 -0.85 35.0 0.15 33.95 3.0 34.35" fill="#94d6f0" fill-rule="evenodd" stroke="none"/>
  </g>
</svg>
