<?xml version="1.0" encoding="UTF-8" standalone="no"?>
<svg xmlns:xlink="http://www.w3.org/1999/xlink" height="43.4px" width="144.0px" xmlns="http://www.w3.org/2000/svg">
  <g transform="matrix(1.0, 0.0, 0.0, 1.0, 15.7, 0.0)">
    <path d="M15.15 6.55 L15.85 11.7 15.85 13.25 15.65 14.5 15.4 15.3 14.95 16.35 Q14.65 17.05 14.15 17.4 L12.65 18.25 9.0 18.85 5.9 18.85 4.5 18.55 Q3.8 18.35 3.35 17.9 L2.2 16.8 1.35 15.35 0.7 13.25 Q0.45 12.05 0.35 10.1 L0.4 8.2 0.95 4.8 Q1.15 4.1 1.65 3.25 1.95 2.6 2.65 2.05 L4.35 1.2 6.1 0.55 8.2 0.2 9.65 0.05 10.95 0.05 11.2 3.5 Q9.4 3.25 8.35 3.5 L7.2 3.75 6.1 4.35 Q5.55 4.75 5.15 5.3 4.65 6.0 4.55 6.6 L4.1 9.0 4.05 10.85 Q4.15 11.95 4.4 12.75 4.8 13.75 5.5 14.3 6.3 15.0 7.45 15.15 L8.05 15.25 10.2 15.1 11.15 14.8 Q11.65 14.5 11.9 13.8 L12.25 12.25 Q12.4 11.05 12.15 9.7 L8.2 9.85 8.0 6.95 12.4 6.6 13.6 6.55 14.55 6.5 15.15 6.55" fill="#ffffff" fill-rule="evenodd" stroke="none"/>
    <path d="M25.35 5.45 Q25.1 6.2 25.1 7.8 L28.55 7.8 28.6 5.95 28.15 4.55 Q27.8 4.0 27.0 4.0 L26.55 4.0 Q26.1 4.1 25.85 4.35 L25.35 5.45 M25.15 10.35 L24.6 19.05 18.8 19.05 23.25 0.35 30.45 0.35 34.4 19.05 28.5 19.05 28.5 10.45 25.15 10.35" fill="#ffffff" fill-rule="evenodd" stroke="none"/>
    <path d="M52.35 2.1 L52.55 2.95 52.6 3.7 52.35 5.75 51.6 7.0 50.6 7.7 49.55 7.85 48.2 7.85 Q49.35 7.85 49.9 8.25 L51.0 9.05 Q51.45 9.7 51.5 10.25 L52.6 18.9 47.65 18.9 46.45 10.55 41.55 10.55 41.55 18.9 37.2 18.75 37.1 0.8 46.15 0.35 48.9 0.35 50.75 0.75 Q51.45 1.0 51.8 1.35 L52.35 2.1 M48.1 3.25 L47.05 3.1 41.55 3.3 41.45 5.75 47.1 5.75 48.2 5.55 48.85 5.25 49.1 4.85 49.15 4.45 48.85 3.6 48.1 3.25" fill="#ffffff" fill-rule="evenodd" stroke="none"/>
    <path d="M65.45 19.1 L60.55 18.9 60.55 4.35 55.65 4.35 55.65 0.2 70.9 0.25 71.1 4.45 65.45 4.55 65.45 19.1" fill="#ffffff" fill-rule="evenodd" stroke="none"/>
    <path d="M90.2 4.05 L79.25 4.05 79.25 7.5 89.15 7.55 89.2 11.55 79.4 11.8 79.25 15.1 90.35 15.1 90.35 19.05 74.75 19.05 74.75 0.3 90.35 0.3 90.2 4.05" fill="#ffffff" fill-rule="evenodd" stroke="none"/>
    <path d="M108.75 0.35 L108.55 19.05 102.6 19.05 97.8 11.45 97.8 19.05 93.5 19.05 93.6 0.55 97.8 0.5 104.15 10.35 104.15 0.45 108.75 0.35" fill="#ffffff" fill-rule="evenodd" stroke="none"/>
    <path d="M15.15 6.55 L15.85 11.7 15.85 13.25 15.65 14.5 15.4 15.3 14.95 16.35 Q14.65 17.05 14.15 17.4 L12.65 18.25 9.0 18.85 5.9 18.85 4.5 18.55 Q3.8 18.35 3.35 17.9 L2.2 16.8 1.35 15.35 0.7 13.25 Q0.45 12.05 0.35 10.1 L0.4 8.2 0.95 4.8 Q1.15 4.1 1.65 3.25 1.95 2.6 2.65 2.05 L4.35 1.2 6.1 0.55 8.2 0.2 9.65 0.05 10.95 0.05 11.2 3.5 Q9.4 3.25 8.35 3.5 L7.2 3.75 6.1 4.35 Q5.55 4.75 5.15 5.3 4.65 6.0 4.55 6.6 L4.1 9.0 4.05 10.85 Q4.15 11.95 4.4 12.75 4.8 13.75 5.5 14.3 6.3 15.0 7.45 15.15 L8.05 15.25 10.2 15.1 11.15 14.8 Q11.65 14.5 11.9 13.8 L12.25 12.25 Q12.4 11.05 12.15 9.7 L8.2 9.85 8.0 6.95 12.4 6.6 13.6 6.55 14.55 6.5 15.15 6.55" fill="#ffffff" fill-rule="evenodd" stroke="none"/>
    <path d="M25.35 5.45 Q25.1 6.2 25.1 7.8 L28.55 7.8 28.6 5.95 28.15 4.55 Q27.8 4.0 27.0 4.0 L26.55 4.0 Q26.1 4.1 25.85 4.35 L25.35 5.45 M25.15 10.35 L24.6 19.05 18.8 19.05 23.25 0.35 30.45 0.35 34.4 19.05 28.5 19.05 28.5 10.45 25.15 10.35" fill="#ffffff" fill-rule="evenodd" stroke="none"/>
    <path d="M52.35 2.1 L52.55 2.95 52.6 3.7 52.35 5.75 51.6 7.0 50.6 7.7 49.55 7.85 48.2 7.85 Q49.35 7.85 49.9 8.25 L51.0 9.05 Q51.45 9.7 51.5 10.25 L52.6 18.9 47.65 18.9 46.45 10.55 41.55 10.55 41.55 18.9 37.2 18.75 37.1 0.8 46.15 0.35 48.9 0.35 50.75 0.75 Q51.45 1.0 51.8 1.35 L52.35 2.1 M48.1 3.25 L47.05 3.1 41.55 3.3 41.45 5.75 47.1 5.75 48.2 5.55 48.85 5.25 49.1 4.85 49.15 4.45 48.85 3.6 48.1 3.25" fill="#ffffff" fill-rule="evenodd" stroke="none"/>
    <path d="M65.45 19.1 L60.55 18.9 60.55 4.35 55.65 4.35 55.65 0.2 70.9 0.25 71.1 4.45 65.45 4.55 65.45 19.1" fill="#ffffff" fill-rule="evenodd" stroke="none"/>
    <path d="M90.2 4.05 L79.25 4.05 79.25 7.5 89.15 7.55 89.2 11.55 79.4 11.8 79.25 15.1 90.35 15.1 90.35 19.05 74.75 19.05 74.75 0.3 90.35 0.3 90.2 4.05" fill="#ffffff" fill-rule="evenodd" stroke="none"/>
    <path d="M108.75 0.35 L108.55 19.05 102.6 19.05 97.8 11.45 97.8 19.05 93.5 19.05 93.6 0.55 97.8 0.5 104.15 10.35 104.15 0.45 108.75 0.35" fill="#ffffff" fill-rule="evenodd" stroke="none"/>
    <path d="M-13.65 24.9 L-9.8 24.8 -7.15 25.15 Q-6.1 25.5 -5.6 25.8 L-4.75 26.35 -3.2 27.85 -2.0 29.35 -0.75 31.6 Q-0.35 32.85 -0.3 33.4 -0.15 33.95 -0.15 34.95 L-0.35 37.15 Q-0.55 38.7 -1.0 39.55 L-1.95 40.9 -2.95 41.65 -3.55 41.95 Q-4.4 42.55 -5.25 42.8 L-6.9 43.2 -8.7 43.4 -15.7 43.4 -15.7 25.0 -13.65 24.9 M-7.05 29.6 L-9.25 29.4 -11.25 29.4 -11.25 39.45 -8.05 39.45 Q-6.95 39.35 -6.15 38.85 -5.7 38.65 -5.45 38.3 L-4.9 37.45 Q-4.55 36.9 -4.5 36.3 L-4.45 34.7 -4.5 32.85 -4.9 31.6 Q-5.1 30.95 -5.65 30.4 -6.15 29.9 -7.05 29.6" fill="#ffffff" fill-rule="evenodd" stroke="none"/>
    <path d="M17.8 28.35 L6.85 28.35 6.85 31.8 16.65 31.9 16.8 35.85 7.0 36.1 6.85 39.45 17.95 39.45 17.95 43.35 2.35 43.35 2.35 24.6 17.95 24.6 17.8 28.35" fill="#ffffff" fill-rule="evenodd" stroke="none"/>
    <path d="M26.9 24.4 L29.55 24.5 30.9 24.9 31.8 25.8 Q32.2 26.3 32.2 27.15 L32.3 30.9 29.05 30.85 29.0 28.1 27.1 28.1 Q26.85 29.0 26.9 29.55 26.9 30.05 27.25 31.1 27.55 31.95 28.35 32.9 L29.05 33.45 30.2 34.35 31.25 35.8 Q31.75 36.6 31.75 37.85 L31.9 39.45 31.7 40.8 31.05 42.05 29.95 42.95 Q29.2 43.35 28.0 43.35 L24.0 43.35 22.5 43.1 21.5 42.15 Q21.05 41.45 21.05 40.1 L20.95 37.15 23.5 37.1 23.5 40.45 25.9 40.45 26.05 38.8 25.6 37.1 Q25.3 36.15 24.2 35.05 L23.0 32.9 22.45 31.35 22.2 29.6 Q22.15 28.25 22.5 27.05 L22.9 26.1 Q23.15 25.65 23.65 25.3 L24.65 24.75 26.1 24.5 26.9 24.4" fill="#ffffff" fill-rule="evenodd" stroke="none"/>
    <path d="M-13.65 24.9 L-9.8 24.8 -7.15 25.15 Q-6.1 25.5 -5.6 25.8 L-4.75 26.35 -3.2 27.85 -2.0 29.35 -0.75 31.6 Q-0.35 32.85 -0.3 33.4 -0.15 33.95 -0.15 34.95 L-0.35 37.15 Q-0.55 38.7 -1.0 39.55 L-1.95 40.9 -2.95 41.65 -3.55 41.95 Q-4.4 42.55 -5.25 42.8 L-6.9 43.2 -8.7 43.4 -15.7 43.4 -15.7 25.0 -13.65 24.9 M-7.05 29.6 L-9.25 29.4 -11.25 29.4 -11.25 39.45 -8.05 39.45 Q-6.95 39.35 -6.15 38.85 -5.7 38.65 -5.45 38.3 L-4.9 37.45 Q-4.55 36.9 -4.5 36.3 L-4.45 34.7 -4.5 32.85 -4.9 31.6 Q-5.1 30.95 -5.65 30.4 -6.15 29.9 -7.05 29.6" fill="#ffffff" fill-rule="evenodd" stroke="none"/>
    <path d="M17.8 28.35 L6.85 28.35 6.85 31.8 16.65 31.9 16.8 35.85 7.0 36.1 6.85 39.45 17.95 39.45 17.95 43.35 2.35 43.35 2.35 24.6 17.95 24.6 17.8 28.35" fill="#ffffff" fill-rule="evenodd" stroke="none"/>
    <path d="M26.9 24.4 L29.55 24.5 30.9 24.9 31.8 25.8 Q32.2 26.3 32.2 27.15 L32.3 30.9 29.05 30.85 29.0 28.1 27.1 28.1 Q26.85 29.0 26.9 29.55 26.9 30.05 27.25 31.1 27.55 31.95 28.35 32.9 L29.05 33.45 30.2 34.35 31.25 35.8 Q31.75 36.6 31.75 37.85 L31.9 39.45 31.7 40.8 31.05 42.05 29.95 42.95 Q29.2 43.35 28.0 43.35 L24.0 43.35 22.5 43.1 21.5 42.15 Q21.05 41.45 21.05 40.1 L20.95 37.15 23.5 37.1 23.5 40.45 25.9 40.45 26.05 38.8 25.6 37.1 Q25.3 36.15 24.2 35.05 L23.0 32.9 22.45 31.35 22.2 29.6 Q22.15 28.25 22.5 27.05 L22.9 26.1 Q23.15 25.65 23.65 25.3 L24.65 24.75 26.1 24.5 26.9 24.4" fill="#ffffff" fill-rule="evenodd" stroke="none"/>
    <path d="M59.5 24.65 L59.5 28.65 50.35 28.65 50.35 31.7 55.35 31.4 55.4 35.1 50.35 35.4 50.4 43.35 45.15 43.35 45.15 24.9 59.5 24.65" fill="#ffffff" fill-rule="evenodd" stroke="none"/>
    <path d="M68.65 29.8 Q68.4 30.8 68.4 32.1 L71.85 32.1 71.9 30.2 71.5 28.9 Q71.25 28.3 70.35 28.3 L69.85 28.35 Q69.65 28.35 69.2 28.65 L68.65 29.8 M73.75 24.65 L77.7 43.35 71.85 43.35 71.85 34.7 68.45 34.7 67.95 43.35 62.1 43.35 66.65 24.65 73.75 24.65" fill="#ffffff" fill-rule="evenodd" stroke="none"/>
    <path d="M93.05 24.75 L93.05 34.85 Q93.05 37.05 92.4 39.1 L91.7 40.65 90.6 42.05 Q89.9 42.6 89.0 42.95 88.2 43.35 86.95 43.35 L86.3 43.3 85.1 43.05 83.6 42.3 82.1 40.85 80.95 38.4 Q80.55 37.05 80.55 34.7 L80.55 24.75 84.85 24.6 84.85 33.65 85.1 35.8 85.75 37.15 Q86.15 37.85 86.95 37.85 L87.3 37.8 87.9 37.3 88.45 36.05 88.7 33.45 88.7 24.65 93.05 24.75" fill="#ffffff" fill-rule="evenodd" stroke="none"/>
    <path d="M101.2 24.8 L107.55 34.7 107.6 24.8 112.15 24.65 111.95 43.35 106.0 43.35 101.2 35.7 101.2 43.35 96.85 43.35 97.0 24.9 101.2 24.8" fill="#ffffff" fill-rule="evenodd" stroke="none"/>
    <path d="M124.15 24.4 L125.55 24.5 126.85 24.9 Q127.4 25.15 127.8 25.8 128.2 26.3 128.2 27.15 L128.3 30.9 125.05 30.85 124.95 28.1 123.1 28.1 Q122.85 29.0 122.9 29.55 L123.2 31.1 Q123.5 31.95 124.35 32.9 L125.05 33.45 Q125.8 33.95 126.15 34.35 L127.25 35.8 Q127.75 36.6 127.75 37.85 L127.85 39.45 127.65 40.8 127.05 42.05 125.9 42.95 123.95 43.35 120.0 43.35 118.5 43.1 117.5 42.15 Q117.05 41.45 117.05 40.1 L116.95 37.15 119.5 37.1 119.5 40.45 121.9 40.45 122.1 38.8 121.6 37.1 Q121.25 36.15 120.2 35.05 L119.0 32.9 118.45 31.35 118.2 29.6 Q118.1 28.25 118.5 27.05 L118.95 26.1 119.65 25.3 120.65 24.75 122.1 24.5 124.15 24.4" fill="#ffffff" fill-rule="evenodd" stroke="none"/>
    <path d="M59.5 24.65 L59.5 28.65 50.35 28.65 50.35 31.7 55.35 31.4 55.4 35.1 50.35 35.4 50.4 43.35 45.15 43.35 45.15 24.9 59.5 24.65" fill="#ffffff" fill-rule="evenodd" stroke="none"/>
    <path d="M68.65 29.8 Q68.4 30.8 68.4 32.1 L71.85 32.1 71.9 30.2 71.5 28.9 Q71.25 28.3 70.35 28.3 L69.85 28.35 Q69.65 28.35 69.2 28.65 L68.65 29.8 M73.75 24.65 L77.7 43.35 71.85 43.35 71.85 34.7 68.45 34.7 67.95 43.35 62.1 43.35 66.65 24.65 73.75 24.65" fill="#ffffff" fill-rule="evenodd" stroke="none"/>
    <path d="M93.05 24.75 L93.05 34.85 Q93.05 37.05 92.4 39.1 L91.7 40.65 90.6 42.05 Q89.9 42.6 89.0 42.95 88.2 43.35 86.95 43.35 L86.3 43.3 85.1 43.05 83.6 42.3 82.1 40.85 80.95 38.4 Q80.55 37.05 80.55 34.7 L80.55 24.75 84.85 24.6 84.85 33.65 85.1 35.8 85.75 37.15 Q86.15 37.85 86.95 37.85 L87.3 37.8 87.9 37.3 88.45 36.05 88.7 33.45 88.7 24.65 93.05 24.75" fill="#ffffff" fill-rule="evenodd" stroke="none"/>
    <path d="M101.2 24.8 L107.55 34.7 107.6 24.8 112.15 24.65 111.95 43.35 106.0 43.35 101.2 35.7 101.2 43.35 96.85 43.35 97.0 24.9 101.2 24.8" fill="#ffffff" fill-rule="evenodd" stroke="none"/>
    <path d="M124.15 24.4 L125.55 24.5 126.85 24.9 Q127.4 25.15 127.8 25.8 128.2 26.3 128.2 27.15 L128.3 30.9 125.05 30.85 124.95 28.1 123.1 28.1 Q122.85 29.0 122.9 29.55 L123.2 31.1 Q123.5 31.95 124.35 32.9 L125.05 33.45 Q125.8 33.95 126.15 34.35 L127.25 35.8 Q127.75 36.6 127.75 37.85 L127.85 39.45 127.65 40.8 127.05 42.05 125.9 42.95 123.95 43.35 120.0 43.35 118.5 43.1 117.5 42.15 Q117.05 41.45 117.05 40.1 L116.95 37.15 119.5 37.1 119.5 40.45 121.9 40.45 122.1 38.8 121.6 37.1 Q121.25 36.15 120.2 35.05 L119.0 32.9 118.45 31.35 118.2 29.6 Q118.1 28.25 118.5 27.05 L118.95 26.1 119.65 25.3 120.65 24.75 122.1 24.5 124.15 24.4" fill="#ffffff" fill-rule="evenodd" stroke="none"/>
  </g>
</svg>
