<?xml version="1.0" encoding="UTF-8" standalone="no"?>
<svg xmlns:xlink="http://www.w3.org/1999/xlink" height="156.45px" width="207.3px" xmlns="http://www.w3.org/2000/svg">
  <g transform="matrix(1.0, 0.0, 0.0, 1.0, 113.55, 82.7)">
    <path d="M18.05 -55.55 L60.5 -55.55 57.65 -28.65 60.5 -4.35 93.75 -1.75 89.5 27.75 55.5 46.0 19.45 59.0 -24.4 73.75 -81.75 53.8 -112.15 40.75 -113.55 -8.7 -99.05 -14.35 Q-83.85 -20.0 -80.3 -20.0 -76.35 -20.0 -69.35 -26.85 -62.8 -33.15 -60.5 -38.2 -57.65 -44.3 -52.55 -52.4 -46.3 -62.2 -43.5 -63.35 -42.95 -63.6 -38.95 -69.25 -34.65 -75.4 -29.95 -78.55 -14.3 -89.1 11.65 -72.9 15.55 -66.95 17.2 -60.65 L18.05 -55.55" fill="#0033cc" fill-opacity="0.0" fill-rule="evenodd" stroke="none"/>
    <path d="M91.7 28.5 L60.25 39.25 26.4 31.0 19.3 32.95 29.55 39.25 2.05 50.0 -38.1 41.7 -23.9 33.9 Q-27.85 31.7 -32.15 29.6 -40.85 25.3 -42.8 25.6 -44.75 25.9 -54.6 28.5 L-64.05 31.0 -68.75 28.5 -91.55 22.7 -93.15 21.75 Q-94.75 20.65 -94.75 19.75 L-95.5 1.2 -89.4 -0.7 Q-82.7 -2.55 -79.75 -2.2 -76.8 -1.9 -67.0 -3.5 L-57.75 -5.15 -53.05 -10.5 -49.1 -12.0 -39.65 -17.3 -30.25 -13.4 -25.5 -13.4 -21.55 -24.15 -12.1 -26.1 -9.75 -17.8 -7.4 -25.6 -3.5 -25.1 -0.3 -19.3 4.4 -29.55 16.2 -26.6 25.65 -21.7 33.5 -20.75 40.6 -21.7 53.95 -18.3 53.95 -15.9 61.8 -13.9 75.2 -14.9 78.35 0.75 67.3 8.05 93.25 16.8 91.7 28.5" fill="#999999" fill-rule="evenodd" stroke="none"/>
  </g>
</svg>
