<?xml version="1.0" encoding="UTF-8" standalone="no"?>
<svg xmlns:xlink="http://www.w3.org/1999/xlink" height="135.55px" width="322.65px" xmlns="http://www.w3.org/2000/svg">
  <g transform="matrix(1.0, 0.0, 0.0, 1.0, 0.0, 0.0)">
    <path d="M268.6 26.65 L291.3 7.15 296.75 51.55 278.0 64.05 322.65 61.35 319.5 98.95 265.95 117.25 216.85 101.6 215.9 99.65 214.95 117.4 166.8 135.55 98.5 121.4 98.35 102.2 Q101.35 101.75 102.1 100.15 103.5 97.0 92.05 91.45 89.0 90.0 71.35 96.4 62.5 99.6 54.3 103.1 L46.25 98.95 7.4 89.0 Q3.45 84.6 1.4 83.2 -0.15 82.1 0.0 58.8 0.05 47.15 0.45 35.7 L10.95 40.85 Q22.45 46.05 27.5 46.6 32.5 47.1 49.25 44.4 L65.0 41.6 73.05 32.45 79.75 29.95 95.8 20.8 111.9 27.45 119.9 27.45 126.6 9.15 142.7 5.85 146.7 20.0 150.75 6.65 157.45 7.5 162.8 17.5 170.85 0.0 190.9 5.0 207.0 13.3 220.4 15.0 232.45 13.3 255.2 19.15 255.2 23.3 268.6 26.65" fill="#974c27" fill-rule="evenodd" stroke="none"/>
  </g>
</svg>
