<?xml version="1.0" encoding="UTF-8" standalone="no"?>
<svg xmlns:xlink="http://www.w3.org/1999/xlink" height="140.3px" width="322.05px" xmlns="http://www.w3.org/2000/svg">
  <g transform="matrix(1.0, 0.0, 0.0, 1.0, 0.0, 0.0)">
    <path d="M268.45 26.6 L291.25 24.95 296.6 51.55 277.85 64.05 322.05 79.0 319.35 103.7 265.8 122.0 208.2 107.85 200.85 109.15 217.95 119.95 166.65 140.3 96.95 123.75 117.2 111.05 Q111.8 107.75 105.75 104.6 93.65 98.2 90.3 98.7 86.95 99.25 70.2 103.6 L54.15 107.85 46.1 103.7 7.25 93.7 Q5.45 92.95 3.65 91.9 0.0 89.8 0.0 88.25 L0.55 52.4 10.95 49.2 Q22.3 46.05 27.35 46.55 32.35 47.1 49.1 44.4 L64.85 41.6 72.9 32.45 79.6 29.95 95.65 20.8 111.75 27.45 119.75 27.45 126.45 9.15 142.55 5.85 146.55 19.95 150.6 6.65 157.3 7.5 162.65 17.45 170.7 0.0 190.75 5.0 206.85 13.3 220.25 15.0 232.3 13.3 255.05 19.15 255.05 23.3 268.45 26.6" fill="#bf7b24" fill-rule="evenodd" stroke="none"/>
  </g>
</svg>
