<?xml version="1.0" encoding="UTF-8" standalone="no"?>
<svg xmlns:xlink="http://www.w3.org/1999/xlink" height="34.05px" width="108.15px" xmlns="http://www.w3.org/2000/svg">
  <g transform="matrix(1.0, 0.0, 0.0, 1.0, 0.0, -3.5)">
    <path d="M9.25 7.75 L6.75 7.75 6.75 6.85 6.1 6.85 6.1 15.0 6.75 15.0 6.75 18.35 2.45 18.35 2.45 15.0 3.1 15.0 3.1 6.85 2.45 6.85 2.45 7.75 0.0 7.75 0.0 3.5 9.25 3.5 9.25 7.75" fill="#ffffff" fill-rule="evenodd" stroke="none"/>
    <path d="M19.25 6.85 L19.25 15.95 17.5 18.35 12.7 18.35 10.95 15.95 10.95 6.85 10.3 6.85 10.3 3.5 14.6 3.5 14.6 6.85 13.95 6.85 13.95 14.5 14.3 15.0 15.9 15.0 16.25 14.5 16.25 6.85 15.55 6.85 15.55 3.5 19.9 3.5 19.9 6.85 19.25 6.85" fill="#ffffff" fill-rule="evenodd" stroke="none"/>
    <path d="M33.05 15.0 L33.05 18.35 28.75 18.35 28.75 15.0 29.4 15.0 29.4 11.15 27.0 16.5 24.65 11.15 24.65 15.0 25.3 15.0 25.3 18.35 21.0 18.35 21.0 15.0 21.65 15.0 21.65 6.85 21.0 6.85 21.0 3.5 24.5 3.5 27.0 9.25 29.55 3.5 33.05 3.5 33.05 6.85 32.4 6.85 32.4 15.0 33.05 15.0" fill="#ffffff" fill-rule="evenodd" stroke="none"/>
    <path d="M42.85 11.6 L42.85 15.95 41.1 18.35 34.35 18.35 34.35 15.0 35.0 15.0 35.0 6.85 34.35 6.85 34.35 3.5 41.1 3.5 42.85 5.9 42.85 9.7 42.15 10.65 42.85 11.6 M39.85 7.35 L39.5 6.85 38.0 6.85 38.0 9.0 39.5 9.0 39.85 8.5 39.85 7.35 M39.5 12.3 L38.0 12.3 38.0 15.0 39.5 15.0 39.85 14.5 39.85 12.8 39.5 12.3" fill="#ffffff" fill-rule="evenodd" stroke="none"/>
    <path d="M47.8 6.85 L47.8 15.0 49.8 15.0 49.8 14.1 52.25 14.1 52.25 18.35 44.15 18.35 44.15 15.0 44.8 15.0 44.8 6.85 44.15 6.85 44.15 3.5 48.45 3.5 48.45 6.85 47.8 6.85" fill="#ffffff" fill-rule="evenodd" stroke="none"/>
    <path d="M61.35 7.45 L58.9 7.45 58.9 6.85 57.0 6.85 57.0 9.25 57.4 9.25 57.4 8.65 59.85 8.65 59.85 13.2 57.4 13.2 57.4 12.6 57.0 12.6 57.0 15.0 58.9 15.0 58.9 14.4 61.35 14.4 61.35 18.35 53.35 18.35 53.35 15.0 54.0 15.0 54.0 6.85 53.35 6.85 53.35 3.5 61.35 3.5 61.35 7.45" fill="#ffffff" fill-rule="evenodd" stroke="none"/>
    <path d="M79.9 6.85 L79.0 6.85 77.0 15.0 77.35 15.0 77.35 18.35 71.8 18.35 71.8 15.0 72.15 15.0 71.25 11.45 70.4 15.0 70.75 15.0 70.75 18.35 65.15 18.35 65.15 15.0 65.55 15.0 63.55 6.85 62.65 6.85 62.65 3.5 67.2 3.5 67.2 6.85 66.8 6.85 68.0 11.75 69.15 6.85 68.85 6.85 68.85 3.5 73.7 3.5 73.7 6.85 73.35 6.85 74.55 11.75 75.75 6.85 75.4 6.85 75.4 3.5 79.9 3.5 79.9 6.85" fill="#ffffff" fill-rule="evenodd" stroke="none"/>
    <path d="M88.95 7.45 L86.5 7.45 86.5 6.85 84.6 6.85 84.6 9.25 85.05 9.25 85.05 8.65 87.5 8.65 87.5 13.2 85.05 13.2 85.05 12.6 84.6 12.6 84.6 15.0 86.5 15.0 86.5 14.4 88.95 14.4 88.95 18.35 80.95 18.35 80.95 15.0 81.6 15.0 81.6 6.85 80.95 6.85 80.95 3.5 88.95 3.5 88.95 7.45" fill="#ffffff" fill-rule="evenodd" stroke="none"/>
    <path d="M98.3 7.45 L95.85 7.45 95.85 6.85 93.95 6.85 93.95 9.25 94.4 9.25 94.4 8.65 96.85 8.65 96.85 13.2 94.4 13.2 94.4 12.6 93.95 12.6 93.95 15.0 95.85 15.0 95.85 14.4 98.3 14.4 98.3 18.35 90.3 18.35 90.3 15.0 90.95 15.0 90.95 6.85 90.3 6.85 90.3 3.5 98.3 3.5 98.3 7.45" fill="#ffffff" fill-rule="evenodd" stroke="none"/>
    <path d="M108.15 5.9 L108.15 15.95 106.4 18.35 99.65 18.35 99.65 15.0 100.3 15.0 100.3 6.85 99.65 6.85 99.65 3.5 106.4 3.5 108.15 5.9 M103.3 6.85 L103.3 15.0 104.8 15.0 105.15 14.5 105.15 7.35 104.8 6.85 103.3 6.85" fill="#ffffff" fill-rule="evenodd" stroke="none"/>
    <path d="M21.15 25.95 L22.7 30.95 24.25 25.95 23.75 25.95 23.75 22.6 29.45 22.6 29.45 25.95 28.25 25.95 25.7 34.15 26.4 34.15 26.4 37.55 19.05 37.55 19.05 34.15 19.65 34.15 17.15 25.95 16.05 25.95 16.05 22.6 21.6 22.6 21.6 25.95 21.15 25.95" fill="#ffffff" fill-rule="evenodd" stroke="none"/>
    <path d="M44.65 37.55 L39.3 37.55 39.3 34.15 39.8 34.15 39.6 33.5 35.9 33.5 35.7 34.15 36.15 34.15 36.15 37.55 30.85 37.55 30.85 34.15 31.7 34.15 34.75 25.95 34.15 25.95 34.15 22.6 41.45 22.6 41.45 25.95 40.75 25.95 43.8 34.15 44.65 34.15 44.65 37.55 M38.65 30.6 L37.75 28.3 36.85 30.6 38.65 30.6" fill="#ffffff" fill-rule="evenodd" stroke="none"/>
    <path d="M50.65 25.95 L50.65 34.15 53.1 34.15 53.1 33.3 56.25 33.3 56.25 37.55 46.0 37.55 46.0 34.15 46.85 34.15 46.85 25.95 46.0 25.95 46.0 22.6 51.45 22.6 51.45 25.95 50.65 25.95" fill="#ffffff" fill-rule="evenodd" stroke="none"/>
    <path d="M62.25 25.95 L62.25 34.15 64.75 34.15 64.75 33.3 67.85 33.3 67.85 37.55 57.6 37.55 57.6 34.15 58.45 34.15 58.45 25.95 57.6 25.95 57.6 22.6 63.05 22.6 63.05 25.95 62.25 25.95" fill="#ffffff" fill-rule="evenodd" stroke="none"/>
    <path d="M77.5 27.8 L77.5 32.35 74.4 32.35 74.4 31.75 73.85 31.75 73.85 34.15 76.3 34.15 76.3 33.55 79.4 33.55 79.4 37.55 69.25 37.55 69.25 34.15 70.05 34.15 70.05 25.95 69.25 25.95 69.25 22.6 79.4 22.6 79.4 26.55 76.3 26.55 76.3 25.95 73.85 25.95 73.85 28.4 74.4 28.4 74.4 27.8 77.5 27.8" fill="#ffffff" fill-rule="evenodd" stroke="none"/>
    <path d="M81.05 25.95 L81.05 22.6 87.7 22.6 87.7 25.95 87.1 25.95 88.75 27.75 90.4 25.95 89.85 25.95 89.85 22.6 96.2 22.6 96.2 25.95 95.15 25.95 90.65 30.8 90.65 34.15 91.45 34.15 91.45 37.55 86.0 37.55 86.0 34.15 86.85 34.15 86.85 30.8 82.4 25.95 81.05 25.95" fill="#ffffff" fill-rule="evenodd" stroke="none"/>
  </g>
</svg>
