<?xml version="1.0" encoding="UTF-8" standalone="no"?>
<svg xmlns:xlink="http://www.w3.org/1999/xlink" height="48.0px" width="151.2px" xmlns="http://www.w3.org/2000/svg">
  <g transform="matrix(1.0, 0.0, 0.0, 1.0, 0.0, 0.0)">
    <path d="M131.05 42.05 Q143.0 39.5 151.2 35.05 134.15 45.65 110.6 47.55 90.2 49.25 66.85 44.3 58.7 42.55 53.15 40.5 45.65 37.7 40.8 33.65 34.65 28.1 31.5 25.65 26.1 21.35 20.85 19.75 L12.1 17.45 Q6.9 16.05 3.7 14.1 -2.45 10.35 1.6 0.0 2.15 3.3 3.25 6.3 4.25 9.05 4.95 9.55 17.55 18.25 40.2 14.9 L56.25 12.4 Q64.4 11.45 68.45 13.35 L68.6 13.4 61.25 19.75 Q57.25 23.55 58.2 25.9 57.7 28.85 58.5 32.8 59.3 36.75 60.7 38.6 L61.65 39.15 Q67.7 42.2 81.1 44.0 95.0 45.9 109.75 45.45 125.35 43.25 131.05 42.05" fill="url(#gradient0)" fill-rule="evenodd" stroke="none"/>
  </g>
  <defs>
    <linearGradient gradientTransform="matrix(0.0, 0.0396, 0.0396, 0.0, 75.6, 29.3)" gradientUnits="userSpaceOnUse" id="gradient0" spreadMethod="pad" x1="-819.2" x2="819.2">
      <stop offset="0.0" stop-color="#10aded"/>
      <stop offset="1.0" stop-color="#bae5fb"/>
    </linearGradient>
  </defs>
</svg>
