<?xml version="1.0" encoding="UTF-8" standalone="no"?>
<svg xmlns:xlink="http://www.w3.org/1999/xlink" height="69.65px" width="164.85px" xmlns="http://www.w3.org/2000/svg">
  <g transform="matrix(1.0, 0.0, 0.0, 1.0, 0.0, 0.0)">
    <path d="M163.2 24.8 Q166.8 33.35 162.45 43.6 158.75 52.35 150.95 59.3 138.75 70.2 104.05 69.6 90.55 69.35 77.7 67.35 65.6 65.45 59.95 63.0 55.15 60.9 56.7 57.55 57.75 55.4 62.7 51.3 67.95 46.95 69.0 45.25 70.95 42.15 66.75 40.4 62.7 38.75 54.55 39.6 L38.5 41.8 Q15.85 44.7 3.25 37.1 0.85 35.65 0.0 33.95 L2.65 28.4 Q2.95 27.85 4.2 26.6 L5.9 25.1 Q26.45 11.55 52.35 4.95 74.35 -0.6 94.25 0.1 153.7 2.2 163.2 24.8" fill="url(#gradient0)" fill-rule="evenodd" stroke="none"/>
  </g>
  <defs>
    <linearGradient gradientTransform="matrix(0.0, 0.0402, 0.0402, 0.0, 82.4, 37.85)" gradientUnits="userSpaceOnUse" id="gradient0" spreadMethod="pad" x1="-819.2" x2="819.2">
      <stop offset="0.0" stop-color="#ffe69f"/>
      <stop offset="1.0" stop-color="#fab03e"/>
    </linearGradient>
  </defs>
</svg>
