<?xml version="1.0" encoding="UTF-8" standalone="no"?>
<svg xmlns:xlink="http://www.w3.org/1999/xlink" height="12.15px" width="90.95px" xmlns="http://www.w3.org/2000/svg">
  <g transform="matrix(1.0, 0.0, 0.0, 1.0, 0.0, 0.0)">
    <path d="M41.1 7.6 L46.3 7.0 54.45 6.35 62.55 5.15 77.4 1.75 Q87.6 0.4 90.95 5.4 84.7 7.9 75.1 9.0 L58.75 10.5 39.55 12.15 Q24.4 12.25 23.55 6.6 L25.05 5.5 Q21.7 3.1 13.05 3.15 3.45 3.65 0.0 3.45 0.8 1.8 2.75 1.0 4.6 0.2 6.5 0.6 L6.15 1.25 9.0 0.0 Q10.0 2.15 14.7 2.55 L22.0 2.5 29.3 3.2 36.4 3.6 36.2 5.25 36.1 6.95 Q37.95 7.85 41.1 7.6" fill="#ffe69f" fill-rule="evenodd" stroke="none"/>
  </g>
</svg>
