<?xml version="1.0" encoding="UTF-8" standalone="no"?>
<svg xmlns:xlink="http://www.w3.org/1999/xlink" height="100.35px" width="118.0px" xmlns="http://www.w3.org/2000/svg">
  <g transform="matrix(1.0, 0.0, 0.0, 1.0, 57.05, 48.55)">
    <path d="M-24.25 43.65 Q-21.75 37.4 -21.8 29.8 -21.95 14.6 -34.8 7.75 L-33.95 5.95 -30.55 8.05 Q-26.55 10.8 -23.6 14.6 -14.1 26.7 -18.45 44.1 L-24.25 43.65" fill="url(#gradient0)" fill-rule="evenodd" stroke="none"/>
    <path d="M-35.25 8.5 L-35.9 8.15 -34.35 4.9 -33.6 5.25 -30.0 7.4 Q-25.95 10.35 -22.9 14.25 -13.25 26.7 -17.65 44.3 L-17.8 45.0 -25.4 44.35 -25.0 43.35 Q-22.6 37.15 -22.7 29.75 -22.9 15.0 -35.25 8.5 M-33.6 7.05 L-33.75 7.45 Q-22.35 13.8 -21.2 27.15 -20.45 34.8 -23.1 42.9 L-19.1 43.2 Q-15.5 28.0 -22.8 16.95 -27.0 10.6 -33.6 7.05" fill="#603814" fill-rule="evenodd" stroke="none"/>
    <path d="M-21.9 27.5 L-22.45 23.75 Q-20.9 22.6 -19.7 21.1 -18.55 23.75 -17.85 26.8 L-21.9 27.5" fill="#603814" fill-rule="evenodd" stroke="none"/>
    <path d="M-23.9 42.8 Q-22.8 39.25 -22.2 35.65 L-17.15 34.95 Q-17.25 37.75 -17.65 40.35 -20.3 42.2 -23.9 42.8" fill="#603814" fill-rule="evenodd" stroke="none"/>
    <path d="M-47.4 -6.95 L-44.9 -7.15 -43.9 -6.0 -43.45 -5.25 -43.2 -5.35 -44.15 -7.1 Q-41.6 -6.75 -40.0 -5.15 L-40.25 -3.85 -40.45 -3.3 -40.25 -3.2 Q-39.75 -3.85 -39.55 -4.6 -38.45 -3.25 -37.85 -1.35 -37.75 -2.7 -36.8 -4.3 L-36.1 -2.85 -35.85 -2.95 -36.4 -4.9 Q-35.0 -6.95 -32.4 -8.2 L-33.05 -5.65 -32.8 -5.6 -31.95 -7.8 -31.5 -8.55 -27.45 -9.6 -28.9 -7.45 -28.6 -7.3 -26.0 -9.7 -20.75 -9.55 -22.35 -7.05 -23.85 -5.55 -26.8 -6.0 -26.85 -5.7 -24.85 -5.05 -27.05 -4.4 -29.3 -3.9 -29.35 -3.85 -31.4 -4.35 -31.5 -4.15 -30.15 -3.55 -33.0 -2.0 -34.6 -1.95 -34.6 -1.65 -33.6 -1.55 -34.8 0.15 -32.95 -0.95 Q-30.65 -2.1 -28.25 -2.55 L-29.55 -1.3 -29.35 -1.1 Q-28.75 -1.65 -27.4 -2.45 L-26.95 -2.75 -23.4 -2.6 -24.4 -1.7 -24.25 -1.4 -22.65 -2.4 Q-21.2 -2.05 -19.75 -1.1 L-21.1 -0.5 -20.95 -0.25 -19.05 -0.65 Q-16.75 1.0 -14.85 4.25 -17.85 2.75 -21.6 2.55 L-21.95 2.2 -23.15 0.95 -23.3 1.1 -22.35 2.5 -24.55 2.65 Q-24.85 2.3 -25.85 1.7 L-26.05 1.9 -25.2 2.75 -27.05 3.3 -26.45 3.4 Q-25.75 3.65 -25.0 4.25 L-26.7 4.9 -26.65 5.15 -25.0 4.8 -24.5 4.75 Q-23.8 5.45 -23.25 6.65 L-24.5 6.65 -24.5 6.95 Q-23.75 7.0 -23.0 7.35 L-22.95 7.4 Q-21.8 10.15 -21.45 14.3 -22.25 13.1 -23.5 11.8 L-23.45 9.95 -23.7 9.9 -23.95 11.35 -25.75 9.8 -26.3 7.85 -26.6 7.9 -26.35 9.4 Q-27.55 8.6 -28.45 8.35 L-29.15 6.65 -29.4 6.75 -29.15 8.2 -31.05 8.35 -30.3 10.35 -31.3 10.1 -31.4 10.35 -30.05 11.0 Q-29.7 12.45 -29.65 14.05 L-30.8 13.4 -30.9 13.65 -29.65 14.8 Q-29.75 16.95 -30.1 18.8 -31.45 18.0 -33.0 15.85 L-32.55 14.05 -32.75 13.9 -33.45 15.2 -35.05 12.1 -34.95 11.6 -34.3 9.8 -34.55 9.7 -35.4 11.25 -36.1 9.05 -36.4 9.6 -37.0 11.05 -38.55 10.1 -38.65 10.35 -38.05 10.7 -37.15 11.65 -37.4 13.8 -39.05 12.65 -39.15 12.8 -38.65 13.2 -37.45 14.45 -37.45 14.5 -37.25 17.45 Q-38.15 16.8 -39.0 16.4 L-39.1 16.65 Q-38.3 17.1 -37.1 18.65 -36.9 19.35 -36.95 20.5 -37.0 22.1 -37.6 23.4 -39.35 22.3 -40.8 19.8 L-40.65 18.35 -40.9 18.3 -41.2 19.1 Q-41.95 17.6 -42.3 16.0 L-41.3 14.3 -41.5 14.1 -42.45 15.05 Q-42.9 12.55 -42.45 9.75 L-43.9 11.25 -44.4 9.9 -44.65 10.0 -44.4 11.75 -45.7 13.65 -46.7 12.15 -46.9 12.3 -46.05 14.3 -47.0 16.55 -48.15 15.2 -48.4 15.4 -47.3 17.6 Q-47.7 19.25 -47.45 21.05 L-48.65 19.8 Q-49.9 18.15 -50.45 16.25 L-49.9 15.7 -50.1 15.35 -50.55 15.65 Q-50.85 14.25 -50.55 12.55 L-49.0 11.85 -49.05 11.55 -50.4 11.75 -49.4 9.25 -48.25 9.0 -48.25 8.65 -49.05 8.6 -48.15 7.25 Q-49.05 7.5 -50.25 8.1 L-50.2 7.6 -49.9 6.35 -50.25 6.2 Q-51.0 7.65 -50.95 8.45 L-52.4 9.3 -52.7 7.7 -52.95 7.7 -53.0 9.8 -55.0 11.8 Q-55.65 9.5 -55.0 6.9 L-54.15 6.75 -54.2 6.45 -54.85 6.4 Q-54.45 5.2 -53.5 3.9 L-51.75 3.7 -51.8 3.45 -52.95 3.35 Q-51.5 2.0 -49.45 1.1 L-48.4 1.3 -46.4 1.75 -46.35 1.45 -48.2 0.7 Q-46.7 0.2 -44.3 -0.15 -44.8 -0.85 -45.9 -1.25 L-45.85 -1.3 -45.5 -1.55 -44.7 -2.0 -44.85 -2.25 Q-45.85 -1.9 -46.35 -1.4 L-48.1 -1.55 -47.25 -2.65 -47.35 -2.85 -48.4 -2.05 -49.1 -1.3 -51.1 -0.45 -50.85 -1.7 -51.05 -1.85 -51.75 -0.15 -54.3 1.9 -54.4 0.4 Q-54.3 -1.35 -53.25 -2.95 L-52.05 -3.05 -52.0 -3.35 -52.85 -3.45 Q-52.0 -4.65 -50.25 -5.7 L-48.15 -5.2 -47.75 -4.95 -47.6 -5.15 -49.5 -6.2 -48.35 -6.7 -47.4 -6.95" fill="url(#gradient1)" fill-rule="evenodd" stroke="none"/>
    <path d="M-38.6 20.2 L-38.65 19.3 -39.0 18.85 -39.1 19.45 -38.6 20.2 M-48.4 13.4 L-48.5 13.4 -49.05 13.6 -49.05 13.8 -48.4 13.4 M-51.65 5.5 L-51.6 5.3 -52.5 5.4 -52.55 5.5 -52.55 6.05 -52.0 6.05 -51.65 5.5 M-31.85 11.95 L-33.15 11.3 -33.25 11.8 -32.1 12.45 -31.85 11.95 M-23.7 -8.05 L-23.6 -8.15 -25.3 -8.15 -26.05 -7.5 -24.4 -7.25 -23.7 -8.05 M-33.35 -4.05 L-34.6 -4.5 -34.35 -3.6 -33.55 -3.65 -33.5 -3.65 -33.35 -4.05 M-29.35 -5.55 L-29.1 -5.65 -30.6 -6.7 -30.95 -5.9 -29.35 -5.55 M-41.45 1.2 L-44.7 1.55 -45.15 3.55 -49.3 2.8 -50.1 3.25 -50.05 4.5 -47.95 5.4 -47.95 5.55 -43.95 4.4 -46.65 8.0 -46.6 8.9 -46.6 10.2 -46.35 10.0 -46.6 8.9 -43.35 7.95 -43.25 8.25 -40.25 5.55 -40.85 9.95 -41.05 12.3 -40.9 12.45 -40.15 11.35 -40.65 11.05 -39.55 7.9 -37.75 8.65 -37.45 8.15 -35.45 5.5 -34.75 7.7 -32.65 8.8 -33.4 7.45 -31.1 6.7 -31.35 5.65 -28.4 4.75 -28.6 3.6 -27.4 3.35 -27.5 2.75 -28.2 2.1 -26.25 -0.55 -25.1 0.2 -26.05 -1.2 -26.4 -1.15 -26.45 -1.15 -29.45 1.05 -30.75 -0.2 -32.95 0.9 -33.85 1.45 -38.6 4.8 -36.4 -0.5 -36.2 -0.75 -36.25 -1.05 -36.95 -0.75 -37.15 -1.15 -39.5 -0.95 -39.6 -1.15 -39.7 -1.0 -42.6 -2.6 -41.85 -4.2 -43.55 -3.45 -42.45 -1.05 -42.9 -0.9 -41.45 1.2 M-44.7 -4.0 L-45.25 -5.1 -45.4 -5.3 -46.25 -4.2 -45.9 -3.6 -44.7 -4.0 M-49.75 -2.95 L-49.0 -3.7 -49.9 -3.95 -50.3 -3.7 -50.35 -3.3 -49.75 -2.95 M-50.6 -7.4 L-50.55 -7.4 Q-50.4 -7.45 -50.3 -7.55 L-49.1 -8.15 -48.95 -8.25 -47.0 -8.65 -47.3 -9.1 -43.85 -8.65 Q-41.9 -8.45 -40.2 -7.35 L-40.05 -7.85 -38.25 -5.65 -38.25 -5.6 -38.2 -5.55 -38.1 -5.4 -36.45 -8.05 -36.2 -7.5 -33.15 -9.65 Q-31.45 -10.4 -29.8 -11.25 L-29.9 -10.8 -23.55 -11.7 -23.8 -11.4 -20.55 -11.2 -18.2 -10.95 -19.25 -8.8 -21.1 -6.05 -21.45 -5.65 -20.1 -5.25 -22.8 -4.15 -20.15 -3.6 -20.4 -3.3 -18.85 -2.45 -18.75 -2.4 -18.7 -2.4 -16.4 -0.95 -16.75 -0.8 Q-14.7 1.15 -13.45 3.5 L-10.8 8.1 -15.6 5.7 Q-18.4 4.35 -21.7 4.15 L-22.6 4.1 -22.65 4.1 -21.8 4.9 -22.25 5.05 -20.45 8.6 -20.75 8.55 Q-20.1 10.8 -19.8 14.15 L-19.25 20.1 -22.85 15.15 -24.7 12.9 -26.7 11.1 -27.3 10.7 Q-28.05 10.2 -28.6 10.0 L-27.9 12.55 -28.15 12.5 -28.0 14.0 -27.95 16.95 -28.15 16.8 -28.5 19.1 -29.0 21.3 -31.0 20.2 -33.05 18.35 -33.15 18.65 -34.6 16.45 -34.8 16.05 -35.35 15.25 -35.5 15.7 -35.8 14.85 -35.65 17.25 -35.55 17.9 -35.45 18.25 -35.3 19.95 -35.15 21.2 -35.3 21.05 Q-35.5 22.85 -36.1 24.1 L-36.95 25.7 -38.5 24.7 Q-39.2 24.45 -40.75 22.7 L-41.0 23.25 -42.7 19.8 -43.3 18.35 -43.55 18.7 -43.95 16.05 -44.1 15.75 -44.05 15.75 -44.25 14.45 -44.25 14.5 -44.6 15.05 -45.4 17.0 -45.7 17.9 Q-46.0 19.55 -45.8 20.8 L-45.1 25.05 -48.45 22.3 Q-50.4 20.75 -51.5 18.15 L-51.75 18.25 -52.1 16.25 -52.25 15.85 -52.2 15.8 -52.35 13.85 -52.65 13.9 -51.9 11.0 -52.0 11.05 -53.65 12.7 -55.55 15.45 -56.55 12.2 Q-57.15 10.25 -56.85 7.95 L-57.05 7.9 -56.35 5.55 -56.25 5.55 -56.0 4.9 -56.7 4.85 -55.5 3.65 -55.9 2.3 Q-56.45 0.35 -55.6 -1.95 L-56.1 -2.0 -54.4 -4.1 -54.2 -4.4 -53.0 -5.65 -53.55 -5.85 -50.6 -7.4" fill="#076838" fill-rule="evenodd" stroke="none"/>
    <path d="M-47.4 -6.95 L-44.9 -7.15 -43.9 -6.0 -43.45 -5.25 -43.2 -5.35 -44.15 -7.1 Q-41.6 -6.75 -40.0 -5.15 L-40.25 -3.85 -40.45 -3.3 -40.25 -3.2 Q-39.75 -3.85 -39.55 -4.6 -38.45 -3.25 -37.85 -1.35 -37.75 -2.7 -36.8 -4.3 L-36.1 -2.85 -35.85 -2.95 -36.4 -4.9 Q-35.0 -6.95 -32.4 -8.2 L-33.05 -5.65 -32.8 -5.6 -31.95 -7.8 -31.5 -8.55 -27.45 -9.6 -28.9 -7.45 -28.6 -7.3 -26.0 -9.7 -20.75 -9.55 -22.35 -7.05 -23.85 -5.55 -26.8 -6.0 -26.85 -5.7 -24.85 -5.05 -27.05 -4.4 -29.3 -3.9 -29.35 -3.85 -31.4 -4.35 -31.5 -4.15 -30.15 -3.55 -33.0 -2.0 -34.6 -1.95 -34.6 -1.65 -33.6 -1.55 -34.8 0.15 -32.95 -0.95 Q-30.65 -2.1 -28.25 -2.55 L-29.55 -1.3 -29.35 -1.1 Q-28.75 -1.65 -27.4 -2.45 L-26.95 -2.75 -23.4 -2.6 -24.4 -1.7 -24.25 -1.4 -22.65 -2.4 Q-21.2 -2.05 -19.75 -1.1 L-21.1 -0.5 -20.95 -0.25 -19.05 -0.65 Q-16.75 1.0 -14.85 4.25 -17.85 2.75 -21.6 2.55 L-21.95 2.2 -23.15 0.95 -23.3 1.1 -22.35 2.5 -24.55 2.65 Q-24.85 2.3 -25.85 1.7 L-26.05 1.9 -25.2 2.75 -27.05 3.3 -26.45 3.4 Q-25.75 3.65 -25.0 4.25 L-26.7 4.9 -26.65 5.15 -25.0 4.8 -24.5 4.75 Q-23.8 5.45 -23.25 6.65 L-24.5 6.65 -24.5 6.95 Q-23.75 7.0 -23.0 7.35 L-22.95 7.4 Q-21.8 10.15 -21.45 14.3 -22.25 13.1 -23.5 11.8 L-23.45 9.95 -23.7 9.9 -23.95 11.35 -25.75 9.8 -26.3 7.85 -26.6 7.9 -26.35 9.4 Q-27.55 8.6 -28.45 8.35 L-29.15 6.65 -29.4 6.75 -29.15 8.2 -31.05 8.35 -30.3 10.35 -31.3 10.1 -31.4 10.35 -30.05 11.0 Q-29.7 12.45 -29.65 14.05 L-30.8 13.4 -30.9 13.65 -29.65 14.8 Q-29.75 16.95 -30.1 18.8 -31.45 18.0 -33.0 15.85 L-32.55 14.05 -32.75 13.9 -33.45 15.2 -35.05 12.1 -34.95 11.6 -34.3 9.8 -34.55 9.7 -35.4 11.25 -36.1 9.05 -36.4 9.6 -37.0 11.05 -38.55 10.1 -38.65 10.35 -38.05 10.7 -37.15 11.65 -37.4 13.8 -39.05 12.65 -39.15 12.8 -38.65 13.2 -37.45 14.45 -37.45 14.5 -37.25 17.45 Q-38.15 16.8 -39.0 16.4 L-39.1 16.65 Q-38.3 17.1 -37.1 18.65 -36.9 19.35 -36.95 20.5 -37.0 22.1 -37.6 23.4 -39.35 22.3 -40.8 19.8 L-40.65 18.35 -40.9 18.3 -41.2 19.1 Q-41.95 17.6 -42.3 16.0 L-41.3 14.3 -41.5 14.1 -42.45 15.05 Q-42.9 12.55 -42.45 9.75 L-43.9 11.25 -44.4 9.9 -44.65 10.0 -44.4 11.75 -45.7 13.65 -46.7 12.15 -46.9 12.3 -46.05 14.3 -47.0 16.55 -48.15 15.2 -48.4 15.4 -47.3 17.6 Q-47.7 19.25 -47.45 21.05 L-48.65 19.8 Q-49.9 18.15 -50.45 16.25 L-49.9 15.7 -50.1 15.35 -50.55 15.65 Q-50.85 14.25 -50.55 12.55 L-49.0 11.85 -49.05 11.55 -50.4 11.75 -49.4 9.25 -48.25 9.0 -48.25 8.65 -49.05 8.6 -48.15 7.25 Q-49.05 7.5 -50.25 8.1 L-50.2 7.6 -49.9 6.35 -50.25 6.2 Q-51.0 7.65 -50.95 8.45 L-52.4 9.3 -52.7 7.7 -52.95 7.7 -53.0 9.8 -55.0 11.8 Q-55.65 9.5 -55.0 6.9 L-54.15 6.75 -54.2 6.45 -54.85 6.4 Q-54.45 5.2 -53.5 3.9 L-51.75 3.7 -51.8 3.45 -52.95 3.35 Q-51.5 2.0 -49.45 1.1 L-48.4 1.3 -46.4 1.75 -46.35 1.45 -48.2 0.7 Q-46.7 0.2 -44.3 -0.15 -44.8 -0.85 -45.9 -1.25 L-45.85 -1.3 -45.5 -1.55 -44.7 -2.0 -44.85 -2.25 Q-45.85 -1.9 -46.35 -1.4 L-48.1 -1.55 -47.25 -2.65 -47.35 -2.85 -48.4 -2.05 -49.1 -1.3 -51.1 -0.45 -50.85 -1.7 -51.05 -1.85 -51.75 -0.15 -54.3 1.9 -54.4 0.4 Q-54.3 -1.35 -53.25 -2.95 L-52.05 -3.05 -52.0 -3.35 -52.85 -3.45 Q-52.0 -4.65 -50.25 -5.7 L-48.15 -5.2 -47.75 -4.95 -47.6 -5.15 -49.5 -6.2 -48.35 -6.7 -47.4 -6.95" fill="url(#gradient2)" fill-rule="evenodd" stroke="none"/>
    <path d="M30.05 -24.55 Q29.35 -21.15 27.35 -17.5 L23.2 -11.25 Q20.4 -7.1 13.15 -0.5 5.8 6.2 2.9 10.25 -0.55 15.3 -1.95 22.65 -2.85 27.45 -3.15 36.15 L-1.7 35.65 -1.0 35.6 Q-3.15 36.1 -3.3 39.4 L-3.3 40.1 Q-2.35 38.25 -0.8 38.1 L0.6 38.3 Q-1.0 38.8 -1.35 40.05 L-1.35 41.25 Q-0.9 40.4 0.2 40.35 L1.25 40.45 Q-0.2 41.7 -0.1 42.95 2.55 43.7 4.45 45.55 5.2 46.25 5.7 47.45 L6.45 49.6 6.3 49.85 Q5.1 47.6 3.65 47.0 1.0 45.7 -2.85 46.15 L-9.35 47.3 Q-16.0 48.5 -19.3 45.85 -20.2 45.15 -20.9 43.75 L-22.1 41.3 -22.25 41.05 Q-20.65 42.25 -18.7 42.55 -18.5 41.9 -18.6 40.8 L-18.75 39.85 Q-17.45 40.8 -17.55 41.65 -17.2 40.9 -17.25 39.6 L-17.4 38.4 Q-16.3 39.15 -16.05 40.0 L-16.0 40.8 Q-15.35 39.6 -15.6 38.1 L-16.0 36.8 Q-14.65 37.4 -13.85 38.9 -13.4 37.75 -14.0 36.0 L-14.75 34.45 -13.25 35.5 Q-13.2 29.6 -9.55 21.5 -1.6 4.4 9.75 -3.1 15.4 -6.75 19.95 -13.0 24.65 -19.6 25.8 -25.9 L30.05 -24.55" fill="url(#gradient3)" fill-rule="evenodd" stroke="none"/>
    <path d="M28.3 -17.05 Q27.0 -14.8 24.1 -10.65 22.15 -7.8 19.2 -4.8 L13.7 0.4 Q6.6 6.9 3.8 10.8 0.65 15.45 -0.7 21.9 -1.75 26.7 -2.05 34.65 L-0.95 34.55 -0.7 36.55 Q-1.3 36.7 -1.65 37.25 L-0.5 37.0 1.05 37.35 3.45 38.5 0.9 39.3 0.8 39.3 1.55 39.45 3.4 40.0 1.9 41.25 1.1 42.25 Q3.4 43.05 5.2 44.8 6.25 45.9 7.2 48.5 L7.65 49.75 6.25 51.8 5.4 50.25 Q4.25 48.35 3.15 47.95 1.3 47.05 -0.85 47.05 -2.95 47.05 -6.25 47.8 L-9.15 48.35 Q-16.3 49.6 -20.0 46.7 -21.4 45.55 -22.5 42.8 L-23.1 41.6 -21.6 40.25 -19.65 41.25 -19.8 40.1 -20.35 37.55 -18.35 38.9 -18.85 36.2 -16.85 37.5 -18.2 34.8 -15.6 35.85 -15.1 36.15 -15.65 35.0 -17.5 32.1 -14.35 33.45 -14.2 33.55 Q-13.65 28.1 -10.5 21.05 -2.3 3.6 9.15 -3.9 14.9 -7.7 19.3 -13.95 23.75 -20.2 24.75 -26.05 L25.0 -27.25 31.3 -25.25 31.05 -24.35 Q30.35 -20.8 28.3 -17.05 M17.65 -6.2 Q20.55 -9.15 22.4 -11.85 L26.2 -17.6 Q28.1 -20.85 28.85 -23.85 L26.6 -24.55 Q25.2 -18.5 20.65 -12.2 16.1 -5.9 10.3 -2.2 -0.75 5.05 -8.55 21.95 -12.2 30.0 -12.2 35.5 L-12.2 37.95 -12.6 37.6 Q-12.6 38.6 -12.9 39.3 L-13.75 41.25 -14.55 39.7 Q-14.7 40.6 -15.1 41.25 L-16.25 40.85 Q-16.3 41.4 -16.65 42.1 L-17.55 41.8 -17.7 42.85 -18.0 43.75 -20.0 43.35 -18.65 45.1 Q-15.8 47.35 -9.5 46.25 L-6.65 45.75 -0.85 45.0 Q1.3 45.0 2.8 45.55 1.55 44.5 -0.35 43.95 L-1.0 43.8 -1.15 43.1 -1.55 44.0 -2.3 41.55 -2.45 40.8 -4.0 43.95 -4.35 40.15 -4.35 39.4 -4.2 37.95 -4.3 38.0 -4.25 36.15 Q-3.9 27.25 -2.9 22.15 -1.45 14.8 2.1 9.65 5.15 5.35 12.3 -1.1 L17.65 -6.2" fill="#603814" fill-rule="evenodd" stroke="none"/>
    <path d="M5.2 0.5 Q7.1 -1.25 9.1 -2.6 11.4 -1.35 13.35 -0.65 L9.9 2.5 Q7.75 2.25 5.2 0.5" fill="#603814" fill-rule="evenodd" stroke="none"/>
    <path d="M2.8 10.4 Q0.3 11.0 -2.95 9.75 L0.35 5.45 Q2.8 7.2 4.6 8.05 L2.9 10.25 2.8 10.4" fill="#603814" fill-rule="evenodd" stroke="none"/>
    <path d="M-13.7 38.3 Q-13.5 37.25 -14.1 35.75 L-14.75 34.45 -13.25 35.5 Q-13.25 33.5 -12.75 30.9 -7.95 28.2 -2.6 27.55 L-2.9 30.6 Q-8.85 33.05 -13.7 38.3" fill="#603814" fill-rule="evenodd" stroke="none"/>
    <path d="M-16.0 36.8 Q-14.95 37.3 -14.0 38.6 -16.65 41.45 -18.8 45.05 L-19.2 45.95 -19.3 45.85 Q-20.2 45.15 -20.9 43.75 L-22.1 41.3 -22.25 41.05 Q-20.65 42.25 -18.7 42.55 -18.5 41.9 -18.6 40.8 L-18.75 39.85 Q-17.45 40.8 -17.55 41.65 -17.2 40.9 -17.25 39.6 L-17.4 38.4 Q-16.3 39.15 -16.05 40.0 L-16.0 40.8 Q-15.35 39.6 -15.6 38.1 L-16.0 36.8" fill="#603814" fill-rule="evenodd" stroke="none"/>
    <path d="M-3.3 40.1 Q-2.35 38.25 -0.8 38.1 L0.6 38.3 Q-1.0 38.8 -1.35 40.05 L-1.35 41.25 Q-0.9 40.4 0.2 40.35 L1.25 40.45 Q-0.2 41.7 -0.1 42.95 2.55 43.7 4.45 45.55 5.2 46.25 5.7 47.45 L6.45 49.6 6.3 49.85 Q5.1 47.6 3.65 47.0 1.0 45.7 -2.85 46.15 L-9.35 47.3 -12.25 47.6 Q-8.3 41.6 -3.2 38.5 L-3.3 39.4 -3.3 40.1" fill="#603814" fill-rule="evenodd" stroke="none"/>
    <path d="M-9.75 22.0 L-9.55 21.5 -6.6 15.75 Q-3.55 17.0 -0.55 17.4 L-1.45 20.5 Q-5.6 20.7 -9.75 22.0" fill="#603814" fill-rule="evenodd" stroke="none"/>
    <path d="M49.7 -44.9 L48.6 -44.35 Q48.4 -44.25 48.5 -44.1 48.55 -43.9 48.75 -44.0 L50.3 -44.4 Q52.4 -42.8 53.4 -40.5 L53.95 -38.45 Q51.85 -39.4 49.7 -39.95 L48.1 -41.95 47.8 -41.95 47.8 -41.7 48.75 -40.15 45.7 -40.4 44.55 -41.0 42.8 -41.65 42.6 -41.45 42.7 -41.25 Q43.25 -41.1 44.4 -40.25 43.1 -39.9 42.15 -39.3 41.15 -39.7 39.8 -39.7 L39.6 -39.45 39.75 -39.25 41.05 -39.05 41.55 -38.9 41.6 -38.9 40.45 -37.35 40.1 -36.6 45.55 -37.35 43.5 -35.5 43.5 -35.2 Q43.6 -35.0 43.75 -35.1 L46.05 -36.55 47.35 -37.35 Q50.45 -37.15 52.9 -35.95 L51.4 -35.3 51.3 -35.05 Q51.35 -34.85 51.5 -34.9 L53.8 -35.4 Q55.45 -34.4 56.7 -32.8 L55.9 -32.45 55.8 -32.15 56.05 -32.0 57.2 -32.15 Q59.25 -29.05 59.4 -25.7 57.9 -26.8 55.95 -27.45 55.65 -28.75 54.95 -30.15 L54.75 -30.25 54.65 -30.05 54.95 -27.8 52.65 -28.3 Q52.35 -29.3 50.7 -30.95 L50.4 -30.95 50.4 -30.6 51.35 -29.0 51.55 -28.45 48.5 -28.6 50.3 -27.2 49.3 -26.85 49.15 -26.5 Q49.25 -26.3 49.5 -26.35 L51.1 -26.5 53.45 -23.65 51.6 -23.35 51.45 -23.05 51.7 -22.85 54.1 -22.65 Q55.15 -20.75 55.45 -18.6 L54.85 -18.75 54.55 -18.55 Q54.5 -18.3 54.7 -18.25 L55.55 -17.75 Q55.85 -15.0 54.95 -12.2 L53.95 -10.0 Q53.55 -12.15 52.2 -14.5 52.45 -17.4 52.65 -17.9 L52.45 -18.15 Q52.3 -18.25 52.2 -18.05 L51.35 -15.8 49.0 -18.3 49.25 -21.35 49.1 -21.6 48.9 -21.45 48.3 -19.0 Q47.15 -20.05 45.7 -20.9 L45.3 -23.4 45.1 -23.55 44.85 -23.4 44.85 -21.4 43.05 -22.45 42.35 -22.75 Q44.2 -19.15 44.75 -15.75 L43.1 -16.55 Q42.9 -16.6 42.85 -16.45 42.75 -16.3 42.9 -16.2 L45.05 -14.4 Q45.25 -11.85 45.05 -9.8 L44.3 -10.65 44.05 -10.7 43.95 -10.45 44.8 -8.7 Q44.15 -4.75 42.35 -2.45 39.95 -4.9 39.5 -8.55 40.4 -11.15 41.2 -12.0 L41.2 -12.35 40.95 -12.35 Q40.0 -11.55 39.2 -10.2 L38.05 -14.2 38.05 -14.25 39.0 -16.4 39.5 -17.2 39.45 -17.45 39.25 -17.4 Q38.4 -16.45 37.7 -15.05 L36.3 -17.8 37.05 -19.4 37.7 -20.25 37.75 -20.5 37.45 -20.55 35.85 -18.55 34.45 -20.25 33.8 -20.75 33.85 -17.6 32.05 -19.25 31.8 -19.2 Q31.65 -19.05 31.8 -18.95 L33.45 -16.85 33.8 -16.2 33.2 -11.45 31.7 -12.85 31.5 -12.85 31.45 -12.6 32.95 -10.35 Q31.95 -6.85 30.55 -5.2 29.1 -7.6 28.15 -10.25 L29.2 -12.35 29.15 -12.6 28.9 -12.6 27.75 -11.3 Q27.05 -13.7 26.9 -15.55 L28.35 -16.85 28.35 -17.2 28.05 -17.2 26.85 -16.4 26.95 -19.4 Q25.6 -19.4 24.4 -18.8 L24.0 -20.85 23.85 -20.95 23.65 -20.8 23.65 -18.25 21.35 -16.0 21.0 -18.0 20.75 -18.2 20.55 -18.0 20.75 -15.05 Q20.0 -14.1 19.15 -12.25 L18.2 -14.05 17.95 -14.1 17.9 -13.9 18.75 -11.45 17.25 -7.25 Q15.85 -12.95 16.0 -17.0 L16.05 -17.1 Q17.0 -17.95 17.8 -18.3 L17.9 -18.6 17.65 -18.7 16.1 -18.2 Q16.2 -19.7 16.8 -21.2 L17.45 -21.4 19.75 -21.75 19.9 -21.95 19.7 -22.1 17.2 -22.15 Q17.85 -23.3 18.7 -23.9 L19.5 -24.3 16.8 -24.15 17.45 -25.7 17.4 -25.95 17.1 -25.9 Q16.25 -24.85 15.9 -24.0 L13.05 -23.25 Q13.25 -24.7 13.6 -25.5 L13.5 -25.7 13.3 -25.65 12.3 -23.5 12.0 -22.8 Q9.05 -21.6 6.25 -19.4 L4.1 -17.5 Q4.95 -22.5 7.3 -25.9 L9.95 -26.25 10.1 -26.45 9.95 -26.65 7.9 -26.85 Q9.3 -28.6 11.05 -29.9 12.25 -29.45 13.55 -29.3 13.75 -29.2 13.8 -29.45 L13.65 -29.7 11.95 -30.45 Q13.95 -31.65 16.5 -32.25 L17.15 -32.1 20.3 -31.2 20.6 -31.3 20.55 -31.55 18.25 -32.65 Q21.5 -33.1 25.1 -32.6 L28.05 -32.0 25.65 -33.65 26.9 -34.25 27.0 -34.5 26.8 -34.65 24.65 -34.0 20.25 -34.8 21.7 -36.2 21.75 -36.4 21.5 -36.45 19.1 -34.85 18.95 -34.85 15.85 -34.55 12.65 -34.35 15.0 -36.15 15.05 -36.4 14.8 -36.5 11.25 -34.6 Q10.2 -34.85 8.6 -35.9 L5.35 -38.45 Q8.85 -40.2 12.0 -41.05 L14.5 -40.1 15.55 -39.6 16.55 -39.05 16.8 -39.1 16.75 -39.4 13.9 -41.5 19.7 -42.05 20.0 -41.8 20.6 -41.15 22.75 -38.7 23.0 -38.65 23.0 -38.95 21.05 -41.95 Q25.0 -41.35 27.7 -39.35 L27.9 -36.6 28.15 -36.4 28.3 -36.55 28.45 -38.8 Q30.45 -37.15 31.25 -35.4 31.05 -38.1 31.85 -40.35 L33.45 -38.8 33.7 -38.85 33.7 -39.1 33.15 -39.7 32.2 -41.3 Q33.55 -44.15 36.65 -45.75 36.4 -44.55 36.3 -43.05 36.3 -42.9 36.45 -42.85 L36.6 -43.0 36.85 -44.25 37.65 -46.2 Q40.1 -47.2 42.35 -47.2 L44.05 -46.95 Q42.85 -46.05 42.05 -44.8 41.95 -44.6 42.1 -44.5 L42.35 -44.55 42.75 -45.1 Q44.0 -45.85 45.25 -46.7 47.9 -46.05 49.7 -44.9" fill="url(#gradient4)" fill-rule="evenodd" stroke="none"/>
    <path d="M49.35 -42.75 L49.25 -42.7 50.55 -41.15 51.7 -40.85 49.95 -42.95 49.35 -42.75 M52.35 -44.5 Q55.05 -41.8 55.3 -38.6 L55.5 -36.3 53.75 -37.05 56.3 -35.8 55.9 -35.65 57.8 -33.6 57.85 -33.6 59.05 -32.05 58.9 -32.0 Q60.65 -28.9 60.8 -25.75 L60.95 -22.85 58.55 -24.55 Q57.3 -25.55 55.45 -26.2 L52.85 -26.85 53.25 -26.55 53.05 -26.5 54.65 -24.4 55.9 -22.5 55.75 -22.5 Q56.6 -20.55 56.85 -18.8 L57.25 -16.45 57.0 -16.5 Q57.0 -14.0 56.1 -11.4 L55.15 -9.3 53.25 -6.15 52.6 -9.75 Q52.2 -11.8 51.05 -13.85 L50.25 -14.9 48.1 -17.35 47.35 -17.95 45.2 -19.6 46.15 -16.0 46.7 -13.05 46.55 -13.15 46.35 -9.65 46.0 -6.45 45.8 -6.7 Q44.95 -3.5 43.45 -1.65 L42.45 -0.4 41.35 -1.5 Q38.8 -4.1 38.1 -8.4 L38.05 -8.7 38.05 -8.75 37.8 -9.9 36.75 -13.7 36.4 -14.55 35.25 -16.85 35.2 -14.05 35.05 -14.25 34.55 -11.15 33.95 -8.55 33.8 -8.65 Q32.85 -5.75 31.65 -4.3 L30.4 -2.8 29.35 -4.5 Q28.1 -6.65 27.35 -8.5 L27.25 -8.4 26.45 -10.9 Q25.9 -12.55 25.7 -14.1 L25.55 -14.0 25.45 -16.35 25.45 -17.7 25.1 -17.55 24.4 -17.15 Q23.35 -16.4 22.45 -15.1 L21.85 -14.35 20.45 -11.7 20.05 -10.9 18.6 -6.9 17.2 -1.85 15.95 -6.9 Q14.6 -12.1 14.6 -15.9 L14.4 -15.85 14.7 -18.35 Q14.85 -19.7 15.15 -20.75 L14.85 -20.75 15.9 -22.6 13.5 -21.95 12.55 -21.6 Q9.85 -20.4 7.2 -18.35 L2.0 -13.25 2.75 -17.75 Q3.55 -22.35 5.55 -25.75 L5.35 -25.75 6.85 -27.75 9.25 -30.25 9.1 -30.35 10.7 -31.3 10.8 -31.4 10.85 -31.4 11.25 -31.65 13.85 -32.9 13.75 -32.95 8.9 -33.2 9.55 -33.7 7.85 -34.7 4.35 -37.5 2.9 -38.9 4.7 -39.7 Q7.65 -41.15 10.45 -42.05 L10.25 -42.15 13.65 -42.85 18.25 -43.45 18.1 -43.7 21.2 -43.3 Q24.45 -42.85 27.1 -41.4 L27.1 -41.75 30.1 -39.15 30.55 -40.8 30.7 -41.2 30.65 -41.2 31.35 -43.1 31.55 -42.9 Q33.1 -45.5 36.05 -47.0 L38.6 -48.3 38.5 -48.0 42.35 -48.55 42.5 -48.55 47.3 -47.85 47.1 -47.6 Q48.9 -47.0 50.4 -46.05 L52.65 -44.6 52.35 -44.5 M53.5 -33.95 L51.85 -33.55 51.65 -33.5 51.45 -33.5 Q50.2 -33.5 49.95 -34.8 L49.95 -35.55 47.65 -35.9 44.35 -33.85 43.65 -33.7 Q42.5 -33.7 42.15 -34.75 L42.1 -35.6 38.2 -34.75 38.8 -36.9 39.2 -37.95 Q38.1 -38.4 38.2 -39.5 38.2 -40.2 38.65 -40.6 39.15 -41.05 39.8 -41.05 L39.9 -41.05 41.25 -40.95 41.2 -41.65 Q41.3 -42.2 41.7 -42.6 42.2 -43.0 42.75 -43.0 L43.05 -42.95 45.2 -42.25 Q45.65 -42.0 46.05 -41.8 L46.45 -41.8 46.55 -42.35 Q46.8 -42.95 47.4 -43.25 L47.15 -43.75 Q47.0 -44.2 47.15 -44.6 L45.5 -45.2 43.7 -44.0 43.45 -43.75 Q42.95 -43.1 42.2 -43.1 41.2 -43.1 40.8 -43.95 40.35 -44.85 40.9 -45.55 L40.95 -45.65 38.65 -45.1 38.45 -44.65 38.2 -43.9 38.0 -42.9 37.55 -41.9 Q37.05 -41.5 36.45 -41.5 35.8 -41.5 35.3 -42.0 34.95 -42.4 34.9 -42.8 L33.8 -41.3 34.3 -40.5 34.65 -40.15 Q35.4 -39.35 35.05 -38.4 34.65 -37.4 33.55 -37.4 L32.7 -37.65 32.65 -35.5 30.0 -34.8 29.4 -35.75 Q29.0 -35.1 28.3 -35.0 L28.35 -34.8 Q28.5 -34.25 28.25 -33.7 L29.05 -32.95 32.25 -29.3 27.6 -30.65 22.05 -31.45 22.0 -31.0 Q21.6 -29.8 20.45 -29.8 L19.85 -29.9 16.5 -30.9 14.95 -30.35 Q15.3 -29.8 15.15 -29.3 15.1 -28.65 14.65 -28.25 14.15 -27.9 13.6 -27.9 L13.4 -27.9 11.35 -28.35 10.7 -27.85 Q11.5 -27.3 11.5 -26.4 11.5 -25.75 11.05 -25.3 10.65 -24.9 10.05 -24.85 L8.35 -24.7 8.05 -24.6 Q7.3 -23.3 6.5 -21.3 8.75 -22.85 10.95 -23.9 L10.95 -23.95 12.05 -26.35 Q12.45 -27.15 13.4 -27.15 14.25 -27.15 14.75 -26.45 15.1 -25.8 14.95 -25.25 L15.85 -26.55 16.0 -26.75 17.25 -27.4 Q18.1 -27.4 18.6 -26.65 L18.85 -25.7 19.55 -25.7 19.85 -23.5 Q21.2 -23.3 21.3 -22.05 21.35 -21.4 21.0 -20.95 20.6 -20.45 20.0 -20.35 L17.9 -20.1 Q19.0 -19.9 19.25 -18.85 L19.3 -18.65 Q19.65 -19.55 20.75 -19.55 21.65 -19.55 22.15 -18.85 L22.2 -18.95 22.25 -20.9 Q22.3 -21.5 22.75 -21.95 23.2 -22.35 23.85 -22.35 24.45 -22.35 24.9 -21.95 L25.4 -20.95 25.45 -20.65 26.95 -20.8 28.55 -20.8 28.25 -18.65 Q29.2 -18.55 29.65 -17.65 30.05 -16.65 29.3 -15.95 L28.35 -14.95 28.55 -13.95 Q29.5 -14.3 30.25 -13.45 30.5 -14.0 31.15 -14.2 L32.25 -14.15 32.4 -15.9 32.25 -16.15 30.8 -17.95 Q30.05 -18.65 30.45 -19.65 30.65 -20.25 31.3 -20.5 L32.4 -20.6 32.25 -23.5 34.6 -21.9 35.8 -20.8 36.5 -21.5 Q36.95 -22.0 37.6 -22.0 38.55 -22.0 39.05 -21.0 39.45 -20.05 38.65 -19.25 L38.25 -18.75 37.85 -17.95 38.2 -18.3 Q38.55 -18.85 39.35 -18.85 40.4 -18.85 40.8 -17.95 41.2 -17.15 40.6 -16.35 L40.2 -15.8 39.55 -14.2 39.85 -13.2 40.0 -13.35 Q40.55 -13.75 41.05 -13.75 42.1 -13.75 42.5 -12.8 42.9 -11.8 42.2 -11.1 41.65 -10.5 40.9 -8.45 41.15 -6.65 42.2 -4.95 43.0 -6.65 43.4 -8.5 L42.7 -9.9 Q42.35 -10.7 42.8 -11.4 L43.75 -12.05 43.7 -13.7 43.45 -14.0 42.15 -15.05 Q41.15 -15.7 41.5 -16.8 41.85 -17.8 42.8 -17.95 42.2 -20.05 41.1 -22.15 L39.4 -25.55 43.55 -23.75 Q43.8 -24.95 45.1 -24.95 45.7 -24.95 46.1 -24.55 L46.65 -23.6 47.0 -21.75 47.4 -21.4 47.6 -21.95 Q48.0 -22.95 49.05 -22.95 49.65 -22.95 50.15 -22.55 L50.05 -22.9 Q49.95 -24.05 51.05 -24.55 L50.55 -25.05 49.85 -25.0 49.6 -24.95 49.4 -24.95 Q48.2 -24.95 47.8 -26.2 47.7 -26.9 47.9 -27.25 L47.7 -27.45 44.4 -29.75 49.15 -30.0 Q48.7 -30.75 49.1 -31.5 49.6 -32.4 50.55 -32.4 51.2 -32.4 51.65 -31.9 L53.25 -30.15 Q53.25 -30.6 53.55 -31.05 L54.5 -31.65 54.45 -31.85 Q54.3 -32.5 54.6 -33.05 L53.5 -33.95 M56.35 -30.65 L56.3 -30.6 57.05 -28.5 57.5 -28.35 56.45 -30.65 56.35 -30.65 M45.55 -38.75 L48.4 -38.8 45.8 -39.0 45.35 -39.0 44.7 -38.9 43.85 -38.65 45.55 -38.75 M29.65 -10.25 L30.6 -8.05 31.45 -10.2 30.4 -11.65 30.3 -11.5 29.65 -10.25 M53.15 -21.4 L52.0 -21.5 51.75 -21.45 51.7 -21.45 Q51.05 -21.45 50.6 -21.9 L50.6 -21.05 50.4 -18.95 50.85 -18.5 50.9 -18.6 Q51.35 -19.55 52.4 -19.55 L53.35 -19.25 53.75 -19.75 53.15 -21.4 M53.85 -17.15 L53.6 -14.8 53.95 -14.15 Q54.3 -15.5 54.25 -16.95 L53.85 -17.15 M19.15 -40.65 L17.5 -40.6 17.7 -40.45 Q18.5 -39.7 18.15 -38.7 17.75 -37.65 16.65 -37.65 16.2 -37.65 15.8 -37.9 L14.65 -38.45 11.9 -39.55 7.85 -38.1 9.35 -37.1 11.05 -36.1 14.05 -37.7 14.85 -37.9 Q16.05 -37.9 16.4 -36.75 L16.45 -36.05 18.55 -36.2 20.75 -37.6 21.6 -37.9 19.6 -40.2 19.15 -40.65 M26.65 -36.05 L26.55 -36.65 26.4 -38.6 Q25.35 -39.25 24.15 -39.7 24.7 -38.95 24.25 -38.05 23.85 -37.25 22.9 -37.25 L23.1 -36.75 23.1 -35.85 24.55 -35.5 26.05 -35.9 26.65 -36.05 M18.35 -17.05 L17.35 -16.35 17.4 -15.4 18.25 -15.5 19.1 -15.1 19.3 -15.45 Q19.15 -16.5 19.15 -17.85 L18.35 -17.05" fill="#076838" fill-rule="evenodd" stroke="none"/>
    <path d="M49.7 -44.9 L48.6 -44.35 Q48.4 -44.25 48.5 -44.1 48.55 -43.9 48.75 -44.0 L50.3 -44.4 Q52.4 -42.8 53.4 -40.5 L53.95 -38.45 Q51.85 -39.4 49.7 -39.95 L48.1 -41.95 47.8 -41.95 47.8 -41.7 48.75 -40.15 45.7 -40.4 44.55 -41.0 42.8 -41.65 42.6 -41.45 42.7 -41.25 Q43.25 -41.1 44.4 -40.25 43.1 -39.9 42.15 -39.3 41.15 -39.7 39.8 -39.7 L39.6 -39.45 39.75 -39.25 41.05 -39.05 41.55 -38.9 41.6 -38.9 40.45 -37.35 40.1 -36.6 45.55 -37.35 43.5 -35.5 43.5 -35.2 Q43.6 -35.0 43.75 -35.1 L46.05 -36.55 47.35 -37.35 Q50.45 -37.15 52.9 -35.95 L51.4 -35.3 51.3 -35.05 Q51.35 -34.85 51.5 -34.9 L53.8 -35.4 Q55.45 -34.4 56.7 -32.8 L55.9 -32.45 55.8 -32.15 56.05 -32.0 57.2 -32.15 Q59.25 -29.05 59.4 -25.7 57.9 -26.8 55.95 -27.45 55.65 -28.75 54.95 -30.15 L54.75 -30.25 54.65 -30.05 54.95 -27.8 52.65 -28.3 Q52.35 -29.3 50.7 -30.95 L50.4 -30.95 50.4 -30.6 51.35 -29.0 51.55 -28.45 48.5 -28.6 50.3 -27.2 49.3 -26.85 49.15 -26.5 Q49.25 -26.3 49.5 -26.35 L51.1 -26.5 53.45 -23.65 51.6 -23.35 51.45 -23.05 51.7 -22.85 54.1 -22.65 Q55.15 -20.75 55.45 -18.6 L54.85 -18.75 54.55 -18.55 Q54.5 -18.3 54.7 -18.25 L55.55 -17.75 Q55.85 -15.0 54.95 -12.2 L53.95 -10.0 Q53.55 -12.15 52.2 -14.5 52.45 -17.4 52.65 -17.9 L52.45 -18.15 Q52.3 -18.25 52.2 -18.05 L51.35 -15.8 49.0 -18.3 49.25 -21.35 49.1 -21.6 48.9 -21.45 48.3 -19.0 Q47.15 -20.05 45.7 -20.9 L45.3 -23.4 45.1 -23.55 44.85 -23.4 44.85 -21.4 43.05 -22.45 42.35 -22.75 Q44.2 -19.15 44.75 -15.75 L43.1 -16.55 Q42.9 -16.6 42.85 -16.45 42.75 -16.3 42.9 -16.2 L45.05 -14.4 Q45.25 -11.85 45.05 -9.8 L44.3 -10.65 44.05 -10.7 43.95 -10.45 44.8 -8.7 Q44.15 -4.75 42.35 -2.45 39.95 -4.9 39.5 -8.55 40.4 -11.15 41.2 -12.0 L41.2 -12.35 40.95 -12.35 Q40.0 -11.55 39.2 -10.2 L38.05 -14.2 38.05 -14.25 39.0 -16.4 39.5 -17.2 39.45 -17.45 39.25 -17.4 Q38.4 -16.45 37.7 -15.05 L36.3 -17.8 37.05 -19.4 37.7 -20.25 37.75 -20.5 37.45 -20.55 35.85 -18.55 34.45 -20.25 33.8 -20.75 33.85 -17.6 32.05 -19.25 31.8 -19.2 Q31.65 -19.05 31.8 -18.95 L33.45 -16.85 33.8 -16.2 33.2 -11.45 31.7 -12.85 31.5 -12.85 31.45 -12.6 32.95 -10.35 Q31.95 -6.85 30.55 -5.2 29.1 -7.6 28.15 -10.25 L29.2 -12.35 29.15 -12.6 28.9 -12.6 27.75 -11.3 Q27.05 -13.7 26.9 -15.55 L28.35 -16.85 28.35 -17.2 28.05 -17.2 26.85 -16.4 26.95 -19.4 Q25.6 -19.4 24.4 -18.8 L24.0 -20.85 23.85 -20.95 23.65 -20.8 23.65 -18.25 21.35 -16.0 21.0 -18.0 20.75 -18.2 20.55 -18.0 20.75 -15.05 Q20.0 -14.1 19.15 -12.25 L18.2 -14.05 17.95 -14.1 17.9 -13.9 18.75 -11.45 17.25 -7.25 Q15.85 -12.95 16.0 -17.0 L16.05 -17.1 Q17.0 -17.95 17.8 -18.3 L17.9 -18.6 17.65 -18.7 16.1 -18.2 Q16.2 -19.7 16.8 -21.2 L17.45 -21.4 19.75 -21.75 19.9 -21.95 19.7 -22.1 17.2 -22.15 Q17.85 -23.3 18.7 -23.9 L19.5 -24.3 16.8 -24.15 17.45 -25.7 17.4 -25.95 17.1 -25.9 Q16.25 -24.85 15.9 -24.0 L13.05 -23.25 Q13.25 -24.7 13.6 -25.5 L13.5 -25.7 13.3 -25.65 12.3 -23.5 12.0 -22.8 Q9.05 -21.6 6.25 -19.4 L4.1 -17.5 Q4.95 -22.5 7.3 -25.9 L9.95 -26.25 10.1 -26.45 9.95 -26.65 7.9 -26.85 Q9.3 -28.6 11.05 -29.9 12.25 -29.45 13.55 -29.3 13.75 -29.2 13.8 -29.45 L13.65 -29.7 11.95 -30.45 Q13.95 -31.65 16.5 -32.25 L17.15 -32.1 20.3 -31.2 20.6 -31.3 20.55 -31.55 18.25 -32.65 Q21.5 -33.1 25.1 -32.6 L28.05 -32.0 25.65 -33.65 26.9 -34.25 27.0 -34.5 26.8 -34.65 24.65 -34.0 20.25 -34.8 21.7 -36.2 21.75 -36.4 21.5 -36.45 19.1 -34.85 18.95 -34.85 15.85 -34.55 12.65 -34.35 15.0 -36.15 15.05 -36.4 14.8 -36.5 11.25 -34.6 Q10.2 -34.85 8.6 -35.9 L5.35 -38.45 Q8.85 -40.2 12.0 -41.05 L14.5 -40.1 15.55 -39.6 16.55 -39.05 16.8 -39.1 16.75 -39.4 13.9 -41.5 19.7 -42.05 20.0 -41.8 20.6 -41.15 22.75 -38.7 23.0 -38.65 23.0 -38.95 21.05 -41.95 Q25.0 -41.35 27.7 -39.35 L27.9 -36.6 28.15 -36.4 28.3 -36.55 28.45 -38.8 Q30.45 -37.15 31.25 -35.4 31.05 -38.1 31.85 -40.35 L33.45 -38.8 33.7 -38.85 33.7 -39.1 33.15 -39.7 32.2 -41.3 Q33.55 -44.15 36.65 -45.75 36.4 -44.55 36.3 -43.05 36.3 -42.9 36.45 -42.85 L36.6 -43.0 36.85 -44.25 37.65 -46.2 Q40.1 -47.2 42.35 -47.2 L44.05 -46.95 Q42.85 -46.05 42.05 -44.8 41.95 -44.6 42.1 -44.5 L42.35 -44.55 42.75 -45.1 Q44.0 -45.85 45.25 -46.7 47.9 -46.05 49.7 -44.9" fill="url(#gradient5)" fill-rule="evenodd" stroke="none"/>
  </g>
  <defs>
    <linearGradient gradientTransform="matrix(-0.0048, -0.0168, -0.0172, 0.0047, -24.6, 23.25)" gradientUnits="userSpaceOnUse" id="gradient0" spreadMethod="pad" x1="-819.2" x2="819.2">
      <stop offset="0.0" stop-color="#bd7440"/>
      <stop offset="1.0" stop-color="#602516"/>
    </linearGradient>
    <radialGradient cx="0" cy="0" gradientTransform="matrix(-0.0227, 0.0, 0.0, 0.0222, -35.1, 6.85)" gradientUnits="userSpaceOnUse" id="gradient1" r="819.2" spreadMethod="pad">
      <stop offset="0.0" stop-color="#8cc543"/>
      <stop offset="1.0" stop-color="#0e9347"/>
    </radialGradient>
    <radialGradient cx="0" cy="0" gradientTransform="matrix(-0.0227, 0.0, 0.0, 0.0222, -35.1, 6.85)" gradientUnits="userSpaceOnUse" id="gradient2" r="819.2" spreadMethod="pad">
      <stop offset="0.0" stop-color="#8cc543"/>
      <stop offset="1.0" stop-color="#0e9347"/>
    </radialGradient>
    <linearGradient gradientTransform="matrix(0.0182, 0.0309, -0.0309, 0.0182, 11.4, 12.65)" gradientUnits="userSpaceOnUse" id="gradient3" spreadMethod="pad" x1="-819.2" x2="819.2">
      <stop offset="0.0" stop-color="#bd7440"/>
      <stop offset="1.0" stop-color="#602516"/>
    </linearGradient>
    <radialGradient cx="0" cy="0" gradientTransform="matrix(0.0305, 0.0, 0.0, 0.0305, 32.15, -25.25)" gradientUnits="userSpaceOnUse" id="gradient4" r="819.2" spreadMethod="pad">
      <stop offset="0.0" stop-color="#8cc543"/>
      <stop offset="1.0" stop-color="#0e9347"/>
    </radialGradient>
    <radialGradient cx="0" cy="0" gradientTransform="matrix(0.0305, 0.0, 0.0, 0.0305, 32.15, -25.25)" gradientUnits="userSpaceOnUse" id="gradient5" r="819.2" spreadMethod="pad">
      <stop offset="0.0" stop-color="#8cc543"/>
      <stop offset="1.0" stop-color="#0e9347"/>
    </radialGradient>
  </defs>
</svg>
