<?xml version="1.0" encoding="UTF-8" standalone="no"?>
<svg xmlns:xlink="http://www.w3.org/1999/xlink" height="26.1px" width="35.0px" xmlns="http://www.w3.org/2000/svg">
  <g transform="matrix(1.0, 0.0, 0.0, 1.0, 0.0, 0.0)">
    <path d="M34.45 9.8 L32.7 10.55 Q32.55 11.5 31.95 12.25 L30.75 13.6 32.25 14.45 Q33.35 14.9 33.65 15.25 34.1 15.75 34.1 16.5 34.05 17.45 34.15 17.75 34.4 18.65 32.35 19.15 L29.5 19.3 Q28.8 19.15 28.6 19.75 L28.1 21.0 26.8 22.4 25.45 23.65 24.1 24.7 Q23.7 25.1 23.25 26.1 L22.55 24.95 18.1 25.7 13.6 25.45 Q7.1 22.85 5.2 18.6 L4.5 17.45 Q4.25 17.2 3.35 17.0 L1.25 16.4 Q0.2 15.85 0.0 14.75 -0.05 13.85 1.1 12.95 L2.95 11.55 Q-0.65 7.45 1.55 6.3 L3.05 5.9 4.75 5.6 5.4 5.7 5.75 6.05 6.3 5.95 6.6 5.65 8.65 3.9 Q9.85 2.75 10.85 2.25 12.55 1.35 13.5 1.15 L15.9 1.05 Q17.4 0.95 17.55 0.0 19.5 1.95 21.35 1.55 L23.05 1.55 Q22.9 1.8 23.8 2.75 24.75 3.75 25.15 3.75 26.35 3.75 28.15 7.7 28.7 6.25 31.3 6.25 33.85 6.3 33.95 7.45 L34.05 7.15 Q34.9 7.25 35.0 8.25 35.1 9.2 34.45 9.8" fill="#ffffff" fill-rule="evenodd" stroke="none"/>
    <path d="M5.0 12.9 L5.25 14.9 2.25 14.7 Q2.65 14.1 3.5 13.65 L5.0 12.9" fill="#a65f99" fill-rule="evenodd" stroke="none"/>
    <path d="M28.05 14.25 L28.3 16.05 Q28.25 19.7 25.0 21.9 22.0 23.9 17.75 23.9 L17.7 23.9 Q13.0 23.9 9.75 21.4 6.05 18.55 5.85 13.45 L6.4 13.45 Q5.75 12.45 5.75 11.4 5.75 9.5 7.7 7.25 10.25 4.25 11.05 3.8 12.9 2.7 18.3 2.4 L18.6 2.4 Q21.65 2.45 24.7 5.85 27.4 8.9 28.15 12.1 L27.7 12.25 28.15 12.15 28.25 12.8 28.0 13.95 28.05 14.25" fill="#ffdd00" fill-rule="evenodd" stroke="none"/>
    <path d="M28.7 14.95 Q29.35 15.15 30.1 15.5 L31.4 16.15 31.9 16.65 Q31.55 17.25 31.1 17.15 L30.25 16.9 29.7 16.7 Q29.25 16.7 29.1 16.5 L28.6 16.4 28.65 15.7 28.7 14.95" fill="#a65f99" fill-rule="evenodd" stroke="none"/>
    <path d="M24.65 17.3 Q27.2 13.0 24.0 9.0 22.15 6.65 18.35 4.4 16.75 3.45 15.55 3.1 L15.9 3.0 20.35 3.15 Q23.35 4.6 24.6 5.65 26.55 7.2 27.45 9.65 29.3 14.8 26.7 19.45 23.95 24.35 18.45 23.55 23.0 20.15 24.65 17.3 M15.55 3.1 L12.2 3.55 11.8 4.0 12.05 3.5 12.2 3.55 Q13.3 2.4 15.55 3.1" fill="#dca90e" fill-rule="evenodd" stroke="none"/>
    <path d="M21.65 12.5 L18.7 12.25 Q16.5 12.05 17.25 11.85 17.4 11.3 20.05 10.2 23.25 8.75 24.1 8.75 L22.6 9.85 25.1 10.65 Q24.5 10.5 24.0 10.9 25.15 10.9 26.05 11.5 24.35 11.8 24.5 12.25 L25.25 14.45 Q23.85 12.95 21.65 12.5" fill="#dca90e" fill-rule="evenodd" stroke="none"/>
    <path d="M27.7 13.75 Q26.4 16.25 22.1 17.85 18.2 19.35 15.15 19.0 13.5 18.85 9.7 16.95 5.45 14.75 5.7 13.35 L5.9 13.15 Q7.1 13.95 12.15 15.7 17.1 17.4 18.1 17.4 20.55 17.4 23.15 16.2 L27.7 13.75" fill="#dca90e" fill-rule="evenodd" stroke="none"/>
    <path d="M13.85 11.75 L13.8 12.3 13.6 12.85 12.7 13.6 10.55 13.75 Q9.65 13.3 9.15 12.2 8.95 11.65 9.05 11.15 9.05 10.3 9.35 10.15 L9.45 10.3 9.55 11.15 9.95 11.85 Q10.4 12.35 11.25 12.7 L12.5 12.75 13.35 12.4 13.85 11.75" fill="#dca90e" fill-rule="evenodd" stroke="none"/>
    <path d="M11.35 10.75 L11.8 11.2 Q12.05 11.55 11.6 11.65 11.05 11.75 10.9 11.2 10.7 10.7 11.35 10.75" fill="#ffffff" fill-rule="evenodd" stroke="none"/>
    <path d="M12.95 11.1 Q13.3 12.2 12.4 12.3 L10.75 11.95 Q9.75 10.5 11.4 10.2 13.15 9.85 12.95 11.1" fill="#ffffff" fill-rule="evenodd" stroke="none"/>
    <path d="M13.85 11.0 Q14.4 11.7 13.8 12.4 13.4 12.9 12.8 13.05 L11.65 13.1 Q10.75 13.1 10.1 12.7 9.4 12.2 9.3 11.25 9.25 10.3 10.05 9.85 10.35 9.7 11.8 9.3 12.95 9.65 13.85 11.0 M10.95 11.55 L11.15 11.4 Q11.1 11.85 11.65 11.65 L11.85 11.35 11.8 11.0 Q11.35 10.7 11.1 10.8 10.9 10.85 10.85 11.15 L10.95 11.55" fill="#673223" fill-rule="evenodd" stroke="none"/>
    <path d="M23.4 8.7 Q23.5 9.55 22.75 9.75 L21.3 10.15 22.6 10.2 Q23.55 10.25 23.65 10.5 L23.35 11.35 Q23.1 12.05 23.9 12.4 24.45 12.65 24.3 13.1 L23.6 13.15 Q22.6 12.4 20.95 11.85 L19.1 11.75 18.05 11.75 Q17.6 11.6 18.25 10.95 19.45 9.75 20.6 9.35 L21.95 8.75 23.4 8.7" fill="#673223" fill-rule="evenodd" stroke="none"/>
    <path d="M31.45 10.85 Q31.2 12.05 28.9 13.75 L30.05 14.45 31.1 15.3 32.35 15.9 Q33.2 16.4 33.1 16.8 L32.6 17.8 31.4 18.0 30.0 18.25 29.1 17.95 28.3 17.5 Q27.25 20.7 25.15 22.4 24.25 23.15 23.05 23.55 L20.7 24.15 14.35 24.5 Q10.65 23.1 8.3 20.95 6.95 19.75 6.3 18.35 L5.75 16.95 Q5.3 16.05 4.9 16.0 L2.85 15.6 2.1 15.5 1.4 15.15 Q0.95 14.65 1.45 14.2 L2.35 13.35 3.2 12.95 4.0 12.35 Q4.6 12.2 4.6 11.9 L3.65 10.65 2.85 9.35 Q2.7 8.7 3.3 7.95 L2.8 8.0 2.25 8.15 Q1.9 8.25 1.7 7.95 1.45 7.65 1.85 7.45 L3.3 7.15 4.95 6.95 Q5.25 7.2 4.6 7.85 L3.65 8.8 Q3.35 9.45 4.15 10.25 L5.35 11.5 Q5.9 9.15 6.6 8.15 L7.55 6.45 Q8.3 5.25 8.8 5.25 9.5 4.35 10.6 3.7 11.05 3.45 12.75 2.65 L15.15 2.1 16.65 2.1 17.95 2.05 19.95 2.45 Q21.65 2.7 21.55 2.95 21.7 2.65 22.8 3.35 L24.05 4.2 24.95 5.1 26.05 6.5 Q27.0 7.85 27.6 9.5 L28.6 12.7 Q30.0 11.75 30.4 10.4 30.9 8.85 29.45 8.0 L29.45 7.7 30.3 7.45 32.4 7.55 33.3 8.0 Q33.9 8.35 33.85 8.65 33.8 9.15 33.4 8.95 L32.8 8.9 Q32.55 8.6 31.95 8.5 31.25 8.4 31.3 8.85 31.3 9.3 31.6 9.75 L31.45 10.85 M20.75 3.9 Q18.8 2.9 16.95 3.05 14.55 3.05 13.8 3.7 13.3 3.5 12.35 4.0 11.55 4.4 11.0 4.9 L9.4 6.3 Q8.45 7.15 8.1 7.9 L7.25 9.45 6.55 11.05 6.3 11.85 Q6.25 12.25 6.55 12.5 L7.25 13.05 8.0 13.35 Q9.05 14.6 11.0 15.35 L14.5 16.1 17.9 16.55 19.95 16.35 22.0 16.1 23.4 15.8 24.75 15.2 26.25 14.55 27.6 13.65 Q28.1 13.25 27.8 12.25 27.55 11.35 27.1 10.95 L26.7 9.8 Q26.65 9.35 25.7 8.2 L23.55 5.8 Q22.9 5.0 20.75 3.9 M27.65 16.0 Q28.05 15.5 27.85 14.4 L25.35 16.15 Q23.85 17.1 22.55 17.3 L19.45 17.55 16.3 17.6 13.7 17.4 11.2 16.75 Q8.7 16.15 6.1 13.45 L6.55 16.25 7.45 17.8 8.5 19.25 Q9.8 20.6 11.75 21.75 14.3 23.1 18.2 23.35 L20.05 23.4 21.85 23.0 24.6 21.2 Q26.85 19.4 27.35 17.65 L27.45 16.75 27.65 16.0 M28.6 16.4 L29.7 16.7 30.85 16.95 Q31.55 17.05 31.9 16.65 L30.65 15.8 28.7 14.95 28.6 15.7 28.6 16.4 M3.55 13.65 Q2.7 14.1 2.25 14.7 L4.5 14.7 Q5.2 14.9 5.0 14.25 L5.0 12.9 3.55 13.65" fill="#673223" fill-rule="evenodd" stroke="none"/>
  </g>
</svg>
