<?xml version="1.0" encoding="UTF-8" standalone="no"?>
<svg xmlns:xlink="http://www.w3.org/1999/xlink" height="44.25px" width="93.0px" xmlns="http://www.w3.org/2000/svg">
  <g transform="matrix(1.0, 0.0, 0.0, 1.0, 46.55, 22.2)">
    <path d="M-3.9 6.5 L-4.15 6.85 -4.75 7.1 -5.9 7.2 -6.55 7.2 -9.7 20.2 -8.95 20.3 -8.4 20.45 -7.8 20.65 -7.4 20.9 -7.2 21.25 Q-7.2 21.7 -7.9 22.05 L-15.8 22.05 -16.05 22.0 -15.95 21.9 -15.8 21.75 -15.55 21.5 -15.4 21.05 -15.1 20.75 -14.35 20.45 -12.55 20.15 -9.2 7.4 -9.8 7.4 -10.25 7.5 -12.1 8.15 -12.2 7.8 -12.2 6.9 -12.1 6.6 -11.75 6.2 Q-11.45 5.9 -11.05 5.75 L-10.05 5.35 -8.6 5.1 -6.6 5.0 -5.1 5.1 -4.25 5.3 -3.9 5.65 -3.85 6.05 -3.9 6.5" fill="#ffffff" fill-rule="evenodd" stroke="none"/>
    <path d="M0.55 12.55 L0.95 12.8 1.1 13.1 1.15 13.4 0.95 13.9 0.1 14.9 -0.15 15.25 0.0 16.3 0.2 16.75 0.35 17.4 0.45 19.3 1.2 18.85 2.95 18.0 3.9 17.4 3.9 19.55 2.55 20.45 0.85 21.15 -0.9 21.65 -2.6 21.85 -3.7 21.7 -4.55 21.4 -5.15 20.8 -5.4 19.9 -5.7 19.95 -6.25 19.95 -6.5 19.9 -6.65 19.65 -6.7 19.3 -6.6 18.85 -6.3 18.5 -4.3 16.7 -1.4 13.05 -1.1 12.7 -0.65 12.55 -0.15 12.45 0.55 12.55 M-2.05 16.8 L-4.55 19.3 -4.25 19.4 -3.9 19.75 -3.5 20.05 -2.9 20.2 -2.3 20.1 -1.95 19.75 -1.7 19.25 -1.65 18.65 -1.9 17.15 -2.05 16.8" fill="#ffffff" fill-rule="evenodd" stroke="none"/>
    <path d="M9.5 3.35 L9.95 3.8 10.15 4.5 10.2 5.3 10.0 7.2 9.4 9.05 8.6 11.0 5.65 16.55 5.55 16.8 5.25 17.9 5.25 18.05 5.3 18.55 5.45 18.95 5.65 19.3 5.8 19.4 6.2 19.35 7.3 18.8 7.8 18.45 9.15 17.5 9.9 19.55 8.2 20.65 7.45 21.05 5.85 21.65 5.15 21.75 Q4.65 21.75 4.2 21.3 L3.4 20.05 Q3.0 19.2 2.85 18.25 2.7 17.35 2.7 16.1 L2.8 14.2 3.7 10.0 4.5 7.9 5.4 6.0 6.45 4.5 7.6 3.5 Q8.2 3.15 8.8 3.15 L9.5 3.35 M8.2 5.85 L8.1 5.65 Q7.75 5.65 7.5 5.95 L6.85 6.95 6.2 8.4 5.65 10.2 5.25 12.05 5.2 14.0 7.0 10.25 7.75 8.2 8.2 6.3 8.2 5.85" fill="#ffffff" fill-rule="evenodd" stroke="none"/>
    <path d="M10.65 13.5 L11.85 12.75 13.2 12.5 13.55 12.55 14.15 13.15 14.35 13.2 15.05 13.2 15.3 13.25 15.55 13.35 15.7 13.6 15.75 14.1 15.65 15.1 15.1 18.65 15.2 19.35 15.55 19.55 16.0 19.45 16.9 18.85 18.3 17.2 18.75 19.4 18.2 20.1 17.35 20.9 Q17.0 21.15 16.35 21.55 L15.25 21.8 Q14.6 21.8 14.2 21.4 13.75 20.95 13.4 20.15 L12.85 20.75 12.1 21.25 11.25 21.65 10.4 21.75 9.45 21.6 8.7 21.0 8.15 20.15 7.95 19.05 8.15 17.55 8.7 16.05 9.55 14.65 10.65 13.5 M10.5 19.1 L10.6 19.45 10.85 19.8 11.2 19.9 Q11.6 19.9 11.85 19.55 L12.4 18.8 12.9 17.15 13.45 14.3 12.7 14.5 Q12.35 14.7 11.95 15.05 L11.35 15.8 10.9 16.75 10.55 17.7 10.45 18.65 10.5 19.1" fill="#ffffff" fill-rule="evenodd" stroke="none"/>
    <path d="M18.4 13.45 L18.85 12.75 Q19.15 12.45 19.7 12.45 20.2 12.45 20.4 12.75 L20.65 13.6 20.35 15.75 20.2 16.45 20.45 16.45 21.9 13.7 22.15 13.4 Q22.4 12.85 22.85 12.65 L23.7 12.45 Q24.2 12.45 24.5 12.85 L24.8 14.0 24.3 16.55 24.15 18.2 Q24.15 18.85 24.3 19.2 L24.8 19.55 25.1 19.45 25.55 19.3 26.0 18.95 27.5 17.55 27.7 19.7 25.55 21.2 24.6 21.6 23.55 21.75 Q23.05 21.75 22.65 20.95 22.3 20.15 22.3 18.7 L22.55 16.0 22.4 16.0 19.9 21.05 19.4 21.65 18.85 21.75 18.25 21.6 17.85 21.1 17.65 20.45 17.6 19.7 17.7 18.25 18.4 13.45" fill="#ffffff" fill-rule="evenodd" stroke="none"/>
    <path d="M37.3 6.65 L36.85 9.25 34.0 16.3 33.9 16.6 33.7 17.95 33.75 18.5 33.85 18.95 34.05 19.25 34.4 19.4 34.8 19.3 35.25 19.1 36.25 18.5 37.35 17.6 37.65 19.85 35.65 21.15 34.5 21.65 33.95 21.7 33.55 21.65 33.0 21.45 32.3 20.9 31.8 20.05 30.15 21.25 29.3 21.65 28.4 21.75 27.3 21.5 26.5 20.75 26.1 19.75 25.9 18.55 26.1 17.3 Q26.25 16.6 26.55 16.05 L27.3 14.9 28.3 14.0 Q28.75 13.65 29.5 13.35 L30.9 12.95 31.15 10.5 31.65 8.2 Q31.95 7.05 32.4 6.2 L33.35 4.55 34.45 3.55 Q34.95 3.15 35.65 3.15 L36.4 3.4 36.95 4.0 37.25 4.95 37.3 6.65 M34.65 5.8 L34.2 6.75 33.45 10.8 33.25 14.45 35.05 9.65 35.35 8.5 35.5 7.4 35.55 6.3 35.45 5.6 35.25 5.4 Q34.85 5.4 34.65 5.8 M29.75 15.25 L28.95 16.35 28.45 17.55 28.25 18.65 28.3 19.0 28.45 19.4 28.8 19.6 29.35 19.7 29.7 19.6 30.35 19.05 30.55 18.7 31.1 17.7 30.95 14.4 29.75 15.25" fill="#ffffff" fill-rule="evenodd" stroke="none"/>
    <path d="M43.1 12.55 L43.5 12.8 43.6 13.1 43.65 13.4 43.5 13.9 42.65 14.9 42.4 15.25 42.45 15.75 42.85 17.4 43.0 19.3 43.75 18.85 45.5 18.0 46.45 17.4 46.45 19.55 45.1 20.45 43.4 21.15 41.65 21.65 39.95 21.85 38.85 21.7 38.0 21.4 37.4 20.8 37.1 19.9 36.85 19.95 36.25 19.95 36.05 19.9 35.9 19.65 35.85 19.3 35.95 18.85 36.25 18.5 38.25 16.7 41.15 13.05 41.45 12.7 41.9 12.55 42.4 12.45 43.1 12.55 M39.05 20.05 L39.6 20.2 40.25 20.1 40.6 19.75 40.85 19.25 40.9 18.65 40.85 18.15 40.65 17.15 40.5 16.8 38.0 19.3 38.3 19.4 38.65 19.75 39.05 20.05" fill="#ffffff" fill-rule="evenodd" stroke="none"/>
    <path d="M-26.7 -16.9 Q-26.55 -16.25 -26.55 -15.25 L-26.7 -13.5 -27.15 -11.4 -27.7 -9.2 -29.4 -3.5 -29.5 -0.65 -29.4 -0.2 -29.25 0.0 -29.0 0.05 -28.35 -0.1 -27.5 -0.45 -24.1 -2.35 -23.35 0.25 -25.05 1.65 -26.25 2.35 -27.5 3.0 -28.8 3.45 -30.05 3.65 -30.95 3.5 -31.7 2.9 -32.3 1.85 -32.5 0.05 -32.25 -2.1 -33.95 0.6 Q-34.9 1.75 -35.95 2.5 -36.95 3.2 -38.15 3.65 L-40.45 4.05 -42.75 3.65 -44.7 2.3 Q-45.6 1.4 -46.1 0.2 -46.55 -1.0 -46.55 -2.75 L-46.25 -5.4 Q-46.0 -6.85 -45.35 -8.3 L-44.0 -11.1 -42.15 -13.75 -39.9 -16.1 Q-38.65 -17.2 -37.25 -18.0 -35.7 -18.85 -34.35 -19.2 L-31.15 -19.65 -30.4 -19.6 -30.0 -19.4 -29.85 -19.15 -29.8 -18.95 -29.8 -18.7 -29.05 -18.4 -28.3 -18.35 -27.65 -18.2 -27.1 -17.8 -26.7 -16.9 M-31.6 -17.1 L-33.75 -16.7 -35.75 -15.6 -37.65 -13.9 -39.35 -11.85 -40.7 -9.55 -41.8 -7.2 -42.5 -4.9 -42.75 -2.85 Q-42.75 -0.95 -42.0 0.05 -41.25 1.1 -39.65 1.1 L-37.8 0.65 -36.15 -0.4 -34.75 -1.9 -33.65 -3.6 -32.9 -5.3 -32.4 -6.65 -29.7 -16.85 -30.65 -17.05 -31.6 -17.1" fill="#ffffff" fill-rule="evenodd" stroke="none"/>
    <path d="M-17.75 -18.55 L-17.9 -18.85 -18.75 -18.3 -19.65 -16.95 -20.5 -15.0 -21.7 -9.95 -21.9 -7.4 -20.65 -9.8 -19.35 -12.5 -18.35 -15.25 Q-17.9 -16.65 -17.75 -17.9 L-17.75 -18.55 M-15.25 -16.65 L-16.05 -14.1 -17.15 -11.45 -21.2 -3.85 -21.35 -3.55 -21.65 -2.55 -21.7 -2.0 -21.7 -1.85 -21.5 -0.6 -21.25 -0.15 -21.0 -0.05 -20.45 -0.1 -19.75 -0.4 -19.0 -0.85 -16.5 -2.55 -15.4 0.2 Q-16.85 1.25 -17.75 1.7 L-18.8 2.25 -20.9 3.05 -21.9 3.2 Q-22.6 3.2 -23.25 2.6 L-24.3 0.9 Q-24.8 -0.1 -25.0 -1.6 L-25.3 -4.5 -25.1 -7.05 -24.6 -9.9 -23.85 -12.85 -22.8 -15.7 -21.55 -18.25 -20.1 -20.35 -18.55 -21.7 Q-17.65 -22.2 -16.9 -22.2 -16.3 -22.2 -15.95 -21.9 L-15.35 -21.25 Q-15.15 -20.85 -15.1 -20.3 L-15.0 -19.2 Q-15.0 -17.95 -15.25 -16.65" fill="#ffffff" fill-rule="evenodd" stroke="none"/>
    <path d="M-5.2 -3.95 L-8.95 -6.85 -9.05 -6.7 Q-8.65 -5.9 -8.5 -5.1 L-8.3 -3.45 -8.5 -1.85 -8.95 -0.35 -9.75 1.05 -10.85 2.15 -12.15 2.9 -13.7 3.2 Q-14.8 3.2 -15.7 2.7 L-17.05 1.4 -17.8 -0.5 -18.1 -2.55 Q-18.1 -4.05 -17.6 -5.3 -17.2 -6.55 -16.4 -7.5 L-14.35 -8.95 Q-13.25 -9.5 -11.75 -9.5 L-9.4 -9.1 Q-8.05 -8.65 -7.3 -8.05 -6.3 -7.4 -5.5 -6.55 L-3.95 -4.8 -4.2 -2.95 -5.2 -3.95 M-11.2 -6.1 L-11.7 -6.75 -12.4 -6.95 -13.45 -6.5 -14.35 -5.35 -14.9 -3.75 -15.1 -2.05 -15.0 -0.95 -14.65 -0.1 -14.05 0.45 -13.2 0.65 Q-12.7 0.65 -12.3 0.2 L-11.55 -0.9 -11.05 -2.45 -10.85 -4.1 -10.95 -5.25 -11.2 -6.1" fill="#ffffff" fill-rule="evenodd" stroke="none"/>
    <path d="M1.65 -18.65 Q1.65 -19.65 1.35 -19.65 L0.35 -18.55 -1.25 -15.25 -1.65 -13.75 -2.9 -6.15 0.15 -13.2 1.25 -16.6 1.65 -18.65 M2.95 -21.95 L3.7 -21.4 4.1 -20.45 4.2 -19.25 3.9 -17.1 3.2 -14.6 -1.3 -5.2 -1.05 -5.05 1.6 -8.1 3.05 -9.25 Q3.7 -9.75 4.45 -9.75 L4.75 -9.7 5.15 -9.45 5.45 -9.05 5.55 -8.3 5.3 -6.55 4.25 -3.1 Q3.95 -2.15 3.95 -1.25 L4.15 -0.35 4.55 -0.1 5.25 -0.2 5.95 -0.55 7.3 -1.6 8.7 -3.1 8.95 0.4 6.6 2.1 5.55 2.65 4.45 3.05 3.5 3.2 2.2 2.85 1.3 1.8 0.8 0.5 0.65 -0.85 0.75 -1.8 1.4 -3.85 2.25 -5.7 2.0 -5.75 1.2 -5.0 -1.35 -1.5 -2.7 0.85 -3.55 2.65 -3.9 3.05 -4.5 3.2 -5.2 2.95 -5.55 2.25 -5.75 1.35 -5.35 -8.95 -4.75 -12.75 -3.8 -16.35 Q-3.35 -18.0 -2.5 -19.35 -1.75 -20.6 -0.65 -21.4 0.5 -22.2 1.8 -22.2 L2.95 -21.95" fill="#ffffff" fill-rule="evenodd" stroke="none"/>
    <path d="M16.8 -8.45 L17.2 -8.4 17.5 -8.3 17.7 -7.9 17.8 -7.25 17.05 -2.6 16.9 -1.05 Q16.9 -0.45 17.05 -0.1 17.15 0.25 17.5 0.25 L18.15 0.1 18.75 -0.25 19.95 -1.35 21.25 -3.0 21.9 -0.05 21.1 0.95 19.95 2.05 18.55 2.9 17.1 3.25 Q16.2 3.25 15.65 2.7 15.05 2.15 14.65 1.1 L13.85 1.85 12.8 2.5 Q12.45 2.8 11.7 3.0 L10.5 3.25 9.25 2.95 8.2 2.2 7.45 1.05 Q7.15 0.35 7.15 -0.5 7.15 -1.5 7.45 -2.55 L8.2 -4.6 9.35 -6.5 10.85 -8.05 12.55 -9.1 14.3 -9.45 14.8 -9.35 15.55 -8.55 15.85 -8.45 16.8 -8.45 M11.8 -4.9 L11.1 -3.65 10.7 -2.35 10.55 -1.05 10.6 -0.45 10.8 0.1 11.05 0.55 11.6 0.65 Q12.05 0.65 12.5 0.25 L13.2 -0.8 13.65 -2.0 14.7 -6.95 13.6 -6.7 12.6 -5.95 11.8 -4.9" fill="#ffffff" fill-rule="evenodd" stroke="none"/>
  </g>
</svg>
