<?xml version="1.0" encoding="UTF-8" standalone="no"?>
<svg xmlns:xlink="http://www.w3.org/1999/xlink" height="50.1px" width="50.05px" xmlns="http://www.w3.org/2000/svg">
  <g transform="matrix(1.0, 0.0, 0.0, 1.0, -11.0, -11.0)">
    <path d="M52.45 19.6 Q59.2 26.45 59.2 36.05 59.2 45.65 52.45 52.45 45.65 59.25 36.05 59.25 26.45 59.25 19.6 52.45 12.8 45.65 12.8 36.05 12.8 26.45 19.6 19.6 26.45 12.8 36.05 12.8 45.65 12.8 52.45 19.6" fill="#f2b330" fill-rule="evenodd" stroke="none"/>
    <path d="M61.05 36.05 Q61.05 46.4 53.75 53.75 46.4 61.1 36.05 61.1 25.7 61.1 18.35 53.75 11.0 46.4 11.0 36.05 11.0 25.7 18.35 18.35 25.7 11.0 36.05 11.0 46.4 11.0 53.75 18.35 61.05 25.7 61.05 36.05 M51.15 20.95 Q44.85 14.65 36.05 14.65 27.2 14.65 20.95 20.95 14.65 27.2 14.65 36.05 14.65 44.85 20.95 51.15 27.2 57.4 36.05 57.4 44.85 57.4 51.15 51.15 57.4 44.85 57.4 36.05 57.4 27.2 51.15 20.95" fill="#ffffff" fill-rule="evenodd" stroke="none"/>
    <path d="M48.85 25.65 Q50.4 27.55 50.4 30.0 L60.6 34.4 49.35 36.6 48.3 43.05 Q48.05 44.2 47.05 45.1 46.15 45.9 44.95 45.9 43.75 45.9 43.05 45.1 42.35 44.2 42.6 43.05 L44.55 31.65 Q44.75 30.5 44.15 29.75 43.5 28.9 42.25 28.9 41.1 28.9 40.2 29.75 39.2 30.5 39.0 31.65 L37.0 43.05 Q36.8 44.3 35.8 45.1 34.85 45.9 33.6 45.9 32.45 45.9 31.8 45.1 31.05 44.2 31.25 43.05 L33.25 31.65 Q33.5 30.55 32.8 29.75 32.15 28.9 31.0 28.9 29.8 28.9 28.85 29.75 27.9 30.55 27.7 31.65 L25.7 43.05 Q25.5 44.2 24.5 45.1 23.45 45.9 22.3 45.9 21.15 45.9 20.45 45.1 19.8 44.25 20.0 43.05 L22.0 31.65 Q22.6 28.15 25.5 25.65 28.5 23.2 32.0 23.2 35.2 23.2 37.25 25.3 40.05 23.2 43.3 23.2 46.8 23.2 48.85 25.65" fill="#ffffff" fill-rule="evenodd" stroke="none"/>
  </g>
</svg>
