<?xml version="1.0" encoding="UTF-8" standalone="no"?>
<svg xmlns:xlink="http://www.w3.org/1999/xlink" height="32.65px" width="32.0px" xmlns="http://www.w3.org/2000/svg">
  <g transform="matrix(1.0, 0.0, 0.0, 1.0, 0.15, 0.2)">
    <path d="M31.7 0.0 L31.7 32.45 0.0 32.45 0.0 0.0 31.7 0.0" fill="#0066ff" fill-opacity="0.0" fill-rule="evenodd" stroke="none"/>
    <path d="M28.35 4.0 Q30.35 6.0 30.35 8.9 L30.35 23.85 Q30.35 26.75 28.35 28.8 26.3 30.8 23.35 30.8 L8.35 30.8 Q5.5 30.8 3.4 28.8 1.35 26.75 1.35 23.85 L1.35 8.9 Q1.35 6.0 3.4 4.0 5.5 1.95 8.35 1.95 L23.35 1.95 Q26.3 1.95 28.35 4.0 Z" fill="none" stroke="#f7f7f7" stroke-linecap="butt" stroke-linejoin="miter" stroke-width="3.0"/>
    <path d="M23.4 26.85 L23.5 26.95 23.55 27.3 23.05 26.7 Q23.15 26.55 23.4 26.85" fill="#ffffff" fill-rule="evenodd" stroke="none"/>
    <path d="M21.8 17.65 L23.05 18.85 22.75 18.7 22.85 18.95 23.25 19.4 22.95 19.15 23.85 20.6 24.05 20.7 24.0 20.6 25.05 21.55 24.2 20.7 23.65 20.0 24.15 20.45 23.5 19.75 24.1 20.3 23.8 19.95 24.5 20.6 24.6 20.8 24.4 20.7 25.1 21.45 24.85 21.25 26.95 23.5 26.7 23.3 27.65 24.3 Q27.95 24.55 27.7 24.4 L27.95 24.75 27.35 24.2 28.35 25.3 27.7 24.75 28.35 25.35 29.25 26.3 28.95 26.15 29.65 26.9 30.15 27.45 29.25 26.6 29.3 26.7 28.6 26.0 28.05 25.3 27.95 25.15 28.05 25.35 28.3 25.65 26.65 24.1 28.45 26.1 27.45 25.15 28.8 26.7 28.5 26.45 28.5 26.55 29.65 27.7 28.6 26.7 28.65 26.95 30.4 28.85 Q30.25 28.85 30.4 29.1 L29.7 28.5 29.9 28.8 29.55 28.5 30.35 29.45 30.3 29.5 31.05 30.35 30.1 29.55 30.5 30.05 30.35 30.0 30.25 29.95 30.7 30.65 29.95 30.0 30.25 30.4 29.85 30.0 29.75 29.9 28.95 29.0 28.75 29.15 29.3 29.65 28.75 29.2 28.7 29.25 29.85 30.6 28.7 29.4 28.7 29.5 26.95 27.8 27.85 28.85 28.25 29.4 29.4 30.45 30.25 31.4 28.95 30.2 Q29.5 30.95 29.15 30.65 L28.45 29.8 28.3 30.0 28.8 30.4 29.15 30.75 29.1 30.75 29.15 30.85 28.25 30.0 28.1 30.0 28.45 30.45 27.65 29.85 28.05 30.3 28.3 30.75 27.2 29.65 26.7 29.45 27.25 30.3 27.5 30.6 27.55 30.75 27.1 30.05 26.35 29.3 26.15 29.25 26.8 29.95 Q26.45 29.95 25.55 28.8 L24.35 27.35 23.15 25.8 23.0 25.65 22.7 25.5 23.25 26.15 Q22.9 25.8 23.4 26.4 L24.1 27.3 19.85 23.15 20.1 23.5 19.55 23.1 21.4 24.95 23.0 26.55 21.25 24.95 21.7 25.4 20.05 23.9 24.35 28.4 19.35 23.2 Q19.85 23.75 19.5 23.3 L18.3 22.0 18.7 22.5 18.05 21.9 Q17.55 21.5 18.25 22.15 L20.0 24.1 18.85 23.1 Q18.5 22.75 18.95 23.3 L20.7 25.2 17.95 22.65 Q17.6 22.3 17.95 22.35 18.2 22.35 17.6 21.75 L17.1 21.3 17.15 21.45 14.45 18.8 15.15 19.65 Q12.3 16.95 13.2 17.55 L11.45 15.8 9.7 14.3 Q7.85 12.05 6.8 11.55 L5.5 9.95 3.0 7.7 1.55 6.1 0.6 5.1 0.55 5.0 0.25 4.15 0.05 3.4 Q0.3 2.55 1.2 1.85 2.2 1.05 3.7 1.15 L4.35 1.2 Q5.85 1.85 7.4 3.2 L11.9 7.45 12.95 8.2 13.5 8.7 14.0 9.35 Q13.95 9.1 14.45 9.55 L14.9 10.1 15.25 10.5 14.95 10.45 15.3 10.9 15.85 11.35 17.4 13.0 21.55 17.35 Q20.05 16.0 21.35 17.3 L21.75 17.75 21.8 17.65 M27.15 29.4 L27.05 29.2 Q27.2 29.2 27.55 29.55 L27.65 29.65 27.7 29.5 27.8 29.55 27.2 28.85 Q27.25 29.1 26.8 28.75 L27.25 29.2 26.6 28.65 26.5 28.75 26.95 29.25 27.15 29.4" fill="#f7f7ee" fill-rule="evenodd" stroke="none"/>
    <path d="M3.55 24.75 Q3.75 24.55 3.6 24.75 L3.3 25.05 4.95 23.6 Q5.9 22.85 3.55 25.1 L3.0 25.45 2.9 25.45 3.55 24.75" fill="#ffffff" fill-rule="evenodd" stroke="none"/>
    <path d="M30.8 4.4 Q30.05 6.1 28.9 7.45 L26.4 10.15 24.65 12.0 Q24.05 12.55 23.8 13.05 L23.35 13.55 22.7 14.05 22.0 15.0 21.45 15.3 Q21.15 15.5 21.65 15.05 L21.15 15.4 20.7 15.85 19.1 17.4 14.95 21.35 14.65 21.6 14.95 21.3 Q15.15 21.1 14.95 21.2 L14.75 21.35 14.25 21.75 14.4 21.8 13.25 23.05 13.3 22.75 Q13.1 23.05 13.05 22.85 L12.75 23.15 12.9 23.0 11.4 23.9 11.35 24.0 11.45 23.95 10.45 25.05 12.0 23.65 11.5 24.2 12.25 23.5 11.85 24.05 12.15 23.85 11.4 24.5 11.2 24.65 11.3 24.4 10.55 25.1 10.8 24.85 8.65 26.85 8.7 26.7 7.6 27.7 7.2 28.0 7.8 27.35 6.75 28.35 7.35 27.65 6.7 28.35 6.0 29.05 5.65 29.25 5.7 29.2 5.1 29.65 4.5 30.15 5.35 29.25 5.25 29.3 5.5 29.05 6.0 28.6 Q6.7 28.1 6.75 28.1 L6.85 28.0 6.65 28.1 6.35 28.3 7.9 26.65 6.05 28.45 6.8 27.45 5.3 28.8 5.6 28.5 5.5 28.5 4.95 29.05 4.3 29.65 5.25 28.6 5.0 28.65 4.6 29.05 3.05 30.4 2.9 30.4 3.5 29.7 3.25 29.95 3.5 29.5 2.5 30.4 2.6 30.15 1.8 30.9 2.45 30.1 1.9 30.5 2.0 30.4 2.05 30.3 1.7 30.6 1.35 30.75 2.0 30.0 Q1.65 30.3 1.55 30.2 L2.2 29.65 2.05 29.85 2.95 28.95 2.9 28.8 2.3 29.3 Q2.3 29.2 2.45 29.05 L2.75 28.75 2.7 28.7 2.4 29.05 1.35 29.85 2.15 29.05 2.6 28.7 2.5 28.65 4.2 26.95 3.2 27.85 2.6 28.2 1.85 29.05 0.6 30.2 1.65 29.05 1.35 29.2 2.15 28.5 2.0 28.3 1.6 28.85 1.25 29.2 1.3 29.1 1.1 29.2 2.0 28.2 2.0 28.1 1.55 28.5 Q1.1 28.8 2.05 27.85 L2.15 27.65 1.7 28.05 1.25 28.3 2.3 27.2 2.5 26.7 1.75 27.3 1.4 27.5 1.2 27.55 1.9 27.1 2.65 26.3 2.1 26.8 Q2.1 26.55 3.2 25.6 L4.65 24.35 6.25 23.15 6.5 22.75 5.9 23.2 Q6.2 22.85 5.6 23.45 L4.75 24.15 6.7 22.05 8.55 20.1 8.6 20.1 8.95 19.65 7.15 21.45 5.4 23.05 7.05 21.3 6.6 21.7 8.15 20.05 5.7 22.35 3.6 24.35 7.95 20.1 7.9 20.05 Q9.95 17.85 8.7 19.0 L6.8 20.75 9.45 18.0 Q9.8 17.7 9.7 18.0 L10.2 17.65 Q11.35 16.55 10.55 17.15 L12.75 15.0 Q12.1 15.6 12.45 15.15 L14.45 13.2 16.2 11.5 17.8 9.75 Q20.0 7.85 20.5 6.85 L22.15 5.55 24.35 3.1 26.0 1.65 27.0 0.65 Q27.3 0.45 27.85 0.35 L28.65 0.1 30.25 1.3 Q31.05 2.3 30.95 3.8 L30.8 4.4 M9.85 18.45 L9.45 18.7 10.15 18.1 Q10.55 17.7 9.85 18.3 L8.7 19.4 Q8.5 19.7 8.7 19.55 L10.1 18.35 Q10.2 18.15 9.85 18.45 M3.3 26.55 L2.75 26.95 2.6 27.15 2.75 27.05 2.45 27.55 2.4 27.7 2.5 27.7 3.1 27.15 3.3 26.85 3.85 26.25 3.65 26.35 3.3 26.8 2.75 27.3 3.3 26.6 3.3 26.55" fill="#eeeedc" fill-rule="evenodd" stroke="none"/>
  </g>
</svg>
