<?xml version="1.0" encoding="UTF-8" standalone="no"?>
<svg xmlns:xlink="http://www.w3.org/1999/xlink" height="28.2px" width="42.0px" xmlns="http://www.w3.org/2000/svg">
  <g transform="matrix(1.0, 0.0, 0.0, 1.0, 0.0, 0.0)">
    <path d="M40.95 6.65 Q42.6 7.5 41.6 9.5 40.55 11.5 38.9 11.3 38.1 11.55 37.35 10.65 36.75 10.05 36.4 9.1 36.2 8.6 35.6 8.45 L34.55 8.2 34.35 12.0 Q34.2 14.35 33.75 15.7 L33.9 15.75 32.75 19.0 Q31.95 21.1 31.15 22.05 L29.1 24.8 27.95 25.85 Q27.45 26.45 27.75 27.25 26.75 26.75 24.75 27.25 L21.7 28.15 19.35 28.05 17.05 27.65 Q15.4 27.9 13.1 26.35 11.1 24.95 10.05 23.35 8.7 21.25 8.2 20.05 7.45 18.25 7.4 16.25 L7.2 16.2 Q7.4 14.95 7.05 13.0 L6.55 9.7 Q5.65 9.7 5.05 9.15 4.35 8.5 4.85 7.65 2.7 9.0 0.9 7.4 -0.95 5.75 1.1 3.7 2.05 2.65 3.95 2.75 L7.05 3.35 Q6.8 1.65 7.95 0.7 9.1 -0.2 10.75 0.3 12.45 0.85 13.25 2.15 13.85 3.1 14.2 5.1 19.35 2.35 25.2 4.6 25.6 0.9 29.8 0.1 34.0 -0.7 33.1 3.65 34.4 4.3 34.8 5.0 35.75 4.75 35.6 4.25 L38.6 4.85 Q40.2 5.4 40.95 6.65" fill="#ffffff" fill-rule="evenodd" stroke="none"/>
    <path d="M31.4 2.1 Q31.6 4.1 28.1 3.85 28.5 2.8 29.2 2.2 30.0 1.5 31.05 1.65 L31.4 2.1" fill="#a09732" fill-rule="evenodd" stroke="none"/>
    <path d="M12.35 4.85 L10.35 4.1 Q8.85 3.55 8.95 2.75 9.15 1.05 10.75 2.2 12.25 3.35 12.35 4.85" fill="#a09732" fill-rule="evenodd" stroke="none"/>
    <path d="M5.35 4.6 L3.55 6.1 Q2.1 7.0 2.35 5.55 2.85 4.9 3.7 4.65 L5.35 4.6" fill="#a09732" fill-rule="evenodd" stroke="none"/>
    <path d="M35.85 6.5 L38.55 6.55 Q40.15 7.3 39.95 8.7 39.9 9.4 39.35 9.75 38.9 10.1 38.35 10.05 L37.45 7.9 Q36.9 6.85 35.85 6.5" fill="#a09732" fill-rule="evenodd" stroke="none"/>
    <path d="M31.5 7.45 Q32.1 8.4 30.6 8.5 L28.75 8.5 29.95 7.7 Q30.75 7.25 31.5 7.45" fill="#a09732" fill-rule="evenodd" stroke="none"/>
    <path d="M22.4 10.95 Q22.65 12.0 23.1 11.75 23.95 11.2 24.75 11.5 L26.65 12.2 Q26.7 11.7 26.1 11.3 L25.3 10.5 26.6 10.6 26.3 9.85 22.85 10.05 Q22.15 9.95 22.4 10.95 M30.05 12.25 Q28.95 14.4 22.2 15.4 L15.55 15.0 Q11.15 14.0 10.15 11.5 10.35 10.5 11.35 9.85 12.4 9.1 13.35 9.5 13.4 9.25 12.85 8.7 12.35 8.2 12.45 8.1 13.15 7.3 15.15 6.35 16.9 5.55 18.25 5.25 20.0 4.85 24.0 6.2 28.3 7.65 27.35 9.05 27.4 9.5 27.9 9.35 L28.6 9.0 29.8 10.5 Q30.45 11.5 30.05 12.25 M17.05 10.3 Q15.85 10.65 15.8 11.0 15.7 11.3 16.5 11.95 16.55 11.2 17.7 11.35 L19.05 11.75 Q19.3 11.85 19.2 10.0 18.8 10.15 18.8 10.6 18.55 10.05 17.9 9.65 L16.65 9.05 14.65 9.5 Q14.6 10.05 15.65 10.15 L17.05 10.3" fill="#ef9d2d" fill-rule="evenodd" stroke="none"/>
    <path d="M10.5 9.35 Q10.25 8.7 10.95 8.65 11.6 8.6 11.95 9.0 L10.5 9.35" fill="#a09732" fill-rule="evenodd" stroke="none"/>
    <path d="M12.75 18.2 L13.15 14.95 Q14.35 15.65 16.7 16.15 L16.4 22.55 Q15.1 22.4 13.4 20.8 12.6 20.7 12.75 18.2 M10.9 13.9 L12.1 14.4 Q12.6 14.85 12.55 15.55 L12.2 19.8 Q10.75 18.9 10.65 17.1 10.6 16.55 10.9 13.9 M8.75 11.6 L9.5 12.3 9.95 13.2 Q10.4 12.95 10.25 14.55 L10.1 16.45 Q9.15 14.1 8.75 11.6 M31.0 16.45 Q30.7 14.9 30.85 14.15 31.0 13.3 31.9 12.25 32.0 14.1 31.0 16.45 M21.4 18.55 L21.15 23.4 18.55 23.25 Q17.0 22.95 17.05 21.85 L17.2 16.25 19.75 16.85 21.15 17.05 Q21.45 17.3 21.4 18.55 M21.8 17.5 Q21.8 16.9 22.3 16.8 L24.4 16.35 Q24.85 18.4 24.85 21.85 24.8 23.05 23.75 23.2 L21.8 23.4 Q21.7 22.45 21.75 21.05 L21.9 18.65 21.8 17.5 M25.4 16.1 L26.6 15.7 Q27.75 15.2 27.6 17.75 27.4 21.05 27.55 21.4 26.25 22.2 25.45 22.45 L25.15 17.2 Q25.05 16.3 25.4 16.1 M27.95 15.1 L30.15 14.15 30.3 17.8 29.35 19.45 28.05 20.7 28.05 16.9 27.95 15.1" fill="#ffffff" fill-rule="evenodd" stroke="none"/>
    <path d="M9.45 17.6 Q10.85 19.95 13.25 21.5 15.05 22.7 18.25 23.85 21.5 25.05 24.8 23.7 27.05 22.75 30.3 19.95 28.9 23.55 25.6 25.3 22.55 26.9 18.95 26.5 15.3 26.1 12.7 23.85 9.9 21.4 9.45 17.6" fill="#ef9d2d" fill-rule="evenodd" stroke="none"/>
    <path d="M18.35 5.15 L19.8 5.05 19.3 5.3 18.35 5.15 M29.15 9.45 Q31.45 12.4 29.55 13.6 L28.0 14.3 Q26.8 14.65 26.4 14.1 27.7 11.8 27.0 10.15 26.45 8.65 24.1 7.3 L21.3 5.65 Q20.45 5.2 19.8 5.05 21.6 4.35 24.65 5.95 27.5 7.45 29.15 9.45" fill="#cc6130" fill-rule="evenodd" stroke="none"/>
    <path d="M15.05 22.45 Q15.35 22.35 16.5 23.0 L15.15 22.85 15.05 22.45 M29.35 20.55 Q30.0 19.8 30.55 19.7 29.25 23.15 26.2 24.95 23.5 26.6 19.7 26.7 21.6 26.6 18.7 24.5 L16.5 23.0 19.65 23.6 24.2 23.35 26.3 22.65 28.3 21.7 29.35 20.55" fill="#cc6130" fill-rule="evenodd" stroke="none"/>
    <path d="M15.1 10.35 Q14.35 9.9 13.35 9.9 14.25 9.35 15.35 9.55 L17.15 9.65 16.8 8.9 17.7 9.25 Q18.9 9.65 18.95 10.6 L18.45 10.75 Q18.6 11.0 16.15 11.4 L13.25 11.7 Q13.15 11.3 13.95 10.85 L15.1 10.35" fill="#fad9a9" fill-rule="evenodd" stroke="none"/>
    <path d="M25.05 8.85 Q27.1 8.5 28.1 9.5 L27.0 9.65 Q26.3 9.95 26.15 10.35 L27.45 10.55 28.45 11.35 26.35 11.3 27.15 12.45 Q26.35 12.55 24.9 11.9 23.4 11.3 22.75 11.35 L22.65 10.6 Q22.95 9.2 25.05 8.85" fill="#fad9a9" fill-rule="evenodd" stroke="none"/>
    <path d="M20.35 22.2 L20.55 20.25 20.2 16.7 20.8 16.45 21.35 16.35 Q21.8 19.25 21.35 21.05 L21.15 23.0 Q20.95 24.6 20.5 24.0 20.15 23.65 20.35 22.2" fill="#b6bedd" fill-rule="evenodd" stroke="none"/>
    <path d="M23.5 15.9 L24.4 16.1 Q25.0 15.65 25.15 19.35 25.3 23.0 24.35 23.05 23.85 23.1 23.5 15.9" fill="#b6bedd" fill-rule="evenodd" stroke="none"/>
    <path d="M26.65 15.05 L26.75 15.3 27.45 14.65 Q27.75 15.45 27.8 18.7 27.85 22.15 27.3 22.1 27.0 21.6 27.0 20.4 L26.95 18.65 26.6 16.85 Q26.35 15.55 26.65 15.05" fill="#b6bedd" fill-rule="evenodd" stroke="none"/>
    <path d="M29.2 14.1 L29.15 14.4 29.6 13.95 30.15 13.6 30.7 16.45 Q30.8 18.1 29.55 19.0 29.25 18.7 29.1 16.6 L29.05 14.1 29.2 14.1" fill="#b6bedd" fill-rule="evenodd" stroke="none"/>
    <path d="M30.65 13.25 L30.4 13.75 31.0 12.65 Q31.55 11.8 31.75 11.9 32.1 12.65 31.9 14.1 31.65 15.6 31.1 16.3 31.2 14.25 30.65 13.25" fill="#b6bedd" fill-rule="evenodd" stroke="none"/>
    <path d="M17.75 16.1 L17.15 23.15 Q15.95 23.4 15.85 21.4 L15.9 18.6 Q15.65 16.85 15.95 16.35 16.3 15.8 17.75 16.1 L17.75 15.85 17.85 16.1 17.75 16.1" fill="#b6bedd" fill-rule="evenodd" stroke="none"/>
    <path d="M8.75 10.7 L9.55 11.65 10.2 12.7 9.8 14.25 Q9.45 15.2 9.5 15.75 9.1 15.2 8.85 13.4 8.6 11.5 8.75 10.7" fill="#b6bedd" fill-rule="evenodd" stroke="none"/>
    <path d="M14.0 15.3 L13.85 16.8 13.6 18.65 13.65 20.25 Q13.6 21.45 13.25 21.75 13.3 21.3 12.95 20.85 L12.6 19.95 Q12.55 18.6 13.0 15.05 L14.0 15.3" fill="#b6bedd" fill-rule="evenodd" stroke="none"/>
    <path d="M10.6 18.45 L10.55 18.7 Q9.95 18.55 10.4 16.2 10.85 13.95 11.45 13.75 11.35 18.65 10.6 18.45" fill="#b6bedd" fill-rule="evenodd" stroke="none"/>
    <path d="M31.85 3.55 Q31.5 4.2 30.25 4.3 L28.55 4.45 27.85 4.8 27.2 5.1 27.2 5.45 Q26.1 6.0 26.65 4.45 27.0 3.3 27.5 2.6 28.45 1.35 29.55 1.05 30.85 0.65 31.9 1.7 32.1 3.0 31.85 3.55 M31.05 1.65 Q30.0 1.5 29.2 2.2 28.5 2.8 28.1 3.85 L30.65 3.55 Q31.9 3.0 31.05 1.65" fill="#252034" fill-rule="evenodd" stroke="none"/>
    <path d="M12.65 5.6 Q10.05 4.55 8.9 3.9 6.95 2.75 9.5 1.2 10.15 1.1 11.05 1.6 L12.4 2.5 12.95 4.5 Q13.3 6.1 12.65 5.6 M11.25 2.8 Q10.65 2.15 9.55 2.3 8.45 2.45 9.15 3.25 9.65 3.8 10.7 4.15 L12.35 4.85 Q12.15 3.7 11.25 2.8" fill="#252034" fill-rule="evenodd" stroke="none"/>
    <path d="M6.95 5.1 Q6.35 5.15 4.25 6.55 2.75 7.5 1.35 6.55 0.25 4.15 3.7 3.95 7.3 3.7 6.95 5.1 M2.35 5.55 Q2.1 7.0 3.55 6.1 L5.35 4.6 3.7 4.65 Q2.85 4.9 2.35 5.55" fill="#252034" fill-rule="evenodd" stroke="none"/>
    <path d="M38.75 6.05 L39.6 6.85 40.45 7.65 Q41.1 8.8 40.1 9.85 39.1 10.9 38.1 9.75 L37.45 8.7 36.6 7.75 35.65 7.4 34.75 7.1 Q34.1 6.75 35.35 6.0 36.7 5.25 36.7 5.5 37.7 5.55 38.75 6.05 M38.3 6.4 L35.85 6.5 Q36.55 6.75 37.75 7.65 L38.25 8.9 Q38.6 9.7 39.05 9.65 39.6 9.6 39.85 9.15 L39.95 8.15 Q39.6 6.9 38.3 6.4" fill="#252034" fill-rule="evenodd" stroke="none"/>
    <path d="M15.65 10.15 Q14.6 10.0 14.65 9.5 L16.65 9.05 17.9 9.65 Q18.55 10.05 18.8 10.6 18.95 10.05 19.2 10.0 19.85 12.15 19.05 11.7 18.5 11.35 17.6 11.3 16.55 11.25 16.5 11.95 L15.9 11.7 Q15.55 11.55 15.65 11.05 L17.05 10.3 15.65 10.15" fill="#252034" fill-rule="evenodd" stroke="none"/>
    <path d="M33.15 5.85 Q33.4 7.2 33.3 8.85 L33.05 11.85 32.95 14.35 Q32.85 15.95 32.2 16.6 L32.3 16.65 30.15 21.25 Q28.85 23.6 27.0 25.2 26.55 25.15 25.5 25.8 L24.05 26.6 18.05 26.8 Q11.85 25.0 9.45 20.4 L8.75 17.55 Q8.25 15.2 8.4 15.2 8.55 14.1 7.95 11.45 7.4 9.05 7.75 7.65 L6.75 8.3 5.75 8.35 Q5.9 7.65 7.35 7.05 8.6 6.5 9.2 6.6 L9.05 7.4 8.85 8.3 Q8.8 8.95 9.15 9.6 L9.6 10.85 Q9.95 10.4 9.6 9.6 9.3 8.8 9.85 8.2 10.25 7.75 11.15 7.7 L12.5 7.3 Q14.0 6.25 16.1 5.5 18.15 4.75 19.95 4.55 L25.3 5.8 Q27.5 6.65 28.55 7.85 29.6 7.15 30.25 6.9 L32.05 7.05 Q32.55 8.45 31.45 8.85 L29.35 9.0 30.25 10.05 31.0 11.25 Q32.2 10.2 32.3 7.85 32.4 6.2 31.7 5.8 L31.05 5.7 Q30.75 5.6 30.8 5.2 32.2 4.25 33.3 4.95 34.2 5.65 33.9 6.05 L33.55 6.1 33.15 5.85 M31.5 7.45 Q30.75 7.25 29.95 7.7 L28.75 8.5 30.6 8.5 Q32.1 8.4 31.5 7.45 M28.6 9.0 L27.9 9.35 Q27.4 9.5 27.35 9.05 L27.8 8.55 Q24.0 5.3 19.4 5.45 16.85 5.45 14.5 7.0 L13.45 7.6 12.55 8.35 13.15 8.75 13.35 9.5 12.0 9.55 10.8 10.35 Q10.3 11.4 10.45 11.65 L11.4 12.7 Q11.75 12.7 12.75 13.35 L14.15 14.15 16.6 14.65 20.2 15.1 24.5 14.65 28.65 13.4 Q30.0 12.7 30.15 11.95 30.3 11.2 29.45 9.95 L28.6 9.0 M27.95 15.1 L28.05 20.7 Q28.8 20.3 29.6 19.1 30.4 17.8 30.4 17.0 L30.3 15.6 30.15 14.15 27.95 15.1 M27.1 15.4 L25.9 16.0 Q25.05 16.3 25.05 17.2 L25.3 19.0 25.45 22.45 Q26.9 21.95 27.25 21.3 L27.5 19.25 27.5 16.35 Q27.45 15.35 27.1 15.4 M20.55 16.9 L17.2 16.25 17.05 22.75 21.15 23.4 21.4 18.55 21.4 17.3 Q21.25 16.9 20.55 16.9 M22.7 16.6 L21.85 16.85 21.85 19.5 21.65 21.7 Q21.6 23.3 22.15 23.4 L23.95 23.15 Q24.8 22.75 24.85 21.85 24.85 18.4 24.4 16.35 L22.7 16.6 M22.2 24.6 L20.7 24.75 18.15 24.25 Q15.7 23.45 15.65 23.05 13.5 22.25 12.05 20.95 10.8 19.8 9.45 17.6 L9.85 18.9 10.3 20.05 Q10.15 20.9 11.45 22.3 L13.4 24.1 Q16.25 26.35 20.7 26.35 23.7 26.4 26.45 24.6 29.2 22.8 30.3 19.95 L28.4 21.7 26.35 23.25 Q25.4 23.85 23.75 24.4 L22.2 24.6 M31.0 16.45 Q32.0 14.1 31.9 12.25 L31.25 13.35 Q30.35 13.5 31.0 16.45 M10.95 8.65 Q10.25 8.7 10.5 9.35 L11.95 9.0 Q11.6 8.6 10.95 8.65 M8.75 11.6 Q9.15 14.1 10.1 16.45 L10.35 14.75 Q10.55 13.65 10.15 13.25 L9.55 12.35 8.75 11.6 M10.65 17.1 Q10.75 18.9 12.2 19.8 L12.65 14.7 Q12.3 14.6 11.7 14.3 L10.9 13.9 Q10.6 16.55 10.65 17.1 M14.5 21.75 Q15.65 22.5 16.4 22.55 L16.7 16.15 Q14.35 15.65 13.15 14.95 L12.8 20.35 14.5 21.75" fill="#252034" fill-rule="evenodd" stroke="none"/>
    <path d="M23.0 10.4 Q24.4 9.15 26.7 10.1 26.65 10.8 26.45 10.7 L25.3 10.5 Q25.45 10.9 26.1 11.35 26.7 11.7 26.65 12.2 25.95 12.15 25.35 11.6 24.95 11.25 24.35 11.25 L23.35 11.15 23.15 11.6 Q23.05 11.85 22.65 11.6 L22.4 10.6 Q22.3 9.95 22.85 10.05 L23.0 10.4" fill="#252034" fill-rule="evenodd" stroke="none"/>
  </g>
</svg>
