<?xml version="1.0" encoding="UTF-8" standalone="no"?>
<svg xmlns:xlink="http://www.w3.org/1999/xlink" height="24.5px" width="33.2px" xmlns="http://www.w3.org/2000/svg">
  <g transform="matrix(1.0, 0.0, 0.0, 1.0, 0.0, 0.0)">
    <path d="M31.25 8.05 Q31.4 8.7 30.7 9.35 30.0 10.0 30.05 10.6 L31.6 10.55 Q33.7 10.7 33.05 12.65 32.45 14.45 31.05 15.2 L28.5 15.65 28.05 17.0 Q27.7 17.85 27.7 18.4 27.45 18.3 25.85 19.9 L23.9 21.85 22.0 23.1 20.6 23.5 Q19.9 23.8 19.95 24.35 L18.55 24.2 Q17.4 24.15 17.35 24.45 L16.45 24.35 15.15 24.2 Q14.7 24.45 11.55 23.2 L9.3 21.6 7.2 19.8 Q5.0 17.5 4.5 16.05 3.25 15.65 2.3 15.05 L0.75 13.7 Q-0.35 12.6 0.2 11.95 L0.75 11.15 Q1.05 10.75 1.55 10.8 1.4 9.75 2.85 8.6 L5.2 6.85 7.15 4.45 Q8.3 3.0 9.4 2.2 L10.8 1.35 Q11.45 0.65 13.5 0.3 L16.55 0.0 18.9 0.2 20.75 0.05 22.9 1.1 Q24.3 1.7 24.75 2.2 L26.7 4.35 28.4 6.75 30.15 6.9 Q31.15 7.3 31.25 8.05" fill="#ffffff" fill-rule="evenodd" stroke="none"/>
    <path d="M27.55 8.3 L27.05 8.5 26.65 8.7 26.6 8.9 27.45 9.25 27.9 10.0 27.7 10.5 27.7 10.6 27.45 11.65 27.75 12.8 27.85 13.7 Q27.8 15.6 26.1 17.85 L23.25 20.9 23.1 21.05 22.95 21.05 21.95 21.5 20.9 22.15 20.8 22.25 20.65 22.25 16.5 22.75 14.75 22.6 Q12.3 22.2 10.4 20.95 8.45 19.8 7.0 17.8 5.45 15.5 5.4 13.65 5.4 12.95 5.65 12.5 L6.1 12.75 5.9 12.3 6.1 12.3 Q6.4 12.3 6.75 12.65 L6.1 11.2 Q5.75 10.5 5.75 10.0 5.7 9.35 6.35 9.0 L6.7 8.75 6.5 8.65 6.35 8.55 6.3 8.4 6.3 8.2 Q6.4 6.9 7.3 6.2 8.1 5.0 9.65 3.8 10.0 3.55 12.35 2.65 L14.55 1.9 Q14.75 1.7 15.55 1.45 L16.95 1.35 18.65 1.4 Q19.95 1.5 22.55 2.8 25.95 4.4 27.35 7.85 L27.55 8.3" fill="#ffdd00" fill-rule="evenodd" stroke="none"/>
    <path d="M21.85 7.45 L21.85 7.95 22.05 7.65 21.85 7.45 M20.65 3.8 L20.8 3.8 20.7 4.05 20.85 4.25 Q18.6 5.8 18.6 7.25 18.6 8.05 19.3 8.95 20.15 9.9 21.7 9.9 23.45 9.9 23.8 8.55 L23.85 8.05 Q23.85 7.1 23.1 6.4 22.45 5.75 21.6 5.75 20.6 5.75 20.05 6.8 L20.0 7.1 Q20.05 8.25 20.9 8.35 L21.3 8.25 Q20.35 8.15 20.35 7.3 20.35 6.75 21.0 6.25 21.45 5.95 22.0 5.95 22.65 5.95 23.15 6.5 23.6 7.05 23.6 7.85 L23.6 8.1 Q23.55 8.9 22.95 9.35 L21.65 9.7 Q20.6 9.7 19.75 9.1 18.85 8.45 18.8 7.4 18.8 6.7 19.3 6.05 19.9 5.2 20.8 4.85 L22.4 4.35 22.55 4.3 22.65 4.5 24.1 5.45 Q25.3 6.1 25.5 7.1 L25.5 7.45 Q25.5 8.8 24.5 10.35 L23.55 11.0 22.35 11.35 Q22.15 11.35 22.0 11.2 L21.9 11.4 21.9 11.7 21.6 11.6 19.7 11.3 Q17.75 10.95 17.2 8.6 L17.15 8.0 Q17.15 6.5 18.2 5.15 19.25 3.8 20.65 3.8" fill="#ffffff" fill-rule="evenodd" stroke="none"/>
    <path d="M22.1 2.85 L20.9 3.3 19.5 3.6 18.7 4.2 18.0 5.05 Q16.95 6.25 17.1 7.9 17.2 9.2 18.1 10.55 19.0 11.95 20.85 12.0 22.45 12.1 23.95 11.2 L25.6 9.4 Q26.75 8.1 27.3 8.9 27.7 9.45 27.8 11.0 L27.75 13.2 Q27.1 16.6 24.9 19.2 23.25 21.2 19.25 22.25 14.85 23.5 14.25 22.8 16.3 22.7 18.45 21.8 20.7 20.9 22.1 19.45 25.5 16.05 24.15 14.05 L24.75 13.25 Q25.15 12.8 24.75 12.3 24.45 11.85 23.35 12.55 22.05 13.15 20.65 13.0 L17.9 12.3 Q15.6 11.35 15.0 8.6 14.4 5.75 16.45 4.1 15.8 3.55 12.85 3.45 L10.1 3.7 12.1 2.5 Q14.45 1.4 15.15 1.35 16.9 1.1 18.85 1.35 21.5 1.7 22.1 2.85" fill="#dca90e" fill-rule="evenodd" stroke="none"/>
    <path d="M11.35 11.15 L13.3 10.7 Q13.8 12.15 12.05 12.4 10.45 12.6 9.5 11.9 8.75 11.25 8.65 9.9 8.55 8.65 9.55 8.45 L10.35 8.45 Q9.9 9.1 10.0 10.1 10.15 11.45 11.35 11.15" fill="#dca90e" fill-rule="evenodd" stroke="none"/>
    <path d="M25.1 14.85 Q23.65 16.5 21.8 17.55 19.7 18.75 17.7 18.85 14.75 18.95 13.05 18.05 L12.1 17.05 11.4 16.5 11.55 16.5 14.65 16.55 17.7 16.7 Q20.15 16.45 25.1 14.85" fill="#efe3a5" fill-rule="evenodd" stroke="none"/>
    <path d="M11.35 8.9 L12.45 8.95 Q12.9 9.15 12.7 9.75 11.85 12.3 10.65 10.75 10.2 10.2 10.35 9.6 10.5 8.95 11.35 8.9" fill="#a65f99" fill-rule="evenodd" stroke="none"/>
    <path d="M28.1 12.3 L31.1 12.5 29.65 13.65 27.9 13.9 28.1 12.3" fill="#a65f99" fill-rule="evenodd" stroke="none"/>
    <path d="M4.95 12.75 L5.05 14.1 Q4.15 14.2 3.45 13.7 L2.3 12.5 4.95 12.75" fill="#a65f99" fill-rule="evenodd" stroke="none"/>
    <path d="M4.35 12.75 L2.55 12.65 Q3.8 14.2 5.05 14.1 5.1 13.0 4.35 12.75 M12.3 9.15 L10.95 9.1 Q10.35 9.2 10.65 10.35 11.65 11.45 12.3 10.35 13.1 9.1 12.3 9.15 M13.4 11.0 L10.3 11.05 Q8.45 9.8 10.0 8.75 9.5 8.25 11.0 8.05 L13.0 8.3 Q13.6 8.8 13.75 9.6 13.95 10.5 13.4 11.0 M27.9 13.9 L29.65 13.65 31.1 12.5 28.1 12.3 27.9 13.9 M21.3 21.25 L22.9 20.55 26.0 17.2 Q27.7 14.75 27.25 12.9 25.35 16.45 17.75 17.3 L14.25 17.15 10.8 16.2 8.25 14.9 7.1 13.75 6.1 12.75 6.0 13.5 Q7.85 21.0 14.85 22.1 L19.6 21.95 21.3 21.25 M21.1 2.7 L20.95 2.6 Q17.85 1.25 13.95 2.45 L11.3 3.4 10.2 4.2 9.1 4.85 7.65 6.4 Q6.75 7.45 6.8 8.25 7.35 8.65 7.05 9.1 6.8 9.55 6.4 9.25 5.75 10.6 7.0 12.25 7.95 13.5 9.35 14.25 11.55 15.45 16.15 15.55 L20.8 15.2 Q23.45 14.7 25.0 13.5 27.45 11.8 27.3 10.35 27.3 9.8 27.0 9.65 L26.35 9.45 Q25.15 12.0 21.65 12.45 L20.1 12.1 18.5 11.65 17.75 10.9 16.95 10.2 16.5 9.35 16.05 8.45 Q15.95 8.45 16.6 6.85 17.3 5.25 17.55 5.0 18.5 3.95 19.15 3.6 L20.15 3.2 Q21.0 2.85 21.1 2.7 M23.05 4.9 L21.1 4.85 Q20.3 5.1 19.5 6.2 18.05 8.25 20.55 9.25 23.1 10.25 23.35 8.05 23.45 7.15 22.9 6.6 22.3 6.0 21.4 6.25 L20.7 7.4 Q20.45 8.1 21.55 8.0 21.7 7.55 21.45 7.05 22.25 7.2 22.3 7.65 L21.8 8.45 Q20.4 9.4 19.85 7.6 19.25 5.6 21.6 5.65 24.0 5.7 24.2 7.95 L23.55 9.45 Q23.15 10.0 22.1 10.1 L20.7 9.85 19.5 9.6 18.5 8.2 Q18.05 7.4 18.35 6.65 18.95 5.3 20.7 4.05 L20.35 3.85 Q18.7 4.65 17.9 6.1 17.1 7.65 17.7 9.3 18.15 10.75 19.75 11.05 L21.1 11.25 21.7 11.15 Q21.8 10.95 22.15 10.95 L22.85 11.05 23.75 10.7 Q24.4 10.3 24.9 9.1 25.35 7.9 25.25 7.1 25.15 6.55 24.1 5.85 L23.05 4.9 M20.95 1.55 Q23.45 2.35 24.65 3.8 26.05 4.55 26.5 5.75 27.5 6.8 27.65 7.75 L29.55 8.15 Q30.95 8.5 29.2 8.6 29.25 10.0 28.45 11.55 L30.75 11.6 Q32.45 11.7 32.0 12.6 L29.85 14.35 28.45 14.55 Q27.6 14.7 27.5 15.3 27.05 18.2 23.9 20.6 21.05 22.8 17.95 23.2 14.9 23.55 11.85 22.0 9.05 20.6 7.0 17.95 5.55 15.2 5.1 15.1 3.9 14.9 2.7 13.95 L1.7 13.15 Q1.2 12.65 1.35 12.1 L3.05 11.95 5.0 12.25 Q5.4 10.95 3.75 10.9 2.4 10.85 3.25 9.85 L5.1 8.3 Q5.5 8.7 6.2 7.6 L6.95 6.1 Q8.75 3.65 11.25 2.45 13.3 1.5 16.65 1.1 18.65 0.8 20.95 1.55" fill="#673223" fill-rule="evenodd" stroke="none"/>
  </g>
</svg>
