<?xml version="1.0" encoding="UTF-8" standalone="no"?>
<svg xmlns:xlink="http://www.w3.org/1999/xlink" height="31.8px" width="35.0px" xmlns="http://www.w3.org/2000/svg">
  <g transform="matrix(1.0, 0.0, 0.0, 1.0, 0.0, 0.0)">
    <path d="M30.55 0.25 Q31.3 0.35 32.15 0.85 L33.6 1.75 32.05 3.15 Q31.95 3.25 32.0 3.55 L31.8 3.8 31.2 4.0 30.6 4.65 31.8 4.6 32.95 4.8 33.85 5.1 34.4 5.95 Q35.85 7.75 33.85 8.6 L30.55 9.3 25.8 9.05 Q25.35 8.9 24.4 9.5 L23.9 8.05 Q23.65 7.2 23.9 6.6 L21.95 6.5 Q21.1 6.6 21.95 7.75 L22.5 8.4 Q22.85 8.9 22.65 9.0 22.45 9.15 23.25 10.35 L24.25 11.85 22.5 11.2 Q24.45 13.35 25.3 15.1 26.25 17.2 26.25 19.8 26.2 20.35 26.7 21.2 L27.25 22.4 26.9 24.35 Q26.9 24.9 25.5 25.75 L24.8 25.85 Q24.5 25.85 24.1 26.45 L22.3 28.75 20.7 29.85 19.3 30.85 Q18.3 31.6 18.05 31.4 17.7 31.15 16.8 31.4 L15.4 31.75 13.55 31.8 11.65 31.75 Q8.45 31.75 5.65 29.6 5.45 29.45 5.2 29.6 L4.9 29.7 4.75 29.4 Q4.7 29.2 4.45 29.15 4.1 28.25 3.75 28.0 L3.4 27.7 3.15 27.25 1.95 26.9 Q0.7 26.55 0.4 26.05 -0.25 24.95 0.1 23.2 0.35 21.65 1.15 20.45 1.2 19.0 1.65 17.3 2.15 15.4 2.95 14.35 4.45 12.3 6.9 10.75 L11.75 8.25 Q12.9 7.7 14.0 7.85 L15.65 6.2 16.25 5.35 17.05 4.85 18.3 4.85 Q18.8 4.8 19.1 4.15 L17.1 4.5 18.75 2.25 Q20.05 0.5 20.5 0.4 L23.2 0.0 Q25.2 -0.15 25.6 0.7 25.8 0.2 27.85 0.1 L30.55 0.25" fill="#ffffff" fill-rule="evenodd" stroke="none"/>
    <path d="M8.45 22.95 Q7.95 22.65 6.9 22.95 6.05 23.15 5.35 23.55 5.4 24.4 6.55 23.9 6.6 24.45 7.15 24.6 L9.15 24.8 Q10.15 24.9 10.6 25.5 L11.75 26.75 Q13.05 27.7 14.45 27.55 15.8 27.4 16.9 26.3 L17.6 25.25 Q17.95 24.65 18.4 24.6 L18.3 24.35 17.95 23.9 16.6 23.8 15.35 23.8 11.9 24.15 8.0 23.95 Q8.55 23.4 8.45 22.95 M23.5 16.8 Q24.45 19.35 23.25 22.65 22.2 25.3 20.1 27.7 18.45 29.6 14.1 29.75 9.8 29.95 7.4 28.3 L7.4 28.35 6.1 28.25 Q5.45 27.75 5.25 26.75 4.1 25.45 3.7 22.7 3.55 21.55 3.55 19.8 3.65 17.8 4.4 16.75 L6.35 14.1 Q7.3 13.1 9.0 12.0 10.85 10.8 12.15 10.5 L17.0 11.2 17.05 11.15 Q16.95 11.3 18.1 11.65 L19.45 12.0 Q22.25 13.0 23.5 16.8" fill="#a45290" fill-rule="evenodd" stroke="none"/>
    <path d="M2.95 22.0 L3.3 23.85 Q3.35 24.85 2.3 25.05 2.25 23.7 2.95 22.0" fill="#6c6b33" fill-rule="evenodd" stroke="none"/>
    <path d="M24.4 21.75 L24.75 23.15 Q24.65 23.7 23.7 23.65 L24.4 21.75" fill="#6c6b33" fill-rule="evenodd" stroke="none"/>
    <path d="M11.2 24.85 Q11.3 25.25 10.9 24.85 L13.65 24.75 13.85 25.4 Q13.95 25.8 14.3 25.85 14.6 25.65 14.5 25.35 L14.35 24.8 16.7 24.65 Q16.6 27.05 14.15 26.9 11.8 26.75 11.2 24.85" fill="#ea94ba" fill-rule="evenodd" stroke="none"/>
    <path d="M23.9 17.05 Q24.45 19.6 23.7 22.1 23.1 24.2 21.4 26.65 20.2 28.4 17.55 29.2 L12.9 29.9 14.45 29.05 16.15 28.2 17.7 26.9 19.2 25.45 Q21.7 22.4 21.6 18.5 21.5 14.9 17.25 12.85 13.7 11.15 9.95 11.35 L9.55 11.55 Q12.75 8.25 17.9 10.5 22.9 12.65 23.9 17.05" fill="#bb81b1" fill-rule="evenodd" stroke="none"/>
    <path d="M4.6 19.0 L5.0 18.65 5.25 18.85 10.1 18.6 9.65 19.05 9.15 19.4 9.7 19.55 10.25 19.65 7.85 20.2 5.4 20.1 5.95 19.6 6.4 19.35 5.45 19.55 4.35 19.45 Q4.3 19.3 4.6 19.0" fill="#6b4b5a" fill-rule="evenodd" stroke="none"/>
    <path d="M20.45 18.8 L23.1 19.2 Q23.35 19.65 22.75 19.9 L21.75 20.15 22.75 20.8 21.2 20.8 19.65 20.6 18.25 20.75 16.95 20.7 17.5 20.3 18.15 20.0 Q16.65 19.95 16.45 19.65 L17.5 18.95 17.5 19.0 17.4 19.25 17.3 19.2 Q17.6 19.6 20.45 18.8" fill="#6b4b5a" fill-rule="evenodd" stroke="none"/>
    <path d="M21.0 2.3 L22.4 1.9 23.6 1.95 22.75 3.05 Q21.85 3.8 22.0 4.0 22.4 4.45 23.55 4.35 L25.15 4.45 Q25.2 5.35 23.1 5.3 L20.45 5.0 Q20.3 4.65 21.05 3.85 21.75 3.15 22.15 3.0 L21.05 3.0 Q20.3 3.0 21.0 2.3" fill="#4f336c" fill-rule="evenodd" stroke="none"/>
    <path d="M28.15 3.1 L27.05 3.2 27.15 2.25 Q30.55 1.5 30.25 2.5 30.05 3.35 28.65 4.5 27.3 5.65 27.1 6.55 L29.6 6.7 32.55 6.85 Q33.6 7.8 25.25 7.4 25.1 6.55 26.2 5.0 27.3 3.5 28.15 3.1" fill="#4f336c" fill-rule="evenodd" stroke="none"/>
    <path d="M6.75 23.3 L7.2 23.3 6.8 23.65 Q6.45 23.95 6.8 24.1 L8.85 24.3 Q10.2 24.4 10.65 24.9 L11.7 26.35 Q12.45 27.3 13.7 27.2 L15.8 26.65 16.95 25.6 17.8 24.45 Q17.35 26.95 15.05 27.75 12.65 28.6 10.95 26.45 10.35 25.65 9.45 25.6 L7.6 25.65 Q6.9 25.6 6.25 25.0 5.65 24.35 5.0 24.3 4.95 24.0 5.75 23.65 6.45 23.3 6.75 23.3" fill="#6b4b5a" fill-rule="evenodd" stroke="none"/>
    <path d="M17.2 6.75 L19.3 6.65 18.5 7.45 17.9 8.25 20.55 8.7 Q20.55 9.5 18.8 9.35 L16.6 9.0 Q16.5 8.7 17.15 8.05 L18.05 7.4 17.15 7.35 Q16.55 7.3 17.2 6.75" fill="#4f336c" fill-rule="evenodd" stroke="none"/>
    <path d="M6.2 19.65 L8.0 19.5 9.7 19.7 Q9.65 20.6 7.85 20.6 6.1 20.6 6.2 19.65" fill="#342752" fill-rule="evenodd" stroke="none"/>
    <path d="M9.95 18.15 Q10.0 19.05 7.35 19.25 4.7 19.4 4.55 18.8 L4.85 18.05 7.55 17.8 Q9.9 17.65 9.95 18.15" fill="#342752" fill-rule="evenodd" stroke="none"/>
    <path d="M18.45 6.9 L17.7 7.05 Q17.3 7.15 17.2 6.8 17.05 6.3 17.85 6.25 L19.1 6.3 Q20.3 6.2 19.65 6.85 L18.45 8.0 18.1 8.2 19.5 8.2 Q20.5 8.25 20.75 8.6 20.35 8.95 19.85 8.9 L18.7 8.75 Q17.25 8.75 17.35 8.3 17.4 7.95 18.45 6.9" fill="#342752" fill-rule="evenodd" stroke="none"/>
    <path d="M23.35 1.65 Q24.8 1.45 24.05 2.25 22.9 3.3 22.7 3.7 L22.3 3.95 23.95 3.9 Q25.1 3.9 25.45 4.3 24.95 4.75 24.4 4.7 L23.05 4.55 Q21.3 4.6 21.35 4.1 21.35 3.7 22.65 2.4 L21.75 2.65 Q21.25 2.8 21.1 2.35 20.9 1.8 21.9 1.7 L23.35 1.65" fill="#342752" fill-rule="evenodd" stroke="none"/>
    <path d="M30.55 6.15 L32.35 6.3 Q33.85 6.6 33.1 7.35 L29.55 7.0 Q27.3 7.05 26.15 7.6 25.4 7.35 27.15 5.15 L29.45 2.55 27.65 2.7 Q26.25 2.7 26.7 1.85 L28.4 1.8 30.1 1.7 Q31.05 1.75 30.95 1.95 L30.6 2.5 Q29.5 2.7 27.25 6.2 L30.55 6.15" fill="#342752" fill-rule="evenodd" stroke="none"/>
    <path d="M22.25 19.55 L20.6 19.6 18.85 19.6 17.05 19.45 16.9 18.55 Q17.0 18.25 17.6 18.25 L20.15 18.15 22.7 18.25 22.65 18.95 22.25 19.55" fill="#342752" fill-rule="evenodd" stroke="none"/>
    <path d="M3.3 23.85 L2.95 22.0 Q2.25 23.7 2.3 25.05 3.35 24.85 3.3 23.85 M24.75 23.95 Q23.9 23.9 23.4 24.2 23.4 25.05 22.1 26.85 21.1 28.1 19.3 29.05 17.65 29.95 15.95 30.2 12.3 30.75 8.7 29.6 4.3 28.2 3.65 24.9 L2.8 25.6 Q2.05 25.85 1.75 25.35 1.25 24.5 2.05 22.2 L2.45 21.05 Q2.75 20.2 3.0 20.15 2.9 16.45 5.65 13.5 8.1 10.9 11.95 9.75 14.2 9.15 17.0 9.85 19.75 10.55 21.4 12.2 23.85 14.65 24.45 16.85 L24.65 20.05 Q24.75 22.45 25.45 22.95 25.1 23.95 24.75 23.95 M23.85 23.5 L24.6 23.4 Q24.75 22.8 24.4 21.9 L23.85 23.5 M23.55 16.9 Q22.95 15.8 22.85 15.2 L22.75 15.1 22.15 14.85 Q21.4 13.55 20.0 12.65 L20.1 12.65 Q19.15 11.85 18.1 11.55 18.2 11.3 17.0 11.2 17.05 10.9 14.5 10.7 L11.35 10.75 8.8 12.4 Q7.0 13.4 6.35 14.1 5.2 16.0 4.7 17.55 4.1 19.2 4.05 21.3 3.95 23.2 4.6 24.7 L6.35 27.6 8.15 28.55 11.0 29.35 Q16.1 29.9 18.4 28.85 20.65 27.9 22.15 24.95 L22.9 22.7 Q23.5 20.9 23.7 20.85 24.0 18.25 23.55 16.9" fill="#342752" fill-rule="evenodd" stroke="none"/>
    <path d="M20.2 20.65 L18.45 20.65 Q17.15 20.55 17.6 19.85 L20.0 19.75 22.3 20.1 Q22.25 20.85 21.6 20.85 L20.2 20.65" fill="#342752" fill-rule="evenodd" stroke="none"/>
    <path d="M13.85 25.4 L13.65 24.75 12.7 24.7 11.75 24.9 11.5 24.8 11.2 24.8 Q11.95 26.7 14.25 26.85 16.6 27.05 16.7 24.65 L14.35 24.8 14.5 25.35 Q14.6 25.65 14.3 25.85 13.95 25.8 13.85 25.4 M7.15 24.6 Q6.6 24.45 6.55 23.9 5.4 24.4 5.35 23.55 6.05 23.15 6.9 22.95 7.95 22.65 8.45 22.95 8.55 23.4 8.0 23.95 L11.9 24.15 15.35 23.8 16.75 23.8 18.15 23.95 18.45 23.8 18.75 23.8 Q19.05 23.75 18.85 23.35 18.65 22.95 18.85 22.75 21.4 23.05 20.6 23.75 L18.9 25.0 18.85 24.6 Q18.15 24.45 17.7 25.1 L16.9 26.3 Q15.8 27.4 14.45 27.55 13.05 27.7 11.75 26.75 L10.6 25.5 Q10.15 24.9 9.15 24.8 L7.15 24.6" fill="#342752" fill-rule="evenodd" stroke="none"/>
    <path d="M7.1 21.55 L7.15 21.75 7.2 21.9 Q7.0 21.85 6.95 22.0 L6.25 22.05 5.5 22.2 5.4 22.3 Q4.8 22.4 4.75 21.95 L5.75 21.65 6.75 21.55 6.85 21.35 7.1 21.55" fill="#342752" fill-rule="evenodd" stroke="none"/>
    <path d="M22.55 21.5 L22.8 21.6 22.9 21.95 21.5 22.2 Q20.6 22.25 20.5 21.65 L22.55 21.5" fill="#342752" fill-rule="evenodd" stroke="none"/>
  </g>
</svg>
