<?xml version="1.0" encoding="UTF-8" standalone="no"?>
<svg xmlns:xlink="http://www.w3.org/1999/xlink" height="28.8px" width="29.7px" xmlns="http://www.w3.org/2000/svg">
  <g transform="matrix(1.0, 0.0, 0.0, 1.0, 0.0, 0.0)">
    <path d="M18.1 5.6 L16.75 4.3 14.75 2.25 Q14.15 3.3 14.1 3.6 L13.75 4.45 14.1 4.3 14.0 4.8 16.05 5.1 18.1 5.6 M25.7 5.1 L22.95 7.0 24.8 7.2 23.8 8.05 24.9 8.55 24.6 9.0 Q25.35 9.95 25.9 11.3 26.45 12.7 26.5 13.9 L26.7 13.95 26.85 16.35 26.65 18.65 28.05 20.05 29.7 21.25 Q29.4 21.9 29.45 22.5 L29.65 23.75 Q28.5 23.45 26.95 24.05 L26.6 25.75 Q26.1 25.5 24.8 25.4 23.6 25.35 23.0 24.9 L19.05 27.75 Q16.8 28.95 14.3 28.8 L11.9 28.65 Q10.4 28.55 9.6 27.9 8.9 27.7 7.85 27.0 L6.25 25.75 5.55 26.35 4.65 26.5 Q3.75 26.9 3.05 25.6 2.5 24.55 2.45 23.5 -0.45 23.4 0.05 18.9 L1.3 19.0 2.4 18.15 Q2.8 15.1 3.35 13.25 4.2 10.65 5.8 9.05 5.05 8.5 5.1 7.6 5.15 6.75 4.35 6.25 5.4 5.9 6.9 4.6 L9.25 2.55 11.3 0.8 11.35 0.15 15.05 0.05 15.05 1.25 15.65 0.9 18.1 1.1 Q21.7 3.8 25.7 5.1" fill="#ffffff" fill-rule="evenodd" stroke="none"/>
    <path d="M24.65 14.25 Q25.0 16.55 24.4 18.55 L23.05 17.85 21.7 17.15 Q19.2 16.6 18.45 16.15 L15.55 15.75 12.5 15.6 12.5 15.5 12.05 15.65 12.1 15.5 Q10.8 16.45 9.4 16.5 L9.05 16.65 8.65 16.75 6.75 17.15 Q5.85 17.3 5.15 17.75 4.95 15.35 6.1 12.3 6.7 10.8 7.0 10.55 L8.65 10.5 9.0 10.45 Q9.15 8.85 9.8 8.25 11.9 6.4 14.8 6.75 15.5 6.85 16.35 7.3 L17.75 7.9 17.8 7.8 Q18.8 8.4 19.4 9.4 L20.3 9.25 21.2 8.75 Q21.25 9.25 22.4 10.25 23.6 11.25 23.7 11.75 L23.75 11.65 Q24.3 12.8 24.65 14.25" fill="#6bb5be" fill-rule="evenodd" stroke="none"/>
    <path d="M4.35 19.9 L5.55 23.2 Q5.15 23.15 5.0 23.45 L4.6 24.0 Q4.35 22.3 4.35 19.9" fill="#a65f99" fill-rule="evenodd" stroke="none"/>
    <path d="M24.5 21.1 Q25.05 22.35 25.0 23.4 L24.25 23.05 23.6 22.55 24.5 21.1" fill="#a65f99" fill-rule="evenodd" stroke="none"/>
    <path d="M23.55 19.25 Q24.6 19.75 23.4 21.55 L21.25 23.85 Q19.3 25.5 17.75 26.05 14.8 27.95 13.6 27.4 11.05 26.8 8.1 24.7 L5.85 22.75 Q4.85 21.35 5.2 18.9 6.95 18.05 7.25 17.95 L7.2 17.85 Q7.05 17.15 10.9 16.7 L15.4 16.45 19.7 17.2 Q22.25 17.85 23.55 19.25" fill="#6bb5be" fill-rule="evenodd" stroke="none"/>
    <path d="M24.95 14.5 Q25.4 17.2 24.55 19.85 23.7 22.6 21.6 24.25 L19.2 26.0 Q17.7 26.85 16.4 26.9 L13.45 26.65 Q14.05 26.15 15.7 25.7 L18.05 24.7 Q19.45 23.7 21.0 21.6 22.0 20.25 22.0 18.9 22.0 16.85 22.15 16.3 22.7 14.35 22.3 12.35 21.85 9.8 19.9 9.8 18.7 9.85 16.8 8.35 14.95 6.85 13.3 6.9 L13.25 6.9 11.45 7.0 Q15.8 5.5 19.95 7.7 24.15 9.95 24.95 14.5" fill="#c7e1e4" fill-rule="evenodd" stroke="none"/>
    <path d="M12.95 10.75 Q12.8 9.55 11.75 9.05 L9.85 8.2 Q10.4 6.9 12.95 8.65 15.35 10.35 13.65 12.75 12.7 13.95 10.65 14.1 8.45 14.2 7.65 12.7 L10.85 14.0 Q11.95 14.2 12.55 12.9 13.1 11.8 12.95 10.75" fill="#c7e1e4" fill-rule="evenodd" stroke="none"/>
    <path d="M13.2 13.65 Q12.6 14.7 12.05 14.5 L13.45 14.35 14.8 14.05 Q13.35 17.1 9.6 16.3 5.85 15.5 5.75 12.1 L5.55 12.55 Q5.35 11.25 6.85 12.35 L8.35 13.7 11.2 13.75 13.6 12.15 Q13.8 12.7 13.2 13.65" fill="#52899a" fill-rule="evenodd" stroke="none"/>
    <path d="M16.6 11.1 L16.5 11.2 16.45 11.1 16.6 11.1 M20.5 11.4 Q20.9 12.8 20.45 13.55 19.95 14.5 18.35 14.15 17.5 14.0 16.6 12.95 15.6 11.8 16.5 11.2 16.8 12.0 17.4 12.6 18.1 13.3 18.95 13.25 19.9 13.2 20.1 12.55 L20.5 11.4" fill="#52899a" fill-rule="evenodd" stroke="none"/>
    <path d="M11.2 10.2 L9.4 9.75 Q11.3 8.6 12.25 9.95 13.2 11.25 12.15 12.65 11.4 13.65 10.3 13.7 9.2 13.7 8.4 12.8 7.35 11.6 8.75 10.7 10.15 9.8 10.95 11.3 10.7 11.65 10.3 11.65 L10.1 11.25 9.55 11.1 Q9.0 11.25 9.3 11.8 L9.8 12.55 11.05 12.6 11.9 11.65 Q11.85 10.6 11.2 10.2" fill="#ffffff" fill-rule="evenodd" stroke="none"/>
    <path d="M17.4 11.9 L17.9 11.15 19.3 11.3 Q20.1 11.75 19.5 12.5 19.15 13.05 18.3 12.8 17.5 12.55 17.4 11.9" fill="#ffffff" fill-rule="evenodd" stroke="none"/>
    <path d="M19.85 12.1 Q19.7 12.9 18.8 13.0 L18.75 13.0 Q17.4 13.0 17.25 11.95 L17.75 11.05 18.5 10.85 Q19.8 10.85 19.85 11.9 L19.85 12.1 M18.0 11.3 L17.6 11.95 Q17.9 12.75 18.75 12.65 19.35 12.65 19.5 12.05 L19.5 11.9 Q19.35 11.15 18.5 11.2 L18.0 11.3" fill="#ffffff" fill-rule="evenodd" stroke="none"/>
    <path d="M21.0 17.0 Q25.25 18.0 24.7 20.25 22.75 19.25 21.25 18.65 18.35 17.5 17.9 18.6 L16.45 18.15 14.9 17.75 14.15 17.75 Q13.65 17.7 13.8 17.4 L11.45 17.45 9.05 18.15 Q8.05 18.35 6.9 18.9 L4.85 19.8 4.75 18.75 4.55 18.85 Q4.45 18.5 6.75 17.5 L9.45 16.3 15.3 16.15 21.0 17.0" fill="#52899a" fill-rule="evenodd" stroke="none"/>
    <path d="M4.35 19.9 Q4.35 22.3 4.6 24.0 L5.0 23.45 Q5.15 23.15 5.55 23.2 L4.35 19.9 M5.15 17.75 Q6.9 16.65 9.0 16.1 L8.95 16.1 9.25 16.0 Q7.5 15.35 6.8 13.85 6.2 12.55 6.6 11.1 4.9 14.9 5.15 17.75 M17.9 11.15 L17.4 11.9 Q17.55 12.75 18.55 12.8 19.6 12.9 19.65 12.05 19.7 11.4 19.15 11.15 18.6 10.9 17.9 11.15 M17.35 10.3 Q18.7 9.95 19.85 10.6 21.1 11.25 20.65 12.5 19.75 14.75 17.45 13.05 15.05 11.35 17.35 10.3 M12.35 12.15 L11.7 9.9 Q11.15 8.95 9.4 9.75 L11.2 10.2 Q11.85 10.6 11.9 11.65 L11.05 12.6 9.8 12.55 9.3 11.8 Q9.0 11.25 9.55 11.1 L10.1 11.25 10.3 11.65 Q10.7 11.65 10.95 11.3 10.4 10.4 9.25 10.6 8.05 10.9 8.2 11.95 8.35 12.9 9.3 13.35 L11.05 13.5 12.35 12.15 M13.0 3.25 L11.55 4.8 Q10.55 5.5 9.7 6.15 8.0 7.4 8.15 7.55 L6.6 8.0 5.95 7.55 Q5.6 7.05 5.3 7.05 5.95 6.3 7.6 5.25 L10.05 3.5 11.8 1.95 Q12.85 1.1 13.8 1.2 13.75 2.05 13.0 3.25 M23.6 22.55 L24.25 23.05 25.0 23.4 Q25.05 22.35 24.5 21.1 L23.6 22.55 M23.1 21.9 Q24.1 20.45 23.95 19.8 23.8 19.15 22.3 18.25 21.2 17.65 19.6 17.25 L16.8 16.7 11.75 16.45 9.25 17.1 Q7.2 17.7 7.2 17.85 L7.25 17.95 Q6.95 18.05 5.2 18.9 4.85 21.95 7.6 24.2 9.85 26.0 13.05 26.65 15.7 27.2 18.7 25.7 21.45 24.3 23.1 21.9 M21.2 8.75 L20.3 9.25 19.4 9.4 Q18.8 8.4 17.8 7.8 L17.75 7.9 15.75 7.15 Q14.55 6.7 13.45 6.8 11.75 7.0 10.15 8.35 11.3 8.45 12.25 9.2 15.1 11.15 12.65 13.3 L8.0 13.4 Q9.35 14.65 10.85 15.2 12.8 15.9 13.1 14.35 L13.5 14.65 13.75 15.0 12.5 15.6 17.5 15.8 Q20.45 16.3 22.1 17.35 23.55 18.25 24.4 18.55 25.45 15.0 23.75 11.65 L23.7 11.75 Q23.6 11.25 22.4 10.25 21.25 9.25 21.2 8.75 M23.05 5.55 Q22.1 6.3 21.5 6.3 20.8 6.35 20.05 5.6 17.15 3.35 16.15 2.0 16.25 1.55 19.45 3.4 L23.05 5.55 M22.7 8.8 L24.2 10.5 24.65 11.7 25.05 12.9 Q25.65 13.95 25.45 15.95 L25.3 19.0 Q25.4 19.55 26.25 20.45 L27.45 21.75 28.15 21.7 Q28.2 22.1 27.4 22.55 26.6 23.0 26.3 22.85 26.35 22.45 26.95 22.05 L26.05 21.25 25.2 20.4 25.65 22.3 Q26.0 23.55 25.6 24.1 L24.25 24.15 23.1 23.2 19.25 26.25 Q17.0 27.6 14.6 27.55 12.2 27.55 9.95 26.75 7.15 25.75 6.15 23.95 L5.35 24.7 4.45 25.25 Q3.85 24.55 3.55 22.95 3.25 21.4 3.45 20.4 2.85 20.85 2.45 22.25 1.9 22.3 1.5 21.65 1.1 21.1 1.15 20.45 1.85 20.65 2.75 19.65 L3.65 18.1 4.0 15.8 Q4.2 14.45 4.55 13.5 5.1 11.9 6.3 10.35 7.5 8.75 8.85 7.9 9.75 7.15 12.55 6.2 L12.55 6.25 Q14.2 5.9 16.35 6.25 18.55 6.6 19.85 7.5 21.8 7.75 22.7 8.8" fill="#2f3a6a" fill-rule="evenodd" stroke="none"/>
  </g>
</svg>
