<?xml version="1.0" encoding="UTF-8" standalone="no"?>
<svg xmlns:xlink="http://www.w3.org/1999/xlink" height="22.9px" width="34.5px" xmlns="http://www.w3.org/2000/svg">
  <g transform="matrix(1.0, 0.0, 0.0, 1.0, 0.0, 0.0)">
    <path d="M34.05 9.45 Q33.75 10.5 33.8 11.15 L33.6 12.55 31.6 14.9 31.4 14.15 30.2 14.4 29.1 14.75 Q28.8 15.05 28.7 16.2 L28.6 17.75 28.1 16.6 Q27.8 16.1 27.1 16.05 26.6 17.85 25.1 19.55 23.6 21.15 21.9 21.85 L13.65 22.85 Q10.55 22.35 7.4 20.2 L7.4 20.25 6.35 19.45 Q5.7 18.95 5.55 18.4 L4.65 16.75 4.1 14.9 3.8 14.3 3.25 14.05 1.75 13.05 0.4 11.85 Q-0.2 11.0 0.05 10.0 0.25 8.95 1.35 8.85 1.1 7.5 3.3 7.2 L6.1 6.8 Q6.6 6.35 6.55 5.75 L6.35 4.55 Q6.45 2.6 8.1 1.9 L10.0 1.65 Q10.7 0.8 12.05 0.35 14.35 -0.5 15.9 0.85 16.45 1.35 17.25 1.35 L18.75 0.9 20.35 0.6 Q21.35 0.7 21.8 1.15 L21.85 0.95 23.85 0.8 25.85 1.05 Q27.5 1.8 27.1 3.25 L26.4 6.0 26.35 6.0 27.75 8.95 28.15 8.55 28.25 8.15 Q26.1 7.15 27.65 6.05 29.0 5.1 30.5 5.1 31.65 5.1 32.1 6.2 L32.8 8.2 31.15 8.05 30.95 9.25 33.05 9.2 34.5 7.7 34.05 9.45" fill="#ffffff" fill-rule="evenodd" stroke="none"/>
    <path d="M20.95 7.1 L22.4 6.6 24.1 5.6 24.4 5.4 24.45 5.75 Q24.6 6.45 25.8 8.15 26.85 9.7 26.85 10.95 L26.85 11.05 Q26.8 11.9 25.9 12.4 L26.7 12.2 26.7 12.55 Q26.0 17.8 22.7 19.95 20.45 21.4 15.7 21.75 L14.95 21.8 Q11.25 21.8 8.45 19.15 5.65 16.5 5.65 13.2 L5.65 12.7 5.9 12.75 5.95 12.5 6.35 12.55 6.2 12.45 Q5.55 11.85 5.55 10.85 5.55 9.35 6.6 7.9 7.65 6.45 8.75 6.4 9.2 6.4 9.55 6.7 10.45 7.45 11.45 7.45 12.8 7.5 14.2 6.0 15.4 4.65 16.25 2.75 L16.5 2.85 16.45 2.6 17.2 2.7 Q18.4 2.65 18.65 3.75 19.0 5.3 19.25 5.7 19.95 7.1 20.95 7.1" fill="#d59cb9" fill-rule="evenodd" stroke="none"/>
    <path d="M12.35 8.3 L9.85 6.8 Q8.2 5.6 8.4 4.5 8.8 2.75 9.7 3.25 10.9 3.85 11.05 3.65 L12.1 2.15 Q12.8 1.45 14.5 1.85 16.85 2.35 15.5 5.0 14.3 7.25 12.9 8.0 L12.35 8.3" fill="#d4317c" fill-rule="evenodd" stroke="none"/>
    <path d="M21.5 4.5 L22.95 2.9 Q23.4 2.5 24.5 2.2 26.25 1.65 25.3 3.4 24.35 5.1 23.45 5.6 L21.35 7.0 Q20.3 7.3 19.3 5.05 18.2 2.7 20.15 2.25 22.05 1.85 21.5 4.5" fill="#d4317c" fill-rule="evenodd" stroke="none"/>
    <path d="M1.95 10.7 L3.85 10.85 4.6 11.9 Q5.15 12.8 4.75 12.65 L3.1 12.0 Q2.2 11.45 1.95 10.7" fill="#d4317c" fill-rule="evenodd" stroke="none"/>
    <path d="M31.8 10.95 Q32.9 12.6 30.3 12.95 L27.5 12.95 Q27.4 10.5 31.8 10.95" fill="#d4317c" fill-rule="evenodd" stroke="none"/>
    <path d="M27.2 10.3 Q28.65 15.6 23.3 19.25 18.4 22.65 14.8 21.35 16.8 21.45 18.85 20.5 20.8 19.55 22.15 17.95 23.7 16.15 23.75 14.3 L23.3 13.25 22.65 12.6 Q24.05 11.05 24.1 9.45 24.2 7.7 22.65 6.2 24.45 5.2 25.65 6.8 26.4 7.75 27.2 10.3" fill="#ecd3e0" fill-rule="evenodd" stroke="none"/>
    <path d="M6.85 7.95 L7.05 7.9 Q7.3 8.05 8.05 7.0 8.75 6.15 9.65 7.4 10.4 8.4 12.4 7.8 14.2 7.25 15.55 5.9 15.4 8.1 12.05 9.95 11.2 9.75 9.3 8.65 7.85 7.8 6.85 7.95" fill="#884a76" fill-rule="evenodd" stroke="none"/>
    <path d="M26.55 12.45 Q25.35 14.55 21.6 13.95 L16.0 13.1 10.25 14.1 Q6.55 14.4 5.1 12.2 L5.65 12.2 Q7.4 13.6 11.5 12.65 16.35 11.45 17.4 11.7 L19.75 12.5 Q21.2 13.05 22.25 13.0 L24.45 12.55 26.55 12.45" fill="#884a76" fill-rule="evenodd" stroke="none"/>
    <path d="M15.6 14.7 L15.2 14.8 Q16.25 14.05 18.25 14.35 20.45 14.7 20.1 16.4 18.3 15.7 17.2 15.65 L14.4 16.05 Q14.45 15.65 14.9 15.25 L15.6 14.7" fill="#884a76" fill-rule="evenodd" stroke="none"/>
    <path d="M21.65 8.25 L20.5 8.45 19.45 8.15 Q18.9 7.85 17.95 6.1 17.05 4.4 16.3 3.9 15.95 2.95 17.0 2.8 18.0 2.6 18.4 3.3 L18.8 4.65 Q18.95 5.5 19.3 5.95 20.3 7.35 21.9 6.8 L24.65 5.8 Q23.3 7.8 21.65 8.25" fill="#884a76" fill-rule="evenodd" stroke="none"/>
    <path d="M11.15 4.5 L11.25 4.3 Q13.1 -0.2 15.2 1.95 16.65 3.5 15.0 5.9 13.45 8.2 12.05 7.75 L12.85 6.25 Q13.35 5.4 13.1 4.6 12.85 3.8 12.25 3.85 11.75 3.9 11.15 4.5" fill="#df73a4" fill-rule="evenodd" stroke="none"/>
    <path d="M22.05 3.2 L21.95 3.2 21.15 2.5 Q21.65 2.6 22.0 3.15 L22.05 3.2 23.0 2.5 Q23.65 1.9 24.35 1.95 26.35 1.95 25.75 3.3 25.0 4.75 23.45 5.9 21.7 7.15 20.2 7.1 L22.15 6.0 23.8 4.5 Q24.4 3.6 23.55 3.4 22.7 3.15 22.55 3.95 L22.05 3.2" fill="#df73a4" fill-rule="evenodd" stroke="none"/>
    <path d="M19.5 14.35 Q19.85 14.5 19.8 14.9 19.75 15.3 19.3 15.1 19.1 15.05 19.0 14.85 L18.4 14.55 16.5 14.75 14.95 14.7 Q16.5 13.3 19.5 14.35" fill="#43243d" fill-rule="evenodd" stroke="none"/>
    <path d="M1.95 10.7 Q2.2 11.45 3.05 11.9 L4.7 12.55 4.25 11.55 Q3.8 10.9 3.3 10.85 L1.95 10.7 M15.2 5.1 Q15.95 3.35 15.3 2.3 L13.95 1.85 Q13.3 1.75 12.6 2.25 11.8 2.8 11.7 3.35 L11.5 4.7 10.6 4.05 Q9.65 3.0 9.05 3.8 8.45 4.6 9.1 5.45 L10.5 6.6 11.85 7.6 Q12.55 7.85 13.15 7.15 14.4 6.8 15.2 5.1 M23.45 13.35 L20.45 13.0 Q18.65 12.25 17.85 12.35 14.8 12.35 12.9 13.05 L9.45 13.3 5.9 12.75 6.15 13.6 Q6.9 17.4 10.1 19.5 13.1 21.4 16.9 21.25 20.7 21.1 23.35 18.9 26.25 16.5 26.45 12.55 L23.45 13.35 M25.6 12.15 Q27.2 11.55 26.45 10.65 26.8 9.85 25.65 8.2 L24.25 5.95 22.05 7.3 19.95 7.2 Q19.15 6.25 18.8 5.4 L18.4 3.25 17.5 3.05 16.55 3.0 Q16.65 4.2 16.1 5.3 15.5 6.45 14.45 7.0 L13.1 8.55 Q12.8 8.9 12.1 8.75 L11.1 8.45 Q10.55 8.25 9.95 7.75 L8.9 6.75 Q7.25 8.1 7.15 8.25 5.0 11.05 7.25 12.2 L10.2 12.35 13.15 11.75 16.0 11.35 18.85 11.6 Q21.35 12.65 23.25 12.65 L25.6 12.15 M21.45 3.85 Q21.5 2.6 20.6 2.65 19.85 2.75 19.1 3.55 19.45 7.35 21.8 6.4 25.3 4.95 25.8 2.95 25.3 1.45 23.7 2.65 22.35 3.65 21.95 4.7 L21.6 4.4 Q21.45 4.3 21.45 3.85 M31.65 6.45 L31.5 7.0 30.35 6.9 Q31.05 7.45 30.65 8.8 30.35 9.95 29.7 10.65 L31.65 10.2 32.4 10.75 32.5 10.85 32.55 11.5 32.4 11.95 32.0 12.6 Q31.65 12.85 31.6 13.05 L31.55 13.1 31.55 13.2 Q28.2 13.5 27.85 14.0 27.9 13.85 27.6 14.0 L27.15 14.4 26.5 16.05 Q26.15 17.35 24.85 18.6 23.65 19.8 22.3 20.3 22.25 21.05 19.5 21.6 L16.1 22.0 Q12.55 21.95 8.75 19.7 6.45 18.3 5.8 16.8 5.25 15.6 5.05 14.0 5.0 13.55 4.45 13.3 3.7 13.1 3.4 12.9 L1.45 11.2 Q0.25 9.85 1.85 10.05 L3.65 9.95 Q4.2 9.7 4.7 8.45 L3.4 9.1 Q2.5 9.5 2.4 8.8 4.25 7.65 5.6 7.75 L5.9 8.15 Q6.15 8.35 6.05 8.5 7.35 6.8 8.45 6.3 L7.6 5.1 Q7.3 4.45 7.7 3.75 8.15 3.0 9.0 2.75 9.95 2.45 10.55 3.1 11.15 1.7 13.1 1.25 L15.25 1.2 Q15.9 1.55 16.25 2.4 L17.15 2.65 18.35 2.5 18.85 2.25 19.35 1.8 Q20.05 1.25 20.9 1.65 21.7 2.05 22.05 2.85 23.1 1.6 25.25 1.75 L25.95 2.05 26.6 2.5 26.35 3.7 25.95 4.8 Q24.95 4.65 25.6 5.95 L26.4 7.3 Q27.65 10.2 27.6 10.75 L28.55 10.2 29.4 9.25 29.75 8.55 30.1 7.9 29.3 7.3 Q28.7 7.0 28.8 6.6 L30.9 6.15 Q31.7 6.1 31.65 6.45 M31.75 11.3 Q31.5 10.55 31.15 11.15 30.4 10.65 28.9 11.4 27.45 12.05 27.5 12.95 L29.2 12.8 30.95 12.4 Q32.0 11.95 31.75 11.3" fill="#43243d" fill-rule="evenodd" stroke="none"/>
  </g>
</svg>
