<?xml version="1.0" encoding="UTF-8" standalone="no"?>
<svg xmlns:xlink="http://www.w3.org/1999/xlink" height="31.6px" width="31.5px" xmlns="http://www.w3.org/2000/svg">
  <g transform="matrix(1.0, 0.0, 0.0, 1.0, 0.0, 15.8)">
    <path d="M30.4 -4.0 Q31.8 -2.5 28.8 1.6 27.15 3.65 25.1 5.3 26.45 8.4 26.75 10.65 27.25 14.25 24.9 14.95 22.6 15.65 18.85 13.05 16.8 11.65 15.4 10.25 L11.85 12.7 9.2 14.15 Q7.5 14.9 6.3 14.65 4.9 14.3 4.4 12.65 4.0 11.35 4.25 9.75 4.65 7.3 5.7 5.2 L2.7 1.75 Q0.0 -2.0 0.9 -4.0 1.35 -5.0 3.15 -5.45 L5.85 -5.75 7.65 -5.85 9.4 -6.3 10.05 -7.95 10.8 -9.5 Q13.4 -15.2 15.45 -15.15 17.7 -14.85 20.0 -9.65 L20.85 -7.8 21.5 -5.95 25.3 -5.75 28.0 -5.3 Q29.6 -4.85 30.4 -4.0" fill="#0490a1" fill-rule="evenodd" stroke="none"/>
    <path d="M15.55 -15.8 Q18.25 -15.5 20.6 -9.9 L21.15 -8.7 22.0 -6.65 23.75 -6.55 25.3 -6.4 28.1 -6.0 Q29.95 -5.45 30.9 -4.45 32.0 -3.25 31.15 -1.0 30.55 0.45 29.3 2.0 27.75 3.95 25.9 5.5 28.35 11.25 27.1 13.9 26.5 15.15 25.1 15.6 L23.8 15.8 Q21.65 15.8 18.45 13.6 L15.35 11.15 12.2 13.3 11.9 13.45 Q8.8 15.4 7.0 15.4 L6.15 15.3 Q4.55 14.95 3.9 13.2 3.3 11.65 3.6 9.65 3.9 7.5 4.9 5.35 L2.15 2.15 0.45 -0.7 Q-0.4 -2.8 0.3 -4.3 0.9 -5.6 3.1 -6.1 L5.55 -6.4 5.85 -6.4 8.55 -6.75 8.85 -6.85 9.7 -8.75 10.2 -9.8 10.2 -9.85 Q12.95 -15.8 15.4 -15.8 L15.55 -15.8 M15.4 -14.45 Q13.8 -14.45 11.45 -9.3 L11.4 -9.25 10.9 -8.15 10.05 -6.1 9.95 -5.7 9.55 -5.65 8.85 -5.45 5.8 -5.05 5.55 -5.05 3.05 -4.7 Q1.8 -4.35 1.5 -3.75 0.75 -2.15 3.25 1.35 4.35 2.9 6.15 4.7 L6.5 5.05 6.3 5.45 Q5.25 7.6 4.95 9.85 4.75 11.1 5.05 12.25 5.4 13.75 6.45 14.0 L7.0 14.05 Q8.4 14.05 11.2 12.3 L11.5 12.15 14.95 9.75 15.4 9.4 15.85 9.8 19.2 12.5 Q22.15 14.45 23.8 14.45 L24.7 14.3 Q25.5 14.1 25.9 13.3 26.95 11.05 24.45 5.55 L24.25 5.1 24.65 4.75 Q26.7 3.2 28.25 1.15 L29.9 -1.55 Q30.45 -2.95 29.9 -3.55 29.25 -4.25 27.85 -4.65 L25.3 -5.05 23.6 -5.2 21.55 -5.3 21.0 -5.25 20.85 -5.8 19.95 -8.15 Q19.6 -8.8 19.4 -9.35 L17.55 -12.7 Q16.35 -14.3 15.4 -14.45" fill="#0490a1" fill-rule="evenodd" stroke="none"/>
    <path d="M25.1 -5.05 Q29.85 -4.5 29.85 -3.2 29.85 -1.9 26.75 1.3 L23.6 4.25 25.1 8.65 Q26.3 13.2 25.0 14.1 23.7 15.0 19.45 11.95 L15.4 8.75 11.2 11.9 Q6.75 14.8 5.8 13.4 4.8 12.0 5.65 7.95 L6.7 4.15 3.85 0.9 Q1.1 -2.55 1.55 -3.7 1.95 -4.85 6.15 -5.15 L10.25 -5.2 Q10.85 -7.4 11.8 -9.6 13.7 -13.95 15.5 -13.8 17.3 -13.65 19.0 -9.5 L20.35 -5.35 25.1 -5.05" fill="url(#gradient0)" fill-rule="evenodd" stroke="none"/>
    <path d="M17.75 -11.6 Q16.75 -13.45 15.5 -13.6 14.25 -13.65 13.1 -11.7 L11.75 -8.7 10.45 -5.15 10.25 -5.0 6.5 -4.95 3.8 -4.7 Q1.75 -4.35 1.7 -3.5 1.7 -1.75 4.45 1.25 L5.65 2.65 6.85 4.0 6.95 4.2 Q6.05 6.95 5.65 9.25 6.1 12.35 7.0 12.3 8.45 12.6 11.4 10.45 13.85 8.7 15.4 6.9 15.4 7.25 18.75 10.05 22.3 13.05 23.65 13.0 25.05 12.95 25.4 12.25 L25.45 11.9 25.4 11.15 24.7 7.5 24.1 5.9 23.4 4.3 Q23.3 4.15 23.5 4.05 25.35 2.65 27.45 0.35 30.45 -2.95 29.3 -3.7 28.25 -4.4 26.7 -4.65 L23.9 -4.95 20.35 -5.15 20.15 -5.3 19.0 -8.65 17.75 -11.6 M12.5 -11.4 L13.7 -13.15 Q14.55 -14.05 15.5 -14.05 L15.6 -14.0 Q16.9 -13.75 18.05 -11.8 19.5 -9.2 20.2 -6.85 L20.5 -5.6 20.6 -5.6 21.3 -5.55 25.65 -5.15 27.85 -4.8 Q29.2 -4.5 29.85 -3.8 30.35 -3.25 29.85 -2.25 L28.8 -0.9 27.05 1.3 25.1 3.35 23.85 4.3 24.05 4.9 24.9 7.1 25.6 9.4 25.95 11.7 Q26.0 13.1 25.5 13.95 L22.4 14.0 Q20.2 12.95 17.4 10.7 L15.4 9.05 11.9 11.7 Q8.85 13.75 7.15 14.05 4.9 14.35 5.0 11.2 5.05 9.85 5.8 6.8 L6.4 4.4 6.5 4.2 6.25 4.05 4.8 2.2 3.4 0.2 2.0 -1.55 Q1.15 -2.7 1.3 -3.6 1.4 -4.35 2.6 -4.75 L4.45 -5.15 9.15 -5.45 10.05 -5.45 10.4 -6.6 Q11.05 -8.75 12.5 -11.4" fill="#1c9fb7" fill-rule="evenodd" stroke="none"/>
    <path d="M15.65 -14.25 Q17.1 -13.95 18.25 -11.9 19.7 -9.35 20.4 -6.9 L20.7 -5.8 21.3 -5.8 25.7 -5.4 26.15 -5.35 28.25 -4.95 Q29.4 -4.6 30.0 -3.95 30.95 -2.95 29.0 -0.8 L27.75 0.8 Q26.2 2.75 25.25 3.5 L24.15 4.4 24.85 6.35 25.8 9.35 25.85 9.6 Q26.55 12.75 25.7 14.05 25.25 14.75 24.3 14.75 23.5 14.75 22.3 14.2 19.95 13.05 17.25 10.9 L15.45 9.4 15.4 9.35 12.05 11.85 11.95 11.95 Q8.8 14.0 7.2 14.25 5.9 14.5 5.3 13.65 4.2 12.25 5.45 7.15 L5.55 6.75 Q5.9 5.2 6.2 4.35 L6.2 4.3 6.1 4.2 4.4 2.05 3.25 0.35 2.95 0.0 Q0.9 -2.2 1.05 -3.65 1.25 -4.9 4.3 -5.35 L4.4 -5.35 9.15 -5.7 9.9 -5.65 10.2 -6.65 Q10.85 -8.9 12.3 -11.5 13.85 -14.25 15.45 -14.25 L15.65 -14.25 M23.75 -4.75 L20.35 -4.9 Q20.0 -4.9 19.9 -5.25 L19.1 -7.65 18.65 -8.9 Q17.1 -13.15 15.45 -13.35 13.8 -13.35 12.1 -8.9 L11.55 -7.55 10.65 -5.1 Q10.55 -4.75 10.25 -4.75 L6.55 -4.7 6.25 -4.7 Q1.95 -4.55 1.95 -3.5 1.95 -1.65 4.65 1.05 L5.7 2.3 7.05 3.85 7.15 4.0 7.45 4.0 7.15 4.15 7.15 4.3 7.1 4.4 Q6.3 6.85 5.85 9.25 6.25 12.1 6.95 12.1 L7.35 12.1 Q8.75 12.1 11.5 10.1 13.75 8.45 15.25 6.75 L15.65 6.3 15.65 6.85 19.1 10.05 Q22.4 12.75 23.6 12.75 24.75 12.75 25.1 12.25 L25.25 11.95 25.25 11.8 25.2 11.15 24.45 7.55 23.75 5.75 23.15 4.4 Q23.05 4.05 23.35 3.85 L26.85 0.65 Q29.45 -2.0 29.4 -3.1 L29.15 -3.5 Q28.25 -4.1 26.85 -4.4 L24.35 -4.7 23.75 -4.75 M23.6 13.25 Q22.2 13.25 18.55 10.2 L15.4 7.25 11.7 10.6 Q8.9 12.6 7.35 12.6 L6.95 12.55 Q5.95 12.55 5.4 9.45 4.9 12.35 5.65 13.35 6.15 13.95 7.1 13.8 8.85 13.55 11.65 11.55 L11.8 11.5 15.25 8.85 15.4 8.75 15.65 8.95 15.85 8.55 Q16.6 8.85 18.0 10.35 L17.75 10.65 Q20.3 12.75 22.45 13.75 L23.35 14.1 23.4 13.8 24.7 13.8 24.85 14.2 25.3 13.8 Q25.7 13.15 25.7 12.1 L25.55 12.4 Q25.1 13.2 23.65 13.25 L23.6 13.25" fill="#1c9fb7" fill-rule="evenodd" stroke="none"/>
    <path d="M28.05 -2.75 Q28.05 -1.6 25.35 1.2 L22.65 3.8 23.95 7.6 Q25.05 11.55 23.9 12.35 22.75 13.15 19.0 10.45 L15.45 7.65 11.75 10.45 Q7.85 12.95 6.95 11.75 6.1 10.55 6.85 7.0 L7.75 3.7 5.3 0.85 Q2.95 -2.2 3.3 -3.2 3.7 -4.25 7.3 -4.5 L10.85 -4.55 Q11.4 -6.45 12.25 -8.35 13.95 -12.15 15.5 -12.05 17.05 -11.95 18.6 -8.3 L19.8 -4.7 23.95 -4.4 Q28.05 -3.9 28.05 -2.75" fill="url(#gradient1)" fill-rule="evenodd" stroke="none"/>
    <path d="M7.15 8.5 L6.9 9.2 Q6.75 9.8 6.95 10.0 L8.4 9.85 Q10.0 9.1 12.05 7.35 L11.4 8.45 10.65 9.5 8.3 10.95 Q7.55 11.3 7.25 11.25 6.8 11.25 6.65 10.6 6.4 9.45 7.2 8.35 L7.15 8.5" fill="#ffffff" fill-opacity="0.49803922" fill-rule="evenodd" stroke="none"/>
    <path d="M20.95 -4.5 L23.3 -4.3 25.6 -3.75 Q27.75 -3.2 27.7 -2.1 27.6 -1.25 25.9 0.25 L24.75 1.3 23.5 2.15 Q25.6 0.05 25.75 -1.45 25.95 -3.3 23.0 -3.9 L20.95 -4.3 20.95 -4.5" fill="#ffffff" fill-opacity="0.49803922" fill-rule="evenodd" stroke="none"/>
    <path d="M18.7 -5.2 Q19.0 -4.15 18.55 -4.0 18.1 -3.85 15.15 -8.95 L12.45 -1.95 9.35 -1.75 6.2 -1.65 Q6.0 -1.5 7.1 0.6 8.1 2.65 7.5 2.55 6.75 2.45 4.85 -0.2 3.0 -2.8 3.3 -3.2 3.6 -3.55 7.6 -3.9 L11.55 -4.15 13.05 -8.15 Q14.7 -12.15 15.5 -12.05 16.3 -11.95 17.6 -8.55 L18.7 -5.2" fill="#ffffff" fill-opacity="0.4" fill-rule="evenodd" stroke="none"/>
  </g>
  <defs>
    <linearGradient gradientTransform="matrix(-0.0054, 0.0168, 0.0168, 0.0054, 12.95, 6.6)" gradientUnits="userSpaceOnUse" id="gradient0" spreadMethod="pad" x1="-819.2" x2="819.2">
      <stop offset="0.0" stop-color="#afdef2"/>
      <stop offset="0.1411764705882353" stop-color="#9ed5e7"/>
      <stop offset="0.34901960784313724" stop-color="#79c4d4"/>
      <stop offset="1.0" stop-color="#49adc3"/>
    </linearGradient>
    <linearGradient gradientTransform="matrix(-0.0063, 0.0195, 0.0195, 0.0063, 12.05, 9.75)" gradientUnits="userSpaceOnUse" id="gradient1" spreadMethod="pad" x1="-819.2" x2="819.2">
      <stop offset="0.0" stop-color="#afdef2"/>
      <stop offset="0.1411764705882353" stop-color="#9ed5e7"/>
      <stop offset="0.34901960784313724" stop-color="#79c4d4"/>
      <stop offset="1.0" stop-color="#49adc3"/>
    </linearGradient>
  </defs>
</svg>
