<?xml version="1.0" encoding="UTF-8" standalone="no"?>
<svg xmlns:xlink="http://www.w3.org/1999/xlink" height="14.3px" width="14.3px" xmlns="http://www.w3.org/2000/svg">
  <g transform="matrix(1.0, 0.0, 0.0, 1.0, 0.0, 0.0)">
    <path d="M12.75 2.75 L12.2 4.45 12.55 5.25 14.2 6.1 14.3 7.15 14.25 7.85 12.7 8.65 12.3 9.7 12.85 11.45 11.7 12.6 10.05 12.1 8.8 12.65 7.95 14.25 7.15 14.3 6.45 14.25 5.65 12.7 4.25 12.1 2.6 12.65 1.55 11.55 2.1 9.9 1.55 8.55 0.05 7.8 0.0 7.15 0.1 6.15 1.7 5.35 Q1.85 4.75 2.15 4.3 L1.6 2.65 2.9 1.4 4.65 1.95 5.45 1.65 6.3 0.05 7.15 0.0 8.15 0.1 9.0 1.7 9.7 2.0 11.4 1.45 12.75 2.75" fill="#000066" fill-opacity="0.003921569" fill-rule="evenodd" stroke="none"/>
  </g>
</svg>
