<?xml version="1.0" encoding="UTF-8" standalone="no"?>
<svg xmlns:xlink="http://www.w3.org/1999/xlink" height="14.3px" width="14.3px" xmlns="http://www.w3.org/2000/svg">
  <g transform="matrix(1.0, 0.0, 0.0, 1.0, 0.0, 0.0)">
    <path d="M9.5 4.9 Q8.55 3.95 7.2 3.95 5.9 3.95 4.95 4.9 4.0 5.85 4.0 7.15 4.0 8.45 4.95 9.4 5.9 10.35 7.2 10.35 8.55 10.35 9.5 9.4 10.45 8.45 10.45 7.15 10.45 5.85 9.5 4.9 M12.75 2.75 L12.2 4.45 12.55 5.25 14.2 6.1 14.3 7.15 14.25 7.85 12.7 8.65 12.3 9.7 12.85 11.45 11.7 12.6 10.05 12.1 8.8 12.65 7.95 14.25 7.15 14.3 6.45 14.25 5.65 12.7 4.25 12.1 2.6 12.65 1.55 11.55 2.1 9.9 1.55 8.55 0.05 7.8 0.0 7.15 0.1 6.15 1.7 5.35 Q1.85 4.75 2.15 4.3 L1.6 2.65 2.9 1.4 4.65 1.95 5.45 1.65 6.3 0.05 7.15 0.0 8.15 0.1 9.0 1.7 9.7 2.0 11.4 1.45 12.75 2.75" fill="url(#gradient0)" fill-rule="evenodd" stroke="none"/>
    <path d="M9.5 4.9 Q8.55 3.95 7.2 3.95 5.9 3.95 4.95 4.9 4.0 5.85 4.0 7.15 4.0 8.45 4.95 9.4 5.9 10.35 7.2 10.35 8.55 10.35 9.5 9.4 10.45 8.45 10.45 7.15 10.45 5.85 9.5 4.9 M11.5 7.15 Q11.5 8.9 10.25 10.2 9.0 11.45 7.2 11.45 5.45 11.45 4.2 10.2 2.95 8.9 2.95 7.15 2.95 5.4 4.2 4.1 5.45 2.85 7.2 2.85 9.0 2.85 10.25 4.1 11.5 5.4 11.5 7.15" fill="url(#gradient1)" fill-rule="evenodd" stroke="none"/>
    <path d="M9.65 4.7 Q10.65 5.75 10.65 7.15 10.65 8.6 9.65 9.6 8.65 10.6 7.2 10.6 5.8 10.6 4.8 9.6 3.8 8.6 3.8 7.15 3.8 5.7 4.8 4.7 5.8 3.7 7.2 3.7 8.65 3.7 9.65 4.7 M7.2 4.15 Q6.0 4.15 5.15 5.05 4.25 5.9 4.25 7.15 4.25 8.4 5.15 9.25 6.0 10.15 7.2 10.15 8.45 10.15 9.3 9.25 10.2 8.4 10.2 7.15 10.2 5.9 9.3 5.05 8.45 4.15 7.2 4.15" fill="#c5c6c8" fill-rule="evenodd" stroke="none"/>
  </g>
  <defs>
    <linearGradient gradientTransform="matrix(0.0014, 0.0103, 0.0103, -0.0014, 7.2, 7.45)" gradientUnits="userSpaceOnUse" id="gradient0" spreadMethod="pad" x1="-819.2" x2="819.2">
      <stop offset="0.07450980392156863" stop-color="#b9babb"/>
      <stop offset="0.3137254901960784" stop-color="#b9babb"/>
      <stop offset="0.4235294117647059" stop-color="#afb1b2"/>
      <stop offset="0.611764705882353" stop-color="#95989a"/>
      <stop offset="0.8470588235294118" stop-color="#6b7172"/>
      <stop offset="1.0" stop-color="#4d5456"/>
    </linearGradient>
    <radialGradient cx="0" cy="0" gradientTransform="matrix(0.0052, 0.0, 0.0, -0.0052, 7.2, 7.15)" gradientUnits="userSpaceOnUse" id="gradient1" r="819.2" spreadMethod="pad">
      <stop offset="0.0" stop-color="#edebe8" stop-opacity="0.5568628"/>
      <stop offset="0.0" stop-color="#f8f8f7"/>
      <stop offset="0.0" stop-color="#ffffff" stop-opacity="0.5568628"/>
      <stop offset="0.1450980392156863" stop-color="#f0f0f1"/>
      <stop offset="0.4196078431372549" stop-color="#cacacb"/>
      <stop offset="0.5215686274509804" stop-color="#b9babb" stop-opacity="0.5568628"/>
      <stop offset="0.6" stop-color="#afb1b2"/>
      <stop offset="0.7294117647058823" stop-color="#95989a"/>
      <stop offset="0.8941176470588236" stop-color="#6b7172"/>
      <stop offset="1.0" stop-color="#4d5456" stop-opacity="0.5568628"/>
    </radialGradient>
  </defs>
</svg>
