<?xml version="1.0" encoding="UTF-8" standalone="no"?>
<svg xmlns:xlink="http://www.w3.org/1999/xlink" height="28.45px" width="25.2px" xmlns="http://www.w3.org/2000/svg">
  <g transform="matrix(1.0, 0.0, 0.0, 1.0, 2.5, -10.2)">
    <path d="M12.9 13.7 Q13.5 14.5 13.6 15.5 L14.15 20.1 15.55 21.9 17.75 23.75 19.4 23.8 Q21.2 24.35 19.05 35.95 L15.05 35.7 14.7 35.8 14.6 35.8 7.75 35.35 6.05 35.7 2.85 35.55 Q2.3 35.35 1.9 34.55 L1.55 33.65 1.5 33.4 1.5 33.35 1.5 32.7 1.7 32.2 Q1.2 31.95 0.95 31.3 L0.4 30.55 Q0.15 29.95 0.25 29.4 0.45 28.5 1.55 28.05 L1.5 28.05 0.95 27.95 0.85 27.8 0.25 26.85 Q-0.2 25.9 0.1 25.25 0.4 24.5 1.55 24.25 L1.6 24.2 2.15 24.2 Q1.4 22.4 1.75 21.75 L1.7 21.4 1.7 21.15 3.1 20.1 3.25 20.1 8.4 20.9 8.45 20.85 Q6.75 16.4 8.1 14.15 8.95 12.8 10.85 12.7 L10.95 12.7 Q12.15 12.65 12.9 13.7" fill="#ffffff" fill-rule="evenodd" stroke="none"/>
    <path d="M12.9 13.7 Q12.15 12.65 10.95 12.7 L10.85 12.7 Q8.95 12.8 8.1 14.15 6.75 16.4 8.45 20.85 L8.4 20.9 3.25 20.1 3.1 20.1 1.7 21.15 1.7 21.4 1.75 21.75 Q1.4 22.4 2.15 24.2 L1.6 24.2 1.55 24.25 Q0.4 24.5 0.1 25.25 -0.2 25.9 0.25 26.85 L0.85 27.8 0.95 27.95 1.5 28.05 1.55 28.05 Q0.45 28.5 0.25 29.4 0.15 29.95 0.4 30.55 L0.95 31.3 Q1.2 31.95 1.7 32.2 L1.5 32.7 1.5 33.35 1.5 33.4 1.55 33.65 1.9 34.55 Q2.3 35.35 2.85 35.55 L6.05 35.7 7.75 35.35 14.6 35.8 14.7 35.8 15.05 35.7 19.05 35.95 Q21.2 24.35 19.4 23.8 L17.75 23.75 15.55 21.9 14.15 20.1 13.6 15.5 Q13.5 14.5 12.9 13.7 Z" fill="none" stroke="#ffffff" stroke-linecap="butt" stroke-linejoin="miter" stroke-width="5.0"/>
    <path d="M12.7 14.35 L13.1 15.35 13.65 20.05 15.15 22.0 17.45 23.95 17.55 28.4 Q17.3 33.05 15.85 34.3 15.4 34.85 14.95 35.05 L14.55 35.15 2.75 34.4 1.95 33.25 Q1.45 32.05 3.25 31.5 L3.55 31.05 1.2 30.75 Q0.45 30.4 0.6 29.35 0.8 28.1 3.25 27.95 L3.4 27.5 1.1 27.3 Q0.6 26.7 0.4 26.0 0.05 24.65 1.7 24.45 L4.2 24.55 4.45 24.05 4.35 24.0 2.5 23.75 2.15 22.9 Q1.85 22.0 2.05 21.7 L2.55 21.1 5.0 21.0 8.3 21.35 8.9 20.75 Q8.3 18.9 8.25 17.05 8.15 13.4 10.95 13.35 12.1 13.35 12.7 14.35" fill="url(#gradient0)" fill-rule="evenodd" stroke="none"/>
    <path d="M19.4 23.8 Q21.2 24.35 19.05 35.95 L14.6 35.65 Q10.45 34.8 12.95 34.7 15.1 34.6 16.0 29.15 L16.45 23.7 19.4 23.8" fill="#7c501b" fill-rule="evenodd" stroke="none"/>
    <path d="M12.05 14.3 L10.95 14.35 Q10.55 14.55 10.25 15.1 10.0 15.6 10.0 16.3 L9.95 17.5 Q9.85 18.6 10.3 19.95 L11.2 22.25 9.5 22.4 7.75 22.85 6.8 22.7 5.95 22.8 Q5.65 23.2 6.2 23.6 L7.0 24.05 6.0 25.2 Q5.6 25.8 5.55 26.65 L5.55 28.35 5.7 30.3 Q6.25 32.8 7.65 33.6 9.0 34.35 11.45 34.75 L13.4 35.15 Q9.7 35.4 5.9 35.15 3.45 34.95 2.35 33.9 L1.95 33.0 Q1.9 32.35 2.2 32.05 L2.9 31.75 Q3.15 31.6 2.65 31.3 L1.1 30.7 Q0.2 30.25 0.65 29.4 L1.05 28.9 1.75 28.3 1.4 27.75 0.8 27.2 Q0.05 26.05 0.45 25.35 0.65 24.95 1.2 24.85 L2.05 24.65 Q2.5 24.4 2.35 23.1 2.15 21.8 2.65 21.4 3.2 20.95 4.55 21.05 L6.55 21.25 7.35 21.45 8.1 21.5 8.6 21.0 8.55 20.25 8.25 19.35 7.95 18.4 Q7.7 17.3 7.75 16.7 7.8 15.95 8.45 15.25 L9.75 14.05 Q10.75 13.3 11.4 13.5 L11.95 13.95 Q12.2 14.35 11.9 14.45 L12.05 14.3" fill="#f4f0a3" fill-rule="evenodd" stroke="none"/>
    <path d="M13.6 15.5 L14.15 20.1 15.55 21.9 17.95 23.95 17.95 24.1 Q18.2 25.8 18.05 28.8 17.8 33.45 16.25 34.85 15.4 35.8 14.7 35.8 L14.6 35.8 2.65 35.05 2.5 34.95 Q1.25 33.8 1.5 32.7 1.65 32.15 2.25 31.7 L1.05 31.4 0.4 30.65 Q0.1 30.0 0.25 29.4 0.45 28.5 1.6 28.05 L0.95 27.95 0.85 27.8 0.25 26.85 Q-0.2 25.9 0.1 25.25 0.4 24.45 1.7 24.2 L1.8 24.2 2.2 24.25 2.15 24.2 Q1.25 22.25 1.8 21.65 L1.85 21.5 Q2.15 20.8 3.3 20.7 L8.2 21.05 8.45 20.85 Q6.75 16.4 8.1 14.15 8.95 12.8 10.85 12.7 L10.95 12.7 Q12.15 12.65 12.9 13.7 13.5 14.5 13.6 15.5 M8.85 14.65 Q8.2 15.75 8.55 17.9 L9.4 20.8 9.5 21.1 8.4 22.15 8.2 21.95 3.35 21.6 Q2.8 21.65 2.7 21.9 L2.5 22.2 Q2.4 22.6 2.85 23.55 L5.2 23.9 4.55 25.2 1.8 25.1 Q1.1 25.2 0.9 25.55 0.75 26.05 1.4 27.1 L3.8 27.4 3.7 27.85 3.95 28.55 3.3 28.6 Q1.4 28.75 1.15 29.55 L1.2 30.2 1.5 30.6 3.6 31.0 4.35 31.1 3.6 32.15 3.45 32.2 Q2.5 32.4 2.35 32.9 2.25 33.3 3.0 34.2 L14.65 34.9 Q15.0 34.9 15.6 34.25 L15.65 34.2 Q16.75 33.2 17.05 29.6 17.3 27.2 17.1 24.4 L14.9 22.55 13.3 20.45 12.75 15.6 12.4 14.55 Q11.85 13.5 11.0 13.55 9.45 13.7 8.85 14.65" fill="#7c501b" fill-rule="evenodd" stroke="none"/>
    <path d="M8.85 22.15 Q9.4 22.5 9.45 23.25 9.55 24.1 8.8 24.75 L5.85 24.55 2.85 23.6 Q2.45 23.35 2.3 22.65 L2.2 22.0 3.25 21.3 5.8 21.6 8.85 22.15" fill="url(#gradient1)" fill-rule="evenodd" stroke="none"/>
    <path d="M8.05 25.15 Q8.7 25.5 8.85 26.3 9.0 27.2 8.2 28.0 8.15 28.15 7.95 28.15 L7.95 28.2 Q8.65 28.4 8.9 29.15 9.2 30.0 8.6 30.9 8.25 31.45 5.45 31.5 L2.05 31.3 Q1.55 31.15 1.2 30.45 L0.95 29.8 1.85 28.8 6.2 28.2 3.4 27.75 1.55 27.25 Q1.05 27.0 0.8 26.25 L0.65 25.5 1.75 24.65 4.65 24.75 8.05 25.15" fill="url(#gradient2)" fill-rule="evenodd" stroke="none"/>
    <path d="M7.25 31.65 L8.05 32.45 Q8.35 33.2 7.95 33.95 7.7 34.4 5.55 34.5 L2.95 34.4 2.2 33.7 1.95 33.15 2.6 32.3 4.7 31.9 7.25 31.65" fill="url(#gradient3)" fill-rule="evenodd" stroke="none"/>
    <path d="M8.35 22.0 Q6.2 21.9 5.4 22.35 4.95 22.6 4.8 23.25 4.65 23.9 5.25 24.05 4.45 24.0 3.8 24.55 3.1 25.05 3.1 25.9 3.1 27.6 5.15 27.95 4.25 28.0 3.55 28.55 2.75 29.2 3.1 30.05 3.4 30.65 4.2 31.0 L5.55 31.45 Q5.15 31.4 4.85 32.05 4.6 32.6 4.65 33.0 L5.1 33.75 5.85 34.15 5.0 34.4 4.05 34.35 3.0 34.4 Q2.4 34.35 2.1 34.0 1.55 33.25 2.1 32.6 2.35 32.35 2.9 32.2 L3.75 32.0 Q1.45 31.8 0.75 30.55 0.3 29.8 1.5 28.95 2.55 28.15 3.4 28.1 3.35 27.7 2.45 27.45 L1.2 27.05 Q0.4 26.55 0.65 25.75 1.05 24.7 3.4 24.45 3.6 24.05 2.85 23.65 2.0 23.15 1.95 22.85 1.85 22.2 2.35 21.55 2.8 20.9 3.35 20.95 L5.9 21.2 Q7.4 21.4 8.45 21.75 L8.4 21.75 8.35 22.0" fill="#f4f0a3" fill-rule="evenodd" stroke="none"/>
    <path d="M8.45 25.3 L5.25 24.7 Q3.25 24.1 2.6 23.7 2.05 23.3 1.8 22.4 L1.7 21.4 1.7 21.15 3.1 20.1 3.25 20.1 Q8.6 20.75 9.2 21.25 9.95 21.85 10.05 22.95 10.15 24.15 9.2 25.0 L8.45 25.3 M8.75 22.25 L3.35 21.4 2.65 21.9 Q2.65 22.7 3.1 23.0 L5.4 23.85 8.4 24.35 8.65 24.3 Q9.2 23.75 9.15 23.15 9.15 22.55 8.75 22.25" fill="#7c501b" fill-rule="evenodd" stroke="none"/>
    <path d="M6.65 32.6 L1.95 32.35 Q1.3 32.15 0.85 31.2 L0.55 30.15 0.5 29.9 1.6 28.4 1.8 28.4 3.6 28.1 6.65 27.7 8.1 27.8 Q9.05 28.15 9.4 29.35 9.75 30.7 9.0 31.8 8.55 32.5 6.65 32.6 M6.75 28.75 L2.1 29.4 1.45 30.2 Q1.8 31.2 2.2 31.35 L3.9 31.55 6.55 31.55 8.25 31.2 Q8.7 30.45 8.55 29.65 8.3 28.95 7.85 28.75 L6.75 28.75" fill="#7c501b" fill-rule="evenodd" stroke="none"/>
    <path d="M6.05 35.7 L2.85 35.55 Q2.3 35.35 1.9 34.55 L1.55 33.65 1.5 33.4 2.3 31.95 2.5 31.9 4.1 31.55 6.6 31.2 7.4 31.25 Q8.2 31.6 8.5 32.6 8.9 33.7 8.35 34.85 8.05 35.6 6.05 35.7 M6.65 32.25 L2.85 32.95 2.5 33.6 3.1 34.5 5.95 34.6 7.6 34.25 7.65 33.0 7.1 32.25 6.65 32.25" fill="#7c501b" fill-rule="evenodd" stroke="none"/>
    <path d="M7.55 29.15 L4.1 28.75 1.35 27.95 Q0.25 27.35 0.25 25.65 L0.2 25.4 1.6 24.2 1.75 24.2 8.3 24.85 Q9.2 25.35 9.35 26.55 9.5 27.75 8.55 28.8 L7.55 29.15 M7.85 25.7 L1.9 25.2 1.15 25.85 Q1.25 26.85 1.75 27.1 L4.25 27.8 7.45 28.15 7.95 28.05 Q8.55 27.45 8.45 26.65 8.4 26.0 7.85 25.7" fill="#7c501b" fill-rule="evenodd" stroke="none"/>
  </g>
  <defs>
    <linearGradient gradientTransform="matrix(0.0105, -7.0E-4, -7.0E-4, -0.0105, 8.85, 24.5)" gradientUnits="userSpaceOnUse" id="gradient0" spreadMethod="pad" x1="-819.2" x2="819.2">
      <stop offset="0.0" stop-color="#fbe02e"/>
      <stop offset="0.49019607843137253" stop-color="#f9ce00"/>
      <stop offset="0.5882352941176471" stop-color="#f6ca00"/>
      <stop offset="0.6941176470588235" stop-color="#eabc02"/>
      <stop offset="0.803921568627451" stop-color="#d7a60b"/>
      <stop offset="0.9176470588235294" stop-color="#bd8713"/>
      <stop offset="1.0" stop-color="#a66c19"/>
    </linearGradient>
    <linearGradient gradientTransform="matrix(0.0043, -3.0E-4, -3.0E-4, -0.0043, 5.85, 23.1)" gradientUnits="userSpaceOnUse" id="gradient1" spreadMethod="pad" x1="-819.2" x2="819.2">
      <stop offset="0.0" stop-color="#fbe02e"/>
      <stop offset="0.49019607843137253" stop-color="#f9ce00"/>
      <stop offset="0.6" stop-color="#f6cb00"/>
      <stop offset="0.7019607843137254" stop-color="#edbf01"/>
      <stop offset="0.8" stop-color="#ddac08"/>
      <stop offset="0.8941176470588236" stop-color="#c69211"/>
      <stop offset="0.9882352941176471" stop-color="#aa7018"/>
      <stop offset="1.0" stop-color="#a66c19"/>
    </linearGradient>
    <linearGradient gradientTransform="matrix(0.0049, -4.0E-4, -4.0E-4, -0.0049, 4.9, 28.0)" gradientUnits="userSpaceOnUse" id="gradient2" spreadMethod="pad" x1="-819.2" x2="819.2">
      <stop offset="0.0" stop-color="#fbe02e"/>
      <stop offset="0.49019607843137253" stop-color="#f9ce00"/>
      <stop offset="0.6" stop-color="#f6cb00"/>
      <stop offset="0.7019607843137254" stop-color="#edbf01"/>
      <stop offset="0.8" stop-color="#ddac08"/>
      <stop offset="0.8941176470588236" stop-color="#c69211"/>
      <stop offset="0.9882352941176471" stop-color="#aa7018"/>
      <stop offset="1.0" stop-color="#a66c19"/>
    </linearGradient>
    <linearGradient gradientTransform="matrix(0.0038, -3.0E-4, -3.0E-4, -0.0038, 5.05, 33.15)" gradientUnits="userSpaceOnUse" id="gradient3" spreadMethod="pad" x1="-819.2" x2="819.2">
      <stop offset="0.0" stop-color="#fbe02e"/>
      <stop offset="0.49019607843137253" stop-color="#f9ce00"/>
      <stop offset="0.6" stop-color="#f6cb00"/>
      <stop offset="0.7019607843137254" stop-color="#edbf01"/>
      <stop offset="0.8" stop-color="#ddac08"/>
      <stop offset="0.8941176470588236" stop-color="#c69211"/>
      <stop offset="0.9882352941176471" stop-color="#aa7018"/>
      <stop offset="1.0" stop-color="#a66c19"/>
    </linearGradient>
  </defs>
</svg>
