<?xml version="1.0" encoding="UTF-8" standalone="no"?>
<svg xmlns:xlink="http://www.w3.org/1999/xlink" height="36.0px" width="26.1px" xmlns="http://www.w3.org/2000/svg">
  <g transform="matrix(1.0, 0.0, 0.0, 1.0, 0.0, 0.0)">
    <path d="M20.45 8.85 L20.5 9.8 Q20.45 11.3 19.25 12.05 18.15 12.7 16.65 12.6 L16.65 15.3 17.5 15.55 19.25 15.45 Q20.25 15.05 20.0 14.1 L21.85 14.25 Q22.85 14.3 23.4 15.15 L23.35 16.25 23.05 17.45 Q23.35 18.15 22.85 18.9 L24.1 21.15 Q24.85 23.0 25.7 26.9 26.2 28.7 26.05 30.55 25.85 32.6 24.95 34.05 24.2 35.35 23.1 34.85 22.2 34.5 21.65 33.35 16.7 37.2 10.3 35.5 L10.25 35.95 7.75 34.8 Q6.25 34.1 5.5 33.25 L4.4 33.2 3.4 34.35 Q1.1 35.35 0.35 33.2 -0.15 31.75 0.05 29.15 0.4 25.8 1.95 22.55 3.7 18.95 6.2 17.15 L5.05 16.1 Q4.75 15.65 4.7 14.65 L6.0 14.25 Q6.65 13.85 6.7 13.25 L8.05 13.1 9.4 13.0 Q9.65 14.5 10.3 15.55 L12.35 14.9 Q11.4 14.1 11.0 12.95 10.55 11.7 11.1 10.65 10.2 10.0 9.9 8.95 9.6 7.9 9.95 6.9 L9.8 6.9 9.95 6.8 Q9.3 6.15 9.1 5.2 8.85 4.2 9.15 3.4 10.1 1.5 13.1 0.7 L18.1 0.0 Q18.6 -0.05 19.0 0.45 L19.4 1.4 19.7 2.4 20.65 2.85 Q21.55 3.3 22.1 4.4 L23.05 6.1 21.65 7.35 Q20.85 8.0 19.8 8.15 20.35 8.4 20.45 8.85" fill="#ffffff" fill-rule="evenodd" stroke="none"/>
    <path d="M22.8 29.7 L23.05 29.25 23.15 29.1 23.75 29.1 23.85 29.0 Q23.9 28.9 24.0 28.95 24.2 31.75 23.45 32.9 22.9 32.95 22.7 32.05 L22.4 30.75 22.8 29.7" fill="#67402c" fill-rule="evenodd" stroke="none"/>
    <path d="M10.9 26.85 L11.6 26.7 13.0 26.65 13.75 26.1 13.15 26.1 Q12.35 25.75 11.15 26.4 10.55 26.75 10.9 26.85 M12.8 23.95 L14.75 24.25 Q16.25 24.55 16.25 24.75 17.1 24.55 18.3 25.25 L20.15 26.3 21.25 27.1 Q21.7 27.55 21.65 28.3 L21.4 29.25 Q21.3 30.0 21.75 29.95 20.15 33.05 17.6 33.65 16.8 34.45 14.35 34.6 L10.95 34.5 8.9 33.8 Q7.25 33.25 7.3 32.8 6.45 32.5 5.6 31.2 L4.2 29.2 4.35 28.5 4.0 27.8 Q4.0 26.15 7.4 24.75 9.95 23.7 12.8 23.95 M7.75 22.3 Q8.25 23.45 9.75 22.65 11.5 21.7 10.4 20.45 9.3 19.25 7.75 19.9 7.35 21.35 7.75 22.3 M4.25 21.9 Q6.05 18.45 7.65 18.55 8.25 16.75 11.8 20.9 12.15 21.3 11.35 19.55 L10.3 17.45 Q11.55 16.55 14.1 16.6 16.5 16.65 17.9 17.45 L14.25 20.55 Q14.9 20.85 15.0 21.4 L15.25 22.15 16.55 22.45 17.7 22.8 Q18.55 22.6 19.05 21.6 19.35 20.85 18.95 20.3 18.6 19.85 17.85 19.75 20.9 18.0 22.1 21.45 22.9 23.75 22.7 27.4 18.7 23.85 13.05 23.25 7.0 22.65 3.2 26.15 2.55 25.25 4.25 21.9" fill="#da3b2d" fill-rule="evenodd" stroke="none"/>
    <path d="M2.1 28.95 L2.75 29.0 3.3 29.0 3.85 29.9 3.0 31.6 Q2.55 32.65 2.0 32.95 1.45 32.35 1.45 31.25 1.4 30.0 2.1 28.95" fill="#67402c" fill-rule="evenodd" stroke="none"/>
    <path d="M22.5 20.25 Q23.45 21.85 23.55 24.75 23.65 26.85 22.65 29.35 21.55 32.05 19.95 33.1 18.35 34.2 16.0 34.45 L11.7 34.55 13.45 34.05 15.35 33.7 Q16.45 33.25 18.45 31.45 20.45 29.75 20.8 27.95 L20.75 26.7 20.6 25.55 Q21.15 20.05 16.05 18.2 14.3 17.55 12.4 17.45 L10.7 17.65 10.35 17.85 Q10.1 16.2 14.05 16.6 16.95 16.85 18.85 17.55 21.4 18.5 22.5 20.25" fill="#f1af92" fill-rule="evenodd" stroke="none"/>
    <path d="M7.9 19.95 L8.0 19.95 Q7.5 20.1 7.7 21.0 7.9 21.75 8.25 22.15 8.75 22.7 9.45 22.7 L10.7 22.3 Q10.65 22.95 9.7 23.05 L7.9 22.7 Q5.4 21.55 7.85 19.8 L7.9 19.95" fill="#a72a62" fill-rule="evenodd" stroke="none"/>
    <path d="M14.45 21.2 L14.9 20.4 15.2 20.4 Q14.85 20.55 15.4 21.65 15.6 22.05 16.4 22.2 L18.0 22.5 Q18.9 22.45 19.2 21.6 19.6 22.35 18.9 22.95 17.95 23.6 16.25 23.4 14.55 23.15 14.3 22.1 14.15 21.6 14.45 21.2" fill="#a72a62" fill-rule="evenodd" stroke="none"/>
    <path d="M8.1 24.0 L11.45 23.35 14.85 23.7 19.95 25.6 Q21.25 26.15 21.7 27.7 22.1 29.2 21.5 30.5 L21.05 29.65 20.7 28.65 Q20.05 27.2 18.85 26.45 15.5 24.45 13.3 24.5 L10.6 24.65 8.05 25.25 6.45 26.15 Q5.5 26.85 5.15 27.45 L4.55 28.55 4.35 29.6 Q3.7 29.5 3.55 28.65 L3.45 27.25 3.55 28.05 Q4.5 26.2 5.25 25.55 6.35 24.6 8.1 24.0" fill="#a72a62" fill-rule="evenodd" stroke="none"/>
    <path d="M13.3 26.25 Q13.8 26.35 14.05 26.85 14.35 27.4 14.0 27.8 L13.1 27.75 12.15 27.45 Q11.95 27.45 11.3 27.9 L10.55 28.25 Q10.45 27.3 11.2 26.85 L10.65 26.85 Q12.05 25.95 13.3 26.25" fill="#a72a62" fill-rule="evenodd" stroke="none"/>
    <path d="M8.2 17.7 L8.2 17.85 Q9.7 17.85 10.45 18.85 L11.6 21.05 11.0 20.55 10.4 19.95 9.1 19.1 7.65 18.8 6.6 18.9 Q6.75 18.55 7.3 18.25 L8.2 17.7" fill="#a72a62" fill-rule="evenodd" stroke="none"/>
    <path d="M14.95 20.15 L17.4 19.75 Q18.5 18.95 20.05 18.6 20.85 18.45 21.05 18.85 L21.05 20.0 Q20.5 19.35 17.6 19.95 L15.6 20.55 14.5 20.9 14.95 20.15" fill="#a72a62" fill-rule="evenodd" stroke="none"/>
    <path d="M18.8 21.4 L18.8 21.55 18.65 21.6 16.75 21.9 Q16.15 21.9 15.75 21.55 L15.7 21.5 15.7 21.1 15.8 21.05 16.55 20.9 18.25 21.0 18.45 21.05 18.8 21.4 M8.65 20.85 L8.65 20.8 8.95 20.6 9.05 20.55 9.15 20.6 9.55 20.95 9.7 20.95 Q10.1 21.2 10.1 21.65 L10.0 22.05 9.95 22.15 9.8 22.15 9.45 22.1 9.4 22.1 9.3 22.15 9.2 22.1 Q8.55 21.6 8.55 21.2 L8.6 20.85 8.65 20.85" fill="#ffffff" fill-rule="evenodd" stroke="none"/>
    <path d="M7.75 19.9 Q9.25 19.25 10.6 20.2 L11.2 21.85 Q10.65 22.65 9.9 22.85 L8.3 22.6 Q7.5 22.1 7.45 21.4 L7.75 19.9 M8.75 20.9 Q8.6 21.5 9.3 21.95 L9.85 22.0 Q10.0 21.65 9.7 21.25 L9.1 20.7 8.75 20.9" fill="#46183b" fill-rule="evenodd" stroke="none"/>
    <path d="M13.1 26.55 L11.65 26.85 Q10.55 27.1 10.85 26.65 11.2 26.2 12.25 26.0 L13.75 26.1 13.7 26.5 13.5 26.75 13.3 26.7 13.15 26.8 13.1 26.55" fill="#46183b" fill-rule="evenodd" stroke="none"/>
    <path d="M16.55 10.1 L17.2 9.95 Q17.5 9.75 16.95 9.55 L15.1 9.65 16.55 10.1 M17.25 5.9 L18.65 5.75 Q19.8 5.6 19.5 5.4 18.5 4.75 17.3 4.65 16.1 4.6 15.1 5.2 L14.35 5.75 15.1 5.85 17.25 5.9 M18.35 1.65 Q19.65 1.5 17.55 2.45 L15.25 2.7 13.05 3.25 Q11.05 4.15 12.5 5.05 L13.25 5.45 Q14.7 4.45 16.4 4.0 L20.2 4.1 Q22.6 5.2 20.95 6.0 L17.6 6.7 Q15.25 6.85 13.35 6.65 12.9 7.1 12.8 7.5 12.55 8.6 14.5 9.4 L15.05 9.1 Q15.8 8.7 16.7 8.55 L18.4 8.7 Q20.05 9.4 19.05 10.3 17.5 11.75 14.3 10.7 L14.1 11.05 Q13.15 13.35 15.75 13.4 16.75 13.45 14.5 14.2 L12.65 13.65 Q11.55 12.95 11.85 12.0 12.15 11.15 13.2 10.3 L12.85 10.15 Q10.85 9.3 11.0 8.05 11.05 7.25 12.0 6.4 L11.55 6.3 10.35 5.55 Q9.65 4.9 10.05 4.35 11.15 2.85 13.9 2.25 L18.35 1.65" fill="#46183b" fill-rule="evenodd" stroke="none"/>
    <path d="M23.95 29.0 Q23.85 28.95 23.85 29.05 L23.75 29.15 23.2 29.15 22.55 30.55 22.95 31.55 23.5 32.5 Q24.15 31.45 23.95 29.0 M2.1 28.95 Q1.8 29.75 1.75 30.95 1.65 32.2 1.95 32.95 2.55 32.65 3.0 31.6 L3.8 29.9 3.3 29.0 2.7 29.0 2.1 28.95 M18.6 21.4 L18.4 21.2 18.1 21.15 17.0 21.1 15.85 21.2 15.85 21.4 Q16.25 21.8 17.1 21.7 L18.6 21.4 M14.95 24.35 L13.55 24.2 Q13.6 23.9 11.95 23.9 L10.15 23.95 Q7.55 24.3 5.0 26.0 L4.35 26.85 Q3.95 27.3 3.95 27.8 L4.05 28.4 Q4.55 28.65 4.45 29.0 L4.2 29.2 5.7 31.05 Q6.6 32.25 7.5 32.55 L7.55 32.7 9.45 33.65 9.5 33.55 Q9.95 33.85 11.05 34.15 L11.15 34.05 13.7 34.3 16.0 34.2 16.15 34.05 16.25 34.15 17.7 33.6 19.1 32.95 20.0 32.2 20.85 31.55 20.85 31.35 21.0 31.3 21.25 30.8 21.35 30.3 21.7 29.95 21.4 29.85 Q21.75 28.3 21.6 27.45 L19.1 25.6 Q17.35 24.55 16.2 24.75 L16.25 24.65 14.95 24.35 M22.65 23.95 Q22.8 23.35 22.45 22.5 L21.95 21.1 21.25 19.9 Q20.75 19.1 20.05 19.2 L20.05 19.0 18.95 19.35 17.8 19.75 Q19.6 19.95 19.45 21.25 19.35 22.5 17.65 22.7 L17.65 22.8 17.6 22.65 15.0 22.15 14.65 21.6 Q14.5 21.25 14.6 20.9 L14.25 20.55 17.9 17.45 Q16.8 16.85 14.85 16.8 L11.6 16.85 10.25 17.45 11.45 19.2 Q12.3 20.7 11.95 20.95 L11.6 20.9 10.0 19.4 8.5 18.0 7.55 18.45 6.75 19.1 6.7 19.0 Q5.6 20.0 4.4 21.7 L3.6 23.85 Q3.05 25.1 3.2 26.15 7.0 22.65 13.05 23.25 18.65 23.85 22.65 27.4 L22.9 25.6 Q23.05 24.3 22.65 23.95 M21.0 15.5 L21.0 15.3 21.05 15.4 Q21.3 15.1 21.75 15.15 22.2 15.2 22.35 15.5 L22.15 17.4 Q22.0 18.6 21.1 18.65 22.6 19.55 23.45 22.1 L24.45 26.3 Q24.9 28.2 24.8 30.8 24.7 34.4 23.05 33.8 L22.45 32.8 21.8 31.75 Q18.65 35.45 11.3 34.75 L11.25 34.65 10.5 34.55 9.7 34.4 9.5 34.3 9.35 34.35 6.75 33.1 Q5.2 32.2 4.75 31.1 4.05 31.75 2.85 33.45 L1.6 33.55 Q1.0 32.85 1.05 31.55 L1.1 29.4 1.6 28.0 1.9 26.5 Q2.55 23.7 3.1 22.65 5.3 18.4 7.8 17.35 7.65 16.9 6.8 16.4 L5.75 15.55 5.8 15.4 7.6 14.35 7.6 14.2 8.55 14.0 Q8.8 15.45 9.85 16.8 L10.8 16.5 13.6 16.2 18.1 16.65 19.55 16.4 21.0 15.5" fill="#46183b" fill-rule="evenodd" stroke="none"/>
  </g>
</svg>
