<?xml version="1.0" encoding="UTF-8" standalone="no"?>
<svg xmlns:xlink="http://www.w3.org/1999/xlink" height="12.0px" width="13.0px" xmlns="http://www.w3.org/2000/svg">
  <g transform="matrix(1.0, 0.0, 0.0, 1.0, 6.5, 6.0)">
    <path d="M-5.85 -3.4 Q-5.9 -4.25 -5.3 -4.85 -4.75 -5.4 -3.9 -5.5 L-2.1 -5.65 -0.3 -5.7 2.0 -5.4 3.7 -5.25 5.15 -4.75 Q5.75 -4.4 5.75 -3.55 L5.75 0.5 Q5.85 2.3 5.55 3.9 5.35 4.9 4.9 5.2 L3.4 5.45 -0.6 5.6 -3.65 5.4 -4.9 5.1 -5.85 4.3 -5.95 3.35 -5.85 2.4 -5.95 -0.3 Q-5.7 -1.95 -5.75 -2.8 L-5.75 -4.0 -5.85 -3.4" fill="#ffffff" fill-rule="evenodd" stroke="none"/>
    <path d="M0.45 -3.85 L0.4 -4.0 0.7 -4.0 1.35 -3.6 2.0 -2.9 Q2.25 -2.15 1.8 -1.45 1.35 -0.75 0.7 -0.8 L0.0 -0.6 -0.7 -0.45 -1.25 -0.95 -1.65 -1.4 Q-2.05 -1.65 -1.9 -2.6 -1.8 -3.25 -1.35 -3.7 L-0.25 -4.0 0.45 -3.85" fill="#d3510c" fill-rule="evenodd" stroke="none"/>
    <path d="M-0.85 -0.65 L-0.05 -0.6 0.9 -0.65 Q0.9 0.65 1.05 0.9 L0.2 1.05 -0.65 0.9 -0.75 0.1 -0.85 -0.65" fill="#d3510c" fill-rule="evenodd" stroke="none"/>
    <path d="M1.4 0.35 L3.25 0.8 Q1.05 1.65 0.3 2.05 L-1.65 1.55 -2.8 1.0 -2.0 0.75 -1.1 0.65 Q-0.7 1.4 0.3 1.25 1.35 1.15 1.4 0.35" fill="#aec6b9" fill-rule="evenodd" stroke="none"/>
    <path d="M3.2 1.15 L3.15 2.4 Q1.5 3.45 0.7 3.4 L0.7 2.1 3.2 1.15" fill="#aec6b9" fill-rule="evenodd" stroke="none"/>
    <path d="M-2.8 1.5 L0.0 2.3 0.05 2.9 0.1 3.5 -1.2 3.2 -2.6 2.9 -2.8 1.5" fill="#aec6b9" fill-rule="evenodd" stroke="none"/>
    <path d="M-0.95 -3.4 Q-2.15 -2.6 -1.45 -1.55 -0.7 -0.4 0.95 -1.2 2.6 -1.95 1.3 -3.25 0.25 -4.25 -0.95 -3.4 M2.0 -3.0 Q2.65 -1.6 1.45 -1.0 1.15 -0.6 1.4 0.1 L3.7 0.6 3.35 2.85 0.5 3.95 -1.4 3.65 -3.25 3.2 -3.6 0.9 Q-3.4 0.65 -2.2 0.45 L-1.0 0.2 Q-0.85 -0.65 -1.1 -0.7 -2.1 -1.05 -2.2 -2.0 -2.25 -2.95 -1.65 -3.55 -1.05 -4.15 -0.05 -4.2 1.55 -4.2 2.0 -3.0 M3.15 1.25 L0.7 2.1 0.7 3.4 Q1.95 3.05 3.05 2.35 L3.15 1.25 M0.8 -0.7 L0.05 -0.6 -0.55 -0.7 -0.6 0.8 0.2 0.85 0.95 0.7 Q0.8 0.4 0.8 -0.7 M0.0 2.3 L-2.8 1.5 -2.6 2.9 -1.2 3.2 0.1 3.5 0.05 2.9 0.0 2.3 M1.75 1.35 L3.1 0.8 1.5 0.5 Q1.35 1.35 0.1 1.4 -1.2 1.4 -1.1 0.65 -2.1 0.65 -2.7 1.0 L0.4 1.85 Q0.75 1.65 1.75 1.35" fill="#152020" fill-rule="evenodd" stroke="none"/>
    <path d="M1.45 2.3 Q1.35 2.2 1.85 2.05 2.3 1.9 2.45 2.05 L3.25 2.6 4.25 2.9 Q5.15 3.25 5.05 4.7 5.05 5.0 4.1 4.95 4.2 3.45 3.05 3.15 1.85 2.85 1.45 2.3" fill="#152020" fill-rule="evenodd" stroke="none"/>
    <path d="M-5.05 -4.8 Q-5.4 -3.5 -5.35 -1.25 L-5.25 2.45 -5.35 3.7 Q-5.35 4.4 -5.0 4.75 -1.4 5.2 5.25 4.6 5.55 4.1 5.5 3.1 L5.35 1.45 5.55 -1.8 Q5.7 -3.8 5.25 -4.8 -0.9 -5.9 -5.05 -4.8 M6.45 -4.4 L6.5 1.05 Q6.5 4.3 5.7 5.7 L0.75 6.0 -5.0 5.8 Q-6.2 5.35 -6.4 3.8 L-6.5 0.15 -6.45 -3.2 Q-6.3 -4.9 -5.6 -5.6 L-3.05 -5.95 0.5 -5.95 4.35 -5.85 Q6.1 -5.6 6.45 -4.4" fill="#24342a" fill-rule="evenodd" stroke="none"/>
  </g>
</svg>
