<?xml version="1.0" encoding="UTF-8" standalone="no"?>
<svg xmlns:xlink="http://www.w3.org/1999/xlink" height="11.85px" width="9.0px" xmlns="http://www.w3.org/2000/svg">
  <g transform="matrix(1.0, 0.0, 0.0, 1.0, 4.55, 5.3)">
    <path d="M1.75 -3.45 Q1.1 -4.0 0.0 -3.95 L-1.95 -3.55 Q-3.8 -1.05 -3.25 0.1 L-2.1 1.3 -0.65 1.85 Q1.25 1.65 1.1 -0.6 0.95 -2.9 -0.9 -1.2 L-0.7 -0.55 Q-0.4 -0.2 -0.85 0.1 -2.8 -0.65 -1.45 -2.15 -0.05 -3.6 1.4 -2.55 2.7 -1.6 2.2 0.35 1.7 2.2 0.1 2.95 -3.3 3.05 -4.25 0.45 -5.25 -2.2 -2.75 -4.5 -1.9 -5.3 -0.15 -5.3 1.7 -5.3 2.75 -4.25 4.4 -2.55 4.45 1.15 4.45 3.95 3.7 6.3 L3.0 6.35 2.4 5.35 3.0 3.45 3.4 1.55 Q3.55 0.4 3.05 -1.5 2.65 -2.85 1.75 -3.45" fill="#d15414" fill-rule="evenodd" stroke="none"/>
  </g>
</svg>
