<?xml version="1.0" encoding="UTF-8" standalone="no"?>
<svg xmlns:xlink="http://www.w3.org/1999/xlink" height="11.95px" width="12.6px" xmlns="http://www.w3.org/2000/svg">
  <g transform="matrix(1.0, 0.0, 0.0, 1.0, 6.3, 5.8)">
    <path d="M4.85 -4.55 L2.6 -4.85 -0.3 -4.8 -0.85 -4.85 Q-4.0 -5.05 -5.1 -4.25 -5.45 -3.0 -5.3 -0.75 L-5.1 2.85 -5.2 4.05 Q-5.2 4.7 -4.8 5.0 1.3 5.2 5.05 4.8 5.4 4.25 5.35 3.35 L5.15 1.75 5.3 -1.6 Q5.4 -3.6 4.85 -4.55 M0.5 -5.75 L4.2 -5.65 Q5.9 -5.4 6.25 -4.25 L6.3 1.3 Q6.3 4.45 5.5 5.85 L0.7 6.15 -4.9 6.0 Q-6.0 5.55 -6.25 4.0 L-6.3 0.4 -6.25 -3.05 Q-6.1 -4.75 -5.45 -5.45 L-3.0 -5.75 0.5 -5.75" fill="#d15414" fill-rule="evenodd" stroke="none"/>
  </g>
</svg>
