<?xml version="1.0" encoding="UTF-8" standalone="no"?>
<svg xmlns:xlink="http://www.w3.org/1999/xlink" height="55.2px" width="55.1px" xmlns="http://www.w3.org/2000/svg">
  <g transform="matrix(1.0, 0.0, 0.0, 1.0, 0.0, 0.0)">
    <path d="M47.15 9.15 L45.75 13.7 50.5 13.2 48.2 17.45 53.05 17.9 49.9 21.6 54.55 22.95 50.85 25.95 55.1 28.2 50.85 30.45 54.55 33.45 49.9 34.8 53.05 38.5 48.2 39.0 50.5 43.2 45.75 42.7 47.15 47.25 42.6 45.85 43.1 50.65 38.85 48.3 38.4 53.15 34.7 50.05 33.35 54.65 30.3 50.95 28.1 55.2 25.85 50.95 22.8 54.65 21.45 50.05 17.75 53.15 17.3 48.3 13.05 50.65 13.55 45.85 9.0 47.25 10.4 42.7 5.65 43.2 7.95 39.0 3.1 38.5 6.25 34.8 1.65 33.45 5.3 30.45 1.1 28.25 5.3 25.95 1.65 22.95 6.25 21.6 3.1 17.9 7.95 17.45 5.65 13.2 10.4 13.7 9.0 9.15 13.55 10.55 13.05 5.75 17.3 8.1 17.75 3.25 21.45 6.35 22.8 1.75 25.85 5.45 28.1 1.2 30.3 5.45 33.35 1.75 34.7 6.35 38.4 3.25 38.85 8.1 43.1 5.75 42.6 10.55 47.15 9.15" fill="#000000" fill-opacity="0.3529412" fill-rule="evenodd" stroke="none"/>
    <path d="M46.05 7.95 L44.65 12.5 49.4 12.0 47.1 16.25 51.95 16.7 48.8 20.4 53.45 21.75 49.75 24.75 54.0 27.0 Q51.9 28.15 49.75 29.25 L53.45 32.25 48.8 33.6 51.95 37.3 47.1 37.8 49.4 42.0 44.65 41.5 46.05 46.05 41.5 44.65 42.0 49.45 37.75 47.1 37.3 51.95 33.6 48.85 32.25 53.45 29.2 49.75 27.0 54.0 24.75 49.75 21.7 53.45 20.35 48.85 16.65 51.95 16.2 47.1 11.95 49.45 12.45 44.65 7.9 46.05 9.3 41.5 4.55 42.0 6.85 37.8 2.0 37.3 5.15 33.6 0.55 32.25 4.2 29.25 0.0 27.05 4.2 24.75 0.55 21.75 5.15 20.4 2.0 16.7 6.85 16.25 4.55 12.0 9.3 12.5 7.9 7.95 12.45 9.35 11.95 4.55 16.2 6.9 16.65 2.05 20.35 5.15 21.7 0.55 24.75 4.25 27.0 0.0 29.2 4.25 32.25 0.55 33.6 5.15 37.3 2.05 37.75 6.9 42.0 4.55 41.5 9.35 46.05 7.95" fill="#ffffff" fill-rule="evenodd" stroke="none"/>
    <path d="M47.15 13.5 L45.1 17.3 49.45 17.75 46.6 21.05 50.8 22.25 47.45 24.95 51.3 27.0 47.45 29.0 50.8 31.7 46.6 32.95 49.45 36.25 45.1 36.7 47.15 40.5 42.9 40.05 44.15 44.15 40.05 42.9 40.5 47.2 36.65 45.1 36.25 49.45 32.95 46.65 31.7 50.8 29.0 47.45 27.0 51.3 24.95 47.45 22.25 50.8 21.0 46.65 17.7 49.45 17.3 45.1 13.45 47.2 13.9 42.9 9.8 44.15 11.05 40.05 6.8 40.5 8.85 36.7 4.5 36.25 7.35 32.95 3.2 31.7 6.5 29.0 2.7 27.05 6.5 24.95 3.2 22.25 7.35 21.05 4.5 17.75 8.85 17.3 6.8 13.5 11.05 13.95 9.8 9.85 13.9 11.1 13.45 6.8 17.3 8.9 17.7 4.55 21.0 7.35 22.25 3.2 24.95 6.5 27.0 2.7 29.0 6.5 31.7 3.2 32.95 7.35 36.25 4.55 36.65 8.9 40.5 6.8 40.05 11.1 44.15 9.85 42.9 13.95 47.15 13.5" fill="url(#gradient0)" fill-rule="evenodd" stroke="none"/>
  </g>
  <defs>
    <linearGradient color-interpolation="linearRGB" gradientTransform="matrix(0.0092, 0.0281, -0.0282, 0.0092, 27.05, 27.05)" gradientUnits="userSpaceOnUse" id="gradient0" spreadMethod="pad" x1="-819.2" x2="819.2">
      <stop offset="0.0" stop-color="#f6a3f1"/>
      <stop offset="0.23529411764705882" stop-color="#f479e8"/>
      <stop offset="1.0" stop-color="#f144db"/>
    </linearGradient>
  </defs>
</svg>
