<?xml version="1.0" encoding="UTF-8" standalone="no"?>
<svg xmlns:xlink="http://www.w3.org/1999/xlink" height="11.95px" width="12.6px" xmlns="http://www.w3.org/2000/svg">
  <g transform="matrix(1.0, 0.0, 0.0, 1.0, 6.3, 5.2)">
    <path d="M0.15 4.8 Q-0.5 5.45 -1.4 5.45 -2.35 5.45 -3.0 4.8 -3.65 4.15 -3.65 3.25 -3.65 2.35 -3.0 1.7 -2.35 1.05 -1.4 1.05 -0.5 1.05 0.15 1.7 0.8 2.35 0.8 3.25 0.8 4.15 0.15 4.8" fill="#0066ff" fill-rule="evenodd" stroke="none"/>
    <path d="M4.15 -1.3 Q4.85 -0.65 4.85 0.3 4.85 1.25 4.15 1.95 3.5 2.6 2.55 2.6 1.6 2.6 0.95 1.95 0.25 1.25 0.25 0.3 0.25 -0.65 0.95 -1.3 1.6 -1.95 2.55 -1.95 3.5 -1.95 4.15 -1.3" fill="#ff33cc" fill-rule="evenodd" stroke="none"/>
    <path d="M-0.4 -3.4 Q0.3 -2.7 0.3 -1.7 0.3 -0.7 -0.4 0.0 -1.1 0.7 -2.1 0.7 -3.1 0.7 -3.8 0.0 -4.5 -0.7 -4.5 -1.7 -4.5 -2.7 -3.8 -3.4 -3.1 -4.1 -2.1 -4.1 -1.1 -4.1 -0.4 -3.4" fill="#ffcc00" fill-rule="evenodd" stroke="none"/>
    <path d="M0.5 -5.15 L4.2 -5.05 Q5.9 -4.8 6.25 -3.65 L6.3 1.85 Q6.3 5.05 5.5 6.45 L0.7 6.75 -4.9 6.6 Q-6.0 6.15 -6.25 4.6 L-6.3 1.0 -6.25 -2.45 Q-6.1 -4.15 -5.45 -4.85 L-3.0 -5.15 0.5 -5.15 M5.3 -1.0 Q5.4 -3.0 4.85 -3.95 L2.6 -4.25 -0.3 -4.2 -0.85 -4.25 Q-4.0 -4.45 -5.1 -3.65 -5.45 -2.4 -5.3 -0.15 L-5.1 3.45 -5.2 4.65 Q-5.2 5.3 -4.8 5.6 1.3 5.8 5.05 5.4 5.4 4.85 5.35 3.95 L5.15 2.35 5.3 -1.0" fill="#ff6633" fill-rule="evenodd" stroke="none"/>
  </g>
</svg>
