<?xml version="1.0" encoding="UTF-8" standalone="no"?>
<svg xmlns:xlink="http://www.w3.org/1999/xlink" height="12.3px" width="12.9px" xmlns="http://www.w3.org/2000/svg">
  <g transform="matrix(1.0, 0.0, 0.0, 1.0, 6.4, 6.1)">
    <path d="M5.1 -4.75 L-0.35 -5.2 Q-3.7 -5.3 -5.15 -4.5 -5.5 -3.2 -5.35 -1.0 L-5.15 2.55 -5.25 3.8 Q-5.3 4.55 -5.0 4.9 -1.45 5.4 5.25 4.8 5.55 4.25 5.5 3.25 L5.35 1.55 5.5 -1.7 Q5.55 -3.7 5.1 -4.75 M4.35 -5.95 Q6.1 -5.7 6.45 -4.5 L6.5 1.1 Q6.45 4.45 5.65 5.95 L0.75 6.2 -5.0 6.05 Q-6.1 5.6 -6.35 3.95 L-6.4 0.2 -6.35 -3.3 Q-6.2 -5.0 -5.5 -5.75 L-3.05 -6.1 0.5 -6.05 4.35 -5.95" fill="#24342a" fill-rule="evenodd" stroke="none"/>
    <path d="M5.5 -1.7 L5.35 1.55 5.5 3.25 Q5.55 4.25 5.25 4.8 -1.45 5.4 -5.0 4.9 -5.3 4.55 -5.25 3.8 L-5.15 2.55 -5.35 -1.0 Q-5.5 -3.2 -5.15 -4.5 -3.7 -5.3 -0.35 -5.2 L5.1 -4.75 Q5.55 -3.7 5.5 -1.7 M3.55 -3.05 L0.5 -3.4 -2.85 -3.25 Q-3.3 -2.6 -2.95 -1.35 -1.5 -1.05 -0.05 -1.35 -0.5 -0.75 -2.1 0.5 -3.5 1.6 -3.95 2.55 1.2 3.2 4.1 2.7 L4.05 1.7 3.55 0.9 1.7 1.05 -0.25 1.1 Q0.2 0.25 1.65 -0.95 3.1 -2.15 3.55 -3.05" fill="#7a998f" fill-rule="evenodd" stroke="none"/>
    <path d="M3.05 -2.65 L1.45 -0.85 Q0.15 0.15 -0.2 0.9 L3.05 0.7 Q3.75 1.5 3.5 2.25 1.05 2.7 -3.4 2.15 -3.0 1.35 -1.8 0.4 L-0.05 -1.2 Q-1.25 -0.9 -2.5 -1.2 -2.8 -2.15 -2.45 -2.85 L0.45 -2.95 3.05 -2.65" fill="#ffffff" fill-rule="evenodd" stroke="none"/>
    <path d="M3.05 -2.65 L1.45 -0.85 Q0.15 0.15 -0.2 0.9 L3.05 0.7 Q3.75 1.5 3.5 2.25 1.05 2.7 -3.4 2.15 -3.0 1.35 -1.8 0.4 L-0.05 -1.2 Q-1.25 -0.9 -2.5 -1.2 -2.8 -2.15 -2.45 -2.85 L0.45 -2.95 3.05 -2.65 Z" fill="none" stroke="#24342a" stroke-linecap="butt" stroke-linejoin="miter" stroke-width="1.5"/>
    <path d="M3.2 -2.75 Q2.8 -1.9 1.5 -0.9 0.15 0.2 -0.25 0.95 L3.2 0.75 3.65 1.5 3.7 2.4 Q1.05 2.85 -3.6 2.3 -3.15 1.4 -1.9 0.45 L-0.05 -1.25 Q-1.35 -0.95 -2.65 -1.25 -2.95 -2.25 -2.55 -2.95 L0.45 -3.1 3.2 -2.75" fill="#ffffff" fill-rule="evenodd" stroke="none"/>
  </g>
</svg>
