<?xml version="1.0" encoding="UTF-8" standalone="no"?>
<svg xmlns:xlink="http://www.w3.org/1999/xlink" height="12.5px" width="13.1px" xmlns="http://www.w3.org/2000/svg">
  <g transform="matrix(1.0, 0.0, 0.0, 1.0, 6.4, 6.2)">
    <path d="M0.6 -6.15 L4.5 -6.05 Q6.25 -5.8 6.65 -4.55 L6.7 1.15 Q6.65 4.5 5.85 6.0 L0.85 6.3 -4.95 6.1 Q-6.1 5.65 -6.3 4.05 L-6.4 0.2 -6.35 -3.35 Q-6.15 -5.05 -5.5 -5.8 L-3.0 -6.2 0.6 -6.15 M3.7 -1.85 Q4.0 3.25 2.2 4.55 0.1 3.0 -1.1 2.35 L-2.8 3.85 -3.7 4.55 -4.15 5.2 5.15 5.1 5.25 4.85 5.5 4.75 Q5.8 0.85 5.5 -3.55 L3.7 -1.85 M3.35 -3.55 L4.95 -5.0 -0.7 -5.25 Q-4.0 -5.45 -5.3 -4.35 -5.5 -2.95 -5.35 -0.25 L-5.3 3.75 -4.35 3.1 -3.25 2.25 Q-3.85 -0.85 -3.15 -1.5 -3.05 -1.35 -2.6 -1.3 L-2.0 -1.15 Q-1.6 -1.25 0.6 -3.5 L3.35 -3.55 M1.65 -2.2 Q2.5 -2.35 2.65 -3.2 2.25 -3.95 1.8 -3.4 1.35 -2.85 1.65 -2.2 M-0.85 -0.9 Q-1.7 0.0 -2.65 -0.35 L-2.65 0.55 -2.55 1.35 -2.2 1.0 -1.9 0.65 -1.6 0.7 -1.3 0.8 0.05 -0.55 Q0.9 -1.35 0.6 -2.4 L-0.85 -0.9 M1.4 2.05 Q1.7 3.25 2.1 3.6 2.75 2.85 2.95 1.45 3.15 0.1 2.9 -1.15 2.45 -0.85 2.2 0.5 1.95 1.8 1.4 2.05 M-0.15 1.7 L0.25 2.05 0.75 2.35 0.65 1.6 0.5 0.9 0.1 1.25 Q-0.2 1.45 -0.15 1.7" fill="#24342a" fill-rule="evenodd" stroke="none"/>
    <path d="M4.95 -5.0 L3.35 -3.55 0.6 -3.5 Q-1.6 -1.25 -2.0 -1.15 L-2.6 -1.3 Q-3.05 -1.35 -3.15 -1.5 -3.85 -0.85 -3.25 2.25 L-4.35 3.1 -5.3 3.75 -5.35 -0.25 Q-5.5 -2.95 -5.3 -4.35 -4.0 -5.45 -0.7 -5.25 L4.95 -5.0" fill="#ffffff" fill-rule="evenodd" stroke="none"/>
    <path d="M2.65 -3.2 Q2.5 -2.35 1.65 -2.2 1.35 -2.85 1.8 -3.4 2.25 -3.95 2.65 -3.2" fill="#aec6b9" fill-rule="evenodd" stroke="none"/>
    <path d="M5.5 -3.55 Q5.8 0.85 5.5 4.75 L5.25 4.85 5.15 5.1 -4.15 5.2 -3.7 4.55 -2.8 3.85 -1.1 2.35 Q0.1 3.0 2.2 4.55 4.0 3.25 3.7 -1.85 L5.5 -3.55" fill="#ffffff" fill-rule="evenodd" stroke="none"/>
    <path d="M0.6 -2.4 Q0.9 -1.35 0.05 -0.55 L-1.3 0.8 -1.6 0.7 -1.9 0.65 -2.2 1.0 -2.55 1.35 -2.65 0.55 -2.65 -0.35 Q-1.7 0.0 -0.85 -0.9 L0.6 -2.4" fill="#7a998f" fill-rule="evenodd" stroke="none"/>
    <path d="M2.9 -1.15 Q3.15 0.1 2.95 1.45 2.75 2.85 2.1 3.6 1.7 3.25 1.4 2.05 1.95 1.8 2.2 0.5 2.45 -0.85 2.9 -1.15" fill="#aec6b9" fill-rule="evenodd" stroke="none"/>
    <path d="M0.5 0.9 L0.65 1.6 0.75 2.35 0.25 2.05 -0.15 1.7 Q-0.2 1.45 0.1 1.25 L0.5 0.9" fill="#7a998f" fill-rule="evenodd" stroke="none"/>
  </g>
</svg>
