<?xml version="1.0" encoding="UTF-8" standalone="no"?>
<svg xmlns:xlink="http://www.w3.org/1999/xlink" height="11.35px" width="12.0px" xmlns="http://www.w3.org/2000/svg">
  <g transform="matrix(1.0, 0.0, 0.0, 1.0, 6.0, 5.65)">
    <path d="M4.75 -4.35 Q5.1 -3.45 5.1 -2.0 L5.1 -1.8 4.95 1.45 5.0 2.3 5.05 2.55 Q5.15 3.9 4.85 4.4 L2.1 4.6 -1.6 4.75 -4.65 4.55 Q-5.0 4.2 -5.0 3.65 L-4.9 2.6 -4.85 2.5 -4.85 2.35 -5.1 -1.65 -5.1 -1.8 Q-5.15 -3.2 -4.85 -4.2 -3.85 -4.7 -2.1 -4.8 L-2.0 -4.8 2.65 -4.55 2.75 -4.55 4.75 -4.35" fill="#5ce778" fill-rule="evenodd" stroke="none"/>
    <path d="M-3.7 -0.1 Q-3.6 -1.5 -2.65 -2.5 -1.8 -3.45 -0.3 -3.65 2.25 -3.85 3.45 -1.55 4.35 0.3 3.2 2.05 2.1 3.8 0.1 3.8 L-1.2 3.6 -2.95 2.3 Q-3.75 1.25 -3.7 -0.1 M2.25 -2.05 Q1.2 -3.1 -0.35 -2.9 -2.7 -2.55 -2.95 -0.25 -3.05 1.15 -2.2 2.0 -1.3 3.0 0.15 3.0 1.25 3.0 2.05 2.35 3.0 1.6 3.1 0.35 3.2 -0.95 2.25 -2.05" fill="#f2aa21" fill-rule="evenodd" stroke="none"/>
    <path d="M1.65 -1.55 Q2.3 -0.95 2.35 -0.1 2.45 0.9 1.8 1.6 1.1 2.3 0.05 2.3 -0.9 2.3 -1.7 1.6 -2.3 0.95 -2.2 -0.05 -2.1 -1.9 -0.25 -2.15 L0.05 -2.15 Q1.0 -2.15 1.65 -1.55 M0.1 -0.85 L-0.15 -0.85 Q-0.8 -0.75 -0.85 -0.15 L-0.65 0.6 Q-0.35 0.95 0.2 0.9 1.0 0.85 0.9 -0.1 0.9 -0.85 0.1 -0.85" fill="#e06411" fill-rule="evenodd" stroke="none"/>
    <path d="M-0.15 -1.25 Q1.2 -1.5 1.35 -0.2 1.55 1.15 0.35 1.35 -0.3 1.45 -0.75 1.05 -1.3 0.6 -1.25 -0.15 -1.1 -1.05 -0.15 -1.25" fill="#f2aa21" fill-rule="evenodd" stroke="none"/>
    <path d="M1.75 -1.4 L1.0 -1.95 0.9 -1.95 0.1 -2.1 -0.25 -2.1 Q-2.05 -1.85 -2.2 -0.05 -2.2 0.95 -1.65 1.55 -1.0 2.25 0.0 2.25 1.05 2.25 1.75 1.55 2.4 0.95 2.3 -0.1 L1.75 -1.4 M2.3 -2.05 L2.85 -1.1 3.1 0.35 Q3.05 1.65 2.1 2.4 1.25 3.05 0.15 3.05 -1.35 3.05 -2.25 2.0 -3.15 1.1 -3.0 -0.25 -2.9 -1.35 -2.2 -2.05 -1.5 -2.75 -0.35 -2.95 1.25 -3.15 2.3 -2.05" fill="#fcee2c" fill-rule="evenodd" stroke="none"/>
    <path d="M5.1 -2.0 Q5.1 -3.45 4.75 -4.35 L2.75 -4.55 2.65 -4.55 -2.0 -4.8 -2.1 -4.8 Q-3.85 -4.7 -4.85 -4.2 -5.15 -3.2 -5.1 -1.8 L-5.1 -1.65 -4.85 2.35 -4.85 2.5 -4.9 2.6 -5.0 3.65 Q-5.0 4.2 -4.65 4.55 L-1.6 4.75 2.1 4.6 3.35 4.55 4.85 4.4 Q5.15 3.9 5.05 2.55 L5.0 2.3 4.95 1.45 5.1 -1.8 5.1 -2.0 M6.0 -4.2 L5.95 -2.7 6.0 0.25 5.9 3.05 Q5.75 4.55 5.25 5.45 L3.5 5.65 -3.65 5.6 -4.65 5.55 Q-6.0 5.05 -6.0 2.65 L-6.0 -2.5 Q-5.9 -4.5 -5.15 -5.35 L-2.95 -5.65 3.1 -5.6 Q5.55 -5.5 6.0 -4.2" fill="#377748" fill-rule="evenodd" stroke="none"/>
  </g>
</svg>
