<?xml version="1.0" encoding="UTF-8" standalone="no"?>
<svg xmlns:xlink="http://www.w3.org/1999/xlink" height="38.7px" width="45.4px" xmlns="http://www.w3.org/2000/svg">
  <g transform="matrix(1.0, 0.0, 0.0, 1.0, 22.7, 19.35)">
    <path d="M19.85 3.8 Q20.95 4.1 21.5 4.7 22.6 5.85 20.4 8.55 L17.85 11.1 Q20.4 17.0 17.7 17.8 16.1 18.25 13.5 16.45 L11.1 14.55 8.7 16.25 6.85 17.25 4.85 17.6 Q3.85 17.35 3.55 16.2 3.25 15.3 3.45 14.2 L3.5 13.85 1.25 12.45 -2.55 9.4 -6.45 12.1 Q-9.05 13.7 -10.45 14.1 -8.9 17.9 -10.65 18.4 -11.75 18.75 -13.45 17.5 L-15.05 16.25 -16.7 17.35 -17.9 18.05 -19.3 18.25 Q-19.95 18.1 -20.15 17.35 L-20.2 16.0 Q-20.05 14.85 -19.55 13.85 L-20.95 12.25 Q-22.25 10.55 -21.8 9.6 -21.55 9.15 -20.75 8.9 L-19.5 8.8 -17.85 8.55 -17.2 7.0 Q-15.9 4.4 -15.0 4.4 -14.4 4.45 -13.8 5.35 L-13.2 3.8 -16.45 0.05 Q-19.45 -4.1 -18.45 -6.25 -17.95 -7.35 -15.95 -7.85 L-13.0 -8.15 -11.05 -8.3 -9.1 -8.75 -8.45 -10.55 -7.55 -12.3 Q-4.8 -18.55 -2.45 -18.45 -1.05 -18.3 0.55 -16.0 L2.5 -12.45 3.4 -10.45 4.15 -8.4 8.35 -8.15 11.3 -7.7 Q13.05 -7.2 13.95 -6.25 15.2 -4.8 13.1 -1.45 L14.3 0.8 14.9 2.05 15.35 3.35 18.0 3.5 19.85 3.8" fill="#0490a1" fill-opacity="0.49803922" fill-rule="evenodd" stroke="none"/>
    <path d="M14.1 -1.45 L15.1 0.45 16.0 2.45 18.0 2.65 Q20.75 2.65 22.15 4.1 23.7 5.8 21.05 9.1 L18.85 11.35 Q20.45 15.3 19.6 17.2 19.05 18.3 17.95 18.6 L16.95 18.75 Q15.45 18.75 13.0 17.2 L11.05 15.65 9.1 17.0 8.9 17.1 Q6.7 18.5 5.3 18.5 L4.65 18.4 Q3.4 18.1 2.85 16.9 2.4 15.8 2.55 14.3 L0.75 13.15 -2.6 10.5 -6.0 12.8 -6.3 13.0 Q-8.05 14.1 -9.35 14.6 -8.55 16.9 -9.1 18.15 -9.45 18.95 -10.4 19.2 L-11.15 19.35 Q-12.4 19.35 -13.95 18.2 L-15.1 17.35 -16.25 18.1 -16.4 18.15 Q-17.85 19.15 -18.95 19.15 L-19.45 19.1 Q-20.45 18.85 -20.85 17.85 -21.2 17.0 -21.05 15.85 L-20.6 14.05 -21.65 12.75 Q-23.15 10.55 -22.55 9.25 -21.95 7.9 -19.65 7.9 L-19.45 7.95 -19.35 7.95 -18.5 7.8 -17.95 6.65 Q-16.55 3.55 -15.05 3.55 L-14.9 3.55 -14.55 3.65 -17.15 0.55 Q-20.4 -3.95 -19.2 -6.6 -18.55 -8.05 -16.2 -8.65 L-13.35 -9.0 -13.0 -9.0 -10.1 -9.4 -9.8 -9.45 -8.9 -11.5 -8.35 -12.65 Q-6.9 -15.75 -5.75 -17.25 -4.15 -19.35 -2.5 -19.35 L-2.35 -19.3 Q-0.55 -19.05 1.3 -16.45 L3.3 -12.75 3.9 -11.45 4.8 -9.3 6.65 -9.15 8.35 -9.0 11.45 -8.55 Q13.5 -7.95 14.55 -6.85 16.2 -5.0 14.1 -1.45 M11.1 -6.85 L8.3 -7.3 6.45 -7.45 4.25 -7.55 3.55 -7.45 3.35 -8.2 2.35 -10.75 1.7 -12.1 Q0.85 -14.2 -0.3 -15.75 -1.55 -17.45 -2.55 -17.6 -4.15 -17.6 -6.75 -12.0 L-7.4 -10.75 -8.3 -8.5 -8.45 -8.05 -8.9 -7.9 -9.7 -7.75 -13.05 -7.3 -13.35 -7.3 -16.0 -6.95 Q-17.35 -6.55 -17.65 -5.9 -18.45 -4.2 -15.75 -0.45 L-12.6 3.2 -12.15 3.65 -13.55 7.15 -14.5 5.85 -15.1 5.3 Q-15.55 5.55 -16.4 7.35 L-16.65 7.9 -17.0 8.75 -17.15 9.25 -17.95 9.45 -19.55 9.65 -19.65 9.65 Q-20.7 9.65 -21.0 9.95 -21.2 10.4 -20.25 11.75 L-18.95 13.25 -18.5 13.65 -18.8 14.25 -19.35 16.1 Q-19.55 17.3 -19.1 17.4 L-18.95 17.45 Q-18.4 17.45 -17.3 16.7 L-17.15 16.6 -15.6 15.55 -15.0 15.1 -14.45 15.6 -12.95 16.8 Q-11.6 17.75 -10.9 17.6 L-10.65 17.4 Q-10.3 16.6 -11.25 14.45 L-11.65 13.55 -10.7 13.25 Q-9.55 12.95 -7.2 11.55 L-6.85 11.35 Q-5.3 10.4 -3.1 8.75 L-2.5 8.3 -1.95 8.8 1.7 11.75 3.9 13.05 4.45 13.35 4.3 14.15 4.3 14.3 4.3 15.7 Q4.45 16.6 5.05 16.75 L5.3 16.8 Q6.0 16.8 8.05 15.65 L8.25 15.5 10.6 13.9 11.15 13.45 11.7 13.95 14.0 15.75 Q15.85 17.05 16.95 17.05 L17.45 16.95 18.05 16.5 Q18.65 15.2 17.05 11.45 L16.8 10.85 17.3 10.45 Q18.55 9.5 19.7 8.0 L20.8 6.25 Q21.1 5.5 20.9 5.25 20.5 4.85 19.6 4.6 L17.95 4.35 16.75 4.25 15.45 4.2 14.7 4.25 14.55 3.55 13.9 2.0 13.5 1.15 Q13.15 0.15 12.4 -0.95 L12.05 -1.45 12.35 -1.9 Q14.2 -4.75 13.3 -5.65 12.6 -6.4 11.1 -6.85" fill="#0490a1" fill-rule="evenodd" stroke="none"/>
    <path d="M-11.85 7.7 L-12.1 8.45 Q-12.25 9.05 -12.05 9.3 L-10.5 9.15 Q-8.75 8.3 -6.65 6.5 L-7.35 7.65 -8.1 8.75 Q-9.0 9.6 -10.6 10.3 L-11.7 10.65 Q-12.2 10.6 -12.35 9.9 -12.65 8.75 -11.75 7.55 L-11.85 7.7" fill="#ffffff" fill-opacity="0.49803922" fill-rule="evenodd" stroke="none"/>
    <path d="M9.9 -3.55 Q9.85 -2.6 8.0 -1.0 L6.85 0.1 5.5 0.95 Q7.7 -1.25 7.85 -2.8 8.1 -4.8 4.95 -5.4 L2.8 -5.85 2.8 -6.05 7.75 -5.3 Q10.05 -4.7 9.9 -3.55" fill="#ffffff" fill-opacity="0.49803922" fill-rule="evenodd" stroke="none"/>
    <path d="M13.95 -6.25 Q15.5 -4.5 12.15 -0.1 L8.1 3.95 Q12.15 13.25 7.9 14.55 5.3 15.3 1.25 12.45 L-2.55 9.4 -6.45 12.1 -9.3 13.7 Q-11.2 14.5 -12.5 14.2 -14.0 13.85 -14.55 12.05 -15.0 10.6 -14.75 8.85 -14.4 6.35 -13.2 3.8 L-16.45 0.05 Q-19.45 -4.1 -18.45 -6.25 -17.95 -7.35 -15.95 -7.85 L-13.0 -8.15 -11.05 -8.3 -9.1 -8.75 -8.45 -10.55 -7.55 -12.3 Q-4.8 -18.55 -2.45 -18.45 -1.05 -18.3 0.55 -16.0 L2.5 -12.45 3.4 -10.45 4.15 -8.4 8.35 -8.15 11.3 -7.7 Q13.05 -7.2 13.95 -6.25" fill="#0490a1" fill-rule="evenodd" stroke="none"/>
    <path d="M11.15 -6.95 Q12.7 -6.5 13.4 -5.75 14.0 -5.1 13.4 -3.55 12.8 -2.15 11.55 -0.6 9.7 1.7 7.65 3.35 L7.2 3.75 7.4 4.25 Q10.1 10.35 9.0 12.75 8.55 13.55 7.7 13.85 L6.7 13.95 Q4.7 13.95 1.65 11.85 L-2.05 8.85 -2.5 8.45 -3.0 8.8 Q-4.85 10.3 -6.8 11.45 L-7.15 11.65 Q-10.25 13.55 -11.75 13.55 L-12.35 13.5 Q-13.55 13.2 -13.9 11.6 -14.2 10.4 -14.0 8.95 -13.7 6.65 -12.5 4.15 L-12.3 3.65 -12.65 3.3 -15.85 -0.35 -17.4 -2.9 Q-18.3 -4.8 -17.75 -5.95 -17.45 -6.6 -16.05 -7.05 L-13.35 -7.45 -13.05 -7.4 -9.7 -7.85 -8.5 -8.15 -8.4 -8.55 -7.5 -10.8 -6.9 -12.0 -6.9 -12.05 Q-4.25 -17.65 -2.5 -17.75 -1.5 -17.55 -0.2 -15.8 L1.85 -12.15 2.45 -10.8 3.45 -8.2 3.6 -7.6 4.25 -7.65 6.45 -7.55 8.3 -7.4 11.15 -6.95" fill="#0490a1" fill-rule="evenodd" stroke="none"/>
    <path d="M-2.45 -17.0 Q-0.5 -16.85 1.4 -12.3 2.35 -10.0 2.9 -7.75 L8.1 -7.4 Q13.3 -6.8 13.3 -5.35 13.3 -3.95 9.9 -0.45 L6.45 2.8 8.1 7.6 Q9.45 12.65 8.0 13.6 6.55 14.55 1.85 11.25 L-2.55 7.75 -7.15 11.2 Q-12.0 14.35 -13.1 12.85 -14.15 11.3 -13.2 6.85 L-12.05 2.7 -15.15 -0.85 Q-18.2 -4.65 -17.75 -5.9 -17.3 -7.2 -12.7 -7.5 L-8.2 -7.55 Q-7.55 -9.95 -6.5 -12.35 -4.4 -17.15 -2.45 -17.0" fill="url(#gradient0)" fill-rule="evenodd" stroke="none"/>
    <path d="M2.1 -9.5 L1.4 -11.3 0.05 -14.55 Q-1.05 -16.6 -2.45 -16.8 -3.85 -16.8 -5.05 -14.7 L-6.5 -11.45 -7.95 -7.5 -8.2 -7.35 -12.3 -7.3 -15.25 -7.05 Q-17.5 -6.65 -17.55 -5.7 -17.55 -3.7 -14.5 -0.5 L-13.2 1.05 -11.9 2.55 -11.8 2.75 Q-12.7 5.15 -13.25 8.3 -12.8 11.7 -11.75 11.65 -10.15 12.0 -6.9 9.65 -4.2 7.65 -2.55 5.7 -2.55 6.1 1.1 9.15 5.05 12.45 6.5 12.4 8.05 12.3 8.4 11.55 L8.5 11.2 8.45 10.35 7.65 6.35 7.0 4.6 6.25 2.85 Q6.15 2.7 6.35 2.6 8.5 0.95 10.7 -1.5 14.0 -5.05 12.7 -5.9 11.55 -6.7 9.85 -7.0 L6.75 -7.3 2.9 -7.5 2.65 -7.7 2.1 -9.5 M13.3 -6.05 Q13.85 -5.45 13.3 -4.35 L12.2 -2.85 10.25 -0.45 8.1 1.8 6.75 2.85 6.95 3.5 7.9 5.95 8.65 8.4 9.0 10.95 Q9.1 12.55 8.5 13.4 7.7 14.7 5.1 13.45 2.9 12.45 -0.35 9.85 L-2.55 8.05 -6.35 10.95 Q-9.75 13.25 -11.6 13.5 -14.1 13.9 -13.95 10.45 L-13.1 5.6 -12.4 3.0 -12.25 2.75 -12.55 2.55 -14.2 0.55 -15.7 -1.65 -17.25 -3.55 Q-18.15 -4.85 -18.0 -5.8 -17.9 -6.65 -16.55 -7.1 L-14.55 -7.5 -9.4 -7.85 -8.45 -7.8 -8.4 -7.8 -8.0 -9.1 Q-7.25 -11.6 -5.7 -14.35 L-4.4 -16.25 Q-3.45 -17.3 -2.45 -17.25 L-2.35 -17.25 Q-0.9 -16.95 0.35 -14.8 2.05 -11.85 2.7 -9.35 L3.05 -8.0 3.15 -8.0 3.95 -7.95 8.75 -7.5 11.15 -7.1 Q12.6 -6.75 13.3 -6.05" fill="#1c9fb7" fill-rule="evenodd" stroke="none"/>
    <path d="M11.0 -0.95 L8.25 2.0 7.05 2.95 7.85 5.1 8.9 8.4 8.95 8.65 Q9.65 12.15 8.75 13.55 8.25 14.3 7.2 14.3 6.35 14.3 5.0 13.7 2.5 12.5 -0.5 10.05 L-2.45 8.45 -2.55 8.4 -6.2 11.15 -6.35 11.25 -8.8 12.8 Q-10.3 13.6 -11.55 13.8 -12.95 13.95 -13.6 13.1 -14.85 11.55 -13.45 5.95 L-12.65 2.9 -12.6 2.85 -12.75 2.75 -14.6 0.35 -15.85 -1.45 -16.2 -1.85 Q-18.45 -4.35 -18.25 -5.85 -18.05 -7.3 -14.75 -7.75 L-14.6 -7.75 -9.4 -8.1 -8.6 -8.05 -8.25 -9.15 Q-7.45 -11.75 -5.9 -14.5 -4.25 -17.5 -2.5 -17.5 L-2.25 -17.5 Q-0.7 -17.15 0.6 -14.95 2.3 -11.85 2.95 -9.45 L3.25 -8.25 3.95 -8.2 8.75 -7.75 9.25 -7.7 11.55 -7.3 13.5 -6.2 Q14.55 -5.05 12.4 -2.75 L11.0 -0.95 M12.55 -5.7 Q10.95 -6.8 7.3 -7.0 L6.6 -7.05 2.9 -7.25 Q2.5 -7.25 2.4 -7.65 L1.55 -10.25 1.15 -11.25 1.05 -11.6 -0.25 -14.6 Q-1.3 -16.35 -2.45 -16.5 -4.35 -16.5 -6.15 -11.65 L-6.3 -11.35 -6.75 -10.15 -7.75 -7.45 Q-7.85 -7.05 -8.2 -7.05 L-12.25 -7.05 -12.6 -7.0 Q-17.3 -6.85 -17.3 -5.7 -17.3 -3.85 -14.35 -0.7 L-13.2 0.7 -11.7 2.35 -11.6 2.5 -11.25 2.5 -11.55 2.7 -11.6 2.85 -11.6 2.95 Q-12.5 5.45 -13.0 8.3 -12.55 11.4 -11.8 11.4 L-11.7 11.4 -11.35 11.45 Q-9.8 11.45 -6.8 9.25 -4.3 7.4 -2.7 5.55 L-2.25 5.05 -2.25 5.65 1.5 9.15 Q5.1 12.15 6.45 12.15 7.6 12.1 8.1 11.6 L8.25 11.25 8.2 10.4 7.4 6.4 6.65 4.45 6.0 2.95 Q5.8 2.6 6.2 2.4 7.9 1.05 10.05 -1.15 12.85 -4.1 12.8 -5.25 L12.55 -5.7 M-11.6 13.25 Q-9.8 13.0 -6.65 10.8 L-6.5 10.75 -2.7 7.85 -2.55 7.7 -2.25 7.95 -2.0 7.55 Q-1.3 7.75 0.35 9.5 L0.0 9.85 Q3.05 12.25 5.25 13.25 L6.2 13.6 6.25 13.25 7.65 13.25 7.8 13.7 8.3 13.3 Q9.05 12.15 8.65 9.9 L8.75 11.0 8.75 11.05 8.6 11.75 Q8.1 12.6 6.55 12.65 L6.45 12.65 Q4.85 12.65 0.9 9.3 L-2.55 6.1 Q-4.25 8.0 -6.6 9.75 -9.6 11.95 -11.35 11.95 L-11.8 11.9 Q-12.95 11.9 -13.5 8.5 -14.0 11.8 -13.2 12.8 -12.7 13.45 -11.6 13.25" fill="#1c9fb7" fill-rule="evenodd" stroke="none"/>
    <path d="M-2.4 -15.1 Q-0.7 -14.95 0.95 -10.95 1.8 -8.95 2.25 -7.0 L6.8 -6.7 Q11.35 -6.15 11.35 -4.9 11.35 -3.6 8.4 -0.55 L5.4 2.3 6.85 6.5 Q8.05 10.85 6.8 11.7 5.5 12.6 1.4 9.65 L-2.5 6.55 -6.6 9.6 Q-10.85 12.4 -11.8 11.05 -12.75 9.7 -11.9 5.8 L-10.9 2.2 -13.55 -0.9 Q-16.15 -4.25 -15.8 -5.4 -15.4 -6.5 -11.4 -6.8 L-7.5 -6.85 -6.0 -11.05 Q-4.1 -15.2 -2.4 -15.1" fill="url(#gradient1)" fill-rule="evenodd" stroke="none"/>
    <path d="M1.1 -7.6 Q1.4 -6.45 0.95 -6.25 0.45 -6.1 -2.85 -11.65 -5.45 -4.45 -5.8 -4.0 L-9.15 -3.75 -12.65 -3.65 Q-12.85 -3.5 -11.7 -1.15 -10.55 1.05 -11.2 0.95 -12.0 0.8 -14.1 -2.05 -16.15 -4.95 -15.8 -5.4 L-11.1 -6.15 -6.75 -6.45 -5.1 -10.85 Q-3.25 -15.2 -2.4 -15.1 -1.0 -14.95 1.1 -7.6" fill="#ffffff" fill-opacity="0.4" fill-rule="evenodd" stroke="none"/>
    <path d="M19.85 3.8 Q20.95 4.1 21.5 4.7 22.6 5.85 20.4 8.55 L17.85 11.1 Q20.4 17.0 17.7 17.8 16.1 18.25 13.5 16.45 L11.1 14.55 8.7 16.25 6.85 17.25 4.85 17.6 Q3.85 17.35 3.55 16.2 3.25 15.3 3.45 14.2 3.65 12.7 4.4 11.05 L2.35 8.65 Q0.5 6.0 1.1 4.7 1.45 4.0 2.65 3.7 L4.5 3.5 7.0 3.1 Q7.1 2.7 7.95 0.85 9.8 -3.05 11.15 -3.0 12.05 -2.9 13.1 -1.45 L14.3 0.8 14.9 2.05 15.35 3.35 18.0 3.5 19.85 3.8" fill="#0490a1" fill-rule="evenodd" stroke="none"/>
    <path d="M11.1 -2.45 Q10.15 -2.45 8.5 1.1 L8.1 1.85 7.55 3.25 7.45 3.6 7.1 3.65 6.65 3.8 4.5 4.05 4.3 4.05 2.65 4.3 1.65 4.9 Q1.1 6.1 2.85 8.35 L4.8 10.65 5.1 10.9 4.95 11.3 Q4.25 12.65 4.0 14.3 3.7 16.75 5.0 17.0 L5.3 17.05 Q6.25 17.05 8.2 15.9 L8.4 15.75 10.75 14.1 11.15 13.8 11.5 14.15 13.85 16.0 Q15.75 17.35 16.95 17.35 L17.55 17.25 Q18.1 17.1 18.3 16.6 19.0 15.2 17.3 11.35 L17.15 10.95 17.45 10.65 19.95 8.2 21.05 6.4 Q21.4 5.45 21.1 5.1 20.25 4.15 17.95 4.05 L16.8 3.95 15.4 3.9 14.95 3.95 14.8 3.5 14.2 1.9 13.8 1.0 12.5 -1.3 Q11.7 -2.4 11.1 -2.45 M11.25 -3.6 Q13.2 -3.35 14.85 0.6 L15.8 2.75 18.0 2.9 Q20.75 3.05 21.95 4.3 23.2 5.7 20.85 8.9 L18.5 11.3 Q20.15 15.25 19.35 17.1 18.85 18.05 17.85 18.35 L16.95 18.45 Q15.35 18.45 13.2 16.95 L11.1 15.3 8.95 16.75 8.75 16.85 Q6.55 18.2 5.3 18.2 L4.7 18.15 Q3.55 17.85 3.1 16.65 2.65 15.5 2.9 14.1 3.05 12.7 3.75 11.15 L1.9 9.0 0.7 7.0 Q0.1 5.5 0.6 4.45 1.0 3.55 2.5 3.15 L4.3 2.9 4.55 2.9 6.35 2.7 6.55 2.65 Q6.65 2.25 7.1 1.35 L7.45 0.65 Q9.35 -3.6 11.15 -3.6 L11.25 -3.6" fill="#0490a1" fill-rule="evenodd" stroke="none"/>
    <path d="M17.85 3.95 Q21.15 4.35 21.15 5.25 21.15 6.7 16.8 10.4 L17.85 13.45 Q18.7 16.6 17.8 17.2 16.9 17.85 13.95 15.75 L11.15 13.5 8.2 15.7 Q5.15 17.65 4.5 16.7 3.8 15.75 4.4 12.95 L5.15 10.35 3.2 8.1 Q1.25 5.7 1.55 4.9 1.85 4.1 4.7 3.9 L7.55 3.85 8.65 0.8 Q10.0 -2.2 11.2 -2.1 12.4 -2.0 13.6 0.9 L14.55 3.75 17.85 3.95" fill="url(#gradient2)" fill-rule="evenodd" stroke="none"/>
    <path d="M14.55 3.9 L14.4 3.8 13.6 1.5 Q12.5 -1.75 11.2 -1.95 9.95 -1.95 8.6 1.45 L7.7 3.9 7.55 4.0 5.0 4.05 Q1.7 4.05 1.65 5.05 1.65 6.35 3.6 8.3 L4.4 9.25 5.25 10.2 5.3 10.35 4.4 13.85 Q4.7 16.0 5.3 15.95 6.3 16.2 8.4 14.7 L11.15 12.25 13.45 14.4 Q15.95 16.5 16.85 16.45 17.8 16.4 18.05 15.9 L18.1 15.7 18.05 15.15 17.55 12.65 17.15 11.5 16.65 10.45 16.7 10.25 19.5 7.7 Q21.55 5.45 20.75 4.9 20.05 4.4 18.95 4.25 L17.0 4.05 14.55 3.9 M11.2 -2.25 L11.25 -2.25 Q12.2 -2.05 12.95 -0.7 13.9 1.0 14.45 2.75 L14.65 3.6 15.2 3.6 18.25 3.9 Q20.5 4.15 21.1 4.8 21.65 5.4 20.4 6.85 L17.85 9.75 17.0 10.45 17.1 10.85 17.7 12.35 18.15 13.95 Q18.65 16.25 18.1 17.1 17.6 17.9 15.95 17.1 14.7 16.55 12.5 14.85 L11.3 13.85 11.15 13.7 8.7 15.55 Q6.65 16.95 5.45 17.15 3.05 17.55 4.5 12.15 L4.9 10.5 5.0 10.35 4.8 10.25 3.8 8.95 2.85 7.6 1.85 6.4 Q1.3 5.55 1.4 4.95 1.5 4.25 3.55 3.9 L6.8 3.7 7.45 3.7 7.65 2.9 Q8.2 1.25 9.15 -0.4 10.15 -2.25 11.2 -2.25" fill="#1c9fb7" fill-rule="evenodd" stroke="none"/>
    <path d="M11.3 -2.4 Q12.3 -2.2 13.1 -0.8 14.15 1.15 14.6 2.7 L14.8 3.45 15.2 3.45 18.25 3.75 18.55 3.75 Q20.65 4.1 21.25 4.7 21.85 5.4 20.55 6.9 L19.65 8.0 17.95 9.9 17.15 10.5 17.25 10.8 17.7 11.85 18.35 13.9 18.35 14.1 Q18.85 16.25 18.25 17.15 17.95 17.65 17.3 17.65 L15.9 17.25 12.4 15.0 11.15 13.95 11.15 13.9 8.8 15.65 8.75 15.7 Q6.7 17.15 5.45 17.3 4.6 17.45 4.15 16.9 3.35 15.85 4.25 12.4 L4.35 12.1 4.75 10.45 4.8 10.4 4.7 10.35 Q4.05 9.75 3.55 8.85 L2.5 7.45 Q1.1 5.95 1.2 4.95 1.35 4.05 3.45 3.75 L3.55 3.75 6.8 3.55 7.3 3.55 7.5 2.85 Q8.1 1.1 9.0 -0.5 10.1 -2.4 11.15 -2.4 L11.3 -2.4 M13.4 1.3 L12.55 -0.55 Q11.9 -1.7 11.15 -1.8 10.1 -1.8 8.85 1.3 L8.75 1.5 7.85 3.95 7.55 4.15 4.8 4.2 Q1.85 4.35 1.85 5.05 1.8 6.1 3.7 8.2 L4.4 9.05 5.35 10.1 5.4 10.2 5.65 10.2 5.45 10.3 5.45 10.4 5.4 10.5 4.55 13.85 Q4.8 15.8 5.3 15.8 L5.35 15.8 5.55 15.85 Q6.55 15.85 8.45 14.45 10.05 13.3 11.0 12.15 L11.3 11.8 11.3 12.2 13.7 14.4 Q15.95 16.3 16.8 16.3 L17.85 15.95 17.95 15.7 17.95 15.6 17.9 15.15 17.4 12.65 16.9 11.4 16.5 10.5 Q16.4 10.25 16.65 10.15 L19.05 7.9 Q20.85 6.05 20.8 5.3 L20.65 5.05 Q19.65 4.4 17.3 4.2 L16.9 4.2 14.55 4.05 14.25 3.8 13.45 1.55 13.4 1.3 M11.15 13.5 L11.3 13.65 11.45 13.4 12.95 14.6 12.75 14.8 Q14.65 16.35 16.0 17.0 L16.6 17.2 16.65 17.0 17.55 17.0 17.65 17.25 17.95 17.0 Q18.4 16.35 18.2 14.85 L18.2 15.15 18.25 15.6 18.15 16.05 Q17.8 16.55 16.85 16.6 L16.8 16.6 Q15.8 16.6 13.3 14.5 11.75 13.3 11.15 12.45 L8.55 14.75 Q6.65 16.15 5.55 16.15 L5.3 16.15 Q4.55 16.15 4.25 14.0 3.85 15.95 4.4 16.7 4.7 17.1 5.4 17.0 6.6 16.8 8.55 15.45 L8.65 15.4 11.05 13.6 11.15 13.5" fill="#1c9fb7" fill-rule="evenodd" stroke="none"/>
    <path d="M13.35 1.7 L14.15 4.2 17.05 4.4 Q19.9 4.75 19.9 5.55 19.9 6.8 16.15 10.1 L17.05 12.75 Q17.8 15.45 17.0 16.0 16.2 16.55 13.6 14.7 L11.15 12.75 8.6 14.7 Q5.9 16.45 5.3 15.6 4.7 14.75 5.2 12.3 L5.85 10.05 4.2 8.05 Q2.55 5.95 2.8 5.25 3.05 4.55 5.55 4.35 L8.0 4.3 8.95 1.65 Q10.15 -0.95 11.2 -0.9 12.3 -0.8 13.35 1.7" fill="url(#gradient3)" fill-rule="evenodd" stroke="none"/>
    <path d="M5.3 14.35 L6.3 14.25 8.8 12.55 7.85 14.0 6.25 15.0 5.5 15.25 Q5.15 15.2 5.05 14.75 4.9 14.1 5.35 13.45 L5.25 13.8 5.3 14.35" fill="#ffffff" fill-opacity="0.49803922" fill-rule="evenodd" stroke="none"/>
    <path d="M15.0 4.35 L18.2 4.85 Q19.7 5.25 19.65 6.0 19.6 6.6 18.4 7.65 L16.75 8.95 Q20.1 5.5 16.4 4.75 L15.0 4.5 15.0 4.35" fill="#ffffff" fill-opacity="0.49803922" fill-rule="evenodd" stroke="none"/>
    <path d="M-13.45 17.5 L-15.05 16.25 -16.7 17.35 -17.9 18.05 -19.3 18.25 Q-19.95 18.1 -20.15 17.35 L-20.2 16.0 Q-20.05 14.85 -19.55 13.85 L-20.95 12.25 Q-22.25 10.55 -21.8 9.6 -21.55 9.15 -20.75 8.9 L-19.5 8.8 -17.85 8.55 -17.2 7.0 Q-15.9 4.4 -15.0 4.4 -14.0 4.55 -12.9 6.95 L-12.2 8.7 -11.3 8.7 -10.45 8.8 Q-8.75 8.8 -8.1 9.6 -7.35 10.35 -8.85 12.2 L-10.55 13.9 Q-8.9 17.9 -10.65 18.4 -11.75 18.75 -13.45 17.5" fill="#0490a1" fill-rule="evenodd" stroke="none"/>
    <path d="M-14.95 3.85 Q-13.6 4.0 -12.4 6.75 L-11.8 8.1 -10.45 8.2 Q-8.6 8.2 -7.65 9.2 -6.65 10.25 -8.4 12.55 L-9.85 14.1 Q-8.8 16.7 -9.35 18.0 -9.7 18.75 -10.45 18.95 L-11.15 19.05 Q-12.2 19.05 -13.8 18.0 L-15.1 16.95 -16.4 17.85 -16.55 17.95 Q-18.2 18.85 -18.95 18.85 L-19.4 18.8 Q-20.25 18.65 -20.6 17.75 -20.9 16.95 -20.8 15.9 L-20.25 14.0 -21.4 12.6 Q-22.9 10.65 -22.3 9.35 -21.8 8.2 -19.65 8.2 L-19.35 8.2 -18.3 8.05 -17.7 6.8 Q-16.3 3.85 -15.05 3.85 L-14.95 3.85 M-15.55 5.35 L-16.65 7.25 -17.3 8.7 -17.4 9.0 -18.05 9.15 -19.5 9.35 -19.65 9.35 Q-21.05 9.35 -21.25 9.8 -21.55 10.4 -20.5 11.95 L-18.85 13.75 -19.05 14.1 -19.65 16.05 Q-19.85 17.55 -19.15 17.7 -18.65 17.85 -17.15 16.95 L-17.0 16.85 -15.4 15.75 -15.05 15.5 -14.65 15.8 -13.15 17.05 Q-11.85 17.9 -11.15 17.9 L-10.8 17.85 Q-10.55 17.8 -10.4 17.55 -10.0 16.6 -11.05 14.15 L-11.25 13.75 -10.9 13.45 -9.3 11.85 Q-8.75 11.2 -8.55 10.65 -8.35 10.1 -8.5 10.0 -9.05 9.35 -10.45 9.35 L-11.25 9.3 -12.15 9.25 -12.65 9.3 -12.75 8.85 -13.15 7.8 -13.45 7.2 Q-14.35 5.1 -15.1 5.0 L-15.55 5.35" fill="#0490a1" fill-rule="evenodd" stroke="none"/>
    <path d="M-16.75 7.0 Q-15.85 5.0 -15.0 5.05 -13.7 5.15 -12.75 8.95 -8.35 9.0 -8.35 9.95 -8.35 10.95 -11.25 13.4 -9.6 17.35 -10.6 18.0 -11.2 18.4 -13.2 17.0 L-15.05 15.5 Q-18.8 18.7 -19.5 17.65 -19.95 17.05 -19.6 15.15 L-19.1 13.4 -20.4 11.9 Q-21.7 10.3 -21.5 9.75 -21.3 9.2 -19.35 9.1 L-17.45 9.05 -16.75 7.0" fill="url(#gradient4)" fill-rule="evenodd" stroke="none"/>
    <path d="M-11.1 9.15 L-12.75 9.05 -12.85 9.0 Q-13.05 8.25 -13.4 7.45 -14.2 5.25 -15.0 5.15 -15.85 5.1 -16.75 7.4 L-17.35 9.05 -17.45 9.15 -19.2 9.15 Q-21.4 9.15 -21.4 9.85 -21.4 10.75 -20.15 12.0 L-19.0 13.3 -19.0 13.4 -19.6 15.75 Q-19.3 17.2 -18.95 17.15 -18.3 17.3 -16.9 16.3 L-15.05 14.65 -13.5 16.15 Q-11.85 17.55 -11.2 17.5 -10.55 17.45 -10.4 17.15 L-10.35 17.0 -10.4 16.65 -10.75 14.95 -11.35 13.45 -11.3 13.35 -9.45 11.6 Q-8.05 10.1 -8.6 9.75 -9.35 9.25 -11.1 9.15 M-15.0 4.95 L-14.95 4.95 Q-14.3 5.1 -13.8 5.95 -13.05 7.5 -12.85 8.25 L-12.7 8.85 -12.3 8.85 -10.3 9.05 Q-8.7 9.3 -8.35 9.7 -8.0 10.05 -8.8 11.05 L-10.55 13.0 -11.1 13.45 -11.05 13.7 -10.3 15.8 Q-10.05 17.45 -10.35 17.95 -10.75 18.45 -11.8 17.95 -12.9 17.45 -14.1 16.4 L-14.95 15.75 -15.05 15.65 -16.65 16.9 -18.9 17.95 Q-20.45 18.2 -19.5 14.6 L-19.25 13.5 -19.2 13.4 -19.3 13.35 -20.0 12.45 -20.6 11.55 Q-21.7 10.35 -21.6 9.8 -21.55 9.25 -20.15 9.05 L-17.95 8.9 -17.55 8.95 -17.35 8.4 -16.4 6.15 Q-15.65 4.9 -15.0 4.95" fill="#1c9fb7" fill-rule="evenodd" stroke="none"/>
    <path d="M-14.95 4.85 Q-14.2 4.95 -13.75 5.9 -13.1 7.0 -12.7 8.25 L-12.6 8.75 -12.3 8.75 -10.25 8.95 -10.05 8.95 Q-8.65 9.2 -8.25 9.6 -7.85 10.05 -8.7 11.1 L-9.3 11.85 -10.45 13.1 -11.0 13.5 -10.9 13.7 -10.65 14.4 -10.2 15.8 -10.2 15.9 Q-9.85 17.35 -10.25 18.0 -10.45 18.3 -10.9 18.3 L-11.85 18.05 -14.2 16.5 -15.0 15.8 -15.05 15.8 -16.6 16.95 -16.65 17.0 Q-18.0 17.95 -18.85 18.1 -19.45 18.2 -19.75 17.8 -20.25 17.15 -19.65 14.75 L-19.65 14.6 -19.35 13.45 -19.3 13.45 -19.35 13.4 -20.15 12.4 -20.7 11.6 -20.85 11.45 Q-21.8 10.4 -21.7 9.75 -21.65 9.1 -20.2 8.95 L-20.15 8.95 -17.6 8.8 -17.5 8.35 -16.5 6.1 Q-15.7 4.8 -15.05 4.8 L-15.0 4.8 -14.95 4.85 M-13.55 7.3 Q-14.3 5.35 -15.0 5.25 -15.8 5.25 -16.6 7.3 L-16.85 7.95 -17.25 9.1 Q-17.3 9.25 -17.45 9.25 L-19.15 9.25 -19.3 9.25 Q-21.3 9.35 -21.3 9.85 -21.3 10.7 -20.05 11.95 L-18.95 13.25 -18.9 13.3 -18.75 13.3 -18.9 13.35 -18.9 13.5 -19.5 15.75 Q-19.3 17.05 -19.0 17.05 L-18.95 17.05 -18.8 17.1 Q-18.1 17.1 -16.85 16.15 L-15.15 14.6 -14.95 14.35 -14.95 14.65 -13.3 16.15 Q-11.8 17.4 -11.25 17.4 L-10.55 17.15 -10.5 17.0 -10.5 16.65 Q-10.6 15.8 -10.85 14.95 L-11.15 14.1 -11.45 13.5 -11.35 13.25 -9.7 11.75 Q-8.55 10.5 -8.55 10.0 L-8.65 9.8 Q-9.4 9.35 -10.9 9.25 L-11.15 9.25 -12.75 9.15 -12.95 9.0 -13.3 7.9 -13.5 7.5 -13.55 7.3 M-19.0 17.3 Q-19.45 17.3 -19.7 15.85 -19.9 17.25 -19.55 17.65 -19.4 17.95 -18.9 17.85 -18.05 17.75 -16.8 16.8 L-16.75 16.8 -15.1 15.55 -15.05 15.5 -14.95 15.6 -14.85 15.45 Q-14.4 15.6 -13.85 16.25 L-13.95 16.4 -11.75 17.85 -11.35 18.0 -11.35 17.85 -10.75 17.85 -10.65 18.05 -10.45 17.85 -10.25 17.05 -10.35 17.2 Q-10.45 17.55 -11.2 17.6 L-11.25 17.6 Q-12.0 17.6 -13.6 16.2 L-15.05 14.8 -16.75 16.35 Q-18.05 17.3 -18.8 17.3 L-19.0 17.3" fill="#1c9fb7" fill-rule="evenodd" stroke="none"/>
    <path d="M-15.0 5.85 Q-13.85 5.95 -13.0 9.3 -9.15 9.3 -9.15 10.15 -9.15 11.0 -11.7 13.2 -10.25 16.6 -11.1 17.2 -11.65 17.6 -13.4 16.35 L-15.05 15.0 Q-18.35 17.8 -19.0 16.9 -19.35 16.35 -19.0 14.7 L-18.6 13.2 -19.75 11.85 Q-20.85 10.4 -20.65 9.95 -20.5 9.5 -18.8 9.35 L-17.15 9.35 -16.5 7.55 Q-15.7 5.8 -15.0 5.85" fill="url(#gradient5)" fill-rule="evenodd" stroke="none"/>
    <path d="M-18.9 15.4 Q-19.15 15.9 -19.0 16.1 L-18.3 16.05 Q-17.45 15.65 -16.6 14.85 -16.95 15.55 -17.25 15.85 L-18.35 16.55 -18.85 16.7 -19.1 16.35 Q-19.25 15.9 -18.85 15.3 L-18.9 15.4" fill="#ffffff" fill-opacity="0.49803922" fill-rule="evenodd" stroke="none"/>
    <path d="M-12.45 9.35 Q-11.5 9.35 -10.3 9.7 -9.3 9.95 -9.35 10.45 -9.35 10.85 -10.2 11.55 L-10.7 12.05 -11.3 12.45 Q-9.0 10.15 -11.5 9.65 L-12.45 9.45 -12.45 9.35" fill="#ffffff" fill-opacity="0.49803922" fill-rule="evenodd" stroke="none"/>
  </g>
  <defs>
    <linearGradient gradientTransform="matrix(-0.006, 0.0184, 0.0184, 0.006, -5.2, 5.4)" gradientUnits="userSpaceOnUse" id="gradient0" spreadMethod="pad" x1="-819.2" x2="819.2">
      <stop offset="0.0" stop-color="#afdef2"/>
      <stop offset="0.1411764705882353" stop-color="#9ed5e7"/>
      <stop offset="0.34901960784313724" stop-color="#79c4d4"/>
      <stop offset="1.0" stop-color="#49adc3"/>
    </linearGradient>
    <linearGradient gradientTransform="matrix(-0.004, 0.0125, 0.0125, 0.004, -3.85, 1.55)" gradientUnits="userSpaceOnUse" id="gradient1" spreadMethod="pad" x1="-819.2" x2="819.2">
      <stop offset="0.0" stop-color="#afdef2"/>
      <stop offset="0.1411764705882353" stop-color="#9ed5e7"/>
      <stop offset="0.34901960784313724" stop-color="#79c4d4"/>
      <stop offset="1.0" stop-color="#49adc3"/>
    </linearGradient>
    <linearGradient gradientTransform="matrix(-0.0038, 0.0116, 0.0116, 0.0038, 9.45, 12.05)" gradientUnits="userSpaceOnUse" id="gradient2" spreadMethod="pad" x1="-819.2" x2="819.2">
      <stop offset="0.0" stop-color="#afdef2"/>
      <stop offset="0.1411764705882353" stop-color="#9ed5e7"/>
      <stop offset="0.34901960784313724" stop-color="#79c4d4"/>
      <stop offset="1.0" stop-color="#49adc3"/>
    </linearGradient>
    <linearGradient gradientTransform="matrix(-0.0044, 0.0134, 0.0134, 0.0044, 8.8, 14.2)" gradientUnits="userSpaceOnUse" id="gradient3" spreadMethod="pad" x1="-819.2" x2="819.2">
      <stop offset="0.0" stop-color="#afdef2"/>
      <stop offset="0.1411764705882353" stop-color="#9ed5e7"/>
      <stop offset="0.34901960784313724" stop-color="#79c4d4"/>
      <stop offset="1.0" stop-color="#49adc3"/>
    </linearGradient>
    <linearGradient gradientTransform="matrix(-0.0025, 0.0078, 0.0078, 0.0025, -16.2, 14.55)" gradientUnits="userSpaceOnUse" id="gradient4" spreadMethod="pad" x1="-819.2" x2="819.2">
      <stop offset="0.0" stop-color="#afdef2"/>
      <stop offset="0.1411764705882353" stop-color="#9ed5e7"/>
      <stop offset="0.34901960784313724" stop-color="#79c4d4"/>
      <stop offset="1.0" stop-color="#49adc3"/>
    </linearGradient>
    <linearGradient gradientTransform="matrix(-0.0029, 0.009, 0.009, 0.0029, -16.6, 16.0)" gradientUnits="userSpaceOnUse" id="gradient5" spreadMethod="pad" x1="-819.2" x2="819.2">
      <stop offset="0.0" stop-color="#afdef2"/>
      <stop offset="0.1411764705882353" stop-color="#9ed5e7"/>
      <stop offset="0.34901960784313724" stop-color="#79c4d4"/>
      <stop offset="1.0" stop-color="#49adc3"/>
    </linearGradient>
  </defs>
</svg>
