<?xml version="1.0" encoding="UTF-8" standalone="no"?>
<svg xmlns:xlink="http://www.w3.org/1999/xlink" height="11.4px" width="12.0px" xmlns="http://www.w3.org/2000/svg">
  <g transform="matrix(1.0, 0.0, 0.0, 1.0, 6.0, 5.7)">
    <path d="M4.7 -4.4 L-0.35 -4.8 Q-3.45 -4.95 -4.85 -4.2 -5.15 -3.0 -5.05 -0.95 L-4.85 2.3 -4.95 3.5 Q-5.0 4.15 -4.65 4.5 -1.55 4.9 4.8 4.4 5.1 3.85 5.05 3.0 L4.9 1.4 5.05 -1.6 Q5.15 -3.4 4.7 -4.4 M5.95 -4.2 L6.0 1.0 Q6.0 4.1 5.25 5.45 L0.65 5.7 -4.65 5.55 Q-5.75 5.15 -5.95 3.6 L-6.0 0.15 -5.95 -3.05 Q-5.8 -4.6 -5.15 -5.3 L-2.85 -5.65 0.45 -5.65 4.0 -5.55 Q5.6 -5.3 5.95 -4.2" fill="#110e57" fill-rule="evenodd" stroke="none"/>
    <path d="M4.7 -4.4 Q5.15 -3.4 5.05 -1.6 L4.9 1.4 5.05 3.0 Q5.1 3.85 4.8 4.4 -1.55 4.9 -4.65 4.5 -5.0 4.15 -4.95 3.5 L-4.85 2.3 -5.05 -0.95 Q-5.15 -3.0 -4.85 -4.2 L2.5 -4.6 3.2 -4.7 3.55 -4.5 4.7 -4.4" fill="#1b47e6" fill-rule="evenodd" stroke="none"/>
    <path d="M2.1 -1.15 L2.95 -0.3 3.8 0.55 1.5 1.4 0.85 2.6 -0.05 3.55 -0.75 2.7 -1.25 1.65 -2.55 1.55 -3.65 1.25 -3.0 0.3 -2.1 -0.5 Q-2.6 -2.4 -2.35 -3.35 -1.8 -3.35 -1.0 -2.85 -0.3 -2.3 0.15 -2.35 0.55 -2.35 1.25 -2.9 1.95 -3.45 2.55 -3.45 L2.4 -2.3 2.1 -1.15" fill="#ffffff" fill-rule="evenodd" stroke="none"/>
  </g>
</svg>
