<?xml version="1.0" encoding="UTF-8" standalone="no"?>
<svg xmlns:xlink="http://www.w3.org/1999/xlink" height="27.85px" width="69.05px" xmlns="http://www.w3.org/2000/svg">
  <g transform="matrix(1.0, 0.0, 0.0, 1.0, 0.6, -0.5)">
    <path d="M62.2 1.3 Q65.0 1.5 66.7 4.1 68.1 6.2 67.95 7.9 L67.95 21.8 Q67.95 24.2 66.15 26.05 64.4 27.9 62.2 27.9 L20.45 27.9 Q18.15 27.9 16.25 26.4 14.2 24.8 14.2 22.55 L14.2 7.05 Q14.2 4.9 16.25 3.1 18.25 1.3 20.45 1.3 L62.2 1.3" fill="#603814" fill-rule="evenodd" stroke="none"/>
    <path d="M64.15 20.45 L64.15 8.3 Q64.0 6.2 62.25 4.95 60.65 3.85 58.5 3.85 L19.0 3.85 Q17.0 3.85 15.6 4.9 14.2 5.95 14.2 7.45 L14.2 21.75 Q14.2 23.25 15.6 24.3 17.0 25.35 19.0 25.35 L58.5 25.35 Q60.7 25.35 62.4 24.15 64.3 22.75 64.15 20.45 M67.2 3.65 Q68.6 5.85 68.45 7.65 L68.45 21.95 Q68.45 24.6 66.65 26.5 64.95 28.35 62.7 28.35 L14.85 28.35 Q12.55 28.35 10.7 26.8 8.7 25.15 8.7 22.8 L8.7 6.8 Q8.7 4.55 10.7 2.65 12.65 0.8 14.85 0.8 L62.7 0.8 Q65.5 1.0 67.2 3.65" fill="url(#gradient0)" fill-rule="evenodd" stroke="none"/>
    <path d="M21.65 21.55 Q25.05 18.35 25.05 13.8 25.05 9.3 21.65 6.1 18.25 2.9 13.45 2.9 8.65 2.9 5.25 6.1 1.85 9.3 1.85 13.8 1.85 18.35 5.25 21.55 8.65 24.75 13.45 24.75 18.25 24.75 21.65 21.55 M27.5 13.8 Q27.5 19.3 23.4 23.25 19.25 27.15 13.45 27.15 7.65 27.15 3.5 23.25 -0.6 19.3 -0.6 13.8 -0.6 8.3 3.5 4.4 7.65 0.5 13.45 0.5 19.25 0.5 23.4 4.4 27.5 8.3 27.5 13.8" fill="url(#gradient1)" fill-rule="evenodd" stroke="none"/>
    <path d="M26.85 13.65 Q26.85 18.8 22.95 22.45 19.1 26.1 13.65 26.1 8.2 26.1 4.3 22.45 0.45 18.8 0.45 13.65 0.45 8.5 4.3 4.85 8.2 1.2 13.65 1.2 19.1 1.2 22.95 4.85 26.85 8.5 26.85 13.65 M22.25 5.55 Q18.65 2.2 13.65 2.2 8.65 2.2 5.05 5.55 1.5 8.9 1.5 13.65 1.5 18.4 5.05 21.8 8.6 25.15 13.65 25.15 18.7 25.15 22.25 21.8 25.8 18.4 25.8 13.65 25.8 8.9 22.25 5.55" fill="url(#gradient2)" fill-rule="evenodd" stroke="none"/>
    <path d="M26.3 13.65 Q26.3 18.6 22.6 22.1 18.9 25.6 13.65 25.6 8.4 25.6 4.7 22.1 0.95 18.6 0.95 13.65 0.95 8.7 4.7 5.2 8.4 1.7 13.65 1.7 18.9 1.7 22.6 5.2 26.3 8.7 26.3 13.65" fill="url(#gradient3)" fill-rule="evenodd" stroke="none"/>
    <path d="M24.6 13.8 Q24.6 18.1 21.4 21.15 18.2 24.15 13.65 24.15 9.1 24.15 5.9 21.15 2.65 18.1 2.65 13.8 2.65 9.55 5.9 6.5 9.1 3.45 13.65 3.45 18.2 3.45 21.4 6.5 24.6 9.5 24.6 13.8" fill="#fff9c8" fill-opacity="0.4" fill-rule="evenodd" stroke="none"/>
    <path d="M26.6 13.85 Q26.6 18.9 22.8 22.45 19.0 26.05 13.65 26.05 8.3 26.05 4.5 22.45 0.7 18.9 0.7 13.85 0.7 8.8 4.5 5.2 8.3 1.6 13.65 1.6 19.0 1.6 22.8 5.2 26.6 8.8 26.6 13.85 M22.2 5.7 Q18.65 2.35 13.65 2.35 8.6 2.35 5.05 5.7 1.5 9.1 1.5 13.85 1.5 18.6 5.05 21.95 8.65 25.3 13.65 25.3 18.65 25.3 22.2 21.95 25.75 18.6 25.75 13.85 25.75 9.1 22.2 5.7" fill="url(#gradient4)" fill-rule="evenodd" stroke="none"/>
    <path d="M19.8 8.3 Q20.35 9.05 20.35 10.3 L20.3 10.95 20.1 11.8 20.9 12.05 Q21.8 12.45 22.0 13.5 L22.15 14.5 Q22.15 15.35 21.75 16.0 L20.95 16.95 20.1 17.4 19.65 17.6 19.0 17.9 Q18.8 17.95 18.5 18.15 18.25 18.35 18.0 18.35 L17.85 17.7 18.2 17.4 19.25 16.3 19.35 16.1 19.6 16.05 19.6 16.0 19.7 16.0 20.05 15.85 20.7 15.2 20.9 14.5 20.8 13.9 20.45 13.4 19.7 13.25 18.45 13.4 18.65 12.4 18.7 11.5 18.9 11.3 19.1 10.75 19.1 10.3 18.85 9.25 18.05 8.65 17.6 8.55 Q16.85 8.55 16.15 9.25 L15.45 10.2 15.2 10.6 12.95 10.05 10.5 10.75 10.3 10.15 10.3 10.1 10.25 9.95 9.95 9.4 Q9.45 8.7 8.75 8.7 L8.7 8.7 Q8.15 8.7 7.8 9.15 L7.55 9.95 7.55 10.0 7.75 10.45 8.1 10.75 7.9 11.25 7.85 11.9 7.95 12.55 8.05 12.8 7.8 13.85 7.25 13.7 7.2 13.7 7.1 13.65 6.75 13.65 6.0 13.8 5.55 14.4 5.5 14.5 5.7 14.9 6.2 15.5 7.4 16.3 7.45 16.35 7.65 16.45 7.75 16.65 7.75 16.7 7.9 16.85 8.5 17.5 8.9 17.8 8.7 18.55 8.45 18.45 8.2 18.3 7.85 18.2 7.25 17.85 6.8 17.65 6.15 17.2 Q5.2 16.45 4.8 15.95 4.3 15.15 4.3 14.5 L4.35 13.95 Q4.6 12.95 5.5 12.45 L6.6 12.15 6.65 11.2 Q6.3 10.7 6.3 10.05 L6.3 9.95 Q6.3 9.0 6.9 8.15 7.65 7.2 8.65 7.2 L8.75 7.2 Q10.05 7.2 10.9 8.45 L11.25 9.05 12.9 8.55 14.65 8.95 15.25 8.25 Q16.45 7.05 17.6 7.05 L18.4 7.2 Q19.3 7.55 19.8 8.3" fill="#c7961c" fill-rule="evenodd" stroke="none"/>
    <path d="M21.4 13.7 Q21.8 15.25 20.8 16.15 L19.75 16.75 Q19.25 17.75 18.15 18.65 16.0 20.55 12.95 20.35 10.1 20.2 8.35 18.6 L7.2 17.05 5.95 16.15 Q4.7 15.05 4.95 14.15 5.25 13.1 6.3 12.95 L7.35 12.95 7.65 12.6 7.0 10.75 Q6.7 8.8 8.3 8.25 9.55 7.8 10.35 9.05 L11.0 10.35 13.0 9.5 14.9 10.25 15.5 8.85 Q16.4 7.45 17.75 7.75 19.45 8.15 19.65 10.35 L19.45 12.45 19.2 12.55 20.15 12.55 Q21.2 12.75 21.4 13.7" fill="#fcce25" fill-rule="evenodd" stroke="none"/>
    <path d="M21.4 13.7 Q21.8 15.25 20.8 16.15 L19.75 16.75 Q19.25 17.75 18.15 18.65 16.0 20.55 12.95 20.35 10.1 20.2 8.35 18.6 L7.2 17.05 5.95 16.15 Q4.7 15.05 4.95 14.15 5.25 13.1 6.3 12.95 L7.35 12.95 7.65 12.6 7.0 10.75 Q6.7 8.8 8.3 8.25 9.55 7.8 10.35 9.05 L11.0 10.35 13.0 9.5 14.9 10.25 15.5 8.85 Q16.4 7.45 17.75 7.75 19.45 8.15 19.65 10.35 L19.45 12.45 19.2 12.55 20.15 12.55 Q21.2 12.75 21.4 13.7" fill="url(#gradient5)" fill-rule="evenodd" stroke="none"/>
    <path d="M20.15 16.75 Q19.65 17.8 18.55 18.85 16.35 20.95 13.35 20.95 L13.05 20.95 Q9.1 20.8 7.3 18.3 L6.3 15.8 6.3 15.65 5.75 15.8 5.5 14.75 7.7 14.25 7.35 15.8 Q7.45 16.95 8.35 18.0 9.85 19.75 13.05 19.9 15.5 20.0 17.35 18.55 L19.05 16.5 18.55 15.2 20.35 14.55 20.7 15.5 19.95 15.8 20.25 16.5 20.15 16.75" fill="#c7961c" fill-rule="evenodd" stroke="none"/>
    <path d="M7.3 10.65 Q7.3 9.7 7.75 9.05 8.25 8.4 8.9 8.4 9.55 8.4 10.05 9.05 10.5 9.7 10.5 10.65 10.5 11.6 10.05 12.25 9.55 12.9 8.9 12.9 8.25 12.9 7.75 12.25 7.3 11.6 7.3 10.65" fill="#fff9c8" fill-rule="evenodd" stroke="none"/>
    <path d="M8.45 9.9 L9.35 9.35 9.3 11.55 9.0 11.9 8.45 9.9" fill="#c7961c" fill-rule="evenodd" stroke="none"/>
    <path d="M8.85 12.5 L8.15 9.75 Q8.9 9.35 9.6 8.9 L9.55 11.65 8.85 12.5 M8.75 10.0 L9.05 11.15 9.05 9.85 8.75 10.0" fill="#c7961c" fill-rule="evenodd" stroke="none"/>
    <path d="M15.1 11.35 Q15.1 9.95 15.7 9.0 16.35 8.05 17.2 8.05 18.1 8.05 18.75 9.0 19.35 9.95 19.35 11.35 19.35 12.7 18.75 13.7 18.1 14.65 17.2 14.65 16.35 14.65 15.7 13.7 15.1 12.7 15.1 11.35" fill="#fff9c8" fill-rule="evenodd" stroke="none"/>
    <path d="M17.0 10.45 L18.15 10.3 17.5 12.3 16.95 12.3 17.0 10.45" fill="#c7961c" fill-rule="evenodd" stroke="none"/>
    <path d="M17.7 12.55 L16.7 12.55 16.75 10.25 18.55 10.0 17.7 12.55 M17.25 12.0 L17.3 12.0 17.8 10.65 17.25 10.7 17.25 12.0" fill="#c7961c" fill-rule="evenodd" stroke="none"/>
  </g>
  <defs>
    <radialGradient cx="0" cy="0" gradientTransform="matrix(0.0284, 0.0, 0.0, -0.0284, 38.55, 14.6)" gradientUnits="userSpaceOnUse" id="gradient0" r="819.2" spreadMethod="pad">
      <stop offset="0.0" stop-color="#803d2a"/>
      <stop offset="0.5411764705882353" stop-color="#4e0b0a"/>
      <stop offset="1.0" stop-color="#2f0605"/>
    </radialGradient>
    <linearGradient gradientTransform="matrix(0.0172, 0.0, 0.0, -0.0172, 13.45, 13.8)" gradientUnits="userSpaceOnUse" id="gradient1" spreadMethod="pad" x1="-819.2" x2="819.2">
      <stop offset="0.00784313725490196" stop-color="#905f1d"/>
      <stop offset="0.5411764705882353" stop-color="#d98d0c"/>
      <stop offset="0.596078431372549" stop-color="#dc950c"/>
      <stop offset="0.6862745098039216" stop-color="#e2ab0f"/>
      <stop offset="0.6941176470588235" stop-color="#e2ad0f"/>
      <stop offset="1.0" stop-color="#bf7f19"/>
    </linearGradient>
    <linearGradient gradientTransform="matrix(0.0161, 0.0, 0.0, -0.0161, 13.65, 13.65)" gradientUnits="userSpaceOnUse" id="gradient2" spreadMethod="pad" x1="-819.2" x2="819.2">
      <stop offset="0.0" stop-color="#c8971c"/>
      <stop offset="0.33725490196078434" stop-color="#d5a942"/>
      <stop offset="0.8588235294117647" stop-color="#feeb90"/>
      <stop offset="1.0" stop-color="#fff9c8"/>
    </linearGradient>
    <linearGradient gradientTransform="matrix(0.009, 0.004, 0.004, -0.009, 15.0, 14.25)" gradientUnits="userSpaceOnUse" id="gradient3" spreadMethod="pad" x1="-819.2" x2="819.2">
      <stop offset="0.043137254901960784" stop-color="#fcce25"/>
      <stop offset="0.4823529411764706" stop-color="#fff4b4"/>
      <stop offset="0.5411764705882353" stop-color="#fff9c8"/>
      <stop offset="0.5764705882352941" stop-color="#fff7c0"/>
      <stop offset="0.6392156862745098" stop-color="#fef1aa"/>
      <stop offset="0.6941176470588235" stop-color="#feeb90"/>
      <stop offset="1.0" stop-color="#fcce25"/>
    </linearGradient>
    <linearGradient gradientTransform="matrix(0.0158, 0.0, 0.0, -0.0158, 13.65, 13.85)" gradientUnits="userSpaceOnUse" id="gradient4" spreadMethod="pad" x1="-819.2" x2="819.2">
      <stop offset="0.0" stop-color="#c8971c"/>
      <stop offset="0.33725490196078434" stop-color="#d5a942"/>
      <stop offset="0.8588235294117647" stop-color="#feeb90"/>
      <stop offset="1.0" stop-color="#fff9c8"/>
    </linearGradient>
    <linearGradient gradientTransform="matrix(0.0101, 0.0, 0.0, -0.0101, 13.2, 14.05)" gradientUnits="userSpaceOnUse" id="gradient5" spreadMethod="pad" x1="-819.2" x2="819.2">
      <stop offset="0.043137254901960784" stop-color="#fcce25" stop-opacity="0.5294118"/>
      <stop offset="0.4823529411764706" stop-color="#fff4b4"/>
      <stop offset="0.5411764705882353" stop-color="#fff9c8" stop-opacity="0.5294118"/>
      <stop offset="0.5764705882352941" stop-color="#fff7c0"/>
      <stop offset="0.6392156862745098" stop-color="#fef1aa"/>
      <stop offset="0.6941176470588235" stop-color="#feeb90" stop-opacity="0.5294118"/>
      <stop offset="1.0" stop-color="#fcce25" stop-opacity="0.5294118"/>
    </linearGradient>
  </defs>
</svg>
