<?xml version="1.0" encoding="UTF-8" standalone="no"?>
<svg xmlns:xlink="http://www.w3.org/1999/xlink" height="30.1px" width="69.5px" xmlns="http://www.w3.org/2000/svg">
  <g transform="matrix(1.0, 0.0, 0.0, 1.0, -0.05, -0.1)">
    <path d="M63.35 1.2 Q66.1 1.4 67.8 4.0 69.2 6.1 69.05 7.8 L69.05 21.7 Q69.05 24.1 67.25 25.95 65.5 27.8 63.35 27.8 L21.55 27.8 Q19.25 27.8 17.35 26.3 15.3 24.7 15.3 22.45 L15.3 6.95 Q15.3 4.8 17.35 3.0 19.35 1.2 21.55 1.2 L63.35 1.2" fill="#603814" fill-rule="evenodd" stroke="none"/>
    <path d="M65.25 20.35 L65.25 8.2 Q65.1 6.1 63.35 4.85 61.75 3.75 59.6 3.75 L20.1 3.75 Q18.1 3.75 16.7 4.8 15.3 5.85 15.3 7.35 L15.3 21.65 Q15.3 23.15 16.7 24.2 18.1 25.25 20.1 25.25 L59.6 25.25 Q61.8 25.25 63.5 24.05 65.4 22.65 65.25 20.35 M68.3 3.55 Q69.7 5.75 69.55 7.55 L69.55 21.85 Q69.55 24.5 67.75 26.4 66.05 28.25 63.8 28.25 L15.95 28.25 Q13.65 28.25 11.8 26.7 9.8 25.05 9.8 22.7 L9.8 6.7 Q9.8 4.45 11.8 2.55 13.75 0.7 15.95 0.7 L63.8 0.7 Q66.6 0.9 68.3 3.55" fill="url(#gradient0)" fill-rule="evenodd" stroke="none"/>
    <path d="M29.9 17.65 L29.85 21.35 19.6 29.6 19.65 29.65 19.55 29.6 19.35 29.8 12.35 24.3 12.35 24.35 12.2 24.35 11.85 24.2 11.7 24.05 Q7.45 21.2 6.75 20.15 L6.6 19.8 1.9 16.1 1.3 15.65 1.2 15.55 0.6 14.65 1.4 14.5 1.4 14.0 1.35 13.75 1.0 13.55 1.05 12.35 0.65 12.1 0.65 12.05 0.55 12.0 0.75 10.35 0.4 10.1 0.3 10.0 0.4 6.4 0.5 6.45 0.5 6.4 10.8 0.4 15.7 5.8 16.45 5.35 22.0 8.95 Q22.5 9.35 22.5 9.7 L22.4 9.85 23.05 10.25 29.25 12.55 29.15 17.0 29.9 17.65" fill="#1f4f14" fill-rule="evenodd" stroke="none"/>
    <path d="M22.75 9.75 L23.2 10.05 29.55 12.35 29.4 16.9 30.15 17.55 30.1 21.45 19.9 29.7 19.95 30.2 19.6 29.95 19.35 30.15 12.3 24.6 12.2 24.65 11.7 24.4 11.55 24.25 Q7.15 21.3 6.55 20.3 L6.4 19.95 1.8 16.35 1.1 15.8 0.95 15.7 0.15 14.45 1.15 14.25 1.15 13.9 0.75 13.7 0.8 12.5 0.25 12.15 0.45 10.45 0.05 10.15 0.15 5.85 0.5 6.15 10.85 0.1 15.75 5.5 16.45 5.05 22.15 8.75 Q22.85 9.2 22.75 9.75 M21.85 9.15 L16.45 5.65 15.65 6.1 10.75 0.75 0.75 6.55 0.75 6.95 0.65 6.9 0.55 9.9 0.85 10.1 1.0 10.25 0.8 11.85 0.9 11.9 0.9 11.95 1.35 12.2 1.25 13.4 1.6 13.55 1.65 13.95 1.65 14.7 1.0 14.8 1.5 15.5 2.05 15.9 2.1 15.9 6.85 19.65 6.85 19.75 6.95 20.0 Q7.6 21.0 11.85 23.85 L12.05 24.05 12.2 24.1 12.35 24.05 12.5 24.1 19.35 29.5 19.45 29.4 29.6 21.2 29.65 17.75 28.85 17.15 29.0 12.7 22.95 10.5 22.0 9.95 22.2 9.7 22.25 9.65 21.85 9.15" fill="#1f4f14" fill-rule="evenodd" stroke="none"/>
    <path d="M29.0 12.7 L28.85 17.15 29.65 17.75 29.6 21.2 19.35 29.5 1.4 15.4 1.0 14.8 1.65 14.7 1.65 13.6 1.25 13.4 1.35 12.15 0.8 11.85 1.0 10.2 0.55 9.9 0.75 6.55 10.75 0.75 15.6 6.1 22.9 10.45 29.0 12.7" fill="url(#gradient1)" fill-rule="evenodd" stroke="none"/>
    <path d="M1.4 12.25 L0.9 11.95 1.1 10.3 0.65 9.95 0.65 6.9 18.6 20.4 19.35 29.15 2.05 15.9 1.5 15.5 1.35 15.1 1.8 14.8 1.4 12.25" fill="#639344" fill-rule="evenodd" stroke="none"/>
    <path d="M0.4 6.4 L18.85 20.25 19.65 29.65 11.5 23.45 1.95 16.15 1.3 15.6 1.0 15.0 1.5 14.65 1.15 12.4 0.65 12.1 0.85 10.4 0.4 10.1 0.4 6.4 M1.6 12.1 L2.05 14.9 1.65 15.2 1.75 15.35 2.15 15.65 11.8 23.05 19.05 28.6 18.35 20.55 0.9 7.4 0.9 9.85 1.4 10.2 1.2 11.8 1.6 12.1" fill="#1f4f14" fill-rule="evenodd" stroke="none"/>
    <path d="M29.6 18.0 L29.5 21.05 19.45 29.25 19.35 29.15 18.45 20.15 28.55 12.85 28.95 12.75 28.9 13.2 28.7 17.15 29.6 18.0" fill="#8ed15e" fill-rule="evenodd" stroke="none"/>
    <path d="M29.15 13.3 L28.95 17.05 29.85 17.9 29.75 21.15 19.45 29.55 19.1 29.3 19.1 29.15 18.15 20.0 28.15 12.85 28.45 12.65 28.85 12.5 29.05 12.55 Q29.4 12.7 29.15 13.3 M28.45 13.25 L18.7 20.25 19.55 28.8 29.25 20.9 29.3 18.15 28.4 17.25 28.65 13.15 28.45 13.25" fill="#639344" fill-rule="evenodd" stroke="none"/>
    <path d="M3.7 6.8 L10.1 3.4 15.7 8.5 25.1 13.05 18.1 18.15 11.05 12.8 Q3.9 7.35 3.7 6.8" fill="#33a446" fill-rule="evenodd" stroke="none"/>
    <path d="M15.85 8.25 L25.6 13.0 18.1 18.45 17.95 18.35 Q3.8 7.8 3.45 6.9 L3.4 6.7 10.15 3.1 15.85 8.25 M4.1 6.9 Q5.7 8.65 18.1 17.85 L24.6 13.05 15.5 8.65 10.05 3.75 4.1 6.9" fill="#1f4f14" fill-rule="evenodd" stroke="none"/>
    <path d="M10.05 4.65 L9.35 3.65 Q9.2 3.1 9.45 2.75 9.75 2.4 10.35 2.5 10.9 2.55 11.45 2.95 L12.15 3.95 Q12.3 4.5 12.05 4.85 11.75 5.2 11.15 5.15 L10.05 4.65" fill="#71c43e" fill-rule="evenodd" stroke="none"/>
    <path d="M11.35 5.4 Q10.6 5.4 9.9 4.85 9.25 4.35 9.1 3.65 8.9 3.0 9.25 2.6 9.6 2.15 10.3 2.2 11.0 2.25 11.6 2.75 12.25 3.25 12.4 3.95 12.6 4.6 12.25 5.05 11.9 5.4 11.35 5.4 M11.3 3.15 Q10.65 2.7 10.15 2.7 L9.65 2.9 Q9.45 3.15 9.65 3.6 L10.2 4.45 11.35 4.9 11.85 4.7 Q12.05 4.45 11.9 4.0 L11.3 3.15" fill="#639344" fill-rule="evenodd" stroke="none"/>
    <path d="M3.65 8.0 L2.95 7.0 Q2.8 6.45 3.1 6.1 3.35 5.75 3.95 5.85 4.5 5.9 5.05 6.3 5.6 6.75 5.75 7.3 5.95 7.85 5.65 8.2 5.35 8.55 4.8 8.5 4.2 8.45 3.65 8.0" fill="#71c43e" fill-rule="evenodd" stroke="none"/>
    <path d="M3.95 5.55 Q4.65 5.6 5.25 6.1 5.85 6.6 6.0 7.3 6.2 7.95 5.85 8.4 5.55 8.75 4.95 8.75 4.2 8.75 3.5 8.2 L2.7 7.0 Q2.55 6.35 2.9 5.95 3.25 5.5 3.95 5.55 M3.3 6.25 Q3.1 6.5 3.25 6.95 3.4 7.45 3.85 7.8 L4.95 8.25 5.45 8.05 Q5.7 7.8 5.5 7.35 L4.9 6.5 Q4.25 6.05 3.8 6.05 L3.3 6.25" fill="#639344" fill-rule="evenodd" stroke="none"/>
    <path d="M24.25 13.85 L23.45 12.9 Q23.25 12.3 23.55 11.9 23.8 11.55 24.45 11.55 L25.6 11.95 26.4 12.95 Q26.6 13.55 26.3 13.9 26.05 14.3 25.45 14.3 24.8 14.25 24.25 13.85" fill="#71c43e" fill-rule="evenodd" stroke="none"/>
    <path d="M25.75 11.75 L26.6 12.85 Q26.9 13.55 26.5 14.05 26.15 14.55 25.45 14.55 24.85 14.55 24.1 14.05 23.5 13.6 23.25 12.95 22.95 12.3 23.35 11.75 23.65 11.3 24.4 11.3 25.1 11.3 25.75 11.75 M24.35 11.8 Q23.9 11.8 23.75 12.05 23.55 12.35 23.7 12.8 L24.4 13.65 Q24.9 14.0 25.45 14.0 L26.1 13.75 Q26.35 13.5 26.15 13.05 L25.45 12.2 Q24.9 11.8 24.35 11.8" fill="#639344" fill-rule="evenodd" stroke="none"/>
    <path d="M17.1 18.65 Q16.5 18.25 16.3 17.65 16.1 17.1 16.35 16.7 16.65 16.3 17.25 16.35 L18.4 16.75 Q19.0 17.15 19.2 17.75 19.4 18.3 19.15 18.7 18.85 19.1 18.25 19.05 17.65 19.05 17.1 18.65" fill="#71c43e" fill-rule="evenodd" stroke="none"/>
    <path d="M17.2 18.4 Q17.75 18.8 18.3 18.8 L18.95 18.55 18.95 17.8 Q18.8 17.35 18.25 16.95 17.85 16.6 17.2 16.6 16.8 16.6 16.55 16.85 16.4 17.15 16.55 17.55 16.7 18.05 17.2 18.4 M16.15 16.55 Q16.5 16.1 17.2 16.1 17.9 16.1 18.55 16.55 19.2 17.0 19.45 17.65 19.65 18.3 19.35 18.85 19.0 19.3 18.3 19.3 17.55 19.3 16.95 18.85 L16.05 17.75 Q15.8 17.0 16.15 16.55" fill="#639344" fill-rule="evenodd" stroke="none"/>
    <path d="M12.15 17.85 L12.0 17.6 12.3 17.6 14.4 18.95 17.3 21.15 17.3 21.35 17.0 21.3 14.25 19.25 Q13.4 18.5 12.15 17.85" fill="#1f4f14" fill-rule="evenodd" stroke="none"/>
    <path d="M14.0 20.75 Q13.9 20.6 14.15 20.65 L14.45 20.8 15.15 22.45 Q15.3 22.75 15.85 22.85 L16.65 22.9 Q17.1 23.3 16.75 23.25 L15.75 23.1 Q15.15 22.95 14.85 22.6 L14.55 21.95 14.0 20.75" fill="#1f4f14" fill-rule="evenodd" stroke="none"/>
    <path d="M27.75 15.1 L28.1 15.4 Q25.0 16.8 23.65 17.95 L22.4 19.0 21.0 19.85 20.65 19.75 Q20.45 19.6 20.65 19.55 21.4 19.25 22.4 18.4 L24.1 17.05 Q25.25 16.3 27.75 15.1" fill="#1f4f14" fill-rule="evenodd" stroke="none"/>
    <path d="M23.55 19.5 L21.8 20.95 20.05 22.5 19.75 22.45 Q19.55 22.35 19.65 22.25 L21.35 20.65 23.15 19.2 Q24.55 18.3 27.65 16.8 L27.95 16.85 28.05 17.05 25.8 18.25 Q24.3 18.95 23.55 19.5" fill="#1f4f14" fill-rule="evenodd" stroke="none"/>
    <path d="M19.3 24.25 L18.95 24.2 Q18.75 24.05 18.85 23.95 22.55 20.4 28.15 17.8 28.7 18.0 28.45 18.1 22.9 20.7 19.3 24.25" fill="#1f4f14" fill-rule="evenodd" stroke="none"/>
    <path d="M19.35 26.75 Q18.8 26.65 18.95 26.45 21.45 23.5 25.95 21.45 L26.3 21.75 Q21.8 23.8 19.35 26.75" fill="#1f4f14" fill-rule="evenodd" stroke="none"/>
    <path d="M12.35 22.35 Q12.15 22.2 12.3 22.1 L12.6 22.15 14.3 23.55 16.1 24.7 16.3 24.95 16.0 24.95 14.1 23.75 12.35 22.35" fill="#1f4f14" fill-rule="evenodd" stroke="none"/>
    <path d="M1.45 13.8 L1.6 13.6 1.9 13.6 3.4 15.3 6.35 17.25 5.9 17.4 2.9 15.45 1.45 13.8" fill="#1f4f14" fill-rule="evenodd" stroke="none"/>
    <path d="M4.5 17.2 L4.25 17.0 4.45 16.9 Q5.1 17.15 6.25 17.9 L6.45 18.1 6.15 18.15 4.5 17.2" fill="#1f4f14" fill-rule="evenodd" stroke="none"/>
    <path d="M1.05 11.65 Q0.95 11.5 1.15 11.4 L1.5 11.45 Q2.15 12.45 3.5 13.25 L5.9 14.55 5.85 14.8 5.5 14.85 3.05 13.5 Q1.7 12.7 1.05 11.65" fill="#1f4f14" fill-rule="evenodd" stroke="none"/>
    <path d="M0.6 10.25 L1.05 10.05 2.6 11.55 3.6 12.1 4.5 12.7 4.05 12.85 3.05 12.25 2.0 11.6 0.6 10.25" fill="#1f4f14" fill-rule="evenodd" stroke="none"/>
    <path d="M0.65 8.5 Q0.55 8.4 0.75 8.3 L1.1 8.3 4.3 11.5 4.2 11.75 3.85 11.7 0.65 8.5" fill="#1f4f14" fill-rule="evenodd" stroke="none"/>
    <path d="M29.85 21.35 L19.35 29.8 1.2 15.55 0.6 14.65 1.4 14.5 1.4 13.75 1.0 13.55 1.05 12.3 0.55 12.0 0.75 10.35 0.3 10.0 0.5 6.4 10.8 0.4 15.8 5.9 23.05 10.25 29.25 12.55 29.15 17.0 29.9 17.65 29.85 21.35 M29.4 17.9 L28.6 17.25 28.75 12.9 22.85 10.7 15.45 6.3 10.7 1.05 1.0 6.7 0.85 9.75 1.3 10.1 1.1 11.75 1.6 12.0 1.55 13.25 1.9 13.45 1.9 14.9 1.45 15.0 1.6 15.2 19.35 29.15 29.35 21.1 29.4 17.9" fill="#32422c" fill-rule="evenodd" stroke="none"/>
    <path d="M21.85 9.2 L22.25 9.65 21.9 9.7 12.2 15.8 12.2 23.65 12.2 24.1 11.85 23.85 Q7.45 20.8 6.95 20.0 6.6 19.4 6.35 15.4 L6.15 11.5 16.45 5.65 21.85 9.2" fill="#e9e0a2" fill-rule="evenodd" stroke="none"/>
    <path d="M21.9 9.95 L12.5 15.9 12.5 23.6 Q12.6 24.1 12.35 24.35 L12.2 24.35 11.85 24.2 11.7 24.05 Q7.45 21.2 6.75 20.15 6.35 19.5 6.1 15.7 L5.9 11.5 5.9 11.35 16.45 5.35 22.0 8.95 Q22.5 9.35 22.5 9.7 L22.1 10.0 21.9 9.95 M21.7 9.4 L16.45 5.95 6.4 11.65 Q6.65 19.05 7.2 19.85 7.75 20.7 11.95 23.65 L11.95 15.65 21.8 9.45 21.7 9.4" fill="#32422c" fill-rule="evenodd" stroke="none"/>
    <path d="M7.15 12.0 Q7.05 11.9 7.25 11.8 L7.65 11.8 11.2 14.65 11.15 14.9 10.8 14.95 7.15 12.0" fill="#32422c" fill-rule="evenodd" stroke="none"/>
    <path d="M14.15 8.45 Q14.8 7.95 15.4 8.3 L16.25 8.95 16.95 8.5 17.0 8.45 17.15 8.75 17.05 8.9 16.5 9.25 16.9 9.85 17.1 9.9 17.25 10.1 16.35 10.95 16.25 11.0 16.05 10.9 16.05 10.85 16.35 10.0 16.25 9.45 14.8 10.4 15.1 11.7 Q15.05 12.3 14.6 12.65 13.9 13.2 13.2 12.85 L12.3 12.15 11.55 12.65 11.45 12.65 11.25 12.45 Q11.2 12.4 11.3 12.3 L12.0 11.8 11.6 11.1 11.5 11.0 11.3 10.95 11.2 10.85 11.15 10.75 12.2 9.7 12.3 9.65 12.4 9.8 12.4 9.9 12.2 10.4 Q12.05 11.0 12.3 11.65 L13.85 10.6 Q13.55 9.7 13.65 9.15 L14.15 8.45 M14.0 11.0 L12.55 11.95 13.2 12.3 13.8 12.15 Q14.15 11.95 14.05 11.4 L14.0 11.0 M14.7 10.0 L16.0 9.15 Q15.8 8.85 15.45 8.8 15.15 8.75 14.95 8.95 L14.65 9.45 14.7 10.0" fill="#32422c" fill-rule="evenodd" stroke="none"/>
    <path d="M18.15 20.15 L18.4 20.05 18.6 20.25 Q18.6 21.95 19.1 25.4 L19.4 27.4 19.5 29.45 19.25 29.5 19.05 29.3 18.95 27.25 18.65 25.25 18.15 20.15" fill="#1f4f14" fill-rule="evenodd" stroke="none"/>
  </g>
  <defs>
    <radialGradient cx="0" cy="0" gradientTransform="matrix(0.0284, 0.0, 0.0, -0.0284, 39.7, 14.5)" gradientUnits="userSpaceOnUse" id="gradient0" r="819.2" spreadMethod="pad">
      <stop offset="0.0" stop-color="#803d2a"/>
      <stop offset="0.5411764705882353" stop-color="#4e0b0a"/>
      <stop offset="1.0" stop-color="#2f0605"/>
    </radialGradient>
    <linearGradient gradientTransform="matrix(0.0079, 0.0069, 0.0069, -0.0079, 12.2, 11.45)" gradientUnits="userSpaceOnUse" id="gradient1" spreadMethod="pad" x1="-819.2" x2="819.2">
      <stop offset="0.0" stop-color="#8ed15e"/>
      <stop offset="1.0" stop-color="#aad878"/>
    </linearGradient>
  </defs>
</svg>
