<?xml version="1.0" encoding="UTF-8" standalone="no"?>
<svg xmlns:xlink="http://www.w3.org/1999/xlink" height="121.05px" width="12.0px" xmlns="http://www.w3.org/2000/svg">
  <g transform="matrix(1.0, 0.0, 0.0, 1.0, 0.0, 0.0)">
    <path d="M12.0 121.05 L7.7 121.05 4.35 121.05 0.0 121.05 0.0 41.45 0.0 15.05 0.0 0.0 4.35 0.0 7.7 0.0 12.0 0.0 12.0 15.05 12.0 41.45 12.0 121.05" fill="#00ff33" fill-opacity="0.0" fill-rule="evenodd" stroke="none"/>
    <path d="M1.5 115.05 L1.5 41.45 1.5 15.05 1.5 6.0 Q1.5 4.2 2.85 2.85 3.55 2.15 4.35 1.85 5.1 1.5 6.0 1.5 L7.75 1.85 Q8.5 2.2 9.15 2.85 10.5 4.2 10.5 6.0 L10.5 15.05 10.5 41.45 10.5 115.05 Q10.5 116.85 9.15 118.2 L7.75 119.2 6.0 119.55 4.35 119.25 Q3.55 118.9 2.85 118.2 1.5 116.85 1.5 115.05" fill="#2a4c4b" fill-rule="evenodd" stroke="none"/>
  </g>
</svg>
