<?xml version="1.0" encoding="UTF-8" standalone="no"?>
<svg xmlns:xlink="http://www.w3.org/1999/xlink" height="187.9px" width="380.2px" xmlns="http://www.w3.org/2000/svg">
  <g transform="matrix(1.0, 0.0, 0.0, 1.0, 1.0, 1.0)">
    <path d="M0.0 29.75 L0.0 15.25 Q0.0 8.95 4.35 4.45 8.75 0.0 14.95 0.0 L31.35 0.0 345.5 0.0 363.25 0.0 Q369.4 0.0 373.75 4.45 378.2 8.95 378.2 15.25 L378.2 29.75 378.2 158.55 378.2 170.65 Q378.2 176.95 373.75 181.45 369.4 185.9 363.25 185.9 L345.5 185.9 31.35 185.9 14.95 185.9 Q8.75 185.9 4.35 181.45 0.0 177.0 0.0 170.65 L0.0 158.55 0.0 29.75" fill="#ffffff" fill-rule="evenodd" stroke="none"/>
    <path d="M18.65 0.0 L14.95 0.0 14.65 0.0 M10.75 0.6 Q8.75 1.15 7.0 2.25 M0.0 155.75 L0.0 158.55 0.0 159.75 M0.0 27.75 L0.0 29.75 0.0 31.75 M346.65 0.0 L345.5 0.0 342.65 0.0 M344.05 185.9 L345.5 185.9 348.05 185.9 M34.65 0.0 L31.35 0.0 30.65 0.0 M320.05 185.9 L324.05 185.9 M162.65 0.0 L158.65 0.0 M160.05 185.9 L164.05 185.9 M82.65 0.0 L78.65 0.0 M80.05 185.9 L84.05 185.9 M120.05 185.9 L124.05 185.9 M128.05 185.9 L132.05 185.9 M136.05 185.9 L140.05 185.9 M144.05 185.9 L148.05 185.9 M152.05 185.9 L156.05 185.9 M88.05 185.9 L92.05 185.9 M96.05 185.9 L100.05 185.9 M104.05 185.9 L108.05 185.9 M112.05 185.9 L116.05 185.9 M0.0 147.75 L0.0 151.75 M40.05 185.9 L44.05 185.9 M48.05 185.9 L52.05 185.9 M56.05 185.9 L60.05 185.9 M64.05 185.9 L68.05 185.9 M72.05 185.9 L76.05 185.9 M0.05 171.75 Q0.15 173.85 0.8 175.7 M32.05 185.9 L36.05 185.9 M24.05 185.9 L28.05 185.9 M16.05 185.9 L20.05 185.9 M8.45 184.4 Q10.2 185.3 12.15 185.65 M2.55 179.25 L4.35 181.45 5.15 182.2 M0.0 163.75 L0.0 167.75 M0.0 99.75 L0.0 103.75 M0.0 107.75 L0.0 111.75 M0.0 115.75 L0.0 119.75 M0.0 123.75 L0.0 127.75 M0.0 131.75 L0.0 135.75 M0.0 139.75 L0.0 143.75 M42.65 0.0 L38.65 0.0 M0.0 51.75 L0.0 55.75 M0.0 59.75 L0.0 63.75 M0.0 67.75 L0.0 71.75 M0.0 75.75 L0.0 79.75 M0.0 83.75 L0.0 87.75 M0.0 91.75 L0.0 95.75 M0.0 35.75 L0.0 39.75 M0.0 43.75 L0.0 47.75 M0.0 19.75 L0.0 23.75 M0.35 11.9 Q0.0 13.5 0.0 15.25 L0.0 15.75 M3.95 4.95 Q2.55 6.5 1.65 8.25 M26.65 0.0 L22.65 0.0 M74.65 0.0 L70.65 0.0 M66.65 0.0 L62.65 0.0 M58.65 0.0 L54.65 0.0 M50.65 0.0 L46.65 0.0 M122.65 0.0 L118.65 0.0 M114.65 0.0 L110.65 0.0 M106.65 0.0 L102.65 0.0 M98.65 0.0 L94.65 0.0 M90.65 0.0 L86.65 0.0 M154.65 0.0 L150.65 0.0 M146.65 0.0 L142.65 0.0 M138.65 0.0 L134.65 0.0 M130.65 0.0 L126.65 0.0 M240.05 185.9 L244.05 185.9 M280.05 185.9 L284.05 185.9 M288.05 185.9 L292.05 185.9 M296.05 185.9 L300.05 185.9 M304.05 185.9 L308.05 185.9 M312.05 185.9 L316.05 185.9 M248.05 185.9 L252.05 185.9 M256.05 185.9 L260.05 185.9 M264.05 185.9 L268.05 185.9 M272.05 185.9 L276.05 185.9 M200.05 185.9 L204.05 185.9 M208.05 185.9 L212.05 185.9 M216.05 185.9 L220.05 185.9 M224.05 185.9 L228.05 185.9 M232.05 185.9 L236.05 185.9 M168.05 185.9 L172.05 185.9 M176.05 185.9 L180.05 185.9 M184.05 185.9 L188.05 185.9 M192.05 185.9 L196.05 185.9 M202.65 0.0 L198.65 0.0 M194.65 0.0 L190.65 0.0 M186.65 0.0 L182.65 0.0 M178.65 0.0 L174.65 0.0 M170.65 0.0 L166.65 0.0 M242.65 0.0 L238.65 0.0 M234.65 0.0 L230.65 0.0 M226.65 0.0 L222.65 0.0 M218.65 0.0 L214.65 0.0 M210.65 0.0 L206.65 0.0 M282.65 0.0 L278.65 0.0 M274.65 0.0 L270.65 0.0 M266.65 0.0 L262.65 0.0 M258.65 0.0 L254.65 0.0 M250.65 0.0 L246.65 0.0 M322.65 0.0 L318.65 0.0 M314.65 0.0 L310.65 0.0 M306.65 0.0 L302.65 0.0 M298.65 0.0 L294.65 0.0 M290.65 0.0 L286.65 0.0 M368.0 185.15 Q369.85 184.5 371.5 183.35 M374.4 180.75 L376.65 177.5 M377.9 173.75 L378.2 170.65 378.2 166.65 M378.2 162.65 L378.2 158.65 M378.2 154.65 L378.2 150.65 M328.05 185.9 L332.05 185.9 M336.05 185.9 L340.05 185.9 M352.05 185.9 L356.05 185.9 M360.05 185.9 L363.25 185.9 364.1 185.9 M378.2 146.65 L378.2 142.65 M378.2 138.65 L378.2 134.65 M378.2 130.65 L378.2 126.65 M378.2 122.65 L378.2 118.65 M378.2 114.65 L378.2 110.65 M378.2 106.65 L378.2 102.65 M378.2 50.65 L378.2 46.65 M378.2 98.65 L378.2 94.65 M378.2 90.65 L378.2 86.65 M378.2 82.65 L378.2 78.65 M378.2 74.65 L378.2 70.65 M378.2 66.65 L378.2 62.65 M378.2 58.65 L378.2 54.65 M362.65 0.0 L358.65 0.0 M354.65 0.0 L350.65 0.0 M338.65 0.0 L334.65 0.0 M330.65 0.0 L326.65 0.0 M378.2 18.65 L378.2 15.25 Q378.2 13.2 377.7 11.3 M376.15 7.55 Q375.2 5.9 373.75 4.45 M370.55 1.95 Q368.8 0.9 366.8 0.4 M378.2 42.65 L378.2 38.65 M378.2 34.65 L378.2 30.65 M378.2 26.65 L378.2 22.65" fill="none" stroke="#bfbfbf" stroke-linecap="round" stroke-linejoin="round" stroke-width="2.0"/>
  </g>
</svg>
