<?xml version="1.0" encoding="UTF-8" standalone="no"?>
<svg xmlns:xlink="http://www.w3.org/1999/xlink" height="24.0px" width="54.0px" xmlns="http://www.w3.org/2000/svg">
  <g transform="matrix(1.0, 0.0, 0.0, 1.0, 0.0, 0.0)">
    <path d="M53.5 8.0 Q53.95 9.65 54.0 12.0 53.95 14.3 53.5 16.0 52.95 18.05 51.8 19.4 L51.75 19.45 49.6 21.4 Q48.05 22.65 47.5 23.9 L47.4 24.0 6.6 24.0 6.5 23.9 Q5.95 22.65 4.4 21.4 2.65 20.1 2.25 19.45 L2.2 19.4 Q1.05 18.05 0.5 16.0 0.05 14.3 0.0 12.0 0.05 9.65 0.5 8.0 1.05 5.95 2.2 4.6 L2.25 4.55 Q2.65 3.9 4.4 2.55 5.95 1.35 6.5 0.1 L6.6 0.0 47.4 0.0 47.5 0.1 Q48.05 1.35 49.6 2.55 51.35 3.9 51.75 4.55 L51.8 4.6 Q52.95 5.95 53.5 8.0" fill="url(#gradient0)" fill-rule="evenodd" stroke="none"/>
    <path d="M43.45 7.1 Q42.85 7.1 42.45 7.55 42.05 7.95 42.05 8.55 L42.05 8.6 Q42.05 9.2 42.45 9.6 42.85 10.0 43.45 10.0 44.05 10.0 44.5 9.6 L44.55 9.5 Q44.9 9.1 44.9 8.55 44.9 7.95 44.5 7.55 44.05 7.1 43.45 7.1 M42.05 8.6 L40.65 8.6 Q40.65 9.2 40.25 9.6 39.85 10.0 39.25 10.0 38.65 10.0 38.25 9.6 L38.15 9.5 Q37.15 10.25 37.55 10.7 L38.0 11.15 40.0 12.6 41.35 12.85 42.7 12.6 44.7 11.15 45.15 10.7 Q45.55 10.25 44.55 9.5 M40.65 8.6 L40.65 8.55 Q40.65 7.95 40.25 7.55 39.85 7.1 39.25 7.1 38.65 7.1 38.25 7.55 37.8 7.95 37.8 8.55 37.8 9.1 38.15 9.5 M38.0 11.15 L35.85 11.45 Q35.35 12.1 36.05 12.75 37.8 14.5 38.65 14.5 L39.3 14.5 43.4 14.5 44.05 14.5 Q44.9 14.5 46.65 12.75 47.35 12.1 46.85 11.45 L44.7 11.15 M46.3 15.3 L43.45 15.3 43.4 14.5 M39.3 14.5 L39.3 15.3 36.4 15.3" fill="none" stroke="#000000" stroke-linecap="round" stroke-linejoin="round" stroke-width="1.0"/>
  </g>
  <defs>
    <linearGradient color-interpolation="linearRGB" gradientTransform="matrix(0.0, 0.0336, -0.0144, 0.0, 27.0, 12.0)" gradientUnits="userSpaceOnUse" id="gradient0" spreadMethod="pad" x1="-819.2" x2="819.2">
      <stop offset="0.0" stop-color="#fff265"/>
      <stop offset="0.47843137254901963" stop-color="#e7bb00"/>
      <stop offset="1.0" stop-color="#ffcd00"/>
    </linearGradient>
  </defs>
</svg>
