<?xml version="1.0" encoding="UTF-8" standalone="no"?>
<svg xmlns:xlink="http://www.w3.org/1999/xlink" height="34.9px" width="34.9px" xmlns="http://www.w3.org/2000/svg">
  <g transform="matrix(1.0, 0.0, 0.0, 1.0, 0.0, 0.0)">
    <path d="M34.9 17.45 Q34.9 24.7 29.8 29.8 24.7 34.9 17.45 34.9 10.2 34.9 5.1 29.8 0.0 24.7 0.0 17.45 0.0 10.2 5.1 5.1 10.2 0.0 17.45 0.0 24.7 0.0 29.8 5.1 34.9 10.2 34.9 17.45" fill="#f6b138" fill-rule="evenodd" stroke="none"/>
    <path d="M8.8 15.3 Q8.15 16.0 8.15 17.7 8.15 19.45 8.8 20.15 9.5 20.85 10.6 20.85 L11.65 20.7 12.8 20.15 12.8 19.15 10.6 19.15 10.6 17.0 15.65 17.0 15.65 21.5 13.1 22.8 10.45 23.2 Q8.6 23.2 7.4 22.55 6.15 21.85 5.55 20.65 4.9 19.4 4.9 17.7 4.9 16.0 5.6 14.7 6.4 13.4 7.7 12.75 8.85 12.25 10.6 12.25 L13.2 12.6 14.65 13.55 15.5 15.25 12.35 15.8 11.7 14.9 10.5 14.6 Q9.4 14.6 8.8 15.3" fill="#ffffff" fill-rule="evenodd" stroke="none"/>
    <path d="M24.85 16.5 Q25.8 17.6 25.8 19.15 25.8 20.9 24.65 22.05 23.5 23.15 21.4 23.15 19.6 23.15 18.4 22.25 17.0 21.0 17.0 19.2 17.0 17.45 18.2 16.3 19.35 15.2 21.4 15.2 23.75 15.2 24.85 16.5 M21.4 21.2 Q22.1 21.2 22.45 20.7 22.85 20.3 22.85 19.15 22.85 18.1 22.45 17.7 22.1 17.2 21.45 17.2 20.75 17.2 20.4 17.7 19.95 18.15 19.95 19.2 19.95 20.2 20.4 20.7 20.75 21.2 21.4 21.2" fill="#ffffff" fill-rule="evenodd" stroke="none"/>
    <path d="M27.25 12.45 L30.35 12.45 30.35 14.85 29.75 19.7 27.8 19.7 27.25 14.85 27.25 12.45 M27.35 20.4 L30.25 20.4 30.25 23.0 27.35 23.0 27.35 20.4" fill="#ffffff" fill-rule="evenodd" stroke="none"/>
  </g>
</svg>
