<?xml version="1.0" encoding="UTF-8" standalone="no"?>
<svg xmlns:xlink="http://www.w3.org/1999/xlink" height="520.0px" width="520.0px" xmlns="http://www.w3.org/2000/svg">
  <g transform="matrix(1.0, 0.0, 0.0, 1.0, 0.0, 0.0)">
    <path d="M520.0 498.3 Q520.0 507.3 514.4 513.65 508.85 520.0 500.95 520.0 L481.05 520.0 38.95 520.0 19.0 520.0 Q11.15 520.0 5.55 513.65 0.0 507.3 0.0 498.3 L0.0 480.0 0.0 36.95 0.0 21.65 Q0.0 12.7 5.55 6.35 11.15 0.0 19.0 0.0 L38.95 0.0 481.05 0.0 500.95 0.0 Q508.85 0.0 514.4 6.35 520.0 12.7 520.0 21.65 L520.0 36.95 520.0 480.0 520.0 498.3" fill="#ffffff" fill-rule="evenodd" stroke="none"/>
  </g>
</svg>
