<?xml version="1.0" encoding="UTF-8" standalone="no"?>
<svg xmlns:xlink="http://www.w3.org/1999/xlink" height="18.1px" width="75.65px" xmlns="http://www.w3.org/2000/svg">
  <g transform="matrix(1.0, 0.0, 0.0, 1.0, 0.0, 0.0)">
    <path d="M0.0 5.45 L0.0 3.25 Q0.0 1.95 0.95 0.95 1.9 0.0 3.3 0.0 L9.6 0.0 66.6 0.0 72.35 0.0 Q73.75 0.0 74.7 0.95 75.65 1.95 75.65 3.25 L75.65 5.45 75.65 13.35 75.65 14.85 Q75.65 16.2 74.7 17.1 73.75 18.1 72.35 18.1 L66.6 18.1 9.6 18.1 3.3 18.1 Q1.9 18.1 0.95 17.1 0.0 16.2 0.0 14.85 L0.0 13.35 0.0 5.45" fill="url(#gradient0)" fill-rule="evenodd" stroke="none"/>
  </g>
  <defs>
    <linearGradient gradientTransform="matrix(-0.0444, 0.0, 0.0, 0.045, 38.6, 9.05)" gradientUnits="userSpaceOnUse" id="gradient0" spreadMethod="pad" x1="-819.2" x2="819.2">
      <stop offset="0.0" stop-color="#b0ddf1"/>
      <stop offset="0.12549019607843137" stop-color="#a0d5e8"/>
      <stop offset="0.34901960784313724" stop-color="#7bc2d3"/>
      <stop offset="1.0" stop-color="#4dabc2"/>
    </linearGradient>
  </defs>
</svg>
