<?xml version="1.0" encoding="UTF-8" standalone="no"?>
<svg xmlns:xlink="http://www.w3.org/1999/xlink" height="50.05px" width="50.2px" xmlns="http://www.w3.org/2000/svg">
  <g transform="matrix(1.0, 0.0, 0.0, 1.0, 25.1, 25.0)">
    <path d="M17.2 -9.75 L23.45 -9.05 19.4 -4.25 25.1 -1.7 19.8 1.65 24.55 5.75 18.5 7.4 21.8 12.75 15.55 12.55 17.15 18.6 11.2 16.6 10.95 22.85 5.85 19.15 3.75 25.05 0.0 20.0 -3.75 25.05 -5.85 19.15 -10.9 22.85 -11.15 16.6 -17.1 18.6 -15.5 12.55 -21.75 12.75 -18.5 7.4 -24.5 5.75 -19.8 1.65 -25.1 -1.7 -19.35 -4.25 -23.4 -9.05 -17.2 -9.75 -19.65 -15.5 -13.5 -14.4 -14.15 -20.6 -8.6 -17.75 -7.4 -23.9 -2.95 -19.45 0.0 -25.0 3.0 -19.45 7.45 -23.9 8.65 -17.75 14.2 -20.6 13.5 -14.4 19.7 -15.5 17.2 -9.75" fill="#ffffff" fill-rule="evenodd" stroke="none"/>
  </g>
</svg>
