<?xml version="1.0" encoding="UTF-8" standalone="no"?>
<svg xmlns:xlink="http://www.w3.org/1999/xlink" height="30.05px" width="23.7px" xmlns="http://www.w3.org/2000/svg">
  <g transform="matrix(1.0, 0.0, 0.0, 1.0, 0.05, 15.0)">
    <path d="M16.05 7.8 L16.05 9.7 15.15 10.55 9.1 10.45 8.0 9.8 7.8 7.85 7.55 6.9 7.8 7.8 16.05 7.8" fill="url(#gradient0)" fill-rule="evenodd" stroke="none"/>
    <path d="M7.55 6.9 L6.5 4.9 6.45 4.9 6.45 4.85 2.45 0.9 Q-0.15 -2.55 1.05 -6.0 3.75 -13.95 12.3 -14.25 16.25 -14.35 19.3 -11.9 21.95 -9.7 22.75 -6.55 L22.8 -6.5 22.8 -6.4 23.0 -5.0 23.0 -3.65 Q22.85 -1.3 21.15 0.8 19.75 2.6 16.7 5.1 16.4 5.45 16.25 6.1 L16.1 6.85 16.05 7.8 7.8 7.8 7.55 6.9" fill="url(#gradient1)" fill-rule="evenodd" stroke="none"/>
    <path d="M14.55 -4.95 L14.95 -4.2 14.9 -3.3 14.2 -2.2 14.75 -2.1 14.7 -2.5 15.2 -3.6 Q15.7 -4.2 16.25 -4.25 17.05 -4.3 17.4 -3.7 L17.4 -2.9 17.0 -2.1 16.6 -1.85 17.15 -1.7 17.05 -1.5 17.05 -1.2 16.35 -1.15 Q15.5 -1.15 15.1 -1.5 L14.8 -1.45 13.55 -1.7 13.15 -1.55 11.35 -1.6 Q10.65 -1.15 9.85 -1.25 L8.7 -1.5 Q7.65 -0.9 6.6 -1.5 L6.95 -2.1 7.85 -1.9 7.2 -2.65 Q6.95 -3.5 7.45 -4.1 7.95 -4.7 8.85 -4.55 9.75 -4.35 9.95 -3.65 10.1 -2.8 9.35 -2.0 L9.9 -1.95 10.85 -2.1 Q10.15 -3.05 10.55 -4.05 10.85 -4.75 11.55 -4.7 12.15 -4.7 12.4 -4.25 L12.5 -3.3 12.25 -2.45 11.95 -2.05 12.9 -2.2 12.95 -2.2 12.85 -2.45 Q12.65 -2.95 12.85 -3.75 13.0 -4.65 13.45 -4.9 L14.55 -4.95 M14.05 -4.45 L13.8 -4.35 13.45 -3.6 13.45 -2.7 13.55 -2.55 Q14.1 -2.95 14.3 -3.5 L14.3 -4.05 14.15 -4.4 14.05 -4.45 M11.55 -4.05 L11.15 -3.8 Q11.0 -3.55 11.1 -3.15 L11.4 -2.45 11.65 -2.75 11.85 -3.35 11.8 -3.9 11.55 -4.05 M16.35 -3.6 L15.7 -3.15 Q15.35 -2.75 15.35 -2.45 L15.4 -2.2 Q16.25 -2.35 16.55 -2.6 16.95 -2.95 16.8 -3.4 L16.45 -3.6 16.35 -3.6 M7.85 -2.9 Q7.95 -2.45 8.6 -2.2 9.45 -2.85 9.3 -3.5 9.25 -3.75 8.75 -3.85 L8.5 -3.9 7.95 -3.65 Q7.65 -3.3 7.85 -2.9" fill="#696b5c" fill-rule="evenodd" stroke="none"/>
    <path d="M9.55 10.25 L5.8 -2.65 6.75 -2.95 10.5 10.15 9.55 10.15 9.55 10.25" fill="#696b5c" fill-rule="evenodd" stroke="none"/>
    <path d="M18.35 -7.8 Q18.35 -6.9 17.65 -6.25 16.95 -5.55 16.0 -5.55 15.0 -5.55 14.35 -6.25 13.65 -6.9 13.65 -7.8 13.65 -8.75 14.35 -9.35 15.0 -10.0 16.0 -10.0 16.95 -10.0 17.65 -9.35 18.35 -8.7 18.35 -7.8" fill="#ffffff" fill-rule="evenodd" stroke="none"/>
    <path d="M14.2 10.35 L13.2 10.35 17.0 -2.7 17.95 -2.45 14.2 10.35" fill="#696b5c" fill-rule="evenodd" stroke="none"/>
    <path d="M17.25 -12.6 L15.75 -12.55 14.15 -12.75 10.8 -12.5 Q7.5 -11.95 5.6 -9.8 L4.4 -7.85 Q3.85 -6.7 3.75 -5.6 3.6 -3.85 3.75 -3.0 L4.2 -1.9 4.9 -0.85 Q5.3 -0.2 7.55 1.15 9.55 2.35 9.75 3.35 L10.05 6.35 10.3 8.1 10.45 9.85 9.2 9.9 Q8.7 10.05 8.55 9.35 8.2 6.7 7.9 6.05 L7.45 4.95 6.7 4.0 5.2 3.15 3.85 2.15 Q1.35 -1.4 1.0 -2.7 0.65 -3.95 1.55 -6.6 2.3 -9.05 3.65 -10.4 5.35 -12.05 8.8 -13.2 11.6 -14.1 13.45 -13.9 L16.1 -13.5 16.9 -12.9 17.3 -12.6 17.25 -12.6" fill="#ffffff" fill-opacity="0.7764706" fill-rule="evenodd" stroke="none"/>
    <path d="M23.35 -6.75 Q24.25 -3.15 22.5 -0.1 21.5 1.6 18.7 4.0 L17.15 5.5 Q16.9 5.75 16.75 7.05 16.65 8.25 16.7 9.65 L16.7 9.9 15.4 11.15 8.85 11.05 7.3 10.1 7.3 9.7 7.05 7.55 Q6.7 5.95 5.95 5.25 L5.25 4.65 Q2.5 2.25 1.35 0.45 -0.8 -2.9 0.4 -6.3 3.25 -14.7 12.25 -15.0 16.45 -15.1 19.65 -12.5 22.55 -10.15 23.35 -6.75 M18.8 -11.45 Q16.0 -13.75 12.3 -13.65 4.2 -13.4 1.65 -5.85 0.65 -3.0 2.55 -0.15 3.55 1.45 6.1 3.65 L6.9 4.3 Q7.8 5.15 8.25 6.95 8.6 8.15 8.6 9.35 L9.25 9.7 14.9 9.8 15.35 9.35 Q15.25 5.6 16.2 4.55 L17.85 3.0 Q20.4 0.85 21.3 -0.75 22.85 -3.3 22.05 -6.45 21.35 -9.4 18.8 -11.45" fill="url(#gradient2)" fill-rule="evenodd" stroke="none"/>
    <path d="M6.9 6.4 L7.2 6.25 16.7 6.35 Q17.05 6.45 17.5 7.3 L17.55 12.55 16.65 13.6 Q8.85 13.95 7.75 13.65 7.1 13.45 6.75 12.95 L6.55 12.5 6.45 9.95 6.5 7.0 Q6.55 6.65 6.9 6.4" fill="#696b5c" fill-rule="evenodd" stroke="none"/>
    <path d="M9.55 11.15 L14.5 11.2 14.9 11.7 14.95 14.4 14.45 14.95 9.9 15.0 Q9.55 14.9 9.35 14.65 L9.25 14.4 9.2 11.55 9.4 11.25 9.55 11.15" fill="#696b5c" fill-rule="evenodd" stroke="none"/>
    <path d="M10.0 8.75 L10.0 9.15 14.95 9.3 Q15.35 9.2 15.35 9.75 L9.55 10.6 15.45 11.35 Q15.85 11.45 15.95 11.75 L15.75 12.05 8.85 12.3 Q8.1 12.15 8.0 11.65 7.9 11.35 8.25 11.1 L8.65 10.95 8.85 10.65 Q8.9 10.35 8.35 10.25 7.75 10.15 7.9 9.65 L8.2 9.2 9.5 8.85 9.3 8.6 8.35 8.6 Q7.55 8.2 7.9 7.75 L8.35 7.35 15.65 7.4 Q16.05 7.8 15.85 7.95 L10.0 8.75" fill="#d2d3ce" fill-rule="evenodd" stroke="none"/>
  </g>
  <defs>
    <linearGradient gradientTransform="matrix(-4.0E-4, 0.011, 0.011, 4.0E-4, 11.8, -2.3)" gradientUnits="userSpaceOnUse" id="gradient0" spreadMethod="pad" x1="-819.2" x2="819.2">
      <stop offset="0.0" stop-color="#d2ebfd" stop-opacity="0.8"/>
      <stop offset="0.17647058823529413" stop-color="#cce7f8"/>
      <stop offset="0.40784313725490196" stop-color="#bcdae8"/>
      <stop offset="0.6666666666666666" stop-color="#a1c5ce"/>
      <stop offset="0.9490196078431372" stop-color="#7ba8ab"/>
      <stop offset="1.0" stop-color="#74a2a3" stop-opacity="0.8"/>
    </linearGradient>
    <radialGradient cx="0" cy="0" gradientTransform="matrix(0.0137, 0.0, 0.0, -0.0137, 11.85, -3.45)" gradientUnits="userSpaceOnUse" id="gradient1" r="819.2" spreadMethod="pad">
      <stop offset="0.03137254901960784" stop-color="#ffffff"/>
      <stop offset="0.37254901960784315" stop-color="#fdf4c1"/>
      <stop offset="0.4549019607843137" stop-color="#fbefa2"/>
      <stop offset="0.592156862745098" stop-color="#f9e878"/>
      <stop offset="0.7176470588235294" stop-color="#f7e35d"/>
      <stop offset="0.8313725490196079" stop-color="#f6df50"/>
      <stop offset="0.9294117647058824" stop-color="#f5dd4c"/>
      <stop offset="1.0" stop-color="#f4dc4b"/>
    </radialGradient>
    <linearGradient gradientTransform="matrix(-0.0072, 0.0072, 0.0072, 0.0072, 13.25, -3.95)" gradientUnits="userSpaceOnUse" id="gradient2" spreadMethod="pad" x1="-819.2" x2="819.2">
      <stop offset="0.0" stop-color="#e3ac3a"/>
      <stop offset="0.1450980392156863" stop-color="#daa93b"/>
      <stop offset="0.4117647058823529" stop-color="#c4a045"/>
      <stop offset="0.7647058823529411" stop-color="#a19268"/>
      <stop offset="1.0" stop-color="#87888a"/>
    </linearGradient>
  </defs>
</svg>
