<?xml version="1.0" encoding="UTF-8" standalone="no"?>
<svg xmlns:xlink="http://www.w3.org/1999/xlink" height="27.6px" width="99.9px" xmlns="http://www.w3.org/2000/svg">
  <g transform="matrix(1.0, 0.0, 0.0, 1.0, 0.0, 0.0)">
    <path d="M0.0 22.45 L0.0 20.05 0.0 9.5 0.0 5.5 Q0.0 3.45 1.85 1.7 3.75 0.0 5.75 0.0 L11.2 0.0 88.15 0.0 94.6 0.0 Q97.2 0.2 98.75 2.65 100.05 4.65 99.9 6.3 L99.9 9.5 99.9 20.05 99.9 21.75 Q99.9 24.05 98.25 25.8 96.6 27.6 94.6 27.6 L88.15 27.6 11.2 27.6 5.75 27.6 Q3.65 27.6 1.85 26.15 0.0 24.65 0.0 22.45" fill="#603814" fill-rule="evenodd" stroke="none"/>
    <path d="M5.1 9.5 L5.1 20.05 5.1 21.5 Q5.1 22.85 6.4 23.85 7.7 24.85 9.5 24.85 L11.2 24.85 88.15 24.85 90.6 24.85 Q92.65 24.85 94.2 23.7 96.0 22.35 95.85 20.3 L95.85 20.05 95.85 9.5 95.85 6.9 Q95.7 5.0 94.1 3.85 92.6 2.75 90.6 2.75 L88.15 2.75 11.2 2.75 9.5 2.75 Q7.7 2.75 6.4 3.75 5.1 4.75 5.1 6.1 L5.1 9.5 M0.0 22.45 L0.0 20.05 0.0 9.5 0.0 5.5 Q0.0 3.45 1.85 1.7 3.65 0.0 5.65 0.0 L11.2 0.0 88.15 0.0 94.55 0.0 Q97.1 0.2 98.7 2.65 100.0 4.65 99.85 6.3 L99.85 9.5 99.85 20.05 99.85 21.65 Q99.85 24.05 98.2 25.85 96.6 27.6 94.55 27.6 L88.15 27.6 11.2 27.6 5.65 27.6 Q3.55 27.6 1.85 26.15 0.0 24.65 0.0 22.45" fill="#2f0605" fill-rule="evenodd" stroke="none"/>
  </g>
</svg>
