<?xml version="1.0" encoding="UTF-8" standalone="no"?>
<svg xmlns:xlink="http://www.w3.org/1999/xlink" height="55.6px" width="44.6px" xmlns="http://www.w3.org/2000/svg">
  <g transform="matrix(1.0, 0.0, 0.0, 1.0, -8.4, -17.3)">
    <path d="M50.45 37.05 L46.9 37.95 33.8 38.95 20.7 37.95 Q18.4 37.55 17.0 36.95 14.55 36.0 14.65 34.65 14.6 34.15 14.95 33.7 16.0 32.3 20.7 31.45 L33.8 30.4 46.9 31.45 Q53.2 32.55 53.0 34.65 L52.85 35.45 Q52.35 36.35 50.45 37.05 M46.6 36.2 L47.75 36.0 Q51.1 35.3 51.25 34.65 L51.2 34.55 Q50.65 33.9 46.6 33.15 L42.6 32.55 37.3 32.2 33.8 32.15 21.05 33.15 19.95 33.4 Q16.55 34.05 16.4 34.65 16.5 35.15 18.5 35.7 L21.05 36.2 33.8 37.2 46.6 36.2 M28.35 46.2 L27.8 44.65 32.4 44.65 31.7 55.75 32.6 64.75 29.6 64.7 29.15 54.6 28.35 46.2 M42.05 45.6 L42.9 44.05 48.3 42.75 46.65 64.55 43.3 64.45 42.45 56.15 42.05 45.6 M36.05 44.65 L39.8 44.05 38.55 55.75 39.25 64.65 37.5 64.9 36.5 64.85 36.75 57.5 35.2 46.2 36.05 44.65 M24.2 44.65 L24.55 54.9 25.4 64.55 22.05 62.3 19.95 45.1 19.25 43.55 24.2 44.65" fill="#bbb9b7" fill-rule="evenodd" stroke="none"/>
    <path d="M46.6 36.2 L33.8 37.2 21.05 36.2 18.5 35.7 Q16.5 35.15 16.4 34.65 16.55 34.05 19.95 33.4 L21.05 33.15 33.8 32.15 37.3 32.2 42.6 32.55 46.6 33.15 Q50.65 33.9 51.2 34.55 L51.25 34.65 Q51.1 35.3 47.75 36.0 L46.6 36.2" fill="#706d6b" fill-rule="evenodd" stroke="none"/>
    <path d="M17.35 39.0 L21.3 40.05 21.35 40.05 Q27.2 41.25 34.55 41.15 41.9 41.05 47.05 39.85 L47.1 39.85 Q49.1 39.4 50.2 38.95 L50.7 38.75 51.3 39.9 50.0 40.4 47.35 41.15 47.35 41.1 Q42.1 42.35 34.6 42.45 L21.05 41.35 17.6 40.4 16.55 40.15 16.9 38.85 17.35 39.0 M48.55 65.0 L48.65 64.85 49.2 65.2 49.75 65.55 48.6 66.7 46.75 67.75 Q42.35 69.75 34.75 69.85 27.15 69.9 22.25 67.45 L20.25 66.25 19.6 65.7 18.8 64.85 19.3 64.45 19.3 64.4 19.75 64.0 20.2 64.45 20.45 64.7 22.85 66.25 Q27.5 68.6 34.75 68.55 42.0 68.45 46.2 66.55 47.9 65.75 48.55 65.0" fill="#746e6b" fill-rule="evenodd" stroke="none"/>
    <path d="M50.2 38.95 Q49.1 39.4 47.1 39.85 L47.05 39.85 Q41.9 41.05 34.55 41.15 27.2 41.25 21.35 40.05 L21.3 40.05 17.35 39.0 17.0 36.95 Q18.4 37.55 20.7 37.95 L33.8 38.95 46.9 37.95 50.45 37.05 50.2 38.95 M17.6 40.4 L21.05 41.35 34.6 42.45 Q42.1 42.35 47.35 41.1 L47.35 41.15 50.0 40.4 48.15 54.4 48.55 65.0 Q47.9 65.75 46.2 66.55 42.0 68.45 34.75 68.55 27.5 68.6 22.85 66.25 L20.45 64.7 20.2 64.45 20.25 64.45 20.15 54.95 17.6 40.4 M48.6 66.7 L48.6 66.8 Q47.9 67.65 46.25 68.5 42.05 70.7 35.3 70.7 28.5 70.7 23.45 68.3 L20.75 66.7 20.25 66.25 22.25 67.45 Q27.15 69.9 34.75 69.85 42.35 69.75 46.75 67.75 L48.6 66.7 M19.3 64.45 L19.3 64.4 19.3 64.45 M24.2 44.65 L19.25 43.55 19.95 45.1 22.05 62.3 25.4 64.55 24.55 54.9 24.2 44.65 M36.05 44.65 L35.2 46.2 36.75 57.5 36.5 64.85 37.5 64.9 39.25 64.65 38.55 55.75 39.8 44.05 36.05 44.65 M42.05 45.6 L42.45 56.15 43.3 64.45 46.65 64.55 48.3 42.75 42.9 44.05 42.05 45.6 M28.35 46.2 L29.15 54.6 29.6 64.7 32.6 64.75 31.7 55.75 32.4 44.65 27.8 44.65 28.35 46.2" fill="#8d8a88" fill-rule="evenodd" stroke="none"/>
    <path d="M17.35 39.0 L16.9 38.85 16.55 40.15 17.6 40.4 20.15 54.95 20.25 64.45 20.2 64.45 19.75 64.0 19.3 64.4 19.3 64.45 18.8 64.85 19.6 65.7 20.25 66.25 20.75 66.7 23.45 68.3 Q28.5 70.7 35.3 70.7 42.05 70.7 46.25 68.5 47.9 67.65 48.6 66.8 L48.6 66.7 49.75 65.55 49.2 65.2 48.65 64.85 48.55 65.0 48.15 54.4 50.0 40.4 51.3 39.9 50.7 38.75 50.2 38.95 50.45 37.05 Q52.35 36.35 52.85 35.45 L50.3 54.5 50.85 67.5 50.65 67.75 Q49.75 69.1 47.25 70.45 42.65 72.9 35.3 72.9 27.95 72.9 22.55 70.3 L22.55 70.25 Q20.8 69.45 19.45 68.45 L19.4 68.4 18.1 67.3 18.0 55.1 14.25 33.75 14.95 33.7 Q14.6 34.15 14.65 34.65 14.55 36.0 17.0 36.95 L17.35 39.0" fill="#746e6a" fill-rule="evenodd" stroke="none"/>
    <path d="M18.65 24.35 Q18.2 19.1 23.65 17.6 L23.7 17.6 Q29.3 16.3 31.6 20.45 L32.2 21.7 32.4 22.25 32.7 23.55 32.9 24.4 33.1 25.65 30.95 26.0 30.75 24.65 30.6 24.0 30.2 22.55 29.75 21.55 Q28.1 18.85 24.2 19.75 L24.2 19.7 Q20.45 20.75 20.8 24.35 L20.8 24.4 Q20.9 25.5 21.3 26.55 L22.05 28.2 20.15 29.3 19.2 27.15 18.7 25.0 18.65 24.6 18.65 24.35 M29.7 22.6 L26.95 23.05 26.9 23.05 21.15 24.3 Q21.25 23.05 21.85 22.15 22.65 20.95 24.4 20.5 26.65 19.95 28.1 20.8 29.1 21.35 29.7 22.6" fill="#76716f" fill-rule="evenodd" stroke="none"/>
    <path d="M18.65 24.35 L18.65 24.6 18.7 25.0 Q16.25 25.75 14.2 26.65 L14.25 26.65 Q8.1 29.3 8.9 31.85 9.1 34.4 15.75 34.75 21.35 35.05 28.95 33.7 36.5 32.35 41.65 30.1 47.7 27.45 46.95 24.95 L46.95 24.9 Q46.75 22.35 40.1 22.0 L32.4 22.25 32.2 21.7 41.4 21.45 Q46.55 22.0 46.8 24.05 L47.5 27.05 47.55 27.1 Q47.75 27.8 47.35 28.5 47.2 30.5 42.2 32.7 37.1 34.9 29.55 36.25 22.0 37.6 16.45 37.25 11.55 37.0 10.4 35.55 9.3 34.95 9.15 34.0 L9.15 34.05 8.45 30.95 Q7.95 29.15 11.7 27.1 14.4 25.6 18.65 24.35 M20.8 24.4 L20.8 24.35 Q20.45 20.75 24.2 19.7 L24.2 19.75 Q28.1 18.85 29.75 21.55 L30.2 22.55 29.7 22.6 Q29.1 21.35 28.1 20.8 26.65 19.95 24.4 20.5 22.65 20.95 21.85 22.15 21.25 23.05 21.15 24.3 L20.8 24.4" fill="#bbb9b7" fill-rule="evenodd" stroke="none"/>
    <path d="M18.7 25.0 L19.2 27.15 Q16.95 27.85 15.05 28.7 11.05 30.45 11.0 31.4 L11.6 31.9 15.85 32.55 Q21.25 32.9 28.6 31.55 35.85 30.25 40.8 28.1 43.8 26.8 44.55 25.9 L44.85 25.35 Q44.45 24.4 40.0 24.15 L32.9 24.4 32.7 23.55 32.4 22.25 40.1 22.0 Q46.75 22.35 46.95 24.9 L46.95 24.95 Q47.7 27.45 41.65 30.1 36.5 32.35 28.95 33.7 21.35 35.05 15.75 34.75 9.1 34.4 8.9 31.85 8.1 29.3 14.25 26.65 L14.2 26.65 Q16.25 25.75 18.7 25.0 M21.3 26.55 Q20.9 25.5 20.8 24.4 L21.15 24.3 26.9 23.05 26.95 23.05 29.7 22.6 30.2 22.55 30.6 24.0 30.75 24.65 27.3 25.2 Q24.05 25.75 21.3 26.55" fill="#746e6a" fill-rule="evenodd" stroke="none"/>
    <path d="M19.2 27.15 L20.15 29.3 22.05 28.2 21.3 26.55 Q24.05 25.75 27.3 25.2 L30.75 24.65 30.95 26.0 33.1 25.65 32.9 24.4 40.0 24.15 Q44.45 24.4 44.85 25.35 L44.55 25.9 Q43.8 26.8 40.8 28.1 35.85 30.25 28.6 31.55 21.25 32.9 15.85 32.55 L11.6 31.9 11.0 31.4 Q11.05 30.45 15.05 28.7 16.95 27.85 19.2 27.15" fill="#8d8a88" fill-rule="evenodd" stroke="none"/>
  </g>
</svg>
