<?xml version="1.0" encoding="UTF-8" standalone="no"?>
<svg xmlns:xlink="http://www.w3.org/1999/xlink" height="65.85px" width="40.95px" xmlns="http://www.w3.org/2000/svg">
  <g transform="matrix(1.0, 0.0, 0.0, 1.0, -12.05, -7.05)">
    <path d="M50.45 37.05 L46.9 37.95 33.8 38.95 20.7 37.95 Q18.4 37.55 17.0 36.95 14.55 36.0 14.65 34.65 14.6 34.15 14.95 33.7 16.0 32.3 20.7 31.45 L33.8 30.4 46.9 31.45 Q53.2 32.55 53.0 34.65 L52.85 35.45 Q52.35 36.35 50.45 37.05 M46.6 36.2 L47.75 36.0 Q51.1 35.3 51.25 34.65 L51.2 34.55 Q50.65 33.9 46.6 33.15 L42.6 32.55 37.3 32.2 33.8 32.15 21.05 33.15 19.95 33.4 Q16.55 34.05 16.4 34.65 16.5 35.15 18.5 35.7 L21.05 36.2 33.8 37.2 46.6 36.2 M28.35 46.2 L27.8 44.65 32.4 44.65 31.7 55.75 32.6 64.75 29.6 64.7 29.15 54.6 28.35 46.2 M42.05 45.6 L42.9 44.05 48.3 42.75 46.65 64.55 43.3 64.45 42.45 56.15 42.05 45.6 M36.05 44.65 L39.8 44.05 38.55 55.75 39.25 64.65 37.5 64.9 36.5 64.85 36.75 57.5 35.2 46.2 36.05 44.65 M24.2 44.65 L24.55 54.9 25.4 64.55 22.05 62.3 19.95 45.1 19.25 43.55 24.2 44.65" fill="#bbb9b7" fill-rule="evenodd" stroke="none"/>
    <path d="M46.6 36.2 L33.8 37.2 21.05 36.2 18.5 35.7 Q16.5 35.15 16.4 34.65 16.55 34.05 19.95 33.4 L21.05 33.15 33.8 32.15 37.3 32.2 42.6 32.55 46.6 33.15 Q50.65 33.9 51.2 34.55 L51.25 34.65 Q51.1 35.3 47.75 36.0 L46.6 36.2" fill="#706d6b" fill-rule="evenodd" stroke="none"/>
    <path d="M17.35 39.0 L21.3 40.05 21.35 40.05 Q27.2 41.25 34.55 41.15 41.9 41.05 47.05 39.85 L47.1 39.85 Q49.1 39.4 50.2 38.95 L50.7 38.75 51.3 39.9 50.0 40.4 47.35 41.15 47.35 41.1 Q42.1 42.35 34.6 42.45 L21.05 41.35 17.6 40.4 16.55 40.15 16.9 38.85 17.35 39.0 M48.55 65.0 L48.65 64.85 49.2 65.2 49.75 65.55 48.6 66.7 46.75 67.75 Q42.35 69.75 34.75 69.85 27.15 69.9 22.25 67.45 L20.25 66.25 19.6 65.7 18.8 64.85 19.3 64.45 19.3 64.4 19.75 64.0 20.2 64.45 20.45 64.7 22.85 66.25 Q27.5 68.6 34.75 68.55 42.0 68.45 46.2 66.55 47.9 65.75 48.55 65.0" fill="#746e6b" fill-rule="evenodd" stroke="none"/>
    <path d="M50.2 38.95 Q49.1 39.4 47.1 39.85 L47.05 39.85 Q41.9 41.05 34.55 41.15 27.2 41.25 21.35 40.05 L21.3 40.05 17.35 39.0 17.0 36.95 Q18.4 37.55 20.7 37.95 L33.8 38.95 46.9 37.95 50.45 37.05 50.2 38.95 M17.6 40.4 L21.05 41.35 34.6 42.45 Q42.1 42.35 47.35 41.1 L47.35 41.15 50.0 40.4 48.15 54.4 48.55 65.0 Q47.9 65.75 46.2 66.55 42.0 68.45 34.75 68.55 27.5 68.6 22.85 66.25 L20.45 64.7 20.2 64.45 20.25 64.45 20.15 54.95 17.6 40.4 M48.6 66.7 L48.6 66.8 Q47.9 67.65 46.25 68.5 42.05 70.7 35.3 70.7 28.5 70.7 23.45 68.3 L20.75 66.7 20.25 66.25 22.25 67.45 Q27.15 69.9 34.75 69.85 42.35 69.75 46.75 67.75 L48.6 66.7 M19.3 64.45 L19.3 64.4 19.3 64.45 M24.2 44.65 L19.25 43.55 19.95 45.1 22.05 62.3 25.4 64.55 24.55 54.9 24.2 44.65 M36.05 44.65 L35.2 46.2 36.75 57.5 36.5 64.85 37.5 64.9 39.25 64.65 38.55 55.75 39.8 44.05 36.05 44.65 M42.05 45.6 L42.45 56.15 43.3 64.45 46.65 64.55 48.3 42.75 42.9 44.05 42.05 45.6 M28.35 46.2 L29.15 54.6 29.6 64.7 32.6 64.75 31.7 55.75 32.4 44.65 27.8 44.65 28.35 46.2" fill="#8d8a88" fill-rule="evenodd" stroke="none"/>
    <path d="M17.35 39.0 L16.9 38.85 16.55 40.15 17.6 40.4 20.15 54.95 20.25 64.45 20.2 64.45 19.75 64.0 19.3 64.4 19.3 64.45 18.8 64.85 19.6 65.7 20.25 66.25 20.75 66.7 23.45 68.3 Q28.5 70.7 35.3 70.7 42.05 70.7 46.25 68.5 47.9 67.65 48.6 66.8 L48.6 66.7 49.75 65.55 49.2 65.2 48.65 64.85 48.55 65.0 48.15 54.4 50.0 40.4 51.3 39.9 50.7 38.75 50.2 38.95 50.45 37.05 Q52.35 36.35 52.85 35.45 L50.3 54.5 50.85 67.5 50.65 67.75 Q49.75 69.1 47.25 70.45 42.65 72.9 35.3 72.9 27.95 72.9 22.55 70.3 L22.55 70.25 Q20.8 69.45 19.45 68.45 L19.4 68.4 18.1 67.3 18.0 55.1 14.25 33.75 14.95 33.7 Q14.6 34.15 14.65 34.65 14.55 36.0 17.0 36.95 L17.35 39.0" fill="#746e6a" fill-rule="evenodd" stroke="none"/>
    <path d="M19.25 19.4 Q16.85 14.75 21.3 11.25 L21.35 11.2 Q26.0 7.8 29.7 10.7 L30.7 11.6 31.1 12.05 31.9 13.15 32.4 13.8 33.05 14.95 31.25 16.1 30.5 14.9 30.15 14.35 29.2 13.2 28.4 12.45 Q25.85 10.6 22.55 13.0 L22.6 12.95 Q19.55 15.35 21.25 18.6 L22.5 20.4 23.85 21.65 22.55 23.4 20.85 21.75 19.55 20.0 19.35 19.6 19.25 19.4 M21.55 18.4 Q21.1 17.15 21.4 16.1 21.65 14.7 23.1 13.6 24.95 12.25 26.55 12.4 L26.6 12.4 Q27.75 12.55 28.75 13.45 L26.35 14.9 21.55 18.4" fill="#76716f" fill-rule="evenodd" stroke="none"/>
    <path d="M19.25 19.4 L19.35 19.6 19.55 20.0 16.05 23.25 Q11.45 28.1 13.15 30.1 14.3 32.35 20.55 30.1 25.8 28.2 32.3 24.0 38.75 19.7 42.6 15.65 47.2 10.85 45.55 8.8 44.35 6.55 38.1 8.8 34.85 9.95 31.1 12.05 L30.7 11.6 Q35.45 9.0 39.1 7.75 44.0 6.25 45.05 8.05 L46.85 10.5 46.9 10.55 Q47.35 11.15 47.25 11.95 47.85 13.85 44.1 17.8 40.25 21.9 33.85 26.1 27.45 30.25 22.2 32.15 17.55 33.8 15.95 32.95 14.65 32.8 14.2 32.0 L14.2 32.05 12.4 29.5 Q11.2 28.05 13.95 24.65 15.85 22.2 19.25 19.4 M21.25 18.6 Q19.55 15.35 22.6 12.95 L22.55 13.0 Q25.85 10.6 28.4 12.45 L29.2 13.2 28.75 13.45 Q27.75 12.55 26.6 12.4 L26.55 12.4 Q24.95 12.25 23.1 13.6 21.65 14.7 21.4 16.1 21.1 17.15 21.55 18.4 L21.25 18.6" fill="#bbb9b7" fill-rule="evenodd" stroke="none"/>
    <path d="M19.55 20.0 L20.85 21.75 Q19.0 23.3 17.65 24.8 14.6 27.95 14.9 28.9 L15.65 29.1 Q16.9 29.15 19.8 28.1 24.9 26.25 31.2 22.1 37.35 18.05 41.1 14.1 43.35 11.8 43.7 10.7 L43.75 10.0 Q43.0 9.35 38.85 10.8 35.8 11.95 32.4 13.8 L31.9 13.15 31.1 12.05 Q34.85 9.95 38.1 8.8 44.35 6.55 45.55 8.8 47.2 10.85 42.6 15.65 38.75 19.7 32.3 24.0 25.8 28.2 20.55 30.1 14.3 32.35 13.15 30.1 11.45 28.1 16.05 23.25 L19.55 20.0 M22.5 20.4 L21.25 18.6 21.55 18.4 26.35 14.9 28.75 13.45 29.2 13.2 30.15 14.35 30.5 14.9 27.55 16.75 22.5 20.4" fill="#746e6a" fill-rule="evenodd" stroke="none"/>
    <path d="M20.85 21.75 L22.55 23.4 23.85 21.65 22.5 20.4 27.55 16.75 30.5 14.9 31.25 16.1 33.05 14.95 32.4 13.8 Q35.8 11.95 38.85 10.8 43.0 9.35 43.75 10.0 L43.7 10.7 Q43.35 11.8 41.1 14.1 37.35 18.05 31.2 22.1 24.9 26.25 19.8 28.1 16.9 29.15 15.65 29.1 L14.9 28.9 Q14.6 27.95 17.65 24.8 19.0 23.3 20.85 21.75" fill="#8d8a88" fill-rule="evenodd" stroke="none"/>
  </g>
</svg>
