<?xml version="1.0" encoding="UTF-8" standalone="no"?>
<svg xmlns:xlink="http://www.w3.org/1999/xlink" height="45.05px" width="45.1px" xmlns="http://www.w3.org/2000/svg">
  <g transform="matrix(1.0, 0.0, 0.0, 1.0, 0.0, 0.0)">
    <path d="M36.8 40.85 L22.8 26.45 8.55 40.7 36.8 40.85 M19.1 22.7 L4.45 7.65 4.45 37.35 19.1 22.7 M23.1 18.65 L38.05 3.75 8.45 3.6 23.1 18.65 M42.95 0.0 Q43.8 0.0 44.45 0.6 45.1 1.25 45.1 2.1 L45.1 42.9 Q45.1 43.8 44.45 44.45 43.8 45.05 42.95 45.05 L2.15 45.05 Q1.25 45.05 0.65 44.45 0.0 43.8 0.0 42.9 L0.0 2.1 Q0.0 1.25 0.65 0.6 1.25 0.0 2.15 0.0 L42.95 0.0 M41.05 37.1 L41.05 8.2 26.8 22.45 41.05 37.1" fill="#ffffff" fill-rule="evenodd" stroke="none"/>
  </g>
</svg>
