<?xml version="1.0" encoding="UTF-8" standalone="no"?>
<svg xmlns:xlink="http://www.w3.org/1999/xlink" height="15.35px" width="16.5px" xmlns="http://www.w3.org/2000/svg">
  <g transform="matrix(1.0, 0.0, 0.0, 1.0, -1.0, -2.2)">
    <path d="M10.95 2.25 L12.55 2.45 Q13.8 2.65 15.6 4.05 L16.7 5.65 Q17.95 7.95 17.3 11.2 L16.4 13.7 15.85 14.95 15.05 16.0 Q13.2 17.7 9.5 17.55 6.1 17.35 3.9 15.9 1.2 14.05 1.0 10.25 0.8 6.45 3.15 4.45 5.2 2.75 9.35 2.25 L10.95 2.25" fill="#ffffff" fill-rule="evenodd" stroke="none"/>
    <path d="M13.8 9.6 Q13.85 11.55 13.15 12.95 12.4 14.35 11.4 14.35 10.4 14.35 9.6 13.05 L7.25 11.4 6.25 11.3 6.4 11.45 5.3 11.75 Q4.9 10.7 4.9 9.7 L5.0 8.5 5.15 8.1 6.25 8.35 6.15 8.4 7.4 8.15 9.5 6.3 Q10.25 4.9 11.25 4.9 12.3 4.9 13.05 6.3 13.75 7.65 13.8 9.6" fill="#726b6a" fill-rule="evenodd" stroke="none"/>
    <path d="M13.65 6.45 Q14.25 7.85 14.3 9.6 14.3 11.45 13.65 12.8 L12.75 14.2 Q12.1 14.8 11.4 14.8 L10.6 14.6 Q9.9 14.35 9.3 13.4 L7.1 11.85 6.7 11.8 5.05 12.3 4.9 11.9 Q4.45 10.8 4.45 9.7 L4.55 8.4 4.7 7.9 4.85 7.55 6.35 7.9 6.4 7.9 7.2 7.75 9.15 6.05 Q9.45 5.4 10.0 4.95 10.55 4.45 11.25 4.45 L12.0 4.6 Q13.0 5.1 13.65 6.45 M11.25 5.4 L10.55 5.65 Q10.15 6.05 9.9 6.55 L9.9 6.6 7.6 8.6 5.35 9.0 5.35 9.7 5.6 11.2 5.75 11.2 5.55 10.8 7.4 10.95 10.0 12.75 10.0 12.85 Q10.4 13.55 10.95 13.8 L11.35 13.9 Q11.75 13.9 12.15 13.55 L12.85 12.5 Q13.4 11.35 13.4 9.6 13.3 7.95 12.85 6.8 12.35 5.7 11.7 5.45 L11.25 5.4" fill="#4b4c4e" fill-rule="evenodd" stroke="none"/>
    <path d="M10.85 5.2 L11.15 14.1 7.3 11.45 5.75 11.25 5.5 8.55 7.4 8.2 10.85 5.2" fill="#969393" fill-rule="evenodd" stroke="none"/>
    <path d="M10.95 5.0 L11.25 14.3 7.3 11.5 5.7 11.35 5.4 8.5 7.4 8.1 10.8 5.1 10.95 5.0 M5.6 8.6 L5.85 11.2 7.3 11.35 11.05 13.95 10.8 5.4 7.45 8.25 5.6 8.6" fill="#4b4c4e" fill-rule="evenodd" stroke="none"/>
    <path d="M5.95 8.7 L7.35 8.6 9.25 7.05 9.05 8.3 7.4 9.05 5.85 9.15 5.95 8.7" fill="#d4d4d3" fill-rule="evenodd" stroke="none"/>
    <path d="M13.85 9.6 Q13.9 11.6 13.15 12.95 12.5 14.35 11.45 14.35 10.4 14.35 9.6 13.0 8.9 11.6 8.85 9.65 8.85 7.7 9.55 6.35 10.25 4.95 11.3 4.95 12.35 4.9 13.1 6.3 13.8 7.65 13.85 9.6" fill="#4b4c4e" fill-rule="evenodd" stroke="none"/>
    <path d="M11.3 4.85 L11.95 5.0 Q12.8 5.4 13.4 6.65 13.9 7.95 13.95 9.6 13.95 11.35 13.4 12.7 12.65 14.45 11.45 14.45 L10.8 14.35 Q9.9 13.95 9.35 12.65 8.8 11.35 8.75 9.65 8.75 7.95 9.35 6.6 10.05 4.85 11.3 4.85 M11.3 5.0 Q10.25 5.0 9.5 6.65 8.95 8.0 8.95 9.65 9.0 11.3 9.5 12.55 10.05 13.8 10.85 14.15 L11.45 14.25 Q12.5 14.25 13.25 12.65 13.75 11.25 13.75 9.6 13.75 7.95 13.2 6.7 12.65 5.5 11.85 5.1 L11.3 5.0" fill="#a4a5a7" fill-rule="evenodd" stroke="none"/>
    <path d="M13.5 9.55 Q13.5 11.25 12.85 12.5 12.25 13.7 11.3 13.75 10.4 13.75 9.75 12.5 9.1 11.3 9.05 9.55 9.0 7.85 9.65 6.6 10.25 5.4 11.2 5.35 12.1 5.35 12.8 6.55 13.45 7.8 13.5 9.55" fill="#8d8e90" fill-rule="evenodd" stroke="none"/>
    <path d="M11.75 5.4 Q12.55 5.75 13.05 6.85 13.55 8.0 13.55 9.55 13.6 11.05 13.1 12.25 12.35 13.8 11.3 13.8 L10.75 13.7 Q10.0 13.35 9.5 12.25 9.0 11.1 8.95 9.55 8.95 8.0 9.45 6.8 10.1 5.25 11.2 5.25 L11.75 5.4 M11.2 5.45 Q10.25 5.45 9.6 6.9 9.1 8.0 9.1 9.55 9.15 11.0 9.65 12.15 10.15 13.25 10.8 13.55 L11.3 13.65 Q12.25 13.65 12.9 12.2 13.45 11.05 13.4 9.55 13.4 8.1 12.85 6.95 12.4 5.85 11.7 5.55 L11.2 5.45" fill="#4b4c4e" fill-rule="evenodd" stroke="none"/>
    <path d="M11.6 9.65 Q11.6 10.45 11.15 10.95 10.7 11.5 10.0 11.5 L9.35 11.35 9.25 9.65 Q9.2 8.9 9.3 8.1 L10.0 7.9 Q10.65 7.9 11.15 8.4 11.6 8.95 11.6 9.65" fill="#d1d2d4" fill-rule="evenodd" stroke="none"/>
    <path d="M10.0 7.8 L10.65 7.9 Q11.7 8.35 11.7 9.65 L11.55 10.55 Q11.1 11.6 10.05 11.6 L9.4 11.5 9.25 11.45 9.25 11.35 9.1 9.65 9.2 8.1 9.2 8.0 9.25 7.95 10.0 7.8 M9.4 8.15 L9.35 9.65 9.5 11.3 10.0 11.4 Q10.95 11.4 11.3 10.45 L11.5 9.7 Q11.45 8.55 10.55 8.1 L10.0 8.0 9.4 8.15" fill="#4b4c4e" fill-rule="evenodd" stroke="none"/>
    <path d="M6.25 8.35 L6.15 8.55 Q6.0 8.9 6.0 9.7 6.05 10.95 6.4 11.45 L5.35 11.75 Q4.95 10.7 4.95 9.7 L5.1 8.5 5.2 8.1 6.25 8.35" fill="#726b6a" fill-rule="evenodd" stroke="none"/>
    <path d="M5.15 8.55 Q5.0 9.15 5.0 9.7 L5.2 11.1 5.4 11.65 6.25 11.4 Q5.95 10.75 5.95 9.7 5.95 8.8 6.1 8.45 L6.1 8.4 5.2 8.2 5.15 8.55 M6.25 8.5 Q6.1 8.95 6.1 9.7 6.1 10.6 6.4 11.35 L6.5 11.4 6.55 11.5 5.3 11.85 5.25 11.8 Q4.85 10.75 4.85 9.7 L4.95 8.5 5.1 8.05 5.1 7.95 6.6 8.35 6.3 8.45 6.25 8.5" fill="#4b4c4e" fill-rule="evenodd" stroke="none"/>
  </g>
</svg>
