<?xml version="1.0" encoding="UTF-8" standalone="no"?>
<svg xmlns:xlink="http://www.w3.org/1999/xlink" height="68.55px" width="58.1px" xmlns="http://www.w3.org/2000/svg">
  <g transform="matrix(1.0, 0.0, 0.0, 1.0, 0.0, 0.0)">
    <path d="M50.55 20.15 L57.15 21.5 52.1 26.0 58.1 29.05 52.1 32.1 57.15 36.55 50.55 37.95 54.25 43.55 47.5 43.2 49.6 49.6 43.2 47.5 43.6 54.2 37.95 50.5 36.55 57.1 32.1 52.05 29.05 58.1 26.05 52.05 21.55 57.1 20.15 50.5 14.55 54.2 14.9 47.5 8.5 49.6 10.65 43.2 3.9 43.55 7.6 37.95 1.0 36.55 6.0 32.1 0.0 29.05 6.0 26.0 1.0 21.5 7.6 20.15 3.9 14.5 10.65 14.9 8.5 8.5 14.9 10.6 14.55 3.9 20.15 7.55 21.55 1.0 26.05 6.0 29.05 0.0 32.1 6.0 36.55 1.0 37.95 7.55 43.6 3.9 43.2 10.6 49.6 8.5 47.5 14.9 54.25 14.5 50.55 20.15" fill="#e4e4df" fill-rule="evenodd" stroke="none"/>
    <path d="M53.6 22.5 L49.2 26.4 54.45 29.05 49.2 31.7 53.6 35.6 47.85 36.8 51.05 41.75 45.15 41.4 47.0 47.0 41.4 45.15 41.75 51.0 36.85 47.8 35.65 53.55 31.7 49.15 29.05 54.45 26.4 49.15 22.5 53.55 21.3 47.8 16.35 51.0 16.7 45.15 11.1 47.0 12.95 41.4 7.05 41.75 10.3 36.8 4.55 35.6 8.9 31.7 3.7 29.05 8.9 26.4 4.55 22.5 10.3 21.25 7.05 16.35 12.95 16.65 11.1 11.1 16.7 12.9 16.35 7.05 21.3 10.3 22.5 4.5 26.4 8.9 29.05 3.65 31.7 8.9 35.65 4.5 36.85 10.3 41.75 7.05 41.4 12.9 47.0 11.1 45.15 16.65 51.05 16.35 47.85 21.25 53.6 22.5" fill="#98c4c7" fill-rule="evenodd" stroke="none"/>
    <path d="M43.05 29.25 Q43.05 34.9 39.05 38.95 35.0 42.95 29.35 42.95 23.65 42.95 19.65 38.95 15.65 34.9 15.65 29.25 15.65 23.6 19.65 19.55 23.65 15.55 29.35 15.55 35.0 15.55 39.05 19.55 43.05 23.6 43.05 29.25" fill="#facd00" fill-rule="evenodd" stroke="none"/>
    <path d="M43.05 29.25 Q43.05 23.6 39.05 19.55 35.0 15.55 29.35 15.55 23.65 15.55 19.65 19.55 15.65 23.6 15.65 29.25 15.65 34.9 19.65 38.95 23.65 42.95 29.35 42.95 35.0 42.95 39.05 38.95 43.05 34.9 43.05 29.25 Z" fill="none" stroke="#618c8b" stroke-linecap="butt" stroke-linejoin="miter" stroke-width="5.0"/>
    <path d="M21.2 29.0 Q21.2 25.65 23.6 23.25 25.95 20.85 29.35 20.85 32.7 20.85 35.1 23.25 37.5 25.65 37.5 29.0 37.5 32.4 35.1 34.75 32.7 37.15 29.35 37.15 25.95 37.15 23.6 34.75 21.2 32.4 21.2 29.0" fill="#ffffff" fill-rule="evenodd" stroke="none"/>
    <path d="M21.2 29.0 Q21.2 32.4 23.6 34.75 25.95 37.15 29.35 37.15 32.7 37.15 35.1 34.75 37.5 32.4 37.5 29.0 37.5 25.65 35.1 23.25 32.7 20.85 29.35 20.85 25.95 20.85 23.6 23.25 21.2 25.65 21.2 29.0 Z" fill="none" stroke="#f6f1a3" stroke-linecap="butt" stroke-linejoin="miter" stroke-width="3.0"/>
    <path d="M30.75 35.1 Q36.75 34.0 38.1 35.6 41.75 39.85 41.1 48.35 40.65 54.25 39.0 58.2 L32.35 50.7 25.7 62.85 Q26.65 56.4 27.05 49.85 27.85 36.75 25.05 36.5 L30.75 35.1" fill="#883224" fill-rule="evenodd" stroke="none"/>
    <path d="M30.75 35.1 Q36.75 34.0 38.1 35.6 41.75 39.85 41.1 48.35 40.65 54.25 39.0 58.2 L32.35 50.7 25.7 62.85 Q26.65 56.4 27.05 49.85 27.85 36.75 25.05 36.5 L30.75 35.1 Z" fill="none" stroke="#883224" stroke-linecap="butt" stroke-linejoin="miter" stroke-width="3.0"/>
    <path d="M31.5 35.65 Q36.8 34.7 38.0 36.1 41.25 39.85 40.6 47.3 40.25 52.5 38.75 55.95 L32.9 49.4 27.05 60.1 Q27.9 54.35 28.25 48.6 28.95 37.1 26.5 36.9 L31.5 35.65" fill="#bd4734" fill-rule="evenodd" stroke="none"/>
  </g>
</svg>
