<?xml version="1.0" encoding="UTF-8" standalone="no"?>
<svg xmlns:xlink="http://www.w3.org/1999/xlink" height="61.15px" width="60.0px" xmlns="http://www.w3.org/2000/svg">
  <g transform="matrix(1.0, 0.0, 0.0, 1.0, 0.0, 0.0)">
    <path d="M58.8 19.6 L58.85 19.6 Q61.6 27.65 57.8 36.95 54.5 45.05 49.25 48.3 50.05 48.15 50.5 49.75 51.45 53.25 53.2 55.35 L57.65 60.9 50.7 61.15 Q45.4 61.45 38.35 57.6 L38.25 57.55 34.45 55.35 34.4 55.3 Q34.1 55.1 34.5 55.0 L26.35 55.4 Q21.45 54.95 16.75 53.05 5.0 48.35 1.65 38.1 -2.15 26.8 2.85 16.3 L2.85 16.25 Q7.9 5.6 19.05 1.65 24.5 -0.25 32.05 0.05 39.6 0.4 44.45 2.8 49.4 5.25 53.2 9.65 56.95 14.0 58.8 19.6 M47.85 14.2 Q45.1 10.85 41.4 9.1 37.6 7.3 31.75 7.05 25.75 6.75 21.4 8.25 13.0 11.2 9.15 19.25 5.4 27.25 8.25 35.85 L8.3 35.85 Q10.85 43.15 19.35 46.6 23.1 48.1 27.0 48.45 L33.1 48.15 33.15 48.15 Q34.35 47.25 37.9 49.25 L37.9 49.3 37.95 49.3 41.7 51.45 41.75 51.5 44.1 52.65 43.8 51.6 Q41.7 43.85 45.45 42.4 49.0 40.0 51.3 34.3 54.05 27.6 52.2 21.8 50.75 17.55 47.85 14.2" fill="#c8c9bf" fill-rule="evenodd" stroke="none"/>
    <path d="M47.85 14.2 Q50.75 17.55 52.2 21.8 54.05 27.6 51.3 34.3 49.0 40.0 45.45 42.4 41.7 43.85 43.8 51.6 L44.1 52.65 41.75 51.5 41.7 51.45 37.95 49.3 37.9 49.3 37.9 49.25 Q34.35 47.25 33.15 48.15 L33.1 48.15 27.0 48.45 Q23.1 48.1 19.35 46.6 10.85 43.15 8.3 35.85 L8.25 35.85 Q5.4 27.25 9.15 19.25 13.0 11.2 21.4 8.25 25.75 6.75 31.75 7.05 37.6 7.3 41.4 9.1 45.1 10.85 47.85 14.2" fill="#ffffff" fill-rule="evenodd" stroke="none"/>
    <path d="M56.35 35.65 Q53.2 43.25 48.3 46.4 48.0 46.95 48.8 49.9 49.9 53.9 51.95 56.35 L53.85 58.8 50.7 59.25 Q45.65 59.5 39.0 55.85 L38.95 55.8 35.05 53.55 34.2 52.9 26.1 53.4 Q21.3 52.95 16.8 51.15 5.55 46.65 2.35 36.9 -1.25 26.1 3.5 16.0 8.35 5.75 19.05 2.0 24.35 0.1 31.6 0.45 38.9 0.8 43.6 3.1 48.35 5.4 51.95 9.65 55.55 13.85 57.35 19.2 59.95 26.8 56.35 35.65 M54.0 20.35 Q52.45 15.6 49.25 11.9 46.15 8.25 42.05 6.25 37.9 4.25 31.45 3.95 24.95 3.65 20.2 5.3 10.9 8.55 6.7 17.5 2.5 26.35 5.65 35.8 8.5 44.05 18.1 47.9 22.15 49.5 26.4 49.95 L33.3 49.55 Q34.15 49.05 36.8 50.55 L40.65 52.75 Q44.2 54.65 47.15 55.35 46.1 53.35 45.4 50.8 43.8 44.7 46.4 43.45 50.45 40.8 53.1 34.3 56.15 26.8 54.0 20.35" fill="#6f6966" fill-opacity="0.25882354" fill-rule="evenodd" stroke="none"/>
    <path d="M54.0 20.35 Q56.15 26.8 53.1 34.3 50.45 40.8 46.4 43.45 43.8 44.7 45.4 50.8 46.1 53.35 47.15 55.35 44.2 54.65 40.65 52.75 L36.8 50.55 Q34.15 49.05 33.3 49.55 L26.4 49.95 Q22.15 49.5 18.1 47.9 8.5 44.05 5.65 35.8 2.5 26.35 6.7 17.5 10.9 8.55 20.2 5.3 24.95 3.65 31.45 3.95 37.9 4.25 42.05 6.25 46.15 8.25 49.25 11.9 52.45 15.6 54.0 20.35" fill="#ffffff" fill-opacity="0.25882354" fill-rule="evenodd" stroke="none"/>
    <path d="M26.7 15.5 L26.1 19.7 26.0 24.7 28.8 24.6 31.25 25.2 32.45 19.8 33.95 15.6 26.7 15.5 M40.3 11.25 L36.75 21.15 34.65 30.65 28.4 29.15 21.35 29.4 21.6 19.35 22.8 10.95 40.3 11.25" fill="#bb8011" fill-rule="evenodd" stroke="none"/>
    <path d="M26.7 15.5 L33.95 15.6 32.45 19.8 31.25 25.2 28.8 24.6 26.0 24.7 26.1 19.7 26.7 15.5" fill="#facd00" fill-rule="evenodd" stroke="none"/>
    <path d="M32.95 27.9 L28.6 26.85 23.65 27.05 23.85 19.55 24.75 13.2 37.15 13.45 34.6 20.55 32.95 27.9" fill="#facd00" fill-rule="evenodd" stroke="none"/>
    <path d="M30.6 25.2 L31.35 20.15 31.35 20.1 32.35 15.2 25.2 13.1 37.45 13.2 33.75 28.05 28.6 27.0 30.6 25.2" fill="#deae00" fill-rule="evenodd" stroke="none"/>
    <path d="M27.65 13.0 L25.45 26.8 23.6 27.35 24.45 13.6 25.2 13.1 27.65 13.0" fill="#f6f1a3" fill-rule="evenodd" stroke="none"/>
    <path d="M19.5 41.7 L19.45 41.7 Q17.4 39.1 18.55 36.15 19.5 33.5 22.75 32.2 25.55 31.05 28.65 31.7 32.05 32.35 33.7 34.6 35.8 37.25 34.65 40.15 L34.65 40.2 Q33.7 42.75 30.5 44.1 27.65 45.25 24.5 44.6 21.2 43.95 19.5 41.7 M27.8 36.1 L24.4 36.4 Q23.2 36.85 22.75 37.75 22.55 38.4 23.0 38.95 23.85 39.9 25.4 40.25 L28.8 39.95 Q30.0 39.45 30.45 38.55 30.6 37.95 30.2 37.4 L30.15 37.4 Q29.35 36.4 27.8 36.1" fill="#bb8011" fill-rule="evenodd" stroke="none"/>
    <path d="M27.8 36.1 Q29.35 36.4 30.15 37.4 L30.2 37.4 Q30.6 37.95 30.45 38.55 30.0 39.45 28.8 39.95 L25.4 40.25 Q23.85 39.9 23.0 38.95 22.55 38.4 22.75 37.75 23.2 36.85 24.4 36.4 L27.8 36.1" fill="#facd00" fill-rule="evenodd" stroke="none"/>
    <path d="M32.55 39.35 Q31.85 41.1 29.65 42.0 27.45 42.9 24.95 42.4 22.5 41.9 21.25 40.35 20.0 38.75 20.65 36.95 21.35 35.2 23.55 34.3 25.8 33.4 28.25 33.9 30.7 34.4 31.95 36.0 33.2 37.6 32.55 39.35" fill="#facd00" fill-rule="evenodd" stroke="none"/>
    <path d="M26.15 34.0 L29.6 34.35 29.65 34.35 29.65 34.4 Q32.5 35.15 32.95 37.85 33.25 39.6 31.6 41.35 L29.9 42.7 29.85 42.75 24.85 42.85 24.8 42.75 25.7 42.35 Q26.75 41.9 27.75 41.1 29.6 39.55 29.2 37.9 28.8 36.25 27.85 35.25 L26.15 34.0" fill="#deae00" fill-rule="evenodd" stroke="none"/>
    <path d="M25.9 35.1 Q25.95 35.85 25.4 36.4 24.9 36.95 24.05 37.05 23.25 37.1 22.6 36.65 21.95 36.2 21.9 35.5 21.85 34.8 22.4 34.2 22.9 33.65 23.75 33.6 24.55 33.5 25.2 33.95 25.8 34.4 25.9 35.1" fill="#f6f1a3" fill-rule="evenodd" stroke="none"/>
  </g>
</svg>
