<?xml version="1.0" encoding="UTF-8" standalone="no"?>
<svg xmlns:xlink="http://www.w3.org/1999/xlink" height="15.6px" width="18.3px" xmlns="http://www.w3.org/2000/svg">
  <g transform="matrix(1.0, 0.0, 0.0, 1.0, 7.2, 0.0)">
    <path d="M11.1 8.05 Q11.05 9.7 9.85 10.85 8.6 12.0 6.95 12.0 L3.6 12.0 Q2.15 12.05 1.1 13.1 0.05 14.15 0.0 15.6 L0.0 7.2 Q-0.1 4.25 -2.15 2.2 -4.25 0.1 -7.2 0.0 L6.95 0.0 Q8.6 0.1 9.85 1.25 11.0 2.3 11.1 3.95 L11.1 8.05" fill="#ffffff" fill-opacity="0.3019608" fill-rule="evenodd" stroke="none"/>
    <path d="M8.5 9.5 Q7.05 10.95 5.0 11.0 2.9 11.0 1.45 9.5 -0.05 8.05 0.0 6.0 -0.05 3.95 1.45 2.5 L1.45 2.45 Q2.9 0.95 5.0 1.0 7.05 1.0 8.5 2.5 L8.5 2.45 Q10.0 3.95 10.0 6.0 9.95 8.05 8.5 9.5" fill="#000000" fill-opacity="0.7019608" fill-rule="evenodd" stroke="none"/>
    <path d="M8.4 2.5 L8.4 3.3 6.95 4.7 5.65 6.15 7.05 7.65 8.4 8.95 8.4 9.35 7.3 9.35 Q7.1 8.8 6.3 7.95 L4.95 6.55 4.0 7.45 3.15 8.4 2.55 8.9 Q2.2 9.15 2.4 9.35 L1.4 9.35 1.4 8.55 4.25 5.7 2.8 4.4 1.4 3.15 1.4 2.5 2.2 2.5 3.4 3.8 5.0 5.25 6.35 3.85 7.7 2.5 8.4 2.5" fill="#ffffff" fill-rule="evenodd" stroke="none"/>
    <path d="M8.5 2.45 Q10.0 3.95 10.0 6.0 9.95 8.05 8.5 9.5 7.05 10.95 5.0 11.0 2.9 11.0 1.45 9.5 -0.05 8.05 0.0 6.0 -0.05 3.95 1.45 2.5 L1.45 2.45 Q2.9 0.95 5.0 1.0 7.05 1.0 8.5 2.5 L8.5 2.45 M9.1 6.0 Q9.1 4.3 7.85 3.1 6.7 1.85 5.0 1.9 3.25 1.9 2.1 3.1 0.9 4.3 0.9 6.0 0.9 7.7 2.1 8.9 3.25 10.1 5.0 10.1 6.7 10.1 7.85 8.9 L7.9 8.9 Q9.1 7.7 9.1 6.0" fill="#ffffff" fill-rule="evenodd" stroke="none"/>
  </g>
</svg>
