<?xml version="1.0" encoding="UTF-8" standalone="no"?>
<svg xmlns:xlink="http://www.w3.org/1999/xlink" height="15.55px" width="16.75px" xmlns="http://www.w3.org/2000/svg">
  <g transform="matrix(1.0, 0.0, 0.0, 1.0, -1.15, -2.15)">
    <path d="M12.85 2.4 Q14.2 2.55 15.95 4.0 16.4 4.35 17.1 5.65 18.4 8.05 17.65 11.2 L16.8 13.85 16.2 15.05 15.45 16.15 Q13.5 17.85 9.8 17.7 6.35 17.5 4.05 16.05 1.35 14.15 1.15 10.3 0.95 6.45 3.35 4.45 5.4 2.7 9.65 2.2 L11.25 2.2 12.85 2.4" fill="#ffffff" fill-rule="evenodd" stroke="none"/>
    <path d="M10.55 4.4 L11.8 5.4 Q12.85 6.2 13.35 6.85 14.35 8.25 13.9 10.15 13.7 9.05 13.1 8.2 L11.75 6.8 11.45 6.75 11.25 9.35 11.15 12.95 Q11.2 13.6 10.4 14.15 9.55 14.8 8.3 14.8 L6.25 14.4 Q5.55 14.0 5.5 13.35 5.4 11.95 7.9 11.85 9.55 11.7 10.45 12.35 L10.1 4.15 Q10.2 4.0 10.55 4.4" fill="#8d8e90" fill-rule="evenodd" stroke="none"/>
    <path d="M10.45 4.0 L10.7 4.25 11.95 5.25 13.5 6.8 Q14.2 7.7 14.2 9.1 L14.1 10.2 13.7 10.2 13.5 9.5 12.95 8.3 11.9 7.1 11.6 6.9 11.35 13.0 Q11.35 13.7 10.5 14.35 9.6 14.95 8.3 15.0 L8.0 15.0 Q6.85 15.0 6.1 14.5 5.4 14.05 5.3 13.35 L5.3 13.3 Q5.3 12.6 5.95 12.15 6.7 11.7 7.9 11.65 L8.35 11.65 10.2 11.95 9.85 4.25 10.0 3.95 10.15 3.95 10.45 4.0 M10.3 4.45 L10.65 12.7 10.3 12.45 Q9.6 12.0 8.35 12.0 L7.95 12.0 Q6.75 12.05 6.2 12.45 5.7 12.85 5.7 13.3 L5.7 13.35 Q5.75 13.85 6.3 14.2 6.95 14.6 8.0 14.6 L8.3 14.6 Q9.45 14.6 10.25 14.05 10.95 13.55 10.95 13.0 L10.95 12.95 11.15 7.1 11.25 6.7 11.25 6.65 Q11.25 6.55 11.55 6.55 L12.2 6.85 13.25 8.1 13.8 9.1 Q13.8 7.9 13.2 7.0 12.7 6.3 11.65 5.5 L10.35 4.45 10.3 4.45" fill="#4b4c4e" fill-rule="evenodd" stroke="none"/>
  </g>
</svg>
