<?xml version="1.0" encoding="UTF-8" standalone="no"?>
<svg xmlns:xlink="http://www.w3.org/1999/xlink" height="28.8px" width="83.3px" xmlns="http://www.w3.org/2000/svg">
  <g transform="matrix(1.0, 0.0, 0.0, 1.0, 40.65, -11.6)">
    <path d="M-30.5 28.15 L-33.4 32.1 -30.95 36.3 -33.7 36.8 -35.55 34.25 -35.65 36.95 -38.1 37.05 -37.9 27.9 -35.15 28.05 -35.35 30.75 -33.5 27.9 -30.5 28.15" fill="#2e666d" fill-rule="evenodd" stroke="none"/>
    <path d="M-34.95 25.55 L-34.8 25.3 -25.85 26.0 -30.4 32.25 -27.0 38.15 -33.2 39.25 -33.2 39.35 -33.8 39.35 -34.85 39.55 -34.95 39.4 -40.65 39.65 -40.35 25.25 -34.95 25.55" fill="#2e666d" fill-rule="evenodd" stroke="none"/>
    <path d="M-27.3 28.05 L-27.75 33.5 -25.35 33.5 -25.6 36.15 -30.6 36.55 -30.4 28.05 -27.3 28.05" fill="#2e666d" fill-rule="evenodd" stroke="none"/>
    <path d="M-33.15 39.25 L-32.85 25.55 -24.6 25.55 -25.05 31.0 -22.6 31.0 -23.3 38.5 -33.15 39.25" fill="#2e666d" fill-rule="evenodd" stroke="none"/>
    <path d="M-24.9 36.55 L-25.15 28.45 -21.95 28.3 -22.4 36.4 -24.9 36.55" fill="#2e666d" fill-rule="evenodd" stroke="none"/>
    <path d="M-27.3 39.15 L-27.7 26.1 -19.3 25.65 -20.0 38.75 -27.3 39.15" fill="#2e666d" fill-rule="evenodd" stroke="none"/>
    <path d="M-19.25 28.6 L-17.45 28.25 -16.6 28.3 -15.8 28.55 -16.0 31.05 -16.7 30.95 -17.5 31.05 Q-18.0 31.25 -18.15 31.4 L-18.65 31.95 -18.8 32.75 -18.7 33.35 -18.45 33.75 -18.0 34.0 -16.95 34.05 -16.05 33.75 -15.65 33.5 -15.75 36.3 -16.8 36.7 -17.4 36.8 -17.9 36.8 -19.45 36.5 -20.65 35.65 -21.4 34.4 -21.7 32.85 -21.4 31.0 Q-21.2 30.2 -20.6 29.55 L-19.25 28.6" fill="#2e666d" fill-rule="evenodd" stroke="none"/>
    <path d="M-13.0 28.95 L-13.3 37.85 -14.6 38.55 -15.45 38.9 -16.25 39.1 -17.05 39.25 -17.9 39.3 -20.5 38.8 -22.5 37.35 Q-23.3 36.5 -23.75 35.25 -24.2 34.15 -24.2 32.85 -24.2 31.55 -23.8 30.25 -23.4 29.05 -22.5 27.9 -21.6 26.9 -20.3 26.3 -18.5 25.5 -16.25 25.8 -15.4 25.95 -14.75 26.25 L-13.15 27.0 -13.35 29.15 -13.0 28.95" fill="#2e666d" fill-rule="evenodd" stroke="none"/>
    <path d="M-7.9 29.0 L-10.55 32.1 -8.1 36.2 -10.9 36.7 -12.7 34.25 -12.8 36.55 -15.25 36.65 -15.1 28.15 -12.3 28.3 -12.5 30.75 -10.8 28.25 -7.9 29.0" fill="#2e666d" fill-rule="evenodd" stroke="none"/>
    <path d="M-12.15 25.8 L-11.85 25.4 -9.6 25.95 -9.6 26.0 -3.4 27.5 -7.5 32.35 -4.15 38.05 -12.0 39.4 -12.25 39.05 -15.3 39.15 -15.85 39.9 -15.75 39.2 -17.85 39.25 -17.5 25.5 -12.15 25.8" fill="#2e666d" fill-rule="evenodd" stroke="none"/>
    <path d="M0.55 27.6 L3.2 27.75 3.05 31.8 4.3 31.8 4.3 27.45 6.85 27.5 7.05 35.5 4.25 35.65 4.2 33.05 2.9 33.05 2.85 35.5 0.3 35.5 0.55 27.6" fill="#2e666d" fill-rule="evenodd" stroke="none"/>
    <path d="M1.75 38.3 L1.75 38.0 -2.25 38.0 -1.9 25.0 1.8 25.2 1.8 24.85 9.3 25.05 9.6 37.9 1.75 38.3" fill="#2e666d" fill-rule="evenodd" stroke="none"/>
    <path d="M10.55 32.4 L11.4 32.4 10.95 30.45 10.55 32.4 M7.15 35.1 L9.4 27.65 12.55 27.45 14.7 35.05 11.95 35.4 11.6 34.15 10.3 34.15 10.05 35.4 7.15 35.1" fill="#2e666d" fill-rule="evenodd" stroke="none"/>
    <path d="M14.4 24.9 L17.95 37.15 12.05 37.9 12.0 38.1 11.15 38.0 10.1 38.15 10.0 37.9 3.9 37.3 7.5 25.2 14.4 24.9" fill="#2e666d" fill-rule="evenodd" stroke="none"/>
    <path d="M17.95 27.4 L17.55 32.55 19.85 32.55 19.6 35.05 14.85 35.4 15.05 27.4 17.95 27.4" fill="#2e666d" fill-rule="evenodd" stroke="none"/>
    <path d="M12.3 38.1 L12.6 24.9 20.65 24.9 20.25 30.05 22.55 30.05 21.9 37.35 12.3 38.1" fill="#2e666d" fill-rule="evenodd" stroke="none"/>
    <path d="M19.9 30.25 L19.95 27.6 26.1 27.6 26.05 30.0 24.35 30.05 24.15 35.25 21.8 35.4 21.6 30.15 19.9 30.25" fill="#2e666d" fill-rule="evenodd" stroke="none"/>
    <path d="M19.4 38.0 L19.2 32.8 17.35 32.9 17.55 25.1 28.65 25.1 28.5 32.4 26.8 32.45 26.6 37.65 19.4 38.0" fill="#2e666d" fill-rule="evenodd" stroke="none"/>
    <path d="M28.75 27.55 L29.85 27.4 30.75 27.5 31.5 27.9 32.05 28.5 32.45 29.2 32.65 30.05 32.75 31.0 32.7 31.95 28.85 32.45 29.35 33.1 Q29.6 33.3 30.05 33.3 L30.55 33.25 32.0 32.5 31.75 35.05 31.25 35.35 30.75 35.5 29.65 35.65 28.6 35.5 27.8 35.1 27.15 34.45 26.65 33.65 26.4 32.7 26.3 31.7 26.4 30.65 26.65 29.65 27.15 28.75 27.85 28.05 Q28.3 27.65 28.75 27.55 M29.85 29.75 Q29.6 29.75 29.45 29.9 L29.15 30.2 28.95 30.6 28.85 30.95 30.5 30.8 30.5 30.7 30.45 30.35 30.35 30.05 30.15 29.85 29.85 29.75" fill="#2e666d" fill-rule="evenodd" stroke="none"/>
    <path d="M25.15 27.3 L26.3 26.05 Q27.15 25.45 27.9 25.2 29.8 24.55 31.55 25.15 32.25 25.4 33.0 25.9 L34.1 27.05 34.55 27.8 35.05 27.45 34.95 28.75 35.15 29.65 35.25 31.0 34.9 34.3 34.35 34.35 34.1 36.35 33.25 37.0 32.35 37.6 31.4 37.95 30.5 38.1 29.65 38.15 27.85 37.9 26.3 37.1 25.15 35.95 24.35 34.6 23.95 33.2 Q23.8 32.45 23.8 31.7 L23.9 30.2 Q24.05 29.4 24.35 28.75 24.65 27.95 25.15 27.3" fill="#2e666d" fill-rule="evenodd" stroke="none"/>
    <path d="M37.25 27.4 L37.7 27.3 38.55 27.45 39.2 27.9 39.6 28.55 39.9 29.3 40.15 31.1 40.1 35.2 36.85 35.15 37.15 33.15 37.25 31.15 37.25 30.55 37.2 30.1 37.0 29.4 36.8 29.3 36.5 29.4 36.25 29.7 36.1 30.1 36.0 30.95 35.9 35.25 33.05 35.35 33.45 27.45 36.1 27.35 36.05 28.25 36.4 27.85 36.8 27.6 37.25 27.4" fill="#2e666d" fill-rule="evenodd" stroke="none"/>
    <path d="M42.65 30.95 L42.5 37.75 30.4 37.95 31.0 25.1 38.65 24.7 38.65 24.9 39.55 25.2 Q40.35 25.5 41.0 26.15 L41.85 27.45 42.3 28.7 42.65 30.95" fill="#2e666d" fill-rule="evenodd" stroke="none"/>
    <path d="M-30.3 16.45 L-27.0 16.3 -25.7 20.55 -23.95 16.05 -20.5 16.05 -21.1 25.45 -24.05 25.6 -24.0 20.6 -25.3 24.65 -26.45 24.65 -27.45 21.05 -27.5 25.2 -30.45 25.3 -30.3 16.45" fill="#2e666d" fill-rule="evenodd" stroke="none"/>
    <path d="M-26.55 28.2 L-26.55 27.7 -33.0 27.85 -32.8 14.0 -25.75 13.75 -25.65 13.55 -17.85 13.55 -18.75 27.85 -26.55 28.2" fill="#2e666d" fill-rule="evenodd" stroke="none"/>
    <path d="M-16.15 18.8 L-16.6 18.95 -16.9 19.3 -17.15 19.75 -17.3 20.2 -15.4 20.0 -15.4 19.5 -15.55 19.15 -15.75 18.9 -16.15 18.8 M-15.1 16.25 L-14.25 16.7 -13.6 17.35 -13.15 18.2 -12.9 19.2 -12.8 20.2 -12.9 21.35 -17.25 21.85 -16.7 22.6 -15.85 22.9 -15.3 22.8 -14.1 22.25 -13.65 21.95 -13.95 24.85 -14.5 25.15 -15.1 25.4 -16.35 25.55 -17.55 25.4 -18.5 24.9 -19.25 24.15 -19.75 23.25 -20.1 22.2 -20.2 21.05 -20.1 19.85 -19.75 18.7 -19.2 17.7 -18.4 16.85 Q-18.1 16.6 -17.4 16.3 L-16.15 16.1 -15.1 16.25" fill="#2e666d" fill-rule="evenodd" stroke="none"/>
    <path d="M-10.7 17.7 L-10.45 18.75 -10.3 20.2 -10.7 23.7 -11.35 23.75 -11.6 26.2 -12.45 26.85 -13.45 27.45 -14.45 27.8 -15.45 28.0 -16.35 28.05 -18.3 27.75 -19.95 26.9 -21.2 25.65 -22.05 24.2 -22.55 22.65 -22.7 21.05 -22.55 19.4 Q-22.4 18.5 -22.05 17.75 L-21.25 16.25 -19.95 14.9 Q-19.1 14.25 -18.2 13.95 -16.3 13.25 -14.3 13.9 -13.3 14.25 -12.75 14.7 -12.0 15.25 -11.6 15.9 -11.2 16.35 -10.95 17.05 L-10.6 16.85 -10.7 17.7" fill="#2e666d" fill-rule="evenodd" stroke="none"/>
    <path d="M-9.0 16.05 L-9.05 17.05 -8.65 16.65 -8.2 16.35 -7.7 16.1 -7.15 16.05 -6.2 16.2 Q-5.8 16.4 -5.5 16.7 -5.1 17.1 -5.0 17.45 L-4.65 18.3 -4.5 19.3 -4.45 25.0 -8.15 24.95 -7.8 22.7 -7.65 20.4 -7.65 20.1 -7.75 19.2 -7.85 18.75 -8.0 18.45 -8.2 18.3 -8.55 18.45 -8.8 18.75 -8.95 19.2 -9.1 20.2 -9.2 25.05 -12.5 25.2 -12.05 16.2 -9.0 16.05" fill="#2e666d" fill-rule="evenodd" stroke="none"/>
    <path d="M-3.7 14.95 Q-3.05 15.6 -2.75 16.35 L-2.25 17.7 -1.9 20.2 -2.05 27.55 -15.15 27.8 -14.45 13.8 -6.45 13.4 -6.45 13.55 -5.2 13.9 Q-4.3 14.3 -3.7 14.95" fill="#2e666d" fill-rule="evenodd" stroke="none"/>
    <path d="M-1.9 14.5 L-1.6 14.3 -1.2 14.2 -0.8 14.3 -0.45 14.5 -0.25 14.85 -0.15 15.2 -0.25 15.6 -0.45 15.95 -0.8 16.15 -1.2 16.25 -1.6 16.15 -1.9 15.95 -2.1 15.6 -2.2 15.2 -2.1 14.85 -1.9 14.5" fill="#2e666d" fill-rule="evenodd" stroke="none"/>
    <path d="M2.05 13.8 L2.35 15.2 2.05 16.6 1.3 17.7 0.2 18.45 -1.2 18.75 -2.6 18.45 -3.7 17.65 -4.4 16.6 -4.7 15.2 -4.4 13.8 -3.7 12.75 Q-3.3 12.35 -2.6 12.0 -1.2 11.4 0.2 12.0 L1.3 12.75 2.05 13.8 M-0.1 14.2 L-0.6 13.85 -1.2 13.75 -1.8 13.85 -2.25 14.2 -2.55 14.6 -2.65 15.2 -2.55 15.85 -2.25 16.3 -1.8 16.55 -0.6 16.6 -0.1 16.25 0.15 15.85 0.3 15.2 0.15 14.6 -0.1 14.2" fill="#2e666d" fill-rule="evenodd" stroke="none"/>
    <path d="M0.55 14.7 L0.75 14.4 1.0 14.2 1.4 14.15 1.75 14.2 2.05 14.4 2.25 14.7 2.35 15.05 2.25 15.45 2.05 15.75 1.75 15.95 1.4 16.0 1.0 15.95 0.75 15.75 0.55 15.45 0.45 15.05 0.55 14.7" fill="#2e666d" fill-rule="evenodd" stroke="none"/>
    <path d="M4.55 13.7 L4.85 15.05 4.55 16.45 3.8 17.5 2.7 18.25 1.4 18.5 0.05 18.25 -1.05 17.5 -1.75 16.45 -2.05 15.05 -1.75 13.7 -1.05 12.65 0.05 11.9 Q1.35 11.35 2.75 11.9 3.45 12.25 3.8 12.65 L4.55 13.7 M2.5 13.95 L2.0 13.65 1.4 13.5 0.8 13.65 0.3 13.95 -0.05 14.45 -0.15 15.05 -0.05 15.7 0.3 16.2 0.8 16.5 Q1.4 16.75 2.05 16.5 L2.5 16.15 2.85 15.7 2.95 15.05 2.8 14.45 2.5 13.95" fill="#2e666d" fill-rule="evenodd" stroke="none"/>
    <path d="M1.0 16.35 L3.3 16.4 3.95 16.35 3.05 25.35 0.45 25.55 0.55 24.55 0.25 24.8 -0.1 25.0 -0.5 25.1 -0.9 25.1 -1.75 24.95 -2.45 24.5 -3.0 23.85 -3.45 23.1 -3.7 22.3 -3.8 21.5 -3.8 20.3 -3.3 16.65 -0.15 16.75 -0.9 20.1 -1.0 21.3 -0.9 22.15 -0.75 22.6 -0.4 22.75 Q-0.15 22.75 0.0 22.55 L0.35 22.0 0.8 20.2 1.0 16.35" fill="#2e666d" fill-rule="evenodd" stroke="none"/>
    <path d="M6.8 13.7 L6.45 16.7 5.95 21.1 5.4 27.7 -2.4 28.25 -2.3 27.4 -2.7 27.25 -4.05 26.4 -5.05 25.3 -5.75 24.1 -6.15 22.85 -6.3 21.5 -6.2 18.8 -5.25 14.05 -1.75 14.2 -1.75 13.8 3.25 13.9 6.8 13.7" fill="#2e666d" fill-rule="evenodd" stroke="none"/>
    <path d="M10.0 19.6 L11.6 15.5 14.75 15.5 14.25 24.1 11.55 24.2 11.6 19.65 10.35 23.35 9.35 23.35 8.4 20.05 8.4 23.85 5.7 23.95 5.8 15.85 8.8 15.7 10.0 19.6" fill="#2e666d" fill-rule="evenodd" stroke="none"/>
    <path d="M9.9 13.0 L17.45 13.0 16.6 26.5 9.9 26.8 9.75 27.2 9.6 26.8 9.05 26.8 9.05 26.35 3.15 26.5 3.35 13.45 9.85 13.2 9.9 13.0" fill="#2e666d" fill-rule="evenodd" stroke="none"/>
    <path d="M17.9 23.75 L15.45 23.9 15.2 15.95 18.3 15.8 17.9 23.75" fill="#2e666d" fill-rule="evenodd" stroke="none"/>
    <path d="M13.0 26.55 L12.65 13.6 20.95 13.15 20.3 26.15 13.0 26.55" fill="#2e666d" fill-rule="evenodd" stroke="none"/>
    <path d="M20.55 23.9 L20.35 18.45 18.6 18.55 18.65 15.8 25.05 15.75 25.0 18.25 23.25 18.3 23.05 23.75 20.55 23.9" fill="#2e666d" fill-rule="evenodd" stroke="none"/>
    <path d="M18.2 26.5 L17.95 21.1 16.05 21.2 16.25 13.3 27.6 13.25 27.45 20.65 25.65 20.75 25.45 26.15 18.2 26.5" fill="#2e666d" fill-rule="evenodd" stroke="none"/>
    <path d="M-5.45 34.95 L-5.75 35.45 -5.85 35.7 -5.75 36.0 -5.45 36.15 -5.25 36.1 -5.0 35.95 -4.75 35.75 -4.6 35.6 -5.3 34.75 -5.45 34.95 M-5.4 31.55 L-5.55 31.85 -5.55 32.1 -5.45 32.4 -5.25 32.8 -5.1 32.65 -4.95 32.4 -4.75 31.95 -4.85 31.6 -5.1 31.5 -5.4 31.55 M-7.2 32.8 L-7.35 32.3 -7.4 31.75 -7.1 31.1 -6.5 30.55 -5.65 30.2 -4.7 30.1 -3.85 30.35 Q-3.5 30.5 -3.2 30.8 -2.85 31.05 -2.8 31.4 -2.6 31.75 -2.7 32.05 L-2.85 32.55 -3.2 33.0 -3.6 33.4 -4.1 33.75 -3.2 34.45 -3.0 34.15 -2.85 33.8 -1.2 34.2 -1.45 34.85 -1.85 35.45 -0.9 36.15 -2.2 37.2 -2.95 36.65 -4.3 37.4 -5.1 37.6 -5.95 37.65 -6.85 37.45 -7.6 37.05 -8.05 36.45 -8.15 35.8 -7.95 35.2 -7.55 34.65 -7.05 34.15 -6.45 33.7 -7.2 32.8" fill="#2e666d" fill-rule="evenodd" stroke="none"/>
    <path d="M3.15 36.0 L-2.1 40.4 -3.15 39.6 -3.45 39.75 -4.7 40.05 -6.2 40.15 -7.75 39.8 -9.2 38.95 -10.3 37.55 Q-10.75 36.55 -10.6 35.45 -10.55 34.8 -10.1 34.0 L-9.7 33.3 -9.8 32.9 Q-10.0 32.2 -9.85 31.35 -9.7 30.4 -9.1 29.6 L-7.8 28.4 -6.3 27.8 -4.5 27.65 -2.8 28.05 Q-2.0 28.45 -1.45 29.0 -0.85 29.55 -0.5 30.4 -0.2 31.15 -0.2 31.9 L2.1 32.45 1.3 34.65 3.15 36.0" fill="#2e666d" fill-rule="evenodd" stroke="none"/>
    <path d="M-30.5 28.15 L-33.4 32.1 -30.95 36.3 -33.7 36.8 -35.55 34.25 -35.65 36.95 -38.1 37.05 -37.9 27.9 -35.15 28.05 -35.35 30.75 -33.5 27.9 -30.5 28.15" fill="#ffffff" fill-rule="evenodd" stroke="none"/>
    <path d="M-27.3 28.05 L-27.75 33.5 -25.35 33.5 -25.6 36.15 -30.6 36.55 -30.4 28.05 -27.3 28.05" fill="#ffffff" fill-rule="evenodd" stroke="none"/>
    <path d="M-24.9 36.55 L-25.15 28.45 -21.95 28.3 -22.4 36.4 -24.9 36.55" fill="#ffffff" fill-rule="evenodd" stroke="none"/>
    <path d="M-19.25 28.6 L-17.45 28.25 -16.6 28.3 -15.8 28.55 -16.0 31.05 -16.7 30.95 -17.5 31.05 Q-18.0 31.25 -18.15 31.4 L-18.65 31.95 -18.8 32.75 -18.7 33.35 -18.45 33.75 -18.0 34.0 -16.95 34.05 -16.05 33.75 -15.65 33.5 -15.75 36.3 -16.8 36.7 -17.4 36.8 -17.9 36.8 -19.45 36.5 -20.65 35.65 -21.4 34.4 -21.7 32.85 -21.4 31.0 Q-21.2 30.2 -20.6 29.55 L-19.25 28.6" fill="#ffffff" fill-rule="evenodd" stroke="none"/>
    <path d="M-7.9 29.0 L-10.55 32.1 -8.1 36.2 -10.9 36.7 -12.7 34.25 -12.8 36.55 -15.25 36.65 -15.1 28.15 -12.3 28.3 -12.5 30.75 -10.8 28.25 -7.9 29.0" fill="#ffffff" fill-rule="evenodd" stroke="none"/>
    <path d="M0.55 27.6 L3.2 27.75 3.05 31.8 4.3 31.8 4.3 27.45 6.85 27.5 7.05 35.5 4.25 35.65 4.2 33.05 2.9 33.05 2.85 35.5 0.3 35.5 0.55 27.6" fill="#ffffff" fill-rule="evenodd" stroke="none"/>
    <path d="M10.55 32.4 L11.4 32.4 10.95 30.45 10.55 32.4 M7.15 35.1 L9.4 27.65 12.55 27.45 14.7 35.05 11.95 35.4 11.6 34.15 10.3 34.15 10.05 35.4 7.15 35.1" fill="#ffffff" fill-rule="evenodd" stroke="none"/>
    <path d="M17.95 27.4 L17.55 32.55 19.85 32.55 19.6 35.05 14.85 35.4 15.05 27.4 17.95 27.4" fill="#ffffff" fill-rule="evenodd" stroke="none"/>
    <path d="M19.9 30.25 L19.95 27.6 26.1 27.6 26.05 30.0 24.35 30.05 24.15 35.25 21.8 35.4 21.6 30.15 19.9 30.25" fill="#ffffff" fill-rule="evenodd" stroke="none"/>
    <path d="M28.75 27.55 L29.85 27.4 30.75 27.5 31.5 27.9 32.05 28.5 32.45 29.2 32.65 30.05 32.75 31.0 32.7 31.95 28.85 32.45 29.35 33.1 Q29.6 33.3 30.05 33.3 L30.55 33.25 32.0 32.5 31.75 35.05 31.25 35.35 30.75 35.5 29.65 35.65 28.6 35.5 27.8 35.1 27.15 34.45 26.65 33.65 26.4 32.7 26.3 31.7 26.4 30.65 26.65 29.65 27.15 28.75 27.85 28.05 Q28.3 27.65 28.75 27.55 M29.85 29.75 Q29.6 29.75 29.45 29.9 L29.15 30.2 28.95 30.6 28.85 30.95 30.5 30.8 30.5 30.7 30.45 30.35 30.35 30.05 30.15 29.85 29.85 29.75" fill="#ffffff" fill-rule="evenodd" stroke="none"/>
    <path d="M37.25 27.4 L37.7 27.3 38.55 27.45 39.2 27.9 39.6 28.55 39.9 29.3 40.15 31.1 40.1 35.2 36.85 35.15 37.15 33.15 37.25 31.15 37.25 30.55 37.2 30.1 37.0 29.4 36.8 29.3 36.5 29.4 36.25 29.7 36.1 30.1 36.0 30.95 35.9 35.25 33.05 35.35 33.45 27.45 36.1 27.35 36.05 28.25 36.4 27.85 36.8 27.6 37.25 27.4" fill="#ffffff" fill-rule="evenodd" stroke="none"/>
    <path d="M-30.3 16.45 L-27.0 16.3 -25.7 20.55 -23.95 16.05 -20.5 16.05 -21.1 25.45 -24.05 25.6 -24.0 20.6 -25.3 24.65 -26.45 24.65 -27.45 21.05 -27.5 25.2 -30.45 25.3 -30.3 16.45" fill="#ffffff" fill-rule="evenodd" stroke="none"/>
    <path d="M-16.15 18.8 L-16.6 18.95 -16.9 19.3 -17.15 19.75 -17.3 20.2 -15.4 20.0 -15.4 19.5 -15.55 19.15 -15.75 18.9 -16.15 18.8 M-15.1 16.25 L-14.25 16.7 -13.6 17.35 -13.15 18.2 -12.9 19.2 -12.8 20.2 -12.9 21.35 -17.25 21.85 -16.7 22.6 -15.85 22.9 -15.3 22.8 -14.1 22.25 -13.65 21.95 -13.95 24.85 -14.5 25.15 -15.1 25.4 -16.35 25.55 -17.55 25.4 -18.5 24.9 -19.25 24.15 -19.75 23.25 -20.1 22.2 -20.2 21.05 -20.1 19.85 -19.75 18.7 -19.2 17.7 -18.4 16.85 Q-18.1 16.6 -17.4 16.3 L-16.15 16.1 -15.1 16.25" fill="#ffffff" fill-rule="evenodd" stroke="none"/>
    <path d="M-9.0 16.05 L-9.05 17.05 -8.65 16.65 -8.2 16.35 -7.7 16.1 -7.15 16.05 -6.2 16.2 Q-5.8 16.4 -5.5 16.7 -5.1 17.1 -5.0 17.45 L-4.65 18.3 -4.5 19.3 -4.45 25.0 -8.15 24.95 -7.8 22.7 -7.65 20.4 -7.65 20.1 -7.75 19.2 -7.85 18.75 -8.0 18.45 -8.2 18.3 -8.55 18.45 -8.8 18.75 -8.95 19.2 -9.1 20.2 -9.2 25.05 -12.5 25.2 -12.05 16.2 -9.0 16.05" fill="#ffffff" fill-rule="evenodd" stroke="none"/>
    <path d="M-1.9 14.5 L-1.6 14.3 -1.2 14.2 -0.8 14.3 -0.45 14.5 -0.25 14.85 -0.15 15.2 -0.25 15.6 -0.45 15.95 -0.8 16.15 -1.2 16.25 -1.6 16.15 -1.9 15.95 -2.1 15.6 -2.2 15.2 -2.1 14.85 -1.9 14.5" fill="#ffffff" fill-rule="evenodd" stroke="none"/>
    <path d="M0.55 14.7 L0.75 14.4 1.0 14.2 1.4 14.15 1.75 14.2 2.05 14.4 2.25 14.7 2.35 15.05 2.25 15.45 2.05 15.75 1.75 15.95 1.4 16.0 1.0 15.95 0.75 15.75 0.55 15.45 0.45 15.05 0.55 14.7" fill="#ffffff" fill-rule="evenodd" stroke="none"/>
    <path d="M1.0 16.35 L3.3 16.4 3.95 16.35 3.05 25.35 0.45 25.55 0.55 24.55 0.25 24.8 -0.1 25.0 -0.5 25.1 -0.9 25.1 -1.75 24.95 -2.45 24.5 -3.0 23.85 -3.45 23.1 -3.7 22.3 -3.8 21.5 -3.8 20.3 -3.3 16.65 -0.15 16.75 -0.9 20.1 -1.0 21.3 -0.9 22.15 -0.75 22.6 -0.4 22.75 Q-0.15 22.75 0.0 22.55 L0.35 22.0 0.8 20.2 1.0 16.35" fill="#ffffff" fill-rule="evenodd" stroke="none"/>
    <path d="M10.0 19.6 L11.6 15.5 14.75 15.5 14.25 24.1 11.55 24.2 11.6 19.65 10.35 23.35 9.35 23.35 8.4 20.05 8.4 23.85 5.7 23.95 5.8 15.85 8.8 15.7 10.0 19.6" fill="#ffffff" fill-rule="evenodd" stroke="none"/>
    <path d="M17.9 23.75 L15.45 23.9 15.2 15.95 18.3 15.8 17.9 23.75" fill="#ffffff" fill-rule="evenodd" stroke="none"/>
    <path d="M20.55 23.9 L20.35 18.45 18.6 18.55 18.65 15.8 25.05 15.75 25.0 18.25 23.25 18.3 23.05 23.75 20.55 23.9" fill="#ffffff" fill-rule="evenodd" stroke="none"/>
    <path d="M-5.45 34.95 L-5.75 35.45 -5.85 35.7 -5.75 36.0 -5.45 36.15 -5.25 36.1 -5.0 35.95 -4.75 35.75 -4.6 35.6 -5.3 34.75 -5.45 34.95 M-5.4 31.55 L-5.55 31.85 -5.55 32.1 -5.45 32.4 -5.25 32.8 -5.1 32.65 -4.95 32.4 -4.75 31.95 -4.85 31.6 -5.1 31.5 -5.4 31.55 M-7.2 32.8 L-7.35 32.3 -7.4 31.75 -7.1 31.1 -6.5 30.55 -5.65 30.2 -4.7 30.1 -3.85 30.35 Q-3.5 30.5 -3.2 30.8 -2.85 31.05 -2.8 31.4 -2.6 31.75 -2.7 32.05 L-2.85 32.55 -3.2 33.0 -3.6 33.4 -4.1 33.75 -3.2 34.45 -3.0 34.15 -2.85 33.8 -1.2 34.2 -1.45 34.85 -1.85 35.45 -0.9 36.15 -2.2 37.2 -2.95 36.65 -4.3 37.4 -5.1 37.6 -5.95 37.65 -6.85 37.45 -7.6 37.05 -8.05 36.45 -8.15 35.8 -7.95 35.2 -7.55 34.65 -7.05 34.15 -6.45 33.7 -7.2 32.8" fill="#ffffff" fill-rule="evenodd" stroke="none"/>
  </g>
</svg>
