<?xml version="1.0" encoding="UTF-8" standalone="no"?>
<svg xmlns:xlink="http://www.w3.org/1999/xlink" height="16.0px" width="133.4px" xmlns="http://www.w3.org/2000/svg">
  <g transform="matrix(1.0, 0.0, 0.0, 1.0, 0.0, 0.0)">
    <path d="M0.3 16.0 L0.3 15.75 0.3 15.25 0.0 0.0 6.25 0.0 114.2 0.0 133.4 0.0 133.4 15.25 133.4 15.75 133.4 16.0 114.2 16.0 6.25 16.0 0.3 16.0" fill="#ffffff" fill-rule="evenodd" stroke="none"/>
    <path d="M120.45 12.95 Q118.4 10.9 118.4 8.0 118.4 5.15 120.45 3.1 122.5 1.0 125.4 1.0 128.25 1.0 130.35 3.1 132.4 5.15 132.4 8.0 132.4 10.9 130.35 12.95 128.25 15.0 125.4 15.0 122.5 15.0 120.45 12.95" fill="#618785" fill-rule="evenodd" stroke="none"/>
  </g>
</svg>
