<?xml version="1.0" encoding="UTF-8" standalone="no"?>
<svg xmlns:xlink="http://www.w3.org/1999/xlink" height="47.0px" width="47.0px" xmlns="http://www.w3.org/2000/svg">
  <g transform="matrix(1.0, 0.0, 0.0, 1.0, 23.5, 23.5)">
    <path d="M7.55 -10.15 L7.6 -15.2 -9.0 -9.4 Q-10.0 -10.45 -11.4 -10.4 -12.8 -10.4 -13.75 -9.6 -14.75 -8.65 -14.7 -7.4 -14.75 -6.15 -13.75 -5.25 -12.85 -4.35 -11.45 -4.35 L-10.15 -4.65 -10.0 1.3 -11.4 1.05 Q-12.8 1.0 -13.8 1.95 -14.85 2.9 -14.85 4.2 -14.9 5.5 -13.85 6.45 -12.85 7.35 -11.45 7.4 -10.3 7.35 -9.35 6.7 -8.45 6.05 -8.1 5.05 L9.45 12.55 10.6 17.4 11.1 17.9 Q6.2 21.0 0.0 21.0 -8.75 21.0 -14.9 14.8 -21.0 8.7 -21.0 0.0 -21.0 -8.75 -14.9 -14.9 -8.75 -21.0 0.0 -21.0 8.7 -21.0 14.8 -14.9 19.45 -10.25 20.6 -4.15 21.0 -2.15 21.0 0.0 L21.0 0.05 21.0 0.9 20.55 4.6 Q19.5 9.35 16.35 13.15 L14.95 14.7 14.85 10.15 4.3 6.25 5.2 -9.55 7.55 -10.15 M2.65 -8.85 L1.9 5.35 -0.25 4.6 0.55 -8.3 2.65 -8.85 M-2.05 -7.6 L-2.65 3.7 -5.3 2.7 -4.8 -6.9 -2.05 -7.6" fill="#333333" fill-opacity="0.6" fill-rule="evenodd" stroke="none"/>
    <path d="M14.85 -14.9 Q8.7 -21.0 0.0 -21.0 -8.75 -21.0 -14.9 -14.9 -21.0 -8.75 -21.0 0.0 -21.0 8.7 -14.9 14.85 -8.75 21.0 0.0 21.0 8.7 21.0 14.85 14.85 21.0 8.7 21.0 0.0 21.0 -8.75 14.85 -14.9 M16.65 -16.65 Q23.5 -9.75 23.5 0.0 23.5 9.75 16.65 16.65 9.75 23.5 0.0 23.5 -9.7 23.5 -16.65 16.65 -23.5 9.75 -23.5 0.0 -23.5 -9.75 -16.65 -16.65 -9.7 -23.5 0.0 -23.5 9.75 -23.5 16.65 -16.65" fill="#ffffff" fill-opacity="0.7019608" fill-rule="evenodd" stroke="none"/>
  </g>
</svg>
