<?xml version="1.0" encoding="UTF-8" standalone="no"?>
<svg xmlns:xlink="http://www.w3.org/1999/xlink" height="29.8px" width="33.45px" xmlns="http://www.w3.org/2000/svg">
  <g transform="matrix(1.0, 0.0, 0.0, 1.0, 16.7, 14.9)">
    <path d="M3.1 0.3 L3.85 -1.85 -10.35 -2.6 -9.8 -0.5 3.1 0.3 M1.2 5.35 L2.2 2.7 -9.1 2.1 -8.4 4.85 1.2 5.35 M15.9 -10.55 L11.05 -9.4 3.55 8.15 Q4.55 8.5 5.2 9.4 5.85 10.35 5.9 11.5 5.85 12.9 4.95 13.9 4.0 14.95 2.7 14.9 1.4 14.9 0.45 13.85 -0.5 12.85 -0.45 11.45 L-0.2 10.05 -6.15 10.2 Q-5.8 10.85 -5.85 11.5 -5.85 12.9 -6.75 13.8 -7.65 14.8 -8.9 14.75 -10.15 14.8 -11.1 13.8 -11.9 12.85 -11.9 11.45 -11.95 10.05 -10.9 9.05 L-16.7 -7.55 -11.65 -7.5 -11.05 -5.15 4.75 -4.25 8.65 -14.8 15.55 -14.9 16.5 -13.35 Q17.2 -11.6 15.9 -10.55" fill="#ffffff" fill-rule="evenodd" stroke="none"/>
  </g>
</svg>
