<?xml version="1.0" encoding="UTF-8" standalone="no"?>
<svg xmlns:xlink="http://www.w3.org/1999/xlink" height="15.55px" width="16.75px" xmlns="http://www.w3.org/2000/svg">
  <g transform="matrix(1.0, 0.0, 0.0, 1.0, -1.15, -2.15)">
    <path d="M11.25 2.2 L12.85 2.4 Q14.2 2.55 15.95 4.0 16.4 4.35 17.1 5.65 18.4 8.05 17.65 11.2 L16.8 13.85 16.2 15.05 15.45 16.15 Q13.5 17.85 9.8 17.7 6.35 17.5 4.05 16.05 1.35 14.15 1.15 10.3 0.95 6.45 3.35 4.45 5.4 2.7 9.65 2.2 L11.25 2.2" fill="#666666" fill-rule="evenodd" stroke="none"/>
    <path d="M10.9 3.65 L12.15 3.8 Q13.2 3.9 14.6 5.05 L15.5 6.35 Q16.5 8.25 15.95 10.75 15.7 12.1 15.25 12.85 L14.8 13.8 14.2 14.65 Q12.65 16.0 9.75 15.85 7.0 15.7 5.2 14.55 3.05 13.05 2.9 10.05 2.75 7.0 4.65 5.4 6.25 4.05 9.6 3.65 L10.9 3.65" fill="#ffffff" fill-rule="evenodd" stroke="none"/>
    <path d="M11.8 5.4 Q12.85 6.2 13.35 6.85 14.35 8.25 13.9 10.15 13.7 9.05 13.1 8.2 L11.75 6.8 11.45 6.75 11.25 9.35 11.15 12.95 Q11.2 13.6 10.4 14.15 9.55 14.8 8.3 14.8 L6.25 14.4 Q5.55 14.0 5.5 13.35 5.4 11.95 7.9 11.85 9.55 11.7 10.45 12.35 L10.1 4.15 Q10.2 4.0 10.55 4.4 L11.8 5.4" fill="#999999" fill-rule="evenodd" stroke="none"/>
    <path d="M10.3 4.5 L10.65 12.75 10.3 12.5 Q9.6 12.05 8.35 12.05 L7.95 12.05 Q6.75 12.1 6.2 12.5 5.7 12.9 5.7 13.35 L5.7 13.4 Q5.75 13.9 6.3 14.25 6.95 14.65 8.0 14.65 L8.3 14.65 Q9.45 14.65 10.25 14.1 10.95 13.6 10.95 13.05 L10.95 13.0 11.15 7.15 11.25 6.75 11.25 6.7 Q11.25 6.6 11.55 6.6 L12.2 6.9 13.25 8.15 13.8 9.15 Q13.8 7.95 13.2 7.05 12.7 6.35 11.65 5.55 L10.35 4.5 10.3 4.5 M10.45 4.05 L10.7 4.3 11.95 5.3 13.5 6.85 Q14.2 7.75 14.2 9.15 L14.1 10.25 13.7 10.25 13.5 9.55 12.95 8.35 11.9 7.15 11.6 6.95 11.35 13.05 Q11.35 13.75 10.5 14.4 9.6 15.0 8.3 15.05 L8.0 15.05 Q6.85 15.05 6.1 14.55 5.4 14.1 5.3 13.4 L5.3 13.35 Q5.3 12.65 5.95 12.2 6.7 11.75 7.9 11.7 L8.35 11.7 10.2 12.0 9.85 4.3 10.0 4.0 10.15 4.0 10.45 4.05" fill="#4b4c4e" fill-rule="evenodd" stroke="none"/>
    <path d="M4.0 14.0 Q8.6 10.75 15.35 4.8" fill="none" stroke="#666666" stroke-linecap="round" stroke-linejoin="round" stroke-width="2.0"/>
  </g>
</svg>
