<?xml version="1.0" encoding="UTF-8" standalone="no"?>
<svg xmlns:xlink="http://www.w3.org/1999/xlink" height="47.0px" width="47.0px" xmlns="http://www.w3.org/2000/svg">
  <g transform="matrix(1.0, 0.0, 0.0, 1.0, 23.5, 23.5)">
    <path d="M5.4 -3.5 Q4.55 -2.8 3.25 -3.0 L-8.9 -5.0 Q-10.2 -5.15 -11.1 -4.45 -12.0 -3.75 -12.0 -2.6 -12.0 -1.5 -11.1 -0.45 -10.25 0.5 -8.9 0.7 L3.25 2.65 Q4.6 2.9 5.4 3.85 6.3 4.75 6.3 5.9 6.3 7.1 5.45 7.8 4.55 8.4 3.25 8.2 L-8.9 6.25 Q-10.2 6.05 -11.1 6.7 -12.0 7.4 -12.0 8.6 -12.05 9.75 -11.1 10.7 -10.25 11.6 -8.9 11.9 L-1.75 12.85 0.9 21.0 0.0 21.0 Q-8.75 21.0 -14.9 14.8 -21.0 8.7 -21.0 0.0 -21.0 -8.75 -14.9 -14.9 -8.75 -21.0 0.0 -21.0 8.7 -21.0 14.8 -14.9 19.45 -10.25 20.6 -4.15 L20.95 -1.5 20.95 1.65 20.55 4.6 Q19.5 9.35 16.35 13.15 L14.8 14.8 11.75 17.45 Q7.2 20.6 1.5 20.95 L5.05 13.95 Q7.8 14.0 9.75 12.4 12.45 10.4 12.45 6.9 12.4 3.7 10.15 0.9 12.4 -1.05 12.45 -4.25 12.4 -7.8 9.8 -10.65 7.15 -13.55 3.3 -14.15 L-8.9 -16.2 Q-10.25 -16.35 -11.1 -15.7 -12.0 -15.0 -12.0 -13.85 -12.05 -12.7 -11.1 -11.65 -10.2 -10.7 -8.9 -10.5 L3.3 -8.5 Q4.6 -8.3 5.45 -7.35 6.25 -6.5 6.3 -5.35 6.3 -4.2 5.4 -3.5" fill="#333333" fill-opacity="0.6" fill-rule="evenodd" stroke="none"/>
    <path d="M16.65 -16.65 Q23.5 -9.75 23.5 0.0 23.5 9.75 16.65 16.65 9.75 23.5 0.0 23.5 -9.7 23.5 -16.65 16.65 -23.5 9.75 -23.5 0.0 -23.5 -9.75 -16.65 -16.65 -9.7 -23.5 0.0 -23.5 9.75 -23.5 16.65 -16.65 M14.85 -14.9 Q8.7 -21.0 0.0 -21.0 -8.75 -21.0 -14.9 -14.9 -21.0 -8.75 -21.0 0.0 -21.0 8.7 -14.9 14.85 -8.75 21.0 0.0 21.0 L0.9 21.0 -1.75 12.85 -8.9 11.9 Q-10.25 11.6 -11.1 10.7 -12.05 9.75 -12.0 8.6 -12.0 7.4 -11.1 6.7 -10.2 6.05 -8.9 6.25 L3.25 8.2 Q4.55 8.4 5.45 7.8 6.3 7.1 6.3 5.9 6.3 4.75 5.4 3.85 4.6 2.9 3.25 2.65 L-8.9 0.7 Q-10.25 0.5 -11.1 -0.45 -12.0 -1.5 -12.0 -2.6 -12.0 -3.75 -11.1 -4.45 -10.2 -5.15 -8.9 -5.0 L3.25 -3.0 Q4.55 -2.8 5.4 -3.5 6.3 -4.2 6.3 -5.35 6.25 -6.5 5.45 -7.35 4.6 -8.3 3.3 -8.5 L-8.9 -10.5 Q-10.2 -10.7 -11.1 -11.65 -12.05 -12.7 -12.0 -13.85 -12.0 -15.0 -11.1 -15.7 -10.25 -16.35 -8.9 -16.2 L3.3 -14.15 Q7.15 -13.55 9.8 -10.65 12.4 -7.8 12.45 -4.25 12.4 -1.05 10.15 0.9 12.4 3.7 12.45 6.9 12.45 10.4 9.75 12.4 7.8 14.0 5.05 13.95 L1.5 20.95 Q9.25 20.45 14.85 14.85 21.0 8.7 21.0 0.0 21.0 -8.75 14.85 -14.9" fill="#ffffff" fill-opacity="0.7019608" fill-rule="evenodd" stroke="none"/>
  </g>
</svg>
