<?xml version="1.0" encoding="UTF-8" standalone="no"?>
<svg xmlns:xlink="http://www.w3.org/1999/xlink" height="47.0px" width="47.0px" xmlns="http://www.w3.org/2000/svg">
  <g transform="matrix(1.0, 0.0, 0.0, 1.0, 23.5, 23.5)">
    <path d="M4.15 -12.9 L2.85 -13.0 2.25 -13.0 Q2.2 -14.2 1.7 -15.15 0.85 -16.8 -1.2 -17.4 L-2.25 -17.5 Q-3.7 -17.45 -5.05 -16.55 -6.4 -15.55 -7.55 -13.8 L-8.35 -12.55 -9.8 -11.35 -9.85 -11.4 -10.05 -9.5 Q-13.15 -6.3 -13.35 -0.4 L-13.35 0.2 Q-13.4 5.5 -9.75 9.45 L-9.6 11.85 -7.95 13.3 -7.0 15.0 -5.3 16.55 Q-3.95 17.3 -2.25 17.3 L-0.35 17.05 Q1.7 16.65 2.5 14.95 L2.95 13.3 4.55 13.8 5.85 13.8 Q8.15 13.85 9.75 12.8 11.25 11.7 11.95 10.1 L12.15 8.45 Q12.15 6.1 9.9 3.9 L8.45 2.7 9.3 -0.7 8.3 -3.9 9.5 -4.65 Q11.9 -6.3 11.95 -8.8 L11.95 -8.95 Q11.85 -11.1 10.0 -12.45 8.4 -13.6 6.55 -13.55 L6.35 -13.55 Q5.2 -13.55 4.15 -12.9 M14.8 -14.9 Q19.45 -10.25 20.6 -4.15 21.0 -2.15 21.0 0.0 L21.0 0.05 21.0 0.9 20.55 4.6 Q19.5 9.35 16.35 13.15 L14.8 14.8 11.75 17.45 Q6.6 21.0 0.0 21.0 -8.75 21.0 -14.9 14.8 -21.0 8.7 -21.0 0.0 -21.0 -8.75 -14.9 -14.9 -8.75 -21.0 0.0 -21.0 8.7 -21.0 14.8 -14.9" fill="#333333" fill-opacity="0.6" fill-rule="evenodd" stroke="none"/>
    <path d="M1.1 7.8 L1.05 6.4 4.45 6.5 4.8 9.05 1.1 7.8" fill="#6f6f71" fill-opacity="0.7019608" fill-rule="evenodd" stroke="none"/>
    <path d="M1.55 -6.55 L0.55 -7.2 3.8 -8.65 5.05 -7.05 1.55 -6.55" fill="#6f6f71" fill-opacity="0.7019608" fill-rule="evenodd" stroke="none"/>
    <path d="M4.8 9.05 L4.45 6.5 1.05 6.4 1.1 7.8 4.8 9.05 M0.2 5.1 Q1.7 4.35 3.6 4.6 5.55 4.75 6.85 5.8 8.1 6.8 8.0 8.05 7.8 9.3 6.4 10.0 4.95 10.8 3.0 10.6 L1.3 10.2 1.25 10.2 Q0.0 9.75 -0.75 8.9 -1.45 8.05 -1.35 7.1 -1.3 5.85 0.2 5.1" fill="#ffffff" fill-opacity="0.7019608" fill-rule="evenodd" stroke="none"/>
    <path d="M0.55 -7.2 L1.55 -6.55 5.05 -7.05 3.8 -8.65 0.55 -7.2 M2.45 -10.0 L5.05 -9.65 Q6.2 -9.0 6.4 -7.85 6.6 -6.7 5.65 -5.8 4.75 -4.8 3.25 -4.65 1.8 -4.4 0.65 -5.0 -0.5 -5.65 -0.65 -6.75 -0.85 -7.9 0.1 -8.85 1.0 -9.8 2.45 -10.0" fill="#ffffff" fill-opacity="0.7019608" fill-rule="evenodd" stroke="none"/>
    <path d="M9.35 -6.6 Q8.7 -5.7 7.2 -5.05 L5.6 -4.35 7.2 -0.55 5.85 3.15 Q7.2 3.45 8.55 4.3 11.15 6.0 10.6 8.55 10.45 9.55 9.9 10.25 8.45 12.3 4.9 12.35 L1.65 11.9 1.5 12.9 0.95 14.6 Q0.35 15.5 -0.75 15.75 -3.75 16.4 -5.45 14.5 -6.35 13.55 -6.6 12.45 L-7.5 11.8 -9.45 9.7 -6.95 11.75 -5.85 12.4 -5.5 12.55 -4.1 12.0 -3.55 13.6 -2.0 13.1 -3.15 9.85 -5.45 10.8 Q-7.55 9.7 -9.15 7.65 -11.95 4.2 -11.8 -0.4 -11.55 -6.3 -8.2 -9.2 -6.35 -10.75 -4.2 -11.05 L-1.55 -10.4 -2.4 -14.2 -3.95 -13.85 -3.65 -12.55 -4.05 -12.6 -4.2 -12.6 -5.0 -12.5 -7.0 -11.8 -6.35 -12.65 Q-3.8 -16.55 -1.65 -15.95 0.3 -15.35 0.7 -13.25 0.9 -12.25 0.65 -11.35 L1.35 -10.8 Q3.0 -11.7 4.9 -11.95 8.6 -12.55 9.6 -9.5 10.2 -7.8 9.35 -6.6 M0.1 -8.85 Q-0.85 -7.9 -0.65 -6.75 -0.5 -5.65 0.65 -5.0 1.8 -4.4 3.25 -4.65 4.75 -4.8 5.65 -5.8 6.6 -6.7 6.4 -7.85 6.2 -9.0 5.05 -9.65 L2.45 -10.0 Q1.0 -9.8 0.1 -8.85 M0.2 5.1 Q-1.3 5.85 -1.35 7.1 -1.45 8.05 -0.75 8.9 0.0 9.75 1.25 10.2 L1.3 10.2 3.0 10.6 Q4.95 10.8 6.4 10.0 7.8 9.3 8.0 8.05 8.1 6.8 6.85 5.8 5.55 4.75 3.6 4.6 1.7 4.35 0.2 5.1" fill="#919191" fill-opacity="0.7019608" fill-rule="evenodd" stroke="none"/>
    <path d="M9.35 -6.6 Q10.2 -7.8 9.6 -9.5 8.6 -12.55 4.9 -11.95 3.0 -11.7 1.35 -10.8 L0.65 -11.35 Q0.9 -12.25 0.7 -13.25 0.3 -15.35 -1.65 -15.95 -3.8 -16.55 -6.35 -12.65 L-7.0 -11.8 -5.0 -12.5 -4.2 -12.6 -4.05 -12.6 -3.65 -12.55 -3.95 -13.85 -2.4 -14.2 -1.55 -10.4 -4.2 -11.05 Q-6.35 -10.75 -8.2 -9.2 -11.55 -6.3 -11.8 -0.4 -11.95 4.2 -9.15 7.65 -7.55 9.7 -5.45 10.8 L-3.15 9.85 -2.0 13.1 -3.55 13.6 -4.1 12.0 -5.5 12.55 -5.85 12.4 -6.95 11.75 -9.45 9.7 -7.5 11.8 -6.6 12.45 Q-6.35 13.55 -5.45 14.5 -3.75 16.4 -0.75 15.75 0.35 15.5 0.95 14.6 L1.5 12.9 1.65 11.9 4.9 12.35 Q8.45 12.3 9.9 10.25 10.45 9.55 10.6 8.55 11.15 6.0 8.55 4.3 7.2 3.45 5.85 3.15 L7.2 -0.55 5.6 -4.35 7.2 -5.05 Q8.7 -5.7 9.35 -6.6 M1.7 -15.15 Q2.2 -14.2 2.25 -13.0 L2.85 -13.0 4.15 -12.9 Q5.2 -13.55 6.35 -13.55 L6.55 -13.55 Q8.4 -13.6 10.0 -12.45 11.85 -11.1 11.95 -8.95 L11.95 -8.8 Q11.9 -6.3 9.5 -4.65 L8.3 -3.9 9.3 -0.7 8.45 2.7 9.9 3.9 Q12.15 6.1 12.15 8.45 L11.95 10.1 Q11.25 11.7 9.75 12.8 8.15 13.85 5.85 13.8 L4.55 13.8 2.95 13.3 2.5 14.95 Q1.7 16.65 -0.35 17.05 L-2.25 17.3 Q-3.95 17.3 -5.3 16.55 L-7.0 15.0 -7.95 13.3 -9.6 11.85 -9.75 9.45 Q-13.4 5.5 -13.35 0.2 L-13.35 -0.4 Q-13.15 -6.3 -10.05 -9.5 L-9.85 -11.4 -9.8 -11.35 -8.35 -12.55 -7.55 -13.8 Q-6.4 -15.55 -5.05 -16.55 -3.7 -17.45 -2.25 -17.5 L-1.2 -17.4 Q0.85 -16.8 1.7 -15.15" fill="#ffffff" fill-opacity="0.7019608" fill-rule="evenodd" stroke="none"/>
    <path d="M14.85 -14.9 Q8.7 -21.0 0.0 -21.0 -8.75 -21.0 -14.9 -14.9 -21.0 -8.75 -21.0 0.0 -21.0 8.7 -14.9 14.85 -8.75 21.0 0.0 21.0 8.7 21.0 14.85 14.85 21.0 8.7 21.0 0.0 21.0 -8.75 14.85 -14.9 M16.65 -16.65 Q23.5 -9.75 23.5 0.0 23.5 9.75 16.65 16.65 9.75 23.5 0.0 23.5 -9.7 23.5 -16.65 16.65 -23.5 9.75 -23.5 0.0 -23.5 -9.75 -16.65 -16.65 -9.7 -23.5 0.0 -23.5 9.75 -23.5 16.65 -16.65" fill="#ffffff" fill-opacity="0.7019608" fill-rule="evenodd" stroke="none"/>
  </g>
</svg>
