<?xml version="1.0" encoding="UTF-8" standalone="no"?>
<svg xmlns:xlink="http://www.w3.org/1999/xlink" height="47.0px" width="47.0px" xmlns="http://www.w3.org/2000/svg">
  <g transform="matrix(1.0, 0.0, 0.0, 1.0, 23.5, 23.5)">
    <path d="M20.6 -4.15 Q21.0 -2.15 21.0 0.0 L21.0 0.05 21.0 0.9 20.55 4.6 Q19.5 9.35 16.35 13.15 L14.8 14.8 11.75 17.45 Q6.6 21.0 0.0 21.0 -8.75 21.0 -14.9 14.8 -21.0 8.7 -21.0 0.0 -21.0 -8.75 -14.9 -14.9 -8.75 -21.0 0.0 -21.0 8.7 -21.0 14.8 -14.9 19.45 -10.25 20.6 -4.15 M12.7 -4.35 L12.7 -7.5 10.4 -7.5 6.2 -7.5 0.3 -13.8 -0.4 -14.0 Q-1.05 -14.0 -1.65 -13.2 L-1.65 -10.0 -11.45 -10.0 Q-12.15 -10.0 -12.8 -9.5 -13.3 -9.05 -13.3 -8.15 L-13.3 -3.1 -5.15 -3.1 -5.15 3.1 -13.3 3.2 -13.3 8.1 Q-13.3 9.05 -12.8 9.45 L-11.45 9.85 -1.65 9.85 -1.65 13.15 Q-1.05 14.0 -0.4 14.0 L0.3 13.8 13.3 0.0 9.2 -4.35 12.7 -4.35" fill="#333333" fill-opacity="0.6" fill-rule="evenodd" stroke="none"/>
    <path d="M16.65 -16.65 Q23.5 -9.75 23.5 0.0 23.5 9.75 16.65 16.65 9.75 23.5 0.0 23.5 -9.7 23.5 -16.65 16.65 -23.5 9.75 -23.5 0.0 -23.5 -9.75 -16.65 -16.65 -9.7 -23.5 0.0 -23.5 9.75 -23.5 16.65 -16.65 M14.85 -14.9 Q8.7 -21.0 0.0 -21.0 -8.75 -21.0 -14.9 -14.9 -21.0 -8.75 -21.0 0.0 -21.0 8.7 -14.9 14.85 -8.75 21.0 0.0 21.0 8.7 21.0 14.85 14.85 21.0 8.7 21.0 0.0 21.0 -8.75 14.85 -14.9" fill="#ffffff" fill-opacity="0.7019608" fill-rule="evenodd" stroke="none"/>
  </g>
</svg>
