<?xml version="1.0" encoding="UTF-8" standalone="no"?>
<svg xmlns:xlink="http://www.w3.org/1999/xlink" height="26.6px" width="28.0px" xmlns="http://www.w3.org/2000/svg">
  <g transform="matrix(1.0, 0.0, 0.0, 1.0, 14.0, 13.3)">
    <path d="M0.0 -13.3 L13.8 -0.3 14.0 0.4 Q14.0 1.05 13.15 1.65 L9.85 1.65 9.85 11.45 Q9.85 12.15 9.45 12.8 9.05 13.3 8.1 13.3 L3.2 13.3 3.1 5.15 -3.1 5.15 -3.1 13.3 -8.15 13.3 Q-9.05 13.3 -9.5 12.8 -10.0 12.15 -10.0 11.45 L-10.0 1.65 -13.2 1.65 Q-14.0 1.05 -14.0 0.4 L-13.8 -0.3 -7.5 -6.2 -7.5 -10.4 -7.5 -12.7 -4.35 -12.7 -4.35 -9.2 0.0 -13.3" fill="#ffffff" fill-rule="evenodd" stroke="none"/>
  </g>
</svg>
