<?xml version="1.0" encoding="UTF-8" standalone="no"?>
<svg xmlns:xlink="http://www.w3.org/1999/xlink" height="48.0px" width="48.0px" xmlns="http://www.w3.org/2000/svg">
  <g transform="matrix(1.0, 0.0, 0.0, 1.0, 24.0, 24.0)">
    <path d="M20.6 -4.15 Q21.0 -2.15 21.0 0.0 L21.0 0.05 21.0 0.9 20.55 4.6 Q19.5 9.35 16.35 13.15 L14.8 14.8 11.75 17.45 Q6.6 21.0 0.0 21.0 -8.75 21.0 -14.9 14.8 -21.0 8.7 -21.0 0.0 -21.0 -8.75 -14.9 -14.9 -8.75 -21.0 0.0 -21.0 8.7 -21.0 14.8 -14.9 19.45 -10.25 20.6 -4.15 M2.05 -13.4 L2.05 -4.6 -11.75 -6.8 -11.75 7.0 2.05 4.95 2.05 13.6 15.25 0.1 2.05 -13.4" fill="#f4b120" fill-opacity="0.9019608" fill-rule="evenodd" stroke="none"/>
    <path d="M17.0 -16.95 Q20.3 -13.65 22.15 -9.35 24.0 -4.85 24.0 0.0 24.0 4.9 22.15 9.35 20.3 13.65 17.0 17.0 13.65 20.3 9.35 22.1 4.9 24.0 0.0 24.0 -4.85 24.0 -9.3 22.1 -13.65 20.3 -16.95 17.0 -20.25 13.65 -22.1 9.35 -24.0 4.9 -24.0 0.0 -24.0 -4.85 -22.1 -9.35 -20.25 -13.65 -16.95 -16.95 -13.65 -20.3 -9.3 -22.1 -4.85 -24.0 0.0 -24.0 4.9 -24.0 9.35 -22.1 13.65 -20.3 17.0 -16.95 M14.8 -14.9 Q8.7 -21.0 0.0 -21.0 -8.75 -21.0 -14.9 -14.9 -21.0 -8.75 -21.0 0.0 -21.0 8.7 -14.9 14.8 -8.75 21.0 0.0 21.0 6.6 21.0 11.75 17.45 L14.9 14.8 16.2 13.35 16.35 13.15 Q19.5 9.35 20.55 4.6 L21.0 0.9 21.0 0.05 21.0 0.0 Q21.0 -2.15 20.6 -4.15 19.45 -10.25 14.8 -14.9" fill="#ffffff" fill-opacity="0.7490196" fill-rule="evenodd" stroke="none"/>
    <path d="M2.2 -13.4 L15.4 0.1 2.2 13.6 2.2 4.95 -11.6 7.0 -11.6 -6.8 2.2 -4.6 2.2 -13.4" fill="#ffffff" fill-opacity="0.7490196" fill-rule="evenodd" stroke="none"/>
  </g>
</svg>
