<?xml version="1.0" encoding="UTF-8" standalone="no"?>
<svg xmlns:xlink="http://www.w3.org/1999/xlink" height="22.8px" width="20.0px" xmlns="http://www.w3.org/2000/svg">
  <g transform="matrix(1.0, 0.0, 0.0, 1.0, 0.0, -3.0)">
    <path d="M15.1 7.8 L10.3 12.6 10.3 9.8 10.0 9.8 Q7.5 9.8 5.8 11.55 L5.75 11.6 Q4.0 13.3 4.0 15.8 4.0 18.3 5.8 20.1 7.5 21.8 10.0 21.8 12.5 21.8 14.3 20.1 16.0 18.3 16.0 15.8 16.0 14.95 16.6 14.4 17.15 13.8 18.0 13.8 18.85 13.8 19.45 14.4 20.0 14.95 20.0 15.8 20.0 19.9 17.1 22.9 14.1 25.8 10.0 25.8 5.85 25.8 2.95 22.9 0.0 19.95 0.0 15.8 0.0 11.65 2.95 8.75 5.85 5.8 10.0 5.8 L10.3 5.85 10.3 3.0 15.1 7.8 M8.1 15.75 Q8.1 14.95 8.65 14.35 9.25 13.75 10.1 13.75 10.9 13.75 11.45 14.35 12.1 14.95 12.1 15.75 12.1 16.65 11.45 17.15 10.9 17.75 10.1 17.75 9.25 17.75 8.65 17.15 8.1 16.65 8.1 15.75" fill="#000000" fill-rule="evenodd" stroke="none"/>
  </g>
</svg>
