<?xml version="1.0" encoding="UTF-8" standalone="no"?>
<svg xmlns:xlink="http://www.w3.org/1999/xlink" height="26.65px" width="55.35px" xmlns="http://www.w3.org/2000/svg">
  <g transform="matrix(1.0, 0.0, 0.0, 1.0, 0.0, 0.0)">
    <path d="M55.15 5.2 Q55.6 8.8 54.95 17.1 L55.05 21.65 Q55.15 24.25 54.6 25.1 54.25 25.65 53.2 26.0 L51.55 26.65 Q47.3 26.35 35.85 26.6 24.95 26.8 19.55 26.3 16.65 26.05 8.65 26.45 L3.95 26.65 Q1.2 26.5 0.45 25.1 -0.05 24.2 0.0 21.65 L0.1 17.6 0.2 9.0 Q0.4 4.35 1.3 1.45 2.5 0.7 4.95 0.5 L8.95 0.25 Q12.35 -0.2 20.0 0.15 28.2 0.5 31.3 0.25 33.55 0.1 35.7 0.25 L41.5 0.6 48.75 0.5 Q52.95 0.4 53.95 1.45 L54.65 3.05 55.15 5.2 M47.8 2.45 L10.35 2.1 5.7 1.85 Q3.45 1.85 2.5 2.8 2.0 9.25 2.0 17.25 L1.95 20.9 Q1.95 22.9 2.5 24.1 L14.65 24.5 Q22.1 24.7 27.55 24.25 30.65 24.0 40.2 24.25 L52.4 23.55 53.1 13.65 Q53.4 7.7 52.9 3.65 52.1 2.65 50.55 2.45 L47.8 2.45" fill="#7a998f" fill-rule="evenodd" stroke="none"/>
    <path d="M52.9 3.65 Q53.4 7.7 53.1 13.65 L52.4 23.55 40.2 24.25 Q30.65 24.0 27.55 24.25 22.1 24.7 14.65 24.5 L2.5 24.1 Q1.95 22.9 1.95 20.9 L2.0 17.25 Q2.0 9.25 2.5 2.8 3.45 1.85 5.7 1.85 L10.35 2.1 47.8 2.45 50.55 2.45 Q52.1 2.65 52.9 3.65" fill="#ffffff" fill-rule="evenodd" stroke="none"/>
  </g>
</svg>
