<?xml version="1.0" encoding="UTF-8" standalone="no"?>
<svg xmlns:xlink="http://www.w3.org/1999/xlink" height="77.4px" width="336.95px" xmlns="http://www.w3.org/2000/svg">
  <g transform="matrix(1.0, 0.0, 0.0, 1.0, 0.0, 0.25)">
    <path d="M7.05 4.25 L5.2 4.45 4.95 5.0 5.35 4.75 7.05 4.25 M333.6 5.85 L333.45 7.45 333.15 9.4 Q332.2 33.15 333.0 70.1 332.65 71.65 331.6 71.95 331.1 74.25 327.45 74.9 L320.1 75.2 312.55 75.65 310.4 75.5 289.75 75.4 268.9 75.2 258.45 75.35 Q252.35 75.45 248.3 75.2 L245.2 74.75 Q242.3 74.5 237.75 74.6 L230.15 74.75 215.05 74.6 207.7 74.85 Q203.2 75.0 200.3 74.75 L185.55 74.25 177.95 74.1 Q173.3 74.0 170.35 74.25 L155.7 74.9 148.65 75.1 141.55 75.35 Q131.7 75.15 126.95 75.35 L125.15 75.2 123.3 75.05 110.3 75.15 96.5 75.05 81.05 74.9 65.45 74.75 50.1 75.05 35.2 75.05 20.1 75.5 Q14.05 75.85 8.9 75.2 L7.0 75.15 5.5 74.9 Q2.55 73.75 1.8 68.8 1.5 66.85 1.5 59.5 L1.65 30.45 1.75 25.55 1.8 20.9 1.75 16.25 1.8 11.9 Q1.8 4.75 3.65 3.35 5.65 1.85 8.25 1.9 L12.9 2.15 17.85 2.3 22.7 2.75 Q26.05 3.05 34.1 2.7 42.1 2.35 46.4 2.75 50.0 3.1 55.75 2.9 L65.0 2.45 108.5 1.85 Q118.2 1.85 121.45 1.55 L125.15 1.65 128.95 1.85 140.55 1.7 151.7 1.7 155.1 1.95 158.5 2.15 181.55 2.0 188.3 2.45 195.25 2.95 202.1 2.65 Q206.25 2.35 208.75 2.6 L217.5 2.85 226.45 2.6 228.75 2.45 231.05 2.45 232.45 2.3 234.0 2.35 235.5 2.45 237.85 2.25 240.15 2.0 244.75 2.3 249.55 2.15 254.3 1.85 290.55 1.85 296.35 2.15 302.1 2.45 305.7 2.3 309.35 2.15 312.8 2.25 316.25 2.15 Q323.35 1.55 330.4 2.45 L332.25 4.0 Q333.45 4.95 333.6 5.85" fill="#334340" fill-rule="evenodd" stroke="none"/>
    <path d="M333.6 5.85 Q333.45 4.95 332.25 4.0 L330.4 2.45 Q323.35 1.55 316.25 2.15 L312.8 2.25 309.35 2.15 305.7 2.3 302.1 2.45 296.35 2.15 290.55 1.85 254.3 1.85 249.55 2.15 244.75 2.3 240.15 2.0 237.85 2.25 235.5 2.45 234.0 2.35 232.45 2.3 231.05 2.45 228.75 2.45 226.45 2.6 217.5 2.85 208.75 2.6 Q206.25 2.35 202.1 2.65 L195.25 2.95 188.3 2.45 181.55 2.0 158.5 2.15 155.1 1.95 151.7 1.7 140.55 1.7 128.95 1.85 125.15 1.65 121.45 1.55 Q118.2 1.85 108.5 1.85 L65.0 2.45 55.75 2.9 Q50.0 3.1 46.4 2.75 42.1 2.35 34.1 2.7 26.05 3.05 22.7 2.75 L17.85 2.3 12.9 2.15 8.25 1.9 Q5.65 1.85 3.65 3.35 1.8 4.75 1.8 11.9 L1.75 16.25 1.8 20.9 1.75 25.55 1.65 30.45 1.5 59.5 Q1.5 66.85 1.8 68.8 2.55 73.75 5.5 74.9 L7.0 75.15 8.9 75.2 Q14.05 75.85 20.1 75.5 L35.2 75.05 50.1 75.05 65.45 74.75 81.05 74.9 96.5 75.05 110.3 75.15 123.3 75.05 125.15 75.2 126.95 75.35 Q131.7 75.15 141.55 75.35 L148.65 75.1 155.7 74.9 170.35 74.25 Q173.3 74.0 177.95 74.1 L185.55 74.25 200.3 74.75 Q203.2 75.0 207.7 74.85 L215.05 74.6 230.15 74.75 237.75 74.6 Q242.3 74.5 245.2 74.75 L248.3 75.2 Q252.35 75.45 258.45 75.35 L268.9 75.2 289.75 75.4 310.4 75.5 312.55 75.65 320.1 75.2 327.45 74.9 Q331.1 74.25 331.6 71.95 332.65 71.65 333.0 70.1 332.2 33.15 333.15 9.4 L333.45 7.45 333.6 5.85 M7.05 4.25 L5.35 4.75 4.95 5.0 5.2 4.45 7.05 4.25" fill="none" stroke="#334340" stroke-linecap="butt" stroke-linejoin="miter" stroke-width="3.0"/>
    <path d="M333.15 9.4 Q332.2 33.15 333.0 70.1 332.65 71.65 331.6 71.95 331.1 74.25 327.45 74.9 L320.1 75.2 312.55 75.65 310.4 75.5 289.75 75.4 268.9 75.2 258.45 75.35 Q252.35 75.45 248.3 75.2 L245.2 74.75 Q242.3 74.5 237.75 74.6 L230.15 74.75 215.05 74.6 207.7 74.85 Q203.2 75.0 200.3 74.75 L185.55 74.25 177.95 74.1 Q173.3 74.0 170.35 74.25 L155.7 74.9 148.65 75.1 141.55 75.35 Q131.7 75.15 126.95 75.35 L125.15 75.2 123.3 75.05 110.3 75.15 96.5 75.05 81.05 74.9 65.45 74.75 50.1 75.05 35.2 75.05 20.1 75.5 Q14.05 75.85 8.9 75.2 L7.0 75.15 5.5 74.9 Q2.55 73.75 1.8 68.8 1.5 66.85 1.5 59.5 L1.65 30.45 1.75 25.55 1.8 20.9 1.75 16.25 1.8 11.9 Q1.8 4.75 3.65 3.35 5.65 1.85 8.25 1.9 L12.9 2.15 17.85 2.3 22.7 2.75 Q26.05 3.05 34.1 2.7 42.1 2.35 46.4 2.75 50.0 3.1 55.75 2.9 L65.0 2.45 108.5 1.85 Q118.2 1.85 121.45 1.55 L125.15 1.65 128.95 1.85 140.55 1.7 151.7 1.7 155.1 1.95 158.5 2.15 181.55 2.0 188.3 2.45 195.25 2.95 202.1 2.65 Q206.25 2.35 208.75 2.6 L217.5 2.85 226.45 2.6 228.75 2.45 231.05 2.45 232.45 2.3 234.0 2.35 235.5 2.45 237.85 2.25 240.15 2.0 244.75 2.3 249.55 2.15 254.3 1.85 290.55 1.85 296.35 2.15 302.1 2.45 305.7 2.3 309.35 2.15 312.8 2.25 316.25 2.15 Q323.35 1.55 330.4 2.45 L332.25 4.0 Q333.45 4.95 333.6 5.85 L333.45 7.45 333.15 9.4 M327.3 4.75 L322.55 4.45 317.7 4.8 313.0 5.1 303.2 5.0 293.65 4.75 284.0 4.45 274.1 4.75 263.85 4.7 254.15 4.45 Q242.15 4.45 236.6 4.6 L234.45 4.3 232.45 4.0 Q231.8 4.05 230.6 4.45 L228.75 4.9 Q224.15 5.3 216.85 5.0 L204.9 4.6 199.0 5.0 193.1 5.25 187.35 4.7 181.55 4.3 166.65 4.6 163.05 4.4 159.4 4.15 144.65 4.0 129.45 3.85 125.7 3.65 122.05 3.55 111.9 3.85 82.4 4.15 72.6 4.15 63.0 4.6 Q59.1 5.0 53.1 4.75 L43.65 4.45 30.8 4.8 18.85 4.45 14.75 4.3 10.55 4.45 7.45 4.25 5.2 4.45 Q4.75 5.0 4.75 8.1 L4.75 12.75 Q4.25 18.5 4.2 25.7 L4.25 38.15 4.0 46.9 Q3.8 52.3 3.95 55.5 L4.0 63.7 Q4.05 68.4 5.2 71.35 6.45 72.85 11.55 73.0 L20.1 72.75 27.65 72.6 34.7 72.25 41.8 72.0 49.0 72.1 63.95 71.8 78.9 71.95 93.9 72.1 112.45 72.35 Q123.3 72.5 129.75 72.1 L133.0 72.2 136.35 72.45 Q138.75 72.6 143.05 72.35 L149.7 72.1 156.2 72.35 162.65 72.25 Q171.25 71.6 182.45 71.75 L202.45 72.25 209.15 72.2 215.85 71.95 222.75 71.95 229.2 72.45 231.3 72.3 233.5 72.1 234.75 72.35 236.0 72.6 238.9 72.45 Q249.95 72.45 256.45 72.9 260.0 73.15 268.35 72.7 276.15 72.35 280.4 72.75 L286.2 72.95 292.4 72.9 Q296.45 72.9 304.25 73.2 L310.05 73.0 315.5 72.6 324.85 72.35 Q329.25 71.95 330.4 68.9 329.4 29.25 331.15 6.75 L329.6 5.4 Q328.75 4.9 327.3 4.75" fill="#647d6f" fill-rule="evenodd" stroke="none"/>
    <path d="M327.3 4.75 Q328.75 4.9 329.6 5.4 L331.15 6.75 Q329.4 29.25 330.4 68.9 329.25 71.95 324.85 72.35 L315.5 72.6 310.05 73.0 304.25 73.2 Q296.45 72.9 292.4 72.9 L286.2 72.95 280.4 72.75 Q276.15 72.35 268.35 72.7 260.0 73.15 256.45 72.9 249.95 72.45 238.9 72.45 L236.0 72.6 234.75 72.35 233.5 72.1 231.3 72.3 229.2 72.45 222.75 71.95 215.85 71.95 209.15 72.2 202.45 72.25 182.45 71.75 Q171.25 71.6 162.65 72.25 L156.2 72.35 149.7 72.1 143.05 72.35 Q138.75 72.6 136.35 72.45 L133.0 72.2 129.75 72.1 Q123.3 72.5 112.45 72.35 L93.9 72.1 78.9 71.95 63.95 71.8 49.0 72.1 41.8 72.0 34.7 72.25 27.65 72.6 20.1 72.75 11.55 73.0 Q6.45 72.85 5.2 71.35 4.05 68.4 4.0 63.7 L3.95 55.5 Q3.8 52.3 4.0 46.9 L4.25 38.15 3.9 26.9 Q3.65 20.5 4.05 15.2 L3.85 9.55 Q3.85 5.35 5.35 4.75 8.35 3.6 12.85 3.8 L18.85 4.45 30.8 4.8 43.65 4.45 53.1 4.75 Q59.1 5.0 63.0 4.6 L72.6 4.15 82.4 4.15 111.9 3.85 122.05 3.55 125.7 3.65 129.45 3.85 144.65 4.0 159.4 4.15 163.05 4.4 166.65 4.6 181.55 4.3 187.35 4.7 193.1 5.25 199.0 5.0 204.9 4.6 216.85 5.0 Q224.15 5.3 228.75 4.9 L230.6 4.45 Q231.8 4.05 232.45 4.0 L234.45 4.3 236.6 4.6 Q242.15 4.45 254.15 4.45 L263.85 4.7 274.1 4.75 284.0 4.45 293.65 4.75 303.2 5.0 313.0 5.1 317.7 4.8 322.55 4.45 327.3 4.75" fill="#7a998f" fill-rule="evenodd" stroke="none"/>
  </g>
</svg>
