<?xml version="1.0" encoding="UTF-8" standalone="no"?>
<svg xmlns:xlink="http://www.w3.org/1999/xlink" height="52.0px" width="52.0px" xmlns="http://www.w3.org/2000/svg">
  <g transform="matrix(1.0, 0.0, 0.0, 1.0, 0.0, 0.0)">
    <path d="M0.0 12.95 L0.0 7.2 0.2 5.7 Q0.65 3.7 2.2 2.2 4.15 0.2 6.85 0.05 L7.25 0.0 12.95 0.0 39.05 0.0 44.8 0.0 Q47.75 0.1 49.85 2.2 51.9 4.25 52.0 7.2 L52.0 12.95 52.0 39.05 52.0 44.8 Q51.9 47.75 49.85 49.85 47.75 51.95 44.8 52.0 L39.05 52.0 12.95 52.0 7.25 52.0 Q4.3 51.95 2.2 49.85 0.1 47.75 0.0 44.8 L0.0 39.05 0.0 12.95" fill="#ffffff" fill-rule="evenodd" stroke="none"/>
  </g>
</svg>
