<?xml version="1.0" encoding="UTF-8" standalone="no"?>
<svg xmlns:xlink="http://www.w3.org/1999/xlink" height="52.0px" width="52.0px" xmlns="http://www.w3.org/2000/svg">
  <g transform="matrix(1.0, 0.0, 0.0, 1.0, 0.0, 0.0)">
    <path d="M1.25 12.95 L1.25 39.05 1.25 44.8 Q1.3 47.25 3.05 49.0 L3.05 48.95 Q4.8 50.7 7.25 50.75 L12.95 50.75 39.05 50.75 44.8 50.75 Q47.2 50.7 48.95 49.0 50.7 47.25 50.75 44.8 L50.75 39.05 50.75 12.95 50.75 7.25 Q50.7 4.8 48.95 3.05 47.2 1.3 44.8 1.25 L39.05 1.25 12.95 1.25 7.25 1.25 Q4.8 1.3 3.05 3.05 1.3 4.8 1.25 7.25 L1.25 12.95 M0.0 12.95 L0.0 7.2 Q0.1 4.25 2.2 2.2 4.3 0.1 7.25 0.0 L12.95 0.0 39.05 0.0 44.8 0.0 Q47.75 0.1 49.85 2.2 51.9 4.25 52.0 7.2 L52.0 12.95 52.0 39.05 52.0 44.8 Q51.9 47.75 49.85 49.85 47.75 51.95 44.8 52.0 L39.05 52.0 12.95 52.0 7.25 52.0 Q4.3 51.95 2.2 49.85 0.1 47.75 0.0 44.8 L0.0 39.05 0.0 12.95" fill="#ff6600" fill-rule="evenodd" stroke="none"/>
    <path d="M1.25 12.95 L1.25 7.25 Q1.3 4.8 3.05 3.05 4.8 1.3 7.25 1.25 L12.95 1.25 39.05 1.25 44.8 1.25 Q47.2 1.3 48.95 3.05 50.7 4.8 50.75 7.25 L50.75 12.95 50.75 39.05 50.75 44.8 Q50.7 47.25 48.95 49.0 47.2 50.7 44.8 50.75 L39.05 50.75 12.95 50.75 7.25 50.75 Q4.8 50.7 3.05 48.95 L3.05 49.0 Q1.3 47.25 1.25 44.8 L1.25 39.05 1.25 12.95" fill="#ffffff" fill-rule="evenodd" stroke="none"/>
  </g>
</svg>
