<?xml version="1.0" encoding="UTF-8" standalone="no"?>
<svg xmlns:xlink="http://www.w3.org/1999/xlink" height="52.0px" width="52.0px" xmlns="http://www.w3.org/2000/svg">
  <g transform="matrix(1.0, 0.0, 0.0, 1.0, -0.65, 0.0)">
    <path d="M0.65 12.95 L0.65 7.2 Q0.75 4.25 2.85 2.2 4.95 0.1 7.9 0.0 L12.95 0.0 39.05 0.0 45.45 0.0 Q48.4 0.1 50.5 2.2 52.55 4.25 52.65 7.2 L52.65 12.95 52.65 39.05 52.65 44.8 Q52.55 47.75 50.5 49.85 48.4 51.95 45.45 52.0 L39.05 52.0 12.95 52.0 7.9 52.0 Q4.95 51.95 2.85 49.85 0.75 47.75 0.65 44.8 L0.65 39.05 0.65 12.95" fill="#f0a425" fill-rule="evenodd" stroke="none"/>
  </g>
</svg>
