<?xml version="1.0" encoding="UTF-8" standalone="no"?>
<svg xmlns:xlink="http://www.w3.org/1999/xlink" height="10.0px" width="10.0px" xmlns="http://www.w3.org/2000/svg">
  <g transform="matrix(1.0, 0.0, 0.0, 1.0, 0.0, -1.0)">
    <path d="M8.5 2.45 Q10.0 3.9 10.0 6.0 10.0 8.1 8.55 9.5 L8.5 9.55 Q7.1 11.0 5.0 11.0 2.95 11.0 1.45 9.5 0.0 8.1 0.0 6.0 0.0 3.9 1.45 2.45 2.95 1.0 5.0 1.0 7.1 1.0 8.5 2.45 M5.0 1.9 Q3.55 1.9 2.45 2.8 L5.05 5.4 7.6 2.8 Q6.5 1.9 5.0 1.9 M8.2 3.5 L5.7 6.05 8.2 8.55 Q9.1 7.5 9.1 6.0 9.1 4.55 8.2 3.5 M1.8 3.45 Q0.9 4.5 0.9 6.0 0.9 7.5 1.8 8.6 L4.4 6.05 1.8 3.45 M2.5 9.25 Q3.6 10.1 5.0 10.1 6.5 10.1 7.55 9.2 L5.05 6.7 2.5 9.25" fill="#ffffff" fill-rule="evenodd" stroke="none"/>
    <path d="M8.2 3.5 Q9.1 4.55 9.1 6.0 9.1 7.5 8.2 8.55 L5.7 6.05 8.2 3.5 M5.0 1.9 Q6.5 1.9 7.6 2.8 L5.05 5.4 2.45 2.8 Q3.55 1.9 5.0 1.9 M1.8 3.45 L4.4 6.05 1.8 8.6 Q0.9 7.5 0.9 6.0 0.9 4.5 1.8 3.45 M2.5 9.25 L5.05 6.7 7.55 9.2 Q6.5 10.1 5.0 10.1 3.6 10.1 2.5 9.25" fill="#ff3300" fill-opacity="0.7019608" fill-rule="evenodd" stroke="none"/>
  </g>
</svg>
