<?xml version="1.0" encoding="UTF-8" standalone="no"?>
<svg xmlns:xlink="http://www.w3.org/1999/xlink" height="38.85px" width="221.25px" xmlns="http://www.w3.org/2000/svg">
  <g transform="matrix(1.0, 0.0, 0.0, 1.0, 0.0, 0.0)">
    <path d="M221.25 28.25 L221.2 29.25 Q220.9 33.0 218.15 35.75 L218.15 35.8 Q215.0 38.85 210.6 38.85 L166.0 38.85 55.25 38.85 10.6 38.85 Q6.25 38.85 3.1 35.8 L3.1 35.75 Q0.35 33.0 0.05 29.25 L0.0 28.25 0.0 10.6 0.05 9.65 Q0.35 5.9 3.1 3.1 6.25 0.0 10.6 0.0 L55.25 0.0 166.0 0.0 210.6 0.0 Q215.0 0.0 218.15 3.1 220.9 5.85 221.2 9.65 L221.25 10.6 221.25 28.25 M216.75 34.35 Q218.9 32.2 219.2 29.25 L219.25 28.25 219.25 10.6 219.2 9.65 Q218.9 6.65 216.75 4.5 L216.75 4.55 Q214.2 2.0 210.6 2.0 L166.0 2.0 55.25 2.0 10.6 2.0 Q7.05 2.0 4.55 4.5 L4.5 4.55 Q2.35 6.7 2.05 9.65 L2.0 10.6 2.0 28.25 2.05 29.25 Q2.35 32.2 4.5 34.35 7.05 36.85 10.6 36.85 L55.25 36.85 166.0 36.85 210.6 36.85 Q214.2 36.85 216.75 34.35" fill="#b1b3b4" fill-rule="evenodd" stroke="none"/>
    <path d="M216.75 34.35 Q214.2 36.85 210.6 36.85 L166.0 36.85 55.25 36.85 10.6 36.85 Q7.05 36.85 4.5 34.35 2.35 32.2 2.05 29.25 L2.0 28.25 2.0 10.6 2.05 9.65 Q2.35 6.7 4.5 4.55 L4.55 4.5 Q7.05 2.0 10.6 2.0 L55.25 2.0 166.0 2.0 210.6 2.0 Q214.2 2.0 216.75 4.55 L216.75 4.5 Q218.9 6.65 219.2 9.65 L219.25 10.6 219.25 28.25 219.2 29.25 Q218.9 32.2 216.75 34.35" fill="url(#gradient0)" fill-rule="evenodd" stroke="none"/>
  </g>
  <defs>
    <linearGradient gradientTransform="matrix(0.0, 0.0256, 0.0256, 0.0, 110.6, 23.45)" gradientUnits="userSpaceOnUse" id="gradient0" spreadMethod="pad" x1="-819.2" x2="819.2">
      <stop offset="0.0" stop-color="#ffffff"/>
      <stop offset="1.0" stop-color="#eae5db"/>
    </linearGradient>
  </defs>
</svg>
