<?xml version="1.0" encoding="UTF-8" standalone="no"?>
<svg xmlns:xlink="http://www.w3.org/1999/xlink" height="46.45px" width="59.25px" xmlns="http://www.w3.org/2000/svg">
  <g transform="matrix(1.0, 0.0, 0.0, 1.0, 29.6, 23.2)">
    <path d="M24.75 -9.45 Q24.2 -7.0 25.85 -3.5 26.8 -1.5 29.1 1.75 30.9 3.3 27.0 8.75 26.35 9.65 26.2 11.85 26.05 14.1 25.45 15.05 22.8 19.25 19.15 21.3 17.0 22.5 13.75 23.2 L3.45 22.15 -6.95 20.5 Q-8.4 20.35 -10.85 21.5 -14.05 23.05 -17.85 22.7 -20.4 22.5 -22.7 21.5 -25.15 20.45 -27.1 18.65 -28.95 16.9 -29.45 15.3 -29.95 13.6 -28.75 11.35 -27.2 8.35 -23.35 7.4 -19.3 6.35 -16.0 5.2 -14.95 4.85 -14.85 1.05 L-14.9 -4.1 -14.8 -10.35 Q-14.75 -14.85 -14.45 -15.85 L-13.6 -17.2 -12.6 -18.55 Q-12.25 -19.15 -9.35 -19.4 L-5.65 -19.6 -1.45 -20.25 2.85 -20.75 7.8 -21.45 11.85 -22.15 Q12.25 -23.5 15.65 -23.1 L20.65 -22.15 Q22.15 -21.95 23.55 -20.8 L24.65 -19.7 Q26.65 -17.9 26.55 -13.95 26.5 -12.8 25.75 -11.6 24.9 -10.25 24.75 -9.45" fill="#ffffff" fill-rule="evenodd" stroke="none"/>
    <path d="M23.45 -15.35 Q22.05 -17.25 20.9 -16.75 L20.5 -16.95 20.05 -17.15 19.0 -17.7 Q18.7 -18.1 17.8 -18.55 L16.7 -19.45 14.7 -20.2 Q15.0 -20.8 15.8 -20.6 L16.9 -20.1 17.05 -19.9 Q17.4 -19.95 18.75 -19.15 20.75 -18.6 22.75 -17.2 L23.2 -16.35 23.45 -15.35" fill="#603a1d" fill-rule="evenodd" stroke="none"/>
    <path d="M12.5 -18.7 L13.2 -19.0 13.45 -18.9 13.95 -19.05 14.35 -18.9 14.4 -19.3 Q15.3 -19.2 15.55 -18.9 L15.8 -19.05 17.75 -17.85 19.65 -16.5 18.85 -16.35 18.05 -16.4 15.45 -16.1 12.85 -15.65 11.4 -15.55 10.95 -15.4 10.6 -15.3 10.45 -15.55 10.05 -15.2 9.65 -15.25 9.4 -15.2 9.25 -15.05 7.7 -14.75 6.4 -14.65 6.35 -14.45 5.35 -14.3 4.45 -14.35 4.4 -14.15 1.1 -13.8 -2.0 -13.5 -3.05 -13.25 -4.1 -12.85 -4.35 -12.95 Q-4.55 -12.8 -4.65 -12.8 L-4.85 -13.1 Q-3.75 -13.55 -4.2 -14.25 -5.0 -14.4 -6.7 -15.65 L-7.05 -15.7 -7.55 -15.9 -6.05 -16.35 -4.4 -16.65 -2.65 -16.9 -1.0 -16.9 -0.6 -17.1 Q-0.3 -17.2 -0.25 -16.95 L-0.2 -17.2 0.2 -17.1 0.35 -17.3 1.55 -17.45 2.7 -17.5 5.65 -17.8 7.2 -18.1 8.85 -18.1 9.8 -18.35 10.9 -18.65 12.0 -18.8 12.5 -18.7" fill="#b39372" fill-rule="evenodd" stroke="none"/>
    <path d="M20.65 -15.9 L20.55 -13.65 Q20.5 -12.2 19.85 -11.6 19.65 -10.9 18.65 -9.45 17.4 -6.95 15.05 -5.1 L12.65 -2.75 10.0 -0.7 9.9 -0.8 9.65 -0.45 9.05 -0.3 8.5 -0.1 Q7.95 -0.15 7.2 -0.8 L6.1 -1.85 4.25 -3.5 4.05 -3.5 3.15 -4.5 2.25 -5.55 1.1 -6.65 -0.05 -7.8 -1.15 -9.1 -2.25 -10.45 -3.3 -11.65 -3.3 -12.4 -0.55 -12.8 2.85 -13.25 2.85 -13.45 6.0 -13.85 7.05 -14.0 Q7.9 -13.9 8.25 -14.3 L8.45 -14.15 Q10.55 -14.8 14.35 -15.25 L14.75 -15.15 14.9 -15.3 18.0 -15.65 20.65 -15.9 M12.4 -9.6 L12.3 -9.7 10.25 -8.4 10.25 -8.85 9.1 -9.55 Q8.7 -9.45 8.6 -8.8 8.45 -8.3 8.6 -7.8 L8.4 -7.7 8.75 -7.25 8.2 -6.9 Q7.95 -6.6 7.65 -6.65 7.25 -5.8 6.65 -5.9 6.0 -5.15 6.4 -3.7 L8.25 -2.15 8.9 -2.65 9.5 -3.15 9.5 -2.7 9.7 -2.55 9.9 -2.55 9.95 -2.35 Q10.65 -2.15 10.95 -2.85 11.25 -3.55 10.8 -4.2 L12.1 -5.15 13.4 -6.0 13.3 -6.1 Q13.65 -6.15 14.05 -6.5 L14.7 -7.05 14.85 -6.85 Q15.3 -7.8 14.7 -8.65 14.15 -9.5 13.1 -9.85 L12.8 -9.75 12.4 -9.6" fill="#b39372" fill-rule="evenodd" stroke="none"/>
    <path d="M-7.75 -3.05 L-8.05 2.85 -8.25 7.3 -8.15 7.65 -8.45 10.5 -8.75 13.3 Q-8.9 14.2 -9.6 15.4 L-10.15 16.4 -10.4 16.45 -10.8 17.0 -11.95 17.7 -12.35 18.55 Q-12.4 18.95 -13.05 19.1 L-13.65 19.4 -14.2 19.35 -15.9 19.65 -17.55 19.65 -19.45 19.55 Q-19.85 19.65 -20.65 19.05 L-21.85 18.35 -21.2 18.1 Q-20.8 17.95 -20.55 18.1 L-18.8 18.0 -17.65 18.1 Q-17.15 17.95 -15.35 16.7 L-14.55 15.75 -14.25 14.05 -13.65 13.25 -13.2 12.45 -13.0 11.0 -12.8 10.3 Q-12.7 9.9 -12.85 9.65 -12.5 8.7 -12.15 5.6 L-12.05 5.5 -12.1 5.25 -12.05 3.45 -12.0 1.7 Q-11.8 1.6 -11.85 1.2 L-12.0 0.5 -11.85 -2.35 Q-11.6 -2.85 -11.8 -4.35 L-11.95 -5.8 -11.75 -6.0 -11.7 -7.7 -11.75 -10.0 -11.45 -11.55 -11.6 -11.9 -11.4 -12.5 Q-11.2 -14.55 -10.6 -15.25 L-9.25 -15.85 Q-6.15 -14.7 -5.2 -13.85 L-5.65 -13.5 Q-6.8 -11.75 -7.2 -8.55 L-7.75 -3.05" fill="#603a1d" fill-rule="evenodd" stroke="none"/>
    <path d="M-4.75 -11.2 L-4.95 -0.65 -4.8 0.35 -4.6 6.15 -4.75 10.95 -4.65 11.45 Q-4.6 11.75 -4.8 11.9 L-4.6 12.15 Q-4.75 14.95 -5.45 17.15 -6.25 17.2 -7.15 16.5 L-8.6 15.4 -8.35 14.3 -8.0 13.2 -7.85 10.95 Q-7.55 8.15 -7.6 7.0 -7.4 4.75 -7.35 1.8 L-7.2 -2.95 Q-7.0 -3.5 -6.95 -4.35 L-6.85 -5.9 -6.8 -6.0 -6.7 -6.05 -6.3 -9.5 Q-6.0 -11.25 -5.3 -12.55 L-5.0 -12.2 -4.75 -11.9 -4.8 -11.45 -4.75 -11.2" fill="url(#gradient0)" fill-rule="evenodd" stroke="none"/>
    <path d="M-17.5 10.95 L-18.5 11.5 -19.55 12.05 -21.75 13.35 -22.45 13.6 -23.2 13.85 -23.3 14.75 -23.0 15.6 -22.75 16.0 -22.55 16.35 Q-22.45 16.85 -21.6 17.6 -20.8 18.35 -20.75 18.85 L-22.1 18.55 -23.3 18.3 -24.3 17.0 -25.2 15.65 Q-25.65 14.3 -25.55 13.6 -25.4 12.45 -24.25 11.85 -24.1 11.45 -23.2 11.0 L-23.05 11.1 -23.0 10.9 -20.8 9.85 Q-19.8 9.25 -18.25 8.9 L-18.0 9.0 -15.7 8.6 -13.85 8.4 -13.3 7.8 Q-13.2 7.55 -12.75 7.45 -12.75 8.85 -12.9 8.55 L-13.3 9.5 Q-13.5 10.25 -13.85 10.3 L-15.55 10.7 -17.5 10.95" fill="#603a1d" fill-rule="evenodd" stroke="none"/>
    <path d="M13.2 -7.05 L10.5 -5.15 9.7 -4.35 Q9.2 -3.85 8.8 -3.7 8.9 -4.55 7.55 -5.3 L7.8 -5.65 8.0 -5.9 Q8.4 -6.05 9.45 -6.9 L10.85 -7.7 11.0 -7.95 12.0 -8.4 12.7 -8.85 13.6 -8.45 13.7 -8.5 14.0 -7.7 Q13.7 -7.25 13.3 -7.25 L13.2 -7.05" fill="#ffffff" fill-rule="evenodd" stroke="none"/>
    <path d="M20.75 -9.9 L20.85 -9.55 20.7 -9.25 21.0 -6.9 21.7 0.5 Q22.1 4.5 22.8 8.0 L22.55 8.2 22.7 9.85 22.85 11.3 22.8 12.3 22.9 12.85 22.3 13.8 21.45 14.6 20.0 16.1 18.35 17.2 16.45 18.45 16.25 18.45 16.2 18.4 Q12.7 19.6 10.45 19.35 L10.3 19.5 10.1 19.55 Q4.7 19.35 2.3 18.3 L2.1 18.4 Q1.7 18.05 0.2 17.65 -1.2 17.3 -1.65 16.8 -2.55 10.6 -2.5 7.2 L-2.6 6.3 -2.45 5.55 -2.55 4.85 -2.45 4.15 -2.55 4.0 Q-2.5 1.4 -2.8 -3.1 L-3.3 -10.5 -3.2 -10.45 -2.65 -9.85 -2.1 -9.25 Q-1.55 -8.0 -0.5 -7.05 1.3 -4.35 3.1 -2.95 L3.1 -2.8 3.55 -2.4 4.0 -2.1 4.05 -1.9 5.6 -0.8 7.1 0.5 7.5 0.5 8.0 0.95 Q8.4 1.1 8.5 1.35 L8.85 1.3 9.1 1.3 11.8 -0.35 13.95 -1.9 15.05 -3.1 16.1 -4.35 17.85 -6.0 19.25 -7.65 19.1 -6.3 Q19.2 -5.35 19.65 -5.15 L20.0 -5.4 Q19.7 -5.9 19.9 -6.95 20.05 -7.9 19.65 -8.3 L20.75 -9.9 M19.9 -2.2 Q20.1 -1.2 20.4 -0.65 L20.8 -0.6 20.7 -2.1 20.4 -3.6 20.35 -3.7 20.25 -3.9 19.65 -3.95 19.9 -2.2 M20.25 1.35 L20.55 3.3 Q20.8 4.35 21.45 4.55 L21.05 1.55 Q20.65 1.05 20.25 1.35 M21.6 6.0 L20.9 5.8 Q20.8 6.35 21.0 7.15 L21.15 8.35 21.9 8.55 21.7 7.3 21.6 6.0 M21.15 10.5 L21.25 11.7 Q21.35 12.45 21.85 12.6 22.1 12.3 22.0 11.5 L21.65 10.45 21.15 10.5 M17.7 15.4 Q16.95 15.95 15.7 16.05 15.55 16.55 15.95 16.8 17.4 16.8 18.7 15.5 L18.3 15.15 18.15 15.15 18.05 15.3 17.85 15.25 17.7 15.4 M12.7 17.9 L13.45 17.8 13.5 17.25 Q13.2 17.1 12.55 17.25 L11.55 17.35 10.65 17.3 Q10.65 17.85 10.8 18.0 L11.95 18.2 12.7 17.9 M-2.05 -7.65 L-2.0 -4.1 -1.7 -4.0 -1.5 -3.95 Q-1.4 -3.95 -1.4 -4.1 L-1.2 -4.1 -1.3 -6.25 Q-1.25 -7.6 -2.05 -7.65 M-1.2 1.25 Q-0.9 0.8 -1.1 -0.05 L-1.25 -1.5 -2.0 -1.55 -1.85 -0.25 -1.6 1.15 -1.2 1.25 M-1.6 3.05 L-1.55 4.3 -1.5 5.65 -0.55 6.25 -0.85 3.2 -1.6 3.05 M-1.6 12.6 Q-1.15 13.85 -1.3 15.0 L-1.0 15.3 -0.6 15.35 -0.55 13.6 Q-0.65 12.45 -1.35 12.2 L-1.6 12.6 M-1.3 9.2 L-1.2 10.2 -0.6 10.5 Q-0.45 10.15 -0.55 9.4 L-0.65 8.3 -1.3 8.05 -1.3 9.2 M8.4 18.15 Q8.35 17.95 8.45 17.9 L8.65 17.8 8.65 17.5 7.3 17.15 5.95 16.9 Q5.7 18.1 8.25 17.95 L8.2 18.05 8.25 18.15 8.3 18.05 8.4 18.15 M1.25 16.75 Q2.65 17.55 3.95 17.4 L4.1 17.05 4.0 16.6 2.55 16.45 1.3 16.05 1.25 16.75" fill="url(#gradient1)" fill-rule="evenodd" stroke="none"/>
    <path d="M13.9 -9.2 L14.25 -8.75 14.5 -8.2 14.25 -7.55 13.8 -6.95 13.7 -7.05 13.1 -7.55 12.2 -7.7 10.45 -6.8 8.65 -5.55 Q7.45 -4.65 7.05 -4.8 6.95 -5.4 7.65 -6.0 L8.85 -6.85 11.45 -8.8 12.65 -9.5 13.25 -9.55 13.9 -9.2" fill="#8e5b3d" fill-rule="evenodd" stroke="none"/>
    <path d="M-3.55 -5.65 Q-3.65 -4.45 -3.35 -1.3 -3.1 1.6 -3.35 2.85 -3.2 3.75 -3.2 5.6 L-3.2 8.45 -3.25 9.25 -2.95 11.55 -2.75 14.4 -2.35 17.3 -3.35 17.2 -4.55 17.25 -3.95 14.05 Q-3.85 13.45 -3.9 11.8 L-3.75 9.8 -3.9 7.9 -3.8 5.75 Q-4.2 2.15 -4.2 -2.75 L-4.1 -11.2 -3.55 -5.65" fill="#8e5b3d" fill-rule="evenodd" stroke="none"/>
    <path d="M-8.65 12.05 L-7.85 10.45 -8.7 12.95 -8.8 12.8 -8.7 12.25 -8.65 12.1 -8.65 12.05" fill="#8e5b3d" fill-rule="evenodd" stroke="none"/>
    <path d="M14.1 -20.25 Q13.8 -20.2 13.75 -20.4 L14.4 -20.45 14.4 -19.6 Q15.15 -19.5 14.95 -19.05 14.85 -18.75 13.95 -18.55 L12.8 -18.3 10.2 -17.65 5.35 -16.5 3.15 -15.9 0.6 -15.05 -1.25 -14.55 -3.0 -13.85 Q-3.65 -13.45 -3.45 -13.15 -3.4 -13.0 -3.15 -13.0 L-2.85 -13.05 -2.85 -13.0 -3.5 -12.65 Q-3.9 -12.35 -4.15 -12.35 L-4.8 -12.5 -5.25 -13.0 -5.15 -13.45 -5.05 -13.9 -5.45 -13.2 -5.5 -13.05 Q-5.85 -13.95 -6.75 -14.5 L-6.15 -14.55 -5.75 -14.7 -5.85 -14.8 -6.7 -15.65 -7.3 -15.85 -7.95 -16.35 Q-8.35 -16.7 -8.05 -16.85 L-7.35 -17.0 -5.65 -17.4 -2.1 -17.55 0.8 -18.0 2.35 -17.95 10.95 -19.1 12.4 -19.45 13.9 -19.65 14.35 -19.6 14.1 -20.25" fill="#8e5b3d" fill-rule="evenodd" stroke="none"/>
    <path d="M23.75 -0.5 L23.9 0.0 24.75 1.75 25.6 3.35 25.8 3.5 25.9 3.7 Q24.85 6.0 23.35 7.8 L22.95 6.1 22.5 4.35 21.8 -5.9 22.4 -4.2 22.8 -2.55 23.45 -0.9 23.75 -0.5" fill="#8e5b3d" fill-rule="evenodd" stroke="none"/>
    <path d="M23.3 -15.1 Q23.35 -15.75 22.35 -16.4 L21.35 -16.7 20.35 -16.4 19.55 -16.3 18.85 -16.85 18.1 -17.5 17.5 -18.25 17.1 -18.5 16.85 -18.9 16.05 -19.65 Q15.1 -20.4 14.4 -20.45 14.4 -20.9 14.7 -21.3 L16.05 -21.55 17.55 -20.65 19.05 -19.65 20.85 -18.75 22.5 -17.95 Q23.9 -17.0 23.3 -15.1" fill="#8e5b3d" fill-rule="evenodd" stroke="none"/>
    <path d="M-18.5 11.0 L-16.85 10.2 Q-16.25 9.85 -15.2 9.65 L-13.05 9.35 Q-12.45 9.2 -13.0 9.55 -12.7 11.75 -13.7 12.05 L-15.85 12.5 -18.0 12.9 Q-21.45 13.65 -21.45 16.95 L-21.9 16.75 -22.0 16.55 -22.25 15.45 -22.75 14.5 -22.9 13.5 Q-22.6 12.45 -21.0 11.8 L-18.5 11.0" fill="#311a10" fill-rule="evenodd" stroke="none"/>
    <path d="M17.35 -12.35 L17.05 -14.1 Q16.85 -15.4 17.15 -15.75 L17.55 -15.15 18.85 -15.65 20.1 -15.9 20.45 -15.35 20.75 -14.75 20.5 -13.15 18.75 -9.35 Q18.3 -8.15 16.25 -5.6 L17.8 -6.95 Q19.0 -7.75 19.6 -8.55 L20.85 -10.7 21.1 -9.35 21.5 -7.65 21.55 -6.0 21.5 -4.4 Q21.5 -0.35 22.55 2.6 23.2 4.55 23.15 6.35 23.15 8.95 23.6 10.3 L23.95 10.95 24.05 11.7 23.25 13.5 21.85 15.25 19.85 17.35 Q15.6 20.2 12.45 20.1 L8.9 19.95 7.25 20.05 5.75 19.85 6.4 19.65 7.1 19.6 9.25 19.15 Q10.65 18.75 12.35 17.6 L13.1 17.0 13.85 16.35 15.25 14.6 Q16.85 12.55 17.45 10.9 18.2 8.65 18.2 7.1 L18.25 5.45 18.1 3.8 17.65 0.75 Q17.2 -0.65 17.3 -1.25 L16.3 -0.7 15.3 -0.45 14.25 -0.15 9.8 1.6 Q8.9 1.9 7.6 1.0 L6.1 -0.45 5.65 -1.05 Q6.3 -1.0 8.05 0.6 9.9 -0.35 10.55 -0.95 L13.65 -3.5 15.1 -4.7 16.2 -7.0 16.95 -9.65 17.35 -12.35" fill="#d2b691" fill-rule="evenodd" stroke="none"/>
    <path d="M-2.05 -7.65 Q-1.25 -7.6 -1.3 -6.25 L-1.2 -4.1 -1.4 -4.1 Q-1.4 -3.95 -1.5 -3.95 L-1.7 -4.0 -2.0 -4.1 -2.05 -7.65" fill="#301a11" fill-rule="evenodd" stroke="none"/>
    <path d="M19.65 -3.95 L20.25 -3.9 20.35 -3.7 20.4 -3.6 20.7 -2.1 20.8 -0.6 20.4 -0.65 Q20.1 -1.2 19.9 -2.2 L19.65 -3.95" fill="#301a11" fill-rule="evenodd" stroke="none"/>
    <path d="M-1.25 -1.5 L-1.1 -0.05 Q-0.9 0.8 -1.2 1.25 L-1.6 1.15 -1.85 -0.25 -2.0 -1.55 -1.25 -1.5" fill="#301a11" fill-rule="evenodd" stroke="none"/>
    <path d="M21.05 1.55 L21.45 4.55 Q20.8 4.35 20.55 3.3 L20.25 1.35 Q20.65 1.05 21.05 1.55" fill="#301a11" fill-rule="evenodd" stroke="none"/>
    <path d="M-0.55 6.25 L-1.5 5.65 -1.55 4.3 -1.6 3.05 -0.85 3.2 -0.55 6.25" fill="#301a11" fill-rule="evenodd" stroke="none"/>
    <path d="M20.9 5.8 L21.6 6.0 21.7 7.3 21.9 8.55 21.15 8.35 21.0 7.15 Q20.8 6.35 20.9 5.8" fill="#301a11" fill-rule="evenodd" stroke="none"/>
    <path d="M-0.65 8.3 L-0.55 9.4 Q-0.45 10.15 -0.6 10.5 L-1.2 10.2 -1.3 9.2 -1.3 8.05 -0.65 8.3" fill="#301a11" fill-rule="evenodd" stroke="none"/>
    <path d="M21.65 10.45 L22.0 11.5 Q22.1 12.3 21.85 12.6 21.35 12.45 21.25 11.7 L21.15 10.5 21.65 10.45" fill="#301a11" fill-rule="evenodd" stroke="none"/>
    <path d="M-0.6 15.35 L-1.0 15.3 -1.3 15.0 Q-1.15 13.85 -1.6 12.6 L-1.35 12.2 Q-0.65 12.45 -0.55 13.6 L-0.6 15.35" fill="#301a11" fill-rule="evenodd" stroke="none"/>
    <path d="M18.7 15.5 Q17.4 16.8 15.95 16.8 15.55 16.55 15.7 16.05 16.95 15.95 17.7 15.4 L17.85 15.25 18.05 15.3 18.15 15.15 18.3 15.15 18.7 15.5" fill="#301a11" fill-rule="evenodd" stroke="none"/>
    <path d="M1.3 16.05 L2.55 16.45 4.0 16.6 4.1 17.05 3.95 17.4 Q2.65 17.55 1.25 16.75 L1.3 16.05" fill="#301a11" fill-rule="evenodd" stroke="none"/>
    <path d="M8.25 17.95 Q5.7 18.1 5.95 16.9 L7.3 17.15 8.65 17.5 8.65 17.8 8.45 17.9 Q8.35 17.95 8.4 18.15 L8.3 18.05 8.25 18.15 8.2 18.05 8.25 17.95" fill="#301a11" fill-rule="evenodd" stroke="none"/>
    <path d="M-8.95 -12.35 Q-8.85 -15.0 -6.95 -15.35 -6.1 -14.75 -5.6 -13.95 -6.3 -12.45 -6.55 -10.8 -6.75 -8.65 -7.2 -6.65 L-7.25 -4.8 Q-7.2 -3.5 -7.3 -2.95 -7.75 0.0 -7.6 1.35 -7.5 1.9 -7.75 3.1 L-7.95 4.8 Q-7.65 7.95 -7.7 9.55 -7.75 12.3 -8.65 14.05 L-9.5 16.05 Q-10.0 17.3 -10.65 17.9 -11.25 18.5 -12.4 19.0 L-14.4 19.85 -16.2 20.2 Q-17.45 20.3 -17.9 20.7 -17.7 20.2 -16.6 19.6 -15.25 18.85 -15.0 18.6 L-13.1 16.8 Q-12.15 15.7 -11.45 14.25 L-10.8 12.65 -10.3 11.0 Q-10.1 10.45 -10.0 9.2 L-9.7 7.4 Q-9.25 5.7 -8.85 2.3 L-8.45 -2.95 Q-8.1 -5.2 -8.55 -8.2 L-8.95 -12.35" fill="#8e5b3d" fill-rule="evenodd" stroke="none"/>
    <path d="M13.5 17.25 L13.45 17.8 12.7 17.9 11.95 18.2 10.8 18.0 Q10.65 17.85 10.65 17.3 L11.55 17.35 12.55 17.25 Q13.2 17.1 13.5 17.25" fill="#301a11" fill-rule="evenodd" stroke="none"/>
    <path d="M24.35 -12.85 L22.45 -10.35 22.55 -9.55 Q22.35 -8.55 22.75 -6.9 L23.25 -4.25 23.7 -3.3 24.1 -2.35 Q24.2 -1.5 24.75 -1.2 25.4 0.3 27.4 2.95 L26.75 5.0 25.9 6.4 25.5 6.95 25.25 7.55 24.65 8.25 24.2 9.0 Q24.05 9.55 24.05 10.75 L24.0 12.45 23.35 13.65 Q22.7 14.35 22.65 14.8 L21.8 15.7 20.9 16.6 20.85 16.8 20.8 17.0 20.6 17.0 19.75 17.8 19.0 18.6 16.8 20.0 Q15.35 20.8 14.3 20.85 L12.6 21.15 10.85 21.4 10.65 21.35 10.45 21.3 10.35 21.4 10.25 21.5 9.95 21.3 9.65 21.4 9.6 21.25 7.85 21.2 6.1 21.1 5.25 20.8 4.45 20.5 2.75 20.1 2.4 20.2 2.2 20.05 1.8 20.05 1.1 19.7 0.35 19.5 0.3 19.3 -0.8 19.15 -1.95 18.85 -2.95 18.85 -3.15 18.65 Q-4.0 18.65 -4.2 18.9 L-4.55 18.85 -4.9 18.95 Q-5.85 18.9 -6.9 17.85 L-7.25 17.8 -7.6 17.75 -7.7 17.55 Q-8.5 18.15 -9.75 18.75 -10.95 19.3 -10.9 19.15 L-13.0 20.1 -15.3 20.75 -15.5 20.95 -15.7 20.95 -16.45 20.9 -17.15 20.85 -22.35 19.2 -22.6 19.35 -22.55 19.2 Q-23.9 18.7 -26.15 16.85 L-26.8 15.7 -27.45 14.55 -27.45 13.55 -27.3 12.45 -27.05 12.15 -26.95 11.65 -25.85 10.55 -23.3 9.65 -20.55 8.75 -17.95 8.2 -15.55 7.3 Q-15.4 7.5 -13.25 6.4 L-13.1 3.6 -13.0 0.65 -12.85 -2.25 -12.65 -6.0 -12.6 -8.3 -12.6 -9.35 -12.65 -10.4 -12.55 -10.65 -12.65 -10.95 -12.6 -11.15 -12.5 -11.35 -12.35 -13.1 Q-12.1 -14.35 -12.2 -15.05 -11.95 -15.25 -11.95 -15.9 L-11.15 -16.8 -8.15 -17.2 -5.0 -17.5 -4.85 -17.6 -4.75 -17.65 -3.6 -17.75 -2.15 -18.0 -1.25 -18.25 -1.15 -18.1 -0.25 -18.35 -0.1 -18.25 0.35 -18.35 1.85 -18.45 3.4 -18.7 5.05 -19.0 6.95 -19.35 8.9 -19.45 9.45 -19.6 10.05 -19.8 11.0 -19.75 11.9 -20.0 13.15 -20.1 Q13.6 -20.3 13.8 -21.15 14.0 -22.0 14.3 -22.1 L15.3 -22.15 16.2 -21.8 16.4 -21.85 18.1 -20.9 19.85 -20.0 20.0 -20.1 Q19.75 -20.0 20.6 -19.6 L21.65 -19.15 22.65 -18.6 22.65 -18.4 23.35 -17.9 23.95 -17.25 Q24.55 -16.05 24.35 -12.85 M22.75 -17.2 Q20.75 -18.6 18.75 -19.15 17.4 -19.95 17.05 -19.9 L16.9 -20.1 15.8 -20.6 Q15.0 -20.8 14.7 -20.2 L16.7 -19.45 17.8 -18.55 Q18.7 -18.1 19.0 -17.7 L20.05 -17.15 20.5 -16.95 20.9 -16.75 Q22.05 -17.25 23.45 -15.35 L23.2 -16.35 22.75 -17.2 M13.2 -19.0 L12.5 -18.7 12.0 -18.8 10.9 -18.65 9.8 -18.35 8.85 -18.1 7.2 -18.1 5.65 -17.8 2.7 -17.5 1.55 -17.45 0.35 -17.3 0.2 -17.1 -0.2 -17.2 -0.25 -16.95 Q-0.3 -17.2 -0.6 -17.1 L-1.0 -16.9 -2.65 -16.9 -4.4 -16.65 -6.05 -16.35 -7.55 -15.9 -7.05 -15.7 -6.7 -15.65 Q-5.0 -14.4 -4.2 -14.25 -3.75 -13.55 -4.85 -13.1 L-4.65 -12.8 Q-4.55 -12.8 -4.35 -12.95 L-4.1 -12.85 -3.05 -13.25 -2.0 -13.5 1.1 -13.8 4.4 -14.15 4.45 -14.35 5.35 -14.3 6.35 -14.45 6.4 -14.65 7.7 -14.75 9.25 -15.05 9.4 -15.2 9.65 -15.25 10.05 -15.2 10.45 -15.55 10.6 -15.3 10.95 -15.4 11.4 -15.55 12.85 -15.65 15.45 -16.1 18.05 -16.4 18.85 -16.35 19.65 -16.5 17.75 -17.85 15.8 -19.05 15.55 -18.9 Q15.3 -19.2 14.4 -19.3 L14.35 -18.9 13.95 -19.05 13.45 -18.9 13.2 -19.0 M14.75 -15.15 L14.35 -15.25 Q10.55 -14.8 8.45 -14.15 L8.25 -14.3 Q7.9 -13.9 7.05 -14.0 L6.0 -13.85 2.85 -13.45 2.85 -13.25 -0.55 -12.8 -3.3 -12.4 -3.3 -11.65 -2.25 -10.45 -1.15 -9.1 -0.05 -7.8 1.1 -6.65 2.25 -5.55 3.15 -4.5 4.05 -3.5 4.25 -3.5 6.1 -1.85 7.2 -0.8 Q7.95 -0.15 8.5 -0.1 L9.05 -0.3 9.65 -0.45 9.9 -0.8 10.0 -0.7 12.65 -2.75 15.05 -5.1 Q17.4 -6.95 18.65 -9.45 19.65 -10.9 19.85 -11.6 20.5 -12.2 20.55 -13.65 L20.65 -15.9 18.0 -15.65 14.9 -15.3 14.75 -15.15 M19.65 -8.3 Q20.05 -7.9 19.9 -6.95 19.7 -5.9 20.0 -5.4 L19.65 -5.15 Q19.2 -5.35 19.1 -6.3 L19.25 -7.65 17.85 -6.0 16.1 -4.35 15.05 -3.1 13.95 -1.9 11.8 -0.35 9.1 1.3 8.85 1.3 8.5 1.35 Q8.4 1.1 8.0 0.95 L7.5 0.5 7.1 0.5 5.6 -0.8 4.05 -1.9 4.0 -2.1 3.55 -2.4 3.1 -2.8 3.1 -2.95 Q1.3 -4.35 -0.5 -7.05 -1.55 -8.0 -2.1 -9.25 L-2.65 -9.85 -3.2 -10.45 -3.3 -10.5 -2.8 -3.1 Q-2.5 1.4 -2.55 4.0 L-2.45 4.15 -2.55 4.85 -2.45 5.55 -2.6 6.3 -2.5 7.2 Q-2.55 10.6 -1.65 16.8 -1.2 17.3 0.2 17.65 1.7 18.05 2.1 18.4 L2.3 18.3 Q4.7 19.35 10.1 19.55 L10.3 19.5 10.45 19.35 Q12.7 19.6 16.2 18.4 L16.25 18.45 16.45 18.45 18.35 17.2 20.0 16.1 21.45 14.6 22.3 13.8 22.9 12.85 22.8 12.3 22.85 11.3 22.7 9.85 22.55 8.2 22.8 8.0 Q22.1 4.5 21.7 0.5 L21.0 -6.9 20.7 -9.25 20.85 -9.55 20.75 -9.9 19.65 -8.3 M22.4 -4.2 L21.8 -5.9 Q21.95 -4.15 22.45 -1.0 L23.1 3.95 23.2 5.6 Q23.15 6.7 23.4 7.2 L24.75 5.55 25.9 3.7 25.8 3.5 25.6 3.35 24.75 1.75 23.9 0.0 23.75 -0.5 23.45 -0.9 22.8 -2.55 22.4 -4.2 M-5.2 -13.85 Q-6.15 -14.7 -9.25 -15.85 L-10.6 -15.25 Q-11.2 -14.55 -11.4 -12.5 L-11.6 -11.9 -11.45 -11.55 -11.75 -10.0 -11.7 -7.7 -11.75 -6.0 -11.95 -5.8 -11.8 -4.35 Q-11.6 -2.85 -11.85 -2.35 L-12.0 0.5 -11.85 1.2 Q-11.8 1.6 -12.0 1.7 L-12.05 3.45 -12.1 5.25 -12.05 5.5 -12.15 5.6 -12.25 7.6 -12.55 9.6 -12.55 10.45 -12.7 11.3 -12.85 12.95 -13.05 13.8 -13.35 14.6 -14.35 16.7 -15.75 17.8 -17.0 18.65 -17.7 18.6 -17.75 18.6 -18.25 18.7 -18.4 18.65 -19.65 18.45 -21.1 18.5 -19.4 18.95 -17.75 19.25 -17.55 19.4 -15.9 19.55 -14.2 19.35 -13.65 19.4 -13.05 19.1 Q-12.4 18.95 -12.35 18.55 L-11.95 17.7 -10.8 17.0 -10.4 16.45 -10.15 16.4 -9.6 15.4 Q-8.9 14.2 -8.75 13.3 L-8.45 10.5 -8.15 7.65 -8.25 7.3 -8.05 2.85 -7.75 -3.05 -7.2 -8.55 Q-6.8 -11.75 -5.65 -13.5 L-5.2 -13.85 M-5.3 -12.55 Q-6.0 -11.25 -6.3 -9.5 L-6.7 -6.05 -6.8 -6.0 -6.85 -5.9 -6.95 -4.35 Q-7.0 -3.5 -7.2 -2.95 L-7.35 1.8 Q-7.4 4.75 -7.6 7.0 -7.55 8.15 -7.85 10.95 L-8.0 13.2 -8.35 14.3 -8.6 15.4 -7.15 16.5 Q-6.25 17.2 -5.45 17.15 -4.75 14.95 -4.6 12.15 L-4.8 11.9 Q-4.6 11.75 -4.65 11.45 L-4.75 10.95 -4.6 6.15 -4.8 0.35 -4.95 -0.65 -4.75 -11.2 -4.8 -11.45 -4.75 -11.9 -5.0 -12.2 -5.3 -12.55 M-3.55 -5.65 L-4.1 -11.2 -4.2 -2.75 Q-4.2 2.15 -3.8 5.75 L-3.9 7.9 -3.75 9.8 -3.9 11.8 Q-3.85 13.45 -3.95 14.05 L-4.55 17.25 -3.35 17.2 -2.35 17.3 -2.75 14.4 -2.95 11.55 -3.25 9.25 -3.2 8.45 -3.2 5.6 Q-3.2 3.75 -3.35 2.85 -3.1 1.6 -3.35 -1.3 -3.65 -4.45 -3.55 -5.65 M-18.8 12.1 L-19.0 12.0 Q-19.15 12.25 -19.55 12.3 L-20.2 12.45 -21.55 13.55 -21.9 13.8 -22.0 14.05 -22.2 14.15 -22.4 14.35 -22.2 15.3 -21.7 16.05 -20.65 16.4 Q-19.9 16.75 -19.85 17.0 L-16.7 17.2 Q-15.65 17.2 -14.45 14.85 -13.1 12.25 -13.6 10.05 -16.1 11.05 -17.0 11.0 L-18.8 12.1 M-15.45 8.8 L-17.8 9.2 -18.0 9.1 Q-19.6 9.45 -20.55 10.05 L-22.75 11.1 -22.8 11.3 Q-22.85 11.15 -23.0 11.2 -23.85 11.65 -24.0 12.05 -25.2 12.55 -25.35 13.75 L-25.2 14.85 -25.0 15.8 -22.9 17.75 Q-22.2 17.7 -21.75 18.0 L-21.05 18.4 -22.15 17.7 -22.9 16.6 -23.5 16.15 Q-24.1 15.05 -23.95 13.55 L-23.2 12.4 -19.85 10.85 -18.75 10.6 -17.7 10.35 -13.7 8.95 -13.45 8.8 -13.25 8.8 -13.15 8.65 -13.0 8.5 -13.65 8.55 -14.5 8.6 -15.45 8.8" fill="#301a11" fill-rule="evenodd" stroke="none"/>
    <path d="M13.6 -8.45 L12.7 -8.85 12.0 -8.4 11.0 -7.95 10.85 -7.7 9.45 -6.9 Q8.4 -6.05 8.0 -5.9 L7.8 -5.65 7.55 -5.3 Q8.9 -4.55 8.8 -3.7 9.2 -3.85 9.7 -4.35 L10.5 -5.15 13.2 -7.05 13.3 -7.25 Q13.7 -7.25 14.0 -7.7 14.0 -8.25 13.65 -8.55 L13.6 -8.45 M13.1 -9.85 Q14.15 -9.5 14.7 -8.65 15.3 -7.8 14.85 -6.85 L14.7 -7.05 14.05 -6.5 Q13.65 -6.15 13.3 -6.1 L13.4 -6.0 12.1 -5.15 10.8 -4.2 Q11.25 -3.55 10.95 -2.85 10.65 -2.15 9.95 -2.35 L9.9 -2.55 9.7 -2.55 9.5 -2.7 9.5 -3.15 8.9 -2.65 8.25 -2.15 6.4 -3.7 Q6.0 -5.15 6.65 -5.9 7.25 -5.8 7.65 -6.65 7.95 -6.6 8.2 -6.9 L8.75 -7.25 8.4 -7.7 8.6 -7.8 Q8.45 -8.3 8.6 -8.8 8.7 -9.45 9.1 -9.55 L10.25 -8.85 10.25 -8.4 12.3 -9.7 12.4 -9.6 12.8 -9.75 13.1 -9.85" fill="#301a11" fill-rule="evenodd" stroke="none"/>
  </g>
  <defs>
    <linearGradient gradientTransform="matrix(-0.0036, -0.0022, -0.0022, 0.0036, -6.65, 1.7)" gradientUnits="userSpaceOnUse" id="gradient0" spreadMethod="pad" x1="-819.2" x2="819.2">
      <stop offset="0.0" stop-color="#b39372"/>
      <stop offset="0.24313725490196078" stop-color="#a68769"/>
      <stop offset="0.6862745098039216" stop-color="#856951"/>
      <stop offset="1.0" stop-color="#6a503e"/>
    </linearGradient>
    <linearGradient gradientTransform="matrix(0.002, -0.0107, -0.0107, -0.002, 8.95, 5.75)" gradientUnits="userSpaceOnUse" id="gradient1" spreadMethod="pad" x1="-819.2" x2="819.2">
      <stop offset="0.0" stop-color="#b39372"/>
      <stop offset="0.24313725490196078" stop-color="#a68769"/>
      <stop offset="0.6862745098039216" stop-color="#856951"/>
      <stop offset="1.0" stop-color="#6a503e"/>
    </linearGradient>
  </defs>
</svg>
