<?xml version="1.0" encoding="UTF-8" standalone="no"?>
<svg xmlns:xlink="http://www.w3.org/1999/xlink" height="51.85px" width="53.2px" xmlns="http://www.w3.org/2000/svg">
  <g transform="matrix(1.0, 0.0, 0.0, 1.0, 28.85, 24.2)">
    <path d="M21.2 -2.6 L21.25 -1.0 Q21.0 0.0 20.1 0.3 L17.1 0.5 16.1 0.5 14.7 8.7 14.95 8.75 Q16.3 9.1 16.6 9.7 L17.1 10.5 17.65 11.25 18.3 11.6 Q19.55 12.2 19.7 12.45 L19.75 12.65 19.8 12.75 Q20.05 13.3 19.0 15.1 L17.4 17.2 16.35 17.7 15.25 18.05 Q14.6 18.4 14.0 19.1 L13.0 20.45 Q11.8 22.0 9.5 22.1 L5.55 22.45 Q4.9 22.7 3.85 23.45 L2.2 24.45 0.05 24.6 -2.1 24.2 -4.2 23.85 -6.15 24.2 Q-8.3 25.05 -9.7 23.8 -10.85 22.3 -11.25 22.1 L-12.8 21.95 -14.3 21.9 Q-15.75 21.65 -16.3 20.2 -16.95 18.75 -17.3 18.65 -18.55 18.3 -19.05 17.7 -19.5 17.0 -19.3 15.8 L-19.3 15.0 Q-20.35 13.85 -19.35 12.4 -19.05 11.6 -17.5 10.65 L-16.05 9.7 -16.05 9.65 -17.0 4.05 Q-20.4 2.35 -20.75 1.85 -21.35 1.1 -21.45 0.1 -21.55 -0.85 -21.1 -1.45 L-19.05 -4.25 -20.85 -7.4 -17.0 -11.35 -13.95 -11.0 -12.15 -13.4 -11.75 -13.3 -10.1 -13.2 Q-6.25 -13.2 -1.05 -14.3 4.7 -15.5 6.6 -17.0 7.25 -17.55 8.35 -17.55 L10.15 -17.25 10.35 -17.15 10.5 -17.0 21.15 -2.7 21.2 -2.6" fill="#ffffff" fill-rule="evenodd" stroke="none"/>
    <path d="M21.2 -2.6 L21.15 -2.7 10.5 -17.0 10.35 -17.15 10.15 -17.25 8.35 -17.55 Q7.25 -17.55 6.6 -17.0 4.7 -15.5 -1.05 -14.3 -6.25 -13.2 -10.1 -13.2 L-11.75 -13.3 -12.15 -13.4 -13.95 -11.0 -17.0 -11.35 -20.85 -7.4 -19.05 -4.25 -21.1 -1.45 Q-21.55 -0.85 -21.45 0.1 -21.35 1.1 -20.75 1.85 -20.4 2.35 -17.0 4.05 L-16.05 9.65 -16.05 9.7 -17.5 10.65 Q-19.05 11.6 -19.35 12.4 -20.35 13.85 -19.3 15.0 L-19.3 15.8 Q-19.5 17.0 -19.05 17.7 -18.55 18.3 -17.3 18.65 -16.95 18.75 -16.3 20.2 -15.75 21.65 -14.3 21.9 L-12.8 21.95 -11.25 22.1 Q-10.85 22.3 -9.7 23.8 -8.3 25.05 -6.15 24.2 L-4.2 23.85 -2.1 24.2 0.05 24.6 2.2 24.45 3.85 23.45 Q4.9 22.7 5.55 22.45 L9.5 22.1 Q11.8 22.0 13.0 20.45 L14.0 19.1 Q14.6 18.4 15.25 18.05 L16.35 17.7 17.4 17.2 19.0 15.1 Q20.05 13.3 19.8 12.75 L19.75 12.65 19.7 12.45 Q19.55 12.2 18.3 11.6 L17.65 11.25 17.1 10.5 16.6 9.7 Q16.3 9.1 14.95 8.75 L14.7 8.7 16.1 0.5 17.1 0.5 20.1 0.3 Q21.0 0.0 21.25 -1.0 L21.2 -2.6 Z" fill="none" stroke="#ffffff" stroke-linecap="butt" stroke-linejoin="miter" stroke-width="6.0"/>
    <path d="M-13.25 -20.25 Q-12.85 -19.4 -12.95 -18.3 L-12.4 -18.15 Q-11.85 -17.75 -12.0 -16.4 -12.15 -15.0 -13.5 -14.75 L-14.75 -14.8 -15.0 -14.2 Q-16.5 -12.55 -18.2 -14.35 L-18.35 -14.5 -18.5 -14.4 Q-19.55 -13.9 -20.5 -15.45 -21.55 -17.0 -19.35 -18.45 -19.85 -19.85 -18.7 -20.55 L-16.45 -20.6 Q-14.0 -22.0 -13.25 -20.25" fill="#ffffff" fill-rule="evenodd" stroke="none"/>
    <path d="M-13.25 -20.25 Q-14.0 -22.0 -16.45 -20.6 L-18.7 -20.55 Q-19.85 -19.85 -19.35 -18.45 -21.55 -17.0 -20.5 -15.45 -19.55 -13.9 -18.5 -14.4 L-18.35 -14.5 -18.2 -14.35 Q-16.5 -12.55 -15.0 -14.2 L-14.75 -14.8 -13.5 -14.75 Q-12.15 -15.0 -12.0 -16.4 -11.85 -17.75 -12.4 -18.15 L-12.95 -18.3 Q-12.85 -19.4 -13.25 -20.25 Z" fill="none" stroke="#ffffff" stroke-linecap="butt" stroke-linejoin="miter" stroke-width="6.0"/>
    <path d="M14.35 8.95 Q16.0 9.1 16.6 9.7 L17.1 10.5 17.65 11.25 18.85 11.95 Q19.7 12.35 19.8 12.75 20.05 13.3 19.0 15.1 L17.4 17.2 16.35 17.7 15.25 18.05 Q14.6 18.4 14.0 19.1 L13.0 20.45 Q11.8 22.0 9.5 22.1 L5.55 22.45 Q4.9 22.7 3.85 23.45 L2.2 24.45 0.05 24.6 -2.1 24.2 -4.2 23.85 -6.15 24.2 Q-8.3 25.05 -9.7 23.8 -10.85 22.3 -11.25 22.1 L-12.8 21.95 -14.3 21.9 Q-15.75 21.65 -16.3 20.2 -16.95 18.75 -17.3 18.65 -18.7 18.25 -19.15 17.5 -19.55 16.65 -19.25 15.15 -20.5 13.8 -19.2 12.1 -18.15 10.85 -16.55 10.1 L-2.05 8.8 Q6.1 8.4 11.95 8.8 L14.35 8.95" fill="url(#gradient0)" fill-rule="evenodd" stroke="none"/>
    <path d="M14.95 8.75 Q16.6 9.2 16.6 9.8 L16.65 10.45 Q16.75 11.1 17.15 11.2 19.2 11.8 19.7 12.45 19.9 12.7 19.25 13.2 18.55 13.75 18.6 13.95 18.75 14.3 18.5 15.05 L17.5 16.3 Q16.5 17.0 14.15 17.5 L13.55 18.8 12.0 20.35 Q11.2 20.85 8.95 20.8 L6.6 20.75 5.6 21.35 3.5 22.75 -0.4 23.1 -3.4 22.35 -5.25 22.65 -8.05 22.95 Q-8.8 22.85 -10.05 21.85 L-11.25 20.75 -12.4 20.75 -14.45 20.4 Q-15.35 20.0 -16.35 18.45 L-17.1 16.95 Q-18.6 17.0 -19.25 16.25 -19.45 15.9 -19.3 14.8 L-19.15 13.55 Q-20.1 12.55 -18.15 11.1 L-16.05 9.7 Q-16.05 7.05 -1.2 7.5 L14.95 8.75" fill="url(#gradient1)" fill-rule="evenodd" stroke="none"/>
    <path d="M-16.35 13.95 Q-15.55 14.35 -16.2 14.85 L-17.5 15.1 -17.1 14.3 -16.35 13.95" fill="#d0fd9b" fill-rule="evenodd" stroke="none"/>
    <path d="M-12.55 16.35 L-12.9 16.3 -12.4 16.7 Q-13.35 17.3 -14.7 16.9 -14.5 16.4 -13.7 16.2 L-12.55 16.35" fill="#d0fd9b" fill-rule="evenodd" stroke="none"/>
    <path d="M-9.45 17.1 L-9.55 17.3 Q-8.85 17.55 -8.95 17.95 -9.0 18.4 -9.8 18.3 -11.45 18.2 -11.15 17.65 -10.8 17.05 -9.45 17.1" fill="#d0fd9b" fill-rule="evenodd" stroke="none"/>
    <path d="M-7.15 19.15 L-7.2 18.9 -6.4 19.4 -8.8 19.35 Q-7.8 18.8 -7.15 19.15" fill="#d0fd9b" fill-rule="evenodd" stroke="none"/>
    <path d="M-12.7 18.0 L-12.7 17.8 Q-12.15 17.8 -11.85 18.25 L-13.9 18.2 -13.4 17.85 -12.7 18.0" fill="#d0fd9b" fill-rule="evenodd" stroke="none"/>
    <path d="M-3.1 18.85 L-3.0 7.95 8.7 -13.9 15.8 -1.3 13.25 13.1 -2.0 19.85 -3.1 18.85" fill="url(#gradient2)" fill-rule="evenodd" stroke="none"/>
    <path d="M14.45 4.0 Q13.15 1.5 11.0 -0.55 6.8 -4.65 2.75 -2.45 2.4 -2.2 5.35 -7.6 L8.4 -13.1 16.05 -3.65 14.45 4.0" fill="#a4a4a4" fill-rule="evenodd" stroke="none"/>
    <path d="M-2.7 19.05 L-15.25 10.55 -16.7 1.1 -2.6 6.15 -2.7 19.05" fill="url(#gradient3)" fill-rule="evenodd" stroke="none"/>
    <path d="M-12.45 5.15 L-6.8 7.3 -6.9 12.5 -12.25 9.8 -12.45 5.15" fill="url(#gradient4)" fill-rule="evenodd" stroke="none"/>
    <path d="M4.2 17.1 L4.3 4.25 10.75 2.45 9.85 14.6 4.2 17.1" fill="url(#gradient5)" fill-rule="evenodd" stroke="none"/>
    <path d="M3.6 17.95 L3.7 3.85 11.4 1.7 10.45 15.0 3.6 17.95 M4.85 4.7 L4.8 16.65 9.35 14.7 10.15 3.2 4.85 4.7" fill="#000000" fill-rule="evenodd" stroke="none"/>
    <path d="M6.05 5.35 L9.05 5.4 8.9 9.3 6.1 10.05 6.05 5.35" fill="url(#gradient6)" fill-rule="evenodd" stroke="none"/>
    <path d="M-15.85 10.95 L-18.0 -2.15 8.2 -16.2 16.85 -4.1 13.85 13.55 Q1.1 20.15 -1.9 20.4 -3.35 20.5 -15.85 10.95 M-14.65 10.15 Q-3.45 18.95 -1.75 18.9 0.2 18.8 12.65 12.65 L15.45 -3.8 7.8 -14.45 -16.5 -1.45 -14.65 10.15" fill="#6c56a7" fill-rule="evenodd" stroke="none"/>
    <path d="M-15.85 10.95 L-18.0 -2.15 8.2 -16.2 16.85 -4.1 13.85 13.55 Q1.1 20.15 -1.9 20.4 -3.35 20.5 -15.85 10.95 M-14.65 10.15 Q-3.45 18.95 -1.75 18.9 0.2 18.8 12.65 12.65 L15.45 -3.8 7.8 -14.45 -16.5 -1.45 -14.65 10.15" fill="none" stroke="#6c56a7" stroke-linecap="butt" stroke-linejoin="miter" stroke-width="1.0"/>
    <path d="M20.6 -2.4 Q21.15 -1.05 20.2 -0.35 L17.6 -0.05 15.75 -0.35 8.6 -11.45 Q1.7 2.7 -0.6 6.25 -2.05 8.45 -4.65 8.45 L-7.0 8.0 -13.4 5.1 Q-19.8 2.0 -20.2 1.5 -20.65 0.85 -20.75 0.1 -20.85 -0.65 -20.55 -1.05 L-11.85 -12.65 Q-9.0 -12.15 -2.4 -13.35 4.65 -14.65 7.05 -16.5 L9.9 -16.65 20.6 -2.4" fill="url(#gradient7)" fill-rule="evenodd" stroke="none"/>
    <path d="M18.95 -0.4 L9.05 -13.5 Q-0.7 6.95 -2.0 7.9 -2.95 8.55 -4.45 8.65 L-6.55 8.35 Q-7.3 7.75 -19.85 2.0 L-20.45 -0.1 -15.4 1.95 -7.9 4.95 -5.35 5.3 Q-3.4 5.2 -2.45 4.0 L2.3 -5.65 Q6.6 -14.65 7.7 -16.0 8.3 -16.7 9.3 -16.4 L10.1 -15.9 20.4 -2.45 20.4 -0.55 18.95 -0.4" fill="url(#gradient8)" fill-rule="evenodd" stroke="none"/>
    <path d="M17.1 -0.85 L19.7 -0.95 Q20.15 -1.1 19.95 -2.1 L9.5 -16.05 8.35 -16.2 7.4 -15.95 Q5.15 -14.25 -0.95 -13.0 -6.3 -11.9 -10.1 -11.9 L-11.55 -11.95 -20.05 -0.65 -20.1 0.05 -19.65 1.05 Q-18.6 2.0 -6.7 7.4 L-6.15 7.6 -4.75 7.75 Q-2.4 7.75 -1.15 5.85 1.1 2.4 8.0 -11.75 L8.5 -12.85 16.2 -0.85 17.1 -0.85 M21.2 -2.6 L21.25 -1.0 Q21.0 0.0 20.1 0.3 L17.1 0.5 15.4 0.5 8.65 -10.1 Q2.6 2.55 -0.05 6.55 -1.65 9.1 -4.75 9.1 L-6.5 8.85 -7.25 8.6 Q-20.05 2.85 -20.75 1.85 -21.35 1.1 -21.45 0.1 -21.55 -0.85 -21.1 -1.45 L-12.4 -13.1 -12.15 -13.4 -11.75 -13.3 -10.1 -13.2 Q-6.25 -13.2 -1.05 -14.3 4.7 -15.5 6.6 -17.0 7.25 -17.55 8.35 -17.55 L10.15 -17.25 10.35 -17.15 10.5 -17.0 21.15 -2.7 21.2 -2.6" fill="#000000" fill-rule="evenodd" stroke="none"/>
    <path d="M-13.5 -14.75 L-14.75 -14.8 -15.0 -14.2 Q-16.5 -12.55 -18.2 -14.35 L-18.35 -14.5 -18.5 -14.4 Q-19.55 -13.9 -20.5 -15.45 -21.55 -17.0 -19.35 -18.45 -19.85 -19.85 -18.7 -20.55 L-16.45 -20.6 Q-14.0 -22.0 -13.25 -20.25 -12.85 -19.4 -12.95 -18.3 L-12.4 -18.15 Q-11.85 -17.75 -12.0 -16.4 -12.15 -15.0 -13.5 -14.75" fill="url(#gradient9)" fill-rule="evenodd" stroke="none"/>
    <path d="M-19.4 -7.1 L-15.25 -6.15 -14.05 -2.05 -16.85 -2.9 -19.4 -7.1" fill="url(#gradient10)" fill-rule="evenodd" stroke="none"/>
    <path d="M-15.25 -6.15 L-12.5 -9.65 -12.0 -4.25 -14.1 -1.9 -15.25 -6.15" fill="#a4a4a4" fill-rule="evenodd" stroke="none"/>
    <path d="M-19.35 -7.05 L-16.7 -10.25 -12.5 -9.75 -15.25 -6.15 -19.35 -7.05" fill="#ffffff" fill-rule="evenodd" stroke="none"/>
    <path d="M-15.35 -7.2 L-17.75 -7.7 -16.25 -9.35 -14.1 -8.95 -15.35 -7.2" fill="url(#gradient11)" fill-rule="evenodd" stroke="none"/>
    <path d="M-17.0 -11.35 L-11.6 -10.75 -10.75 -3.95 -13.65 -0.6 -17.75 -2.05 -20.85 -7.4 -17.0 -11.35 M-16.85 -3.15 L-14.05 -2.2 -12.15 -4.35 -12.8 -9.55 -16.5 -9.95 -19.2 -7.2 -16.85 -3.15" fill="#7c3f88" fill-rule="evenodd" stroke="none"/>
  </g>
  <defs>
    <linearGradient gradientTransform="matrix(0.0134, -0.0066, -0.0066, -0.0134, 2.75, 13.3)" gradientUnits="userSpaceOnUse" id="gradient0" spreadMethod="pad" x1="-819.2" x2="819.2">
      <stop offset="0.0" stop-color="#53c93f"/>
      <stop offset="1.0" stop-color="#d0fd9b"/>
    </linearGradient>
    <linearGradient gradientTransform="matrix(0.0178, -0.0033, -0.0033, -0.0178, 1.5, 14.3)" gradientUnits="userSpaceOnUse" id="gradient1" spreadMethod="pad" x1="-819.2" x2="819.2">
      <stop offset="0.0" stop-color="#a5ea72"/>
      <stop offset="1.0" stop-color="#aaec77"/>
    </linearGradient>
    <linearGradient gradientTransform="matrix(0.0099, -0.0206, -0.0206, -0.0099, 10.75, -1.15)" gradientUnits="userSpaceOnUse" id="gradient2" spreadMethod="pad" x1="-819.2" x2="819.2">
      <stop offset="0.0" stop-color="#ffffff"/>
      <stop offset="1.0" stop-color="#a4a4a4"/>
    </linearGradient>
    <linearGradient gradientTransform="matrix(5.0E-4, -0.008, -0.008, -5.0E-4, -9.45, 6.4)" gradientUnits="userSpaceOnUse" id="gradient3" spreadMethod="pad" x1="-819.2" x2="819.2">
      <stop offset="0.0" stop-color="#ffffff"/>
      <stop offset="1.0" stop-color="#a4a4a4"/>
    </linearGradient>
    <linearGradient gradientTransform="matrix(2.0E-4, -0.0022, -0.0022, -2.0E-4, -9.7, 8.8)" gradientUnits="userSpaceOnUse" id="gradient4" spreadMethod="pad" x1="-819.2" x2="819.2">
      <stop offset="0.0" stop-color="#723ba1"/>
      <stop offset="0.14901960784313725" stop-color="#6e399b"/>
      <stop offset="0.34509803921568627" stop-color="#63338b"/>
      <stop offset="0.5686274509803921" stop-color="#512a71"/>
      <stop offset="0.807843137254902" stop-color="#381d4d"/>
      <stop offset="1.0" stop-color="#20102b"/>
    </linearGradient>
    <linearGradient gradientTransform="matrix(5.0E-4, -0.0052, -0.0052, -5.0E-4, 7.0, 10.2)" gradientUnits="userSpaceOnUse" id="gradient5" spreadMethod="pad" x1="-819.2" x2="819.2">
      <stop offset="0.0" stop-color="#723ba1"/>
      <stop offset="0.14901960784313725" stop-color="#6e399b"/>
      <stop offset="0.34509803921568627" stop-color="#63338b"/>
      <stop offset="0.5686274509803921" stop-color="#512a71"/>
      <stop offset="0.807843137254902" stop-color="#381d4d"/>
      <stop offset="1.0" stop-color="#20102b"/>
    </linearGradient>
    <linearGradient gradientTransform="matrix(1.0E-4, -0.0027, -0.0027, -1.0E-4, 7.5, 6.65)" gradientUnits="userSpaceOnUse" id="gradient6" spreadMethod="pad" x1="-819.2" x2="819.2">
      <stop offset="0.0" stop-color="#7c3f88"/>
      <stop offset="0.20784313725490197" stop-color="#6e387b"/>
      <stop offset="0.6" stop-color="#4b2656"/>
      <stop offset="1.0" stop-color="#20102b"/>
    </linearGradient>
    <linearGradient gradientTransform="matrix(0.0011, -0.0117, -0.0117, -0.0011, 0.2, -2.95)" gradientUnits="userSpaceOnUse" id="gradient7" spreadMethod="pad" x1="-819.2" x2="819.2">
      <stop offset="0.0" stop-color="#703b9c"/>
      <stop offset="0.15294117647058825" stop-color="#6c3996"/>
      <stop offset="0.3568627450980392" stop-color="#613387"/>
      <stop offset="0.5843137254901961" stop-color="#4e296d"/>
      <stop offset="0.8274509803921568" stop-color="#351b49"/>
      <stop offset="1.0" stop-color="#20102b"/>
    </linearGradient>
    <linearGradient gradientTransform="matrix(0.0067, -0.0134, -0.0134, -0.0067, 2.0, -4.3)" gradientUnits="userSpaceOnUse" id="gradient8" spreadMethod="pad" x1="-819.2" x2="819.2">
      <stop offset="0.0" stop-color="#cb9af8"/>
      <stop offset="1.0" stop-color="#703c9a"/>
    </linearGradient>
    <linearGradient gradientTransform="matrix(-5.0E-4, 0.0044, 0.0044, 5.0E-4, -16.3, -17.3)" gradientUnits="userSpaceOnUse" id="gradient9" spreadMethod="pad" x1="-819.2" x2="819.2">
      <stop offset="0.0" stop-color="#ffffff"/>
      <stop offset="1.0" stop-color="#d4b0f9"/>
    </linearGradient>
    <linearGradient gradientTransform="matrix(-5.0E-4, -0.0021, -0.0021, 5.0E-4, -16.75, -4.6)" gradientUnits="userSpaceOnUse" id="gradient10" spreadMethod="pad" x1="-819.2" x2="819.2">
      <stop offset="0.0" stop-color="#ffffff"/>
      <stop offset="1.0" stop-color="#a4a4a4"/>
    </linearGradient>
    <linearGradient gradientTransform="matrix(7.0E-4, 0.0026, 0.0026, -7.0E-4, -16.3, -9.9)" gradientUnits="userSpaceOnUse" id="gradient11" spreadMethod="pad" x1="-819.2" x2="819.2">
      <stop offset="0.0" stop-color="#ffffff"/>
      <stop offset="1.0" stop-color="#a4a4a4"/>
    </linearGradient>
  </defs>
</svg>
