<?xml version="1.0" encoding="UTF-8" standalone="no"?>
<svg xmlns:xlink="http://www.w3.org/1999/xlink" height="45.5px" width="49.0px" xmlns="http://www.w3.org/2000/svg">
  <g transform="matrix(1.0, 0.0, 0.0, 1.0, 24.4, 15.7)">
    <path d="M24.15 20.2 Q24.85 21.45 24.45 22.75 23.95 24.35 22.3 25.0 18.15 26.85 10.15 29.0 L8.65 29.1 Q8.2 29.05 7.5 28.65 L7.3 28.7 Q3.0 29.8 -6.9 29.8 L-13.0 29.65 -14.0 29.6 -17.65 29.1 Q-19.8 28.6 -20.3 27.4 -21.25 25.0 -22.9 9.65 L-23.65 -0.45 -23.45 -1.75 Q-23.95 -2.6 -23.95 -4.6 L-23.95 -4.7 -24.4 -11.4 Q-24.55 -13.55 -22.6 -14.55 -20.1 -16.1 -16.75 -15.55 L-12.8 -14.2 Q-9.6 -12.65 -1.05 -12.65 L8.5 -13.1 13.95 -13.9 Q16.5 -14.6 17.95 -13.95 19.5 -13.2 19.95 -11.0 20.8 -7.15 19.8 2.75 20.65 3.6 20.7 4.85 L20.9 8.15 Q21.6 15.8 24.15 20.2" fill="#ffffff" fill-rule="evenodd" stroke="none"/>
    <path d="M21.15 22.05 Q17.65 23.6 9.55 25.8 L8.05 21.8 8.35 25.1 5.6 25.75 0.75 26.75 -8.6 26.45 Q-16.7 25.65 -17.3 23.35 L-18.9 15.55 Q-19.15 10.85 -20.3 -0.85 -19.05 -1.35 -17.9 -1.9 L-20.5 -3.5 -21.0 -11.85 -19.35 -12.1 Q-17.25 -12.25 -14.75 -11.35 -8.65 -9.1 -2.7 -8.75 L2.1 -8.9 13.05 -10.2 Q15.55 -10.6 16.85 -11.15 L16.25 4.45 17.3 5.15 17.4 6.45 Q18.05 16.8 21.15 22.05" fill="url(#gradient0)" fill-rule="evenodd" stroke="none"/>
  </g>
  <defs>
    <linearGradient gradientTransform="matrix(-0.0049, -0.0213, 0.0213, -0.0049, 0.7, 10.0)" gradientUnits="userSpaceOnUse" id="gradient0" spreadMethod="pad" x1="-819.2" x2="819.2">
      <stop offset="0.03137254901960784" stop-color="#eae0c7"/>
      <stop offset="1.0" stop-color="#d1b98e"/>
    </linearGradient>
  </defs>
</svg>
