<?xml version="1.0" encoding="UTF-8" standalone="no"?>
<svg xmlns:xlink="http://www.w3.org/1999/xlink" height="23.9px" width="28.0px" xmlns="http://www.w3.org/2000/svg">
  <g transform="matrix(1.0, 0.0, 0.0, 1.0, 0.0, 0.0)">
    <path d="M25.65 4.75 L26.85 6.15 Q27.7 7.0 27.9 7.75 28.3 9.35 26.75 10.1 L26.25 9.85 Q25.5 11.05 25.65 12.45 L25.95 15.2 25.55 15.8 24.9 16.25 24.35 17.1 23.9 18.1 Q22.95 19.4 20.75 20.9 19.75 21.5 18.45 21.9 L17.9 22.85 17.5 23.9 16.9 22.4 Q14.6 22.55 13.15 22.35 11.2 22.0 9.6 20.95 7.45 20.7 5.85 19.55 4.05 18.2 3.1 15.85 L2.45 14.6 Q2.25 14.45 1.15 14.6 L1.75 13.75 2.05 12.9 Q1.65 11.35 2.3 9.0 1.55 8.35 1.2 7.15 L0.65 6.2 0.05 5.2 Q-0.3 3.9 2.4 3.05 5.1 2.25 5.25 4.1 L6.6 2.55 8.05 1.15 9.35 0.85 10.6 0.55 15.65 0.3 16.7 0.4 Q17.25 0.45 17.9 0.0 L17.9 1.1 Q18.4 1.3 19.55 2.0 20.65 2.6 21.3 2.5 21.2 3.1 22.25 4.2 L23.75 5.75 23.8 5.15 25.5 5.15 25.65 4.75" fill="#ffffff" fill-rule="evenodd" stroke="none"/>
    <path d="M22.1 5.8 Q23.3 7.15 23.55 8.65 L23.2 8.7 23.55 8.7 23.55 8.75 Q23.55 9.35 22.7 9.9 L21.05 10.65 18.35 11.55 14.5 12.2 14.6 12.25 15.4 12.35 15.75 12.35 Q16.4 12.4 17.1 13.05 L17.95 13.9 20.3 15.0 Q21.65 15.55 22.65 15.55 L23.15 15.55 23.0 16.05 Q22.15 18.6 19.3 19.9 16.9 21.0 13.8 21.0 L12.15 20.65 10.65 20.1 Q7.6 19.3 5.65 17.25 3.5 14.95 3.5 11.85 3.5 10.55 3.85 9.45 L4.2 9.55 Q3.8 9.05 3.7 8.35 3.7 7.2 5.1 5.95 6.45 4.7 9.45 2.8 L9.5 2.7 9.7 2.7 11.8 2.2 14.25 1.65 15.75 2.0 16.25 1.95 Q17.7 1.95 19.85 3.7 L22.1 5.8" fill="#6bb5be" fill-rule="evenodd" stroke="none"/>
    <path d="M23.55 10.1 L23.6 11.15 23.6 12.05 Q22.7 11.5 22.3 10.75 L23.55 10.1" fill="#a3d0d4" fill-rule="evenodd" stroke="none"/>
    <path d="M20.9 14.85 Q17.7 14.0 18.05 13.25 17.55 13.1 17.25 12.65 17.75 12.25 18.55 12.2 19.45 12.1 19.65 12.75 L21.05 13.55 Q22.1 14.15 22.1 13.4 L20.3 12.95 19.4 12.0 Q20.8 11.25 21.15 11.2 L22.1 11.7 23.4 12.65 Q24.2 13.4 24.15 14.0 24.0 15.7 20.9 14.85" fill="#d6252a" fill-rule="evenodd" stroke="none"/>
    <path d="M5.9 5.6 L6.3 5.4 Q6.35 7.85 9.15 8.65 11.95 9.4 13.15 7.25 13.55 9.1 11.65 10.1 L8.55 10.35 Q6.15 9.25 5.85 8.05 L5.9 5.6" fill="#e4f0f1" fill-rule="evenodd" stroke="none"/>
    <path d="M12.25 3.35 L12.65 3.25 12.8 3.25 12.9 3.35 12.95 3.55 13.2 3.7 13.25 3.75 13.4 5.0 Q13.3 7.25 12.05 8.05 11.1 8.75 9.85 8.75 L9.4 8.7 Q8.15 8.45 7.55 7.4 7.15 6.7 6.95 5.4 L6.95 5.3 7.35 4.0 7.65 4.7 7.75 5.2 7.7 5.5 8.7 6.75 Q9.3 7.35 10.0 7.5 L10.35 7.5 Q11.2 7.5 11.7 6.85 12.3 6.15 12.3 5.45 L12.25 5.1 Q12.1 4.4 11.05 4.4 9.75 4.4 9.5 5.15 L9.5 5.25 9.95 5.8 10.1 5.8 10.2 5.2 Q10.4 4.65 11.25 4.65 L11.35 4.65 11.45 4.75 11.75 4.9 11.75 5.0 Q11.65 6.45 11.0 6.95 L10.25 7.2 Q9.45 7.2 8.8 6.45 8.2 5.7 8.2 5.0 8.2 4.55 8.45 4.3 L8.45 4.15 8.65 3.7 8.8 3.35 8.8 3.3 8.85 3.25 Q9.4 2.75 10.35 2.75 11.4 2.75 12.25 3.35" fill="#ffffff" fill-rule="evenodd" stroke="none"/>
    <path d="M12.55 5.35 Q12.65 6.35 11.8 7.15 10.95 7.9 9.95 7.7 8.95 7.5 8.1 6.4 L7.4 5.5 Q7.6 5.15 7.4 4.75 6.95 6.35 8.05 7.6 9.15 8.85 10.75 8.4 12.05 8.05 12.9 6.4 13.8 4.65 12.7 3.75 12.8 3.35 12.4 3.5 L11.45 3.3 Q10.7 2.95 10.45 2.95 9.4 2.95 8.8 3.85 8.35 4.65 8.5 5.4 8.75 6.25 9.55 6.75 10.45 7.3 11.05 6.55 L11.45 5.65 Q11.55 5.15 11.25 4.85 10.7 4.9 10.5 5.25 L10.35 6.05 9.75 5.9 9.25 5.4 Q9.0 4.8 10.1 4.35 L11.65 4.25 Q12.5 4.5 12.55 5.35 M13.4 2.95 L14.15 4.15 Q14.85 5.45 13.7 7.35 L12.55 8.6 Q11.6 9.4 11.2 9.05 L10.0 9.25 8.7 9.1 Q6.55 8.45 6.1 7.05 5.7 5.6 6.85 3.55 7.8 2.0 9.85 1.85 L12.2 2.15 13.4 2.95" fill="#4f336c" fill-rule="evenodd" stroke="none"/>
    <path d="M17.3 5.5 L17.25 6.3 Q16.95 6.9 17.65 7.95 L18.85 9.25 Q19.65 9.65 20.2 9.0 L21.05 7.8 Q20.9 10.95 17.4 10.2 15.65 9.85 15.55 8.1 15.5 6.3 17.3 5.5" fill="#e4f0f1" fill-rule="evenodd" stroke="none"/>
    <path d="M23.65 9.35 Q24.05 11.95 23.3 12.2 L22.0 11.35 Q21.2 10.85 21.95 10.45 L20.35 10.8 Q19.4 11.0 18.9 11.5 L20.0 9.8 Q20.7 8.85 20.65 7.85 20.6 6.25 18.75 5.35 L16.4 4.0 Q15.05 3.3 13.9 3.15 L13.0 2.6 12.25 1.95 14.15 1.6 16.05 1.65 Q18.55 2.5 19.65 3.7 L22.15 6.15 Q23.4 7.5 23.65 9.35" fill="#b7d9dd" fill-rule="evenodd" stroke="none"/>
    <path d="M23.0 15.6 Q23.5 17.1 20.85 18.8 18.65 20.2 17.05 20.35 L13.05 20.45 Q10.25 20.2 9.5 18.85 11.15 19.5 12.65 19.45 L15.95 18.85 Q17.1 18.5 18.4 17.6 20.0 16.4 19.8 15.4 L19.65 15.05 Q20.05 15.4 21.3 15.55 L23.0 15.6" fill="#b7d9dd" fill-rule="evenodd" stroke="none"/>
    <path d="M20.1 11.9 L20.25 11.7 21.2 11.4 22.15 11.35 24.0 12.9 Q25.25 13.95 23.95 14.8 22.65 15.7 21.95 14.95 22.95 14.15 22.0 12.7 21.05 11.3 20.1 11.9" fill="#e4738c" fill-rule="evenodd" stroke="none"/>
    <path d="M20.45 15.15 L21.25 15.55 22.1 15.8 23.45 15.45 Q23.2 15.95 22.2 16.25 L20.55 16.0 18.9 15.5 17.55 15.05 15.1 13.45 Q14.6 13.0 13.8 12.7 L13.4 12.55 12.95 12.55 12.25 12.4 12.25 12.25 12.6 12.35 13.95 12.1 14.75 12.15 15.55 12.05 Q16.5 11.75 16.95 12.75 17.2 13.5 17.9 13.85 L19.15 14.55 20.45 15.15" fill="#6199a6" fill-rule="evenodd" stroke="none"/>
    <path d="M21.9 5.25 Q23.25 6.6 23.85 8.3 L24.4 7.4 24.3 6.8 Q24.25 6.4 24.6 6.45 24.55 5.35 26.1 6.9 27.5 8.3 26.65 8.9 25.9 8.45 25.65 7.8 25.2 9.1 24.3 9.55 L24.35 10.9 24.35 12.15 Q24.25 12.65 24.6 13.15 L25.1 14.05 Q25.15 14.65 24.6 15.25 24.05 15.8 23.45 15.85 23.5 16.7 22.9 17.5 L21.7 18.85 Q21.5 19.1 19.9 20.15 L18.8 20.6 17.75 21.1 16.05 21.45 14.2 21.5 12.3 21.05 Q10.35 20.65 9.85 20.15 L8.25 19.7 5.9 18.3 Q4.1 16.7 3.4 13.75 2.95 12.8 2.85 12.15 2.75 11.0 3.3 9.1 3.4 8.7 3.05 8.25 L2.4 7.4 Q1.75 6.4 2.45 4.85 L1.7 5.25 1.05 5.2 Q1.7 4.25 3.35 3.95 L3.95 3.9 Q4.25 3.95 4.2 4.3 L3.6 4.8 Q3.1 6.4 3.8 7.75 L5.65 5.1 Q6.05 4.5 6.95 3.85 L8.45 2.8 Q9.45 2.15 11.1 1.7 L13.4 1.25 14.4 1.3 15.45 1.35 16.45 1.6 17.6 2.1 19.25 3.0 19.9 3.4 20.7 4.05 21.9 5.25 M23.15 8.5 Q22.4 6.5 21.55 5.7 L19.35 3.75 Q18.0 2.75 16.75 2.5 L10.75 2.7 Q7.8 3.75 6.45 5.45 L5.7 6.3 5.1 7.15 4.55 8.65 5.55 9.35 7.75 10.4 10.1 11.2 13.15 11.45 16.3 11.55 19.45 10.8 Q21.25 10.25 22.45 9.45 L23.0 9.05 Q23.25 8.85 23.15 8.5 M20.25 11.75 L19.4 12.0 Q20.3 13.1 21.8 13.25 L22.1 13.5 21.9 13.8 21.1 13.85 20.15 13.15 19.05 12.4 18.15 12.25 Q17.65 12.3 17.25 12.65 L17.9 13.15 18.4 13.75 Q20.15 14.65 21.8 14.95 24.3 15.4 24.1 13.55 L22.0 11.65 21.5 11.3 21.05 11.4 20.25 11.75 M23.55 10.1 L22.3 10.75 Q22.75 11.55 23.6 12.05 L23.6 11.1 23.55 10.1 M4.2 9.55 Q3.8 10.9 3.95 12.35 4.1 14.05 4.95 14.9 4.95 15.4 5.85 16.3 L7.2 17.5 Q8.9 18.8 9.1 18.55 L10.0 19.15 11.05 19.3 Q11.05 19.65 13.35 20.05 L14.75 20.35 16.3 20.15 17.5 19.85 18.6 19.65 Q21.95 18.05 22.65 15.95 21.55 15.95 20.2 15.35 L18.8 14.8 17.7 14.05 16.6 13.25 Q16.05 12.7 15.45 12.75 L14.65 12.65 13.8 12.5 Q11.45 12.8 7.8 11.4 L6.8 10.9 5.95 10.95 5.6 11.75 5.15 12.35 5.1 10.75 Q5.1 9.6 4.2 9.55" fill="#4f336c" fill-rule="evenodd" stroke="none"/>
    <path d="M21.0 6.7 Q21.4 7.8 20.65 8.65 20.0 9.4 18.8 9.5 17.9 9.5 17.2 8.9 16.45 8.3 16.35 7.4 16.2 6.35 17.1 5.6 17.9 4.95 19.0 4.9 20.3 4.9 21.0 6.7" fill="#4f336c" fill-rule="evenodd" stroke="none"/>
    <path d="M20.1 6.85 Q20.35 7.5 19.95 7.95 19.55 8.4 18.85 8.45 18.3 8.45 17.9 8.1 L17.4 7.2 Q17.35 6.65 17.85 6.2 18.35 5.8 18.95 5.8 19.8 5.8 20.1 6.85" fill="#ffffff" fill-rule="evenodd" stroke="none"/>
  </g>
</svg>
