<?xml version="1.0" encoding="UTF-8" standalone="no"?>
<svg xmlns:xlink="http://www.w3.org/1999/xlink" height="30.8px" width="31.05px" xmlns="http://www.w3.org/2000/svg">
  <g transform="matrix(1.0, 0.0, 0.0, 1.0, -1.5, -0.85)">
    <path d="M1.5 20.3 L1.75 20.5 2.05 20.65 Q3.4 25.1 5.35 26.95 L10.8 30.6 6.65 30.35 Q4.2 29.9 3.45 28.85 L2.5 24.8 Q1.55 21.25 1.5 20.3" fill="#d2ebff" fill-opacity="0.24705882" fill-rule="evenodd" stroke="none"/>
    <path d="M27.85 10.15 Q27.65 7.6 25.95 5.3 L23.45 2.2 Q28.3 1.5 29.75 0.85 29.3 5.55 29.45 11.15 29.7 22.4 32.55 27.15 26.55 29.8 17.4 30.85 L14.55 31.55 Q11.45 32.0 8.45 30.7 L12.0 31.0 15.75 29.95 Q22.1 28.5 25.35 22.75 28.45 17.35 27.85 10.15" fill="#2172a8" fill-opacity="0.47843137" fill-rule="evenodd" stroke="none"/>
  </g>
</svg>
