<?xml version="1.0" encoding="UTF-8" standalone="no"?>
<svg xmlns:xlink="http://www.w3.org/1999/xlink" height="40.35px" width="44.1px" xmlns="http://www.w3.org/2000/svg">
  <g transform="matrix(1.0, 0.0, 0.0, 1.0, 21.95, 13.05)">
    <path d="M16.1 19.9 L11.4 21.45 6.55 22.5 -0.35 23.45 Q-5.15 23.8 -9.35 23.25 -12.85 22.75 -13.4 22.2 -13.85 21.65 -14.75 15.65 L-15.65 7.7 -16.1 0.55 -16.65 -6.6 -16.7 -7.1 -16.45 -7.45 -13.75 -7.4 -11.05 -6.5 0.15 -5.65 Q5.1 -5.75 12.65 -7.05 13.6 -7.15 13.55 -6.55 13.4 -4.9 13.55 -1.25 L13.85 4.0 14.2 11.95 Q14.7 16.65 16.3 19.4 16.5 19.75 16.1 19.9 M12.4 -1.15 L12.35 -6.05 Q5.1 -4.7 -0.25 -4.5 -6.85 -4.25 -11.5 -5.7 L-11.55 -5.7 -11.6 -5.7 -13.65 -6.5 -15.55 -6.75 -15.15 0.3 Q-14.9 4.85 -13.9 12.2 -12.9 20.0 -12.25 20.95 -11.7 21.8 -7.7 22.15 -4.9 22.4 -0.5 22.25 6.35 22.05 13.0 20.1 L15.05 19.35 Q13.55 16.6 13.1 12.25 12.85 10.15 12.75 4.4 L12.4 -1.15" fill="url(#gradient0)" fill-rule="evenodd" stroke="none"/>
    <path d="M17.2 4.05 L17.65 4.3 Q18.25 4.65 18.25 5.0 L18.45 8.4 Q19.25 16.85 22.05 21.65 L22.1 21.95 21.4 22.55 Q17.4 24.35 9.5 26.45 L9.0 26.5 8.65 26.2 8.5 25.7 8.35 25.75 Q1.75 27.3 -3.45 27.3 L-10.0 27.0 -15.55 26.35 Q-17.6 26.0 -18.0 24.9 L-19.25 18.0 -20.45 9.35 -21.2 -0.65 Q-21.25 -1.1 -20.55 -1.4 L-19.5 -1.85 -21.2 -2.9 Q-21.5 -3.1 -21.5 -4.55 L-21.5 -4.8 -21.95 -11.6 Q-22.0 -12.0 -21.45 -12.25 -19.6 -13.3 -17.15 -12.95 -15.6 -12.7 -14.1 -11.95 L-14.05 -11.95 Q-10.05 -9.75 1.3 -10.05 10.55 -10.3 14.55 -11.35 L16.95 -11.55 Q18.65 -10.75 17.3 3.15 L17.2 4.0 17.2 4.05 M16.3 -4.4 Q16.35 -9.7 15.9 -9.75 L9.0 -9.3 0.05 -8.55 Q-9.75 -8.35 -15.45 -10.75 -18.55 -12.05 -20.1 -11.6 L-19.55 -3.95 -17.1 -2.4 -16.95 -2.15 Q-16.95 -1.7 -17.7 -1.35 L-19.35 -0.6 -18.7 7.55 -18.6 8.85 -17.45 17.7 Q-16.45 24.05 -16.1 24.5 -15.5 25.35 -8.1 25.55 L6.3 24.8 7.4 24.55 7.6 19.95 Q8.3 22.65 10.3 24.95 16.15 23.4 20.55 21.65 18.2 17.3 17.3 9.7 L16.85 8.1 Q16.5 7.2 16.45 6.7 L17.0 6.25 16.85 5.4 Q16.75 5.2 16.25 4.9 16.0 4.7 16.0 4.1 L16.0 3.45 16.3 -4.4" fill="url(#gradient1)" fill-rule="evenodd" stroke="none"/>
    <path d="M-3.65 5.3 L-3.9 5.1 -3.85 5.0 -3.65 5.3" fill="#d2ebff" fill-rule="evenodd" stroke="none"/>
    <path d="M-13.55 9.4 Q-13.05 10.5 -11.35 11.0 L-9.8 11.25 Q-10.2 14.05 -10.7 13.5 -10.9 13.3 -11.75 13.75 L-13.2 13.65 Q-13.8 13.05 -13.75 11.15 L-13.55 9.4" fill="#4487df" fill-rule="evenodd" stroke="none"/>
    <path d="M-12.4 9.35 Q-11.85 10.45 -10.2 10.9 L-8.6 11.15 Q-8.95 14.0 -9.5 13.4 -9.7 13.2 -10.55 13.65 L-12.0 13.55 Q-12.65 12.95 -12.6 11.1 L-12.4 9.35" fill="#f4d64d" fill-rule="evenodd" stroke="none"/>
    <path d="M-8.85 11.4 Q-11.2 11.25 -12.25 10.0 -12.6 12.65 -11.8 13.4 L-11.35 13.65 -10.5 13.35 -9.7 13.05 -9.35 13.2 Q-9.1 12.9 -8.85 11.4 M-9.4 13.75 L-9.75 13.55 -10.25 13.75 -11.4 14.1 Q-11.7 14.1 -12.15 13.75 -12.85 13.05 -12.8 11.15 -12.8 9.65 -12.6 9.3 L-12.45 8.55 -12.15 9.25 Q-11.7 10.25 -10.1 10.65 L-8.6 10.9 -8.4 10.9 -8.4 11.2 -8.6 12.45 Q-8.9 13.85 -9.4 13.75" fill="#d5b741" fill-rule="evenodd" stroke="none"/>
    <path d="M4.9 18.75 Q5.1 19.2 0.2 20.6 1.15 19.5 0.75 18.8 0.5 18.3 2.6 18.35 4.7 18.4 4.9 18.75" fill="#4487df" fill-rule="evenodd" stroke="none"/>
    <path d="M6.0 18.8 Q6.2 19.2 1.3 20.6 2.2 19.55 1.8 18.8 1.55 18.3 3.7 18.35 5.8 18.45 6.0 18.8" fill="#f4d64d" fill-rule="evenodd" stroke="none"/>
    <path d="M5.75 18.7 Q5.7 19.0 4.1 19.65 L1.5 20.4 1.95 19.65 1.9 18.6 5.75 18.7" fill="#fefed6" fill-rule="evenodd" stroke="none"/>
    <path d="M5.5 18.8 L3.6 18.6 2.05 18.75 Q2.3 19.4 1.8 20.2 L5.65 18.85 5.5 18.8 M6.2 18.95 Q5.95 19.6 1.3 20.85 L0.7 21.05 1.15 20.45 1.55 19.8 Q1.8 19.25 1.65 18.95 1.5 18.75 1.65 18.5 1.9 18.1 3.5 18.15 L5.65 18.35 6.2 18.65 6.2 18.95" fill="#d5b741" fill-rule="evenodd" stroke="none"/>
    <path d="M-1.7 8.45 L-2.0 8.2 -1.9 8.1 Q-0.4 8.35 0.1 7.15 L0.4 7.1 0.65 7.35 0.95 7.95 Q1.25 8.25 1.55 8.2 2.2 8.55 1.85 8.6 1.3 8.7 0.7 8.25 L0.35 7.85 Q-0.4 8.75 -1.7 8.45" fill="#d2ebff" fill-rule="evenodd" stroke="none"/>
    <path d="M-7.15 19.6 L-7.3 19.25 Q-7.2 19.1 -6.9 19.25 -6.35 19.6 -5.75 18.7 L-5.35 18.75 -5.15 19.05 -5.15 19.1 Q-5.15 19.8 -4.9 19.8 L-4.5 20.05 Q-4.35 20.3 -4.65 20.3 L-5.55 19.8 -5.65 19.6 Q-6.3 20.0 -7.15 19.6" fill="#d2ebff" fill-rule="evenodd" stroke="none"/>
    <path d="M2.8 14.3 Q2.9 14.15 3.15 14.3 L3.4 14.6 3.75 15.05 4.05 15.35 3.85 15.5 3.1 15.0 2.4 15.35 Q1.8 15.5 1.4 14.9 1.25 14.7 1.45 14.7 L1.85 14.85 2.35 14.75 2.8 14.3" fill="#d2ebff" fill-rule="evenodd" stroke="none"/>
    <path d="M-6.8 17.25 Q-6.7 17.4 -7.0 17.35 -7.5 17.3 -7.8 16.9 L-8.5 17.25 Q-9.05 17.35 -9.45 16.8 -9.65 16.55 -9.4 16.55 L-9.0 16.7 -8.5 16.6 -8.1 16.15 Q-8.0 16.0 -7.75 16.15 L-7.5 16.45 Q-7.4 16.9 -7.1 16.95 L-6.8 17.25" fill="#d2ebff" fill-rule="evenodd" stroke="none"/>
    <path d="M1.7 10.9 Q1.8 10.75 2.05 10.9 L2.3 11.2 Q2.4 11.65 2.65 11.7 L3.0 12.0 2.75 12.2 1.95 11.7 1.3 12.0 Q0.7 12.15 0.3 11.55 0.1 11.3 0.4 11.3 L0.8 11.5 Q1.05 11.85 1.7 10.9" fill="#d2ebff" fill-rule="evenodd" stroke="none"/>
    <path d="M10.15 17.55 Q9.9 17.35 10.15 17.3 L10.6 17.35 Q10.85 17.6 11.35 16.6 L11.7 16.55 12.0 16.75 12.45 17.15 12.85 17.35 12.65 17.55 11.75 17.3 11.2 17.7 Q10.7 18.0 10.15 17.55" fill="#d2ebff" fill-rule="evenodd" stroke="none"/>
    <path d="M-1.85 -1.6 L-1.55 -1.35 -1.25 -1.45 -0.85 -1.75 -0.55 -1.8 -0.3 -1.55 0.0 -1.35 0.45 -1.15 Q0.6 -0.85 0.4 -0.85 -0.15 -0.8 -0.5 -1.1 -0.95 -0.7 -1.4 -0.8 -2.2 -0.9 -2.15 -1.5 L-1.85 -1.6" fill="#d2ebff" fill-rule="evenodd" stroke="none"/>
    <path d="M10.5 -2.35 Q10.65 -2.15 10.45 -2.1 9.85 -2.05 9.5 -2.3 9.1 -2.0 8.6 -2.1 7.85 -2.1 7.85 -2.75 L8.2 -2.8 8.5 -2.55 8.75 -2.65 9.15 -3.0 9.5 -3.0 9.75 -2.75 10.05 -2.55 Q10.3 -2.65 10.5 -2.35" fill="#d2ebff" fill-rule="evenodd" stroke="none"/>
    <path d="M-10.75 19.0 L-10.3 18.55 -9.9 18.6 -9.65 18.9 -9.5 19.4 -9.0 19.55 Q-8.85 19.45 -8.6 19.75 -8.4 19.95 -8.6 20.0 -9.3 20.15 -9.8 19.75 L-10.1 19.4 -10.95 19.8 Q-11.65 19.9 -11.75 19.05 -11.75 18.85 -11.45 18.95 L-11.1 19.25 -10.95 19.15 -10.75 19.0" fill="#d2ebff" fill-rule="evenodd" stroke="none"/>
    <path d="M-10.75 6.75 L-10.5 7.05 -10.5 7.1 Q-10.5 8.0 -9.9 7.8 -9.7 7.75 -9.45 7.95 -9.2 8.2 -9.4 8.25 -10.05 8.5 -10.65 7.95 L-10.85 7.75 Q-11.3 8.5 -11.85 8.15 L-12.0 7.8 -11.7 7.75 -11.55 7.6 -11.1 6.85 -11.1 6.8 -11.05 6.8 -11.05 6.75 Q-11.0 6.6 -10.75 6.75" fill="#d2ebff" fill-rule="evenodd" stroke="none"/>
    <path d="M-11.75 -3.15 L-11.5 -2.8 -11.5 -2.75 Q-11.5 -1.9 -10.95 -2.1 L-10.5 -1.95 Q-10.25 -1.75 -10.4 -1.65 -11.05 -1.4 -11.6 -1.9 L-11.8 -2.1 Q-12.3 -1.4 -12.9 -1.75 L-13.05 -2.1 -12.75 -2.15 -12.6 -2.25 -12.4 -2.5 -12.1 -3.15 Q-12.0 -3.35 -11.75 -3.15" fill="#d2ebff" fill-rule="evenodd" stroke="none"/>
    <path d="M-10.4 6.15 Q-10.5 7.65 -12.35 5.1 -14.15 2.55 -13.75 1.05 L-12.25 -0.85 Q-10.65 -2.75 -9.9 -2.7 -8.7 -2.65 -5.45 -0.6 L-3.6 0.05 -6.15 2.65 -3.6 4.15 -4.85 6.2 -7.8 5.9 -9.0 5.3 Q-10.3 5.0 -10.4 6.15" fill="#4487df" fill-rule="evenodd" stroke="none"/>
    <path d="M-2.45 4.1 L-3.65 6.15 -6.6 5.8 -7.85 5.2 Q-9.1 4.95 -9.2 6.1 -9.3 7.55 -11.15 5.05 -13.0 2.45 -12.6 1.0 L-11.05 -0.9 Q-9.45 -2.85 -8.7 -2.8 -7.55 -2.75 -4.25 -0.7 L-2.4 0.0 -5.0 2.55 -2.45 4.1" fill="#f4d64d" fill-rule="evenodd" stroke="none"/>
    <path d="M-2.45 4.1 L-3.65 6.15 -6.6 5.8 Q-7.15 5.45 -7.75 5.25 -8.95 4.9 -9.15 5.8 L-10.9 2.2 Q-11.35 0.8 -10.55 -0.45 L-8.7 -2.55 -8.7 -2.8 Q-7.5 -2.7 -4.25 -0.7 L-2.4 0.0 -5.0 2.55 -2.45 4.1" fill="#fefed6" fill-rule="evenodd" stroke="none"/>
    <path d="M-4.4 -0.5 Q-7.65 -2.5 -8.7 -2.55 -9.25 -2.6 -10.45 -1.3 L-12.35 1.1 Q-12.7 2.25 -11.2 4.5 -10.15 6.15 -9.5 6.25 L-9.45 6.05 -9.0 5.15 Q-8.65 4.85 -8.15 4.95 -7.25 5.1 -6.5 5.6 L-3.8 5.85 -2.75 4.15 -5.4 2.6 -2.85 0.1 -4.4 -0.5 M-3.6 6.4 L-6.65 6.05 -6.7 6.05 Q-7.5 5.5 -8.2 5.4 L-8.7 5.5 -8.95 6.1 Q-8.95 6.5 -9.2 6.65 L-9.6 6.75 Q-10.45 6.6 -11.6 4.75 -13.2 2.4 -12.8 0.9 L-12.8 0.85 Q-9.95 -3.1 -8.7 -3.05 -7.55 -3.0 -4.15 -0.9 L-1.95 -0.1 -4.6 2.5 -2.1 4.0 -3.6 6.4" fill="#d5b741" fill-rule="evenodd" stroke="none"/>
    <path d="M-8.85 0.5 Q-8.55 0.6 -8.5 0.85 L-8.5 1.0 -8.7 1.0 Q-9.75 0.7 -9.75 -0.05 -9.65 -0.8 -9.05 -1.25 L-8.6 -1.15 -8.5 -0.8 -9.05 -0.1 Q-9.3 0.4 -8.85 0.5" fill="#f4d64d" fill-rule="evenodd" stroke="none"/>
    <path d="M-9.75 1.55 Q-9.45 1.7 -9.55 1.9 L-9.75 2.55 -9.75 2.7 -9.7 2.65 Q-9.5 2.65 -9.3 2.95 -9.1 3.2 -9.4 3.2 -10.25 3.2 -10.4 2.55 L-10.15 1.5 -9.75 1.55" fill="#f4d64d" fill-rule="evenodd" stroke="none"/>
    <path d="M-7.85 2.65 Q-7.55 2.85 -7.75 3.0 L-8.0 3.5 -8.05 3.55 -7.8 3.55 Q-7.5 3.55 -7.4 3.85 -7.2 4.05 -7.55 4.05 -8.4 4.05 -8.55 3.4 -8.75 2.9 -8.25 2.6 L-7.85 2.65" fill="#f4d64d" fill-rule="evenodd" stroke="none"/>
    <path d="M-9.65 14.95 Q-10.0 15.5 -9.2 12.3 -8.5 9.1 -7.95 8.3 L-4.25 8.2 Q-0.8 8.85 -1.9 8.95 -2.5 9.05 -1.95 12.75 L-1.25 16.45 Q-5.25 22.85 -3.75 19.35 -2.85 17.15 -5.05 15.95 L-7.45 15.2 -8.1 14.3 Q-8.85 13.6 -9.65 14.95" fill="#4487df" fill-rule="evenodd" stroke="none"/>
    <path d="M-8.5 14.75 L-8.05 12.05 Q-7.25 8.85 -6.7 8.1 L-3.05 7.95 Q0.45 8.65 -0.75 8.75 -1.3 8.8 -0.8 12.5 L-0.1 16.25 Q-4.0 22.6 -2.6 19.15 -1.65 16.95 -3.85 15.75 L-6.25 14.95 -6.9 14.05 Q-7.7 13.4 -8.5 14.75" fill="#f4d64d" fill-rule="evenodd" stroke="none"/>
    <path d="M-5.65 12.35 L-5.85 11.25 Q-6.5 9.95 -6.05 7.75 L-2.45 8.1 Q0.05 8.65 -0.75 8.75 -1.3 8.8 -0.8 12.5 L-0.1 16.25 -0.6 16.75 -1.65 18.1 Q-1.2 15.95 -2.45 14.8 -3.5 13.9 -5.75 13.5 L-5.65 12.35" fill="#fefed6" fill-rule="evenodd" stroke="none"/>
    <path d="M-6.5 8.25 Q-7.3 9.25 -8.2 13.95 -7.8 13.55 -7.35 13.6 -6.55 13.6 -6.05 14.8 L-4.3 15.25 Q-2.9 15.85 -2.35 16.8 -1.75 17.8 -2.3 19.2 L-0.35 16.2 Q-1.75 9.85 -1.1 8.75 -2.85 8.05 -5.15 7.95 -6.35 7.95 -6.5 8.25 M-5.15 7.5 L-2.15 7.9 Q-0.4 8.3 -0.4 8.7 -0.4 8.95 -0.7 9.0 -0.95 9.3 -0.65 11.55 L0.15 16.15 0.15 16.25 0.1 16.35 Q-2.4 20.4 -2.85 20.4 L-2.9 20.4 -3.1 20.3 Q-3.25 20.1 -2.8 19.05 -2.35 17.85 -2.8 17.05 -3.35 16.1 -4.85 15.55 L-6.25 15.2 -6.4 15.2 -6.45 15.05 Q-6.85 14.1 -7.4 14.1 -7.75 14.05 -8.25 14.9 L-8.5 15.0 -8.6 15.0 -8.7 14.9 Q-8.85 14.5 -8.2 11.65 -7.45 8.7 -6.9 7.95 -6.55 7.5 -5.15 7.5" fill="#d5b741" fill-rule="evenodd" stroke="none"/>
    <path d="M-4.2 10.55 L-4.15 10.7 -3.75 11.0 Q-3.65 11.25 -4.0 11.15 -4.9 10.95 -4.9 10.1 -4.9 9.25 -4.25 9.1 -4.05 9.05 -3.75 9.25 -3.6 9.55 -3.8 9.6 L-4.2 10.1 -4.2 10.55" fill="#f4d64d" fill-rule="evenodd" stroke="none"/>
    <path d="M-2.5 11.6 Q-2.2 11.8 -2.4 11.9 L-2.7 12.5 -2.45 12.95 Q-2.1 13.05 -2.05 13.25 L-2.05 13.4 -2.25 13.4 Q-3.15 13.2 -3.35 12.6 -3.5 11.95 -2.95 11.5 L-2.5 11.6" fill="#f4d64d" fill-rule="evenodd" stroke="none"/>
    <path d="M-5.05 12.35 L-4.6 12.4 Q-4.3 12.55 -4.45 12.7 L-4.6 13.15 -4.35 13.4 Q-4.0 13.4 -3.85 13.65 -3.7 13.9 -4.0 13.9 -4.85 13.8 -5.15 13.3 -5.45 12.8 -5.05 12.35" fill="#f4d64d" fill-rule="evenodd" stroke="none"/>
    <path d="M0.45 -0.6 L3.4 -0.8 6.05 -0.4 6.75 -1.35 11.2 6.25 8.55 6.65 Q11.1 10.0 10.05 10.05 9.25 10.15 8.75 11.1 8.35 11.95 7.7 14.4 7.15 16.3 5.35 17.05 L3.6 17.35 4.65 14.3 Q2.0 10.55 2.7 9.4 3.15 8.6 4.55 8.5 L5.9 8.5 5.4 5.9 2.75 6.6 0.6 5.9 Q-1.4 5.1 -0.65 4.45 1.15 0.8 0.45 -0.6" fill="#4487df" fill-rule="evenodd" stroke="none"/>
    <path d="M1.6 -0.8 L4.5 -1.05 7.2 -0.6 7.9 -1.6 12.4 6.0 9.7 6.45 Q12.25 9.8 11.2 9.9 10.45 9.95 9.95 10.9 9.5 11.7 8.8 14.15 8.3 16.1 6.45 16.85 L4.75 17.2 5.85 14.05 Q3.2 10.3 3.85 9.15 4.3 8.4 5.75 8.25 L7.0 8.25 6.55 5.7 3.85 6.35 1.7 5.65 Q-0.25 4.9 0.55 4.25 2.3 0.55 1.6 -0.8" fill="#f4d64d" fill-rule="evenodd" stroke="none"/>
    <path d="M2.05 -0.5 Q2.4 1.1 0.9 4.35 L0.85 4.45 0.75 4.5 0.65 4.6 1.75 5.3 3.9 6.0 6.85 5.3 7.45 8.65 6.25 8.55 Q4.6 8.55 4.15 9.3 3.85 9.8 4.6 11.3 5.2 12.65 6.15 13.9 L6.2 14.0 5.25 16.85 Q7.9 16.4 8.55 14.1 9.15 11.65 9.6 10.75 10.2 9.7 11.1 9.55 11.1 8.8 9.4 6.65 L9.1 6.2 11.85 5.75 7.9 -0.95 7.35 -0.25 4.5 -0.7 2.05 -0.5 M1.1 -1.1 L4.55 -1.35 7.05 -0.95 7.95 -2.2 12.95 6.25 10.3 6.7 Q12.15 9.05 11.75 9.9 L11.2 10.15 Q10.65 10.25 10.2 11.1 9.8 11.95 9.15 14.25 8.65 16.2 6.8 17.05 L4.8 17.45 4.25 17.45 5.45 14.1 Q2.8 10.3 3.6 9.0 4.2 7.9 6.3 7.9 L6.6 7.9 6.25 6.1 3.85 6.7 3.8 6.7 Q0.2 5.65 0.0 4.75 -0.15 4.35 0.25 4.05 1.9 0.5 1.3 -0.65 L1.1 -1.1" fill="#d5b741" fill-rule="evenodd" stroke="none"/>
    <path d="M4.2 4.3 Q3.5 4.1 3.35 3.75 L3.35 2.65 Q3.5 0.95 3.1 -0.9 L4.5 -1.05 7.2 -0.6 7.9 -1.6 12.4 6.0 9.7 6.45 Q12.25 9.8 11.2 9.9 10.45 9.95 9.95 10.9 9.5 11.7 8.8 14.15 8.35 16.05 6.5 16.85 7.15 15.25 7.1 14.25 L6.6 12.3 5.85 10.3 Q5.75 9.9 6.05 9.65 6.25 9.4 6.75 9.45 L7.4 9.5 Q8.05 9.45 8.3 8.75 8.95 6.95 7.5 4.3 L7.2 4.2 4.2 4.3" fill="#fefed6" fill-rule="evenodd" stroke="none"/>
    <path d="M1.9 -0.6 Q2.35 0.95 0.75 4.35 L0.7 4.4 0.55 4.65 Q0.7 5.35 3.9 6.15 L6.75 5.4 7.3 8.5 6.25 8.45 Q4.55 8.45 4.05 9.25 3.75 9.8 4.5 11.35 5.1 12.65 6.05 13.95 L6.1 14.05 5.1 16.95 Q6.1 16.9 6.9 16.4 8.25 15.6 8.65 14.1 9.3 11.6 9.8 10.7 10.35 9.75 11.15 9.65 L11.2 9.65 10.85 8.55 9.5 6.6 9.3 6.3 12.0 5.85 7.9 -1.15 7.3 -0.35 4.5 -0.8 1.9 -0.6 M1.3 -1.0 L4.55 -1.25 7.1 -0.85 7.95 -2.0 12.75 6.15 10.1 6.6 Q12.0 9.1 11.6 9.85 11.5 10.05 11.2 10.05 10.6 10.15 10.15 10.95 9.75 11.8 9.05 14.2 8.55 16.15 6.75 16.95 L4.8 17.35 4.45 17.35 5.6 14.1 4.15 11.8 Q3.2 9.8 3.7 9.05 4.25 8.0 6.25 8.0 L6.75 8.0 6.35 5.95 3.85 6.6 3.8 6.55 Q0.3 5.65 0.1 4.75 0.0 4.45 0.35 4.1 L1.3 1.7 Q1.75 0.0 1.4 -0.7 L1.3 -1.0" fill="#d5b741" fill-rule="evenodd" stroke="none"/>
    <path d="M4.75 2.0 Q4.2 1.7 4.15 1.1 4.15 0.5 4.6 0.15 5.0 -0.25 5.65 -0.25 6.35 0.15 6.0 0.15 5.0 0.2 4.85 1.05 4.75 1.85 5.45 1.8 L5.9 1.9 6.0 2.05 5.9 2.15 4.75 2.0" fill="#f4d64d" fill-rule="evenodd" stroke="none"/>
    <path d="M7.4 2.0 L7.9 2.1 7.9 2.4 Q7.5 2.5 7.5 2.8 L7.55 3.05 7.6 3.15 8.05 3.3 8.1 3.45 7.95 3.55 Q7.0 3.55 6.85 2.8 6.75 2.1 7.4 2.0" fill="#f4d64d" fill-rule="evenodd" stroke="none"/>
    <path d="M8.15 10.0 Q8.85 10.35 8.5 10.4 8.05 10.5 7.85 10.9 7.7 11.35 8.15 11.55 L8.4 11.85 8.0 11.85 Q7.05 11.55 7.2 10.8 7.25 10.15 8.15 10.0" fill="#f4d64d" fill-rule="evenodd" stroke="none"/>
  </g>
  <defs>
    <linearGradient gradientTransform="matrix(0.0041, -0.0148, 0.0148, 0.0041, 0.1, 8.8)" gradientUnits="userSpaceOnUse" id="gradient0" spreadMethod="pad" x1="-819.2" x2="819.2">
      <stop offset="0.03137254901960784" stop-color="#d2ebff"/>
      <stop offset="0.5294117647058824" stop-color="#69b3fe"/>
      <stop offset="1.0" stop-color="#4487df"/>
    </linearGradient>
    <linearGradient gradientTransform="matrix(0.0162, 0.0201, 0.0201, -0.0162, -1.65, 5.25)" gradientUnits="userSpaceOnUse" id="gradient1" spreadMethod="pad" x1="-819.2" x2="819.2">
      <stop offset="0.0" stop-color="#b1784a"/>
      <stop offset="1.0" stop-color="#813203"/>
    </linearGradient>
  </defs>
</svg>
