<?xml version="1.0" encoding="UTF-8" standalone="no"?>
<svg xmlns:xlink="http://www.w3.org/1999/xlink" height="43.55px" width="50.0px" xmlns="http://www.w3.org/2000/svg">
  <g transform="matrix(1.0, 0.0, 0.0, 1.0, 24.05, 16.55)">
    <path d="M21.4 -15.3 Q23.4 -14.0 24.6 -12.1 26.1 -9.7 25.95 -7.0 25.7 -3.55 22.8 -1.4 L21.4 -0.7 18.2 0.2 13.7 12.7 Q15.35 15.3 15.2 18.35 15.0 21.85 12.2 24.4 9.4 27.0 5.75 27.0 L4.5 26.9 Q0.25 26.3 -2.05 23.2 -3.3 24.95 -5.2 25.9 -7.1 26.9 -9.35 26.9 -13.05 26.9 -15.65 24.25 -18.3 21.7 -18.3 18.0 -18.3 16.45 -17.65 14.7 L-23.6 -4.9 Q-24.35 -7.9 -23.9 -8.85 -23.35 -10.05 -21.7 -10.4 L-16.1 -10.7 -9.7 -10.4 Q-8.5 -10.15 -7.85 -9.5 -7.0 -8.7 -6.65 -6.15 L2.75 -6.0 Q6.25 -14.65 7.1 -15.55 7.8 -16.15 8.9 -16.3 L14.9 -16.55 20.15 -15.9 Q21.1 -15.6 21.4 -15.3" fill="#ffffff" fill-rule="evenodd" stroke="none"/>
    <path d="M20.25 -12.7 Q23.2 -9.75 23.0 -6.75 22.75 -4.25 20.85 -2.9 20.4 -2.55 19.75 -2.4 18.8 -2.05 16.05 -1.45 L10.95 12.8 Q12.75 14.9 12.6 17.75 12.45 20.35 10.35 22.2 8.3 24.1 5.6 24.1 L4.65 24.05 Q2.5 23.75 0.95 22.5 -0.65 21.25 -1.25 19.35 L-2.75 19.4 Q-3.35 21.5 -5.1 22.75 -6.8 24.05 -9.0 24.05 -11.7 24.05 -13.6 22.15 -15.5 20.3 -15.5 17.55 -15.5 15.95 -14.8 14.5 -21.55 -6.75 -21.2 -7.45 -20.8 -8.05 -15.55 -8.05 L-9.05 -7.5 Q-8.55 -7.0 -8.3 -3.7 L4.1 -3.55 Q7.85 -12.8 8.35 -13.3 L14.45 -13.7 19.3 -13.65 20.25 -12.7" fill="#7f501d" fill-rule="evenodd" stroke="none"/>
    <path d="M7.45 17.85 Q7.45 17.2 6.95 16.75 6.5 16.25 5.85 16.25 5.15 16.25 4.65 16.75 4.25 17.15 4.25 17.85 4.25 18.55 4.65 19.0 5.15 19.45 5.85 19.45 6.5 19.45 6.95 19.0 7.45 18.55 7.45 17.85 M-9.55 8.2 L-8.85 11.55 3.25 11.75 4.15 8.6 -9.55 8.2 M-9.45 16.25 Q-10.2 16.25 -10.75 16.8 -11.3 17.3 -11.3 18.1 -11.3 18.85 -10.75 19.35 -10.2 19.9 -9.45 19.9 -8.7 19.9 -8.2 19.35 -7.65 18.85 -7.65 18.1 -7.65 17.3 -8.2 16.8 -8.7 16.25 -9.45 16.25 M4.95 5.95 L5.95 2.5 -10.75 2.1 -10.35 5.2 4.95 5.95 M18.55 -10.95 L19.95 -9.1 Q21.05 -7.0 19.5 -5.9 L14.2 -4.65 7.05 14.2 Q8.25 14.55 8.95 15.5 9.7 16.6 9.6 18.0 9.55 19.45 8.2 20.5 6.85 21.6 5.25 21.4 3.75 21.15 2.8 20.25 1.7 19.25 1.7 17.85 1.7 17.15 2.0 16.45 L-6.25 16.6 Q-5.95 17.25 -5.95 18.0 -5.95 19.4 -6.9 20.4 -7.95 21.35 -9.35 21.35 -10.7 21.35 -11.75 20.4 -12.7 19.4 -12.7 18.0 -12.7 16.5 -11.6 15.5 L-17.6 -4.75 -11.9 -3.9 -11.2 -0.7 6.3 -0.45 10.8 -10.8 18.55 -10.95" fill="url(#gradient0)" fill-rule="evenodd" stroke="none"/>
    <path d="M18.8 -10.9 Q20.3 -9.8 20.75 -7.3 L20.15 -6.45 19.4 -5.95 Q19.25 -7.5 18.05 -8.4 16.95 -9.2 15.75 -9.0 14.3 -8.6 11.15 -3.15 L8.2 2.25 -12.9 1.45 -10.2 13.65 -11.85 14.6 -17.5 -4.65 -11.85 -4.85 -11.2 -0.7 6.0 -1.05 6.15 -1.1 8.7 -6.55 10.95 -10.8 14.5 -11.25 18.8 -10.9" fill="#f8f0a5" fill-rule="evenodd" stroke="none"/>
  </g>
  <defs>
    <linearGradient gradientTransform="matrix(0.0139, 0.0214, 0.0214, -0.0139, 2.6, 3.3)" gradientUnits="userSpaceOnUse" id="gradient0" spreadMethod="pad" x1="-819.2" x2="819.2">
      <stop offset="0.0" stop-color="#ffdf3b"/>
      <stop offset="0.49019607843137253" stop-color="#ffcc14"/>
      <stop offset="0.5843137254901961" stop-color="#f5c114"/>
      <stop offset="0.7411764705882353" stop-color="#dda515"/>
      <stop offset="0.9450980392156862" stop-color="#b5781b"/>
      <stop offset="1.0" stop-color="#a96b1d"/>
    </linearGradient>
  </defs>
</svg>
