<?xml version="1.0" encoding="UTF-8" standalone="no"?>
<svg xmlns:xlink="http://www.w3.org/1999/xlink" height="50.75px" width="44.85px" xmlns="http://www.w3.org/2000/svg">
  <g transform="matrix(1.0, 0.0, 0.0, 1.0, 28.3, 20.55)">
    <path d="M12.35 -2.0 Q14.2 -1.05 14.75 0.75 15.3 2.35 14.85 4.35 14.35 6.3 13.05 8.1 L13.3 11.55 Q15.4 12.9 15.8 15.45 L16.05 16.8 16.1 16.95 16.55 21.95 Q15.5 24.2 13.5 24.2 L13.25 24.2 12.4 24.15 10.45 23.15 9.65 22.1 8.9 22.15 Q7.0 22.15 5.55 20.8 2.45 25.45 -1.6 27.55 -5.5 29.45 -8.95 28.2 -10.2 27.75 -11.45 27.05 -12.15 28.1 -13.6 29.3 L-13.9 29.65 Q-15.65 30.45 -19.05 30.1 L-22.8 29.65 Q-24.0 29.35 -25.1 28.6 L-25.25 28.7 -25.2 28.55 -27.05 26.65 Q-28.25 24.9 -28.3 22.9 -28.35 20.9 -27.2 19.25 -25.45 16.9 -22.75 16.75 L-22.85 16.45 Q-25.1 15.2 -25.8 12.9 L-27.25 10.8 -27.3 9.9 Q-27.6 6.35 -27.45 2.5 -27.25 -4.65 -25.6 -8.05 -24.0 -12.35 -20.65 -15.35 -17.3 -18.35 -12.7 -19.7 -9.75 -20.55 -5.7 -20.55 L-2.25 -20.4 Q0.0 -20.3 2.05 -19.65 4.65 -18.8 7.75 -15.05 9.8 -12.5 11.5 -9.35 L11.9 -8.7 12.35 -2.0" fill="#ffffff" fill-rule="evenodd" stroke="none"/>
    <path d="M-19.8 18.9 Q-20.65 16.0 -20.6 14.6 L-20.7 14.25 -19.9 15.55 -18.4 17.5 -15.95 20.2 Q-14.1 22.1 -13.75 22.7 -12.9 24.5 -13.95 26.15 L-16.05 28.2 Q-15.75 25.85 -17.55 23.55 -17.9 24.8 -18.85 25.95 -19.95 27.3 -21.0 27.6 -23.45 28.2 -25.15 25.8 -26.95 23.4 -25.45 21.35 -23.5 18.6 -21.15 20.7 -20.25 21.5 -20.35 22.5 -20.45 23.6 -21.85 24.25 -21.5 22.75 -22.65 22.2 -23.7 21.65 -24.0 23.35 -24.35 25.95 -21.95 25.75 -19.45 25.55 -19.2 23.05 -19.0 21.65 -19.8 18.9" fill="#4a2277" fill-rule="evenodd" stroke="none"/>
    <path d="M-19.8 18.9 Q-20.65 16.0 -20.6 14.6 L-20.7 14.25 -19.9 15.55 -18.4 17.5 -15.95 20.2 Q-14.1 22.1 -13.75 22.7 -12.9 24.5 -13.95 26.15 L-16.05 28.2 Q-15.75 25.85 -17.55 23.55 -17.9 24.8 -18.85 25.95 -19.95 27.3 -21.0 27.6 -23.45 28.2 -25.15 25.8 -26.95 23.4 -25.45 21.35 -23.5 18.6 -21.15 20.7 -20.25 21.5 -20.35 22.5 -20.45 23.6 -21.85 24.25 -21.5 22.75 -22.65 22.2 -23.7 21.65 -24.0 23.35 -24.35 25.95 -21.95 25.75 -19.45 25.55 -19.2 23.05 -19.0 21.65 -19.8 18.9" fill="#4a2277" fill-rule="evenodd" stroke="none"/>
    <path d="M-20.6 13.35 Q-20.4 14.45 -19.0 16.15 L-18.1 17.3 -15.85 19.8 Q-13.8 21.9 -13.5 22.6 -12.55 24.35 -13.45 25.95 -13.9 26.8 -15.4 28.1 L-16.55 29.1 -16.45 28.15 Q-16.1 26.3 -17.45 24.25 -17.95 25.5 -18.85 26.5 -19.9 27.65 -20.9 27.9 -22.25 28.3 -23.6 27.6 -24.8 27.0 -25.6 25.85 -26.4 24.7 -26.45 23.4 -26.5 22.15 -25.8 21.2 -24.3 19.15 -22.25 19.75 -21.35 19.95 -20.75 20.65 -20.1 21.35 -20.05 22.15 -19.9 23.7 -21.65 24.6 L-22.3 24.85 -22.2 24.15 Q-22.0 23.1 -22.65 22.65 -22.9 22.35 -23.15 22.5 -23.55 22.6 -23.65 23.4 -23.85 24.6 -23.15 25.1 L-21.2 25.25 Q-19.75 24.6 -19.5 23.0 -19.35 21.65 -20.15 18.8 -21.0 16.1 -20.95 14.6 L-20.9 14.6 -21.3 13.5 -20.6 13.35 M-19.5 18.6 Q-18.65 21.6 -18.8 23.1 -19.1 25.15 -20.9 25.85 -22.4 26.5 -23.6 25.65 -24.55 24.85 -24.35 23.35 -24.15 22.05 -23.4 21.85 -22.85 21.6 -22.2 22.05 -21.5 22.65 -21.45 23.6 -20.65 23.05 -20.75 22.2 -20.8 21.65 -21.25 21.1 -21.7 20.6 -22.4 20.4 -24.05 20.0 -25.15 21.55 -25.8 22.45 -25.7 23.6 -25.6 24.6 -25.0 25.5 -24.35 26.45 -23.35 26.95 -22.25 27.55 -21.1 27.25 -20.1 26.95 -19.1 25.7 -18.2 24.55 -17.9 23.45 L-17.7 22.8 -17.25 23.35 Q-15.75 25.2 -15.7 27.4 -14.4 26.35 -14.05 25.55 -13.4 24.3 -14.1 22.85 -14.4 22.3 -16.35 20.3 L-18.65 17.7 -20.2 15.75 -19.5 18.6" fill="#000000" fill-rule="evenodd" stroke="none"/>
    <path d="M-19.7 15.35 L-19.45 12.9 Q-19.65 15.5 -16.95 19.15 -14.4 22.65 -14.9 25.4 -15.3 23.1 -17.35 21.75 -17.25 23.4 -17.9 24.75 -18.65 26.25 -20.1 26.6 -17.9 25.0 -18.45 21.25 L-19.7 15.35" fill="#6d3aa7" fill-rule="evenodd" stroke="none"/>
    <path d="M-20.65 13.6 L-20.55 -1.9 Q-16.6 -7.6 -10.0 -8.2 -3.3 -8.85 1.8 -3.95 8.7 2.7 5.05 15.2 3.95 19.1 0.1 22.7 -4.25 26.9 -7.9 25.6 -11.45 24.3 -15.3 20.65 -19.15 17.0 -20.65 13.6" fill="#d5a165" fill-rule="evenodd" stroke="none"/>
    <path d="M2.45 -4.6 Q6.55 -0.65 7.15 5.4 7.6 10.0 6.0 15.5 5.2 18.25 2.75 21.25 0.15 24.5 -2.65 25.9 -4.35 26.85 -6.2 26.85 L-8.2 26.5 Q-11.9 25.2 -15.9 21.4 -19.9 17.65 -21.5 14.0 L-19.75 13.2 Q-18.3 16.5 -14.6 20.0 -10.9 23.5 -7.55 24.7 -5.7 25.35 -3.5 24.2 -1.05 22.95 1.25 20.05 3.45 17.3 4.15 14.9 7.65 3.0 1.15 -3.25 -3.65 -7.85 -9.95 -7.3 -16.1 -6.6 -19.75 -1.35 L-21.35 -2.45 Q-19.35 -5.3 -16.4 -7.1 -13.5 -8.8 -10.1 -9.2 -6.6 -9.5 -3.4 -8.35 -0.15 -7.2 2.45 -4.6" fill="#000000" fill-rule="evenodd" stroke="none"/>
    <path d="M-20.25 -2.0 Q-16.35 -7.65 -9.85 -8.25 -3.2 -8.9 1.85 -4.0 5.55 -0.5 6.2 4.95 6.75 9.45 5.1 14.95 3.95 18.85 0.2 22.45 -4.15 26.55 -7.7 25.25 -11.25 24.0 -15.1 20.4 -18.9 16.75 -20.35 13.4 L-20.25 -2.0" fill="#d5a165" fill-rule="evenodd" stroke="none"/>
    <path d="M-20.3 1.25 Q-19.8 1.75 -18.6 1.9 L-16.6 2.1 Q-13.6 3.7 -11.65 6.2 -11.25 6.75 -10.45 11.65 -9.6 16.7 -9.8 17.9 -9.85 18.4 -9.5 18.75 -9.2 19.0 -8.65 19.75 -8.05 20.3 -8.15 21.25 L-7.25 22.85 -6.75 23.2 Q-6.45 23.35 -6.5 23.6 -6.5 24.35 -5.8 25.55 L-7.75 25.3 Q-11.3 24.05 -15.1 20.45 -18.9 16.85 -20.4 13.4 L-20.3 1.25" fill="url(#gradient0)" fill-rule="evenodd" stroke="none"/>
    <path d="M-5.05 13.0 L-5.05 12.7 Q-4.3 11.05 -2.25 9.85 -0.25 8.65 1.85 9.5 4.05 10.4 2.4 12.65 1.15 14.45 -1.25 14.45 -3.6 14.5 -5.05 13.0" fill="#ffffff" fill-rule="evenodd" stroke="none"/>
    <path d="M-16.3 15.1 L-11.95 15.25 Q-12.85 16.25 -14.35 16.3 -15.9 16.35 -16.5 15.05 L-16.3 15.1" fill="#4d3725" fill-rule="evenodd" stroke="none"/>
    <path d="M-3.65 11.05 L-3.6 10.85 Q-1.4 9.0 -0.1 9.0 1.8 9.0 2.1 11.1 2.4 13.15 0.85 14.35 L-2.25 14.3 Q-3.8 13.1 -3.65 11.05" fill="#000000" fill-rule="evenodd" stroke="none"/>
    <path d="M-3.2 10.75 L-3.15 10.6 Q-1.4 9.1 -0.3 9.1 1.25 9.1 1.5 10.8 1.75 12.5 0.5 13.45 -0.75 14.45 -2.05 13.45 -3.35 12.45 -3.2 10.75" fill="#311417" fill-rule="evenodd" stroke="none"/>
    <path d="M3.1 8.75 Q3.6 9.1 3.65 10.0 1.3 9.1 -1.25 10.0 -3.65 10.85 -5.2 13.0 L-5.0 12.55 -5.2 12.8 Q-4.9 10.8 -2.45 8.95 0.1 6.95 2.05 7.75 2.85 8.15 3.1 8.75" fill="#000000" fill-rule="evenodd" stroke="none"/>
    <path d="M-2.95 11.35 Q-2.95 10.55 -2.4 9.95 -1.8 9.4 -1.0 9.4 -0.2 9.4 0.4 9.95 0.95 10.55 0.95 11.35 0.95 12.15 0.4 12.75 -0.2 13.35 -1.0 13.35 -1.8 13.35 -2.4 12.75 -2.95 12.15 -2.95 11.35" fill="#000000" fill-rule="evenodd" stroke="none"/>
    <path d="M-2.5 10.8 Q-2.5 10.1 -1.8 10.1 -1.15 10.1 -1.15 10.8 -1.15 11.5 -1.8 11.5 -2.5 11.5 -2.5 10.8" fill="#ffffff" fill-rule="evenodd" stroke="none"/>
    <path d="M0.75 14.2 Q2.1 13.55 2.65 12.4 2.25 15.1 -0.1 15.1 -1.6 15.25 -2.75 14.6 L-2.9 14.6 -3.2 14.3 -3.15 14.3 -3.35 14.15 Q-1.15 14.8 0.75 14.2" fill="#4d3725" fill-rule="evenodd" stroke="none"/>
    <path d="M-6.0 6.8 L-5.9 6.7 Q-4.7 4.85 -3.8 4.1 -2.2 2.55 -1.55 4.95 -2.55 4.85 -3.85 5.9 -5.15 6.9 -6.0 6.8" fill="#000000" fill-rule="evenodd" stroke="none"/>
    <path d="M9.05 0.8 Q13.05 -0.5 12.35 3.4 11.6 7.25 8.25 8.4 7.35 6.55 7.7 4.8 L9.05 0.8" fill="#d5a165" fill-rule="evenodd" stroke="none"/>
    <path d="M12.2 5.7 Q10.75 8.3 8.5 9.1 L7.85 9.3 7.6 8.7 Q6.6 6.6 7.0 4.7 L8.35 4.9 Q8.1 6.15 8.6 7.5 10.15 6.65 11.1 4.8 12.0 3.0 11.6 1.9 11.25 0.8 9.25 1.45 L8.85 0.15 12.0 0.2 Q12.7 0.65 12.95 1.45 13.55 3.25 12.2 5.7" fill="#000000" fill-rule="evenodd" stroke="none"/>
    <path d="M9.05 0.8 Q12.75 -0.15 12.15 3.55 11.55 7.25 8.25 8.4 7.35 6.55 7.7 4.8 L9.05 0.8" fill="#d5a165" fill-rule="evenodd" stroke="none"/>
    <path d="M13.05 16.25 L13.7 19.75 Q13.95 21.55 13.45 21.3 12.85 21.15 12.75 19.25 L12.75 17.5 10.95 18.55 Q10.3 19.15 9.5 19.25 7.9 19.45 7.1 16.85 6.35 14.15 2.4 10.2 L-3.2 4.95 Q-4.7 3.55 -9.65 0.75 L-14.3 -1.8 Q-17.25 -0.45 -19.8 5.65 -21.1 8.8 -22.05 12.2 -22.35 13.05 -24.55 9.85 L-24.7 3.25 Q-24.5 -4.0 -23.05 -7.05 -22.4 -9.15 -20.8 -11.3 -17.55 -15.45 -11.95 -17.15 L-2.4 -17.75 1.25 -17.15 Q3.3 -16.5 6.35 -12.25 L9.05 -8.05 10.6 14.2 11.7 14.5 Q12.85 15.0 13.05 16.25" fill="#30154f" fill-rule="evenodd" stroke="none"/>
    <path d="M9.9 -8.15 L11.4 13.4 Q13.5 14.0 13.95 16.15 L14.2 17.6 14.65 20.5 Q14.7 21.4 14.35 21.85 14.05 22.25 13.5 22.25 L13.1 22.15 Q12.0 21.7 11.85 19.05 L11.45 19.25 Q10.6 20.15 9.3 20.15 7.15 20.15 6.35 17.05 5.65 14.9 2.7 11.7 L-2.4 6.85 -3.8 5.6 Q-5.1 4.4 -9.15 2.0 L-14.3 -0.85 Q-17.9 1.25 -20.9 11.65 L-21.2 12.55 Q-21.5 13.25 -22.25 13.25 -23.3 13.25 -25.25 10.35 L-25.4 10.15 -25.4 9.9 Q-25.65 6.6 -25.55 2.95 -25.4 -4.25 -23.85 -7.4 L-23.75 -7.6 Q-22.35 -11.4 -19.35 -14.05 -16.4 -16.75 -12.2 -18.0 -9.6 -18.75 -5.7 -18.75 L-2.35 -18.65 1.45 -18.0 Q4.95 -16.85 9.85 -8.5 L9.9 -8.35 9.9 -8.15 M10.45 17.85 L12.25 16.8 12.2 16.4 Q12.05 15.55 11.35 15.25 L10.6 15.05 9.85 15.05 8.2 -7.85 4.95 -12.6 Q2.5 -15.8 0.95 -16.3 L-2.45 -16.9 -5.7 -17.0 -11.65 -16.3 Q-19.55 -14.0 -22.2 -6.95 L-22.25 -6.65 Q-23.6 -3.95 -23.8 2.4 -23.9 6.45 -23.65 9.55 L-22.55 11.0 Q-19.2 -0.55 -14.65 -2.6 L-14.25 -2.8 -13.85 -2.6 -9.05 0.05 Q-4.2 2.9 -2.65 4.35 L-1.3 5.55 Q6.85 12.6 7.95 16.55 8.55 18.35 9.3 18.35 L10.4 17.9 10.45 17.85" fill="#000000" fill-rule="evenodd" stroke="none"/>
    <path d="M13.05 16.25 L13.7 19.75 Q13.95 21.55 13.45 21.3 12.85 21.15 12.75 19.25 L12.75 17.5 10.95 18.55 Q10.3 19.15 9.5 19.25 7.9 19.45 7.1 16.85 6.35 14.15 2.4 10.2 L-3.2 4.95 Q-4.7 3.55 -9.65 0.75 L-14.3 -1.8 Q-17.25 -0.45 -19.8 5.65 -21.1 8.8 -22.05 12.2 -22.35 13.05 -24.55 9.85 L-24.7 3.25 Q-24.5 -4.0 -23.05 -7.05 -22.4 -9.15 -20.8 -11.3 -17.55 -15.45 -11.95 -17.15 L-2.4 -17.75 1.25 -17.15 Q3.3 -16.5 6.35 -12.25 L9.05 -8.05 10.6 14.2 11.7 14.5 Q12.85 15.0 13.05 16.25" fill="#30154f" fill-rule="evenodd" stroke="none"/>
  </g>
  <defs>
    <linearGradient gradientTransform="matrix(0.0039, -6.0E-4, -6.0E-4, -0.0039, -12.65, 13.35)" gradientUnits="userSpaceOnUse" id="gradient0" spreadMethod="pad" x1="-819.2" x2="819.2">
      <stop offset="0.0" stop-color="#a27a4d"/>
      <stop offset="1.0" stop-color="#d5a165"/>
    </linearGradient>
  </defs>
</svg>
