<?xml version="1.0" encoding="UTF-8" standalone="no"?>
<svg xmlns:xlink="http://www.w3.org/1999/xlink" height="42.0px" width="41.2px" xmlns="http://www.w3.org/2000/svg">
  <g transform="matrix(1.0, 0.0, 0.0, 1.0, 0.0, 0.0)">
    <path d="M41.1 40.25 Q41.35 42.2 40.8 41.95 40.2 41.75 40.05 39.75 L40.05 37.85 38.15 39.0 Q37.45 39.65 36.6 39.75 34.9 39.95 34.05 37.15 33.25 34.3 29.0 30.05 L23.0 24.45 Q21.4 22.95 16.1 19.95 L11.15 17.2 Q7.95 18.65 5.25 25.2 3.85 28.55 2.85 32.2 2.5 33.1 0.15 29.7 -0.05 26.5 0.0 22.6 0.2 14.85 1.75 11.6 2.45 9.35 4.2 7.05 7.65 2.6 13.65 0.8 17.65 -0.35 23.85 0.15 L27.75 0.8 Q29.95 1.5 33.25 6.05 L36.1 10.5 37.8 34.35 38.95 34.65 Q40.2 35.2 40.4 36.55 L41.1 40.25" fill="#ff0000" fill-rule="evenodd" stroke="none"/>
  </g>
</svg>
