<?xml version="1.0" encoding="UTF-8" standalone="no"?>
<svg xmlns:xlink="http://www.w3.org/1999/xlink" height="41.95px" width="42.15px" xmlns="http://www.w3.org/2000/svg">
  <g transform="matrix(1.0, 0.0, 0.0, 1.0, -0.2, -0.95)">
    <path d="M23.3 7.35 Q27.4 6.6 29.9 8.7 27.1 7.85 23.55 8.65 20.15 9.45 17.8 11.3 20.5 9.65 24.05 10.25 26.5 10.7 30.1 12.5 26.9 11.25 23.1 11.35 18.7 11.5 16.65 13.7 15.3 15.15 15.8 17.25 16.25 19.25 18.0 20.6 L13.6 17.75 Q10.35 15.85 9.4 17.35 L9.05 12.2 Q8.9 8.95 10.05 7.45 8.75 7.65 8.2 7.95 8.25 6.8 9.15 5.2 9.95 3.7 10.9 2.85 L10.5 3.85 12.7 2.45 Q14.05 1.55 14.95 1.3 13.25 4.6 13.85 9.0 14.5 5.15 19.7 1.25 16.35 5.25 15.45 9.7 19.0 2.75 24.1 1.8 19.55 4.95 17.0 10.35 19.7 8.05 23.3 7.35" fill="#291243" fill-rule="evenodd" stroke="none"/>
    <path d="M8.1 5.25 L7.3 5.8 6.95 6.1 8.1 5.25 M7.3 5.8 L8.7 4.5 10.7 3.05 Q9.45 4.25 8.8 5.6 7.9 7.4 8.55 8.55 8.9 8.25 9.85 7.9 9.4 10.4 9.4 13.85 L9.05 18.0 Q8.65 19.75 7.3 21.8 3.15 28.3 1.85 31.9 1.8 23.65 7.95 17.0 6.35 17.45 4.2 18.85 L0.75 21.2 Q1.5 19.85 4.9 17.25 7.7 15.1 7.9 13.1 6.95 13.3 5.6 14.2 L3.45 15.6 Q4.0 14.15 5.65 12.5 3.75 13.35 3.45 13.55 2.2 14.2 1.55 15.0 2.25 13.55 4.05 11.45 L6.75 8.0 Q5.5 7.7 4.0 9.2 5.2 7.35 7.3 5.8" fill="#1e0d31" fill-rule="evenodd" stroke="none"/>
    <path d="M15.05 1.1 L15.25 1.25 Q16.75 0.9 17.85 1.25 16.75 2.45 15.7 4.85 L13.85 8.6 Q13.3 4.9 15.05 1.1" fill="#4c227c" fill-rule="evenodd" stroke="none"/>
    <path d="M21.2 1.35 L20.85 1.25 24.9 1.35 Q22.8 2.15 20.65 4.35 19.4 5.6 17.3 8.4 17.55 5.35 21.2 1.35" fill="#4c227c" fill-rule="evenodd" stroke="none"/>
    <path d="M32.5 7.9 Q30.15 5.2 26.7 6.0 L27.0 4.95 Q27.2 4.45 27.7 4.05 L25.45 5.35 Q25.8 4.05 26.7 3.35 25.2 3.9 23.65 5.2 L20.95 7.5 20.75 7.05 24.1 3.2 Q26.5 0.85 28.35 1.75 28.95 2.05 30.05 3.65 L31.65 5.8 33.5 7.75 35.05 9.95 Q36.0 11.95 36.2 13.5 35.65 12.05 34.2 11.0 32.85 10.1 31.2 9.8 L32.5 7.9" fill="#4c227c" fill-rule="evenodd" stroke="none"/>
    <path d="M23.3 10.4 Q26.0 8.7 29.55 10.05 33.0 11.35 34.7 14.4 32.35 12.65 29.15 11.65 26.8 10.9 23.3 10.4" fill="#4c227c" fill-rule="evenodd" stroke="none"/>
    <path d="M34.45 16.2 L36.5 19.3 Q33.25 15.85 28.15 14.85 23.25 13.85 18.7 15.4 L16.85 16.25 Q15.95 16.5 15.35 15.6 18.65 11.7 24.85 12.05 30.85 12.45 34.45 16.2" fill="#6d3aa7" fill-rule="evenodd" stroke="none"/>
    <path d="M21.5 20.8 L25.0 23.6 28.6 26.1 Q29.95 27.2 31.4 29.35 L33.8 32.9 Q35.15 34.65 37.2 35.45 L38.55 35.6 Q39.2 35.6 39.7 36.2 L40.4 40.05 Q40.85 42.95 42.35 42.0 41.45 44.05 40.3 41.5 39.25 38.4 38.85 38.15 L37.15 37.95 35.25 37.65 Q33.8 36.8 32.05 33.55 30.6 30.85 29.6 29.65 28.25 28.1 25.95 26.75 16.95 21.5 15.55 15.25 L17.4 14.95 Q17.55 16.45 18.95 18.2 L21.5 20.8" fill="#6d3aa7" fill-rule="evenodd" stroke="none"/>
    <path d="M26.3 22.15 L20.85 19.95 Q17.55 18.5 16.75 16.0 L17.3 14.85 Q17.65 15.85 19.15 16.85 L21.6 18.2 26.65 20.65 Q29.55 22.05 31.35 23.7 36.6 28.6 38.1 34.75 L36.05 31.05 Q34.2 28.55 31.6 26.15 28.9 23.65 26.3 22.15" fill="#6d3aa7" fill-rule="evenodd" stroke="none"/>
    <path d="M6.95 17.95 Q3.8 22.2 2.55 25.15 0.6 29.7 1.75 33.3 -0.55 31.15 0.6 26.05 1.65 21.3 4.05 19.3 5.3 18.25 6.85 17.65 L6.95 17.95" fill="#291243" fill-rule="evenodd" stroke="none"/>
    <path d="M6.95 14.4 L4.05 17.6 1.3 20.9 Q0.7 18.8 1.55 16.4 2.5 13.85 4.45 13.2 L3.35 15.4 Q5.3 13.9 7.35 14.15 L6.7 14.75 6.95 14.4" fill="#291243" fill-rule="evenodd" stroke="none"/>
  </g>
</svg>
