<?xml version="1.0" encoding="UTF-8" standalone="no"?>
<svg xmlns:xlink="http://www.w3.org/1999/xlink" height="41.2px" width="26.35px" xmlns="http://www.w3.org/2000/svg">
  <g transform="matrix(1.0, 0.0, 0.0, 1.0, 25.95, 16.85)">
    <path d="M-18.9 9.85 L-18.8 9.85 -16.35 9.8 Q-15.45 9.95 -14.0 10.65 -11.55 11.85 -10.95 13.4 -10.25 15.25 -13.6 15.55 -17.95 16.05 -18.9 9.85" fill="#f9f2e6" fill-rule="evenodd" stroke="none"/>
    <path d="M-15.45 10.4 L-15.3 10.1 -14.1 10.3 -13.0 10.9 Q-11.5 12.2 -11.9 14.05 -12.25 15.95 -14.45 15.8 -16.6 15.65 -16.95 13.35 -17.25 10.95 -15.45 10.4" fill="#000000" fill-rule="evenodd" stroke="none"/>
    <path d="M-15.25 10.85 L-15.1 10.65 -14.15 10.8 -13.3 11.3 Q-12.15 12.4 -12.45 13.85 -12.8 15.45 -14.55 15.25 -16.3 15.05 -16.5 13.2 -16.75 11.3 -15.25 10.85" fill="#311417" fill-rule="evenodd" stroke="none"/>
    <path d="M-9.95 15.25 L-9.7 17.0 Q-9.35 18.55 -8.5 19.65 -9.45 19.65 -10.45 18.75 -9.95 17.75 -9.9 16.45 L-9.95 15.25" fill="#a27a4d" fill-opacity="0.64705884" fill-rule="evenodd" stroke="none"/>
    <path d="M-20.2 6.8 L-20.35 6.65 Q-20.0 5.45 -19.2 4.85 -17.5 3.8 -15.35 4.85 -13.35 5.9 -12.7 7.7 -13.9 6.15 -16.25 5.9 -18.4 5.7 -20.2 6.8" fill="#000000" fill-rule="evenodd" stroke="none"/>
    <path d="M-9.25 19.6 L-9.25 19.8 -9.5 18.7 Q-8.9 19.65 -7.2 19.5 -5.65 19.4 -4.6 18.65 -5.3 20.05 -6.65 20.35 -7.95 20.55 -9.25 19.6" fill="#5b4329" fill-rule="evenodd" stroke="none"/>
    <path d="M-10.85 13.4 Q-13.65 9.65 -18.65 9.9 L-20.85 10.45 Q-21.25 7.5 -16.85 8.9 -12.8 10.25 -11.5 11.95 -10.55 13.2 -10.35 14.0 L-11.75 12.4 -10.85 13.4" fill="#000000" fill-rule="evenodd" stroke="none"/>
    <path d="M-20.85 10.7 L-21.25 9.3 Q-20.35 8.5 -18.3 8.4 -15.6 8.35 -13.25 9.85 -10.75 11.5 -10.45 14.1 -11.25 13.25 -12.4 12.5 -17.8 9.15 -20.85 10.7" fill="#000000" fill-rule="evenodd" stroke="none"/>
    <path d="M-16.3 12.85 Q-16.3 12.1 -15.75 11.55 -15.15 11.0 -14.4 11.0 -13.65 11.0 -13.1 11.55 -12.55 12.1 -12.55 12.85 -12.55 13.65 -13.1 14.15 -13.65 14.75 -14.4 14.75 -15.15 14.75 -15.75 14.15 -16.3 13.65 -16.3 12.85" fill="#000000" fill-rule="evenodd" stroke="none"/>
    <path d="M-15.55 11.85 Q-15.55 11.2 -14.9 11.2 -14.2 11.2 -14.2 11.85 L-14.35 12.35 -14.9 12.55 Q-15.55 12.55 -15.55 11.85" fill="#ffffff" fill-rule="evenodd" stroke="none"/>
    <path d="M-21.3 8.1 L-20.55 7.6 Q-21.2 8.8 -20.85 10.65 L-20.25 13.75 Q-21.45 13.3 -22.05 12.05 -22.65 13.3 -21.75 14.75 -24.1 13.7 -24.25 10.65 -23.95 7.05 -24.35 5.5 L-22.25 3.6 Q-22.9 4.25 -22.4 5.65 L-21.3 8.1" fill="#291243" fill-rule="evenodd" stroke="none"/>
    <path d="M-14.2 -16.0 L-13.05 -16.85 -14.8 -14.4 Q-15.55 -13.05 -15.8 -11.55 -15.1 -12.0 -13.85 -12.1 -15.45 -7.35 -15.2 -5.3 -14.95 -2.6 -11.7 0.1 -14.0 -1.5 -15.2 -2.1 L-15.8 -1.3 -15.85 -6.3 Q-15.8 -9.3 -15.0 -11.1 L-16.6 -10.1 Q-16.8 -11.45 -15.85 -13.4 -15.1 -15.0 -14.2 -16.0" fill="#6d3aa7" fill-opacity="0.49803922" fill-rule="evenodd" stroke="none"/>
    <path d="M-15.3 -1.2 L-13.85 -2.0 -14.8 -1.2 Q-16.5 0.6 -18.0 3.15 -19.7 5.95 -20.6 8.7 -21.0 14.35 -18.9 17.25 L-20.65 15.75 -21.05 15.4 -21.1 15.35 Q-23.05 13.5 -23.55 11.95 -24.1 9.85 -22.75 7.1 -21.45 4.45 -19.1 1.9 -16.8 -0.65 -14.25 -2.35 L-15.3 -1.2" fill="#6d3aa7" fill-rule="evenodd" stroke="none"/>
    <path d="M-13.9 -1.5 L-14.6 -1.0 Q-17.95 3.4 -19.05 6.25 -20.7 10.35 -20.0 14.8 L-19.65 16.15 -20.1 15.7 Q-21.5 11.95 -20.9 8.35 -20.3 4.6 -17.55 1.4 -15.8 -0.55 -13.9 -1.5" fill="#000000" fill-rule="evenodd" stroke="none"/>
    <path d="M-20.5 10.75 Q-20.65 12.8 -19.95 14.95 -19.2 17.2 -17.85 18.6 -22.7 14.8 -20.05 6.75 L-20.5 10.65 -20.5 10.75" fill="#000000" fill-rule="evenodd" stroke="none"/>
    <path d="M-19.75 6.95 L-20.1 9.75 -20.1 10.7 -20.6 10.65 -20.6 10.75 -20.1 10.8 Q-20.25 12.85 -19.55 14.95 -18.85 17.05 -17.6 18.35 L-18.0 18.9 Q-23.15 14.85 -20.4 6.8 L-20.2 6.2 -19.55 6.25 -19.6 6.6 -19.75 6.95" fill="#000000" fill-rule="evenodd" stroke="none"/>
    <path d="M-15.8 9.0 L-16.0 9.15 -19.95 10.1 Q-22.5 10.4 -21.75 7.85 -20.9 8.35 -18.85 8.45 L-15.8 9.0" fill="#000000" fill-rule="evenodd" stroke="none"/>
    <path d="M-25.65 24.35 Q-26.3 22.35 -25.6 21.35 -24.9 20.35 -23.2 20.65 -21.55 20.95 -20.95 21.95 -20.2 23.05 -21.8 23.85 L-21.65 23.7 Q-21.05 22.4 -21.8 21.75 -22.5 21.1 -23.65 21.3 -26.35 21.9 -25.65 24.35" fill="#6d3aa7" fill-rule="evenodd" stroke="none"/>
    <path d="M-13.7 20.85 L-12.05 19.05 Q-12.0 20.15 -10.3 21.05 -8.9 21.75 -7.6 21.8 -4.0 21.8 -2.35 19.7 -1.9 19.1 -1.05 19.05 -0.15 19.0 0.4 19.5 -0.3 19.4 -1.1 19.95 L-2.35 21.0 Q-4.4 22.55 -5.4 22.85 -7.9 23.55 -11.05 21.45 L-12.2 20.55 -13.45 20.5 -13.7 20.85" fill="#4d3725" fill-rule="evenodd" stroke="none"/>
    <path d="M-7.95 23.3 Q-6.5 24.2 -4.95 23.1 -5.25 24.1 -6.5 24.1 -7.85 24.15 -8.05 23.25 L-7.95 23.3" fill="#4d3725" fill-rule="evenodd" stroke="none"/>
  </g>
</svg>
