<?xml version="1.0" encoding="UTF-8" standalone="no"?>
<svg xmlns:xlink="http://www.w3.org/1999/xlink" height="29.9px" width="29.3px" xmlns="http://www.w3.org/2000/svg">
  <g transform="matrix(1.0, 0.0, 0.0, 1.0, -0.6, 32.15)">
    <path d="M14.3 -31.25 Q17.75 -31.4 20.35 -30.5 25.45 -28.7 27.7 -23.85 30.0 -19.0 28.25 -13.85 26.75 -9.3 21.45 -7.15 16.85 -5.35 13.15 -6.35 13.0 -6.4 10.05 -4.75 6.9 -3.0 4.55 -3.1 5.75 -4.45 6.35 -6.75 7.0 -9.05 6.25 -9.55 3.95 -11.0 2.5 -14.55 0.8 -18.7 2.0 -22.3 2.85 -24.85 4.6 -26.85 6.3 -28.85 8.55 -30.0 10.8 -31.1 14.3 -31.25" fill="#ffffff" fill-rule="evenodd" stroke="none"/>
    <path d="M20.6 -31.35 Q26.05 -29.45 28.5 -24.25 31.0 -19.1 29.1 -13.6 27.75 -9.55 23.55 -7.2 19.9 -5.15 15.65 -5.15 L13.1 -5.45 11.85 -4.75 8.75 -3.1 Q6.65 -2.25 4.8 -2.25 L2.7 -2.3 3.9 -3.7 Q4.8 -4.8 5.4 -6.6 5.9 -8.3 5.7 -8.85 3.1 -10.55 1.6 -14.45 -0.1 -18.8 1.15 -22.55 2.1 -25.3 3.9 -27.45 5.75 -29.6 8.15 -30.8 10.95 -32.15 15.2 -32.15 18.2 -32.15 20.6 -31.35 M20.05 -29.65 L15.2 -30.35 Q11.4 -30.35 8.95 -29.2 6.85 -28.15 5.25 -26.25 3.65 -24.4 2.85 -22.0 1.75 -18.7 3.35 -14.85 4.7 -11.6 6.7 -10.3 7.35 -9.9 7.45 -8.95 7.8 -7.0 6.3 -4.2 8.0 -4.6 10.95 -6.3 12.6 -7.2 13.1 -7.2 L13.4 -7.2 15.65 -6.9 Q19.05 -6.9 22.3 -8.55 26.25 -10.55 27.45 -14.1 29.05 -19.0 26.9 -23.5 24.75 -28.0 20.05 -29.65" fill="#d2d3ce" fill-rule="evenodd" stroke="none"/>
    <path d="M13.0 -25.6 L19.3 -25.5 18.0 -21.9 17.2 -18.15 14.95 -18.65 12.45 -18.55 13.0 -25.6" fill="#ffcb46" fill-rule="evenodd" stroke="none"/>
    <path d="M12.05 -26.8 L20.95 -26.6 19.1 -21.6 18.05 -16.75 14.85 -17.5 11.3 -17.4 11.45 -22.55 12.05 -26.8 M13.7 -22.3 L13.65 -19.75 15.1 -19.8 16.35 -19.5 16.95 -22.3 17.7 -24.4 14.0 -24.45 13.7 -22.3" fill="#c07e30" fill-rule="evenodd" stroke="none"/>
    <path d="M13.0 -25.6 L19.3 -25.5 18.0 -21.9 17.2 -18.15 14.95 -18.65 12.45 -18.55 13.0 -25.6" fill="#ffcb46" fill-rule="evenodd" stroke="none"/>
    <path d="M16.1 -19.45 L17.05 -24.75 13.0 -25.6 19.3 -25.5 17.5 -18.2 15.25 -18.7 16.1 -19.45" fill="#e3ac3a" fill-rule="evenodd" stroke="none"/>
    <path d="M19.5 -25.65 L17.6 -18.05 14.95 -18.6 16.0 -19.5 16.9 -24.65 13.0 -25.5 13.05 -25.75 19.5 -25.65 M17.2 -24.8 L16.25 -19.4 15.5 -18.75 17.4 -18.35 19.15 -25.4 14.3 -25.45 17.2 -24.8" fill="#e3ac3a" fill-rule="evenodd" stroke="none"/>
    <path d="M12.45 -18.45 L12.85 -25.45 13.25 -25.7 14.5 -25.7 13.35 -18.7 12.45 -18.45" fill="#f8f0ad" fill-rule="evenodd" stroke="none"/>
    <path d="M11.25 -11.85 Q10.6 -12.65 10.95 -13.55 11.3 -14.45 12.4 -14.9 L14.8 -15.1 Q16.0 -14.85 16.7 -14.05 17.35 -13.25 17.0 -12.35 16.65 -11.45 15.5 -11.0 L13.15 -10.8 Q11.9 -11.05 11.25 -11.85" fill="#ffcb46" fill-rule="evenodd" stroke="none"/>
    <path d="M12.85 -13.85 Q12.1 -13.6 12.0 -13.1 11.85 -12.95 12.15 -12.55 12.7 -11.85 13.95 -11.85 L15.1 -12.05 Q15.8 -12.35 15.95 -12.85 L15.8 -13.35 Q15.25 -14.05 13.95 -14.05 L12.85 -13.85 M13.95 -16.3 Q16.35 -16.3 17.6 -14.75 18.45 -13.6 18.15 -12.25 17.65 -10.65 15.95 -9.95 L13.95 -9.6 Q11.5 -9.6 10.35 -11.15 9.4 -12.3 9.8 -13.7 10.2 -15.25 12.0 -15.95 L13.95 -16.3" fill="#c07e30" fill-rule="evenodd" stroke="none"/>
    <path d="M11.25 -11.85 Q10.6 -12.65 10.95 -13.55 11.3 -14.45 12.4 -14.9 L14.8 -15.1 Q16.0 -14.85 16.7 -14.05 17.35 -13.25 17.0 -12.35 16.65 -11.45 15.5 -11.0 L13.15 -10.8 Q11.9 -11.05 11.25 -11.85" fill="#ffcb46" fill-rule="evenodd" stroke="none"/>
    <path d="M14.15 -14.85 L15.45 -14.7 Q16.85 -14.35 17.05 -13.1 17.3 -11.8 15.6 -10.75 L13.55 -10.7 14.6 -11.4 Q15.6 -12.25 15.4 -13.15 15.2 -14.0 14.65 -14.5 L14.15 -14.85" fill="#e3ac3a" fill-rule="evenodd" stroke="none"/>
    <path d="M14.15 -15.0 L14.4 -15.0 Q16.8 -15.0 17.2 -13.15 17.45 -11.75 15.65 -10.65 L13.55 -10.6 13.5 -10.85 Q15.6 -11.8 15.3 -13.1 L14.6 -14.4 14.15 -14.75 14.15 -15.0 M14.1 -10.85 L15.55 -10.9 16.4 -11.6 Q17.1 -12.35 16.95 -13.1 16.65 -14.6 14.6 -14.75 15.25 -14.2 15.55 -13.2 15.85 -11.9 14.1 -10.85" fill="#e3ac3a" fill-rule="evenodd" stroke="none"/>
    <path d="M11.55 -14.3 Q11.5 -14.65 11.8 -14.9 L12.5 -15.25 13.25 -15.05 13.6 -14.45 Q13.65 -14.1 13.35 -13.85 L12.65 -13.55 11.9 -13.7 Q11.6 -13.95 11.55 -14.3" fill="#f8f0ad" fill-rule="evenodd" stroke="none"/>
  </g>
</svg>
