<?xml version="1.0" encoding="UTF-8" standalone="no"?>
<svg xmlns:xlink="http://www.w3.org/1999/xlink" height="45.3px" width="45.45px" xmlns="http://www.w3.org/2000/svg">
  <g transform="matrix(1.0, 0.0, 0.0, 1.0, 23.0, 21.8)">
    <path d="M21.9 -15.25 Q22.65 -13.9 22.4 -12.2 22.05 -10.1 20.2 -8.8 L16.65 -5.05 15.0 -3.2 13.6 -3.6 11.1 -1.0 19.4 6.65 19.55 6.8 Q21.3 8.95 21.8 11.7 22.45 15.35 20.2 18.05 17.0 21.8 12.7 21.8 10.7 21.8 9.3 21.1 8.2 20.65 5.35 17.75 L5.3 17.65 0.8 13.25 -4.35 19.5 -5.7 21.1 Q-7.3 22.75 -8.8 23.3 L-10.15 23.5 Q-12.95 23.5 -16.0 21.0 L-16.7 20.4 Q-18.0 19.1 -18.75 17.4 -19.5 15.7 -19.55 14.05 -19.55 11.5 -17.95 9.8 L-17.1 9.1 -16.5 8.8 -15.55 7.95 -12.9 5.7 -15.7 4.75 Q-20.2 2.6 -22.05 -2.0 -23.9 -6.6 -22.1 -11.35 -20.95 -14.5 -18.45 -14.65 L-18.25 -14.65 -16.95 -14.4 Q-17.35 -16.85 -16.1 -18.8 -14.1 -21.8 -9.35 -21.8 -5.5 -21.8 -3.15 -20.4 -0.75 -19.05 0.8 -16.7 2.4 -14.4 2.9 -11.45 L2.8 -8.0 3.3 -7.55 6.3 -10.65 5.9 -11.55 7.7 -13.35 14.0 -19.8 Q15.1 -20.65 16.5 -20.65 18.4 -20.65 19.7 -19.15 20.6 -18.1 21.9 -15.25" fill="#ffffff" fill-rule="evenodd" stroke="none"/>
    <path d="M17.05 9.6 Q18.9 12.7 17.15 15.7 15.3 18.75 11.55 17.6 L11.55 17.8 -1.75 5.05 -6.0 1.05 -7.7 1.15 -9.65 1.75 Q-12.05 1.95 -14.3 0.95 -17.45 -0.55 -18.7 -3.75 -19.9 -6.9 -18.7 -10.1 L-18.65 -10.1 -15.65 -8.1 -12.2 -5.65 -10.55 -5.95 -8.7 -6.65 Q-7.8 -6.95 -7.8 -7.55 L-8.1 -9.25 -8.3 -10.9 Q-8.5 -11.65 -9.25 -12.15 L-11.25 -13.25 Q-12.65 -14.1 -12.9 -14.65 -14.15 -17.6 -10.45 -17.9 -7.25 -18.25 -5.35 -17.1 -3.7 -16.2 -2.6 -14.5 -1.6 -12.95 -1.25 -11.0 -1.15 -10.6 -1.4 -8.25 -1.6 -6.35 -1.1 -5.95 L6.5 0.35 12.0 4.75 Q15.3 7.45 17.05 9.6" fill="#5a6a81" fill-rule="evenodd" stroke="none"/>
    <path d="M18.15 8.5 L19.7 11.3 Q20.8 14.5 18.8 16.8 16.75 19.25 14.05 19.65 12.15 20.0 10.55 19.25 10.0 19.0 8.4 17.5 L5.9 14.9 -3.0 6.35 -6.8 2.75 -7.75 3.1 -9.5 3.55 Q-12.5 3.8 -15.05 2.55 -18.85 0.8 -20.35 -3.0 -21.85 -6.8 -20.35 -10.75 -19.75 -12.45 -18.8 -12.5 -18.05 -12.55 -16.0 -10.85 L-11.7 -7.45 -9.75 -8.2 Q-10.0 -10.5 -10.2 -10.7 -14.05 -12.85 -14.55 -13.95 -15.55 -16.25 -14.4 -17.8 -13.15 -19.75 -9.6 -19.75 -6.35 -19.75 -4.45 -18.7 -0.4 -16.4 0.5 -11.3 L0.3 -7.1 7.65 -1.05 12.25 3.05 18.15 8.5 M15.6 14.65 Q16.7 12.75 15.55 10.6 13.65 8.35 8.25 4.05 L-2.3 -4.55 Q-3.1 -5.25 -3.25 -6.6 L-3.1 -9.15 -3.0 -10.7 Q-3.6 -14.05 -6.2 -15.6 L-9.6 -16.15 -11.4 -15.85 -11.25 -15.45 -9.35 -14.3 -8.2 -13.6 Q-7.15 -12.85 -6.75 -11.85 -6.45 -11.2 -6.4 -10.1 L-6.2 -8.8 Q-5.55 -5.75 -8.2 -4.95 L-8.7 -4.7 Q-10.6 -4.0 -11.5 -3.85 -12.6 -3.7 -13.25 -4.2 L-17.5 -7.15 Q-17.55 -5.05 -16.55 -3.3 -15.5 -1.55 -13.55 -0.65 -11.85 0.1 -9.85 0.0 L-8.95 -0.3 -6.45 -0.9 Q-5.5 -0.9 -4.75 -0.25 L-0.5 3.75 8.4 12.35 12.1 15.85 13.3 16.05 Q14.9 16.05 15.6 14.65" fill="url(#gradient0)" fill-rule="evenodd" stroke="none"/>
    <path d="M17.05 9.6 L18.0 12.05 Q18.6 14.8 16.7 16.25 15.25 17.4 13.3 17.7 L11.65 17.7 -6.25 0.75 Q-8.45 1.9 -10.8 1.8 -13.3 1.7 -15.4 0.35 -19.15 -2.1 -19.3 -6.35 L-18.7 -10.1 -12.4 -3.2 -7.75 -6.4 -8.5 -12.25 -12.9 -14.65 -10.95 -15.7 Q-8.45 -16.4 -5.55 -14.8 -3.05 -13.35 -2.25 -10.1 -1.65 -7.8 -1.75 -3.95 L9.5 5.75 17.05 9.6" fill="#728995" fill-rule="evenodd" stroke="none"/>
    <path d="M16.95 9.45 L17.35 11.4 Q17.6 13.6 16.5 14.7 15.2 16.05 13.4 16.05 L11.85 15.8 1.65 7.1 -6.15 -1.25 Q-8.35 -0.05 -10.65 -0.05 -13.15 0.0 -15.2 -1.35 -18.95 -3.8 -19.15 -7.25 L-18.6 -10.2 -12.15 -5.6 -6.8 -7.25 -7.35 -13.35 -12.65 -17.05 -10.7 -18.05 Q-8.2 -18.8 -5.35 -17.1 -2.65 -15.6 -1.6 -12.4 -0.6 -9.3 -1.55 -6.3 L16.95 9.45" fill="url(#gradient1)" fill-rule="evenodd" stroke="none"/>
    <path d="M-6.3 0.65 L-6.15 -1.25 11.85 15.8 11.55 17.8 -6.3 0.65" fill="#75a2a4" fill-rule="evenodd" stroke="none"/>
    <path d="M20.25 -14.5 Q20.65 -13.75 20.55 -12.85 20.4 -11.8 19.3 -11.0 L15.3 -6.9 14.6 -6.1 13.25 -6.45 6.4 0.6 6.5 1.3 Q6.75 3.25 6.4 4.45 6.05 5.75 4.45 6.8 L4.2 7.0 4.15 7.0 3.6 7.4 3.55 7.45 2.95 7.7 2.9 7.75 2.15 8.4 1.8 8.8 Q-0.6 11.2 -6.45 18.35 L-7.35 19.45 -7.45 19.65 -7.95 20.25 -7.95 20.3 -8.1 20.35 -8.25 20.6 -8.25 20.55 Q-9.2 21.2 -10.45 21.2 -12.75 21.2 -14.85 19.5 L-15.4 19.0 Q-16.35 18.05 -16.95 16.75 -17.55 15.45 -17.55 14.3 -17.55 12.75 -16.65 11.75 L-16.15 11.35 -15.6 11.0 -15.55 11.0 -14.4 10.05 -9.55 5.85 -9.45 5.75 -9.2 5.55 -8.6 4.95 -8.55 4.95 -7.2 3.65 -7.15 3.55 -6.95 3.4 -4.85 0.9 -4.75 0.7 Q-4.15 -0.75 -3.05 -1.65 L-2.85 -1.85 -2.4 -2.25 Q-1.1 -3.2 1.15 -3.2 L2.45 -3.15 9.35 -10.2 9.0 -11.2 9.65 -12.0 15.9 -18.25 Q16.4 -18.6 16.95 -18.6 17.8 -18.6 18.4 -17.85 19.1 -17.05 20.25 -14.5" fill="url(#gradient2)" fill-rule="evenodd" stroke="none"/>
    <path d="M-12.4 -16.7 L-7.15 -13.1 -7.45 -10.8 -12.65 -14.4 -12.4 -16.7" fill="#75a2a4" fill-rule="evenodd" stroke="none"/>
    <path d="M4.6 0.0 L4.55 0.05 Q5.2 3.5 4.25 4.45 L3.35 5.4 2.25 6.1 2.15 6.15 Q0.75 7.05 -4.1 12.75 L-8.6 18.3 -8.95 18.8 Q-9.65 19.55 -11.25 19.05 -12.8 18.65 -13.95 17.55 -15.1 16.45 -15.5 15.0 -15.9 13.45 -15.15 12.7 L-14.4 12.25 -9.2 7.8 Q-3.8 3.05 -3.1 1.3 L-2.35 0.05 -1.6 -0.65 Q-1.05 -1.25 -0.05 -1.4 L2.3 -1.45 Q3.35 -1.0 4.6 0.0" fill="#a03014" fill-rule="evenodd" stroke="none"/>
    <path d="M-14.6 12.3 Q-12.5 12.5 -10.85 14.35 -9.4 16.0 -8.7 18.45 L-8.95 18.8 Q-9.65 19.55 -11.25 19.05 -12.8 18.65 -13.95 17.55 -15.1 16.45 -15.5 15.0 -15.9 13.45 -15.15 12.7 L-14.6 12.3" fill="#c24834" fill-rule="evenodd" stroke="none"/>
    <path d="M-0.95 4.5 Q0.1 5.4 0.6 7.55 -2.0 10.15 -7.55 17.0 -8.35 14.85 -9.75 13.35 -11.2 11.7 -13.05 11.15 -6.7 5.85 -4.3 3.05 -2.0 3.55 -0.95 4.5" fill="#c24834" fill-rule="evenodd" stroke="none"/>
    <path d="M4.6 0.0 L4.55 0.05 Q5.2 3.5 4.25 4.45 L3.35 5.4 2.25 6.1 2.15 6.15 1.85 6.35 Q1.15 4.45 0.25 3.5 -1.0 2.25 -3.3 1.7 L-3.1 1.3 -2.35 0.05 -1.6 -0.65 Q-1.05 -1.25 -0.05 -1.4 L2.3 -1.45 Q3.35 -1.0 4.6 0.0" fill="#c24834" fill-rule="evenodd" stroke="none"/>
    <path d="M18.5 -13.45 Q19.0 -12.8 18.05 -12.15 L15.6 -9.75 13.8 -7.8 12.55 -8.2 5.0 -0.45 3.25 -1.65 11.1 -9.6 10.75 -10.6 16.6 -16.6 17.7 -15.15 18.5 -13.45" fill="#728995" fill-rule="evenodd" stroke="none"/>
    <path d="M10.2 -8.7 L12.05 -7.6 5.25 -0.7 3.55 -1.9 10.2 -8.7" fill="url(#gradient3)" fill-rule="evenodd" stroke="none"/>
    <path d="M18.5 -13.45 Q19.0 -12.8 18.05 -12.15 L15.6 -9.75 13.8 -7.8 13.1 -8.0 Q12.35 -8.85 10.9 -9.45 L11.1 -9.6 10.75 -10.6 16.6 -16.6 17.7 -15.15 18.5 -13.45" fill="url(#gradient4)" fill-rule="evenodd" stroke="none"/>
  </g>
  <defs>
    <linearGradient gradientTransform="matrix(0.0118, 0.0261, 0.0261, -0.0118, 0.4, 5.75)" gradientUnits="userSpaceOnUse" id="gradient0" spreadMethod="pad" x1="-819.2" x2="819.2">
      <stop offset="0.0" stop-color="#677995"/>
      <stop offset="1.0" stop-color="#000000"/>
    </linearGradient>
    <linearGradient gradientTransform="matrix(0.0223, 0.0, 0.0, -0.0223, -0.9, -1.1)" gradientUnits="userSpaceOnUse" id="gradient1" spreadMethod="pad" x1="-819.2" x2="819.2">
      <stop offset="0.0" stop-color="#d2ebff"/>
      <stop offset="0.17647058823529413" stop-color="#cde7f9"/>
      <stop offset="0.40784313725490196" stop-color="#bcdae9"/>
      <stop offset="0.6666666666666666" stop-color="#a1c5cf"/>
      <stop offset="0.9490196078431372" stop-color="#7ca8ab"/>
      <stop offset="1.0" stop-color="#75a2a4"/>
    </linearGradient>
    <linearGradient gradientTransform="matrix(-0.0198, 0.0234, 0.0234, 0.0198, -0.75, 3.1)" gradientUnits="userSpaceOnUse" id="gradient2" spreadMethod="pad" x1="-819.2" x2="819.2">
      <stop offset="0.0" stop-color="#5a6a81"/>
      <stop offset="0.1411764705882353" stop-color="#59677d"/>
      <stop offset="0.2901960784313726" stop-color="#575d70"/>
      <stop offset="0.4392156862745098" stop-color="#534c5b"/>
      <stop offset="0.592156862745098" stop-color="#4d353e"/>
      <stop offset="0.7411764705882353" stop-color="#461819"/>
      <stop offset="0.7803921568627451" stop-color="#44100f"/>
      <stop offset="1.0" stop-color="#000000"/>
    </linearGradient>
    <linearGradient gradientTransform="matrix(-0.0026, 0.0031, 0.0031, 0.0026, 8.05, -5.05)" gradientUnits="userSpaceOnUse" id="gradient3" spreadMethod="pad" x1="-819.2" x2="819.2">
      <stop offset="0.0" stop-color="#d2ebff"/>
      <stop offset="0.17647058823529413" stop-color="#cde7f9"/>
      <stop offset="0.40784313725490196" stop-color="#bcdae9"/>
      <stop offset="0.6666666666666666" stop-color="#a1c5cf"/>
      <stop offset="0.9490196078431372" stop-color="#7ca8ab"/>
      <stop offset="1.0" stop-color="#75a2a4"/>
    </linearGradient>
    <linearGradient gradientTransform="matrix(-0.0032, 0.0042, 0.0042, 0.0032, 12.95, -9.45)" gradientUnits="userSpaceOnUse" id="gradient4" spreadMethod="pad" x1="-819.2" x2="819.2">
      <stop offset="0.0" stop-color="#d2ebff"/>
      <stop offset="0.17647058823529413" stop-color="#cde7f9"/>
      <stop offset="0.40784313725490196" stop-color="#bcdae9"/>
      <stop offset="0.6666666666666666" stop-color="#a1c5cf"/>
      <stop offset="0.9490196078431372" stop-color="#7ca8ab"/>
      <stop offset="1.0" stop-color="#75a2a4"/>
    </linearGradient>
  </defs>
</svg>
