<?xml version="1.0" encoding="UTF-8" standalone="no"?>
<svg xmlns:xlink="http://www.w3.org/1999/xlink" height="26.5px" width="30.5px" xmlns="http://www.w3.org/2000/svg">
  <g transform="matrix(1.0, 0.0, 0.0, 1.0, 0.0, 0.0)">
    <path d="M28.05 1.85 L28.5 1.95 29.6 2.3 30.35 2.1 Q30.65 3.65 30.3 4.3 L30.2 4.45 Q30.1 5.6 29.25 5.2 L29.3 5.25 Q29.55 6.15 29.35 7.65 L29.1 10.0 29.25 11.0 Q29.85 13.25 28.8 15.95 L27.65 19.2 27.45 19.65 27.1 20.0 26.55 20.6 25.25 21.5 25.0 21.9 24.0 22.75 23.2 23.45 22.75 23.7 Q21.75 24.75 19.9 24.95 L19.0 25.25 18.9 26.5 17.45 25.45 14.25 25.5 12.45 25.3 10.05 24.35 8.6 23.2 8.45 23.15 8.1 22.9 7.6 22.55 7.1 22.05 6.75 21.85 6.5 21.6 4.3 19.35 Q3.5 17.7 3.0 16.0 L2.65 14.45 Q2.35 13.6 2.4 12.35 L2.55 10.1 2.55 7.3 0.25 7.9 0.0 6.4 Q0.1 5.6 0.65 5.0 L1.45 4.4 3.65 3.2 Q4.0 2.85 4.55 2.85 L5.5 3.1 Q6.2 3.25 6.05 3.9 L9.85 1.8 10.95 1.55 11.2 1.35 11.25 1.3 12.2 1.05 12.4 1.1 15.5 0.55 15.7 0.0 16.75 0.55 17.4 0.5 17.85 0.55 19.3 0.85 19.4 0.85 Q20.55 1.1 23.65 2.7 L25.75 4.4 25.45 3.05 25.65 2.15 Q26.3 1.4 27.05 0.8 L27.55 1.4 28.05 1.85" fill="#ffffff" fill-rule="evenodd" stroke="none"/>
    <path d="M20.75 5.3 L21.0 5.65 21.3 6.0 21.6 6.85 21.75 7.8 21.15 8.95 20.1 9.6 19.05 9.55 18.5 9.3 18.35 9.35 17.1 8.45 Q16.5 7.85 16.65 6.8 16.65 6.3 16.95 6.0 L17.6 5.35 Q18.15 4.85 18.4 4.8 L19.0 4.8 19.65 4.8 20.55 5.25 20.75 5.3" fill="#ffffff" fill-rule="evenodd" stroke="none"/>
    <path d="M10.65 6.45 Q10.8 6.4 11.55 6.7 L11.6 6.95 Q12.2 7.05 12.4 7.7 L12.25 8.85 11.95 9.1 Q12.1 8.6 11.75 7.2 L11.3 6.85 10.65 6.45" fill="#ffffff" fill-rule="evenodd" stroke="none"/>
    <path d="M11.25 8.95 L10.7 8.9 10.6 9.1 9.6 8.5 Q9.2 7.0 9.75 6.8 L10.15 6.8 Q10.85 6.9 11.25 7.6 11.65 8.3 11.25 8.95" fill="#ffffff" fill-rule="evenodd" stroke="none"/>
    <path d="M5.1 9.1 L5.7 9.8 5.5 10.1 5.7 10.0 5.85 9.9 6.45 10.4 Q6.5 11.75 6.0 14.15 4.75 12.1 5.1 9.1" fill="#ffffff" fill-rule="evenodd" stroke="none"/>
    <path d="M25.95 10.55 Q26.85 12.1 25.6 14.3 L25.35 13.0 25.15 11.65 25.5 11.25 25.9 10.85 25.95 10.55" fill="#ffffff" fill-rule="evenodd" stroke="none"/>
    <path d="M7.05 11.05 L8.1 11.8 Q7.75 13.35 7.5 16.4 L7.15 16.15 6.8 15.6 6.45 15.05 7.05 11.05" fill="#ffffff" fill-rule="evenodd" stroke="none"/>
    <path d="M12.85 7.25 Q12.35 6.15 11.0 5.95 9.6 5.7 9.05 6.9 7.8 9.55 11.0 9.8 12.2 9.85 12.8 9.25 13.5 8.5 12.85 7.25 M23.75 19.0 Q26.8 16.35 27.25 13.45 27.55 17.7 23.05 21.15 18.75 24.4 14.65 23.9 10.3 23.35 7.3 20.0 4.25 16.55 4.3 12.1 6.35 16.55 9.7 19.05 13.35 21.8 17.85 21.7 20.75 21.65 23.75 19.0 M21.55 9.7 Q22.55 8.95 22.25 7.6 21.9 5.85 21.5 5.4 21.2 5.05 19.6 4.4 18.55 3.95 17.5 4.7 16.55 5.4 16.3 6.6 15.7 9.95 19.25 10.25 20.65 10.35 21.55 9.7 M25.5 7.25 Q27.15 9.75 23.25 12.2 19.8 14.3 17.1 14.2 14.5 14.15 11.25 13.1 7.45 11.8 6.25 9.9 3.7 7.55 8.35 4.7 12.65 2.1 15.45 2.35 19.5 2.6 21.1 3.25 23.45 4.2 25.5 7.25" fill="#4076b8" fill-rule="evenodd" stroke="none"/>
    <path d="M8.6 12.15 L10.05 12.95 Q9.75 14.4 9.4 18.4 L8.05 17.15 Q8.25 13.65 8.6 12.15" fill="#ffffff" fill-rule="evenodd" stroke="none"/>
    <path d="M24.55 12.15 L25.1 15.5 22.95 18.25 22.75 15.85 22.45 13.4 22.85 13.3 23.25 13.2 24.55 12.15" fill="#ffffff" fill-rule="evenodd" stroke="none"/>
    <path d="M10.6 13.3 L13.45 14.25 13.5 16.55 13.55 18.4 13.45 20.2 Q12.1 19.95 11.55 19.55 L10.0 18.95 10.6 13.3" fill="#ffffff" fill-rule="evenodd" stroke="none"/>
    <path d="M21.85 13.8 Q22.4 16.9 22.4 18.85 L21.1 20.15 20.65 20.3 20.35 20.4 20.05 20.65 19.25 20.7 Q19.05 19.45 19.1 17.7 L19.05 14.55 21.8 13.75 21.85 13.8" fill="#ffffff" fill-rule="evenodd" stroke="none"/>
    <path d="M14.05 14.45 L17.0 14.75 17.65 14.65 18.5 14.65 18.5 17.7 18.7 20.7 18.5 20.9 14.0 20.35 14.05 14.45" fill="#ffffff" fill-rule="evenodd" stroke="none"/>
    <path d="M12.65 8.75 L12.8 9.35 Q12.7 10.4 10.6 10.4 L9.2 10.25 Q7.55 9.8 7.55 8.5 7.55 7.2 9.0 5.75 L9.4 6.05 Q9.15 6.65 9.15 7.2 9.15 8.1 9.65 8.7 10.15 9.35 11.05 9.4 L11.1 9.4 Q11.5 9.45 12.4 8.85 L12.65 8.75 M22.65 7.9 L23.15 7.9 Q23.15 9.4 22.3 10.35 21.4 11.35 19.95 11.35 L19.8 11.35 Q18.5 11.3 17.65 10.75 L16.2 9.5 16.0 9.5 15.9 9.4 15.85 9.3 15.5 8.9 15.55 8.85 15.3 8.3 Q15.15 7.95 15.15 7.15 L15.3 5.2 15.45 4.45 15.75 5.15 16.9 8.0 Q17.65 9.35 19.05 9.45 L19.5 9.5 21.6 9.15 Q22.65 8.7 22.65 7.9" fill="#76ba9d" fill-rule="evenodd" stroke="none"/>
    <path d="M15.8 2.3 L15.3 2.5 14.8 2.6 Q15.2 2.25 15.8 2.3 17.65 1.75 21.05 3.2 24.95 4.85 25.8 6.8 L26.55 8.7 Q26.85 9.8 26.2 10.5 25.65 11.15 24.0 12.05 22.2 13.05 21.4 13.0 22.85 11.65 22.85 9.65 22.8 7.75 21.55 6.05 20.6 4.8 18.45 3.4 16.8 2.35 15.8 2.3" fill="#4d5095" fill-rule="evenodd" stroke="none"/>
    <path d="M26.35 17.9 L23.2 21.1 Q21.1 23.1 18.4 23.65 15.6 24.3 13.1 23.1 L16.05 22.3 19.35 21.25 18.6 20.85 Q20.55 21.2 23.8 17.35 27.05 13.6 27.65 13.8 28.25 15.5 26.35 17.9" fill="#4d5095" fill-rule="evenodd" stroke="none"/>
    <path d="M21.75 19.55 L21.2 14.2 20.3 14.35 21.05 13.95 22.15 13.45 Q22.45 13.9 22.55 15.1 L22.65 16.85 22.75 18.6 Q22.6 19.85 21.75 19.55" fill="#3e7d88" fill-rule="evenodd" stroke="none"/>
    <path d="M23.95 12.5 L23.7 12.75 23.6 12.45 23.95 12.5 24.15 12.15 Q24.4 11.8 24.7 11.95 25.1 12.1 25.1 12.9 L25.5 14.25 25.55 15.55 Q24.55 17.05 24.35 14.65 L23.95 12.5" fill="#3e7d88" fill-rule="evenodd" stroke="none"/>
    <path d="M24.6 11.1 L24.85 11.05 25.65 10.25 Q26.0 10.0 26.3 10.4 L26.55 11.1 Q26.7 12.35 26.45 13.3 26.3 14.0 26.0 13.85 25.65 13.7 25.75 13.05 25.85 12.35 25.6 11.8 25.3 11.1 24.6 11.1" fill="#3e7d88" fill-rule="evenodd" stroke="none"/>
    <path d="M18.55 14.55 Q18.45 15.65 18.8 17.85 19.15 20.05 19.0 21.1 L18.2 21.0 17.4 20.85 Q17.2 19.6 17.55 16.55 L17.45 14.7 18.0 14.65 18.55 14.55" fill="#3e7d88" fill-rule="evenodd" stroke="none"/>
    <path d="M11.25 13.3 L11.1 13.3 Q10.7 15.25 10.35 19.3 9.7 19.05 9.85 17.75 L10.05 15.85 9.95 13.7 Q10.0 13.4 10.45 13.25 L11.05 13.3 11.25 13.3" fill="#3e7d88" fill-rule="evenodd" stroke="none"/>
    <path d="M13.1 13.95 L13.5 13.95 Q14.3 14.1 14.5 15.6 L14.55 17.65 14.7 19.45 Q14.7 20.75 14.05 20.75 13.05 20.8 12.9 19.75 L12.9 17.85 12.85 16.7 Q12.8 15.95 12.9 15.55 L13.1 13.95" fill="#3e7d88" fill-rule="evenodd" stroke="none"/>
    <path d="M8.95 12.05 L9.6 12.55 9.25 12.55 8.95 13.65 8.85 14.85 8.75 16.35 8.5 17.75 Q7.5 18.2 8.1 14.05 L8.3 11.95 8.95 12.05" fill="#3e7d88" fill-rule="evenodd" stroke="none"/>
    <path d="M7.5 10.85 Q6.9 11.3 6.85 13.05 6.85 15.05 6.65 15.45 L6.5 15.1 6.25 14.75 6.25 14.1 6.45 13.4 6.8 10.9 7.25 10.95 7.5 10.85" fill="#3e7d88" fill-rule="evenodd" stroke="none"/>
    <path d="M4.5 9.95 L4.7 8.65 5.5 9.35 5.95 9.8 5.6 11.5 5.25 13.05 Q5.25 12.2 4.75 11.25 4.45 10.65 4.5 9.95" fill="#3e7d88" fill-rule="evenodd" stroke="none"/>
    <path d="M10.3 6.3 L11.15 6.35 12.4 7.15 Q12.85 7.9 12.6 8.7 12.3 9.55 11.35 9.3 11.7 8.65 11.25 7.3 10.9 6.3 10.3 6.3 10.1 6.4 10.05 6.75 L9.85 6.45 Q10.1 6.3 10.3 6.3" fill="#3e7d88" fill-rule="evenodd" stroke="none"/>
    <path d="M18.5 17.7 L18.5 14.65 14.05 14.45 14.0 20.35 18.7 20.7 18.5 17.7 M10.0 16.2 Q9.65 18.4 10.1 18.95 10.65 19.7 13.45 20.2 13.7 16.25 13.45 14.25 L10.6 13.3 10.0 16.2 M7.5 16.4 L8.0 13.45 Q8.15 11.55 7.05 11.05 L6.6 14.0 Q6.45 16.6 7.5 16.4 M8.05 15.55 Q8.05 17.45 9.4 18.4 9.7 14.7 10.05 12.95 L8.6 12.15 Q8.05 14.75 8.05 15.55 M5.5 10.1 Q5.65 9.5 5.1 9.1 4.8 12.0 6.0 14.15 L6.45 11.7 Q6.6 10.15 5.5 10.1 M19.65 7.7 L18.5 7.45 Q18.2 7.05 18.4 6.35 L19.8 6.4 20.25 7.05 Q20.3 7.5 19.65 7.7 M10.85 8.9 Q11.8 8.8 11.2 7.65 10.65 6.45 9.75 6.8 8.85 7.15 9.55 8.1 10.25 8.95 10.85 8.9 M11.55 6.7 L10.65 6.45 Q11.45 6.7 11.85 7.5 12.2 8.3 11.95 9.1 12.75 8.45 12.35 7.8 L11.55 6.7 M12.85 6.95 Q14.1 8.45 12.1 9.8 9.6 10.1 9.2 9.0 L9.0 8.95 Q8.6 7.85 8.75 7.15 L9.6 5.65 Q11.65 5.5 12.85 6.95 M20.9 19.85 Q22.0 19.05 22.4 18.85 L21.85 13.8 19.05 14.55 19.1 17.65 Q19.1 19.6 19.25 20.7 20.1 20.45 20.9 19.85 M23.3 12.9 Q22.45 13.35 22.5 13.75 L22.75 16.0 22.95 18.25 25.1 15.5 24.55 12.15 23.3 12.9 M27.05 14.7 L27.2 13.55 Q26.75 16.6 23.6 19.25 20.45 21.9 17.45 21.8 12.7 21.7 9.3 19.35 5.75 16.9 4.45 12.45 4.45 13.35 4.75 14.55 L5.3 16.7 5.85 17.65 6.4 18.6 7.1 19.3 7.75 20.1 9.2 21.1 10.7 22.25 12.65 22.8 14.55 23.2 Q18.1 24.05 22.0 21.8 26.0 19.5 26.75 15.85 L27.05 14.7 M25.3 10.3 Q26.95 8.45 24.45 6.05 22.6 4.25 20.1 3.3 18.7 2.75 16.85 2.75 L13.65 3.0 Q9.65 3.55 9.2 4.75 7.35 5.8 6.45 6.9 5.05 8.55 6.5 9.75 9.95 12.55 12.5 13.25 L19.35 13.5 Q23.1 12.8 25.3 10.3 M21.5 5.2 Q23.35 7.1 21.9 9.35 20.4 11.55 18.0 10.05 14.75 7.85 16.8 5.15 18.95 2.5 21.5 5.2 M25.95 10.55 L25.7 11.2 25.15 11.65 25.3 13.0 25.6 14.3 Q26.9 12.15 25.95 10.55 M23.3 10.25 L21.8 11.65 Q20.8 12.45 18.95 12.05 L17.85 11.55 16.8 11.15 16.15 10.5 Q15.8 10.1 15.9 9.6 16.05 9.55 17.55 10.85 L19.1 11.45 Q19.95 11.7 20.75 11.45 L21.5 11.1 22.2 10.65 22.8 9.7 23.3 8.75 Q24.3 9.05 23.3 10.25 M20.3 9.5 Q22.05 9.05 21.65 7.1 21.25 5.15 19.65 4.8 L17.75 5.3 Q16.75 5.7 16.65 6.8 16.5 8.15 17.8 9.0 19.0 9.85 20.3 9.5 M29.2 3.8 Q29.25 4.25 28.75 4.3 L27.95 4.35 28.15 6.95 27.95 8.75 27.85 10.55 28.1 11.9 28.15 13.25 Q27.9 15.95 26.4 18.8 L24.75 20.5 Q23.45 21.45 23.05 22.1 22.2 23.35 19.85 23.85 L16.15 24.25 Q13.7 24.4 11.6 23.45 L7.7 20.95 Q6.15 20.6 5.05 17.9 4.6 16.65 3.9 13.8 3.6 12.65 3.9 10.1 4.15 7.7 3.7 6.35 L1.45 6.7 Q1.4 6.1 3.05 5.05 4.65 4.05 5.2 4.3 L4.95 5.6 Q4.7 6.35 5.0 6.9 L6.05 5.9 Q7.25 4.8 8.55 4.1 12.1 2.2 15.55 2.0 18.85 1.8 21.8 3.3 24.7 4.85 26.45 7.65 26.9 6.4 26.8 5.0 L26.55 4.0 Q26.35 3.35 26.55 2.95 L29.2 3.8" fill="#1f2259" fill-rule="evenodd" stroke="none"/>
  </g>
</svg>
