<?xml version="1.0" encoding="UTF-8" standalone="no"?>
<svg xmlns:xlink="http://www.w3.org/1999/xlink" height="23.8px" width="28.8px" xmlns="http://www.w3.org/2000/svg">
  <g transform="matrix(1.0, 0.0, 0.0, 1.0, 0.0, 0.0)">
    <path d="M21.2 2.65 L23.8 4.3 Q24.95 5.1 25.85 6.4 26.75 7.7 27.05 9.05 27.4 10.25 27.3 12.4 L27.25 13.1 27.75 13.15 27.95 13.5 28.05 13.4 Q28.35 13.1 28.55 13.65 L28.7 14.45 28.8 15.5 28.55 16.1 28.3 16.65 Q28.25 17.2 27.65 17.25 L26.6 17.1 27.0 17.65 28.05 18.8 Q28.5 19.3 28.45 19.95 28.35 20.55 27.85 21.0 27.35 21.45 26.6 21.5 L25.25 21.4 23.5 21.1 23.1 21.75 22.8 22.5 Q22.4 21.75 20.95 22.25 L19.0 23.15 Q18.0 23.65 16.0 23.75 L14.8 23.8 13.65 23.65 12.95 23.65 11.7 23.35 10.45 23.2 9.3 22.95 8.3 22.4 7.05 21.65 5.9 20.85 5.1 20.8 4.2 21.05 3.15 21.25 2.95 22.2 Q2.55 21.5 1.7 21.5 L0.15 21.7 0.75 20.3 0.95 19.1 1.45 18.05 1.1 17.65 Q0.7 17.35 0.5 16.6 0.35 14.8 0.0 13.9 L1.55 13.55 2.75 13.55 Q3.05 13.5 3.1 12.85 L3.05 12.0 Q3.0 9.75 5.6 6.1 L5.95 5.65 Q6.1 5.4 5.85 5.25 5.5 5.05 5.85 4.55 6.6 3.4 8.05 2.65 L11.1 1.1 11.7 0.7 12.4 0.6 14.1 0.0 Q14.6 -0.1 14.8 0.55 15.0 1.25 15.3 1.3 L17.95 1.55 21.2 2.65" fill="#ffffff" fill-rule="evenodd" stroke="none"/>
    <path d="M25.4 12.15 L25.5 14.05 Q25.45 15.15 24.85 15.4 L25.0 15.35 Q24.7 16.55 23.8 17.25 23.9 19.55 20.0 21.1 16.75 22.4 14.05 22.3 12.45 22.25 8.6 20.7 7.45 20.25 6.45 18.95 5.35 17.5 5.45 16.3 L5.45 16.0 5.25 16.0 4.6 14.55 Q4.25 13.8 4.45 13.5 4.2 12.8 5.2 10.2 6.1 7.9 6.5 7.4 9.85 3.15 12.7 3.3 12.4 2.45 15.15 2.9 L18.6 3.6 Q20.25 3.75 22.1 4.85 24.0 5.95 24.75 7.9 25.35 9.45 25.4 12.15" fill="#8dc8c3" fill-rule="evenodd" stroke="none"/>
    <path d="M4.35 17.4 L5.05 18.75 3.45 19.25 Q3.3 18.25 4.35 17.4" fill="#7bb34d" fill-rule="evenodd" stroke="none"/>
    <path d="M26.1 19.6 L24.2 19.3 Q24.65 18.35 25.2 18.5 25.7 18.6 26.1 19.6" fill="#7bb34d" fill-rule="evenodd" stroke="none"/>
    <path d="M25.3 8.25 Q26.35 10.3 25.85 13.35 25.4 16.05 24.05 18.2 22.75 20.2 20.0 21.25 17.55 22.2 14.9 22.05 15.55 21.65 16.9 21.35 L18.95 20.7 Q21.4 19.45 22.5 17.4 23.45 15.7 23.4 13.25 23.35 10.95 22.5 9.05 21.1 5.85 17.05 5.0 L9.8 4.55 9.05 4.95 Q11.6 1.45 17.65 3.05 23.3 4.55 25.3 8.25" fill="#d6ebe8" fill-rule="evenodd" stroke="none"/>
    <path d="M16.25 11.25 L16.3 11.7 Q17.8 13.8 19.65 13.6 20.8 13.5 20.85 12.6 L20.85 10.75 Q22.7 10.7 21.8 13.0 20.95 15.2 19.25 15.05 L16.8 14.4 Q15.55 13.55 16.25 11.25" fill="#d6ebe8" fill-rule="evenodd" stroke="none"/>
    <path d="M5.75 11.85 L6.4 11.0 6.8 11.7 Q6.4 12.55 8.6 13.8 L10.8 15.25 Q10.55 15.95 9.25 15.6 L7.6 14.85 Q5.95 14.0 5.75 11.85" fill="#d6ebe8" fill-rule="evenodd" stroke="none"/>
    <path d="M21.45 14.8 Q23.3 14.7 24.15 15.15 L19.9 15.75 14.95 16.45 12.15 16.85 9.35 17.1 7.3 16.7 5.25 16.35 5.5 16.25 Q4.9 15.15 8.65 15.35 L13.85 15.35 18.7 15.0 21.45 14.8" fill="#564685" fill-rule="evenodd" stroke="none"/>
    <path d="M21.65 8.7 L20.4 8.65 18.3 8.65 16.15 8.7 Q15.5 8.7 15.4 8.25 L15.4 7.2 17.2 7.0 22.0 6.65 Q22.6 7.05 22.6 8.4 L21.65 8.7" fill="#30275f" fill-rule="evenodd" stroke="none"/>
    <path d="M14.95 2.55 L14.95 2.85 14.65 3.1 Q13.5 3.5 12.05 4.45 L9.7 6.0 8.6 6.8 Q8.05 7.05 7.65 6.4 L7.05 5.05 Q6.95 4.55 7.95 4.0 11.55 1.9 13.85 1.3 14.0 1.95 14.45 2.6 L14.85 2.65 14.95 2.55" fill="#30275f" fill-rule="evenodd" stroke="none"/>
    <path d="M3.45 19.25 L5.05 18.75 4.35 17.4 Q3.3 18.25 3.45 19.25 M25.25 14.55 Q26.1 8.55 21.8 5.15 20.95 4.45 19.6 4.2 L17.1 3.85 14.3 3.4 13.4 3.65 12.45 3.85 12.65 3.7 12.3 3.75 12.25 3.8 Q11.2 4.0 9.9 4.8 8.6 5.55 7.85 6.4 L8.55 5.95 7.85 6.85 7.85 6.45 Q6.75 7.4 5.35 10.1 5.0 10.75 4.9 12.1 4.8 13.4 5.0 14.15 5.2 15.0 5.75 15.05 L7.05 15.0 12.35 14.7 12.2 14.85 18.75 14.45 Q22.75 14.2 25.25 14.55 M26.1 19.6 Q25.7 18.6 25.2 18.5 24.65 18.35 24.2 19.3 L26.1 19.6 M24.0 17.65 Q23.75 17.5 23.8 17.25 24.7 16.55 25.0 15.35 L22.95 15.6 20.9 15.55 17.9 15.5 14.9 15.6 10.15 15.9 5.45 16.15 Q5.25 17.35 6.4 18.85 7.45 20.25 8.6 20.7 9.5 21.1 10.85 21.35 L13.15 21.75 Q16.1 22.25 19.25 21.15 22.6 20.0 24.0 17.65 M21.6 4.1 L23.8 5.6 25.1 7.35 Q25.95 8.4 26.05 9.3 26.35 12.05 26.1 14.3 26.85 14.1 27.6 14.3 27.85 15.3 27.25 16.0 26.6 16.7 26.65 15.4 26.15 15.35 25.8 15.95 25.45 16.5 25.55 17.05 25.15 16.85 25.55 17.5 L25.85 18.1 26.95 19.2 Q27.65 19.85 27.25 20.25 L26.05 20.5 24.15 20.15 Q22.9 20.0 22.55 20.75 L20.85 21.5 16.5 22.7 11.3 22.4 Q9.3 21.8 6.7 20.25 5.95 19.8 5.1 19.9 L3.35 20.3 2.25 20.35 Q1.65 19.85 2.45 18.4 L3.75 16.25 2.75 16.35 Q2.25 16.65 2.1 17.15 1.5 17.0 1.45 16.2 L1.35 14.9 2.05 14.6 Q2.5 14.45 2.55 15.05 3.8 14.95 3.95 14.6 L4.0 12.9 Q4.15 11.3 4.9 9.5 6.15 6.4 8.55 4.6 11.0 2.75 14.25 2.6 L19.25 3.05 Q20.35 3.3 21.6 4.1" fill="#30275f" fill-rule="evenodd" stroke="none"/>
    <path d="M13.55 9.7 L13.95 10.75 10.95 9.65 7.8 9.35 Q8.2 8.65 9.1 8.2 9.95 7.8 10.7 7.85 11.15 7.9 12.35 8.85 L13.55 9.7" fill="#564685" fill-rule="evenodd" stroke="none"/>
    <path d="M10.15 10.75 L10.9 10.8 11.45 10.85 11.4 11.35 11.0 11.7 Q10.65 11.75 10.15 10.75" fill="#ffffff" fill-rule="evenodd" stroke="none"/>
    <path d="M11.15 10.45 L11.35 9.9 Q11.85 10.5 11.8 11.2 11.75 12.05 10.9 12.1 L10.85 12.1 Q10.25 11.95 10.2 11.35 L9.55 10.55 10.4 10.35 11.15 10.45 M10.9 11.35 Q11.35 11.2 11.15 11.0 L10.85 11.1 10.9 11.2 10.9 11.35" fill="#ffffff" fill-rule="evenodd" stroke="none"/>
    <path d="M13.8 11.95 Q13.75 13.5 12.1 13.95 L9.3 13.7 Q9.0 13.6 7.8 12.55 6.9 11.65 6.85 11.15 6.8 10.55 8.1 10.7 8.35 12.4 10.25 12.75 12.2 13.05 12.4 11.05 12.7 11.15 13.15 11.55 L13.8 11.95" fill="#ffffff" fill-rule="evenodd" stroke="none"/>
    <path d="M12.35 9.9 Q12.85 10.4 13.95 10.75 13.5 9.1 11.25 8.4 8.85 7.65 7.8 9.35 L12.35 9.9 M12.7 7.95 Q14.65 9.0 14.75 10.65 14.85 12.4 14.0 13.55 13.15 14.7 11.4 14.9 9.65 15.05 7.95 14.0 6.1 12.85 6.2 11.0 5.9 11.0 5.1 11.3 L3.95 11.5 Q4.15 10.8 5.0 10.15 L6.25 9.25 Q7.45 7.55 9.3 7.2 10.9 6.9 12.7 7.95 M13.8 11.95 L13.2 11.65 12.5 11.3 Q12.4 12.4 11.65 12.7 L9.85 12.85 Q9.05 12.75 8.45 11.65 7.9 10.7 7.1 10.85 6.95 11.6 7.75 12.55 L9.3 13.7 12.25 13.9 Q13.75 13.45 13.8 11.95 M11.45 10.85 L10.9 10.8 10.15 10.75 Q10.65 11.75 11.0 11.7 L11.4 11.35 11.45 10.85" fill="#30275f" fill-rule="evenodd" stroke="none"/>
    <path d="M20.1 10.5 L20.25 10.75 20.65 10.85 Q21.3 10.95 20.85 11.95 20.35 12.85 19.55 12.8 19.05 12.75 18.3 12.15 17.5 11.4 17.85 10.9 18.25 10.3 18.95 10.35 L20.1 10.5" fill="#ffffff" fill-rule="evenodd" stroke="none"/>
    <path d="M21.05 10.1 L21.8 11.8 Q22.0 12.85 21.1 13.45 20.25 14.05 19.0 13.7 17.85 13.35 17.35 12.45 16.35 10.85 18.0 9.9 19.65 9.0 21.05 10.1" fill="#ffffff" fill-rule="evenodd" stroke="none"/>
    <path d="M21.05 11.65 L20.9 11.3 Q20.7 10.5 20.6 10.75 L19.65 10.25 Q17.6 9.65 17.95 11.6 18.25 13.55 20.25 12.9 L20.8 12.4 Q21.15 12.2 21.05 11.65 M21.0 13.4 Q19.65 14.45 17.8 13.2 15.55 11.55 17.55 10.0 19.55 8.45 21.35 10.25 22.35 12.35 21.0 13.4" fill="#30275f" fill-rule="evenodd" stroke="none"/>
  </g>
</svg>
