<?xml version="1.0" encoding="UTF-8" standalone="no"?>
<svg xmlns:xlink="http://www.w3.org/1999/xlink" height="413.2px" width="520.0px" xmlns="http://www.w3.org/2000/svg">
  <g transform="matrix(1.0, 0.0, 0.0, 1.0, 0.0, 0.0)">
    <path d="M0.0 103.25 L0.0 17.2 Q0.0 10.05 5.55 5.05 11.15 0.0 19.0 0.0 L129.95 0.0 390.05 0.0 500.95 0.0 Q508.85 0.0 514.4 5.05 520.0 10.05 520.0 17.2 L520.0 103.25 520.0 309.95 520.0 395.95 Q520.0 403.15 514.4 408.15 508.85 413.2 500.95 413.2 L390.05 413.2 129.95 413.2 19.0 413.2 Q11.15 413.2 5.55 408.15 0.0 403.15 0.0 395.95 L0.0 309.95 0.0 103.25" fill="#ffffff" fill-rule="evenodd" stroke="none"/>
  </g>
</svg>
