<?xml version="1.0" encoding="UTF-8" standalone="no"?>
<svg xmlns:xlink="http://www.w3.org/1999/xlink" height="31.15px" width="30.7px" xmlns="http://www.w3.org/2000/svg">
  <g transform="matrix(1.0, 0.0, 0.0, 1.0, 0.0, 0.0)">
    <path d="M29.65 2.65 L29.65 30.0 2.3 30.0 2.3 2.65 29.65 2.65" fill="#ffffff" fill-opacity="0.0" fill-rule="evenodd" stroke="none"/>
    <path d="M24.8 2.05 L25.4 1.5 26.45 0.55 Q26.7 0.35 27.3 0.2 L27.7 0.05 28.05 0.0 29.55 1.15 Q30.35 2.1 30.25 3.65 L30.2 4.25 29.2 6.0 28.25 7.2 27.8 7.75 24.1 11.65 23.3 12.65 22.25 13.7 21.5 14.6 21.05 14.85 21.15 14.6 20.25 15.5 20.05 15.75 21.1 16.9 20.65 16.55 20.85 16.85 21.3 17.3 21.3 17.2 22.55 18.4 22.3 18.25 22.4 18.5 Q23.2 19.4 22.5 18.7 L23.4 20.1 23.5 20.2 23.45 20.1 24.5 21.05 24.35 20.8 24.3 20.75 23.1 19.5 23.65 20.0 23.05 19.3 23.6 19.8 23.3 19.45 24.0 20.1 24.1 20.3 23.9 20.2 24.6 20.95 24.35 20.8 26.25 22.8 Q26.55 23.1 26.15 22.75 L27.1 23.75 27.2 23.9 27.1 23.85 27.25 24.0 27.35 24.2 26.8 23.65 27.7 24.7 28.6 25.7 28.3 25.55 29.05 26.3 29.5 26.85 29.0 26.4 28.65 26.0 28.65 26.1 27.95 25.4 27.5 24.65 27.35 24.6 27.65 25.05 26.05 23.55 27.9 25.5 26.9 24.6 28.2 26.1 27.9 25.85 27.95 25.95 28.8 26.8 29.0 27.05 28.75 26.8 28.0 26.1 28.05 26.35 28.65 27.0 28.9 27.35 29.8 28.25 29.7 28.3 29.8 28.45 29.05 27.85 29.25 28.1 28.9 27.9 29.7 28.8 29.55 28.75 30.35 29.65 29.5 28.85 29.7 29.2 29.75 29.3 29.6 29.25 30.05 29.95 29.35 29.35 29.6 29.75 29.0 29.1 29.25 29.25 28.3 28.35 28.15 28.45 28.65 29.0 28.1 28.55 28.05 28.6 29.2 29.9 28.05 28.75 28.05 28.85 27.5 28.35 26.35 27.2 27.25 28.2 27.4 28.45 27.65 28.75 29.6 30.7 Q29.7 30.9 28.3 29.55 L28.6 29.95 27.85 29.15 27.7 29.3 Q28.2 29.8 28.25 29.7 L28.6 30.1 28.45 30.0 28.6 30.2 27.65 29.3 27.5 29.3 27.85 29.8 27.3 29.25 27.05 29.2 27.45 29.6 27.7 30.05 26.65 29.05 26.6 29.0 26.1 28.8 26.4 29.2 26.7 29.55 26.95 29.9 27.0 30.1 26.5 29.4 26.35 29.25 25.75 28.65 25.65 28.6 26.2 29.25 25.0 28.15 23.8 26.7 22.65 25.15 22.25 24.9 22.75 25.5 Q22.4 25.2 22.9 25.8 L23.6 26.65 21.6 24.75 19.45 22.65 19.7 22.95 19.2 22.5 21.0 24.3 22.55 25.95 20.8 24.35 19.65 23.3 21.9 25.65 23.85 27.75 19.95 23.8 19.6 23.55 Q17.45 21.5 18.6 22.75 L20.25 24.65 17.6 22.05 Q17.3 21.75 17.55 21.8 17.85 21.85 17.25 21.25 L16.7 20.8 16.8 20.95 15.7 19.85 14.35 21.1 Q16.45 18.85 14.45 20.85 L13.95 21.25 14.1 21.25 12.9 22.5 13.05 22.25 12.9 22.3 12.75 22.35 12.35 22.7 12.6 22.45 11.2 23.35 11.1 23.45 11.2 23.4 10.25 24.5 11.75 23.1 11.3 23.65 12.0 23.0 11.5 23.55 11.85 23.25 11.2 23.95 10.95 24.05 11.1 23.85 10.45 24.45 10.55 24.25 8.4 26.35 8.55 26.1 7.55 27.05 7.4 27.15 7.25 27.2 7.1 27.35 7.65 26.75 6.65 27.7 6.6 27.7 5.6 28.6 5.75 28.3 5.0 29.0 4.75 29.25 4.45 29.5 4.75 29.2 5.3 28.6 5.2 28.65 5.9 27.9 6.6 27.45 6.7 27.35 Q6.75 27.25 6.5 27.45 L6.25 27.65 7.55 26.25 5.8 27.85 6.7 26.85 5.2 28.15 5.45 27.85 5.35 27.9 4.3 28.9 4.2 28.95 4.25 28.9 5.2 27.95 4.95 28.0 4.05 28.75 3.05 29.75 Q3.05 29.6 2.85 29.75 L3.45 29.05 3.15 29.2 3.4 28.85 2.5 29.7 2.5 29.6 2.55 29.5 1.65 30.3 2.4 29.45 1.9 29.85 1.95 29.7 2.0 29.6 1.35 30.05 1.95 29.3 1.55 29.55 2.15 29.0 2.05 29.2 2.95 28.25 2.8 28.1 2.3 28.65 2.75 28.05 2.7 28.05 1.4 29.2 2.55 28.05 2.45 28.0 2.85 27.6 3.85 26.6 3.1 27.2 2.75 27.45 2.55 27.6 1.5 28.75 0.6 29.55 1.75 28.3 1.7 28.3 2.15 27.85 2.0 27.65 Q1.45 28.05 1.6 28.2 L1.2 28.55 1.25 28.45 1.1 28.55 1.95 27.6 1.95 27.45 1.5 27.85 Q1.1 28.15 2.0 27.25 L2.1 27.0 1.7 27.4 1.2 27.65 2.2 26.65 2.25 26.6 2.5 26.1 2.1 26.4 1.7 26.65 1.4 26.9 1.2 26.95 1.9 26.5 2.05 26.35 2.65 25.7 2.7 25.6 2.05 26.15 Q2.05 25.75 3.15 25.0 L4.6 23.75 6.1 22.65 6.25 22.45 6.35 22.2 5.75 22.7 Q6.35 22.0 4.65 23.6 L8.4 19.65 8.55 19.45 8.75 19.15 5.3 22.5 6.85 20.9 6.45 21.2 7.4 20.2 5.65 21.85 3.55 23.8 8.6 18.9 Q8.35 19.2 8.55 19.1 L9.85 17.9 9.65 18.0 9.3 18.25 Q10.7 16.8 9.65 17.85 L7.75 19.55 Q9.8 17.4 8.55 18.55 L6.65 20.2 9.2 17.55 Q9.55 17.25 9.5 17.55 L10.05 17.2 Q11.1 16.15 10.35 16.75 L11.45 15.6 11.25 15.4 9.5 13.9 Q7.65 11.7 6.65 11.25 L5.35 9.6 2.95 7.45 1.8 6.2 0.6 4.85 0.25 4.0 0.05 3.25 Q0.3 2.45 1.2 1.75 2.05 0.95 3.7 1.05 L4.3 1.1 Q5.05 1.45 6.05 2.15 L7.25 3.0 7.75 3.5 9.35 4.9 9.9 5.4 11.65 7.2 12.7 7.95 13.75 9.05 14.2 9.3 14.65 9.8 14.9 10.25 14.65 10.1 15.5 11.05 15.8 11.3 15.9 11.2 17.4 9.5 Q19.6 7.6 20.05 6.65 L21.65 5.3 23.85 2.95 24.8 2.05 M3.3 24.5 L4.9 23.05 3.5 24.55 2.95 24.9 2.85 24.85 3.5 24.15 Q3.85 23.85 3.3 24.5 M19.9 16.1 L20.35 16.5 19.85 15.95 19.8 16.0 19.9 16.1 M16.3 19.9 L16.0 19.55 16.0 19.6 16.3 19.9 M16.1 19.5 L16.75 20.05 16.15 19.4 16.1 19.5 M2.5 27.1 L3.05 26.55 Q2.85 26.6 3.2 26.25 L2.7 26.65 3.3 25.95 3.2 25.9 2.7 26.3 2.55 26.5 2.7 26.45 2.4 26.95 2.35 27.05 2.45 27.1 2.4 27.15 2.5 27.1 M26.9 28.85 L27.0 28.9 27.1 28.9 27.1 28.85 27.2 28.9 27.05 28.75 26.6 28.25 26.45 28.25 26.7 28.55 Q26.55 28.7 26.0 28.0 L25.95 28.05 26.35 28.55 26.55 28.75 26.5 28.55 26.9 28.85 M29.05 28.8 Q28.85 28.35 28.25 27.95 L28.3 28.1 29.05 28.8 M23.05 26.65 L22.55 26.1 Q22.65 25.95 22.95 26.3 L23.05 26.65 M24.0 27.5 L24.1 27.85 23.55 27.25 Q23.7 27.1 24.0 27.5" fill="#9ec0c1" fill-rule="evenodd" stroke="none"/>
    <path d="M29.2 6.0 Q29.7 7.2 29.7 8.65 L29.7 23.3 Q29.7 24.95 29.05 26.3 M29.0 26.4 L28.8 26.8 M28.75 26.8 L28.65 27.0 M27.5 28.35 L27.4 28.45 M26.65 29.05 L26.4 29.2 M26.35 29.25 Q24.8 30.15 22.85 30.15 L8.2 30.15 Q6.3 30.15 4.75 29.25 M4.75 29.2 L4.3 28.9 M4.25 28.9 L4.05 28.75 M2.85 27.6 L2.75 27.45 M2.2 26.65 L2.1 26.4 M2.05 26.35 Q1.35 24.95 1.35 23.3 L1.35 8.65 Q1.35 7.3 1.8 6.2 M6.05 2.15 L8.2 1.8 22.85 1.8 24.8 2.05 M2.4 26.95 L2.5 27.1 M27.05 28.75 L26.9 28.85" fill="none" stroke="#9ec0c1" stroke-linecap="butt" stroke-linejoin="miter" stroke-width="2.0"/>
  </g>
</svg>
