<?xml version="1.0" encoding="UTF-8" standalone="no"?>
<svg xmlns:xlink="http://www.w3.org/1999/xlink" height="25.0px" width="23.75px" xmlns="http://www.w3.org/2000/svg">
  <g transform="matrix(1.0, 0.0, 0.0, 1.0, 11.85, 12.5)">
    <path d="M10.8 0.85 L10.65 2.15 9.8 3.35 5.75 7.5 Q1.3 11.55 -0.8 11.5 -1.5 11.45 -2.35 10.9 -3.9 9.9 -6.45 7.0 -10.0 3.1 -10.65 1.3 -11.15 0.0 -10.25 -0.9 -9.55 -1.55 -5.8 -1.5 L-6.75 -5.45 -7.4 -8.35 Q-7.5 -10.55 -4.95 -11.1 L-1.6 -11.45 1.8 -11.45 3.4 -11.35 Q4.9 -11.15 5.55 -10.65 6.1 -10.2 6.25 -8.75 6.4 -6.5 5.8 -1.1 L9.0 -0.65 Q10.55 -0.2 10.8 0.85" fill="#ffffff" fill-rule="evenodd" stroke="none"/>
    <path d="M7.15 -9.3 Q7.45 -7.2 6.9 -2.05 11.3 -1.7 11.8 0.65 12.05 1.6 11.55 2.6 L10.55 4.0 6.4 8.3 Q1.8 12.5 -0.7 12.5 L-0.85 12.5 Q-1.8 12.45 -2.95 11.7 -4.55 10.6 -7.2 7.7 -10.85 3.55 -11.6 1.65 -12.3 -0.25 -10.95 -1.6 -10.45 -2.05 -9.6 -2.25 L-7.05 -2.5 -7.7 -5.35 -8.4 -8.3 Q-8.5 -9.55 -7.75 -10.55 -6.9 -11.75 -5.15 -12.05 L0.5 -12.5 3.5 -12.35 Q5.25 -12.15 6.15 -11.45 6.95 -10.75 7.15 -9.3 M3.3 -10.4 L0.5 -10.5 -4.75 -10.1 Q-6.55 -9.75 -6.45 -8.4 L-5.85 -5.85 -4.8 -1.7 -4.6 -0.5 -6.65 -0.5 -9.6 -0.2 Q-10.0 0.25 -9.7 0.95 -9.15 2.5 -5.7 6.35 -2.05 10.45 -0.75 10.5 L-0.7 10.5 Q0.75 10.5 4.1 7.6 6.75 5.35 9.05 2.75 10.0 1.6 9.85 1.1 9.6 0.05 5.75 -0.1 L4.7 -0.15 4.8 -1.2 Q5.7 -9.3 4.95 -9.9 L3.3 -10.4" fill="#ffffff" fill-rule="evenodd" stroke="none"/>
    <path d="M3.2 -9.7 Q4.25 -9.6 4.5 -9.3 5.25 -8.7 4.65 -4.05 L3.9 0.55 6.5 0.6 Q9.1 0.8 9.2 1.2 9.35 1.9 5.1 5.85 0.75 9.85 -0.75 9.8 -1.85 9.8 -5.75 5.3 -9.6 0.8 -9.1 0.35 L-6.35 0.2 -3.8 0.25 Q-5.65 -7.1 -5.75 -8.45 -5.8 -9.2 -4.6 -9.45 L-0.65 -9.8 3.2 -9.7" fill="url(#gradient0)" fill-rule="evenodd" stroke="none"/>
    <path d="M-1.5 -3.5 L-0.6 2.65 Q-0.45 3.85 0.1 4.05 0.6 4.95 2.7 4.75 L6.15 4.5 4.1 6.4 1.75 8.15 Q0.1 9.65 -0.45 9.75 -0.9 9.9 -1.75 9.4 L-3.0 8.6 Q-4.95 7.4 -6.65 5.25 -8.3 3.05 -9.0 0.8 L-4.55 0.0 Q-4.45 -1.0 -4.8 -2.35 L-5.4 -4.7 -5.65 -6.5 -5.95 -8.25 Q-4.6 -9.3 -2.9 -9.55 -2.1 -7.0 -1.5 -3.5" fill="#ffffff" fill-opacity="0.29803923" fill-rule="evenodd" stroke="none"/>
    <path d="M5.4 -5.95 L4.65 -0.1 5.35 -0.1 Q9.6 0.05 9.85 1.1 9.95 1.6 9.0 2.75 L4.45 7.3 Q0.75 10.55 -0.75 10.45 -2.05 10.45 -5.7 6.3 -9.15 2.45 -9.7 0.95 -10.0 0.2 -9.55 -0.15 L-4.6 -0.45 -5.6 -4.75 -6.45 -8.4 Q-6.55 -9.75 -4.75 -10.1 L-1.5 -10.45 1.8 -10.45 3.3 -10.4 4.95 -9.85 Q5.65 -9.25 5.4 -5.95 M4.1 -8.8 L3.1 -9.0 1.75 -9.1 -1.5 -9.1 -4.45 -8.8 -5.1 -8.55 -5.1 -8.5 -4.25 -4.75 -3.1 0.15 -3.0 1.0 -4.2 0.9 -8.25 0.9 Q-7.3 2.55 -4.45 5.65 -1.5 8.95 -0.7 9.1 0.35 9.15 3.9 6.05 7.2 3.15 8.3 1.5 L5.25 1.25 3.15 1.25 3.25 0.5 4.05 -5.35 Q4.4 -8.35 4.1 -8.8" fill="#996a1b" fill-rule="evenodd" stroke="none"/>
  </g>
  <defs>
    <linearGradient gradientTransform="matrix(0.0014, -0.0191, -0.019, -0.0014, 0.7, -8.05)" gradientUnits="userSpaceOnUse" id="gradient0" spreadMethod="pad" x1="-819.2" x2="819.2">
      <stop offset="0.0" stop-color="#ffdf3b"/>
      <stop offset="1.0" stop-color="#75441c"/>
    </linearGradient>
  </defs>
</svg>
