<?xml version="1.0" encoding="UTF-8" standalone="no"?>
<svg xmlns:xlink="http://www.w3.org/1999/xlink" height="40.9px" width="59.2px" xmlns="http://www.w3.org/2000/svg">
  <g transform="matrix(1.0, 0.0, 0.0, 1.0, 28.35, 24.15)">
    <path d="M0.15 -18.85 Q-1.2 -21.65 -4.4 -21.65 -6.95 -21.7 -9.2 -20.1 -11.5 -18.5 -12.95 -15.65 L-14.55 -16.35 Q-13.95 -18.3 -14.8 -19.85 -15.95 -21.75 -18.45 -22.2 -21.35 -22.85 -23.65 -21.25 -25.85 -19.8 -26.4 -16.85 -26.9 -14.35 -26.15 -12.55 -25.5 -11.0 -23.45 -9.0 -22.5 -8.05 -14.65 -2.65 -2.5 -9.15 -0.1 -13.5 1.35 -16.2 0.15 -18.85 M-0.7 -22.4 Q0.95 -21.35 1.75 -19.6 2.5 -18.0 2.4 -16.15 2.3 -14.3 1.45 -12.7 -0.45 -9.25 -7.35 -4.8 -10.85 -2.55 -14.3 -0.85 L-14.75 -0.65 -15.2 -0.9 Q-22.85 -5.95 -24.7 -7.75 -27.0 -10.0 -27.75 -11.9 -28.7 -14.2 -28.15 -17.15 -27.5 -20.8 -24.65 -22.75 -21.75 -24.65 -18.05 -23.95 -14.7 -23.25 -13.3 -20.75 -12.85 -20.05 -12.7 -19.25 -9.2 -23.45 -4.4 -23.45 -2.35 -23.4 -0.7 -22.4" fill="#6e2c2d" fill-rule="evenodd" stroke="none"/>
    <path d="M-6.4 -17.85 Q-7.35 -18.1 -7.6 -17.55 L-7.5 -17.9 Q-6.75 -19.6 -4.45 -18.85 -2.25 -18.15 -1.7 -16.65 -1.15 -15.15 -2.05 -13.45 -3.05 -11.55 -5.15 -10.95 -2.2 -13.6 -4.55 -16.45 -5.4 -17.55 -6.4 -17.85" fill="#ffffff" fill-opacity="0.25882354" fill-rule="evenodd" stroke="none"/>
    <path d="M23.25 -2.8 Q24.75 -2.8 26.0 -2.05 27.2 -1.25 27.8 0.05 29.0 2.55 27.6 5.15 26.2 7.7 21.1 10.95 L15.95 13.9 15.6 14.05 15.3 13.85 Q9.6 10.15 8.2 8.8 6.55 7.15 5.95 5.7 5.3 4.05 5.7 1.85 6.25 -1.0 8.3 -2.3 10.5 -3.75 13.15 -3.2 15.65 -2.65 16.7 -0.8 L17.1 0.3 Q19.65 -2.8 23.25 -2.8" fill="#ffffff" fill-rule="evenodd" stroke="none"/>
    <path d="M23.25 -2.8 Q19.65 -2.8 17.1 0.3 L16.7 -0.8 Q15.65 -2.65 13.15 -3.2 10.5 -3.75 8.3 -2.3 6.25 -1.0 5.7 1.85 5.3 4.05 5.95 5.7 6.55 7.15 8.2 8.8 9.6 10.15 15.3 13.85 L15.6 14.05 15.95 13.9 21.1 10.95 Q26.2 7.7 27.6 5.15 29.0 2.55 27.8 0.05 27.2 -1.25 26.0 -2.05 24.75 -2.8 23.25 -2.8 Z" fill="none" stroke="#ffffff" stroke-linecap="butt" stroke-linejoin="miter" stroke-width="5.0"/>
  </g>
</svg>
