<?xml version="1.0" encoding="UTF-8" standalone="no"?>
<svg xmlns:xlink="http://www.w3.org/1999/xlink" height="31.2px" width="48.55px" xmlns="http://www.w3.org/2000/svg">
  <g transform="matrix(1.0, 0.0, 0.0, 1.0, 20.2, 3.35)">
    <path d="M26.0 -2.05 Q27.2 -1.25 27.8 0.05 29.0 2.55 27.6 5.15 26.2 7.7 21.1 10.95 L15.95 13.9 15.6 14.05 15.3 13.85 Q9.6 10.15 8.2 8.8 6.55 7.15 5.95 5.7 5.3 4.05 5.7 1.85 6.25 -1.0 8.3 -2.3 10.5 -3.75 13.15 -3.2 15.65 -2.65 16.7 -0.8 L17.1 0.3 Q19.65 -2.8 23.25 -2.8 24.75 -2.8 26.0 -2.05 M23.25 -1.5 Q21.35 -1.5 19.7 -0.3 18.0 0.85 16.95 2.95 L15.75 2.45 Q16.2 0.95 15.55 -0.15 14.75 -1.5 12.9 -1.9 10.8 -2.35 9.0 -1.2 7.4 -0.15 6.95 2.1 6.65 3.95 7.2 5.25 7.65 6.35 9.15 7.85 L12.4 10.35 15.7 12.55 Q24.55 8.0 26.45 4.55 27.55 2.45 26.6 0.6 25.65 -1.5 23.25 -1.5" fill="#6e2c2d" fill-rule="evenodd" stroke="none"/>
    <path d="M23.15 2.35 Q22.55 1.55 21.75 1.35 21.0 1.1 20.85 1.7 L20.95 1.3 Q21.55 0.05 23.25 0.6 24.8 1.15 25.25 2.25 25.65 3.35 25.0 4.6 24.3 6.0 22.7 6.45 24.9 4.5 23.15 2.35" fill="#ffffff" fill-opacity="0.25882354" fill-rule="evenodd" stroke="none"/>
    <path d="M-15.45 20.7 Q-16.85 19.3 -17.3 18.15 -17.9 16.8 -17.55 14.95 -17.1 12.7 -15.4 11.55 -13.65 10.4 -11.4 10.8 -9.4 11.25 -8.45 12.75 L-8.1 13.7 Q-5.95 11.1 -3.05 11.15 -1.8 11.15 -0.8 11.8 0.2 12.4 0.7 13.5 1.65 15.6 0.5 17.7 -1.3 21.05 -9.1 24.9 L-9.35 25.05 -9.6 24.85 Q-14.3 21.8 -15.45 20.7" fill="#ffffff" fill-rule="evenodd" stroke="none"/>
    <path d="M-15.45 20.7 Q-14.3 21.8 -9.6 24.85 L-9.35 25.05 -9.1 24.9 Q-1.3 21.05 0.5 17.7 1.65 15.6 0.7 13.5 0.2 12.4 -0.8 11.8 -1.8 11.15 -3.05 11.15 -5.95 11.1 -8.1 13.7 L-8.45 12.75 Q-9.4 11.25 -11.4 10.8 -13.65 10.4 -15.4 11.55 -17.1 12.7 -17.55 14.95 -17.9 16.8 -17.3 18.15 -16.85 19.3 -15.45 20.7 Z" fill="none" stroke="#ffffff" stroke-linecap="butt" stroke-linejoin="miter" stroke-width="5.0"/>
  </g>
</svg>
