<?xml version="1.0" encoding="UTF-8" standalone="no"?>
<svg xmlns:xlink="http://www.w3.org/1999/xlink" height="14.35px" width="18.85px" xmlns="http://www.w3.org/2000/svg">
  <g transform="matrix(1.0, 0.0, 0.0, 1.0, 17.7, -10.7)">
    <path d="M-16.45 15.15 Q-16.75 16.65 -16.3 17.75 L-14.7 19.9 Q-13.6 21.0 -9.3 23.8 -1.95 20.0 -0.45 17.2 0.5 15.55 -0.3 13.95 -1.1 12.2 -3.05 12.2 -4.65 12.2 -6.0 13.15 -7.4 14.15 -8.25 15.85 L-9.25 15.45 Q-8.85 14.2 -9.4 13.3 -10.0 12.25 -11.6 11.85 -13.4 11.55 -14.8 12.45 -16.15 13.4 -16.45 15.15 M-17.55 14.95 Q-17.1 12.7 -15.4 11.55 -13.65 10.4 -11.4 10.8 -9.4 11.25 -8.45 12.75 L-8.1 13.7 Q-5.95 11.1 -3.05 11.15 -1.8 11.15 -0.8 11.8 0.2 12.4 0.7 13.5 1.65 15.6 0.5 17.7 -1.3 21.05 -9.1 24.9 L-9.35 25.05 -9.6 24.85 Q-14.3 21.8 -15.45 20.7 -16.85 19.3 -17.3 18.15 -17.9 16.8 -17.55 14.95" fill="#6e2c2d" fill-rule="evenodd" stroke="none"/>
    <path d="M-4.95 14.5 Q-4.45 13.45 -3.05 13.95 -1.75 14.35 -1.4 15.3 -1.05 16.2 -1.6 17.2 -2.2 18.35 -3.5 18.75 -1.7 17.15 -3.15 15.4 -4.6 13.6 -5.0 14.65 L-4.95 14.5" fill="#ffffff" fill-opacity="0.25882354" fill-rule="evenodd" stroke="none"/>
  </g>
</svg>
