<?xml version="1.0" encoding="UTF-8" standalone="no"?>
<svg xmlns:xlink="http://www.w3.org/1999/xlink" height="28.0px" width="22.45px" xmlns="http://www.w3.org/2000/svg">
  <g transform="matrix(1.0, 0.0, 0.0, 1.0, 0.0, 0.0)">
    <path d="M19.85 4.05 L19.85 23.95 Q19.85 24.55 19.45 25.0 19.0 25.4 18.4 25.4 L4.05 25.4 Q3.45 25.4 3.0 25.0 2.6 24.55 2.6 23.95 L2.6 4.05 Q2.6 3.45 3.0 3.0 3.45 2.6 4.05 2.6 L18.4 2.6 Q19.0 2.6 19.45 3.0 19.85 3.45 19.85 4.05" fill="url(#gradient0)" fill-rule="evenodd" stroke="none"/>
    <path d="M22.45 4.05 L22.45 23.95 Q22.45 25.6 21.25 26.8 20.1 28.0 18.4 28.0 L4.05 28.0 Q2.35 28.0 1.2 26.8 0.0 25.6 0.0 23.95 L0.0 4.05 Q0.0 2.4 1.2 1.2 2.35 0.0 4.05 0.0 L18.4 0.0 Q20.1 0.0 21.25 1.2 22.45 2.4 22.45 4.05 M5.15 22.85 L17.3 22.85 17.3 5.15 5.15 5.15 5.15 22.85" fill="#ffffff" fill-rule="evenodd" stroke="none"/>
    <path d="M19.85 4.05 L19.85 23.95 Q19.85 24.55 19.45 25.0 19.0 25.4 18.4 25.4 L4.05 25.4 Q3.45 25.4 3.0 25.0 2.6 24.55 2.6 23.95 L2.6 4.05 Q2.6 3.45 3.0 3.0 3.45 2.6 4.05 2.6 L18.4 2.6 Q19.0 2.6 19.45 3.0 19.85 3.45 19.85 4.05" fill="url(#gradient1)" fill-rule="evenodd" stroke="none"/>
    <path d="M18.4 2.6 Q19.05 2.5 19.5 3.25 L19.85 4.05 Q19.85 6.65 19.5 7.0 8.7 5.95 4.55 11.35 2.65 13.85 2.6 16.45 L2.6 3.55 Q2.6 3.25 3.3 2.9 L4.05 2.6 18.4 2.6" fill="#ffffff" fill-opacity="0.2" fill-rule="evenodd" stroke="none"/>
    <path d="M17.3 10.5 L5.15 10.5 5.15 6.85 17.3 6.85 17.3 10.5" fill="#ffffff" fill-rule="evenodd" stroke="none"/>
    <path d="M16.75 7.4 L5.7 7.4 5.7 9.95 16.75 9.95 16.75 7.4 M17.85 11.05 L4.6 11.05 4.6 6.3 17.85 6.3 17.85 11.05" fill="#4b858a" fill-rule="evenodd" stroke="none"/>
    <path d="M17.3 16.4 L5.15 16.4 5.15 12.75 17.3 12.75 17.3 16.4" fill="#ffffff" fill-rule="evenodd" stroke="none"/>
    <path d="M16.75 13.3 L5.7 13.3 5.7 15.8 16.75 15.8 16.75 13.3 M17.85 16.95 L4.6 16.95 4.6 12.2 17.85 12.2 17.85 16.95" fill="#4b858a" fill-rule="evenodd" stroke="none"/>
    <path d="M17.3 21.8 L5.15 21.8 5.15 18.15 17.3 18.15 17.3 21.8" fill="#ffffff" fill-rule="evenodd" stroke="none"/>
    <path d="M5.7 21.25 L16.75 21.25 16.75 18.7 5.7 18.7 5.7 21.25 M17.85 22.35 L4.6 22.35 4.6 17.55 17.85 17.55 17.85 22.35" fill="#4b858a" fill-rule="evenodd" stroke="none"/>
    <path d="M18.4 3.3 L4.05 3.3 Q3.75 3.3 3.55 3.55 L3.3 4.05 3.3 23.95 3.55 24.45 Q3.75 24.7 4.05 24.7 L18.4 24.7 18.9 24.45 19.15 23.95 19.15 4.05 18.9 3.55 Q18.7 3.3 18.4 3.3 M20.6 4.05 L20.6 23.95 Q20.6 24.85 19.95 25.5 19.3 26.15 18.4 26.15 L4.05 26.15 Q3.15 26.15 2.5 25.5 1.85 24.85 1.85 23.95 L1.85 4.05 Q1.85 3.15 2.5 2.5 3.15 1.85 4.05 1.85 L18.4 1.85 Q19.3 1.85 19.95 2.5 20.6 3.15 20.6 4.05" fill="#3b6b71" fill-rule="evenodd" stroke="none"/>
  </g>
  <defs>
    <linearGradient gradientTransform="matrix(0.0, 0.0101, 0.0101, 0.0, 11.2, 11.65)" gradientUnits="userSpaceOnUse" id="gradient0" spreadMethod="pad" x1="-819.2" x2="819.2">
      <stop offset="0.0" stop-color="#84b2b1"/>
      <stop offset="1.0" stop-color="#4b858a"/>
    </linearGradient>
    <linearGradient gradientTransform="matrix(0.0, 0.0101, 0.0101, 0.0, 11.2, 11.65)" gradientUnits="userSpaceOnUse" id="gradient1" spreadMethod="pad" x1="-819.2" x2="819.2">
      <stop offset="0.0" stop-color="#84b2b1"/>
      <stop offset="1.0" stop-color="#4b858a"/>
    </linearGradient>
  </defs>
</svg>
