<?xml version="1.0" encoding="UTF-8" standalone="no"?>
<svg xmlns:xlink="http://www.w3.org/1999/xlink" height="22.7px" width="28.05px" xmlns="http://www.w3.org/2000/svg">
  <g transform="matrix(1.0, 0.0, 0.0, 1.0, 13.4, 10.3)">
    <path d="M14.0 -5.55 Q14.75 -3.9 14.65 -1.95 14.6 0.0 13.7 1.7 12.1 4.6 6.85 8.1 3.85 10.1 0.6 11.7 L-0.85 12.4 -2.25 11.55 Q-8.0 7.85 -9.9 5.95 -12.0 3.9 -12.75 2.05 -13.75 -0.25 -13.15 -3.2 -12.4 -6.95 -9.55 -8.85 -6.5 -10.9 -2.85 -10.1 -0.25 -9.6 1.4 -7.8 4.05 -9.75 7.25 -9.75 9.5 -9.7 11.25 -8.6 13.05 -7.5 14.0 -5.55" fill="#ffffff" fill-rule="evenodd" stroke="none"/>
    <path d="M11.35 -4.45 Q12.55 -2.1 11.2 0.3 9.8 2.9 4.45 6.25 1.75 8.0 -0.7 9.15 L-7.95 4.0 Q-9.65 2.35 -10.15 1.0 -10.85 -0.55 -10.4 -2.65 -9.85 -5.3 -7.9 -6.6 -6.1 -7.7 -3.85 -7.45 -1.7 -7.15 -0.5 -5.7 0.8 -4.1 0.1 -1.95 1.2 -4.1 2.95 -5.45 4.95 -6.95 7.3 -6.95 10.1 -6.9 11.35 -4.45" fill="url(#gradient0)" fill-rule="evenodd" stroke="none"/>
    <path d="M10.8 -4.05 Q9.75 -6.25 7.3 -6.25 5.3 -6.3 3.6 -5.05 1.8 -3.85 0.7 -1.6 L-0.6 -2.15 Q-0.05 -3.7 -0.75 -4.9 -1.65 -6.3 -3.6 -6.7 -5.85 -7.15 -7.6 -5.95 -9.3 -4.85 -9.7 -2.55 -10.1 -0.6 -9.55 0.8 -9.05 1.95 -7.45 3.5 L-0.65 8.4 Q2.2 7.0 4.95 5.15 9.45 2.25 10.6 0.05 11.75 -2.0 10.8 -4.05 M11.8 0.65 Q10.35 3.3 5.05 6.75 L-0.4 9.8 -0.75 10.0 -1.05 9.75 Q-7.0 5.9 -8.4 4.5 -10.2 2.75 -10.8 1.3 -11.5 -0.5 -11.1 -2.8 -10.55 -5.6 -8.35 -7.05 -6.1 -8.55 -3.3 -8.05 -0.7 -7.5 0.4 -5.55 L0.85 -4.4 Q3.6 -7.65 7.3 -7.65 8.85 -7.6 10.1 -6.8 11.4 -6.0 12.05 -4.65 12.6 -3.45 12.55 -2.0 12.5 -0.6 11.8 0.65" fill="url(#gradient1)" fill-rule="evenodd" stroke="none"/>
    <path d="M-3.65 -4.15 L-3.55 -3.95 Q-3.75 -4.35 -4.45 -4.15 -5.25 -3.95 -5.9 -3.1 -7.75 -0.85 -5.45 1.2 -7.1 0.7 -7.85 -0.75 -8.5 -2.1 -8.15 -3.2 -7.65 -4.35 -6.0 -4.9 -4.2 -5.5 -3.65 -4.15" fill="#ffffff" fill-opacity="0.4392157" fill-rule="evenodd" stroke="none"/>
  </g>
  <defs>
    <linearGradient gradientTransform="matrix(0.002, 0.006, 0.006, -0.002, 0.85, -0.95)" gradientUnits="userSpaceOnUse" id="gradient0" spreadMethod="pad" x1="-819.2" x2="819.2">
      <stop offset="0.0" stop-color="#ef9ab7"/>
      <stop offset="1.0" stop-color="#ec1e78"/>
    </linearGradient>
    <linearGradient gradientTransform="matrix(0.0034, 0.0088, 0.0088, -0.0034, 0.7, -1.5)" gradientUnits="userSpaceOnUse" id="gradient1" spreadMethod="pad" x1="-819.2" x2="819.2">
      <stop offset="0.0" stop-color="#d06baa"/>
      <stop offset="1.0" stop-color="#6c181a"/>
    </linearGradient>
  </defs>
</svg>
