<?xml version="1.0" encoding="UTF-8" standalone="no"?>
<svg xmlns:xlink="http://www.w3.org/1999/xlink" height="27.35px" width="28.0px" xmlns="http://www.w3.org/2000/svg">
  <g transform="matrix(1.0, 0.0, 0.0, 1.0, 13.2, 17.1)">
    <path d="M14.15 -7.7 L10.65 -2.85 12.4 -0.2 13.0 1.0 12.45 2.2 Q11.15 5.1 8.45 7.35 4.9 10.25 0.6 10.25 -3.8 10.25 -7.35 7.45 -10.1 5.3 -11.4 2.5 L-11.9 1.45 -11.5 0.4 Q-10.8 -1.7 -9.25 -3.4 L-12.6 -8.45 Q-13.15 -9.25 -13.2 -10.15 -13.25 -11.05 -12.8 -11.85 L-11.45 -13.2 -9.65 -13.7 Q-7.8 -13.7 -6.75 -12.15 L-3.6 -7.3 -2.7 -7.6 -2.7 -13.7 Q-2.7 -15.15 -1.7 -16.1 -0.65 -17.1 0.85 -17.1 2.3 -17.1 3.3 -16.1 4.3 -15.15 4.3 -13.7 L4.25 -7.6 5.35 -7.05 6.85 -9.35 8.3 -11.45 Q9.35 -13.0 11.2 -13.0 12.2 -13.0 13.05 -12.45 L14.4 -11.1 Q15.3 -9.35 14.15 -7.7" fill="#ffffff" fill-rule="evenodd" stroke="none"/>
    <path d="M-8.9 1.3 Q-8.3 -0.35 -6.85 -1.95 -3.85 -5.25 0.7 -5.25 4.45 -5.25 7.55 -2.1 9.1 -0.55 9.9 1.05 9.2 2.65 7.65 4.25 4.6 7.45 0.6 7.45 -3.5 7.45 -6.6 4.4 L-8.35 2.3 -8.9 1.3" fill="url(#gradient0)" fill-rule="evenodd" stroke="none"/>
    <path d="M10.7 1.4 Q9.8 3.25 8.15 4.95 4.9 8.3 0.6 8.3 -3.8 8.3 -7.1 5.1 L-8.95 2.8 -9.65 1.65 -9.8 1.35 -9.65 1.05 Q-9.0 -0.8 -7.4 -2.6 -4.2 -6.1 0.7 -6.1 4.8 -6.1 8.05 -2.85 9.75 -1.15 10.65 0.65 L10.8 1.05 10.7 1.4 M-5.4 4.4 Q-2.75 6.65 0.6 6.65 3.8 6.65 6.35 4.35 7.95 2.9 8.95 1.05 7.85 -0.8 6.3 -2.15 3.7 -4.45 0.7 -4.45 -3.0 -4.45 -5.55 -2.05 -7.15 -0.65 -7.95 1.25 -6.95 3.05 -5.4 4.4" fill="#9b6f2e" fill-rule="evenodd" stroke="none"/>
    <path d="M-4.55 1.0 Q-4.55 -1.15 -3.05 -2.6 -1.6 -4.1 0.5 -4.1 2.6 -4.1 4.1 -2.6 5.6 -1.15 5.6 1.0 5.6 3.05 4.1 4.55 2.6 6.05 0.5 6.05 -1.6 6.05 -3.05 4.55 -4.55 3.05 -4.55 1.0" fill="#ffffff" fill-rule="evenodd" stroke="none"/>
    <path d="M-2.7 4.15 Q-1.35 5.45 0.5 5.45 2.4 5.45 3.7 4.15 5.05 2.85 5.05 1.0 5.05 -0.9 3.7 -2.2 2.4 -3.55 0.5 -3.55 -1.35 -3.55 -2.7 -2.2 -4.0 -0.9 -4.0 1.0 -4.0 2.85 -2.7 4.15 M-3.45 -3.0 Q-1.8 -4.65 0.5 -4.65 2.85 -4.65 4.5 -3.0 6.15 -1.35 6.15 1.0 6.15 3.3 4.5 4.95 2.85 6.6 0.5 6.6 -1.8 6.6 -3.45 4.95 -5.15 3.3 -5.15 1.0 -5.15 -1.35 -3.45 -3.0" fill="#9b6f2e" fill-rule="evenodd" stroke="none"/>
    <path d="M-2.7 1.0 Q-2.7 -0.4 -1.75 -1.4 -0.75 -2.4 0.65 -2.4 2.0 -2.4 3.05 -1.4 4.0 -0.4 4.0 1.0 4.0 2.35 3.05 3.35 2.0 4.3 0.65 4.3 -0.75 4.3 -1.75 3.35 -2.7 2.35 -2.7 1.0" fill="#9b6f2e" fill-rule="evenodd" stroke="none"/>
    <path d="M-2.6 -0.95 Q-2.6 -1.7 -2.05 -2.25 -1.5 -2.75 -0.75 -2.75 0.0 -2.75 0.6 -2.25 1.1 -1.7 1.1 -0.95 1.1 -0.15 0.6 0.35 0.0 0.9 -0.75 0.9 -1.5 0.9 -2.05 0.35 -2.6 -0.15 -2.6 -0.95" fill="#ffffff" fill-rule="evenodd" stroke="none"/>
    <path d="M1.65 2.1 L1.9 1.55 2.4 1.35 2.95 1.55 3.2 2.1 2.95 2.6 2.4 2.85 1.9 2.6 1.65 2.1" fill="#ffffff" fill-rule="evenodd" stroke="none"/>
    <path d="M2.1 -8.7 Q2.1 -7.45 0.85 -7.45 -0.4 -7.45 -0.4 -8.7 L-0.4 -13.7 Q-0.4 -14.9 0.85 -14.9 2.1 -14.9 2.1 -13.7 L2.1 -8.7" fill="#9b6f2e" fill-rule="evenodd" stroke="none"/>
    <path d="M-6.0 -6.95 Q-5.3 -5.95 -6.4 -5.35 -7.5 -4.7 -8.15 -5.7 L-10.75 -9.65 Q-11.4 -10.7 -10.35 -11.3 -9.25 -11.95 -8.6 -10.9 L-6.0 -6.95" fill="#9b6f2e" fill-rule="evenodd" stroke="none"/>
    <path d="M10.15 -10.2 Q10.85 -11.2 11.95 -10.55 13.0 -9.95 12.3 -8.95 L9.8 -5.3 Q9.1 -4.3 8.05 -4.9 6.95 -5.55 7.65 -6.55 L10.15 -10.2" fill="#9b6f2e" fill-rule="evenodd" stroke="none"/>
  </g>
  <defs>
    <linearGradient gradientTransform="matrix(0.0, 0.0083, 0.0083, 0.0, 0.5, 1.05)" gradientUnits="userSpaceOnUse" id="gradient0" spreadMethod="pad" x1="-819.2" x2="819.2">
      <stop offset="0.0" stop-color="#9b6f2e"/>
      <stop offset="0.047058823529411764" stop-color="#ac8130"/>
      <stop offset="0.17254901960784313" stop-color="#d7b139"/>
      <stop offset="0.26666666666666666" stop-color="#f3d241"/>
      <stop offset="0.3176470588235294" stop-color="#ffdf45"/>
      <stop offset="0.7529411764705882" stop-color="#fece2f"/>
      <stop offset="0.8666666666666667" stop-color="#d49e2f"/>
      <stop offset="1.0" stop-color="#ab702f"/>
    </linearGradient>
  </defs>
</svg>
