<?xml version="1.0" encoding="UTF-8" standalone="no"?>
<svg xmlns:xlink="http://www.w3.org/1999/xlink" height="28.0px" width="25.5px" xmlns="http://www.w3.org/2000/svg">
  <g transform="matrix(1.0, 0.0, 0.0, 1.0, 8.7, 6.6)">
    <path d="M10.75 1.65 Q11.25 5.45 8.85 8.5 6.4 11.55 2.45 12.05 -1.5 12.6 -4.6 10.3 -7.75 8.05 -8.3 4.25 -8.8 0.45 -6.35 -2.6 -3.95 -5.65 0.0 -6.15 3.95 -6.7 7.05 -4.4 10.2 -2.15 10.75 1.65" fill="#ffffff" fill-rule="evenodd" stroke="none"/>
    <path d="M9.1 8.7 Q6.6 11.85 2.5 12.4 L1.1 12.5 Q-2.55 12.5 -5.35 10.15 -8.15 7.8 -8.6 4.3 -9.15 0.4 -6.65 -2.8 -4.15 -5.95 -0.05 -6.5 L1.35 -6.6 Q5.0 -6.6 7.8 -4.25 10.6 -1.9 11.05 1.6 11.6 5.5 9.1 8.7 M7.35 -3.75 Q4.8 -5.95 1.35 -5.95 L0.05 -5.85 Q-3.75 -5.35 -6.1 -2.35 -8.45 0.55 -7.95 4.2 -7.5 7.45 -4.9 9.65 -2.35 11.85 1.1 11.85 L2.4 11.75 Q6.2 11.25 8.55 8.3 10.9 5.35 10.4 1.7 9.95 -1.55 7.35 -3.75" fill="#ffffff" fill-rule="evenodd" stroke="none"/>
    <path d="M5.55 -1.9 Q6.25 -1.2 6.25 -0.3 6.25 0.65 5.55 1.3 4.85 1.95 3.8 1.95 2.8 1.95 2.1 1.3 1.4 0.65 1.4 -0.3 1.4 -1.2 2.1 -1.9 2.8 -2.55 3.8 -2.55 4.85 -2.55 5.55 -1.9" fill="#ffffff" fill-rule="evenodd" stroke="none"/>
    <path d="M7.05 -4.4 Q10.2 -2.15 10.75 1.65 11.25 5.45 8.85 8.5 6.4 11.55 2.45 12.05 -1.5 12.6 -4.6 10.3 -7.75 8.05 -8.3 4.25 -8.8 0.45 -6.35 -2.6 -3.95 -5.65 0.0 -6.15 3.95 -6.7 7.05 -4.4" fill="url(#gradient0)" fill-rule="evenodd" stroke="none"/>
    <path d="M6.4 -3.9 Q9.2 -2.15 9.6 0.85 10.0 3.85 7.8 6.3 5.6 8.75 2.05 9.25 -1.45 9.75 -4.25 7.95 -7.0 6.2 -7.4 3.15 -7.8 0.2 -5.6 -2.25 -3.4 -4.75 0.1 -5.2 3.65 -5.7 6.4 -3.9" fill="#3c5161" fill-rule="evenodd" stroke="none"/>
    <path d="M6.65 -2.75 Q9.2 -1.25 9.55 1.4 9.9 4.05 7.85 6.2 5.8 8.4 2.6 8.8 -0.65 9.25 -3.2 7.7 -5.75 6.2 -6.1 3.55 -6.45 0.9 -4.4 -1.25 -2.4 -3.45 0.85 -3.9 4.1 -4.3 6.65 -2.75" fill="url(#gradient1)" fill-rule="evenodd" stroke="none"/>
    <path d="M8.1 6.4 Q6.0 8.7 2.6 9.15 L1.25 9.25 Q-1.75 9.25 -3.9 7.65 -6.1 6.05 -6.45 3.6 -6.8 0.8 -4.7 -1.45 -2.55 -3.75 0.8 -4.2 L2.15 -4.3 Q5.2 -4.3 7.35 -2.7 9.55 -1.1 9.85 1.35 10.25 4.1 8.1 6.4 M6.95 -2.2 Q4.95 -3.65 2.15 -3.65 L0.9 -3.55 Q-2.2 -3.15 -4.15 -1.05 -6.1 1.0 -5.75 3.5 -5.5 5.7 -3.5 7.15 -1.5 8.6 1.25 8.6 L2.55 8.5 Q5.65 8.1 7.6 6.0 9.55 3.95 9.2 1.45 8.9 -0.75 6.95 -2.2" fill="#3c5161" fill-rule="evenodd" stroke="none"/>
    <path d="M4.7 -1.75 Q5.4 -1.1 5.4 -0.2 5.4 0.75 4.7 1.4 4.0 2.1 3.0 2.1 1.95 2.1 1.25 1.4 0.55 0.75 0.55 -0.2 0.55 -1.1 1.25 -1.75 1.95 -2.4 3.0 -2.4 4.0 -2.4 4.7 -1.75" fill="#ffffff" fill-rule="evenodd" stroke="none"/>
    <path d="M8.3 7.75 L11.95 11.6 16.05 15.7 16.3 16.8 15.85 18.7 Q14.65 21.2 11.45 20.85 10.65 20.75 7.55 15.9 L4.55 11.05 Q4.5 10.05 4.95 9.15 5.8 7.35 8.3 7.75" fill="url(#gradient2)" fill-rule="evenodd" stroke="none"/>
    <path d="M10.5 8.95 L15.5 14.3 16.4 15.35 Q16.8 15.7 16.8 16.75 L16.35 18.7 Q15.95 19.75 15.15 20.4 13.95 21.4 12.2 21.4 L11.4 21.35 Q9.9 21.2 4.15 11.3 L4.05 11.2 4.05 11.05 4.2 10.0 Q4.45 8.85 5.2 8.15 6.3 6.95 8.35 7.25 8.9 7.35 10.5 8.95 M5.5 9.35 Q5.1 10.05 5.05 10.95 L9.0 17.2 Q11.0 20.2 11.55 20.35 L12.2 20.4 Q14.3 20.4 15.25 18.75 15.7 18.0 15.75 17.05 L15.7 16.0 14.75 15.0 Q9.05 8.55 8.2 8.25 L7.55 8.2 Q6.15 8.2 5.5 9.35" fill="#4b2c2b" fill-rule="evenodd" stroke="none"/>
    <path d="M11.05 19.95 Q10.6 19.4 10.95 18.4 11.3 17.4 12.3 16.55 13.3 15.7 14.35 15.5 15.4 15.35 15.9 15.9 16.35 16.5 16.0 17.5 15.65 18.5 14.65 19.35 13.65 20.2 12.6 20.35 11.55 20.55 11.05 19.95" fill="#7d5434" fill-rule="evenodd" stroke="none"/>
    <path d="M16.35 17.5 Q15.95 18.65 14.85 19.6 L13.5 20.4 12.15 20.7 Q11.25 20.7 10.8 20.2 10.2 19.45 10.65 18.3 11.0 17.2 12.1 16.3 12.75 15.75 13.45 15.45 L14.8 15.15 Q15.7 15.15 16.15 15.7 16.7 16.4 16.35 17.5 M14.8 15.8 Q13.7 15.8 12.5 16.8 11.6 17.55 11.25 18.5 10.95 19.35 11.3 19.75 11.55 20.05 12.15 20.05 13.25 20.05 14.45 19.05 15.3 18.35 15.65 17.45 16.0 16.6 15.65 16.15 15.35 15.8 14.8 15.8" fill="#4b2c2b" fill-rule="evenodd" stroke="none"/>
    <path d="M11.15 19.35 Q10.85 18.95 11.2 18.2 11.6 17.4 12.4 16.75 13.25 16.05 14.05 15.8 L15.2 15.95 Q15.5 16.35 15.15 17.1 L13.95 18.55 12.3 19.5 11.15 19.35" fill="#b88c62" fill-rule="evenodd" stroke="none"/>
  </g>
  <defs>
    <linearGradient gradientTransform="matrix(0.0117, 3.0E-4, -2.0E-4, -0.0136, 1.2, 2.95)" gradientUnits="userSpaceOnUse" id="gradient0" spreadMethod="pad" x1="-819.2" x2="819.2">
      <stop offset="0.00392156862745098" stop-color="#e8eaec"/>
      <stop offset="0.25098039215686274" stop-color="#fffdea"/>
      <stop offset="0.4" stop-color="#f3efdf"/>
      <stop offset="0.596078431372549" stop-color="#ddd7cd"/>
      <stop offset="0.788235294117647" stop-color="#f2f3f3"/>
      <stop offset="1.0" stop-color="#dedcc6"/>
    </linearGradient>
    <radialGradient cx="0" cy="0" gradientTransform="matrix(-0.0026, 0.0078, 0.0081, 0.0024, 2.85, 1.15)" gradientUnits="userSpaceOnUse" id="gradient1" r="819.2" spreadMethod="pad">
      <stop offset="0.17647058823529413" stop-color="#e9edf7"/>
      <stop offset="0.20392156862745098" stop-color="#e6ecf7"/>
      <stop offset="0.403921568627451" stop-color="#d4e9f7"/>
      <stop offset="0.5294117647058824" stop-color="#cde7f8"/>
      <stop offset="1.0" stop-color="#6b98a2"/>
    </radialGradient>
    <linearGradient gradientTransform="matrix(-0.0028, 0.0023, 0.0022, 0.0028, 9.3, 14.9)" gradientUnits="userSpaceOnUse" id="gradient2" spreadMethod="pad" x1="-819.2" x2="819.2">
      <stop offset="0.0" stop-color="#804a2e"/>
      <stop offset="0.25098039215686274" stop-color="#be7f57"/>
      <stop offset="0.45098039215686275" stop-color="#8e5130"/>
      <stop offset="0.6352941176470588" stop-color="#69362d"/>
      <stop offset="0.9764705882352941" stop-color="#6c402b"/>
      <stop offset="1.0" stop-color="#a0583a"/>
    </linearGradient>
  </defs>
</svg>
