<?xml version="1.0" encoding="UTF-8" standalone="no"?>
<svg xmlns:xlink="http://www.w3.org/1999/xlink" height="24.65px" width="28.0px" xmlns="http://www.w3.org/2000/svg">
  <g transform="matrix(1.0, 0.0, 0.0, 1.0, 0.0, 0.0)">
    <path d="M24.15 2.9 Q25.65 4.45 25.55 6.05 25.5 7.3 24.5 8.1 L21.95 8.8 19.25 16.35 Q20.2 17.45 20.15 18.85 20.1 20.2 18.95 21.25 17.85 22.2 16.45 22.2 L15.95 22.15 Q13.45 21.8 12.85 19.75 L12.1 19.75 Q11.8 20.8 10.85 21.5 10.0 22.15 8.8 22.15 7.4 22.15 6.35 21.2 5.4 20.15 5.4 18.75 5.4 18.05 5.75 17.2 2.4 6.6 2.4 5.75 L5.4 5.4 8.75 5.7 Q9.05 5.9 9.15 7.7 L15.7 7.8 Q17.4 3.05 17.9 2.65 L21.1 2.45 23.6 2.45 24.15 2.9" fill="#ffffff" fill-rule="evenodd" stroke="none"/>
    <path d="M25.85 1.2 Q28.2 3.55 28.0 6.25 27.85 8.65 25.9 10.05 L23.75 10.9 22.0 16.0 Q22.7 17.45 22.6 19.05 22.45 21.35 20.7 22.95 18.85 24.65 16.45 24.65 L15.65 24.6 Q13.85 24.4 12.55 23.3 10.9 24.6 8.8 24.6 6.4 24.6 4.65 22.9 2.95 21.2 2.95 18.75 L3.2 17.15 Q0.6 8.95 0.15 7.1 -0.2 5.5 0.2 4.65 0.8 3.5 2.15 3.2 L5.4 2.95 8.9 3.15 Q9.95 3.35 10.55 3.95 L11.25 5.25 14.0 5.3 Q15.65 1.35 16.25 0.85 16.9 0.25 17.85 0.1 L21.1 0.0 24.55 0.05 25.85 1.2 M23.15 5.9 L22.65 4.85 19.55 4.85 17.3 10.2 6.9 10.05 6.75 7.85 5.45 7.85 8.1 16.45 8.4 17.4 7.95 18.35 7.8 18.75 Q7.8 19.2 8.1 19.45 L8.8 19.75 Q9.5 19.75 9.75 19.05 L10.25 17.3 14.65 17.3 15.2 19.05 Q15.35 19.6 16.3 19.8 L16.45 19.8 Q16.95 19.8 17.3 19.45 17.7 19.1 17.7 18.75 17.7 18.15 17.4 17.9 L16.5 16.8 20.1 6.75 23.05 6.05 23.15 5.9" fill="#ffffff" fill-rule="evenodd" stroke="none"/>
    <path d="M24.15 2.9 Q25.65 4.45 25.55 6.05 25.5 7.3 24.5 8.1 L21.95 8.8 19.25 16.35 Q20.2 17.45 20.15 18.85 20.1 20.2 18.95 21.25 17.85 22.2 16.45 22.2 L15.95 22.15 Q13.45 21.8 12.85 19.75 L12.1 19.75 Q11.8 20.8 10.85 21.5 10.0 22.15 8.8 22.15 7.4 22.15 6.35 21.2 5.4 20.15 5.4 18.75 5.4 18.05 5.75 17.2 2.4 6.6 2.4 5.75 L5.4 5.4 8.75 5.7 Q9.05 5.9 9.15 7.7 L15.7 7.8 Q17.4 3.05 17.9 2.65 L21.1 2.45 23.6 2.45 24.15 2.9" fill="#7f501d" fill-rule="evenodd" stroke="none"/>
    <path d="M23.45 2.85 L21.1 2.8 18.15 2.9 15.95 8.15 8.8 8.05 8.8 7.75 8.45 5.95 5.4 5.8 2.85 5.95 Q3.2 7.75 6.2 17.1 L6.25 17.25 6.15 17.4 Q5.8 18.05 5.8 18.75 5.8 20.0 6.7 20.9 7.55 21.8 8.8 21.8 9.85 21.8 10.65 21.2 11.45 20.6 11.75 19.6 L11.8 19.35 13.15 19.3 13.25 19.6 Q13.85 21.45 16.0 21.8 17.4 22.0 18.55 21.1 19.65 20.15 19.7 18.85 19.8 17.55 18.95 16.55 L18.8 16.4 21.65 8.5 21.85 8.45 24.2 7.8 Q25.05 7.15 25.2 6.05 25.3 4.65 23.9 3.25 L23.45 2.85 M26.0 6.1 Q25.95 7.45 24.7 8.45 L22.25 9.2 19.7 16.2 Q20.6 17.35 20.5 18.9 20.45 20.45 19.2 21.5 18.0 22.6 16.45 22.6 L15.9 22.6 Q13.35 22.2 12.6 20.15 L12.4 20.15 Q12.0 21.25 11.0 21.95 10.0 22.6 8.8 22.6 7.2 22.6 6.1 21.45 5.0 20.35 5.0 18.75 5.0 17.95 5.3 17.15 1.8 5.95 2.05 5.55 2.25 5.25 2.65 5.15 L5.4 4.95 9.05 5.4 Q9.4 5.75 9.55 7.3 L15.4 7.35 Q17.3 2.65 17.65 2.3 L21.1 2.0 23.7 2.05 23.95 2.15 24.4 2.65 Q26.1 4.3 26.0 6.1" fill="#7f501d" fill-rule="evenodd" stroke="none"/>
    <path d="M16.5 19.5 Q17.3 19.5 17.3 18.7 L17.1 18.15 16.5 17.9 Q16.15 17.9 15.95 18.15 L15.7 18.7 Q15.7 19.5 16.5 19.5 M8.1 18.15 Q7.8 18.45 7.8 18.8 7.8 19.75 8.75 19.75 9.65 19.75 9.65 18.8 L9.4 18.15 8.75 17.9 Q8.35 17.9 8.1 18.15 M8.75 13.85 L9.05 15.5 15.2 15.6 15.65 14.05 8.75 13.85 M16.05 12.7 L16.55 10.95 8.1 10.75 8.3 12.3 16.05 12.7 M22.95 4.15 L23.65 5.15 Q24.2 6.15 23.45 6.7 L20.75 7.35 17.1 16.85 Q17.7 17.05 18.05 17.55 18.5 18.1 18.45 18.8 18.4 19.55 17.7 20.05 17.0 20.6 16.25 20.5 15.45 20.4 15.0 19.95 14.45 19.4 14.45 18.7 L14.55 18.0 10.35 18.05 10.55 18.75 Q10.55 19.5 10.05 20.0 9.55 20.5 8.8 20.5 8.1 20.5 7.6 20.0 7.1 19.45 7.1 18.75 7.1 18.05 7.65 17.5 L4.6 7.3 7.5 7.75 7.85 9.35 16.75 9.45 19.0 4.25 22.95 4.15" fill="url(#gradient0)" fill-rule="evenodd" stroke="none"/>
    <path d="M23.05 4.15 Q23.85 4.7 24.05 6.0 L23.4 6.7 Q23.35 5.9 22.75 5.45 22.15 5.05 21.55 5.2 20.8 5.35 19.15 8.1 L17.7 10.8 7.0 10.45 8.35 16.6 7.55 17.1 4.65 7.35 7.55 7.25 7.85 9.35 16.65 9.15 17.95 6.4 19.1 4.2 20.9 4.0 23.05 4.15" fill="#f8f0a5" fill-rule="evenodd" stroke="none"/>
  </g>
  <defs>
    <linearGradient gradientTransform="matrix(0.0071, 0.0108, 0.0108, -0.007, 14.85, 11.35)" gradientUnits="userSpaceOnUse" id="gradient0" spreadMethod="pad" x1="-819.2" x2="819.2">
      <stop offset="0.0" stop-color="#ffdf3b"/>
      <stop offset="0.49019607843137253" stop-color="#fecd1d"/>
      <stop offset="0.5803921568627451" stop-color="#f5c21c"/>
      <stop offset="0.7372549019607844" stop-color="#dca61c"/>
      <stop offset="0.9411764705882353" stop-color="#b5791d"/>
      <stop offset="1.0" stop-color="#a96b1d"/>
    </linearGradient>
  </defs>
</svg>
