<?xml version="1.0" encoding="UTF-8" standalone="no"?>
<svg xmlns:xlink="http://www.w3.org/1999/xlink" height="29.0px" width="29.55px" xmlns="http://www.w3.org/2000/svg">
  <g transform="matrix(1.0, 0.0, 0.0, 1.0, 14.25, 14.0)">
    <path d="M10.65 -0.8 L12.8 1.0 10.85 2.05 9.55 8.85 2.05 12.5 -8.85 8.2 -10.0 1.5 -11.95 0.3 -8.5 -2.85 -5.95 -8.55 -3.5 -7.5 -1.95 -7.45 -2.4 -8.55 1.2 -11.4 1.95 -7.25 6.65 -7.0 10.65 -0.8" fill="#ffffff" fill-rule="evenodd" stroke="none"/>
    <path d="M12.05 -2.05 L13.4 -0.9 Q14.75 0.4 14.8 1.1 14.9 2.15 12.5 3.25 L11.2 10.1 2.15 14.5 -10.45 9.5 -11.65 2.65 -11.95 2.5 -13.3 1.5 Q-13.8 1.0 -13.75 0.25 L-13.5 -0.7 -12.65 -1.55 -10.0 -3.95 -6.9 -10.95 -3.9 -9.65 -1.5 -11.7 Q1.0 -13.7 1.75 -13.5 2.75 -13.2 3.5 -9.0 L7.65 -8.75 12.05 -2.05 M7.95 7.6 L9.25 0.85 9.55 0.65 9.25 0.35 5.6 -5.2 -3.95 -5.7 -5.0 -6.15 -7.0 -1.75 -8.95 0.05 -8.35 0.4 -7.2 6.85 2.0 10.5 7.95 7.6 M-0.15 -7.95 L0.1 -7.3 -0.05 -8.05 -0.15 -7.95 -0.05 -8.05 0.1 -7.3 -0.15 -7.95" fill="#ffffff" fill-rule="evenodd" stroke="none"/>
    <path d="M7.95 7.6 L2.0 10.5 -7.2 6.85 -8.35 0.4 -8.95 0.05 -7.0 -1.75 -5.0 -6.15 -3.95 -5.7 5.6 -5.2 9.25 0.35 9.55 0.65 9.25 0.85 7.95 7.6 M12.05 -2.05 L7.65 -8.75 3.5 -9.0 Q2.75 -13.2 1.75 -13.5 1.0 -13.7 -1.5 -11.7 L-3.9 -9.65 -6.9 -10.95 -10.0 -3.95 -12.65 -1.55 -13.5 -0.7 -13.75 0.25 Q-13.8 1.0 -13.3 1.5 L-11.95 2.5 -11.65 2.65 -10.45 9.5 2.15 14.5 11.2 10.1 12.5 3.25 Q14.9 2.15 14.8 1.1 14.75 0.4 13.4 -0.9 L12.05 -2.05 M-0.15 -7.95 L-0.05 -8.05 0.1 -7.3 -0.15 -7.95" fill="none" stroke="#ffffff" stroke-linecap="butt" stroke-linejoin="miter" stroke-width="1.0"/>
    <path d="M10.35 -0.3 L11.95 0.75 10.2 1.35 10.15 1.25 8.8 8.3 2.0 11.55 -8.05 7.55 -9.25 0.9 -10.85 0.2 -7.8 -2.3 -5.5 -7.4 -3.7 -6.65 -0.65 -6.5 -1.35 -8.25 0.6 -9.8 1.2 -6.45 6.5 -6.25 10.35 -0.3" fill="#6b655c" fill-rule="evenodd" stroke="none"/>
    <path d="M9.5 0.0 L6.0 -5.4 -3.9 -5.8 -5.05 -6.3 -7.1 -1.75 -9.2 -0.05 -8.45 0.3 -7.3 6.95 2.0 10.6 8.0 7.7 9.5 0.0 M12.8 1.0 L10.85 2.05 9.55 8.85 2.05 12.5 -8.85 8.2 -10.0 1.5 -11.95 0.3 -8.5 -2.85 -5.95 -8.55 -3.5 -7.5 -1.95 -7.45 -2.4 -8.55 1.2 -11.4 1.95 -7.25 6.65 -7.0 10.65 -0.8 12.8 1.0 M-0.3 -8.0 L0.35 -6.4 0.0 -8.25 -0.3 -8.0" fill="#6e5d4e" fill-rule="evenodd" stroke="none"/>
    <path d="M11.15 2.25 L9.85 9.1 2.05 12.85 -9.1 8.45 -10.3 1.7 -12.25 0.3 -10.45 -1.5 -8.75 -3.05 -6.1 -8.95 -3.45 -7.8 -2.4 -7.75 -2.75 -8.65 1.45 -12.0 2.2 -7.6 6.8 -7.3 10.9 -1.0 13.4 1.05 11.15 2.25 M10.35 -0.65 L6.45 -6.65 1.65 -6.95 1.0 -10.8 -2.0 -8.45 -1.45 -7.1 -3.6 -7.15 -5.8 -8.1 -8.25 -2.65 -11.4 0.25 -9.85 1.25 -9.7 1.3 -8.55 7.95 2.05 12.15 9.25 8.65 10.6 1.8 12.25 0.9 10.85 -0.2 10.6 -0.05 10.45 0.15 9.9 -0.2 10.1 -0.5 10.35 -0.65 M9.15 0.05 L5.8 -5.05 -4.0 -5.45 -4.9 -5.85 -6.85 -1.55 -8.6 -0.1 -8.2 0.05 -7.0 6.7 1.95 10.25 7.75 7.45 9.15 0.05 M8.3 7.9 L2.0 10.95 -7.6 7.2 -8.75 0.5 -9.8 0.05 -7.35 -1.95 -5.25 -6.7 -3.85 -6.1 6.15 -5.7 9.85 -0.1 8.3 7.9 M0.25 -8.8 L0.65 -6.45 0.05 -6.25 -0.7 -8.1 0.25 -8.8" fill="#6e5d4e" fill-rule="evenodd" stroke="none"/>
    <path d="M1.95 11.75 L1.4 3.2 6.4 -3.55 10.25 1.35 8.9 8.35 1.95 11.75" fill="#eae6da" fill-rule="evenodd" stroke="none"/>
    <path d="M2.0 11.75 L-8.05 7.55 -9.25 0.9 1.4 3.4 2.0 11.75" fill="#b3a8a0" fill-rule="evenodd" stroke="none"/>
    <path d="M10.2 1.35 L6.4 -3.55 2.45 3.05 0.5 4.6 -10.85 0.2 -7.8 -2.3 -5.5 -7.4 -3.7 -6.65 6.5 -6.25 10.35 -0.3 11.95 0.75 10.2 1.35" fill="#b74236" fill-rule="evenodd" stroke="none"/>
    <path d="M1.2 -5.75 L-0.3 -4.95 -1.2 -8.15 0.65 -9.55 1.2 -5.75" fill="#b3a8a0" fill-rule="evenodd" stroke="none"/>
    <path d="M10.4 0.55 L6.25 -5.0 1.95 2.25 0.3 3.6 -10.4 -0.3 -9.8 -0.55 -0.25 2.55 1.2 1.5 5.9 -6.5 10.05 -0.55 11.45 0.15 10.4 0.55" fill="#da9581" fill-opacity="0.91764706" fill-rule="evenodd" stroke="none"/>
    <path d="M-6.65 7.15 L-7.15 3.1 -1.95 4.6 -1.45 9.2 -6.65 7.15" fill="#eae6da" fill-rule="evenodd" stroke="none"/>
    <path d="M-6.35 6.95 L-1.85 8.7 -2.25 4.85 -6.8 3.55 -6.35 6.95 M-1.1 9.7 L-6.95 7.4 -7.55 2.65 -1.65 4.35 -1.1 9.7" fill="#6e5d4e" fill-rule="evenodd" stroke="none"/>
    <path d="M4.5 10.95 L4.35 4.9 8.3 3.8 7.75 9.65 4.5 10.95" fill="#ffffff" fill-rule="evenodd" stroke="none"/>
    <path d="M4.8 5.25 L4.9 10.3 7.35 9.35 7.85 4.35 4.8 5.25 M4.05 11.6 L3.95 4.6 8.8 3.2 8.15 9.95 4.05 11.6" fill="#6e5d4e" fill-rule="evenodd" stroke="none"/>
    <path d="M-4.45 8.05 L-4.9 4.0 -4.05 3.95 -3.6 7.95 -4.45 8.05" fill="#6e5d4e" fill-rule="evenodd" stroke="none"/>
    <path d="M-2.0 7.05 L-7.0 5.8 -6.8 4.95 -1.8 6.2 -2.0 7.05" fill="#6e5d4e" fill-rule="evenodd" stroke="none"/>
  </g>
</svg>
