<?xml version="1.0" encoding="UTF-8" standalone="no"?>
<svg xmlns:xlink="http://www.w3.org/1999/xlink" height="33.2px" width="31.7px" xmlns="http://www.w3.org/2000/svg">
  <g transform="matrix(1.0, 0.0, 0.0, 1.0, 10.35, 11.1)">
    <path d="M19.25 0.75 Q19.8 2.2 17.85 4.1 L12.6 8.25 15.35 14.0 6.1 16.0 -1.15 19.2 -2.0 12.45 -3.4 8.85 -7.6 1.65 -4.25 -0.15 1.1 -1.3 0.3 -3.0 0.15 -3.1 0.1 -3.05 -0.65 -2.5 -0.6 -2.4 -0.7 -2.4 -1.25 -2.65 -1.25 -2.7 -2.2 -3.7 -2.25 -3.95 -1.8 -4.15 -3.05 -5.0 -3.0 -5.25 -3.2 -5.1 Q-4.0 -6.3 -2.25 -7.6 L-2.1 -7.75 Q-1.0 -8.65 0.45 -8.8 L0.65 -8.8 0.75 -8.65 0.75 -8.6 0.8 -8.6 0.8 -8.45 0.9 -7.6 0.9 -7.55 1.15 -5.35 1.2 -5.4 1.65 -5.4 1.55 -5.0 1.55 -4.5 1.6 -3.95 1.55 -3.8 1.4 -3.7 0.8 -3.45 0.8 -3.4 1.7 -1.55 3.85 -3.5 9.7 -3.6 10.2 3.3 10.45 3.9 15.75 -1.3 15.95 -1.25 17.45 -0.85 Q18.9 -0.3 19.25 0.75" fill="#ffffff" fill-rule="evenodd" stroke="none"/>
    <path d="M16.2 -3.25 Q20.25 -2.65 21.15 0.1 22.05 2.75 19.25 5.55 L15.1 8.85 18.3 15.4 6.7 17.95 -2.8 22.1 -3.95 12.95 -5.2 9.75 -10.35 0.85 -4.95 -2.05 -3.7 -2.3 -4.55 -3.55 -5.4 -4.0 -5.2 -4.65 Q-6.15 -7.15 -3.5 -9.2 L-3.4 -9.3 Q-1.7 -10.65 0.35 -10.8 L1.15 -10.8 2.1 -11.1 2.7 -9.15 2.75 -9.05 2.9 -7.5 4.3 -7.6 3.75 -5.5 11.55 -5.6 11.95 -0.35 15.05 -3.4 16.2 -3.25 M16.5 2.65 L17.35 1.35 16.4 0.85 9.9 7.3 8.2 3.8 7.85 -1.55 4.65 -1.5 3.65 -0.65 4.0 0.1 2.5 0.45 1.05 1.75 0.6 0.85 -3.55 1.75 -4.85 2.4 -1.55 8.15 -0.05 11.95 0.5 16.3 5.65 14.05 12.45 12.55 10.1 7.7 16.5 2.65" fill="#ffffff" fill-rule="evenodd" stroke="none"/>
    <path d="M-6.75 1.9 L-4.05 0.45 1.85 -0.85 4.1 -2.85 9.1 -2.95 9.55 3.45 14.45 13.55 5.9 15.4 -0.65 18.3 -1.4 12.3 -2.85 8.6 -6.75 1.9" fill="#d1c4a0" fill-rule="evenodd" stroke="none"/>
    <path d="M2.15 -0.25 L-3.8 1.05 -5.85 2.15 -2.25 8.3 -0.8 12.15 -0.15 17.4 5.7 14.8 13.55 13.1 8.95 3.65 8.55 -2.3 4.35 -2.25 2.15 -0.25 M3.85 -3.5 L9.7 -3.6 10.2 3.3 15.35 14.0 6.1 16.0 -1.15 19.2 -2.0 12.45 -3.4 8.85 -7.6 1.65 -4.25 -0.15 1.55 -1.4 3.85 -3.5" fill="#6e5d4e" fill-rule="evenodd" stroke="none"/>
    <path d="M8.05 6.45 L1.35 8.25 -0.5 9.35 -2.85 2.45 2.7 0.95 6.5 -0.75 8.05 6.45" fill="#faf6eb" fill-rule="evenodd" stroke="none"/>
    <path d="M2.8 1.25 L-2.45 2.7 -0.35 8.9 1.25 7.95 7.65 6.25 6.3 -0.3 2.8 1.25 M6.75 -1.2 L8.4 6.7 1.5 8.55 -0.7 9.85 -3.25 2.25 2.6 0.65 6.75 -1.2" fill="#907b52" fill-rule="evenodd" stroke="none"/>
    <path d="M0.55 11.3 L1.9 12.05 2.4 11.45 2.75 11.95 3.1 11.6 3.9 9.5 4.65 11.1 5.5 10.4 5.9 10.85 4.45 12.15 3.95 11.1 3.65 11.95 2.7 12.95 2.4 12.5 2.05 12.85 0.9 12.25 0.55 13.15 0.2 12.95 0.3 13.0 0.0 12.85 0.05 12.8 0.4 11.65 0.55 11.3" fill="#907b52" fill-rule="evenodd" stroke="none"/>
    <path d="M0.95 -4.85 L1.1 -4.5 1.0 -4.1 0.75 -4.0 0.45 -3.85 -0.1 -3.4 -0.3 -3.15 Q-0.7 -2.9 -0.85 -2.95 L-1.1 -3.35 -1.4 -3.55 -1.55 -3.9 -1.15 -4.0 0.35 -4.65 0.95 -4.85" fill="#aaaca4" fill-rule="evenodd" stroke="none"/>
    <path d="M0.55 -3.95 L1.95 -1.0 1.8 -0.9 1.9 -0.65 2.0 -0.75 1.75 0.05 0.3 -3.0 0.1 -3.25 0.15 -3.15 0.2 -3.2 0.2 -3.25 0.25 -3.55 0.2 -3.5 0.2 -3.55 0.25 -3.6 0.3 -3.75 0.35 -3.75 0.55 -3.95" fill="#6b655c" fill-rule="evenodd" stroke="none"/>
    <path d="M1.65 -5.4 L1.55 -5.0 1.55 -4.5 1.6 -3.95 1.55 -3.8 1.4 -3.7 0.8 -3.45 0.1 -3.05 -0.65 -2.5 -0.6 -2.4 -0.7 -2.4 -1.25 -2.65 -1.25 -2.7 -2.2 -3.7 -2.25 -3.95 -2.0 -4.05 -0.3 -4.85 1.2 -5.4 1.65 -5.4 M0.95 -4.2 L0.9 -4.4 0.9 -4.65 -1.4 -3.65 -0.85 -3.15 -0.2 -3.6 0.95 -4.2" fill="#6b655c" fill-rule="evenodd" stroke="none"/>
    <path d="M0.65 -5.25 Q0.6 -4.95 0.2 -4.75 L-0.9 -4.45 Q-1.05 -4.3 -1.15 -4.3 L-1.7 -4.7 -2.1 -5.05 -2.25 -5.25 -2.35 -5.35 -2.2 -5.6 -1.15 -6.05 Q-0.5 -6.35 -0.35 -6.6 L-0.1 -7.0 0.4 -7.3 0.55 -6.65 0.65 -5.25" fill="#aaaca4" fill-rule="evenodd" stroke="none"/>
    <path d="M-1.3 -4.1 L-2.95 -5.3 Q-3.4 -5.95 -2.85 -6.65 L-1.9 -7.5 Q-0.75 -8.45 0.45 -8.45 1.1 -7.45 -0.4 -6.45 -1.8 -5.3 -2.9 -5.3 L-1.3 -4.1" fill="#aaaca4" fill-rule="evenodd" stroke="none"/>
    <path d="M-0.2 -6.15 Q-1.15 -5.45 -2.05 -5.15 L-1.05 -4.3 -1.55 -3.9 -3.05 -5.0 -3.0 -5.25 -3.2 -5.1 Q-4.0 -6.3 -2.25 -7.6 L-2.1 -7.75 Q-1.0 -8.65 0.45 -8.8 L0.65 -8.8 0.75 -8.65 Q1.5 -7.45 -0.2 -6.15 M-1.9 -7.1 Q-3.05 -6.2 -2.75 -5.6 -1.8 -5.7 -0.6 -6.65 L-0.6 -6.7 Q0.5 -7.45 0.3 -8.15 -0.8 -8.05 -1.7 -7.25 L-1.9 -7.1" fill="#6b655c" fill-rule="evenodd" stroke="none"/>
    <path d="M0.6 -7.9 L1.0 -5.25 0.75 -5.1 0.6 -6.75 0.6 -7.9" fill="#a6a28b" fill-rule="evenodd" stroke="none"/>
    <path d="M0.8 -8.6 L0.9 -7.55 0.95 -6.8 1.0 -6.5 Q1.25 -5.5 1.1 -5.1 L1.2 -5.0 1.0 -4.9 0.5 -5.25 0.5 -5.3 0.35 -6.4 0.3 -6.7 0.2 -8.45 0.8 -8.6" fill="#6b655c" fill-rule="evenodd" stroke="none"/>
    <path d="M5.75 11.0 Q5.55 10.7 6.3 9.25 L7.1 7.8 15.9 -0.85 18.15 -0.15 Q19.9 1.05 17.55 3.85 L8.7 10.75 5.75 11.0" fill="#8b3d33" fill-rule="evenodd" stroke="none"/>
    <path d="M16.15 -0.7 L17.2 -0.5 18.1 0.3 Q18.4 0.75 18.5 1.55 18.65 2.45 18.3 2.75 L17.7 2.95 17.05 2.8 Q16.2 2.1 16.05 1.35 L15.85 0.1 Q15.85 -0.45 16.15 -0.7" fill="#ab4b41" fill-rule="evenodd" stroke="none"/>
    <path d="M9.05 10.25 Q8.85 10.6 8.05 10.75 L6.95 11.05 6.5 11.05 5.4 10.95 5.85 10.85 Q5.75 10.5 6.0 10.0 L6.65 9.1 7.25 8.05 Q7.1 8.6 8.1 9.5 L8.6 9.95 9.05 10.25" fill="#f8f1e1" fill-rule="evenodd" stroke="none"/>
    <path d="M11.05 6.4 L12.05 5.45 14.1 3.45 15.85 1.7 16.6 2.4 15.7 3.4 12.9 5.7 8.8 9.3 Q8.2 9.8 8.0 9.15 L7.85 9.05 7.95 8.9 9.05 8.25 9.95 7.25 11.05 6.4" fill="#ffffff" fill-opacity="0.25882354" fill-rule="evenodd" stroke="none"/>
    <path d="M18.45 1.0 Q18.15 0.05 16.05 -0.4 L7.45 8.1 Q6.3 10.3 6.35 10.6 L6.35 10.65 6.5 10.65 8.8 10.15 17.25 3.5 Q18.8 1.95 18.45 1.0 M17.85 4.1 L9.25 10.85 9.2 10.9 9.1 10.95 6.5 11.5 5.95 11.35 Q5.35 11.0 5.55 10.25 L6.7 7.65 6.75 7.55 15.75 -1.3 15.95 -1.25 17.45 -0.85 Q18.9 -0.3 19.25 0.75 19.8 2.2 17.85 4.1" fill="#4b2c2b" fill-rule="evenodd" stroke="none"/>
    <path d="M16.35 -0.6 Q15.85 1.95 17.85 3.0 L17.6 3.55 Q15.1 2.25 15.75 -0.7 L15.75 -0.8 15.9 -0.5 16.05 -0.8 15.8 -1.0 16.2 -1.1 Q16.45 -0.95 16.35 -0.6" fill="#4b2c2b" fill-rule="evenodd" stroke="none"/>
    <path d="M8.2 8.8 L8.8 9.45 8.95 9.65 9.3 9.9 9.15 10.0 9.65 10.4 9.3 10.55 8.75 10.35 8.45 10.05 7.8 9.25 7.15 8.4 7.2 7.85 7.2 7.8 Q7.2 7.35 7.45 7.2 L7.75 7.75 7.85 7.65 7.8 7.85 7.8 8.0 7.8 8.3 8.2 8.8" fill="#4b2c2b" fill-rule="evenodd" stroke="none"/>
    <path d="M6.0 10.5 L6.45 9.7 Q6.45 10.4 6.9 10.2 L7.25 10.6 6.55 10.85 Q5.95 10.9 6.05 10.6 L6.0 10.5" fill="#4b2c2b" fill-rule="evenodd" stroke="none"/>
  </g>
</svg>
