<?xml version="1.0" encoding="UTF-8" standalone="no"?>
<svg xmlns:xlink="http://www.w3.org/1999/xlink" height="42.55px" width="32.0px" xmlns="http://www.w3.org/2000/svg">
  <g transform="matrix(1.0, 0.0, 0.0, 1.0, 16.25, 20.8)">
    <path d="M11.0 -18.6 Q11.1 -17.0 9.35 -16.5 9.25 -16.45 9.05 -16.65 L8.45 -17.2 Q8.25 -18.35 9.15 -19.3 10.0 -20.25 10.95 -18.95 L11.0 -18.6 M13.1 -16.8 Q13.2 -15.3 11.8 -15.45 L11.45 -15.55 11.0 -15.85 Q10.9 -16.75 11.7 -17.5 12.3 -18.05 12.9 -17.35 L13.1 -16.8 M12.95 -14.25 Q12.85 -16.25 14.5 -15.7 L14.65 -15.45 Q15.0 -14.8 13.95 -14.1 13.45 -13.75 12.95 -14.25 M15.75 -13.5 Q15.9 -12.05 14.35 -12.5 14.1 -14.45 15.65 -13.75 L15.75 -13.5 M6.9 -20.8 Q7.9 -20.6 8.1 -19.6 8.3 -18.15 6.65 -16.65 5.6 -15.8 4.5 -17.25 L4.3 -17.45 Q4.35 -19.15 6.15 -20.7 L6.5 -20.8 6.9 -20.8 M6.7 -15.45 Q10.55 -15.5 14.35 -10.95 L14.6 -10.75 Q15.4 -7.75 13.8 -4.8 L12.2 -1.75 Q10.95 0.4 10.8 2.65 L10.4 4.85 9.85 7.0 Q8.65 8.45 7.5 9.0 L7.25 9.15 Q5.5 9.35 3.7 7.6 L3.5 7.4 Q2.9 4.65 4.2 1.8 L4.1 1.65 Q5.4 0.3 6.75 -0.35 7.65 -0.85 8.6 -2.1 9.6 -3.45 9.8 -4.85 10.0 -6.1 8.85 -7.4 7.55 -8.55 6.3 -7.9 L4.5 -7.75 Q3.2 -9.35 3.2 -10.95 3.25 -12.5 4.1 -14.1 5.3 -15.1 6.5 -15.35 L6.7 -15.45 M-14.6 2.65 Q-16.0 3.55 -16.25 2.05 L-16.2 1.85 Q-14.9 0.7 -14.6 2.65 M-8.8 -7.35 Q-6.65 -6.35 -6.2 -4.7 L-6.3 -4.45 Q-7.0 -2.75 -8.25 -3.35 -10.25 -4.35 -10.4 -5.8 -10.55 -6.8 -9.55 -7.3 L-9.15 -7.4 -8.8 -7.35 M-14.45 -2.4 Q-14.05 -3.2 -13.35 -2.85 -12.35 -2.35 -12.3 -1.4 L-12.65 -1.05 -12.95 -0.85 Q-14.25 -0.35 -14.55 -1.85 L-14.45 -2.4 M-11.35 -5.3 Q-10.2 -4.55 -10.15 -3.4 L-10.55 -2.7 -10.85 -2.45 Q-12.65 -2.5 -13.0 -4.1 L-13.0 -4.45 Q-12.45 -5.95 -11.35 -5.3 M-15.65 -0.15 L-15.6 -0.35 Q-14.1 -1.35 -13.75 0.65 -14.05 1.3 -14.65 1.05 -15.8 0.65 -15.65 -0.15 M1.0 19.05 L0.85 19.35 Q-0.4 21.5 -2.2 21.75 L-2.4 21.7 Q-3.7 21.4 -5.2 20.35 L-6.3 18.4 -7.25 16.4 Q-8.0 14.25 -9.75 12.45 L-12.1 10.0 Q-14.4 7.5 -14.35 4.4 L-14.25 4.15 Q-11.7 -1.25 -7.95 -2.15 L-7.75 -2.1 Q-6.6 -2.2 -5.15 -1.5 -3.9 -0.2 -3.5 1.3 -3.05 2.85 -3.9 4.65 -4.65 5.3 -5.65 5.0 -7.05 4.7 -7.95 6.2 -8.75 7.7 -8.25 8.9 -7.65 10.15 -6.35 11.2 -5.15 12.2 -4.1 12.4 -2.65 12.7 -1.05 13.7 L-1.1 13.85 Q0.85 16.25 1.0 19.05" fill="#ff9900" fill-rule="evenodd" stroke="none"/>
  </g>
</svg>
