<?xml version="1.0" encoding="UTF-8" standalone="no"?>
<svg xmlns:xlink="http://www.w3.org/1999/xlink" height="35.25px" width="35.85px" xmlns="http://www.w3.org/2000/svg">
  <g transform="matrix(1.0, 0.0, 0.0, 1.0, 15.65, 26.75)">
    <path d="M9.75 -22.25 Q12.3 -21.6 14.4 -20.35 16.25 -19.2 16.15 -18.7 16.0 -17.95 14.15 -15.15 12.2 -12.3 11.65 -12.3 L8.45 -13.55 Q5.5 -14.35 4.65 -12.35 3.7 -10.15 4.15 -7.75 4.4 -6.55 4.8 -5.8 10.6 -6.05 10.6 -5.3 11.0 -4.3 6.0 0.05 1.05 4.4 -0.35 4.5 -1.8 4.6 -6.95 0.25 -12.2 -4.2 -11.55 -5.5 -11.1 -6.05 -8.4 -5.95 L-5.8 -5.8 Q-6.2 -7.95 -5.95 -10.7 -5.5 -16.3 -2.25 -19.5 2.45 -24.1 9.75 -22.25" fill="#ffffff" fill-rule="evenodd" stroke="none"/>
    <path d="M20.1 -18.0 Q16.9 -10.15 13.1 -8.6 14.45 -7.5 14.6 -5.75 14.8 -4.05 13.7 -2.25 12.2 0.1 7.6 3.95 2.45 8.25 0.0 8.5 L-0.4 8.5 Q-3.15 8.5 -8.3 4.35 -12.95 0.6 -14.6 -2.05 -16.35 -4.85 -15.15 -7.3 L-14.85 -7.85 -14.45 -8.3 Q-13.0 -9.75 -10.0 -9.95 -9.7 -17.8 -5.05 -22.35 -0.65 -26.75 5.85 -26.75 9.9 -26.75 13.95 -25.05 17.5 -23.5 19.0 -21.7 20.5 -19.9 20.1 -18.0 M10.6 -17.05 L11.0 -17.6 Q8.4 -18.75 5.85 -18.75 2.65 -18.75 0.55 -16.65 -1.7 -14.45 -2.0 -10.3 -2.15 -8.2 -1.85 -6.55 L-0.8 -1.2 -2.65 -1.4 -0.5 0.1 2.35 -2.05 1.35 -3.8 Q0.55 -5.1 0.2 -7.1 -0.45 -10.65 1.0 -13.95 1.8 -15.75 3.35 -16.75 4.9 -17.75 6.9 -17.75 L10.6 -17.05" fill="#ffffff" fill-rule="evenodd" stroke="none"/>
    <path d="M9.75 -22.25 Q12.3 -21.6 14.4 -20.35 16.25 -19.2 16.15 -18.7 16.0 -17.95 14.15 -15.15 12.2 -12.3 11.65 -12.3 L8.45 -13.55 Q5.5 -14.35 4.65 -12.35 3.7 -10.15 4.15 -7.75 4.4 -6.55 4.8 -5.8 10.6 -6.05 10.6 -5.3 11.0 -4.3 6.0 0.05 1.05 4.4 -0.35 4.5 -1.8 4.6 -6.95 0.25 -12.2 -4.2 -11.55 -5.5 -11.1 -6.05 -8.4 -5.95 L-5.8 -5.8 Q-6.2 -7.95 -5.95 -10.7 -5.5 -16.3 -2.25 -19.5 2.45 -24.1 9.75 -22.25" fill="url(#gradient0)" fill-rule="evenodd" stroke="none"/>
    <path d="M1.75 -21.7 Q6.05 -23.65 8.4 -21.65 2.45 -20.25 0.15 -16.1 -2.1 -12.15 -1.6 -4.25 L9.2 -3.5 Q7.95 -1.1 3.45 2.35 -0.95 5.7 -1.9 5.2 -3.75 4.2 -8.85 -1.45 -10.6 -3.3 -10.6 -4.0 -10.55 -5.15 -6.9 -4.95 -6.55 -9.55 -6.05 -11.65 -5.4 -14.8 -3.75 -17.35 -2.05 -19.95 1.75 -21.7" fill="#ffffff" fill-opacity="0.29803923" fill-rule="evenodd" stroke="none"/>
    <path d="M5.2 -11.8 L4.3 -9.25 Q3.9 -7.65 4.25 -7.2 L3.85 -7.6 Q3.05 -10.75 3.25 -12.6 3.55 -15.1 5.6 -17.05 7.55 -18.95 10.35 -19.3 L15.55 -19.05 Q15.55 -18.15 14.9 -16.9 L13.7 -14.9 Q12.75 -13.35 12.25 -13.05 L10.05 -13.0 7.3 -13.45 Q6.05 -13.35 5.2 -11.8" fill="#996a1b" fill-opacity="0.49803922" fill-rule="evenodd" stroke="none"/>
    <path d="M17.15 -18.55 Q13.45 -11.3 11.65 -11.3 11.3 -11.3 10.3 -11.75 8.05 -12.75 6.9 -12.75 5.9 -12.75 5.55 -11.95 4.5 -9.4 5.45 -6.8 L7.0 -6.85 10.4 -6.6 Q11.55 -6.25 11.6 -5.45 11.8 -4.65 11.15 -3.9 9.85 -1.85 5.6 1.7 1.25 5.35 -0.25 5.5 L-0.4 5.5 Q-2.0 5.5 -6.35 2.0 -10.65 -1.4 -12.05 -3.65 -12.9 -5.1 -12.45 -5.95 L-12.3 -6.2 Q-11.55 -6.95 -9.0 -6.95 L-6.95 -6.9 Q-7.25 -10.1 -6.65 -12.95 -5.8 -17.45 -2.95 -20.25 0.55 -23.75 5.85 -23.75 9.3 -23.75 12.75 -22.3 15.65 -21.1 16.7 -19.8 17.25 -19.2 17.15 -18.55 M5.85 -21.75 Q1.5 -21.75 -1.55 -18.8 -4.5 -15.85 -4.95 -10.65 -5.15 -8.05 -4.8 -6.0 L-4.55 -4.65 -5.9 -4.8 -9.0 -4.95 -10.5 -4.9 Q-9.7 -3.3 -5.6 0.05 -1.6 3.3 -0.4 3.5 0.75 3.25 4.5 0.05 8.2 -3.1 9.35 -4.75 L7.0 -4.85 4.25 -4.75 3.95 -5.3 Q3.45 -6.05 3.15 -7.6 2.65 -10.25 3.75 -12.75 4.6 -14.75 6.9 -14.75 8.6 -14.75 11.1 -13.55 L11.55 -13.35 13.45 -15.9 15.05 -18.65 Q14.15 -19.55 11.8 -20.5 8.8 -21.75 5.85 -21.75" fill="#996a1b" fill-rule="evenodd" stroke="none"/>
  </g>
  <defs>
    <linearGradient gradientTransform="matrix(0.0169, 0.0, 0.0, -0.0169, 8.0, -9.15)" gradientUnits="userSpaceOnUse" id="gradient0" spreadMethod="pad" x1="-819.2" x2="819.2">
      <stop offset="0.0" stop-color="#ffdf3b"/>
      <stop offset="1.0" stop-color="#75441c"/>
    </linearGradient>
  </defs>
</svg>
