<?xml version="1.0" encoding="UTF-8" standalone="no"?>
<svg xmlns:xlink="http://www.w3.org/1999/xlink" height="28.0px" width="23.8px" xmlns="http://www.w3.org/2000/svg">
  <g transform="matrix(1.0, 0.0, 0.0, 1.0, 0.0, 0.0)">
    <path d="M20.55 14.7 L17.3 22.35 17.3 24.9 8.55 24.9 8.55 22.5 2.65 17.4 Q2.45 16.45 2.6 15.6 2.8 13.85 4.3 14.15 5.75 14.45 6.4 15.45 L6.7 16.35 7.3 15.55 3.65 5.2 Q3.7 4.4 4.15 3.75 4.95 2.4 6.7 3.15 L10.1 10.75 10.85 10.55 10.3 8.35 11.4 7.15 Q12.7 6.3 13.55 8.2 L13.6 10.55 14.85 10.85 14.95 9.3 16.2 8.55 Q17.5 8.25 17.75 10.35 L17.7 12.1 18.45 12.55 19.1 11.3 20.1 11.25 Q21.15 11.5 21.25 13.0 L20.55 14.7" fill="#ffffff" fill-rule="evenodd" stroke="none"/>
    <path d="M22.85 16.0 L19.85 23.0 Q19.85 27.0 19.2 27.45 L12.9 28.0 6.7 27.45 Q6.4 27.15 6.2 25.55 L6.0 23.95 0.4 19.05 0.2 18.05 Q-0.4 14.75 0.95 12.75 1.8 11.6 3.1 11.3 L1.1 5.65 1.15 4.95 Q1.25 2.95 2.4 1.55 3.7 0.0 5.6 0.0 6.55 0.0 7.6 0.45 L8.55 0.85 10.2 4.55 Q11.15 3.95 12.15 3.95 14.0 3.95 15.25 5.85 L16.55 5.6 Q18.95 5.6 19.9 8.3 21.55 8.4 22.6 9.6 23.65 10.85 23.8 12.8 L23.8 13.0 Q23.8 13.85 22.85 16.0 M11.1 22.0 L14.75 22.0 14.75 21.7 17.5 15.25 15.05 13.9 15.05 13.85 12.2 13.2 9.45 13.85 10.25 16.15 8.3 18.65 11.1 21.1 11.1 22.0" fill="#ffffff" fill-rule="evenodd" stroke="none"/>
    <path d="M20.55 14.7 L17.3 22.35 17.3 24.9 8.55 24.9 8.55 22.5 2.65 17.4 Q2.45 16.45 2.6 15.6 2.8 13.85 4.3 14.15 5.75 14.45 6.4 15.45 L6.7 16.35 7.3 15.55 3.65 5.2 Q3.7 4.4 4.15 3.75 4.95 2.4 6.7 3.15 L10.1 10.75 10.85 10.55 10.3 8.35 11.4 7.15 Q12.7 6.3 13.55 8.2 L13.6 10.55 14.85 10.85 14.95 9.3 16.2 8.55 Q17.5 8.25 17.75 10.35 L17.7 12.1 18.45 12.55 19.1 11.3 20.1 11.25 Q21.15 11.5 21.25 13.0 L20.55 14.7" fill="url(#gradient0)" fill-rule="evenodd" stroke="none"/>
    <path d="M21.05 14.95 L17.85 22.45 17.85 25.45 8.05 25.45 8.05 22.75 2.15 17.65 2.15 17.5 Q1.7 15.2 2.55 14.15 3.25 13.35 4.4 13.65 5.6 13.9 6.45 14.65 L3.1 5.25 3.15 5.15 Q3.2 4.2 3.7 3.4 4.4 2.35 5.6 2.35 L6.95 2.65 7.1 2.75 9.85 8.85 9.7 8.3 9.8 8.1 Q10.0 7.65 10.55 7.15 11.35 6.35 12.15 6.35 13.3 6.35 14.05 8.0 L14.15 10.15 14.35 10.2 14.45 9.05 14.6 8.95 Q15.6 7.95 16.55 7.95 18.0 7.95 18.3 10.25 L18.25 11.75 18.7 10.85 18.9 10.8 19.7 10.7 Q21.65 10.7 21.8 12.95 L21.05 14.95 M10.85 8.45 L11.5 10.95 9.8 11.35 6.3 3.6 5.6 3.45 Q4.45 3.45 4.2 5.1 L7.9 15.65 6.15 17.85 6.15 16.35 Q6.05 15.1 4.2 14.7 L3.85 14.65 Q3.5 14.65 3.4 14.85 2.9 15.4 3.15 17.1 L9.1 22.3 9.1 24.35 16.75 24.35 16.75 22.25 20.7 12.95 Q20.6 11.6 19.45 11.75 L18.65 13.3 17.15 12.45 17.25 10.35 Q17.0 9.05 16.55 9.05 16.05 9.05 15.45 9.55 L15.3 11.5 13.1 11.0 13.0 8.3 Q12.6 7.4 12.15 7.4 11.65 7.4 10.85 8.45" fill="#986f2b" fill-rule="evenodd" stroke="none"/>
    <path d="M21.25 13.0 L20.7 14.45 Q10.7 10.8 8.8 17.25 6.5 17.25 6.05 20.35 L2.65 17.4 Q2.45 16.45 2.6 15.6 2.8 13.85 4.3 14.15 5.75 14.45 6.4 15.45 L6.7 16.35 7.3 15.55 3.65 5.2 Q3.7 4.4 4.15 3.75 4.95 2.4 6.7 3.15 L10.1 10.75 10.85 10.55 10.3 8.35 11.4 7.15 Q12.7 6.3 13.55 8.2 L13.6 10.55 14.85 10.85 14.95 9.3 16.2 8.55 Q17.5 8.25 17.75 10.35 L17.7 12.1 18.45 12.55 19.1 11.3 20.1 11.25 Q21.15 11.5 21.25 13.0" fill="#ffffff" fill-opacity="0.29803923" fill-rule="evenodd" stroke="none"/>
    <path d="M21.05 14.95 L17.85 22.45 17.85 25.45 8.05 25.45 8.05 22.75 2.15 17.65 2.15 17.5 Q1.7 15.2 2.55 14.15 3.25 13.35 4.4 13.65 5.6 13.9 6.45 14.65 L3.1 5.25 3.15 5.15 Q3.2 4.2 3.7 3.4 4.4 2.35 5.6 2.35 L6.95 2.65 7.1 2.75 9.85 8.85 9.7 8.3 9.8 8.1 Q10.0 7.65 10.55 7.15 11.35 6.35 12.15 6.35 13.3 6.35 14.05 8.0 L14.15 10.15 14.35 10.2 14.45 9.05 14.6 8.95 Q15.6 7.95 16.55 7.95 18.0 7.95 18.3 10.25 L18.25 11.75 18.7 10.85 18.9 10.8 19.7 10.7 Q21.65 10.7 21.8 12.95 L21.05 14.95 M10.85 8.45 L11.5 10.95 9.8 11.35 6.3 3.6 5.6 3.45 Q4.45 3.45 4.2 5.1 L7.9 15.65 6.15 17.85 6.15 16.35 Q6.05 15.1 4.2 14.7 L3.85 14.65 Q3.5 14.65 3.4 14.85 2.9 15.4 3.15 17.1 L9.1 22.3 9.1 24.35 16.75 24.35 16.75 22.25 20.7 12.95 Q20.6 11.6 19.45 11.75 L18.65 13.3 17.15 12.45 17.25 10.35 Q17.0 9.05 16.55 9.05 16.05 9.05 15.45 9.55 L15.3 11.5 13.1 11.0 13.0 8.3 Q12.6 7.4 12.15 7.4 11.65 7.4 10.85 8.45" fill="#986f2b" fill-rule="evenodd" stroke="none"/>
    <path d="M7.6 21.7 L12.4 22.4 Q15.25 22.35 17.1 21.6 17.65 23.8 16.35 24.6 L13.2 25.2 9.45 25.0 8.7 24.7 8.45 23.85 8.25 23.0 7.8 22.25 Q7.8 22.0 8.1 22.1 L7.6 21.7" fill="#986f2b" fill-rule="evenodd" stroke="none"/>
  </g>
  <defs>
    <linearGradient gradientTransform="matrix(0.0074, 0.013, 0.013, -0.0074, 13.8, 18.15)" gradientUnits="userSpaceOnUse" id="gradient0" spreadMethod="pad" x1="-819.2" x2="819.2">
      <stop offset="0.0" stop-color="#fce13b"/>
      <stop offset="0.49019607843137253" stop-color="#facf20"/>
      <stop offset="0.7254901960784313" stop-color="#d09f29"/>
      <stop offset="1.0" stop-color="#a8712d"/>
    </linearGradient>
  </defs>
</svg>
