<?xml version="1.0" encoding="UTF-8" standalone="no"?>
<svg xmlns:xlink="http://www.w3.org/1999/xlink" height="27.6px" width="28.05px" xmlns="http://www.w3.org/2000/svg">
  <g transform="matrix(1.0, 0.0, 0.0, 1.0, 11.85, 27.8)">
    <path d="M8.05 -24.3 Q10.05 -23.75 11.7 -22.8 13.15 -21.9 13.05 -21.5 12.95 -20.9 11.5 -18.7 9.95 -16.5 9.55 -16.5 L7.05 -17.45 Q4.75 -18.1 4.05 -16.55 3.3 -14.8 3.65 -12.9 3.85 -12.0 4.2 -11.4 8.7 -11.6 8.7 -11.0 9.05 -10.2 5.1 -6.8 1.25 -3.4 0.15 -3.35 -1.0 -3.25 -5.05 -6.65 -9.15 -10.15 -8.65 -11.15 -8.3 -11.6 -6.15 -11.5 L-4.1 -11.4 Q-4.45 -13.1 -4.25 -15.25 -3.9 -19.6 -1.35 -22.1 2.35 -25.75 8.05 -24.3" fill="#ffffff" fill-rule="evenodd" stroke="none"/>
    <path d="M16.15 -20.95 Q13.65 -14.8 10.7 -13.6 11.75 -12.75 11.85 -11.35 12.0 -10.05 11.15 -8.6 9.95 -6.8 6.35 -3.75 2.35 -0.4 0.4 -0.2 L0.1 -0.2 Q-2.05 -0.2 -6.1 -3.45 -9.7 -6.4 -11.0 -8.45 -12.4 -10.65 -11.45 -12.55 L-11.2 -13.0 -10.9 -13.35 Q-9.75 -14.5 -7.4 -14.65 -7.2 -20.8 -3.55 -24.35 -0.1 -27.8 5.0 -27.8 8.15 -27.8 11.35 -26.45 14.1 -25.25 15.3 -23.85 16.45 -22.45 16.15 -20.95 M8.7 -20.2 L9.05 -20.65 Q7.0 -21.55 5.0 -21.55 2.5 -21.55 0.85 -19.9 -0.9 -18.15 -1.15 -14.9 L-1.05 -12.0 -0.2 -7.8 -1.65 -7.95 0.05 -6.8 2.25 -8.45 1.5 -9.85 Q0.85 -10.85 0.55 -12.4 0.05 -15.2 1.2 -17.8 1.85 -19.2 3.05 -19.95 4.25 -20.75 5.8 -20.75 L8.7 -20.2" fill="#ffffff" fill-rule="evenodd" stroke="none"/>
    <path d="M8.05 -24.3 Q10.05 -23.75 11.7 -22.8 13.15 -21.9 13.05 -21.5 12.95 -20.9 11.5 -18.7 9.95 -16.5 9.55 -16.5 L7.05 -17.45 Q4.75 -18.1 4.05 -16.55 3.3 -14.8 3.65 -12.9 3.85 -12.0 4.2 -11.4 8.7 -11.6 8.7 -11.0 9.05 -10.2 5.1 -6.8 1.25 -3.4 0.15 -3.35 -1.0 -3.25 -5.05 -6.65 -9.15 -10.15 -8.65 -11.15 -8.3 -11.6 -6.15 -11.5 L-4.1 -11.4 Q-4.45 -13.1 -4.25 -15.25 -3.9 -19.6 -1.35 -22.1 2.35 -25.75 8.05 -24.3" fill="url(#gradient0)" fill-rule="evenodd" stroke="none"/>
    <path d="M1.8 -23.85 Q5.15 -25.35 7.0 -23.8 2.35 -22.7 0.55 -19.45 -1.25 -16.35 -0.85 -10.2 L7.6 -9.6 Q6.65 -7.7 3.1 -5.0 -0.35 -2.4 -1.05 -2.8 -2.5 -3.55 -6.5 -8.0 -7.9 -9.45 -7.9 -10.0 -7.85 -10.9 -5.0 -10.75 L-4.3 -16.0 Q-3.8 -18.45 -2.5 -20.45 -1.2 -22.5 1.8 -23.85" fill="#ffffff" fill-opacity="0.29803923" fill-rule="evenodd" stroke="none"/>
    <path d="M4.5 -16.1 L3.8 -14.1 Q3.45 -12.85 3.75 -12.5 L3.45 -12.8 Q2.8 -15.25 2.95 -16.7 3.2 -18.7 4.8 -20.2 6.35 -21.7 8.5 -21.95 L12.6 -21.75 Q12.6 -21.05 12.1 -20.1 L11.15 -18.5 10.0 -17.05 Q9.55 -16.8 8.3 -17.05 L6.15 -17.4 Q5.15 -17.3 4.5 -16.1" fill="#996a1b" fill-opacity="0.49803922" fill-rule="evenodd" stroke="none"/>
    <path d="M13.85 -21.4 Q10.95 -15.7 9.55 -15.7 9.25 -15.7 8.5 -16.05 6.7 -16.85 5.8 -16.85 5.05 -16.85 4.75 -16.2 3.95 -14.2 4.7 -12.2 L5.9 -12.2 8.55 -12.0 Q9.45 -11.75 9.5 -11.1 9.65 -10.5 9.15 -9.9 8.15 -8.3 4.8 -5.5 1.4 -2.65 0.2 -2.55 L0.1 -2.55 Q-1.15 -2.55 -4.55 -5.3 -7.9 -7.95 -9.0 -9.7 -9.7 -10.85 -9.35 -11.5 L-9.2 -11.7 Q-8.65 -12.3 -6.65 -12.3 L-5.05 -12.25 Q-5.25 -14.75 -4.8 -17.0 -4.1 -20.5 -1.9 -22.7 0.85 -25.45 5.0 -25.45 7.7 -25.45 10.4 -24.3 12.65 -23.4 13.5 -22.35 13.95 -21.9 13.85 -21.4 M5.0 -23.9 Q1.6 -23.9 -0.8 -21.6 -3.1 -19.25 -3.45 -15.2 -3.6 -13.15 -3.35 -11.55 L-3.15 -10.5 -4.2 -10.6 -6.65 -10.75 -7.8 -10.7 Q-7.2 -9.45 -3.95 -6.8 -0.85 -4.25 0.1 -4.1 1.0 -4.3 3.95 -6.8 6.85 -9.3 7.75 -10.55 L5.9 -10.65 3.75 -10.55 3.5 -11.0 Q3.1 -11.6 2.9 -12.8 2.5 -14.9 3.35 -16.85 4.0 -18.4 5.8 -18.4 7.15 -18.4 9.1 -17.45 L9.45 -17.3 10.95 -19.3 12.2 -21.45 Q11.5 -22.15 9.65 -22.9 7.3 -23.9 5.0 -23.9" fill="#996a1b" fill-rule="evenodd" stroke="none"/>
  </g>
  <defs>
    <linearGradient gradientTransform="matrix(0.0133, 0.0, 0.0, -0.0133, 6.7, -14.0)" gradientUnits="userSpaceOnUse" id="gradient0" spreadMethod="pad" x1="-819.2" x2="819.2">
      <stop offset="0.0" stop-color="#ffdf3b"/>
      <stop offset="1.0" stop-color="#75441c"/>
    </linearGradient>
  </defs>
</svg>
