<?xml version="1.0" encoding="UTF-8" standalone="no"?>
<svg xmlns:xlink="http://www.w3.org/1999/xlink" height="30.0px" width="32.45px" xmlns="http://www.w3.org/2000/svg">
  <g transform="matrix(1.0, 0.0, 0.0, 1.0, 8.0, 4.7)">
    <path d="M7.9 5.85 L7.9 5.5 7.8 5.8 7.9 5.85 M20.4 7.9 L21.35 8.2 22.4 8.6 23.2 9.25 Q24.1 10.8 24.0 12.3 L23.35 14.3 23.25 14.6 Q22.65 16.05 20.5 16.9 L18.7 17.4 16.95 17.2 16.8 17.15 16.7 17.0 Q13.55 13.8 11.85 13.0 L10.9 12.75 10.25 12.65 9.8 12.25 9.1 11.6 8.75 11.3 9.55 15.35 10.1 17.95 Q10.8 18.55 10.85 20.15 L10.85 20.2 Q10.85 21.3 10.25 22.45 9.75 23.45 8.9 24.05 7.75 24.8 6.15 24.8 4.65 24.8 3.35 24.2 1.8 23.45 0.95 21.95 L0.35 20.5 0.3 20.3 2.35 11.95 1.75 11.7 0.7 11.6 0.65 11.55 -0.2 11.05 0.3 10.2 Q1.05 9.0 2.15 8.3 L2.05 8.25 -1.15 7.15 -1.45 7.0 -1.55 6.9 -5.6 3.55 Q-7.55 1.25 -7.5 -0.9 L-7.2 -2.0 -6.35 -2.55 -5.45 -2.2 2.4 3.55 0.85 -1.65 0.7 -2.3 Q0.5 -3.3 0.95 -3.85 1.35 -4.3 1.9 -4.2 L1.95 -4.2 3.0 -3.85 Q4.2 -3.25 5.35 -1.75 6.5 -0.25 7.7 2.35 L7.75 2.4 7.75 2.5 Q8.05 3.5 8.0 4.55 L8.4 4.1 Q8.85 3.75 9.35 3.95 L9.45 4.0 Q10.3 4.45 11.35 6.05 L11.45 6.2 11.5 6.4 14.85 6.5 Q17.8 6.85 20.4 7.9" fill="#ffffff" fill-rule="evenodd" stroke="none"/>
    <path d="M23.6 9.0 Q24.6 10.7 24.45 12.35 L23.8 14.5 23.7 14.8 Q23.0 16.45 20.7 17.4 L18.15 17.9 16.75 17.65 16.5 17.55 16.35 17.35 Q13.3 14.25 11.65 13.45 L10.9 13.25 10.85 13.25 10.05 13.1 9.6 12.8 10.05 15.3 10.05 15.35 10.5 17.7 Q11.3 18.45 11.35 20.1 L11.35 20.2 Q11.35 21.4 10.7 22.7 9.3 25.3 6.15 25.3 L6.1 25.3 Q4.45 25.25 3.15 24.65 1.5 23.85 0.5 22.2 L-0.15 20.6 -0.2 20.3 1.75 12.25 1.65 12.2 1.35 12.2 0.5 12.05 -0.9 11.25 -0.1 9.95 1.1 8.5 -1.35 7.6 -1.75 7.4 -1.85 7.35 -6.0 3.8 Q-8.05 1.4 -8.0 -0.9 -8.0 -1.7 -7.55 -2.3 -7.15 -2.85 -6.45 -3.0 L-6.3 -3.05 -5.2 -2.65 -5.1 -2.6 1.5 2.3 0.2 -2.2 Q-0.05 -3.4 0.6 -4.15 1.15 -4.8 1.95 -4.7 L2.05 -4.7 3.25 -4.3 Q5.75 -3.05 8.15 2.15 L8.25 2.35 8.45 3.5 Q9.0 3.3 9.55 3.5 L9.65 3.55 Q10.6 4.0 11.8 5.8 L11.85 5.9 12.5 5.9 Q16.75 5.9 20.6 7.45 L21.5 7.75 22.6 8.15 23.6 9.0 M20.25 8.35 Q16.5 6.85 12.5 6.85 L11.1 6.95 11.0 6.4 10.95 6.35 Q9.95 4.8 9.25 4.45 L9.15 4.45 8.65 4.45 8.45 4.75 7.55 4.55 7.3 2.6 7.25 2.55 Q5.0 -2.35 2.8 -3.4 L1.85 -3.7 1.8 -3.7 1.75 -3.75 1.35 -3.5 Q1.05 -3.2 1.15 -2.45 L3.25 4.8 2.1 3.95 -5.7 -1.8 -6.35 -2.05 Q-7.0 -1.75 -7.0 -0.9 -7.1 2.7 -1.3 6.5 L-0.9 6.7 Q0.15 7.25 2.15 7.8 L3.4 8.15 2.4 8.75 Q1.4 9.35 0.75 10.45 L0.45 10.9 0.9 11.15 1.35 11.2 1.7 11.2 1.85 11.15 2.9 11.7 0.8 20.3 0.85 20.4 1.4 21.7 Q2.15 23.05 3.55 23.75 4.75 24.3 6.15 24.3 L6.15 24.8 6.15 24.3 Q8.75 24.3 9.8 22.25 L10.3 20.85 10.4 20.15 10.3 19.3 Q10.1 18.65 9.75 18.35 L9.65 18.25 9.6 18.1 9.1 15.5 9.1 15.45 8.3 11.4 7.9 9.9 9.4 11.2 10.2 11.95 10.45 12.2 10.85 12.25 10.9 12.25 12.1 12.55 Q13.9 13.45 17.05 16.65 L17.1 16.7 17.15 16.75 18.15 16.9 20.35 16.45 Q22.2 15.7 22.8 14.4 L22.9 14.1 23.5 12.25 Q23.6 10.95 22.75 9.5 L22.15 9.05 21.25 8.7 20.25 8.35 M7.95 5.45 L8.0 5.35 8.1 5.4 8.05 5.5 8.4 5.5 8.4 6.55 7.25 6.1 7.4 5.4 7.95 5.45" fill="#ffffff" fill-rule="evenodd" stroke="none"/>
    <path d="M6.75 5.95 L5.25 6.95 4.95 8.55 4.75 8.9 4.1 9.0 3.6 8.5 3.65 8.25 4.15 6.4 1.6 -2.5 1.6 -3.1 1.8 -3.25 Q2.95 -3.0 3.9 -2.05 5.35 -0.6 6.9 2.75 7.2 3.8 7.1 4.8 L6.75 5.95" fill="#bcdce0" fill-rule="evenodd" stroke="none"/>
    <path d="M7.3 7.65 L4.45 6.75 2.25 7.35 Q-0.4 6.55 -1.0 6.2 L-4.05 3.85 Q-6.65 1.35 -6.6 -0.9 -6.6 -1.5 -6.15 -1.6 L-1.1 2.15 3.8 5.75 4.35 5.7 5.3 5.85 8.6 7.15 8.6 7.65 Q8.5 8.15 8.1 8.05 L7.45 7.8 7.3 7.65" fill="#bcdce0" fill-rule="evenodd" stroke="none"/>
    <path d="M8.6 7.15 L8.6 7.65 Q8.5 8.15 8.1 8.05 L7.45 7.8 7.3 7.65 5.25 7.0 4.95 8.55 4.75 8.9 4.1 9.0 3.6 8.5 3.65 8.25 4.05 6.85 2.25 7.35 Q-0.4 6.55 -1.0 6.2 L-4.05 3.85 Q-6.65 1.35 -6.6 -0.9 -6.6 -1.5 -6.15 -1.6 L-1.1 2.15 3.8 5.75 3.95 5.7 Q1.7 -1.9 1.6 -2.5 L1.6 -3.1 1.8 -3.25 Q2.95 -3.0 3.9 -2.05 5.35 -0.6 6.9 2.75 7.2 3.8 7.1 4.8 L6.75 5.95 6.35 6.25 8.6 7.15" fill="url(#gradient0)" fill-rule="evenodd" stroke="none"/>
    <path d="M7.2 2.65 Q7.5 3.75 7.45 4.8 7.35 5.8 7.05 6.15 L8.9 6.9 8.95 7.1 Q9.05 7.85 8.7 8.2 8.4 8.5 8.0 8.4 L7.45 8.2 7.1 7.95 5.5 7.45 5.25 8.65 4.8 9.3 Q4.4 9.5 3.95 9.3 L3.85 9.25 3.3 8.7 3.35 8.1 3.55 7.35 2.25 7.7 2.2 7.7 Q0.0 7.05 -0.9 6.6 L-1.25 6.4 Q-4.05 4.6 -5.5 2.7 -6.95 0.85 -6.95 -0.9 -6.95 -1.8 -6.2 -1.95 L-5.95 -2.0 -5.85 -1.8 3.4 5.0 1.25 -2.45 Q1.1 -3.1 1.4 -3.45 L1.85 -3.6 2.75 -3.3 Q4.95 -2.25 7.2 2.6 L7.2 2.65 M5.65 6.35 L6.2 5.95 6.55 5.65 6.75 4.75 Q6.85 3.8 6.55 2.85 4.5 -1.7 2.5 -2.65 L1.85 -2.9 1.9 -2.6 4.3 5.6 4.4 6.05 3.7 6.1 -1.3 2.45 -6.2 -1.2 -6.25 -0.85 Q-6.3 0.65 -4.9 2.4 -3.55 4.1 -0.95 5.8 L-0.6 6.0 2.3 7.0 4.5 6.35 4.0 8.4 3.95 8.4 3.95 8.5 4.2 8.65 4.45 8.65 4.65 8.45 5.0 6.55 7.5 7.35 7.55 7.45 7.75 7.55 8.15 7.7 8.25 7.7 8.3 7.4 5.65 6.35" fill="#759cb1" fill-rule="evenodd" stroke="none"/>
    <path d="M5.8 6.35 Q6.05 6.75 5.9 7.1 L5.3 7.5 4.4 7.3 3.65 6.7 Q3.4 6.3 3.55 5.95 3.7 5.65 4.15 5.55 4.6 5.5 5.05 5.75 L5.8 6.35" fill="#752e2f" fill-rule="evenodd" stroke="none"/>
    <path d="M5.95 6.0 Q6.2 6.4 6.05 6.7 L5.45 7.1 4.55 6.95 3.8 6.3 Q3.55 5.95 3.7 5.6 3.85 5.25 4.3 5.2 L5.25 5.35 5.95 6.0" fill="#bc3536" fill-rule="evenodd" stroke="none"/>
    <path d="M5.6 6.1 L5.7 6.2 5.6 6.3 4.3 6.15 4.2 6.05 4.3 5.95 5.6 6.1" fill="#ffffff" fill-opacity="0.4392157" fill-rule="evenodd" stroke="none"/>
    <path d="M6.2 6.85 L6.0 7.2 5.7 7.55 4.6 7.6 Q4.05 7.4 3.65 6.95 3.15 6.4 3.4 5.9 L3.6 5.45 3.95 5.15 5.0 5.1 5.95 5.7 Q6.35 6.15 6.25 6.7 L6.2 6.8 6.2 6.85 M5.9 6.65 Q6.05 6.2 5.6 5.8 L4.8 5.4 Q4.0 5.25 3.7 6.05 3.55 6.45 4.0 6.85 L4.8 7.3 5.6 7.15 5.9 6.65" fill="#632a2b" fill-rule="evenodd" stroke="none"/>
    <path d="M20.1 8.8 L21.55 9.3 22.45 9.75 Q23.25 11.15 23.05 12.4 L22.4 14.2 Q21.9 15.4 20.0 16.1 L17.3 16.3 Q13.8 12.75 11.95 12.0 L10.95 11.8 10.55 11.7 8.9 10.2 7.6 9.1 7.65 8.25 Q8.75 7.95 8.8 6.25 L8.8 5.2 Q8.85 4.75 9.05 4.85 9.65 5.1 10.65 6.6 L10.7 7.1 11.25 7.4 13.9 7.4 Q17.15 7.6 20.1 8.8" fill="#bc3536" fill-rule="evenodd" stroke="none"/>
    <path d="M8.8 6.25 L8.8 5.2 Q8.85 4.75 9.05 4.85 9.65 5.1 10.65 6.6 L10.7 7.0 9.9 8.0 Q9.65 8.4 9.5 9.15 L9.55 10.0 9.65 10.85 7.6 9.1 7.65 8.25 Q8.75 7.95 8.8 6.25" fill="#752e2f" fill-opacity="0.5372549" fill-rule="evenodd" stroke="none"/>
    <path d="M22.65 9.65 Q23.4 10.95 23.3 12.2 L22.75 14.0 22.65 14.35 Q22.1 15.55 20.3 16.25 L18.55 16.7 17.2 16.55 17.15 16.5 Q13.95 13.25 12.15 12.4 11.5 12.05 10.9 12.05 L10.55 12.0 10.35 11.85 7.45 9.3 7.35 9.2 7.45 8.05 7.6 8.0 Q8.25 7.85 8.45 7.15 L8.55 5.65 8.6 5.0 Q8.6 4.75 8.75 4.65 L9.1 4.6 9.15 4.65 Q9.85 4.95 10.8 6.45 L10.85 6.5 10.9 6.95 11.3 7.15 Q12.6 7.0 14.3 7.15 17.4 7.45 20.15 8.55 L21.2 8.9 22.1 9.2 22.65 9.65 M20.0 9.0 Q17.15 7.85 13.95 7.65 L11.25 7.65 11.2 7.65 10.5 7.3 10.4 6.7 9.05 5.15 9.05 5.65 8.95 7.2 Q8.7 8.15 7.9 8.45 L7.85 9.0 10.7 11.55 10.75 11.55 10.9 11.55 12.35 11.9 Q14.3 12.85 17.45 16.15 L18.6 16.2 20.1 15.8 Q21.75 15.15 22.2 14.1 L22.35 13.8 22.85 12.15 Q22.9 11.1 22.2 9.9 L21.9 9.65 21.05 9.35 20.0 9.0" fill="#632a2b" fill-rule="evenodd" stroke="none"/>
    <path d="M3.4 11.45 L1.9 10.7 1.05 10.7 Q2.35 8.6 4.7 8.55 L6.8 8.9 Q7.6 9.55 8.45 14.15 9.25 18.6 9.4 18.65 9.75 18.8 9.9 19.5 L9.95 20.15 9.9 20.75 9.45 22.0 Q8.5 23.85 6.15 23.85 3.55 23.8 2.1 22.05 L1.4 20.85 1.25 20.3 3.4 11.45" fill="#bc3536" fill-rule="evenodd" stroke="none"/>
    <path d="M6.8 8.9 Q7.3 9.35 7.8 11.05 L6.7 10.7 5.7 10.4 Q5.2 10.4 4.55 10.8 L3.35 11.45 1.9 10.7 1.05 10.7 Q2.35 8.6 4.7 8.55 L6.8 8.9" fill="#752e2f" fill-opacity="0.5372549" fill-rule="evenodd" stroke="none"/>
    <path d="M8.05 11.05 L8.95 15.5 9.55 18.4 Q10.15 18.7 10.25 20.15 L10.2 20.8 9.7 22.15 Q8.65 24.15 6.15 24.15 4.75 24.15 3.6 23.6 2.25 22.95 1.5 21.65 L0.95 20.35 0.95 20.3 3.05 11.6 1.85 11.0 0.95 11.0 0.65 10.85 0.85 10.55 Q2.15 8.35 4.7 8.25 L6.9 8.6 6.95 8.65 7.0 8.65 Q7.6 9.15 8.05 11.05 M1.95 10.4 L3.75 11.3 1.55 20.3 2.1 21.5 Q2.75 22.55 3.85 23.05 4.85 23.55 6.15 23.55 8.25 23.55 9.2 21.95 9.7 21.05 9.7 20.15 L9.55 19.4 9.3 18.95 9.3 18.9 Q9.05 18.8 8.9 18.15 L8.4 15.6 7.65 11.8 Q7.15 9.6 6.65 9.15 L4.7 8.85 Q2.75 8.9 1.6 10.45 L1.85 10.4 1.95 10.4" fill="#632a2b" fill-rule="evenodd" stroke="none"/>
    <path d="M4.05 21.85 Q3.3 21.3 3.25 20.5 3.25 19.7 3.95 19.1 4.7 18.5 5.75 18.45 6.8 18.4 7.6 18.95 8.35 19.45 8.35 20.3 8.4 21.1 7.7 21.7 6.95 22.3 5.9 22.35 4.85 22.4 4.05 21.85" fill="#ffffff" fill-opacity="0.28627452" fill-rule="evenodd" stroke="none"/>
    <path d="M3.6 18.65 Q4.45 17.95 5.7 17.9 L7.45 18.25 Q8.1 18.55 8.5 19.1 8.9 19.6 8.9 20.25 8.95 21.35 8.0 22.1 7.15 22.8 5.9 22.85 L4.2 22.55 3.15 21.7 Q2.75 21.15 2.75 20.55 2.7 19.45 3.6 18.65 M4.65 21.55 L5.85 21.8 Q6.8 21.75 7.35 21.25 7.85 20.8 7.85 20.3 7.8 19.6 7.0 19.25 L5.75 19.0 Q4.85 19.05 4.25 19.5 3.75 20.0 3.75 20.5 L4.0 21.1 4.65 21.55" fill="#ffffff" fill-opacity="0.28627452" fill-rule="evenodd" stroke="none"/>
    <path d="M4.05 21.85 Q3.3 21.3 3.25 20.5 3.25 19.7 3.95 19.1 4.7 18.5 5.75 18.45 6.8 18.4 7.6 18.95 8.35 19.45 8.35 20.3 8.4 21.1 7.7 21.7 6.95 22.3 5.9 22.35 4.85 22.4 4.05 21.85" fill="#752e2f" fill-opacity="0.76862746" fill-rule="evenodd" stroke="none"/>
    <path d="M19.75 10.25 Q20.65 10.05 21.25 10.65 21.8 11.2 21.65 12.2 21.5 13.2 20.75 14.0 20.0 14.85 19.05 15.0 18.15 15.2 17.55 14.6 17.0 14.05 17.1 13.05 17.25 12.05 18.05 11.2 18.8 10.4 19.75 10.25" fill="#ffffff" fill-opacity="0.28627452" fill-rule="evenodd" stroke="none"/>
    <path d="M21.6 10.25 Q22.35 11.0 22.15 12.3 22.0 13.4 21.15 14.4 20.4 15.2 19.45 15.5 L17.75 15.4 17.2 15.0 Q16.45 14.25 16.6 12.95 16.8 11.8 17.65 10.85 18.4 10.05 19.35 9.75 L21.05 9.85 21.6 10.25 M20.6 10.85 Q20.15 10.65 19.55 10.85 L18.4 11.6 Q17.75 12.3 17.65 13.1 17.55 13.8 17.9 14.2 L18.2 14.4 Q18.6 14.6 19.25 14.4 L20.4 13.65 Q21.05 12.95 21.15 12.15 21.25 11.45 20.85 11.05 L20.6 10.85" fill="#ffffff" fill-opacity="0.28627452" fill-rule="evenodd" stroke="none"/>
    <path d="M19.75 10.25 Q20.65 10.05 21.25 10.65 21.8 11.2 21.65 12.2 21.5 13.2 20.75 14.0 20.0 14.85 19.05 15.0 18.15 15.2 17.55 14.6 17.0 14.05 17.1 13.05 17.25 12.05 18.05 11.2 18.8 10.4 19.75 10.25" fill="#752e2f" fill-opacity="0.76862746" fill-rule="evenodd" stroke="none"/>
    <path d="M6.3 11.4 L5.5 11.15 5.2 10.9 6.85 11.15 Q7.15 11.3 7.6 14.5 L7.95 17.7 7.6 17.65 4.05 17.5 2.7 18.35 Q3.15 17.7 4.1 17.1 5.45 16.3 6.75 16.55 7.05 16.6 6.75 15.8 L6.6 13.7 6.3 11.4" fill="#ffffff" fill-opacity="0.21960784" fill-rule="evenodd" stroke="none"/>
    <path d="M10.65 7.8 L11.4 8.15 17.1 8.65 Q19.75 9.15 19.1 9.35 17.0 10.0 16.4 11.75 16.1 12.65 16.15 13.7 16.05 14.1 15.7 12.9 16.05 11.0 16.95 10.15 L17.65 9.5 11.75 8.7 10.75 8.3 10.15 8.95 Q10.0 9.4 10.0 9.0 10.0 8.55 10.3 8.1 L10.65 7.8" fill="#ffffff" fill-opacity="0.21960784" fill-rule="evenodd" stroke="none"/>
    <path d="M22.65 9.65 Q23.4 10.95 23.3 12.2 L22.75 14.0 22.65 14.35 Q22.1 15.55 20.3 16.25 L18.55 16.7 17.2 16.55 17.15 16.5 Q13.95 13.25 12.15 12.4 11.5 12.05 10.9 12.05 L10.55 12.0 10.35 11.85 9.5 11.05 9.1 10.7 9.1 10.65 8.85 10.45 8.8 10.45 8.55 10.25 8.55 10.2 7.35 9.25 7.4 9.3 7.45 9.35 7.45 9.45 7.5 9.5 7.6 9.7 7.6 9.8 7.7 10.0 7.75 10.1 8.0 11.0 8.9 15.5 Q9.35 18.15 9.55 18.45 10.1 18.7 10.2 20.15 L10.15 20.8 9.65 22.15 Q8.6 24.1 6.15 24.1 4.75 24.1 3.65 23.55 2.3 22.9 1.55 21.6 L1.0 20.35 1.0 20.3 3.1 11.6 1.85 10.95 0.95 10.95 0.75 10.8 0.85 10.6 Q1.85 9.0 3.4 8.5 3.35 8.3 3.45 8.15 L3.7 7.2 2.25 7.6 2.2 7.6 -0.85 6.55 -1.25 6.3 Q-3.95 4.5 -5.4 2.7 -6.85 0.8 -6.85 -0.9 -6.85 -1.7 -6.2 -1.85 L-6.0 -1.9 -5.95 -1.75 3.55 5.25 1.5 -1.9 1.35 -2.45 Q1.2 -3.05 1.45 -3.35 L1.8 -3.5 1.85 -3.5 2.75 -3.2 Q4.85 -2.2 7.1 2.65 L7.1 2.7 Q7.45 3.75 7.35 4.85 7.25 5.8 6.95 6.1 L6.9 6.15 6.85 6.15 8.5 6.85 8.55 5.65 8.6 5.0 Q8.6 4.75 8.75 4.65 L9.1 4.6 9.15 4.65 Q9.85 4.95 10.8 6.45 L10.85 6.5 10.9 6.95 11.3 7.15 Q12.6 7.0 14.3 7.15 17.4 7.45 20.15 8.55 L21.2 8.9 22.1 9.2 22.65 9.65 M20.0 9.0 Q17.15 7.85 13.95 7.65 L11.25 7.65 11.2 7.65 10.5 7.3 10.4 6.7 9.05 5.15 9.05 5.65 8.85 7.45 8.4 7.35 8.4 7.3 5.85 6.3 6.6 5.75 6.85 4.75 Q6.95 3.8 6.65 2.85 4.5 -1.8 2.55 -2.75 L1.8 -3.0 1.8 -2.55 4.15 5.5 4.0 5.6 3.95 5.7 3.8 6.05 3.55 5.85 -6.2 -1.35 -6.35 -0.85 Q-6.4 0.7 -5.0 2.45 -3.6 4.2 -1.0 5.9 L-0.85 6.0 -0.65 6.1 Q0.05 6.4 2.3 7.1 L3.9 6.6 4.15 6.85 4.25 6.95 3.9 8.35 3.9 8.55 4.05 8.85 3.75 8.95 Q2.4 9.3 1.5 10.5 L1.85 10.45 1.95 10.45 3.65 11.3 1.5 20.3 2.05 21.5 Q2.7 22.6 3.85 23.1 4.85 23.6 6.15 23.6 8.3 23.6 9.25 21.95 9.75 21.05 9.75 20.15 L9.6 19.4 9.3 18.9 8.95 18.15 8.45 15.6 7.55 11.15 7.25 10.2 7.2 10.05 7.2 9.95 7.1 9.85 7.1 9.75 7.05 9.7 7.05 9.65 7.0 9.6 7.0 9.55 6.95 9.5 7.15 9.35 6.95 9.45 6.85 9.3 6.8 9.25 6.75 9.2 6.7 9.1 4.95 8.8 4.65 8.8 4.95 7.25 5.15 7.25 5.65 7.05 5.75 6.9 7.45 7.45 7.45 7.5 7.7 7.65 8.15 7.8 8.7 7.9 8.25 8.25 7.9 8.45 7.85 9.0 7.95 9.05 8.3 9.35 8.3 9.4 9.1 10.05 9.15 10.05 9.35 10.3 9.4 10.3 9.8 10.65 10.7 11.55 10.75 11.55 10.9 11.55 12.35 11.9 Q14.3 12.85 17.45 16.15 L18.6 16.2 20.1 15.8 Q21.75 15.15 22.2 14.1 L22.35 13.8 22.85 12.15 Q22.9 11.1 22.2 9.9 L21.9 9.65 21.05 9.35 20.0 9.0 M7.15 7.85 L5.9 7.5 5.35 7.75 5.25 8.3 6.9 8.65 6.95 8.7 7.05 8.8 6.9 9.0 7.1 8.8 7.15 8.85 7.15 8.9 7.2 8.95 7.25 9.0 7.3 9.1 7.35 9.2 7.45 8.05 7.15 7.85" fill="#222222" fill-opacity="0.45882353" fill-rule="evenodd" stroke="none"/>
  </g>
  <defs>
    <linearGradient gradientTransform="matrix(-0.0021, 0.0063, 0.0063, 0.0021, 1.35, 2.3)" gradientUnits="userSpaceOnUse" id="gradient0" spreadMethod="pad" x1="-819.2" x2="819.2">
      <stop offset="0.12156862745098039" stop-color="#bcdce0"/>
      <stop offset="0.3607843137254902" stop-color="#ffffff"/>
      <stop offset="0.4980392156862745" stop-color="#e2eef0"/>
      <stop offset="0.6705882352941176" stop-color="#bcdce0"/>
      <stop offset="0.6941176470588235" stop-color="#a4c6cc"/>
      <stop offset="0.7176470588235294" stop-color="#90b4bc"/>
      <stop offset="0.7529411764705882" stop-color="#7fa7b0"/>
      <stop offset="0.792156862745098" stop-color="#749ea8"/>
      <stop offset="0.8470588235294118" stop-color="#6d99a4"/>
      <stop offset="1.0" stop-color="#6b98a2"/>
    </linearGradient>
  </defs>
</svg>
