<?xml version="1.0" encoding="UTF-8" standalone="no"?>
<svg xmlns:xlink="http://www.w3.org/1999/xlink" height="30.0px" width="23.8px" xmlns="http://www.w3.org/2000/svg">
  <g transform="matrix(1.0, 0.0, 0.0, 1.0, 12.2, 26.9)">
    <path d="M3.9 -16.35 Q3.45 -17.8 1.85 -19.5 -0.35 -21.65 -2.4 -21.65 L-3.05 -21.6 Q-3.75 -21.5 -4.3 -21.05 L-4.35 -16.5 -0.75 -16.75 3.9 -16.35 M7.6 -19.5 L7.6 -19.4 8.0 -18.45 9.45 -14.75 9.5 -14.75 9.65 -14.65 9.75 -14.6 9.9 -14.45 10.5 -13.85 10.65 -13.65 10.75 -13.55 10.8 -13.4 Q11.75 -12.4 11.55 -10.7 11.25 -8.8 9.85 -8.05 L9.8 -8.0 9.5 -7.4 9.2 -6.65 9.15 -3.95 9.1 -1.4 Q9.0 -0.2 7.7 1.05 6.65 2.05 5.1 2.75 L5.05 2.8 5.0 2.8 1.5 3.05 -1.15 3.05 -1.2 3.1 -2.6 3.1 -4.75 2.95 Q-5.95 2.75 -6.8 2.15 -8.0 1.35 -8.7 -0.45 -9.25 -1.95 -9.25 -3.3 L-9.1 -5.05 -9.05 -5.8 -9.1 -6.9 -9.1 -7.0 Q-9.4 -7.8 -10.2 -8.4 L-10.2 -8.45 -11.7 -9.6 -11.7 -9.75 -11.9 -10.2 -12.0 -10.35 -12.1 -10.55 -12.1 -10.7 -12.15 -10.75 -12.15 -11.0 -12.15 -11.05 -12.2 -11.25 -12.2 -11.6 -12.15 -11.85 -12.15 -11.95 -12.1 -12.15 -12.1 -12.2 -12.0 -12.45 -12.0 -12.55 -11.85 -12.8 -11.75 -13.0 -11.7 -13.05 -11.55 -13.25 -11.5 -13.3 -11.35 -13.5 -11.3 -13.55 -11.15 -13.75 -11.1 -13.8 -10.9 -13.95 -10.85 -14.0 -10.65 -14.15 -10.4 -14.35 -10.35 -14.35 -10.15 -14.5 -10.1 -14.55 -9.8 -14.75 -9.55 -14.9 -9.45 -14.9 -9.3 -15.0 -9.3 -22.2 -9.3 -22.3 Q-9.05 -23.9 -7.6 -25.2 -5.65 -26.9 -2.45 -26.9 L-1.5 -26.85 Q1.5 -26.6 3.85 -24.75 6.2 -22.85 7.6 -19.5" fill="#ffffff" fill-rule="evenodd" stroke="none"/>
    <path d="M9.25 -13.4 Q10.3 -12.35 10.25 -11.15 L10.2 -10.7 Q10.3 -10.1 9.2 -9.3 8.65 -8.6 8.15 -7.3 L8.1 -7.1 8.0 -7.0 7.95 -3.95 7.85 -1.5 Q7.8 -0.6 6.45 0.4 L4.5 1.5 4.35 1.55 4.2 1.6 0.0 1.6 -4.05 1.5 Q-5.45 1.3 -6.6 -0.35 L-7.6 -2.15 -7.65 -2.25 -7.65 -2.35 -7.85 -7.0 -7.85 -7.4 -9.1 -9.0 -10.05 -9.7 -10.2 -9.75 -10.3 -9.9 -10.8 -10.75 Q-11.75 -12.85 -7.5 -14.5 L-7.45 -14.5 -7.35 -14.5 -7.1 -14.6 Q-3.75 -15.65 -0.6 -15.65 2.25 -15.65 6.45 -14.75 8.15 -14.45 9.25 -13.4 M6.15 -13.4 L-0.6 -14.25 Q-3.55 -14.25 -6.7 -13.25 L-6.75 -13.25 -7.0 -13.2 Q-9.85 -12.05 -9.5 -11.25 L-9.2 -10.8 -8.9 -10.55 -8.2 -10.1 -8.1 -10.0 Q-6.4 -8.35 -6.4 -7.4 L-6.25 -2.55 Q-5.1 -0.1 -3.85 0.1 L0.0 0.25 4.0 0.2 Q4.95 -0.25 5.65 -0.8 L6.45 -1.6 6.5 -3.95 Q6.5 -7.15 6.7 -7.5 L6.7 -7.55 6.75 -7.6 6.8 -7.8 Q7.35 -9.25 8.15 -10.25 L8.2 -10.35 8.3 -10.4 8.7 -10.75 8.75 -10.85 8.8 -11.15 8.8 -11.25 Q8.9 -11.85 8.15 -12.5 7.35 -13.15 6.15 -13.4" fill="#42524f" fill-rule="evenodd" stroke="none"/>
    <path d="M6.3 -14.1 Q8.2 -13.7 9.1 -12.5 10.0 -11.25 9.1 -10.25 L7.8 -8.4 7.35 -7.2 7.25 -4.65 7.15 -1.55 Q7.05 -0.5 4.2 0.85 -2.15 1.05 -3.95 0.8 -5.1 0.65 -6.15 -0.9 L-6.95 -2.4 -7.1 -7.4 Q-7.1 -8.0 -8.3 -9.25 L-9.55 -10.35 Q-10.2 -10.7 -10.25 -11.3 -10.35 -12.55 -7.2 -13.8 -4.05 -14.85 -1.05 -14.9 L6.3 -14.1" fill="#528283" fill-rule="evenodd" stroke="none"/>
    <path d="M6.5 -13.85 Q8.0 -13.5 8.9 -12.6 9.75 -11.65 9.45 -10.6 9.3 -10.05 7.95 -9.4 5.25 -8.0 0.35 -7.8 -4.65 -7.65 -7.2 -8.5 -8.85 -9.1 -9.7 -10.3 -10.35 -11.05 -10.2 -11.65 -9.9 -12.75 -7.2 -13.85 L2.0 -14.6 6.5 -13.85" fill="#2a4750" fill-rule="evenodd" stroke="none"/>
    <path d="M6.5 -13.85 Q8.0 -13.5 8.8 -12.7 9.6 -11.9 9.3 -10.9 8.75 -10.5 7.25 -10.0 4.15 -8.95 0.35 -8.75 L-6.55 -9.3 Q-8.75 -9.8 -9.7 -10.35 -10.35 -11.15 -10.2 -11.7 -9.9 -12.75 -7.2 -13.85 -1.55 -15.0 1.75 -14.8 L6.5 -13.85" fill="#7bab9c" fill-rule="evenodd" stroke="none"/>
    <path d="M4.85 -13.25 Q6.05 -12.95 6.65 -12.45 7.3 -11.85 7.05 -11.15 L6.05 -10.75 2.95 -10.15 0.05 -9.95 -5.6 -10.3 -7.45 -10.95 Q-7.9 -11.4 -7.65 -11.7 -7.3 -12.2 -5.25 -13.0 L1.15 -13.7 4.85 -13.25" fill="#42524f" fill-rule="evenodd" stroke="none"/>
    <path d="M0.85 -12.35 L4.4 -12.1 6.15 -11.6 Q6.8 -11.25 6.55 -10.85 L5.55 -10.55 2.65 -10.2 -0.2 -10.05 -5.6 -10.3 -7.35 -10.65 Q-7.75 -10.95 -7.6 -11.15 L-5.25 -11.95 0.85 -12.35" fill="#222222" fill-opacity="0.49803922" fill-rule="evenodd" stroke="none"/>
    <path d="M-7.1 -7.0 L-4.2 -6.2 0.55 -5.8 5.4 -6.5 7.45 -7.45 7.35 -7.2 7.25 -4.65 7.15 -1.55 Q7.05 -0.5 4.2 0.85 -2.15 1.05 -3.95 0.8 -5.1 0.65 -6.15 -0.9 L-6.95 -2.4 -7.1 -7.0" fill="url(#gradient0)" fill-rule="evenodd" stroke="none"/>
    <path d="M2.1 -21.35 Q0.5 -22.7 -2.05 -22.95 -3.95 -23.15 -5.05 -22.55 L-5.85 -21.75 -5.85 -17.8 -5.8 -14.0 Q-6.5 -13.45 -7.35 -13.8 L-7.35 -22.05 Q-7.25 -22.85 -6.45 -23.65 -4.9 -25.2 -1.7 -24.95 3.3 -24.6 5.8 -18.7 L7.25 -15.05 Q8.45 -12.1 8.95 -12.25 9.65 -12.4 9.65 -11.2 9.6 -10.05 8.8 -9.7 L7.4 -9.25 Q6.85 -9.25 6.7 -10.15 6.55 -11.0 6.8 -11.75 L7.05 -12.35 Q5.9 -15.4 4.55 -17.95 3.35 -20.3 2.1 -21.35" fill="#545454" fill-rule="evenodd" stroke="none"/>
    <path d="M5.5 -18.7 Q4.2 -21.85 2.05 -23.4 0.35 -24.55 -1.7 -24.7 L-2.45 -24.7 Q-4.95 -24.7 -6.25 -23.45 L-7.1 -22.0 -7.1 -14.05 -6.75 -13.95 -6.1 -14.15 -6.15 -21.8 -5.55 -22.55 Q-4.6 -23.25 -2.95 -23.25 L-2.0 -23.2 Q0.6 -22.95 2.2 -21.6 3.55 -20.55 4.85 -18.1 L7.35 -12.45 7.4 -12.3 7.3 -12.2 7.05 -11.65 Q6.85 -10.95 7.0 -10.2 7.05 -9.5 7.4 -9.5 L8.4 -9.8 8.7 -9.95 Q9.1 -10.1 9.3 -10.65 L9.35 -11.6 9.1 -12.0 9.05 -12.0 8.95 -11.95 Q8.4 -11.95 7.75 -13.25 7.05 -14.5 5.9 -17.75 L5.55 -18.6 5.5 -18.7 M8.95 -12.5 L9.1 -12.55 Q9.7 -12.55 9.9 -11.7 10.05 -11.0 9.75 -10.35 9.5 -9.65 8.9 -9.4 L8.6 -9.3 7.4 -8.95 Q6.5 -8.95 6.4 -10.1 6.2 -11.45 6.75 -12.35 L4.3 -17.85 Q3.15 -20.15 1.85 -21.15 0.35 -22.4 -2.05 -22.7 L-2.95 -22.7 Q-4.3 -22.7 -5.05 -22.2 L-5.6 -21.65 -5.5 -14.05 -5.5 -13.85 -5.6 -13.8 Q-6.1 -13.4 -6.75 -13.4 L-7.5 -13.55 -7.65 -13.65 -7.65 -22.05 Q-7.5 -22.85 -6.8 -23.65 -5.35 -25.25 -2.45 -25.25 L-1.65 -25.25 Q0.55 -25.1 2.35 -23.85 4.7 -22.25 6.05 -18.9 L6.45 -17.95 7.75 -14.6 Q8.55 -12.7 8.95 -12.5" fill="#3f3f3f" fill-rule="evenodd" stroke="none"/>
    <path d="M7.7 -13.5 L8.7 -12.65 Q9.8 -12.0 9.3 -11.5 9.25 -11.85 8.5 -11.85 L7.45 -12.1 Q7.15 -12.35 7.0 -13.0 L6.85 -14.05 Q6.45 -15.9 5.35 -18.3 3.7 -21.8 0.35 -23.35 -2.35 -24.55 -6.55 -23.4 L-6.5 -23.5 Q-5.7 -24.4 -4.15 -24.65 L-1.45 -24.55 Q1.45 -23.8 3.45 -21.95 4.45 -20.95 5.25 -19.25 L6.5 -16.3 7.0 -14.85 Q7.3 -14.0 7.7 -13.5" fill="#9c9b9b" fill-opacity="0.5568628" fill-rule="evenodd" stroke="none"/>
    <path d="M7.45 -11.0 L7.65 -11.55 8.15 -11.8 8.65 -11.55 8.9 -11.0 8.65 -10.4 Q8.5 -10.15 8.15 -10.15 7.85 -10.15 7.65 -10.4 L7.45 -11.0" fill="#c3d9cf" fill-rule="evenodd" stroke="none"/>
    <path d="M7.65 -11.0 L7.85 -11.55 8.4 -11.8 8.9 -11.55 9.1 -11.0 8.9 -10.4 Q8.7 -10.15 8.4 -10.15 L7.85 -10.4 7.65 -11.0" fill="#7bab9c" fill-rule="evenodd" stroke="none"/>
    <path d="M-5.55 -4.25 L-5.0 -1.95 Q-4.5 -0.8 -3.55 -0.1 L-1.5 1.05 -3.7 1.0 Q-5.0 0.85 -5.7 0.4 -6.45 -0.1 -6.9 -1.3 -7.3 -2.35 -7.3 -3.3 L-7.1 -5.45 Q-6.95 -6.9 -7.2 -7.65 L-8.85 -8.8 Q-10.1 -9.45 -9.65 -10.15 L-9.0 -10.05 -7.35 -8.9 -6.2 -8.5 -5.0 -8.2 -5.75 -7.85 -6.1 -7.2 Q-6.05 -6.75 -5.7 -6.65 L-5.0 -6.5 Q-5.7 -5.8 -5.55 -4.25" fill="#42524f" fill-opacity="0.31764707" fill-rule="evenodd" stroke="none"/>
    <path d="M-9.4 -10.05 L-9.65 -10.4 -9.65 -10.6 Q-8.45 -9.85 -5.7 -9.3 L-1.3 -8.75 3.6 -9.15 5.05 -9.4 Q5.9 -9.6 6.35 -10.0 L6.65 -9.4 Q6.1 -8.9 5.15 -8.7 L3.45 -8.4 -1.0 -8.2 -5.85 -8.75 Q-8.15 -9.2 -9.4 -10.05" fill="#ffffff" fill-opacity="0.65882355" fill-rule="evenodd" stroke="none"/>
    <path d="M3.3 -8.35 L4.75 -8.65 Q4.65 -8.45 4.4 -8.4 L4.65 -8.35 Q4.95 -7.75 4.65 -7.0 4.4 -6.25 3.7 -6.05 4.25 -5.4 4.3 -4.0 4.4 -2.8 4.15 -1.75 L4.0 -0.65 3.8 0.35 3.2 1.1 Q2.75 1.35 2.25 0.9 2.6 0.4 2.65 -0.8 L2.75 -2.55 2.5 -6.25 Q3.1 -6.4 3.05 -7.2 3.05 -7.95 2.6 -7.8 3.15 -8.0 3.3 -8.35" fill="#ffffff" fill-opacity="0.5764706" fill-rule="evenodd" stroke="none"/>
    <path d="M8.8 -11.25 L8.4 -10.65 8.3 -10.65 8.35 -10.6 8.25 -10.55 8.15 -10.6 8.15 -10.75 8.1 -10.75 8.7 -11.45 8.8 -11.25" fill="#bcdce0" fill-rule="evenodd" stroke="none"/>
  </g>
  <defs>
    <linearGradient gradientTransform="matrix(0.0089, 0.0, 0.0, -0.0089, 0.15, -3.25)" gradientUnits="userSpaceOnUse" id="gradient0" spreadMethod="pad" x1="-819.2" x2="819.2">
      <stop offset="0.0" stop-color="#528283" stop-opacity="0.6666667"/>
      <stop offset="0.6509803921568628" stop-color="#ffffff" stop-opacity="0.6666667"/>
      <stop offset="0.803921568627451" stop-color="#b9cfc8"/>
      <stop offset="0.9098039215686274" stop-color="#8bb1a5"/>
      <stop offset="0.9647058823529412" stop-color="#7bab9c" stop-opacity="0.6666667"/>
    </linearGradient>
  </defs>
</svg>
