<?xml version="1.0" encoding="UTF-8" standalone="no"?>
<svg xmlns:xlink="http://www.w3.org/1999/xlink" height="30.5px" width="31.25px" xmlns="http://www.w3.org/2000/svg">
  <g transform="matrix(1.0, 0.0, 0.0, 1.0, 5.3, 6.0)">
    <path d="M23.45 16.55 L23.85 18.0 23.55 19.4 21.3 22.4 19.55 22.3 16.15 18.25 16.1 18.25 15.2 17.1 2.05 14.35 0.0 11.5 -3.05 3.35 -3.0 3.3 -3.0 3.25 -2.65 2.3 -2.65 2.25 -2.15 1.25 -2.1 1.2 -2.0 1.15 -1.95 1.15 -1.6 1.25 -1.6 1.3 -1.5 1.35 -1.45 1.45 3.1 9.9 3.45 10.4 Q3.95 10.85 4.6 11.05 L9.45 12.1 14.55 13.3 14.6 13.3 14.8 13.35 14.75 13.25 10.15 4.7 9.8 4.35 9.7 4.25 9.45 4.0 9.35 3.95 7.35 2.15 4.65 0.2 4.2 -0.05 4.05 -0.1 4.0 -0.1 3.9 -0.15 3.75 -0.2 3.65 -0.2 3.55 -0.25 3.4 -0.25 3.1 -0.3 2.85 -0.4 2.75 -0.5 2.7 -0.5 2.6 -0.55 2.55 -0.65 2.45 -0.7 2.3 -0.85 2.0 -1.35 1.8 -1.8 1.75 -2.0 1.75 -2.05 1.7 -2.35 1.7 -2.4 1.9 -3.4 2.1 -3.55 2.15 -3.7 4.15 -3.8 6.35 -3.25 9.45 -1.2 12.45 1.2 Q13.5 2.05 14.2 3.8 L15.8 7.35 16.55 9.35 17.15 11.35 Q17.65 12.45 18.65 13.05 L18.8 13.05 20.0 13.75 21.7 14.55 23.2 15.65 23.5 16.15 23.45 16.55" fill="#ffffff" fill-rule="evenodd" stroke="none"/>
    <path d="M21.7 12.6 Q23.75 13.45 24.65 14.5 25.45 15.5 25.35 16.6 L25.7 17.95 25.25 20.2 22.15 24.25 18.65 24.1 14.2 18.75 0.95 16.0 -1.5 12.55 -4.75 4.0 -5.0 3.4 -4.95 3.3 -4.95 3.25 -4.4 1.7 Q-4.15 0.75 -3.45 0.0 L-3.4 -0.05 -3.35 -0.1 -3.3 -0.15 -3.2 -0.25 -3.0 -0.4 -2.55 -0.6 -1.5 -0.65 Q-0.9 -0.5 -0.4 -0.15 L-0.3 0.0 -0.2 0.15 -0.05 0.25 0.05 0.45 4.7 9.05 5.0 9.3 11.3 10.65 8.65 5.8 8.2 5.35 8.05 5.25 6.8 4.1 6.2 3.55 6.15 3.55 5.6 3.1 5.5 3.05 5.05 2.65 5.0 2.6 4.4 2.2 3.75 1.8 3.7 1.75 3.5 1.6 3.45 1.6 3.4 1.6 3.2 1.55 3.1 1.55 1.35 0.75 0.85 0.25 0.4 -0.5 0.2 -0.95 0.0 -1.65 0.0 -1.7 -0.1 -2.05 -0.1 -2.1 -0.1 -2.15 -0.15 -2.5 0.35 -4.45 0.65 -4.7 0.75 -4.9 Q1.45 -5.75 2.95 -5.75 L4.75 -5.55 7.2 -4.9 Q9.05 -3.9 12.15 -1.35 L13.55 -0.25 Q15.05 0.95 15.85 3.15 16.3 4.4 17.45 6.55 L18.35 9.1 18.85 10.65 19.2 11.2 19.3 11.2 20.65 12.1 21.7 12.6 M22.0 18.05 L21.6 16.6 20.25 15.9 19.1 15.35 18.85 15.25 18.3 14.9 18.2 14.9 17.45 14.45 18.25 16.0 16.25 15.5 20.4 20.55 21.85 18.6 22.0 18.05 M9.3 1.45 L10.6 2.6 10.7 2.7 10.95 2.95 11.2 3.15 11.25 3.25 11.4 3.4 11.6 3.55 14.55 9.05 14.2 8.2 12.45 4.45 Q12.0 3.15 11.3 2.6 L9.9 1.45 5.6 -1.65 5.5 -1.65 6.75 -0.65 6.75 -0.75 9.3 1.35 9.3 1.45 M3.1 12.7 L13.0 14.8 6.9 13.4 4.15 12.8 Q3.3 12.6 2.65 12.1 L3.1 12.7 M13.1 14.8 L13.0 14.8 13.1 14.8 13.35 14.85 13.4 14.85 13.1 14.8 13.4 14.85 13.35 14.85 13.1 14.8" fill="#ffffff" fill-rule="evenodd" stroke="none"/>
    <path d="M21.7 12.6 Q23.75 13.45 24.65 14.5 25.45 15.5 25.35 16.6 L25.7 17.95 25.25 20.2 22.15 24.25 18.65 24.1 14.2 18.75 0.95 16.0 -1.5 12.55 -4.75 4.0 -5.0 3.4 -4.95 3.3 -4.95 3.25 -4.4 1.7 Q-4.15 0.75 -3.45 0.0 L-3.4 -0.05 -3.35 -0.1 -3.3 -0.15 -3.2 -0.25 -3.0 -0.4 -2.55 -0.6 -1.5 -0.65 Q-0.9 -0.5 -0.4 -0.15 L-0.3 0.0 -0.2 0.15 -0.05 0.25 0.05 0.45 4.7 9.05 5.0 9.3 11.3 10.65 8.65 5.8 8.2 5.35 8.05 5.25 6.8 4.1 6.2 3.55 6.15 3.55 5.6 3.1 5.5 3.05 5.05 2.65 5.0 2.6 4.4 2.2 3.75 1.8 3.7 1.75 3.5 1.6 3.45 1.6 3.4 1.6 3.2 1.55 3.1 1.55 1.35 0.75 0.85 0.25 0.4 -0.5 0.2 -0.95 0.0 -1.65 0.0 -1.7 -0.1 -2.05 -0.1 -2.1 -0.1 -2.15 -0.15 -2.5 0.35 -4.45 0.65 -4.7 0.75 -4.9 Q1.45 -5.75 2.95 -5.75 L4.75 -5.55 7.2 -4.9 Q9.05 -3.9 12.15 -1.35 L13.55 -0.25 Q15.05 0.95 15.85 3.15 16.3 4.4 17.45 6.55 L18.35 9.1 18.85 10.65 19.2 11.2 19.3 11.2 20.65 12.1 21.7 12.6 M22.0 18.05 L21.6 16.6 20.25 15.9 19.1 15.35 18.85 15.25 18.3 14.9 18.2 14.9 17.45 14.45 18.25 16.0 16.25 15.5 20.4 20.55 21.85 18.6 22.0 18.05 M9.3 1.45 L10.6 2.6 10.7 2.7 10.95 2.95 11.2 3.15 11.25 3.25 11.4 3.4 11.6 3.55 14.55 9.05 14.2 8.2 12.45 4.45 Q12.0 3.15 11.3 2.6 L9.9 1.45 5.6 -1.65 5.5 -1.65 6.75 -0.65 6.75 -0.75 9.3 1.35 9.3 1.45" fill="none" stroke="#ffffff" stroke-linecap="butt" stroke-linejoin="miter" stroke-width="0.5"/>
    <path d="M3.1 12.7 L13.0 14.8" fill="none" stroke="#ffffff" stroke-linecap="butt" stroke-linejoin="miter" stroke-width="0.5"/>
    <path d="M13.0 14.8 L6.9 13.4 4.15 12.8 Q3.3 12.6 2.65 12.1 L3.1 12.7" fill="none" stroke="#ffffff" stroke-linecap="round" stroke-linejoin="miter" stroke-width="0.5"/>
    <path d="M13.0 14.8 L13.1 14.8 13.4 14.85 13.35 14.85 13.1 14.8" fill="none" stroke="#ffffff" stroke-linecap="round" stroke-linejoin="miter" stroke-width="0.5"/>
    <path d="M23.55 19.4 L21.3 22.4 19.55 22.3 15.2 17.1 14.65 16.95 2.05 14.35 0.0 11.5 -3.05 3.35 -3.0 3.3 -3.0 3.25 -2.65 2.3 -2.15 1.25 Q-1.85 1.0 -1.6 1.25 L-1.6 1.3 -1.5 1.35 -1.45 1.45 3.1 9.9 3.45 10.4 Q3.95 10.85 4.6 11.05 L4.65 11.05 4.7 11.05 4.8 11.1 4.85 11.1 4.9 11.1 4.95 11.1 5.0 11.15 5.1 11.15 5.15 11.2 5.2 11.2 5.3 11.2 5.35 11.25 5.4 11.25 5.45 11.3 5.55 11.3 5.7 11.35 5.75 11.35 5.85 11.4 5.95 11.4 6.05 11.45 6.1 11.5 6.2 11.5 6.4 11.55 6.45 11.55 6.55 11.6 6.65 11.6 6.7 11.65 6.8 11.65 6.85 11.65 8.5 12.2 14.8 13.35 14.75 13.25 10.15 4.7 10.0 4.55 7.35 2.15 5.4 0.7 4.55 0.15 3.9 -0.15 3.65 -0.2 3.55 -0.25 3.4 -0.25 Q2.9 -0.3 2.45 -0.7 2.0 -1.2 1.75 -2.0 L1.7 -2.35 1.7 -2.4 1.9 -3.4 2.4 -3.7 3.6 -3.8 Q5.25 -3.3 6.85 -2.45 L9.2 -1.0 13.05 1.95 17.8 13.1 18.8 13.05 23.3 15.9 23.85 18.0 23.55 19.4" fill="#b18527" fill-rule="evenodd" stroke="none"/>
    <path d="M21.7 23.25 L19.15 23.2 14.7 17.85 1.55 15.1 -0.7 12.0 -3.85 3.65 -3.95 3.35 -3.95 3.25 -3.5 2.05 Q-3.3 1.25 -2.75 0.65 -2.3 0.2 -1.7 0.3 -1.25 0.4 -1.0 0.65 L-0.95 0.7 -0.9 0.8 -0.8 0.85 -0.75 1.0 Q-0.05 2.0 3.85 9.55 4.1 10.05 4.8 10.2 L8.7 11.35 8.75 11.35 12.0 12.1 13.25 12.3 9.45 5.25 8.85 4.65 8.75 4.55 6.2 2.35 6.1 2.25 4.2 0.9 3.55 0.65 3.5 0.65 3.3 0.6 3.25 0.6 2.35 0.5 2.4 0.3 1.9 -0.05 1.8 -0.15 Q1.2 -0.75 0.95 -1.8 L0.9 -2.0 0.9 -2.05 0.85 -2.1 0.85 -2.25 0.85 -2.4 1.2 -3.9 1.4 -4.05 2.05 -4.45 3.55 -4.65 3.8 -4.6 Q5.5 -4.15 7.1 -3.3 L9.45 -1.85 9.7 -1.7 13.6 1.3 13.75 1.45 18.35 12.2 19.05 12.2 24.0 15.35 24.7 18.0 24.35 19.75 21.7 23.25 M22.55 16.45 L18.6 13.95 17.25 14.0 12.4 2.5 8.75 -0.3 8.55 -0.4 Q5.75 -2.3 3.35 -2.95 L2.7 -2.9 2.55 -2.35 2.55 -2.3 2.6 -2.25 3.0 -1.35 3.05 -1.35 3.1 -1.3 3.45 -1.1 3.6 -1.1 4.35 -0.95 4.35 -0.9 5.0 -0.6 5.9 0.0 6.05 0.1 6.05 0.05 7.45 1.1 8.75 2.25 10.85 4.15 16.3 14.35 14.7 14.2 11.75 13.75 8.3 13.0 8.25 13.0 4.45 11.9 4.55 11.5 4.45 11.85 4.35 11.85 Q3.05 11.5 2.35 10.35 -0.4 4.95 -1.85 2.45 L-1.85 2.55 -1.85 2.6 -2.1 3.25 -2.1 3.3 -2.15 3.35 0.7 11.05 2.55 13.6 15.7 16.35 20.0 21.5 20.85 21.5 22.75 19.05 22.95 18.0 22.55 16.45 M4.65 11.05 L4.55 11.5 4.65 11.05" fill="#7f572e" fill-rule="evenodd" stroke="none"/>
    <path d="M21.7 23.25 L19.15 23.2 14.7 17.85 1.55 15.1 -0.7 12.0 -3.85 3.65 -3.95 3.35 -3.95 3.25 -3.5 2.05 Q-3.3 1.25 -2.75 0.65 -2.3 0.2 -1.7 0.3 -1.25 0.4 -1.0 0.65 L-0.95 0.7 -0.9 0.8 -0.8 0.85 -0.75 1.0 Q-0.05 2.0 3.85 9.55 4.1 10.05 4.8 10.2 L8.7 11.35 8.75 11.35 12.0 12.1 13.25 12.3 9.45 5.25 8.85 4.65 8.75 4.55 6.2 2.35 6.1 2.25 4.2 0.9 3.55 0.65 3.5 0.65 3.3 0.6 3.25 0.6 2.35 0.5 2.4 0.3 1.9 -0.05 1.8 -0.15 Q1.2 -0.75 0.95 -1.8 L0.9 -2.0 0.9 -2.05 0.85 -2.1 0.85 -2.25 0.85 -2.4 1.2 -3.9 1.4 -4.05 2.05 -4.45 3.55 -4.65 3.8 -4.6 Q5.5 -4.15 7.1 -3.3 L9.45 -1.85 9.7 -1.7 13.6 1.3 13.75 1.45 18.35 12.2 19.05 12.2 24.0 15.35 24.7 18.0 24.35 19.75 21.7 23.25" fill="none" stroke="#7f572e" stroke-linecap="butt" stroke-linejoin="miter" stroke-width="1.0"/>
    <path d="M22.55 16.45 L18.6 13.95 17.25 14.0 12.4 2.5 8.75 -0.3 8.55 -0.4 Q5.75 -2.3 3.35 -2.95 L2.7 -2.9 2.55 -2.35 2.55 -2.3 2.6 -2.25 3.0 -1.35 3.05 -1.35 3.1 -1.3 3.45 -1.1 3.6 -1.1 4.35 -0.95 4.35 -0.9 5.0 -0.6 5.9 0.0 6.05 0.1 6.05 0.05 7.45 1.1 8.75 2.25 10.85 4.15 16.3 14.35 14.7 14.2 11.75 13.75 8.3 13.0 8.25 13.0 4.45 11.9 4.55 11.5" fill="none" stroke="#7f572e" stroke-linecap="butt" stroke-linejoin="miter" stroke-width="1.0"/>
    <path d="M4.55 11.5 L4.45 11.85 4.35 11.85 Q3.05 11.5 2.35 10.35 -0.4 4.95 -1.85 2.45 L-1.85 2.55 -1.85 2.6 -2.1 3.25 -2.1 3.3 -2.15 3.35 0.7 11.05 2.55 13.6 15.7 16.35 20.0 21.5 20.85 21.5 22.75 19.05 22.95 18.0 22.55 16.45 M4.55 11.5 L4.65 11.05" fill="none" stroke="#7f572e" stroke-linecap="round" stroke-linejoin="miter" stroke-width="1.0"/>
    <path d="M21.3 22.4 L19.55 22.3 15.2 17.1 2.05 14.25 0.0 11.4 -3.0 3.25 -2.65 2.3 -2.3 1.5 -1.45 1.45 3.1 9.9 3.45 10.4 Q3.95 10.85 4.6 11.05 L14.8 13.35 10.15 4.7 7.45 2.25 Q4.55 -0.2 3.55 -0.25 2.55 -0.25 2.0 -1.3 L1.7 -2.4 1.9 -3.4 3.6 -3.8 6.0 -2.3 9.2 -0.9 12.7 1.7 17.8 13.1 18.8 13.05 23.3 15.9 23.85 18.0 23.55 19.4 21.3 22.4" fill="#d3ad47" fill-rule="evenodd" stroke="none"/>
    <path d="M23.3 15.9 L23.85 18.0 23.55 19.4 21.3 22.4 19.95 22.35 20.6 19.65 Q20.7 19.25 20.35 19.2 20.0 19.15 19.85 19.55 L19.3 22.0 18.85 21.5 19.5 19.05 Q19.6 18.6 19.25 18.5 18.85 18.45 18.8 18.9 L18.3 20.85 17.75 20.2 18.25 17.95 Q18.35 17.55 18.0 17.45 17.6 17.4 17.55 17.8 L17.15 19.5 16.75 18.95 Q17.25 17.1 17.15 16.3 17.15 15.9 16.75 15.95 16.4 16.05 16.45 16.45 L16.15 18.25 15.7 17.7 16.05 15.65 Q16.15 15.25 15.8 15.15 15.4 15.1 15.35 15.5 L15.05 17.05 2.05 14.35 0.0 11.5 -3.05 3.35 -2.65 2.3 -2.3 1.5 -1.45 1.45 3.1 9.9 3.45 10.4 Q3.95 10.85 4.6 11.05 L14.8 13.35 10.15 4.7 10.0 4.55 10.25 2.2 Q10.35 1.75 10.0 1.7 9.65 1.6 9.55 2.05 L9.3 3.9 8.65 3.3 8.9 1.05 Q8.9 0.65 8.55 0.7 8.15 0.75 8.15 1.2 L8.0 2.75 7.35 2.15 7.55 0.05 Q7.6 -0.4 7.2 -0.5 6.85 -0.55 6.8 -0.1 L6.65 1.6 6.1 1.2 6.4 -0.95 Q6.45 -1.35 6.1 -1.45 5.75 -1.5 5.7 -1.1 L5.4 0.7 4.55 0.15 4.9 -1.65 Q5.0 -2.1 4.65 -2.15 4.3 -2.25 4.2 -1.8 L3.9 -0.15 3.55 -0.25 3.4 -0.25 3.7 -2.2 Q3.75 -2.6 3.4 -2.7 L2.95 -2.35 2.7 -0.5 2.45 -0.7 2.8 -3.05 Q2.9 -3.45 2.55 -3.5 2.15 -3.55 2.1 -3.15 L1.8 -1.8 1.7 -2.4 1.9 -3.4 3.6 -3.8 6.0 -2.3 9.2 -0.9 12.7 1.7 17.8 13.1 18.8 13.05 23.3 15.9" fill="#c69b28" fill-rule="evenodd" stroke="none"/>
    <path d="M23.3 15.9 L23.85 18.0 23.55 19.4 21.3 22.4 19.95 22.35 20.6 19.65 Q20.7 19.25 20.35 19.2 20.0 19.15 19.85 19.55 L19.3 22.0 18.85 21.5 19.5 19.05 Q19.6 18.6 19.25 18.5 18.85 18.45 18.8 18.9 L18.3 20.85 17.75 20.2 18.25 17.95 Q18.35 17.55 18.0 17.45 17.6 17.4 17.55 17.8 L17.15 19.5 16.75 18.95 Q17.25 17.1 17.15 16.3 17.15 15.9 16.75 15.95 16.4 16.05 16.45 16.45 L16.15 18.25 15.7 17.7 16.05 15.65 Q16.15 15.25 15.8 15.15 15.4 15.1 15.35 15.5 L15.05 17.05 2.05 14.35 0.0 11.5 -3.05 3.35 -2.65 2.3 -2.3 1.5 -1.45 1.45 3.1 9.9 3.45 10.4 Q3.95 10.85 4.6 11.05 L14.8 13.35 10.15 4.7 10.0 4.55 10.25 2.2 Q10.35 1.75 10.0 1.7 9.65 1.6 9.55 2.05 L9.3 3.9 8.65 3.3 8.9 1.05 Q8.9 0.65 8.55 0.7 8.15 0.75 8.15 1.2 L8.0 2.75 7.35 2.15 7.55 0.05 Q7.6 -0.4 7.2 -0.5 6.85 -0.55 6.8 -0.1 L6.65 1.6 6.1 1.2 6.4 -0.95 Q6.45 -1.35 6.1 -1.45 5.75 -1.5 5.7 -1.1 L5.4 0.7 4.55 0.15 4.9 -1.65 Q5.0 -2.1 4.65 -2.15 4.3 -2.25 4.2 -1.8 L3.9 -0.15 3.55 -0.25 3.4 -0.25 3.7 -2.2 Q3.75 -2.6 3.4 -2.7 L2.95 -2.35 2.7 -0.5 2.45 -0.7 2.8 -3.05 Q2.9 -3.45 2.55 -3.5 2.15 -3.55 2.1 -3.15 L1.8 -1.8 1.7 -2.4 1.9 -3.4 3.6 -3.8 6.0 -2.3 9.2 -0.9 12.7 1.7 17.8 13.1 18.8 13.05 23.3 15.9" fill="#b18527" fill-rule="evenodd" stroke="none"/>
    <path d="M-3.05 3.35 L-2.65 2.3 -2.3 1.5 -1.45 1.45 3.1 9.9 3.45 10.4 Q3.95 10.85 4.6 11.05 L9.45 12.1 14.55 13.3 14.6 13.3 Q15.05 14.2 14.9 15.8 L14.65 16.95 2.05 14.35 0.0 11.5 -3.05 3.35" fill="#c69b28" fill-rule="evenodd" stroke="none"/>
    <path d="M23.3 15.9 L23.85 18.0 23.55 19.4 22.55 20.7 21.2 20.35 Q20.05 19.9 18.75 18.5 L17.3 17.1 15.8 15.75 Q15.15 15.25 9.6 14.2 L3.4 12.9 2.15 11.85 1.25 10.4 -0.8 6.35 -2.55 2.25 -2.55 2.0 -2.2 1.3 Q-1.8 0.9 -1.45 1.45 L3.1 9.9 3.45 10.4 Q3.95 10.85 4.6 11.05 L14.8 13.35 14.75 13.25 15.25 13.15 15.55 12.55 15.45 11.9 12.95 6.85 Q11.1 2.8 10.35 2.2 7.45 0.0 5.65 -0.95 4.35 -1.45 3.75 -1.7 2.6 -2.2 2.2 -3.15 L1.9 -3.4 2.4 -3.7 3.6 -3.8 Q5.25 -3.3 6.85 -2.45 L9.2 -1.0 13.05 1.95 17.8 13.1 18.8 13.05 23.3 15.9" fill="#e7d078" fill-rule="evenodd" stroke="none"/>
    <path d="M21.7 14.55 L23.2 15.65 23.55 16.4 22.95 16.45 22.2 15.95 21.45 15.45 Q19.75 14.4 17.7 13.95 16.8 13.75 16.45 13.05 L15.9 11.5 14.7 7.85 13.5 4.25 Q12.9 2.5 11.55 1.45 10.2 0.4 8.5 -0.6 5.95 -2.0 4.6 -1.95 L3.7 -2.0 Q3.25 -2.05 2.9 -2.4 1.7 -3.55 2.2 -3.7 L4.0 -3.85 6.35 -3.25 9.45 -1.2 12.45 1.2 Q13.5 2.05 14.2 3.8 L15.8 7.35 16.55 9.35 17.15 11.35 Q17.55 12.25 18.3 12.85 L20.0 13.75 21.7 14.55" fill="#ffffff" fill-opacity="0.29803923" fill-rule="evenodd" stroke="none"/>
    <path d="M22.3 20.9 L21.1 20.6 Q20.0 20.1 18.6 18.7 L17.8 17.9 15.7 15.95 Q15.05 15.5 8.3 14.2 L3.3 13.05 Q2.65 12.75 2.15 12.25 L1.4 11.1 1.05 10.5 -1.0 6.45 -2.75 2.3 -2.8 2.1 -2.8 1.95 -2.75 1.9 -2.75 1.8 Q-2.25 0.85 -1.75 0.9 L-1.25 1.3 3.3 9.8 3.65 10.25 Q4.05 10.7 4.65 10.8 L14.35 13.0 14.3 12.95 14.8 13.05 15.1 12.95 15.35 12.55 15.25 12.05 13.4 8.25 11.65 4.7 Q10.7 2.8 10.15 2.4 L5.55 -0.75 4.45 -1.2 3.05 -1.8 Q2.35 -2.25 2.0 -3.05 L1.8 -3.2 1.65 -3.3 1.75 -3.55 1.8 -3.6 2.3 -3.9 3.45 -4.05 3.65 -4.0 6.8 -2.75 9.15 -1.3 9.35 -1.2 13.25 1.8 13.25 1.85 17.95 12.9 18.85 12.8 23.5 15.75 24.1 18.0 23.75 19.5 22.65 21.0 22.5 20.95 22.3 20.9 M23.6 18.0 L23.1 16.05 18.75 13.3 17.65 13.35 12.9 2.15 9.1 -0.8 8.9 -0.95 6.6 -2.35 Q5.1 -3.15 3.5 -3.55 L3.4 -3.6 2.3 -3.4 2.4 -3.2 Q2.7 -2.55 3.3 -2.15 L4.6 -1.65 5.75 -1.15 Q7.75 -0.15 10.45 2.05 11.3 2.7 13.8 8.05 L15.65 11.8 15.75 12.6 15.4 13.3 15.1 13.5 15.25 13.65 4.55 11.25 3.3 10.55 2.9 10.05 Q-1.0 2.6 -1.65 1.55 L-1.85 1.35 Q-2.05 1.3 -2.3 1.95 L-2.35 2.05 -2.35 2.15 -0.6 6.3 1.45 10.25 1.8 10.85 2.55 11.9 3.5 12.7 8.4 13.75 Q15.25 15.05 15.95 15.55 L18.1 17.55 18.9 18.35 Q20.25 19.75 21.3 20.15 L22.45 20.5 23.3 19.3 23.6 18.0" fill="#fdf9c9" fill-rule="evenodd" stroke="none"/>
    <path d="M21.8 15.4 Q22.5 15.9 22.8 16.75 23.0 17.65 22.65 18.35 22.3 19.1 21.55 19.25 20.75 19.4 20.05 18.9 19.35 18.4 19.1 17.55 18.85 16.65 19.2 15.95 19.55 15.2 20.35 15.05 21.1 14.9 21.8 15.4" fill="#d3ad47" fill-rule="evenodd" stroke="none"/>
    <path d="M21.75 15.65 Q22.3 16.05 22.5 16.75 22.7 17.45 22.4 18.05 22.1 18.7 21.45 18.8 20.85 18.95 20.25 18.5 19.7 18.05 19.5 17.4 19.3 16.7 19.6 16.1 19.9 15.5 20.5 15.35 21.1 15.25 21.75 15.65" fill="#fdf9c9" fill-rule="evenodd" stroke="none"/>
    <path d="M20.8 16.15 L21.4 16.25 21.8 16.85 21.75 17.45 21.3 17.8 20.7 17.7 20.3 17.1 Q20.2 16.75 20.35 16.5 L20.8 16.15" fill="#c69b28" fill-rule="evenodd" stroke="none"/>
    <path d="M21.65 17.0 L20.6 17.25 20.5 16.95 21.55 16.7 21.65 17.0" fill="#986f2b" fill-rule="evenodd" stroke="none"/>
  </g>
</svg>
