<?xml version="1.0" encoding="UTF-8" standalone="no"?>
<svg xmlns:xlink="http://www.w3.org/1999/xlink" height="27.7px" width="30.0px" xmlns="http://www.w3.org/2000/svg">
  <g transform="matrix(1.0, 0.0, 0.0, 1.0, 13.75, 23.3)">
    <path d="M9.7 -16.9 Q10.35 -17.9 10.3 -18.55 L10.25 -19.15 10.1 -19.35 9.3 -20.1 Q7.6 -21.05 5.75 -20.4 4.9 -20.0 4.55 -19.65 L3.75 -18.8 Q3.55 -18.6 2.65 -18.3 L1.2 -17.8 Q-1.65 -17.05 -3.55 -17.05 -5.1 -16.9 -5.7 -17.3 L-6.25 -18.0 -7.0 -18.15 -7.8 -18.15 -8.05 -18.1 Q-8.7 -17.8 -8.75 -17.35 L-8.8 -17.2 -8.8 -17.05 -7.3 -14.0 Q-7.05 -13.4 -7.25 -12.75 L-7.9 -11.7 -9.75 -9.2 Q-10.75 -7.7 -10.95 -6.7 L-11.0 -5.6 -10.8 -4.85 -10.65 -4.45 -10.65 -4.5 -10.2 -3.55 Q-9.85 -3.15 -10.0 -2.55 -10.2 -2.05 -10.65 -1.75 L-11.0 -1.55 -11.1 -1.45 -11.1 -1.35 -10.95 -1.15 Q-10.15 -0.7 -9.7 -0.75 L-9.55 -0.8 -9.1 -1.0 -8.55 -1.1 Q-7.2 -0.95 -5.2 0.0 L-2.05 1.35 1.45 1.7 2.5 1.4 3.5 1.25 4.95 1.2 6.8 1.1 8.15 1.35 9.55 1.25 9.7 1.1 9.9 0.7 10.7 0.1 11.7 0.2 12.95 0.3 13.3 0.1 13.45 0.05 13.5 -0.1 Q13.45 0.15 13.55 -0.15 L13.55 -0.3 13.55 -0.6 13.45 -0.8 13.35 -0.9 13.25 -1.0 13.2 -1.1 13.0 -1.15 Q12.35 -1.3 12.15 -1.85 11.95 -2.45 12.2 -3.1 L12.45 -4.1 12.5 -5.65 12.45 -6.35 12.4 -6.7 12.25 -7.6 11.5 -10.2 11.3 -10.7 10.75 -11.45 10.55 -11.6 10.5 -11.65 10.85 -11.55 10.3 -11.85 10.5 -11.65 Q9.1 -12.25 9.1 -15.05 9.0 -15.65 9.15 -16.05 L9.7 -16.9 M10.45 -22.55 Q12.45 -21.5 12.85 -19.65 13.35 -17.25 11.75 -15.15 L11.75 -14.4 11.9 -14.15 11.95 -13.95 Q13.0 -13.35 13.7 -11.75 14.5 -10.25 14.8 -8.5 15.5 -5.35 14.95 -3.1 L15.1 -3.05 15.2 -2.95 15.3 -2.85 Q16.0 -1.95 16.2 -0.85 16.4 0.35 15.75 1.3 14.9 2.65 13.5 2.95 L11.65 2.95 Q10.7 4.05 8.95 4.1 L6.65 3.75 6.4 3.75 6.55 3.7 6.3 3.7 6.4 3.75 4.95 3.85 3.95 3.9 3.2 4.1 0.8 4.4 Q-1.5 4.5 -3.4 3.7 L-7.35 1.95 -8.3 1.65 -8.45 1.65 -8.3 1.55 -8.55 1.6 -8.45 1.65 -10.55 1.85 Q-11.65 1.65 -12.6 0.95 -13.55 0.2 -13.7 -0.85 -13.95 -2.2 -13.0 -3.2 -14.05 -5.5 -13.4 -7.9 -12.95 -9.25 -11.65 -11.0 L-9.95 -13.35 -10.65 -14.85 Q-11.55 -16.55 -11.45 -17.35 -11.3 -18.9 -10.2 -19.9 -9.0 -20.85 -7.45 -20.85 L-5.05 -20.45 -4.2 -19.8 -4.15 -19.65 -3.95 -19.65 -2.65 -19.75 -0.1 -20.2 2.0 -20.85 Q3.5 -22.6 5.8 -23.15 8.25 -23.65 10.45 -22.55" fill="#ffffff" fill-rule="evenodd" stroke="none"/>
    <path d="M8.9 -21.7 Q11.2 -21.05 11.6 -19.15 11.75 -18.2 11.35 -17.15 L10.45 -15.7 Q10.3 -14.3 10.75 -13.2 L10.95 -12.9 11.2 -12.85 11.4 -12.65 Q12.9 -11.55 13.6 -7.8 14.3 -4.1 13.35 -2.5 L13.3 -2.4 13.5 -2.35 13.95 -2.3 14.2 -2.0 Q15.15 -1.1 14.85 0.05 14.55 1.15 13.5 1.55 L12.5 1.75 Q11.7 1.75 11.1 1.35 10.5 2.65 9.1 2.75 L8.75 2.75 7.05 2.5 6.35 2.4 4.2 2.55 3.45 2.6 0.4 3.05 -2.7 2.55 -5.45 1.4 Q-7.15 0.55 -7.95 0.35 L-8.65 0.25 -8.9 0.3 -9.85 0.55 -11.0 0.3 Q-12.4 -0.25 -12.4 -1.35 -12.45 -2.2 -11.55 -2.8 L-11.3 -2.9 Q-13.55 -6.2 -10.95 -9.85 L-9.75 -11.5 -8.45 -13.3 -10.15 -16.75 -10.15 -16.95 Q-10.15 -18.05 -9.5 -18.75 -8.3 -19.95 -5.85 -19.25 L-5.35 -19.15 -5.05 -18.4 -3.95 -18.3 -2.45 -18.4 Q0.15 -18.75 2.6 -19.7 L2.75 -19.75 Q4.55 -21.95 7.2 -21.95 L8.9 -21.7" fill="#ffffff" fill-rule="evenodd" stroke="none"/>
    <path d="M10.55 -17.25 L9.75 -16.1 9.65 -14.8 Q9.7 -13.7 10.05 -12.9 10.3 -12.25 10.75 -12.1 L10.85 -12.1 10.9 -12.05 Q12.15 -11.05 12.85 -7.6 13.45 -4.2 12.7 -2.9 12.4 -2.3 12.55 -2.05 L13.45 -1.55 13.55 -1.55 13.65 -1.45 13.95 -1.0 14.05 -0.1 13.15 0.85 12.5 0.95 Q11.85 0.95 10.95 0.45 L10.6 0.25 10.55 0.5 Q10.1 1.85 9.05 1.95 L8.75 1.95 7.2 1.75 6.35 1.6 6.2 1.65 4.15 1.8 3.25 1.85 0.4 2.35 -2.5 1.85 -5.05 0.75 -7.75 -0.4 -8.65 -0.55 -9.2 -0.4 -9.85 -0.25 -10.65 -0.4 Q-11.6 -0.75 -11.65 -1.35 -11.65 -1.85 -11.15 -2.1 L-10.2 -2.7 Q-11.15 -3.8 -11.4 -5.1 -11.85 -7.25 -10.3 -9.4 L-9.1 -11.0 -7.7 -13.1 Q-7.55 -13.35 -7.75 -13.6 L-7.8 -13.7 -9.35 -16.95 -9.4 -17.05 Q-9.4 -17.7 -8.9 -18.2 -8.1 -19.1 -6.1 -18.5 L-5.9 -18.45 -5.8 -18.3 -5.65 -17.8 -3.95 -17.55 -2.35 -17.65 Q0.3 -18.0 2.85 -18.95 L2.95 -19.0 3.25 -19.05 Q3.65 -19.75 4.55 -20.25 5.75 -21.15 7.2 -21.15 L8.7 -20.95 Q10.6 -20.4 10.8 -19.0 10.95 -18.2 10.55 -17.25 M10.05 -18.85 Q9.9 -19.8 8.45 -20.2 L7.2 -20.45 Q5.85 -20.45 4.7 -19.45 L3.8 -18.5 3.75 -18.35 3.15 -18.25 Q0.5 -17.2 -2.25 -16.85 L-3.95 -16.75 -5.75 -17.05 -5.85 -17.05 -6.5 -17.8 -8.35 -17.65 -8.6 -17.15 -7.1 -14.0 Q-6.7 -13.35 -6.95 -12.9 L-8.45 -10.55 -9.65 -8.95 Q-11.35 -6.6 -10.45 -4.6 -10.0 -3.5 -9.25 -2.95 L-8.85 -2.6 -10.8 -1.4 -10.4 -1.15 -9.85 -0.95 -9.55 -1.1 -8.65 -1.3 -7.5 -1.15 -4.75 0.05 Q-1.65 1.55 0.4 1.55 L3.05 1.1 4.15 1.0 5.9 0.9 6.35 0.8 7.4 1.0 8.75 1.2 9.0 1.2 Q9.6 1.15 9.75 0.3 L10.05 -0.4 10.5 -0.55 11.35 -0.25 12.5 0.2 12.9 0.1 13.3 -0.3 13.15 -0.85 Q12.25 -1.0 11.9 -1.65 11.55 -2.35 12.05 -3.25 12.65 -4.45 12.1 -7.45 11.5 -10.55 10.5 -11.4 9.5 -11.7 9.05 -13.55 L8.85 -15.25 Q8.85 -16.45 9.2 -16.7 L9.8 -17.5 10.05 -18.85" fill="#765433" fill-rule="evenodd" stroke="none"/>
    <path d="M11.35 -17.15 L10.45 -15.7 Q10.3 -14.3 10.75 -13.2 L10.95 -12.9 11.2 -12.85 11.4 -12.65 Q12.9 -11.55 13.6 -7.8 14.3 -4.1 13.35 -2.5 L13.3 -2.4 13.5 -2.35 13.95 -2.3 14.2 -2.0 Q15.15 -1.1 14.85 0.05 14.55 1.15 13.5 1.55 L12.5 1.75 Q11.7 1.75 11.1 1.35 10.5 2.65 9.1 2.75 L8.75 2.75 7.05 2.5 6.35 2.4 4.2 2.55 3.45 2.6 0.4 3.05 -2.7 2.55 -5.45 1.4 Q-7.15 0.55 -7.95 0.35 L-8.65 0.25 -8.9 0.3 -9.85 0.55 -11.0 0.3 Q-12.4 -0.25 -12.4 -1.35 -12.45 -2.2 -11.55 -2.8 L-11.3 -2.9 Q-13.55 -6.2 -10.95 -9.85 L-9.75 -11.5 -8.45 -13.3 -10.15 -16.75 -10.15 -16.95 Q-10.15 -18.05 -9.5 -18.75 -8.3 -19.95 -5.85 -19.25 L-5.35 -19.15 -5.05 -18.4 -3.95 -18.3 -2.45 -18.4 Q0.15 -18.75 2.6 -19.7 L2.75 -19.75 Q4.55 -21.95 7.2 -21.95 L8.9 -21.7 Q11.2 -21.05 11.6 -19.15 11.75 -18.2 11.35 -17.15 M9.3 -18.75 Q9.15 -19.25 8.25 -19.45 L7.2 -19.65 Q6.15 -19.65 5.2 -18.9 L4.45 -18.1 4.2 -17.7 3.4 -17.5 Q0.05 -16.4 -2.2 -16.1 L-5.85 -16.25 Q-6.6 -16.25 -7.05 -17.15 L-7.4 -17.2 -7.75 -17.15 -6.4 -14.35 Q-5.85 -13.45 -6.15 -12.65 L-7.85 -10.1 -9.0 -8.5 Q-10.45 -6.5 -9.75 -4.85 -9.45 -4.05 -8.8 -3.55 L-7.45 -2.5 -8.25 -2.05 -7.3 -1.85 -4.45 -0.7 -2.1 0.3 0.4 0.8 2.75 0.35 4.15 0.25 6.35 0.05 7.55 0.25 8.75 0.4 8.95 0.4 9.0 0.15 Q9.25 -0.65 9.55 -0.9 9.9 -1.3 10.5 -1.3 L11.35 -1.1 11.2 -1.35 Q10.6 -2.3 11.35 -3.65 11.75 -4.5 11.3 -7.3 10.8 -9.85 10.05 -10.7 8.75 -11.3 8.25 -13.35 L8.1 -15.05 Q8.05 -16.7 8.75 -17.3 9.45 -18.0 9.3 -18.75" fill="#64442a" fill-rule="evenodd" stroke="none"/>
    <path d="M10.45 -18.25 Q10.25 -16.95 9.5 -16.4 9.0 -16.05 9.3 -14.05 9.7 -12.0 10.7 -11.7 11.85 -10.8 12.45 -7.55 13.05 -4.35 12.35 -3.1 11.75 -2.05 12.5 -1.5 L13.35 -1.2 13.7 -0.55 Q13.9 0.15 13.05 0.45 12.4 0.75 11.4 0.25 10.5 -0.25 10.4 -0.05 L10.0 0.85 Q9.75 1.55 9.0 1.6 L7.35 1.35 6.0 1.25 4.45 1.4 3.15 1.5 -2.9 1.3 Q-6.0 -0.3 -7.6 -0.75 -8.7 -1.0 -9.35 -0.75 -9.85 -0.5 -10.5 -0.75 -11.35 -1.1 -11.25 -1.45 L-11.0 -1.75 -9.55 -2.6 Q-10.35 -3.25 -10.8 -4.35 -11.8 -6.65 -9.95 -9.15 L-7.45 -12.65 Q-7.1 -13.25 -7.4 -13.85 L-8.95 -17.05 -8.65 -17.9 Q-8.0 -18.6 -6.2 -18.15 -5.75 -17.05 -5.85 -17.5 L-2.3 -17.3 Q0.5 -17.6 3.05 -18.6 L3.45 -18.75 4.8 -20.05 Q6.5 -21.25 8.6 -20.6 10.7 -19.95 10.45 -18.25" fill="#b88c62" fill-rule="evenodd" stroke="none"/>
    <path d="M8.5 -20.55 Q10.3 -20.1 9.85 -19.2 L9.4 -18.9 8.8 -18.6 7.9 -17.7 Q6.9 -16.5 6.6 -15.15 6.15 -12.95 6.2 -12.15 L6.25 -9.35 Q6.25 -5.35 6.6 -3.25 7.1 -0.95 9.8 0.3 9.95 0.85 9.3 1.1 L8.3 1.5 6.0 1.35 3.95 1.5 Q4.9 0.65 5.4 -0.85 5.8 -2.25 5.5 -3.1 4.85 -4.8 4.75 -7.25 L4.7 -11.45 Q4.7 -13.0 5.15 -14.25 L5.65 -15.55 Q5.95 -16.45 5.85 -16.85 L5.8 -17.5 5.45 -17.9 4.75 -17.9 3.9 -17.7 2.5 -17.4 -5.3 -17.15 -2.2 -17.6 0.25 -18.05 Q1.6 -18.3 2.55 -18.85 3.05 -19.1 3.85 -19.8 L6.2 -20.75 8.5 -20.55 M-5.3 -17.15 L-5.55 -17.15 -5.65 -17.3 -5.3 -17.15" fill="#ffffff" fill-opacity="0.29803923" fill-rule="evenodd" stroke="none"/>
    <path d="M-5.95 -7.2 L-5.95 -7.45 -7.8 -6.9 -8.25 -6.35 -6.95 -4.25 -6.4 -3.9 -6.35 -3.95 -6.35 -4.0 -5.4 -5.3 Q-5.95 -6.15 -5.95 -7.2 M-5.1 -10.45 L-6.1 -11.3 -7.05 -10.25 -7.35 -9.75 Q-7.7 -9.35 -7.25 -8.75 L-5.85 -7.9 Q-5.6 -9.2 -4.55 -9.85 L-5.1 -10.45 M2.45 -10.45 Q1.9 -11.25 0.8 -11.7 0.0 -12.05 -1.95 -9.8 -0.6 -8.95 -0.6 -7.2 -0.6 -5.9 -1.4 -5.0 -2.2 -4.15 -3.3 -4.15 -4.1 -4.15 -4.8 -4.7 L-5.35 -3.15 -5.4 -2.9 -5.45 -2.45 -5.0 -2.1 Q-4.65 -1.8 -3.7 -1.8 L-1.15 -2.2 Q-0.7 -2.4 -0.7 -2.65 L-1.35 -4.0 -1.0 -4.35 Q0.3 -3.45 1.3 -3.45 L1.85 -3.55 Q2.65 -3.8 3.1 -4.55 3.6 -5.7 3.1 -7.1 2.8 -7.65 0.65 -7.5 L0.55 -8.05 Q2.65 -8.75 2.75 -9.35 L2.45 -10.45 M-1.1 -11.35 Q-0.1 -12.25 0.6 -12.25 L0.95 -12.2 Q2.4 -11.55 3.0 -10.55 L3.25 -9.25 Q3.1 -8.7 1.95 -8.05 3.25 -8.0 3.55 -7.25 4.15 -5.65 3.5 -4.3 3.05 -3.3 2.0 -3.1 L1.3 -3.0 Q0.4 -3.0 -0.55 -3.45 L-0.2 -2.85 Q-0.05 -2.15 -0.95 -1.7 L-3.7 -1.3 Q-4.9 -1.3 -5.35 -1.65 -6.1 -2.25 -5.9 -3.0 L-5.85 -3.25 -5.5 -4.25 -5.9 -3.75 Q-6.0 -3.4 -6.4 -3.4 L-7.25 -3.9 Q-7.8 -4.35 -8.3 -5.35 L-8.75 -6.2 -8.75 -6.25 Q-8.9 -7.15 -7.95 -7.4 L-6.65 -7.8 -7.55 -8.35 -7.6 -8.4 -7.95 -9.1 Q-8.05 -9.65 -7.75 -10.05 L-7.4 -10.55 Q-6.65 -11.8 -6.0 -11.75 L-5.0 -11.05 -5.65 -12.05 -5.4 -12.2 -4.45 -12.65 Q-3.35 -13.15 -2.55 -13.15 -1.55 -13.15 -0.9 -12.35 L-0.8 -12.25 -0.85 -12.15 -1.1 -11.35 M-1.35 -12.15 Q-1.8 -12.6 -2.55 -12.6 -3.4 -12.6 -4.9 -11.85 L-3.8 -10.1 -3.3 -10.15 -2.45 -10.05 Q-1.65 -11.35 -1.35 -12.15" fill="#222222" fill-opacity="0.29803923" fill-rule="evenodd" stroke="none"/>
    <path d="M-2.55 -11.85 L-3.9 -11.55 -3.45 -10.9 -3.3 -10.9 -2.75 -10.85 -2.25 -11.85 -2.55 -11.85 M3.55 -10.85 Q4.1 -9.9 3.95 -9.1 L3.55 -8.35 4.2 -7.5 Q4.95 -5.6 4.15 -3.95 3.55 -2.7 2.2 -2.4 L0.5 -2.35 Q0.25 -1.5 -0.7 -1.1 -1.7 -0.6 -3.7 -0.6 -5.0 -0.6 -5.75 -1.1 -6.75 -1.75 -6.65 -2.7 -7.15 -2.8 -7.75 -3.35 L-8.9 -4.9 -9.4 -5.95 -9.45 -6.15 Q-9.55 -6.7 -9.25 -7.25 -8.95 -7.85 -8.25 -8.1 -9.15 -9.3 -8.3 -10.5 L-8.05 -10.9 Q-7.15 -12.4 -6.25 -12.5 L-5.8 -12.75 Q-3.7 -13.85 -2.55 -13.85 -1.05 -13.85 -0.3 -12.75 L1.3 -12.85 Q2.95 -12.15 3.55 -10.85 M-5.6 -9.95 L-6.1 -10.4 -6.75 -9.35 -6.7 -9.25 -6.3 -9.0 -5.6 -9.9 -5.6 -9.95 M-5.2 -7.2 Q-5.2 -6.4 -4.8 -5.7 L-4.6 -5.45 -4.35 -5.3 Q-3.95 -4.9 -3.3 -4.9 -2.45 -4.9 -1.9 -5.55 -1.35 -6.25 -1.35 -7.2 -1.35 -8.5 -2.35 -9.2 L-2.5 -9.3 -2.7 -9.35 -3.65 -9.4 -3.9 -9.35 -4.15 -9.2 Q-5.0 -8.75 -5.15 -7.7 L-4.9 -7.5 -5.2 -7.45 -5.2 -7.2 M-7.45 -6.3 L-6.55 -4.9 -6.25 -5.35 -6.6 -6.5 -7.45 -6.3 M-4.6 -2.65 L-3.7 -2.5 -1.55 -2.85 -1.95 -3.7 -2.05 -3.75 Q-2.55 -3.4 -3.3 -3.4 L-4.45 -3.65 -4.65 -3.0 -4.7 -2.7 -4.6 -2.65 M2.45 -6.7 L1.45 -6.8 0.1 -6.75 Q0.05 -5.75 -0.6 -4.95 0.6 -4.2 1.3 -4.2 L1.7 -4.25 2.45 -4.85 Q2.8 -5.55 2.45 -6.7 M2.0 -9.6 Q1.85 -10.45 0.6 -11.0 L-0.9 -9.85 -0.1 -8.55 0.3 -8.75 Q1.65 -9.1 2.0 -9.6" fill="#222222" fill-opacity="0.29803923" fill-rule="evenodd" stroke="none"/>
    <path d="M2.65 -10.5 Q3.1 -9.8 3.0 -9.3 2.85 -8.65 1.05 -7.95 -0.75 -7.25 -1.7 -7.45 -2.6 -7.65 -2.55 -7.95 -2.3 -8.2 -2.45 -8.3 -2.65 -8.45 -2.65 -8.9 L-2.6 -9.3 -1.35 -10.8 Q0.15 -12.25 0.9 -11.9 2.15 -11.4 2.65 -10.5" fill="#ffffff" fill-rule="evenodd" stroke="none"/>
    <path d="M-2.25 -4.95 L-1.35 -7.5 0.85 -7.85 Q3.05 -7.95 3.3 -7.2 3.75 -5.95 3.45 -4.9 3.15 -3.7 1.9 -3.3 0.7 -3.0 -0.9 -4.0 L-2.25 -4.95" fill="#ffffff" fill-rule="evenodd" stroke="none"/>
    <path d="M-4.55 -5.95 L-2.4 -5.85 Q-2.25 -6.2 -1.35 -4.5 L-0.45 -2.7 Q-0.3 -2.3 -1.05 -2.0 -1.7 -1.65 -3.1 -1.55 -4.65 -1.45 -5.15 -1.85 L-5.7 -2.5 -5.6 -3.2 -4.55 -5.95" fill="#ffffff" fill-rule="evenodd" stroke="none"/>
    <path d="M-4.55 -5.95 L-6.15 -3.85 Q-6.25 -3.3 -7.1 -4.05 L-8.1 -5.5 -8.45 -6.3 -8.4 -6.65 -7.85 -7.2 -5.5 -7.85 Q-4.85 -5.75 -4.55 -5.95" fill="#ffffff" fill-rule="evenodd" stroke="none"/>
    <path d="M-4.85 -10.55 Q-3.95 -9.6 -3.55 -9.6 -3.2 -9.6 -3.9 -8.45 L-4.65 -7.1 Q-4.55 -6.75 -5.3 -7.25 L-7.4 -8.55 Q-8.0 -9.25 -7.55 -9.9 L-6.8 -10.95 -6.0 -11.5 Q-5.75 -11.5 -4.85 -10.55" fill="#ffffff" fill-rule="evenodd" stroke="none"/>
    <path d="M-3.55 -9.25 L-5.3 -12.0 -3.65 -12.7 Q-1.8 -13.2 -1.05 -12.2 -1.15 -11.5 -2.5 -9.55 L-3.55 -9.25" fill="#ffffff" fill-rule="evenodd" stroke="none"/>
    <path d="M-2.55 -12.6 Q-3.4 -12.6 -4.9 -11.85 L-3.45 -9.6 -2.6 -9.75 Q-1.6 -11.4 -1.35 -12.15 -1.8 -12.6 -2.55 -12.6 M-0.8 -12.25 L-0.85 -12.15 -1.1 -11.35 Q-0.1 -12.25 0.6 -12.25 L0.95 -12.2 Q2.4 -11.55 3.0 -10.55 L3.25 -9.25 Q3.1 -8.7 1.95 -8.05 3.25 -8.0 3.55 -7.25 4.15 -5.65 3.5 -4.3 3.05 -3.3 2.0 -3.1 L1.3 -3.0 Q0.4 -3.0 -0.55 -3.45 L-0.2 -2.85 Q-0.05 -2.15 -0.95 -1.7 L-3.7 -1.3 Q-4.9 -1.3 -5.35 -1.65 -6.1 -2.25 -5.9 -3.0 L-5.85 -3.25 -5.5 -4.25 -5.9 -3.75 Q-6.0 -3.4 -6.4 -3.4 L-7.25 -3.9 Q-7.8 -4.35 -8.3 -5.35 L-8.75 -6.2 -8.75 -6.25 Q-8.9 -7.15 -7.95 -7.4 L-6.65 -7.8 -7.55 -8.35 -7.6 -8.4 -7.95 -9.1 Q-8.05 -9.65 -7.75 -10.05 L-7.4 -10.55 Q-6.65 -11.8 -6.0 -11.75 L-5.0 -11.05 -5.65 -12.05 -5.4 -12.2 -4.45 -12.65 Q-3.35 -13.15 -2.55 -13.15 -1.55 -13.15 -0.9 -12.35 L-0.8 -12.25 M0.8 -11.7 Q-0.15 -12.1 -2.25 -9.5 L-2.3 -9.35 -2.4 -9.2 -2.3 -8.5 Q-2.1 -8.3 -2.3 -7.95 L-1.65 -7.7 -1.35 -7.65 -1.0 -7.65 -1.9 -5.1 -2.2 -5.5 -2.3 -5.55 Q-2.45 -5.4 -2.95 -5.4 L-4.35 -5.65 -5.35 -3.15 -5.4 -2.9 -5.45 -2.45 -5.0 -2.1 Q-4.65 -1.8 -3.7 -1.8 L-1.15 -2.2 Q-0.7 -2.4 -0.7 -2.65 L-1.35 -4.0 -1.0 -4.35 Q0.3 -3.45 1.3 -3.45 L1.85 -3.55 Q2.65 -3.8 3.1 -4.55 3.6 -5.7 3.1 -7.1 2.8 -7.65 0.65 -7.5 L0.55 -8.05 Q2.65 -8.75 2.75 -9.35 L2.45 -10.45 Q1.9 -11.25 0.8 -11.7 M-7.05 -10.25 L-7.35 -9.75 Q-7.7 -9.35 -7.25 -8.75 L-4.85 -7.3 -4.3 -8.25 -3.7 -9.3 -3.9 -9.4 -5.1 -10.45 -6.1 -11.3 -7.05 -10.25 M-5.65 -7.5 L-5.95 -7.45 -7.8 -6.9 -8.25 -6.35 -6.95 -4.25 -6.4 -3.9 -6.35 -3.95 -6.35 -4.0 -4.9 -5.85 -5.5 -7.15 -5.65 -7.5 M-3.25 -9.1 L-4.45 -7.15 -4.45 -6.85 -4.7 -6.7 -4.8 -6.7 -4.6 -6.25 -4.45 -6.2 -2.95 -5.85 -2.6 -5.95 Q-2.4 -6.3 -2.15 -6.15 L-1.7 -7.25 -1.75 -7.25 Q-2.7 -7.45 -2.75 -7.8 L-2.7 -8.2 -2.95 -9.15 -3.15 -9.1 -3.25 -9.1" fill="#cdcdcc" fill-rule="evenodd" stroke="none"/>
    <path d="M-5.55 -7.2 Q-5.55 -8.25 -4.9 -9.0 -4.2 -9.75 -3.3 -9.75 -2.35 -9.75 -1.65 -9.0 -1.0 -8.25 -1.0 -7.2 -1.0 -6.15 -1.65 -5.35 -2.35 -4.6 -3.3 -4.6 -4.2 -4.6 -4.9 -5.35 -5.55 -6.15 -5.55 -7.2" fill="#facf1d" fill-rule="evenodd" stroke="none"/>
    <path d="M-3.3 -5.05 Q-2.55 -5.05 -2.05 -5.7 -1.5 -6.3 -1.5 -7.2 -1.5 -8.1 -2.05 -8.7 -2.55 -9.3 -3.3 -9.3 -4.05 -9.3 -4.6 -8.7 -5.1 -8.05 -5.1 -7.2 -5.1 -6.35 -4.6 -5.7 -4.05 -5.05 -3.3 -5.05 M-5.15 -9.3 Q-4.35 -10.15 -3.3 -10.15 -2.2 -10.15 -1.4 -9.3 -0.6 -8.4 -0.6 -7.2 -0.6 -5.9 -1.4 -5.0 -2.2 -4.15 -3.3 -4.15 -4.35 -4.15 -5.15 -5.0 -5.95 -5.9 -5.95 -7.2 -5.95 -8.4 -5.15 -9.3" fill="#de8b43" fill-rule="evenodd" stroke="none"/>
    <path d="M9.05 -1.0 L8.45 -0.45 Q7.4 -0.95 6.8 -3.15 6.25 -5.3 6.5 -7.3 L6.55 -9.85 6.0 -11.3 Q5.7 -12.2 7.15 -15.5 8.6 -18.85 9.15 -18.45 9.6 -18.2 8.9 -16.65 L7.95 -14.45 Q7.85 -13.6 8.25 -12.6 8.8 -11.35 9.8 -11.05 11.3 -10.65 11.5 -5.8 11.7 -0.9 10.6 -1.3 9.75 -1.6 9.05 -1.0" fill="#8c6842" fill-opacity="0.49803922" fill-rule="evenodd" stroke="none"/>
    <path d="M7.95 -16.75 Q8.6 -17.8 8.45 -18.55 8.4 -19.05 9.0 -19.05 9.55 -19.05 9.6 -18.6 9.7 -17.75 9.1 -16.7 L8.2 -14.9 Q7.95 -13.9 8.6 -12.95 L9.85 -11.3 Q11.25 -9.35 11.25 -6.15 L11.1 -3.7 Q10.85 -2.0 11.05 -1.35 11.1 -1.1 10.75 -0.9 L10.25 -0.9 9.85 -1.15 9.45 -1.3 9.25 -0.65 Q9.2 -0.15 8.7 -0.15 8.15 -0.25 8.15 -0.65 8.15 -1.7 8.8 -2.05 9.15 -2.25 9.85 -2.05 L9.95 -3.75 Q10.25 -5.2 10.15 -6.35 9.95 -9.8 8.5 -11.45 6.65 -13.4 7.1 -15.0 L7.95 -16.75" fill="#765433" fill-opacity="0.49803922" fill-rule="evenodd" stroke="none"/>
    <path d="M8.1 -20.7 Q8.85 -20.7 9.55 -20.2 L10.5 -19.15 10.45 -18.65 Q10.0 -18.15 9.55 -18.3 8.95 -18.4 8.65 -18.05 L7.5 -16.05 Q6.05 -13.2 6.55 -10.9 6.9 -9.35 6.85 -8.35 L6.65 -5.6 Q6.65 -2.85 8.85 -0.65 9.2 -0.25 8.95 0.1 8.7 0.4 8.3 0.0 5.85 -2.45 5.65 -5.2 L5.8 -8.25 Q5.9 -9.15 5.6 -11.0 5.25 -12.55 5.6 -13.8 5.9 -15.25 6.55 -16.6 L7.25 -17.8 7.85 -18.8 Q8.2 -19.25 8.75 -19.3 L9.2 -19.25 Q9.5 -19.2 9.6 -19.4 L9.25 -19.9 7.7 -20.25 6.85 -20.7 8.1 -20.7" fill="#ffffff" fill-opacity="0.49803922" fill-rule="evenodd" stroke="none"/>
  </g>
</svg>
