<?xml version="1.0" encoding="UTF-8" standalone="no"?>
<svg xmlns:xlink="http://www.w3.org/1999/xlink" height="28.25px" width="30.0px" xmlns="http://www.w3.org/2000/svg">
  <g transform="matrix(1.0, 0.0, 0.0, 1.0, 15.95, 24.3)">
    <path d="M4.2 -17.8 L4.55 -18.9 3.5 -19.15 3.45 -19.15 Q2.7 -19.15 2.4 -18.2 L4.2 -17.8 M11.5 -3.2 L10.35 -3.2 Q10.7 -1.95 9.9 -0.55 L9.7 -0.3 9.45 -0.1 8.7 0.35 8.5 0.6 Q7.9 1.8 5.45 2.9 3.25 3.8 1.9 3.8 L0.85 3.7 0.35 3.6 0.0 3.7 -0.75 3.9 -1.0 3.95 -1.05 3.95 Q-1.7 3.95 -2.4 3.35 L-3.85 1.9 -4.0 1.9 -4.45 1.9 Q-5.55 1.75 -6.2 0.35 -6.75 -0.7 -6.7 -1.55 -6.7 -2.5 -6.0 -3.05 L-6.0 -3.1 -6.2 -4.4 -6.4 -4.9 Q-7.2 -7.05 -8.95 -9.5 -10.4 -11.55 -11.15 -12.05 L-11.4 -12.1 -12.6 -11.95 -13.25 -11.8 -14.05 -11.6 -14.45 -11.75 -15.3 -12.4 -15.95 -13.2 -15.7 -14.25 Q-14.95 -17.25 -12.25 -19.05 -10.3 -20.3 -7.7 -20.9 L-6.35 -21.15 -4.75 -21.25 -4.65 -16.9 -4.55 -17.0 Q-3.9 -17.6 -2.4 -18.05 -1.75 -22.75 0.55 -23.8 1.6 -24.25 3.0 -24.3 L3.2 -24.3 Q5.55 -24.3 7.05 -22.9 8.6 -21.55 8.7 -19.4 8.75 -17.6 8.2 -15.95 9.75 -14.85 10.4 -13.4 10.8 -12.4 10.8 -11.45 13.7 -10.15 14.0 -7.85 14.35 -5.4 11.9 -3.5 L11.5 -3.2" fill="#ffffff" fill-rule="evenodd" stroke="none"/>
    <path d="M-1.7 -16.35 Q0.95 -17.0 4.5 -15.85 8.3 -14.6 9.15 -12.4 9.45 -11.6 9.2 -10.95 8.95 -10.35 8.4 -10.3 7.5 -10.25 6.95 -9.2 L6.25 -7.3 Q5.95 -6.25 6.2 -3.8 6.5 -1.3 6.95 -1.9 L7.85 -1.95 8.2 -1.4 7.85 -1.15 7.2 -0.3 Q6.85 0.4 4.55 1.3 2.2 2.25 1.25 1.9 L-0.1 1.8 -0.95 2.1 Q-1.35 2.15 -2.25 1.25 L-3.25 0.15 -3.6 0.05 -4.3 0.05 Q-4.7 0.05 -5.0 -0.75 L-5.15 -1.5 Q-5.1 -1.45 -4.7 -1.75 L-4.35 -2.2 Q-4.8 -4.85 -4.9 -7.7 -5.1 -13.4 -3.65 -15.5 L-1.7 -16.35" fill="url(#gradient0)" fill-rule="evenodd" stroke="none"/>
    <path d="M-2.2 -11.9 Q-3.25 -12.65 -3.85 -13.75 L-4.0 -14.0 -3.35 -15.55 -1.45 -16.25 Q1.05 -16.75 4.35 -15.65 7.3 -14.7 8.4 -13.0 9.25 -11.65 8.6 -10.8 L8.4 -10.7 8.0 -10.5 7.6 -10.15 7.35 -9.95 5.4 -9.6 3.6 -9.8 1.8 -10.1 Q-0.1 -10.35 -2.2 -11.9" fill="#86b84a" fill-rule="evenodd" stroke="none"/>
    <path d="M6.75 -8.9 L6.8 -8.9 6.25 -7.3 Q6.0 -6.6 6.1 -4.9 6.2 -3.25 6.45 -2.35 5.85 -1.7 4.5 -1.4 L1.6 -1.15 Q-1.85 -1.4 -4.55 -3.4 -5.25 -8.55 -4.7 -12.25 -2.4 -9.45 2.1 -8.9 4.55 -8.6 6.75 -8.9" fill="url(#gradient1)" fill-rule="evenodd" stroke="none"/>
    <path d="M6.75 -8.9 L6.8 -8.9 6.25 -7.3 Q6.0 -6.6 6.1 -4.9 6.2 -3.25 6.45 -2.35 5.85 -1.7 4.5 -1.4 L1.6 -1.15 Q-1.85 -1.4 -4.55 -3.4 -5.25 -8.55 -4.7 -12.25 -2.4 -9.45 2.1 -8.9 4.55 -8.6 6.75 -8.9" fill="#86b84a" fill-opacity="0.2" fill-rule="evenodd" stroke="none"/>
    <path d="M7.35 -12.7 Q7.75 -11.45 5.4 -11.2 2.55 -10.8 -2.25 -13.75 -2.9 -15.0 -0.2 -15.0 L2.75 -14.85 4.9 -14.35 Q7.0 -13.65 7.35 -12.7" fill="#46583c" fill-rule="evenodd" stroke="none"/>
    <path d="M2.25 -14.4 L0.05 -14.55 -1.6 -14.35 -1.95 -14.15 -1.95 -14.1 Q2.15 -11.65 4.85 -11.65 5.85 -11.65 6.5 -12.0 L6.95 -12.5 Q6.65 -13.2 4.9 -13.85 L2.8 -14.4 2.7 -14.35 2.25 -14.4 M2.8 -15.4 L5.1 -14.8 Q7.25 -14.0 7.7 -12.9 L7.75 -12.85 Q7.85 -12.35 7.6 -11.8 6.95 -10.65 4.85 -10.65 1.9 -10.65 -2.4 -13.3 L-2.5 -13.35 -2.6 -13.45 Q-2.9 -14.1 -2.7 -14.65 -2.25 -15.55 0.05 -15.55 L2.35 -15.4 2.7 -15.4 2.8 -15.4" fill="#46583c" fill-rule="evenodd" stroke="none"/>
    <path d="M0.45 -14.3 L4.15 -13.6 6.1 -12.75 6.9 -12.1 6.9 -11.7 6.85 -11.65 Q5.9 -10.9 3.9 -11.2 1.3 -11.55 -2.25 -13.55 L-2.3 -13.75 Q-1.25 -14.4 0.45 -14.3" fill="#98d3ed" fill-rule="evenodd" stroke="none"/>
    <path d="M2.1 -8.6 Q-2.15 -9.1 -4.55 -11.7 -4.95 -8.45 -4.35 -3.6 -1.8 -1.65 1.6 -1.4 L2.65 -1.4 4.45 -1.65 Q5.6 -1.9 6.2 -2.45 L5.9 -5.05 Q5.85 -6.7 6.05 -7.4 L6.45 -8.6 Q4.3 -8.35 2.1 -8.6 M7.0 -8.8 L6.55 -7.55 6.45 -7.2 Q6.25 -6.6 6.3 -4.95 6.4 -3.3 6.65 -2.45 L6.7 -2.3 6.55 -2.15 Q5.95 -1.5 4.55 -1.1 L2.65 -0.85 1.6 -0.9 Q-1.95 -1.2 -4.6 -3.2 L-4.7 -3.25 -4.75 -3.4 Q-5.4 -8.75 -4.9 -12.3 L-4.85 -12.75 -4.55 -12.4 Q-2.35 -9.7 2.15 -9.15 L4.85 -9.05 6.75 -9.15 7.2 -9.25 7.0 -8.8" fill="#b1ce88" fill-rule="evenodd" stroke="none"/>
    <path d="M-5.15 -1.5 Q-5.1 -1.45 -4.75 -1.65 L-4.35 -2.15 Q-1.5 -0.3 1.75 -0.1 L5.0 -0.45 Q6.75 -1.0 7.45 -2.15 7.9 -2.15 8.2 -1.4 L7.85 -1.15 7.2 -0.3 Q6.85 0.4 4.55 1.3 2.2 2.25 1.25 1.9 L-0.1 1.8 -0.95 2.1 Q-1.35 2.15 -2.25 1.25 L-3.25 0.15 -3.6 0.05 -4.3 0.05 Q-4.7 0.05 -5.0 -0.75 L-5.15 -1.5" fill="#86b84a" fill-rule="evenodd" stroke="none"/>
    <path d="M8.8 -10.35 Q7.55 -9.3 5.0 -9.45 2.7 -9.6 0.85 -10.1 -1.4 -10.7 -2.9 -12.1 L-4.25 -13.8 Q-4.8 -14.8 -3.8 -15.7 L-3.45 -15.65 -3.4 -15.5 -3.75 -14.6 -3.6 -13.75 -2.2 -12.1 Q-0.9 -10.9 1.25 -10.35 L4.75 -9.85 6.65 -9.8 Q7.8 -9.9 8.5 -10.45 L8.8 -10.5 Q9.0 -10.45 8.8 -10.35" fill="#586933" fill-rule="evenodd" stroke="none"/>
    <path d="M-2.4 -11.6 L-1.0 -10.85 -1.05 -9.8 -1.15 -7.7 -1.05 -3.8 -1.05 -1.65 -1.05 -1.1 -1.1 -0.65 -1.35 -0.4 -1.6 -0.1 Q-1.75 0.3 -1.2 1.05 L-0.45 1.85 -1.6 1.75 -2.65 0.7 -2.9 -0.5 Q-2.8 -1.2 -2.4 -1.4 L-2.5 -4.05 -2.5 -7.0 -2.45 -9.45 -2.4 -11.6" fill="#ffffff" fill-opacity="0.29803923" fill-rule="evenodd" stroke="none"/>
    <path d="M7.2 -9.15 L6.55 -7.55 6.45 -7.2 Q6.2 -6.4 6.35 -4.3 6.5 -2.4 6.8 -2.1 L7.4 -2.4 Q8.0 -2.45 8.4 -1.55 L8.5 -1.3 8.3 -1.15 7.95 -0.95 7.4 -0.15 Q7.05 0.5 5.1 1.35 3.1 2.2 1.85 2.25 L1.2 2.15 0.3 2.0 -0.4 2.2 -0.95 2.35 -1.05 2.35 Q-1.6 2.4 -2.95 0.8 L-3.35 0.35 -3.5 0.35 -3.65 0.35 -3.95 0.35 -4.35 0.35 Q-4.8 0.25 -5.15 -0.55 L-5.4 -1.5 -5.3 -1.75 -5.15 -1.75 -4.55 -2.2 Q-5.0 -4.05 -5.1 -7.7 -5.3 -13.5 -3.8 -15.65 L-3.8 -15.7 -3.8 -15.75 Q-3.75 -15.75 -2.8 -16.3 L-0.05 -16.85 4.55 -16.1 Q7.2 -15.25 8.5 -13.8 9.6 -12.55 9.5 -11.35 L9.15 -10.45 Q8.85 -10.1 8.4 -10.05 7.65 -10.0 7.2 -9.15 M9.05 -11.45 Q9.15 -12.35 8.2 -13.4 7.0 -14.75 4.45 -15.55 L-0.05 -16.3 Q-2.35 -16.25 -3.5 -15.3 -4.9 -13.25 -4.7 -7.8 -4.6 -4.85 -4.15 -2.3 L-4.2 -1.95 Q-4.45 -1.55 -4.95 -1.3 -4.65 -0.2 -4.3 -0.2 L-3.7 -0.2 -3.5 -0.2 -3.15 -0.1 -2.65 0.4 Q-1.45 1.9 -1.05 1.85 L-1.0 1.85 -0.55 1.7 0.3 1.5 1.3 1.65 1.85 1.7 Q3.05 1.7 4.95 0.85 6.8 0.05 7.05 -0.4 L7.9 -1.5 7.4 -1.9 7.1 -1.7 Q6.95 -1.55 6.8 -1.55 L6.4 -1.85 Q6.05 -2.5 5.95 -4.5 5.8 -6.5 6.05 -7.4 L6.2 -7.75 6.9 -9.55 Q7.5 -10.55 8.4 -10.55 9.0 -10.65 9.05 -11.45" fill="#344531" fill-rule="evenodd" stroke="none"/>
    <path d="M-2.4 -15.65 L-3.35 -15.1 Q-4.65 -13.1 -4.45 -7.8 L-4.2 -4.1 -3.95 -2.4 -4.05 -1.8 Q-4.25 -1.4 -4.7 -1.15 -4.45 -0.45 -4.25 -0.45 L-4.0 -0.4 -3.7 -0.45 -3.5 -0.45 -3.05 -0.3 -2.5 0.25 -1.05 1.6 -0.6 1.45 0.3 1.25 0.35 1.25 1.35 1.45 1.75 1.5 1.8 1.45 Q3.0 1.45 4.9 0.6 6.65 -0.15 6.85 -0.55 L7.6 -1.55 7.4 -1.65 7.25 -1.5 Q7.1 -1.35 6.8 -1.3 L6.25 -1.7 Q5.85 -2.4 5.75 -4.5 5.55 -6.55 5.85 -7.45 L5.95 -7.8 6.0 -7.85 6.75 -9.7 Q7.4 -10.75 8.4 -10.8 8.8 -10.9 8.85 -11.45 8.95 -12.3 8.05 -13.25 6.85 -14.55 4.4 -15.35 2.1 -16.1 -0.05 -16.05 L-2.4 -15.65 M7.35 -9.0 L6.75 -7.5 6.65 -7.1 Q6.4 -6.35 6.55 -4.3 6.65 -3.05 6.85 -2.5 L7.4 -2.7 Q8.15 -2.7 8.6 -1.65 L8.8 -1.1 8.35 -0.95 8.05 -0.7 7.55 -0.05 Q7.2 0.7 5.15 1.6 3.1 2.45 1.85 2.5 L1.75 2.5 1.15 2.45 0.35 2.25 0.3 2.25 -0.35 2.45 -0.95 2.6 -1.05 2.6 Q-1.6 2.6 -3.1 1.0 L-3.45 0.55 -3.5 0.55 -3.65 0.6 -4.35 0.6 Q-4.9 0.5 -5.3 -0.4 L-5.65 -1.5 Q-5.55 -2.1 -5.15 -2.05 L-4.8 -2.3 -5.3 -7.7 Q-5.5 -13.65 -4.0 -15.85 L-3.9 -15.95 -2.95 -16.5 -0.05 -17.1 4.65 -16.3 Q7.35 -15.45 8.7 -13.9 9.8 -12.65 9.7 -11.35 9.65 -10.7 9.3 -10.25 8.95 -9.8 8.4 -9.8 7.75 -9.75 7.35 -9.0" fill="#344531" fill-rule="evenodd" stroke="none"/>
    <path d="M3.75 -6.8 Q4.2 -6.55 4.3 -6.1 4.4 -5.4 3.4 -5.05 4.45 -4.6 4.35 -3.75 4.25 -3.15 3.75 -2.8 L3.3 -2.75 2.85 -2.8 Q3.2 -2.35 2.95 -1.8 2.7 -1.2 1.95 -1.1 1.4 -0.95 0.85 -1.5 L0.6 -2.0 0.7 -2.5 Q0.15 -1.85 -0.65 -1.85 L-1.4 -2.25 -1.8 -2.95 -1.7 -4.15 -1.5 -4.6 -2.05 -4.7 Q-2.6 -4.85 -2.6 -5.7 L-2.35 -6.55 -1.7 -6.85 -1.8 -7.0 Q-2.05 -7.5 -1.7 -8.25 -1.45 -8.8 -0.8 -8.8 0.05 -8.8 0.6 -8.05 L0.8 -7.4 0.9 -7.75 1.1 -8.15 Q1.35 -8.7 1.8 -8.65 2.7 -8.6 2.95 -7.75 3.15 -7.05 2.9 -6.8 3.25 -7.0 3.75 -6.8" fill="#222222" fill-opacity="0.49803922" fill-rule="evenodd" stroke="none"/>
    <path d="M2.7 -8.8 L3.3 -7.9 3.45 -7.35 4.2 -7.0 4.65 -6.15 Q4.75 -5.5 4.25 -5.05 4.9 -4.45 4.75 -3.7 4.65 -2.9 3.95 -2.4 3.75 -2.2 3.55 -2.2 L3.45 -2.2 3.3 -1.6 Q3.0 -0.75 2.0 -0.6 L1.8 -0.6 Q1.1 -0.6 0.6 -1.15 L0.3 -1.65 -0.65 -1.4 Q-1.1 -1.4 -1.6 -1.85 -2.1 -2.35 -2.2 -2.8 L-2.05 -4.2 -2.4 -4.35 Q-2.95 -4.7 -3.0 -5.65 -3.0 -6.45 -2.6 -6.9 L-2.25 -7.2 Q-2.35 -7.8 -2.05 -8.45 -1.65 -9.25 -0.85 -9.3 L-0.8 -9.3 Q0.1 -9.3 0.8 -8.5 1.1 -9.15 1.7 -9.15 L1.85 -9.15 2.7 -8.8 M2.6 -7.6 Q2.45 -8.15 1.8 -8.2 L1.7 -8.2 1.45 -7.95 1.4 -7.9 1.2 -7.35 1.25 -6.7 0.7 -6.9 Q0.4 -7.0 0.45 -7.45 L0.3 -7.75 Q-0.1 -8.35 -0.8 -8.35 -1.15 -8.35 -1.4 -8.0 L-1.45 -7.25 -1.4 -7.15 -0.85 -6.25 -1.75 -6.35 -2.05 -6.2 -2.25 -5.7 -2.1 -5.25 -1.6 -5.1 Q-1.3 -5.1 -1.2 -4.9 L-1.1 -4.5 -1.25 -4.05 -1.3 -3.95 -1.45 -3.05 -1.15 -2.65 -0.65 -2.35 Q0.0 -2.35 0.45 -2.85 L1.05 -2.3 1.0 -2.05 1.1 -1.85 Q1.45 -1.5 1.9 -1.55 L2.65 -2.0 2.6 -2.5 2.1 -3.1 2.8 -3.3 2.95 -3.3 3.5 -3.2 3.55 -3.25 4.0 -3.85 3.25 -4.6 2.15 -5.1 3.3 -5.5 3.9 -6.0 3.7 -6.3 3.25 -6.45 3.1 -6.4 2.65 -7.15 2.6 -7.6" fill="#5e704a" fill-opacity="0.49803922" fill-rule="evenodd" stroke="none"/>
    <path d="M0.75 -6.9 L1.65 -6.7 Q2.55 -6.3 2.35 -4.95 2.1 -3.8 1.05 -3.65 -0.05 -3.55 -0.4 -4.8 -0.6 -5.4 -0.4 -6.05 L-0.05 -6.5 Q0.35 -6.9 0.75 -6.9" fill="#222222" fill-rule="evenodd" stroke="none"/>
    <path d="M0.7 -6.4 L0.15 -6.1 -0.05 -5.8 -0.05 -4.95 Q0.2 -4.15 0.9 -4.15 L1.55 -4.35 Q1.9 -4.65 1.95 -5.1 2.15 -5.95 1.55 -6.25 L0.75 -6.4 0.7 -6.4 M2.7 -4.85 L2.1 -3.7 Q1.6 -3.2 0.95 -3.15 -0.35 -3.1 -0.75 -4.65 -1.05 -5.6 -0.75 -6.25 -0.25 -7.35 0.7 -7.35 L0.75 -7.35 1.8 -7.15 2.6 -6.25 Q2.85 -5.65 2.7 -4.85" fill="#5e704a" fill-rule="evenodd" stroke="none"/>
    <path d="M3.75 -6.8 Q4.2 -6.55 4.3 -6.1 4.4 -5.4 3.4 -5.05 4.45 -4.6 4.35 -3.75 4.25 -3.15 3.75 -2.8 L3.3 -2.75 2.85 -2.8 Q3.2 -2.35 2.95 -1.8 2.7 -1.2 1.95 -1.1 1.4 -0.95 0.85 -1.5 L0.6 -2.0 0.7 -2.5 Q0.15 -1.85 -0.65 -1.85 L-1.4 -2.25 -1.8 -2.95 -1.7 -4.15 -1.5 -4.6 -2.05 -4.7 Q-2.6 -4.85 -2.6 -5.7 L-2.35 -6.55 -1.7 -6.85 -1.8 -7.0 Q-2.05 -7.5 -1.7 -8.25 -1.45 -8.8 -0.8 -8.8 0.05 -8.8 0.6 -8.05 L0.8 -7.4 0.9 -7.75 1.1 -8.15 Q1.35 -8.7 1.8 -8.65 2.7 -8.6 2.95 -7.75 3.15 -7.05 2.9 -6.8 3.25 -7.0 3.75 -6.8" fill="#ffffff" fill-rule="evenodd" stroke="none"/>
    <path d="M0.75 -6.9 L1.65 -6.7 Q2.55 -6.3 2.35 -4.95 2.1 -3.8 1.05 -3.65 -0.05 -3.55 -0.4 -4.8 -0.6 -5.4 -0.4 -6.05 L-0.05 -6.5 Q0.35 -6.9 0.75 -6.9" fill="#ec9537" fill-rule="evenodd" stroke="none"/>
    <path d="M1.6 -6.45 L0.75 -6.6 0.7 -6.6 Q0.15 -6.6 -0.2 -5.9 L-0.2 -4.85 Q0.1 -3.9 0.9 -3.9 1.3 -3.9 1.65 -4.2 L2.15 -5.05 Q2.3 -6.15 1.6 -6.45 M2.55 -4.95 L2.0 -3.85 Q1.55 -3.4 0.95 -3.4 0.4 -3.35 -0.05 -3.7 L-0.6 -4.7 Q-0.8 -5.35 -0.6 -6.15 L-0.15 -6.7 0.7 -7.15 0.75 -7.15 1.75 -7.0 2.45 -6.15 Q2.7 -5.6 2.55 -4.95" fill="#dfb01c" fill-rule="evenodd" stroke="none"/>
    <path d="M5.65 -20.3 Q4.35 -20.95 3.4 -20.9 1.55 -20.85 0.85 -18.3 0.35 -16.3 0.5 -14.25 0.6 -13.05 0.85 -12.3 1.7 -11.25 1.35 -10.4 L0.95 -9.75 Q0.6 -9.4 0.2 -9.4 -0.65 -9.35 -0.95 -11.1 -1.4 -13.75 -1.05 -17.15 -0.6 -21.35 1.05 -22.05 L3.0 -22.5 Q4.65 -22.55 5.85 -21.75 7.2 -20.85 7.2 -19.3 7.3 -16.6 6.1 -15.05 L6.0 -14.9 4.75 -15.4 4.95 -15.75 5.75 -17.65 Q6.25 -19.1 6.05 -19.8 L5.65 -20.3" fill="#545454" fill-rule="evenodd" stroke="none"/>
    <path d="M5.75 -21.6 Q4.6 -22.35 3.0 -22.3 L1.15 -21.9 Q-0.4 -21.2 -0.85 -17.15 -1.25 -13.85 -0.75 -11.15 -0.55 -9.6 0.2 -9.65 0.85 -9.65 1.25 -10.5 1.5 -11.15 0.7 -12.1 L0.7 -12.15 0.7 -12.2 Q0.45 -13.0 0.3 -14.3 0.15 -16.35 0.7 -18.4 1.4 -21.05 3.4 -21.15 4.35 -21.15 5.75 -20.55 L6.25 -19.85 Q6.6 -18.5 5.1 -15.65 L5.05 -15.55 5.95 -15.15 6.0 -15.2 6.55 -16.3 Q7.1 -17.65 7.05 -19.3 7.0 -20.75 5.75 -21.6 M5.6 -20.15 L3.4 -20.7 Q1.6 -20.65 1.0 -18.25 0.2 -15.15 1.0 -12.4 1.9 -11.2 1.55 -10.3 L1.05 -9.6 Q0.65 -9.2 0.2 -9.15 -0.8 -9.15 -1.15 -11.05 -1.55 -13.9 -1.2 -17.2 -0.75 -21.5 1.0 -22.3 L3.0 -22.7 Q4.75 -22.8 6.0 -21.9 7.35 -20.95 7.4 -19.3 7.5 -16.5 6.2 -14.9 L6.05 -14.65 4.5 -15.3 4.8 -15.85 5.65 -17.85 Q6.05 -19.15 5.9 -19.75 L5.6 -20.15" fill="#2d2d2d" fill-rule="evenodd" stroke="none"/>
    <path d="M5.9 -20.4 Q6.5 -20.2 6.75 -19.3 7.1 -18.4 6.95 -17.3 L6.65 -16.25 6.25 -15.45 Q6.1 -15.1 5.75 -15.2 L5.0 -15.55 6.0 -17.85 6.2 -19.15 Q6.2 -20.05 5.9 -20.4" fill="#2d2d2d" fill-rule="evenodd" stroke="none"/>
    <path d="M6.25 -20.95 L5.65 -21.3 5.0 -21.45 3.8 -21.7 1.5 -21.35 Q0.55 -20.7 0.25 -19.15 L-0.1 -16.4 -0.15 -14.6 -0.2 -12.9 0.05 -11.6 0.2 -11.05 0.25 -10.5 -0.1 -10.1 Q-0.3 -10.0 -0.5 -10.25 -0.75 -10.55 -0.8 -11.75 L-0.9 -14.8 -0.55 -17.75 0.2 -20.35 Q1.3 -22.45 4.3 -21.95 L5.35 -21.7 6.2 -21.1 6.25 -20.95" fill="#9c9b9b" fill-opacity="0.5568628" fill-rule="evenodd" stroke="none"/>
    <path d="M1.2 -10.85 L1.0 -10.15 0.45 -9.8 Q0.1 -9.8 -0.15 -10.1 L-0.4 -10.8 -0.2 -11.5 Q0.05 -11.8 0.35 -11.8 L0.95 -11.55 1.2 -10.85" fill="#222222" fill-rule="evenodd" stroke="none"/>
    <path d="M0.9 -10.9 L0.7 -10.15 0.15 -9.9 Q-0.2 -9.85 -0.45 -10.15 L-0.65 -10.85 -0.45 -11.55 0.1 -11.85 0.65 -11.55 0.9 -10.9" fill="#b6b5b5" fill-rule="evenodd" stroke="none"/>
    <path d="M0.15 -10.0 Q0.45 -10.0 0.65 -10.25 L0.85 -10.9 0.6 -11.5 Q0.4 -11.8 0.1 -11.75 L-0.4 -11.5 -0.6 -10.85 -0.4 -10.2 Q-0.15 -9.95 0.15 -10.0 M0.1 -11.95 L0.7 -11.65 1.0 -10.9 0.75 -10.15 0.15 -9.8 -0.5 -10.1 -0.75 -10.85 -0.5 -11.6 0.1 -11.95" fill="#545454" fill-rule="evenodd" stroke="none"/>
    <path d="M0.45 -10.85 Q0.5 -10.4 0.1 -10.4 -0.25 -10.4 -0.25 -10.8 L0.05 -11.25 Q0.45 -11.25 0.45 -10.85" fill="#ffffff" fill-opacity="0.6392157" fill-rule="evenodd" stroke="none"/>
    <path d="M-4.15 -1.85 L-4.05 -1.95 -3.55 -1.75 -2.6 -1.2 -1.65 -0.75 1.25 -0.3 4.15 -0.55 5.65 -0.95 Q6.35 -1.2 6.65 -1.75 L7.05 -1.75 7.3 -1.45 Q7.0 -0.9 6.3 -0.65 L4.75 -0.2 1.45 0.05 -1.85 -0.45 Q-2.9 -0.85 -4.05 -1.7 L-4.15 -1.85" fill="#649434" fill-rule="evenodd" stroke="none"/>
    <path d="M4.7 -12.7 L4.45 -12.45 3.8 -12.3 Q2.9 -12.3 2.9 -12.65 2.9 -12.95 3.8 -13.0 L4.45 -12.9 4.7 -12.7" fill="#ffffff" fill-opacity="0.65882355" fill-rule="evenodd" stroke="none"/>
    <path d="M2.45 -13.45 Q2.45 -13.25 1.65 -13.25 L0.85 -13.35 1.65 -13.55 2.45 -13.45" fill="#ffffff" fill-opacity="0.65882355" fill-rule="evenodd" stroke="none"/>
    <path d="M2.5 -12.3 Q2.5 -12.15 2.25 -12.15 2.0 -12.15 2.0 -12.3 L2.25 -12.45 2.5 -12.3" fill="#ffffff" fill-opacity="0.65882355" fill-rule="evenodd" stroke="none"/>
    <path d="M6.15 -11.85 Q6.15 -11.65 5.8 -11.65 5.4 -11.65 5.4 -11.8 5.4 -12.0 5.75 -12.0 L6.15 -11.85" fill="#ffffff" fill-opacity="0.65882355" fill-rule="evenodd" stroke="none"/>
    <path d="M10.7 -7.95 Q10.15 -8.45 9.4 -8.7 7.8 -9.25 6.55 -8.25 6.65 -9.0 7.75 -9.6 L8.85 -10.05 11.5 -8.8 Q13.6 -7.2 11.0 -5.2 L8.95 -5.35 7.75 -5.45 7.2 -4.95 Q6.75 -4.4 6.95 -4.15 7.85 -2.7 8.55 -2.75 9.15 -2.75 8.55 -1.75 L7.75 -1.4 Q6.85 -1.1 6.3 -1.85 5.5 -3.05 5.8 -4.5 6.1 -6.25 8.05 -6.45 L10.4 -6.6 Q10.8 -6.65 11.05 -7.35 L10.7 -7.95" fill="#5e704a" fill-rule="evenodd" stroke="none"/>
    <path d="M-6.2 -19.3 L-6.2 -18.05 Q-6.35 -17.95 -6.6 -17.9 L-6.55 -17.5 -7.55 -16.0 -7.85 -14.9 -5.05 -9.35 Q-4.9 -5.95 -5.05 -5.7 -5.8 -8.2 -7.9 -11.0 -9.8 -13.5 -10.65 -13.85 L-12.5 -13.8 -13.7 -13.55 -13.9 -13.5 -14.25 -13.75 Q-13.5 -16.8 -9.75 -18.35 -7.9 -19.15 -6.2 -19.3" fill="url(#gradient2)" fill-rule="evenodd" stroke="none"/>
    <path d="M-7.9 -16.6 L-9.55 -15.2 -10.65 -13.85 -12.55 -13.8 -13.7 -13.55 -13.9 -13.5 -14.25 -13.75 Q-13.5 -16.8 -9.75 -18.35 -7.9 -19.15 -6.2 -19.3 L-6.2 -18.05 Q-6.35 -17.95 -6.6 -17.9 L-6.55 -17.55 -7.9 -16.6" fill="#46583c" fill-rule="evenodd" stroke="none"/>
    <path d="M-8.2 -17.35 L-9.85 -16.25 Q-11.7 -15.1 -12.8 -13.75 L-13.7 -13.55 -13.9 -13.5 -14.25 -13.75 Q-13.5 -16.8 -9.75 -18.35 -7.9 -19.15 -6.2 -19.3 L-6.2 -18.05 -6.45 -17.95 Q-7.2 -17.95 -8.2 -17.35" fill="#cde0a2" fill-rule="evenodd" stroke="none"/>
    <path d="M-8.1 -17.35 Q-10.7 -15.7 -9.55 -15.2 -9.95 -14.55 -9.2 -13.6 L-7.45 -11.8 -5.95 -10.0 -5.55 -9.25 -5.45 -8.25 -5.2 -6.6 -7.9 -10.95 -9.1 -12.5 -9.9 -13.15 -10.8 -13.85 -11.7 -13.9 -12.15 -13.9 -12.6 -13.8 -12.2 -14.4 -11.6 -14.85 -10.4 -15.95 -9.15 -16.85 -8.1 -17.35" fill="#ffffff" fill-opacity="0.2" fill-rule="evenodd" stroke="none"/>
    <path d="M-8.6 -18.75 L-9.0 -18.25 -9.55 -17.9 -10.8 -17.1 -11.8 -16.4 Q-12.4 -16.05 -12.9 -16.15 -13.0 -16.45 -12.2 -17.05 L-11.15 -17.65 -8.9 -18.55 -8.6 -18.75" fill="#ffffff" fill-opacity="0.64705884" fill-rule="evenodd" stroke="none"/>
    <path d="M-8.2 -18.55 L-7.55 -18.85 -6.9 -18.85 -7.4 -18.45 -8.0 -18.25 -8.35 -18.35 -8.1 -18.65 -8.2 -18.55" fill="#88b35c" fill-rule="evenodd" stroke="none"/>
    <path d="M-13.5 -14.75 L-12.95 -15.45 -12.6 -15.6 -12.6 -15.3 -13.25 -14.5 Q-13.85 -14.15 -13.6 -14.8 L-13.5 -14.75" fill="#88b35c" fill-rule="evenodd" stroke="none"/>
    <path d="M-10.85 -16.65 Q-10.6 -17.2 -9.8 -17.4 -9.45 -17.4 -9.6 -17.1 L-9.95 -16.7 -10.85 -16.1 Q-11.4 -16.05 -10.95 -16.75 L-10.85 -16.65" fill="#88b35c" fill-rule="evenodd" stroke="none"/>
    <path d="M-11.5 -16.1 Q-11.2 -15.85 -11.7 -15.25 -12.2 -14.75 -12.4 -14.9 L-12.45 -15.4 -12.2 -15.85 -12.2 -15.75 -11.85 -16.0 -11.5 -16.1" fill="#88b35c" fill-rule="evenodd" stroke="none"/>
    <path d="M-8.95 -17.8 L-8.55 -18.05 Q-8.1 -18.1 -8.3 -17.75 -8.4 -17.6 -8.65 -17.5 L-9.0 -17.4 -9.25 -17.65 -9.0 -17.95 -8.95 -17.8" fill="#88b35c" fill-rule="evenodd" stroke="none"/>
    <path d="M-6.4 -18.25 L-6.45 -19.0 Q-9.1 -18.6 -11.15 -17.35 -13.35 -16.05 -14.0 -13.85 L-13.9 -13.75 -13.7 -13.8 -13.6 -13.85 -12.9 -14.0 -10.65 -14.1 -10.6 -14.05 Q-9.8 -13.75 -8.1 -11.6 -6.15 -9.15 -5.2 -6.8 L-5.25 -9.3 -8.05 -14.85 -8.05 -14.95 Q-7.65 -16.95 -6.75 -17.6 L-6.8 -18.1 -6.4 -18.25 M-6.3 -17.3 L-6.45 -17.2 Q-6.9 -16.95 -7.25 -16.05 L-7.6 -14.95 -4.85 -9.45 -4.85 -9.4 Q-4.7 -5.9 -4.85 -5.55 L-4.8 -4.7 -5.25 -5.6 Q-6.2 -8.05 -8.2 -10.8 -10.0 -13.3 -10.75 -13.55 L-12.8 -13.5 -12.9 -13.45 -12.95 -13.45 -13.95 -13.2 -14.0 -13.25 -14.4 -13.55 -14.5 -13.65 -14.45 -13.8 Q-13.85 -16.25 -11.45 -17.75 -9.8 -18.85 -7.45 -19.35 L-6.25 -19.55 -6.0 -19.6 -6.0 -17.9 -6.35 -17.75 -6.3 -17.3" fill="#46583c" fill-rule="evenodd" stroke="none"/>
    <path d="M-6.25 -19.8 L-5.8 -19.85 -5.75 -17.7 -6.1 -17.6 -6.05 -17.15 -6.35 -17.0 Q-7.0 -16.65 -7.35 -14.95 L-4.65 -9.55 -4.65 -9.4 Q-4.5 -6.1 -4.65 -5.5 L-4.6 -4.7 -5.0 -4.55 -5.4 -5.45 Q-6.35 -7.9 -8.35 -10.65 -10.1 -13.1 -10.8 -13.3 L-12.8 -13.25 -13.95 -12.95 -14.05 -13.0 -14.55 -13.35 -14.7 -13.55 -14.65 -13.9 Q-14.05 -16.4 -11.6 -18.0 -9.9 -19.05 -7.5 -19.6 L-6.25 -19.8 M-7.1 -18.25 L-6.65 -18.45 -6.65 -18.7 Q-9.2 -18.3 -11.05 -17.15 -13.05 -15.9 -13.7 -14.05 L-13.65 -14.1 -12.9 -14.25 -11.4 -14.45 -10.6 -14.3 Q-9.8 -14.05 -8.2 -12.1 -6.5 -10.05 -5.45 -7.8 L-5.45 -9.25 -8.3 -14.8 -8.25 -15.0 -7.9 -16.15 Q-7.55 -17.2 -7.0 -17.75 L-7.1 -18.25 M-10.65 -13.8 Q-9.9 -13.5 -8.05 -11.0 -6.0 -8.25 -5.05 -5.7 -4.9 -5.8 -5.05 -9.35 L-5.05 -9.4 -6.1 -11.45 -5.1 -9.35 -5.0 -6.8 -5.35 -6.65 Q-6.35 -9.0 -8.25 -11.45 -9.95 -13.55 -10.65 -13.85 L-12.85 -13.75 -13.9 -13.5 -14.05 -13.55 -13.9 -13.45 -12.85 -13.75 -11.4 -13.9 -10.65 -13.8" fill="#344531" fill-rule="evenodd" stroke="none"/>
    <path d="M-6.55 -18.95 L-7.55 -18.75 -8.75 -18.5 -10.8 -17.45 -12.6 -15.95 -13.35 -15.0 -13.7 -13.95 Q-13.75 -13.8 -13.9 -13.85 L-14.0 -14.05 -13.7 -15.0 -12.95 -16.0 -11.15 -17.65 -9.0 -18.75 -7.85 -19.05 -6.55 -19.25 -6.45 -19.15 -6.55 -18.95" fill="#ffffff" fill-opacity="0.41960785" fill-rule="evenodd" stroke="none"/>
    <path d="M11.4 -7.1 L10.8 -6.25 9.8 -6.1 8.1 -6.0 Q6.55 -5.85 6.2 -4.65 6.0 -4.05 6.15 -3.3 6.25 -2.6 6.55 -2.15 6.9 -1.75 7.4 -1.75 7.9 -1.75 8.3 -2.1 L8.4 -2.3 Q7.65 -2.4 6.65 -3.85 L6.55 -4.45 Q6.6 -5.15 7.6 -5.85 L7.65 -5.9 7.8 -5.9 8.95 -5.75 10.9 -5.6 Q12.15 -6.65 12.1 -7.45 12.0 -8.1 10.9 -8.8 L8.85 -9.65 8.2 -9.35 8.25 -9.35 Q9.7 -9.4 10.9 -8.3 L10.95 -8.25 Q11.45 -7.75 11.45 -7.25 L11.45 -7.15 11.4 -7.1 M10.5 -7.6 L9.8 -8.1 8.25 -8.5 Q7.45 -8.45 6.75 -7.9 L6.1 -7.35 6.2 -8.3 Q6.35 -9.7 8.75 -10.5 L8.95 -10.5 Q10.0 -10.2 10.9 -9.7 12.55 -8.8 12.75 -7.6 12.95 -6.2 11.2 -4.85 L11.1 -4.8 11.0 -4.8 7.85 -5.0 7.25 -4.35 Q8.0 -3.15 8.5 -3.15 L9.15 -2.8 Q9.3 -2.3 8.85 -1.5 L8.8 -1.45 8.75 -1.4 Q8.1 -0.9 7.4 -0.9 6.65 -0.85 6.05 -1.6 5.6 -2.2 5.45 -3.1 5.25 -4.15 5.55 -4.95 6.1 -6.7 8.05 -6.9 L9.75 -7.0 10.5 -7.05 10.7 -7.35 10.5 -7.6" fill="#344531" fill-rule="evenodd" stroke="none"/>
    <path d="M11.0 -5.2 L8.95 -5.35 7.75 -5.45 7.2 -4.95 Q6.75 -4.4 6.95 -4.15 7.85 -2.7 8.55 -2.75 9.15 -2.75 8.6 -1.8 L8.45 -1.9 6.75 -3.3 Q6.0 -4.6 6.55 -5.5 7.05 -6.35 8.5 -6.15 10.25 -5.9 10.75 -6.15 11.85 -6.7 11.4 -7.7 L10.2 -8.9 Q9.2 -9.45 6.85 -8.3 7.1 -8.8 8.0 -9.3 L8.85 -9.75 11.5 -8.7 Q13.6 -7.2 11.0 -5.2" fill="#cde0a2" fill-opacity="0.24705882" fill-rule="evenodd" stroke="none"/>
    <path d="M11.3 -7.15 Q11.35 -8.15 9.8 -8.7 8.3 -9.1 7.1 -8.35 L6.9 -8.45 6.95 -8.7 Q8.05 -9.4 9.4 -9.15 10.6 -9.0 11.25 -8.3 L11.6 -7.55 11.55 -6.7 Q11.35 -6.15 10.6 -6.0 L9.05 -5.9 7.55 -5.7 Q6.75 -5.45 6.65 -4.6 6.5 -3.4 8.2 -2.25 L8.4 -2.15 8.55 -2.15 8.6 -2.05 8.65 -1.8 8.4 -1.75 Q7.4 -2.2 6.75 -3.1 6.0 -4.25 6.5 -5.3 6.8 -5.95 7.65 -6.15 L9.0 -6.25 10.35 -6.3 Q11.25 -6.45 11.3 -7.15" fill="#ffffff" fill-opacity="0.41960785" fill-rule="evenodd" stroke="none"/>
    <path d="M-5.15 -7.25 L-4.95 -7.45 -4.65 -6.45 Q-4.6 -5.7 -5.1 -5.9 -5.55 -5.95 -5.6 -6.6 L-5.45 -7.2 -5.15 -7.25" fill="#344531" fill-rule="evenodd" stroke="none"/>
  </g>
  <defs>
    <linearGradient gradientTransform="matrix(-0.009, 2.0E-4, -2.0E-4, -0.009, 2.05, -7.3)" gradientUnits="userSpaceOnUse" id="gradient0" spreadMethod="pad" x1="-819.2" x2="819.2">
      <stop offset="0.0" stop-color="#649434"/>
      <stop offset="0.4117647058823529" stop-color="#c7dc94" stop-opacity="0.61960787"/>
      <stop offset="0.6705882352941176" stop-color="#ffffff"/>
      <stop offset="1.0" stop-color="#86b84a"/>
    </linearGradient>
    <linearGradient gradientTransform="matrix(-0.0072, 2.0E-4, -2.0E-4, -0.0071, 1.0, -6.75)" gradientUnits="userSpaceOnUse" id="gradient1" spreadMethod="pad" x1="-819.2" x2="819.2">
      <stop offset="0.0" stop-color="#649434"/>
      <stop offset="0.4117647058823529" stop-color="#c7dc94" stop-opacity="0.61960787"/>
      <stop offset="0.6705882352941176" stop-color="#ffffff"/>
      <stop offset="1.0" stop-color="#86b84a"/>
    </linearGradient>
    <linearGradient gradientTransform="matrix(-0.0053, 0.001, -0.001, -0.0053, -9.4, -11.8)" gradientUnits="userSpaceOnUse" id="gradient2" spreadMethod="pad" x1="-819.2" x2="819.2">
      <stop offset="0.0" stop-color="#649434"/>
      <stop offset="0.6705882352941176" stop-color="#ffffff"/>
      <stop offset="1.0" stop-color="#c7dc94"/>
      <stop offset="1.0" stop-color="#86b84a"/>
    </linearGradient>
  </defs>
</svg>
