<?xml version="1.0" encoding="UTF-8" standalone="no"?>
<svg xmlns:xlink="http://www.w3.org/1999/xlink" height="25.15px" width="30.05px" xmlns="http://www.w3.org/2000/svg">
  <g transform="matrix(1.0, 0.0, 0.0, 1.0, 15.1, 20.25)">
    <path d="M14.0 -13.65 Q13.95 -12.75 13.15 -12.05 12.65 -11.65 12.85 -11.0 L13.2 -10.45 Q13.25 -9.9 12.85 -9.85 L11.85 -9.65 12.9 -7.9 Q13.9 -6.85 13.55 -6.45 L11.2 -4.3 11.0 -2.7 10.2 -2.85 9.55 -1.65 9.05 -2.25 8.0 -0.9 7.4 -1.35 7.0 -1.0 6.9 0.05 5.85 -0.5 4.85 0.55 4.4 -0.2 -1.9 3.3 -2.95 3.05 Q-3.2 2.85 -3.5 3.2 L-3.75 3.55 -4.55 2.85 Q-6.0 3.65 -6.3 3.35 L-6.15 2.45 -5.85 1.75 -7.3 1.3 -8.3 0.7 -9.05 0.15 -10.2 0.3 -11.65 0.05 Q-11.9 -0.25 -11.55 -0.55 L-11.2 -0.8 Q-13.55 -2.6 -13.55 -3.05 L-13.05 -3.8 Q-12.75 -3.95 -12.55 -4.15 -14.3 -5.05 -14.15 -5.45 -14.1 -5.7 -13.25 -6.0 L-12.4 -6.2 -12.4 -7.15 Q-13.65 -7.7 -13.7 -7.95 L-13.25 -8.45 -12.75 -8.75 -12.95 -10.45 Q-13.8 -11.65 -13.3 -12.3 L-12.1 -12.5 -11.65 -12.4 -11.15 -12.85 -10.85 -12.8 -10.25 -12.6 -8.75 -11.65 -7.65 -12.4 -7.15 -12.45 -6.35 -12.45 -5.65 -13.0 Q-5.15 -13.65 -4.7 -13.7 L-3.2 -13.45 -2.4 -13.75 -2.05 -14.2 -1.5 -14.75 Q-1.2 -14.8 -1.5 -15.65 L-0.75 -15.85 -0.9 -16.5 -0.4 -16.35 -0.8 -17.1 1.3 -17.2 1.6 -18.95 1.95 -19.25 2.8 -19.2 3.75 -17.25 4.2 -17.85 5.4 -16.3 5.95 -16.8 6.8 -15.2 7.65 -15.1 8.45 -15.9 9.15 -15.7 10.2 -16.0 10.75 -16.1 12.1 -15.6 13.4 -15.55 13.6 -15.3 Q13.75 -14.95 13.25 -14.45 13.15 -14.15 13.55 -13.85 L14.0 -13.65" fill="#ffffff" fill-rule="evenodd" stroke="none"/>
    <path d="M9.9 -16.85 L10.75 -17.0 Q11.75 -17.0 12.6 -16.3 L12.65 -16.3 13.1 -16.4 13.45 -16.5 13.75 -16.35 Q14.35 -16.05 14.5 -15.4 L14.35 -14.45 14.95 -14.2 14.9 -13.55 14.7 -12.75 Q14.4 -11.95 13.7 -11.35 L13.85 -11.1 14.05 -10.9 14.1 -10.55 Q14.2 -9.4 13.25 -9.05 L13.6 -8.45 Q15.05 -6.85 14.2 -5.85 L13.3 -5.0 12.05 -3.85 11.85 -1.7 10.65 -1.85 9.6 -0.1 9.05 -0.8 8.15 0.35 7.8 0.05 7.8 1.45 6.05 0.6 4.65 2.05 4.1 1.0 1.6 2.4 0.85 2.75 -1.6 4.15 -1.8 4.2 -2.0 4.2 -3.0 4.05 -3.45 4.9 -4.65 3.95 -6.1 4.3 -6.9 4.0 Q-7.5 3.5 -7.1 2.3 L-7.6 2.15 -9.3 1.1 -10.6 1.15 Q-11.95 1.15 -12.4 0.55 -12.75 0.05 -12.6 -0.55 L-12.55 -0.7 Q-14.45 -2.3 -14.45 -3.05 -14.45 -3.55 -14.05 -4.0 -15.3 -4.85 -15.05 -5.7 -14.85 -6.35 -13.65 -6.8 L-14.6 -7.75 Q-14.75 -8.5 -13.75 -9.25 L-13.8 -10.15 Q-14.85 -11.8 -14.0 -12.85 -13.45 -13.45 -12.55 -13.45 L-11.9 -13.4 -11.5 -13.75 -11.15 -13.75 Q-10.25 -13.75 -9.7 -13.25 L-8.8 -12.7 -8.0 -13.25 -7.8 -13.25 -6.5 -13.4 -6.45 -13.5 Q-5.6 -14.5 -4.8 -14.6 L-3.2 -14.4 -3.0 -14.5 -2.3 -15.25 -2.35 -15.4 -2.7 -16.3 -1.9 -16.5 -2.15 -17.7 -2.1 -17.65 -2.3 -18.0 0.5 -18.05 0.7 -19.3 0.85 -19.45 1.3 -19.9 Q1.8 -20.25 2.35 -20.25 L3.25 -20.0 3.4 -19.9 3.5 -19.75 3.9 -19.05 4.2 -19.4 5.5 -17.6 6.25 -18.3 7.35 -16.05 8.2 -16.9 9.15 -16.65 9.9 -16.85 M9.15 -14.8 L8.75 -14.9 7.95 -14.15 6.2 -14.35 5.7 -15.4 5.25 -14.95 4.2 -16.35 3.55 -15.4 2.35 -18.15 2.05 -16.3 0.65 -16.25 1.3 -15.05 0.35 -15.25 0.35 -15.2 -0.5 -14.95 Q-0.5 -14.65 -0.65 -14.35 L-1.15 -13.9 -1.65 -13.25 -1.8 -13.0 -3.2 -12.5 -3.55 -12.6 -4.65 -12.8 -5.05 -12.35 Q-5.65 -11.55 -6.3 -11.55 L-6.55 -11.6 -7.3 -11.55 -8.7 -10.6 -9.2 -10.85 -10.75 -11.8 -10.85 -11.5 -11.6 -11.5 -12.0 -11.55 -12.05 -11.55 -12.55 -11.65 -12.25 -11.0 -12.1 -10.8 -11.8 -8.3 -12.25 -8.05 -11.5 -7.7 -11.5 -5.5 -12.6 -5.25 -10.75 -4.25 -12.05 -3.4 -12.45 -3.1 -10.65 -1.5 -9.6 -0.7 -8.8 -0.8 -8.5 -0.55 -7.0 0.5 -4.5 1.25 -5.0 2.1 -4.95 2.1 -4.45 1.85 -3.85 2.3 -3.15 2.1 Q-2.8 2.1 -2.4 2.35 L-2.1 2.4 0.1 1.15 0.8 0.8 4.8 -1.4 5.05 -1.0 5.65 -1.6 6.2 -1.35 6.25 -1.45 6.85 -2.1 7.4 -2.55 7.85 -2.15 9.05 -3.7 9.4 -3.2 9.75 -3.8 10.25 -3.7 10.35 -4.7 12.65 -6.8 12.1 -7.45 10.4 -10.3 12.05 -10.6 11.9 -11.4 Q11.95 -12.2 12.55 -12.75 L12.95 -13.2 Q12.2 -13.8 12.35 -14.55 11.9 -14.6 11.5 -14.9 L10.75 -15.2 10.55 -15.2 9.15 -14.8" fill="#ffffff" fill-rule="evenodd" stroke="none"/>
    <path d="M11.15 -14.1 L10.3 -14.75 10.8 -15.45 11.6 -14.75 11.55 -14.65 11.15 -14.15 11.15 -14.1" fill="#586933" fill-rule="evenodd" stroke="none"/>
    <path d="M10.1 -14.2 L9.6 -15.1 9.85 -15.3 10.45 -14.45 10.1 -14.2" fill="#586933" fill-rule="evenodd" stroke="none"/>
    <path d="M10.5 -9.3 L10.1 -9.4 10.1 -9.35 10.5 -9.3 M9.6 -14.55 L9.9 -14.7 9.0 -13.7 10.1 -14.15 10.95 -14.8 10.75 -14.45 10.8 -14.5 10.55 -14.05 10.25 -13.8 10.2 -13.6 10.4 -13.55 10.5 -13.55 10.65 -13.6 11.7 -14.05 11.65 -14.0 11.55 -13.9 10.95 -13.35 11.35 -13.45 10.65 -13.05 10.65 -13.0 11.6 -13.2 11.75 -13.2 11.1 -12.7 10.5 -12.5 11.7 -12.45 10.65 -12.3 10.65 -12.1 11.5 -11.5 10.7 -11.75 10.7 -11.35 10.7 -11.3 10.9 -10.45 10.5 -11.05 10.2 -11.25 10.2 -11.1 10.7 -10.35 10.95 -9.7 11.0 -9.6 10.3 -10.15 10.25 -9.95 10.55 -9.25 Q11.0 -9.2 11.1 -8.95 L11.45 -8.15 10.55 -8.9 10.35 -8.9 11.05 -8.0 10.35 -8.3 10.35 -8.1 11.15 -7.95 10.35 -8.0 10.4 -7.25 10.5 -7.2 10.4 -7.2 10.4 -7.0 11.05 -6.95 Q11.4 -7.05 11.55 -7.2 L10.85 -6.65 11.0 -6.55 11.75 -6.6 11.45 -6.4 11.3 -6.3 10.85 -6.1 10.95 -6.0 11.35 -5.9 10.95 -5.8 10.45 -5.75 10.05 -5.65 9.7 -5.45 10.55 -5.5 9.9 -5.25 9.15 -5.2 9.0 -5.1 10.3 -4.75 9.05 -4.5 9.3 -4.15 8.05 -4.25 7.95 -4.2 Q8.55 -4.15 8.7 -3.85 L8.25 -3.9 7.75 -3.85 8.25 -3.4 Q8.4 -3.0 8.2 -2.75 L7.95 -3.1 7.7 -3.25 7.55 -3.3 7.4 -3.25 7.4 -3.2 7.3 -3.15 7.25 -3.05 7.1 -2.95 7.1 -2.9 6.8 -2.85 6.65 -2.75 6.55 -2.7 6.9 -2.0 6.3 -2.5 5.85 -2.75 5.7 -2.7 Q6.2 -2.4 6.2 -1.7 L5.85 -2.1 5.5 -2.45 Q5.7 -2.1 5.4 -1.75 L5.3 -2.35 5.2 -2.45 4.75 -2.25 5.05 -1.85 4.4 -1.9 3.85 -1.7 4.6 -1.5 3.4 -1.55 3.45 -1.25 3.35 -1.0 3.25 -1.5 3.15 -1.35 2.95 -1.0 1.55 -0.4 1.55 -0.35 1.15 -0.2 0.95 -0.25 0.35 0.05 Q0.65 0.05 0.65 0.2 L-0.05 0.35 -0.7 0.7 -0.5 0.1 -1.5 0.4 -1.15 0.55 -0.15 1.1 -0.75 0.85 -1.45 0.7 -1.35 0.85 -1.15 1.75 Q-1.4 1.2 -1.85 0.85 L-1.85 1.3 -1.95 1.7 -2.3 0.85 -2.5 0.85 -2.3 2.2 -3.05 1.2 -3.35 1.55 Q-3.25 1.4 -3.45 0.8 L-3.7 0.7 -3.6 1.5 -3.3 2.15 -4.05 0.5 Q-4.1 1.15 -4.5 1.35 -4.25 0.8 -4.55 0.3 -4.65 0.2 -4.8 0.15 -4.65 0.6 -5.05 1.0 -4.85 0.55 -5.15 -0.05 L-5.7 -0.3 Q-5.85 0.2 -5.65 0.6 L-6.25 -0.6 -6.3 -0.6 -6.55 -0.3 -6.4 -0.7 -6.45 -0.7 -7.1 0.35 -7.0 -0.4 -7.2 -1.05 -7.3 -1.15 -7.15 -0.15 Q-7.5 -0.25 -7.8 -0.9 L-7.9 -0.8 -8.05 -1.05 -7.95 -0.25 Q-8.35 -0.85 -8.4 -1.5 L-9.35 -1.3 -8.75 -1.85 Q-8.65 -2.15 -9.45 -2.25 L-10.1 -1.4 -9.8 -2.25 -10.75 -1.95 -11.15 -1.7 -10.5 -2.4 -11.15 -2.6 Q-10.55 -2.55 -10.1 -2.9 L-10.1 -3.0 Q-10.7 -2.75 -11.3 -3.2 L-10.1 -3.25 -10.1 -3.4 -10.1 -3.7 -10.85 -3.55 -10.1 -4.25 -10.1 -4.3 -10.55 -4.25 -11.15 -3.8 -10.45 -4.75 -10.4 -4.85 Q-11.0 -4.65 -11.3 -4.85 L-10.55 -4.95 -10.4 -5.05 -10.3 -5.35 -11.2 -5.3 Q-10.35 -5.7 -10.15 -5.95 L-10.1 -6.25 -10.7 -5.8 -10.7 -6.55 -11.5 -5.4 -10.75 -7.85 -11.7 -8.15 -11.0 -8.7 -11.9 -9.2 Q-10.85 -9.2 -10.85 -9.55 L-10.9 -9.65 -11.3 -10.45 -11.65 -10.95 -9.25 -10.15 -9.6 -10.8 -8.3 -10.2 -7.8 -10.35 -8.05 -10.6 -7.45 -10.45 -7.05 -10.6 -7.8 -11.05 -7.05 -10.95 -6.3 -10.8 -5.95 -10.9 -6.6 -11.35 -7.15 -11.5 -5.3 -11.2 -5.0 -12.15 -4.7 -12.2 -4.6 -12.3 -3.3 -12.15 -2.9 -12.55 -1.8 -12.85 -1.75 -12.9 -1.4 -13.55 -1.3 -13.7 -1.2 -13.75 -1.2 -13.8 -1.15 -13.8 -1.1 -13.8 -1.05 -13.85 -1.0 -13.85 -0.95 -13.85 -0.9 -13.9 -0.85 -13.9 -0.8 -13.95 -0.75 -13.95 -0.7 -13.95 -0.45 -13.95 -0.45 -14.0 -0.4 -14.0 -0.4 -14.05 -0.25 -14.15 Q-0.1 -14.6 -0.4 -15.15 L-0.1 -14.75 0.0 -14.25 0.05 -14.3 Q0.25 -14.65 0.05 -15.25 L0.3 -14.85 0.3 -15.9 0.65 -14.6 0.95 -14.75 1.1 -15.3 1.25 -14.9 1.85 -15.2 1.1 -16.0 2.3 -15.9 2.5 -17.25 4.1 -14.6 4.3 -15.7 5.25 -14.3 5.1 -15.35 5.85 -14.3 6.8 -13.55 6.5 -14.15 8.1 -13.85 8.5 -14.35 8.8 -14.85 8.5 -14.15 8.25 -13.8 8.5 -13.75 8.8 -14.0 9.6 -14.55" fill="#d7dc36" fill-rule="evenodd" stroke="none"/>
    <path d="M10.15 -11.9 L10.1 -12.4 9.55 -12.3 10.15 -11.9 M9.35 -15.0 L9.65 -15.15 9.95 -14.65 10.2 -14.9 10.5 -15.2 11.4 -14.6 11.3 -14.45 13.0 -15.15 12.1 -13.8 12.1 -13.75 12.1 -13.7 11.8 -13.35 12.05 -12.8 11.7 -12.5 11.7 -12.15 11.95 -11.7 12.55 -10.55 11.35 -11.0 11.35 -10.85 11.4 -10.55 11.25 -10.5 11.45 -9.8 11.5 -9.7 11.2 -9.55 11.55 -9.25 11.85 -8.6 11.95 -8.35 11.7 -8.2 13.05 -7.05 12.35 -7.2 12.7 -6.8 11.6 -7.2 12.0 -6.95 11.85 -6.7 12.05 -6.35 12.45 -6.3 11.7 -5.5 11.1 -5.25 10.9 -5.1 10.4 -4.85 10.4 -4.25 9.9 -4.15 10.15 -3.45 9.4 -3.6 9.8 -2.9 8.8 -3.25 Q8.9 -2.75 8.6 -2.4 L8.2 -1.9 7.65 -2.6 7.6 -2.7 7.4 -2.5 6.95 -2.6 6.85 -2.55 6.7 -2.3 6.7 -2.25 6.1 -2.1 6.05 -2.05 5.75 -2.05 5.55 -1.8 5.3 -1.0 5.3 -0.7 5.0 -0.3 4.95 -1.35 4.85 -1.35 4.6 -1.35 4.55 -1.35 4.35 -1.1 3.95 -1.1 Q3.95 -0.7 3.6 -0.5 L3.3 -0.35 3.4 -0.6 Q3.45 -0.9 3.1 -1.0 L2.75 -0.75 2.65 -0.5 2.45 -0.45 2.4 -0.4 2.05 -0.25 1.55 0.1 1.4 0.15 1.35 0.15 1.15 0.2 1.1 0.2 1.0 0.3 Q0.8 0.5 0.95 0.7 L1.0 0.8 0.65 0.75 0.1 0.85 -0.35 1.55 -0.4 1.55 -0.65 1.4 -0.6 1.6 -1.6 2.0 -1.75 1.75 -1.8 1.8 -1.75 2.1 -2.7 2.5 -3.15 2.0 -3.65 2.5 -4.2 1.75 -4.25 1.8 -5.65 2.6 -5.0 1.15 -5.5 0.7 -5.5 0.55 -6.05 0.95 -6.45 0.4 -6.55 0.4 -6.6 0.55 -7.0 0.4 -7.45 0.55 -7.35 0.3 -7.95 -0.1 -8.1 0.0 -8.1 -0.05 -8.4 0.05 -8.8 -0.85 -11.0 -0.5 -10.05 -1.4 -10.4 -1.5 -10.85 -1.3 -11.5 -2.1 -11.45 -2.2 -12.65 -3.35 -12.3 -3.35 -12.5 -3.5 -11.2 -3.7 -11.2 -3.8 -11.6 -4.1 -11.45 -4.3 -11.55 -4.35 -13.3 -5.4 -11.5 -5.35 Q-11.75 -5.4 -11.95 -5.55 L-11.45 -7.5 -12.75 -7.95 -11.95 -8.6 -12.15 -8.75 -11.9 -9.7 -11.8 -9.7 -11.5 -9.75 -12.05 -10.65 -12.85 -11.7 -11.55 -11.45 -10.3 -11.1 -10.7 -11.95 -8.25 -10.75 -8.1 -10.8 -8.05 -11.15 -8.05 -11.1 -7.9 -11.1 -7.8 -11.55 -7.25 -11.55 -7.05 -12.05 -6.1 -11.85 -5.65 -11.8 -5.45 -12.35 -5.35 -12.55 -5.2 -12.65 -4.9 -12.75 -4.2 -12.95 -3.4 -12.8 -3.15 -13.05 -2.15 -13.3 -1.9 -13.8 -1.85 -13.85 -1.75 -13.95 -1.6 -14.1 -1.5 -14.15 -1.45 -14.2 -1.4 -14.25 -1.35 -14.3 -1.3 -14.3 -1.05 -13.85 -1.3 -14.3 -1.25 -14.3 -1.15 -14.35 Q-1.05 -14.35 -1.05 -14.4 L-1.0 -14.4 -0.9 -14.45 -0.8 -14.45 -0.75 -14.45 -0.9 -14.95 -0.2 -15.25 -0.2 -15.9 0.35 -16.05 -0.1 -16.6 1.85 -16.5 2.1 -18.8 3.85 -16.0 4.05 -17.05 5.1 -15.5 5.55 -15.65 6.1 -14.8 7.9 -14.4 8.35 -15.15 9.0 -14.75 9.35 -15.0 M9.6 -13.35 L9.6 -13.4 7.9 -12.75 8.15 -13.3 7.0 -13.55 6.5 -13.1 5.45 -13.95 5.25 -14.2 4.8 -14.0 4.55 -14.35 4.35 -13.2 2.8 -15.7 2.8 -15.4 2.35 -15.4 2.65 -15.05 0.8 -14.05 0.7 -12.9 0.25 -13.8 0.2 -13.8 0.25 -13.45 -0.45 -13.45 -0.75 -13.3 -0.75 -13.4 -0.8 -13.35 -0.85 -13.35 -0.9 -13.35 -0.9 -13.3 -0.95 -13.3 -1.2 -12.8 -1.2 -12.7 -1.45 -12.35 -2.6 -12.1 -3.2 -11.5 -3.55 -11.7 -4.2 -11.9 -4.3 -11.85 -4.4 -11.85 -4.5 -11.7 -4.6 -11.7 -4.9 -10.8 -4.75 -10.7 -4.9 -10.65 -4.95 -10.6 -5.1 -10.6 -8.3 -9.65 -8.45 -9.7 -8.2 -9.15 -10.45 -10.05 -10.4 -9.8 -10.35 -9.65 Q-10.3 -9.3 -10.55 -9.05 L-10.05 -8.8 -10.6 -8.35 -10.25 -8.2 -10.2 -8.25 -10.2 -8.2 -10.1 -8.15 -10.2 -7.95 -10.2 -6.8 -9.3 -7.45 -9.9 -4.85 -9.6 -4.9 -9.55 -2.9 -9.25 -2.9 -9.3 -2.8 -8.85 -2.85 -8.9 -2.7 -8.35 -2.3 -8.25 -2.0 -7.9 -2.1 -7.85 -1.5 -7.8 -1.55 -7.8 -1.95 -6.8 -1.45 -6.75 -1.3 -6.7 -1.4 -3.25 0.3 -3.2 0.2 -3.05 0.35 -2.7 0.25 -2.95 -0.5 -2.3 -0.1 -2.0 0.0 0.75 -0.85 0.65 -0.7 1.4 -1.2 1.45 -0.9 2.6 -1.4 2.65 -1.5 2.25 -1.85 3.05 -2.0 3.25 -2.25 3.4 -2.1 3.55 -2.1 3.55 -2.15 3.75 -2.25 3.7 -2.3 4.6 -2.75 4.65 -2.75 4.5 -3.0 5.05 -3.0 5.8 -3.35 6.2 -3.15 6.45 -3.2 6.55 -3.35 6.85 -3.4 6.95 -3.5 6.95 -3.55 6.8 -3.75 5.95 -3.8 7.7 -4.6 7.4 -4.75 8.05 -4.85 7.6 -4.95 9.9 -6.15 10.0 -6.2 9.95 -6.25 10.2 -6.35 9.55 -6.65 9.9 -6.8 9.75 -8.75 9.7 -8.85 9.45 -8.9 9.5 -9.1 9.4 -9.25 9.55 -9.25 9.9 -10.65 9.75 -10.8 9.3 -12.3 8.8 -12.2 9.95 -13.15 9.6 -13.35" fill="#586933" fill-rule="evenodd" stroke="none"/>
    <path d="M11.85 -12.7 L11.4 -13.65 Q11.9 -14.0 12.2 -14.0 L12.5 -13.9 13.0 -13.65 12.65 -13.15 Q12.5 -12.85 11.85 -12.7" fill="#586933" fill-rule="evenodd" stroke="none"/>
    <path d="M11.3 -14.5 L10.45 -15.1 10.7 -15.4 11.55 -14.8 11.3 -14.5" fill="#586933" fill-rule="evenodd" stroke="none"/>
    <path d="M-0.4 -15.05 L-0.45 -15.25 0.45 -15.65 0.55 -15.4 -0.4 -15.05" fill="#586933" fill-rule="evenodd" stroke="none"/>
    <path d="M-0.85 -14.9 L-0.95 -15.05 0.05 -15.5 0.1 -15.35 -0.85 -14.9" fill="#586933" fill-rule="evenodd" stroke="none"/>
    <path d="M11.4 -7.5 L10.65 -9.0 10.5 -9.5 11.45 -9.9 11.6 -9.2 11.4 -7.5" fill="#586933" fill-rule="evenodd" stroke="none"/>
    <path d="M12.0 -6.15 L11.45 -7.05 11.6 -7.15 12.25 -6.4 12.0 -6.15" fill="#586933" fill-rule="evenodd" stroke="none"/>
    <path d="M-10.9 -3.05 L-11.1 -4.05 -10.95 -4.1 -10.7 -3.05 -10.9 -3.05" fill="#586933" fill-rule="evenodd" stroke="none"/>
    <path d="M-9.65 -1.05 L-10.65 -1.35 -10.55 -1.65 -9.6 -1.3 -9.65 -1.05" fill="#586933" fill-rule="evenodd" stroke="none"/>
    <path d="M10.4 -14.2 L10.2 -13.6 10.95 -13.25 10.0 -12.5 10.65 -12.45 10.7 -10.9 10.2 -11.25 10.4 -10.5 10.05 -9.25 11.05 -8.0 10.35 -8.3 10.45 -6.8 11.45 -6.4 9.0 -5.1 10.3 -4.75 8.4 -4.4 7.35 -3.9 7.85 -3.35 6.85 -3.2 3.4 -1.6 2.95 -1.2 2.1 -0.85 1.95 -1.15 1.35 -0.55 -0.4 0.45 -0.4 0.05 -1.6 0.45 -1.35 0.85 -2.5 0.85 -2.3 2.2 -3.3 0.85 -7.45 -1.2 -7.9 -0.8 -8.3 -1.5 -9.35 -1.3 -8.75 -1.85 Q-8.65 -2.15 -9.5 -2.25 L-10.6 -2.0 -11.15 -1.7 -10.05 -2.8 -10.1 -4.3 -10.55 -4.25 -10.1 -6.25 -10.7 -5.8 -10.7 -6.55 -11.5 -5.4 -10.75 -7.85 -11.7 -8.15 -11.0 -8.7 -11.9 -9.2 Q-10.7 -9.15 -10.9 -9.65 L-11.3 -10.45 -11.65 -10.95 -9.25 -10.15 -9.6 -10.8 -8.3 -10.2 -5.0 -11.2 -4.3 -11.8 -3.3 -12.15 -2.9 -12.55 -1.7 -12.85 -1.25 -13.1 -0.3 -13.5 -0.4 -14.05 1.85 -15.2 1.1 -16.0 2.3 -15.9 2.5 -17.25 4.1 -14.6 4.3 -15.7 5.25 -14.3 5.1 -15.35 5.85 -14.3 6.8 -13.55 6.5 -14.15 8.85 -13.7 10.4 -14.2" fill="#94c149" fill-rule="evenodd" stroke="none"/>
    <path d="M10.45 -13.5 L10.95 -13.25 10.0 -12.5 10.65 -12.45 10.7 -10.9 10.2 -11.25 10.4 -10.5 10.05 -9.25 11.05 -8.0 10.35 -8.3 10.45 -6.8 11.45 -6.4 9.0 -5.1 10.3 -4.75 8.4 -4.4 7.35 -3.9 7.85 -3.35 6.85 -3.2 3.4 -1.6 2.95 -1.2 2.1 -0.85 1.95 -1.15 1.35 -0.55 -0.4 0.45 -0.4 0.05 -1.6 0.45 -1.35 0.85 -2.4 0.85 -2.2 0.4 Q-2.15 0.3 -2.25 0.15 L-2.45 0.1 -2.55 0.15 -2.45 -0.55 -2.5 -0.85 -2.4 -1.05 -2.45 -1.3 -2.65 -1.4 -2.7 -1.4 -2.7 -1.45 -2.75 -1.7 -2.65 -1.95 -2.65 -2.15 -2.75 -2.25 -2.65 -2.45 -2.6 -2.7 -2.45 -2.75 -2.4 -3.0 -2.7 -3.85 -2.45 -3.75 -2.25 -3.8 -2.2 -4.1 -3.15 -5.95 -3.15 -6.25 -3.0 -6.5 -2.15 -6.6 -1.3 -6.7 -1.15 -6.9 -0.4 -7.25 Q-0.15 -7.4 -0.3 -7.65 L0.85 -8.1 1.7 -8.5 2.55 -8.9 2.6 -8.95 2.7 -9.05 2.85 -9.25 2.85 -9.3 3.6 -9.45 3.75 -9.7 4.6 -9.85 Q5.1 -9.95 5.45 -10.15 L5.55 -10.3 5.5 -10.5 5.4 -10.55 6.25 -10.7 Q6.5 -10.75 6.35 -11.05 L6.5 -11.05 6.55 -11.05 Q7.15 -10.9 7.75 -11.05 L8.9 -11.4 9.05 -11.65 8.9 -11.85 8.2 -11.85 9.15 -12.65 10.45 -13.5" fill="#7ba242" fill-rule="evenodd" stroke="none"/>
    <path d="M0.8 -7.6 L0.1 -8.25 -0.55 -8.65 -4.8 -11.0 -5.35 -10.8 -5.1 -11.4 -4.75 -12.05 Q-4.25 -12.3 -3.65 -11.8 L0.8 -9.75 1.85 -8.6 2.05 -8.7 Q2.2 -8.65 1.95 -7.8 1.7 -6.85 1.95 -4.15 2.2 -1.5 2.45 -1.25 2.8 -0.9 2.35 -0.3 L0.95 0.35 Q0.55 0.5 0.85 0.0 L0.85 -0.75 0.7 -1.1 Q1.0 -6.95 0.8 -7.6" fill="#222222" fill-opacity="0.49803922" fill-rule="evenodd" stroke="none"/>
    <path d="M-1.1 -13.75 L-0.5 -13.75 0.25 -12.85 Q1.15 -12.1 2.35 -12.3 3.6 -12.5 4.95 -11.85 L6.2 -11.05 6.8 -9.7 Q7.1 -8.3 6.8 -6.75 6.45 -5.25 6.5 -3.8 L6.6 -2.45 6.25 -1.95 5.75 -1.9 Q5.25 -2.45 5.55 -3.95 L6.0 -7.0 Q6.2 -9.7 4.0 -11.05 L2.65 -11.3 1.15 -11.4 Q0.45 -11.65 -0.3 -12.15 L-1.2 -12.8 -1.95 -12.75 -1.1 -13.75" fill="#222222" fill-opacity="0.49803922" fill-rule="evenodd" stroke="none"/>
    <path d="M1.15 -9.95 L2.25 -8.8 2.35 -8.65 2.35 -8.0 Q2.2 -7.0 2.4 -4.3 2.6 -1.7 2.85 -1.4 3.15 -1.1 2.75 -0.5 L1.35 0.2 Q0.95 0.3 1.25 -0.25 L1.3 -1.0 1.15 -1.3 Q1.4 -7.1 1.15 -7.8 L-0.1 -8.85 -4.4 -11.2 -5.0 -11.0 Q-5.3 -10.8 -5.35 -10.9 L-5.2 -11.55 -4.6 -12.2 Q-4.1 -12.5 -3.25 -12.0 L1.15 -9.95" fill="#f2b144" fill-rule="evenodd" stroke="none"/>
    <path d="M-1.8 -13.05 L-1.5 -13.55 Q-1.3 -13.85 -0.75 -13.95 L-0.1 -13.95 0.7 -13.05 Q1.55 -12.25 2.8 -12.45 4.05 -12.65 5.25 -12.0 L6.4 -11.2 7.0 -9.95 Q7.4 -8.55 7.15 -6.95 6.85 -4.35 7.0 -2.7 6.9 -2.25 6.65 -2.15 L6.15 -2.1 Q5.65 -2.65 5.9 -4.15 L6.4 -7.2 Q6.55 -9.85 4.4 -11.25 L3.1 -11.5 1.55 -11.6 Q0.85 -11.8 0.1 -12.35 L-0.8 -13.0 -1.35 -13.05 -1.8 -12.85 -1.8 -13.05" fill="#f2b144" fill-rule="evenodd" stroke="none"/>
    <path d="M2.0 -6.75 L1.95 -7.8 1.8 -8.75 0.5 -10.0 -1.2 -10.8 -3.35 -11.65 -4.3 -11.95 -4.85 -12.0 -4.6 -12.2 Q-4.1 -12.5 -3.25 -12.0 L1.15 -9.95 2.25 -8.8 2.35 -8.65 2.35 -8.0 Q2.2 -7.0 2.4 -4.3 2.6 -1.7 2.85 -1.4 3.15 -1.1 2.75 -0.5 L2.4 -0.3 2.35 -2.3 2.1 -4.3 2.0 -6.75" fill="#fce13b" fill-rule="evenodd" stroke="none"/>
    <path d="M0.25 -13.0 Q-0.6 -13.5 -1.35 -13.6 L-0.7 -13.95 -0.1 -13.95 0.7 -13.05 Q1.55 -12.25 2.8 -12.45 4.05 -12.65 5.25 -12.0 L6.4 -11.2 7.0 -9.95 Q7.4 -8.55 7.15 -6.95 6.85 -4.35 7.0 -2.7 L6.8 -2.25 Q6.4 -3.4 6.75 -6.45 7.0 -9.2 6.2 -10.5 5.55 -11.65 4.35 -11.95 L3.2 -12.1 2.0 -12.2 1.1 -12.5 0.25 -13.0" fill="#fce13b" fill-rule="evenodd" stroke="none"/>
    <path d="M-3.9 -12.0 L-3.85 -12.0 -4.5 -11.3 -5.0 -11.05 -5.25 -11.0 -5.15 -11.6 -4.6 -12.3 -3.9 -12.0" fill="#c17f34" fill-rule="evenodd" stroke="none"/>
    <path d="M-2.15 -11.2 L-1.55 -10.95 -2.45 -10.15 -3.05 -10.5 -2.15 -11.2" fill="#c17f34" fill-rule="evenodd" stroke="none"/>
    <path d="M-0.95 -10.7 L0.05 -10.3 -1.4 -9.55 -2.05 -9.95 -0.95 -10.7" fill="#c17f34" fill-rule="evenodd" stroke="none"/>
    <path d="M0.65 -9.95 L1.4 -9.35 -0.05 -8.8 -0.1 -8.85 -0.9 -9.3 0.65 -9.95" fill="#c17f34" fill-rule="evenodd" stroke="none"/>
    <path d="M1.85 -8.65 L2.05 -8.1 1.0 -8.0 0.4 -8.45 1.7 -8.95 1.85 -8.65" fill="#c17f34" fill-rule="evenodd" stroke="none"/>
    <path d="M2.15 -7.6 L2.15 -6.7 1.3 -6.55 1.25 -7.55 2.15 -7.6" fill="#c17f34" fill-rule="evenodd" stroke="none"/>
    <path d="M2.1 -6.25 L2.05 -5.45 1.3 -5.1 1.3 -6.0 2.1 -6.25" fill="#c17f34" fill-rule="evenodd" stroke="none"/>
    <path d="M2.35 -2.6 L1.35 -2.3 1.35 -2.9 2.2 -3.5 2.35 -2.6" fill="#c17f34" fill-rule="evenodd" stroke="none"/>
    <path d="M2.4 -2.1 L2.55 -1.35 2.4 -1.35 1.15 -1.25 1.15 -1.3 Q1.35 -1.2 1.35 -1.8 L2.4 -2.1" fill="#c17f34" fill-rule="evenodd" stroke="none"/>
    <path d="M2.4 -1.3 L2.5 -0.4 1.35 0.2 Q0.95 0.3 1.25 -0.25 L1.3 -0.8 1.9 -1.05 2.4 -1.3" fill="#c17f34" fill-rule="evenodd" stroke="none"/>
    <path d="M2.0 -4.9 L2.15 -4.0 1.35 -3.55 1.3 -4.55 1.45 -4.6 2.0 -4.95 2.0 -4.9" fill="#c17f34" fill-rule="evenodd" stroke="none"/>
    <path d="M-2.85 -11.45 L-2.7 -11.4 -3.45 -10.7 -4.1 -11.05 -3.35 -11.7 -2.85 -11.45" fill="#c17f34" fill-rule="evenodd" stroke="none"/>
    <path d="M-1.15 -13.85 L-0.85 -13.8 -1.3 -13.1 Q-1.6 -12.9 -1.8 -12.85 L-1.55 -13.6 -1.2 -13.9 -1.15 -13.85" fill="#c17f34" fill-rule="evenodd" stroke="none"/>
    <path d="M-0.25 -13.5 L0.1 -13.3 -0.3 -12.65 -0.7 -12.95 -0.25 -13.5" fill="#c17f34" fill-rule="evenodd" stroke="none"/>
    <path d="M0.5 -13.05 L0.85 -12.75 0.5 -12.1 Q0.3 -12.2 0.05 -12.35 L0.1 -12.4 Q0.05 -12.7 0.5 -13.05" fill="#c17f34" fill-rule="evenodd" stroke="none"/>
    <path d="M1.25 -12.5 L1.7 -12.3 1.3 -11.7 0.85 -11.85 1.25 -12.5" fill="#c17f34" fill-rule="evenodd" stroke="none"/>
    <path d="M2.55 -12.0 L2.35 -11.5 1.75 -11.55 2.05 -12.1 2.25 -12.05 2.55 -12.0" fill="#c17f34" fill-rule="evenodd" stroke="none"/>
    <path d="M3.0 -12.0 L3.4 -12.05 3.3 -11.5 2.8 -11.5 3.0 -12.0" fill="#c17f34" fill-rule="evenodd" stroke="none"/>
    <path d="M3.85 -12.1 L4.35 -12.1 4.05 -11.4 3.7 -11.5 3.85 -12.1" fill="#c17f34" fill-rule="evenodd" stroke="none"/>
    <path d="M4.85 -12.0 L5.3 -11.75 4.65 -11.05 4.4 -11.25 Q4.45 -11.65 4.85 -12.0" fill="#c17f34" fill-rule="evenodd" stroke="none"/>
    <path d="M5.95 -11.2 L6.3 -10.75 5.35 -10.45 5.0 -10.75 5.6 -11.35 5.75 -11.4 5.95 -11.2" fill="#c17f34" fill-rule="evenodd" stroke="none"/>
    <path d="M6.5 -10.35 L6.75 -9.7 5.95 -9.5 5.65 -10.05 6.5 -10.35" fill="#c17f34" fill-rule="evenodd" stroke="none"/>
    <path d="M6.85 -9.15 L6.9 -8.25 6.5 -8.25 6.35 -8.25 6.2 -9.05 6.85 -9.2 6.85 -9.15" fill="#c17f34" fill-rule="evenodd" stroke="none"/>
    <path d="M6.9 -7.75 L6.85 -6.9 6.4 -6.9 6.4 -7.7 6.9 -7.75" fill="#c17f34" fill-rule="evenodd" stroke="none"/>
    <path d="M6.75 -2.6 L6.85 -2.3 6.65 -2.15 6.15 -2.1 5.9 -2.55 6.75 -2.6" fill="#c17f34" fill-rule="evenodd" stroke="none"/>
    <path d="M6.55 -3.65 L6.65 -3.1 5.75 -3.05 5.9 -3.35 6.1 -3.65 6.3 -3.55 6.55 -3.65" fill="#c17f34" fill-rule="evenodd" stroke="none"/>
    <path d="M6.85 -5.05 L6.95 -4.15 Q6.2 -3.95 6.15 -4.3 L6.15 -4.4 6.2 -5.15 6.85 -5.05" fill="#c17f34" fill-rule="evenodd" stroke="none"/>
    <path d="M6.85 -6.4 L6.85 -5.55 6.25 -5.65 6.35 -6.4 6.85 -6.4" fill="#c17f34" fill-rule="evenodd" stroke="none"/>
    <path d="M-2.05 -6.6 L-2.9 -6.1 -1.95 -5.55 -3.25 -5.15 -3.0 -4.9 -2.9 -5.0 -2.75 -4.65 -2.55 -4.55 -2.5 -4.4 -2.55 -4.45 -1.95 -3.8 -2.8 -4.0 -2.75 -3.8 -1.9 -2.4 -2.95 -2.55 -2.95 -2.45 -2.25 -2.2 -2.75 -1.8 -2.75 -1.55 -2.1 -1.55 -2.85 0.4 -2.7 0.4 -2.6 0.35 -2.5 0.35 -2.4 0.5 -2.45 0.65 -2.45 0.85 -2.5 0.85 -2.3 2.2 -3.3 0.85 -7.45 -1.2 -7.9 -0.8 -8.3 -1.5 -9.35 -1.3 -8.75 -1.85 Q-8.65 -2.15 -9.5 -2.25 L-10.6 -2.0 -11.15 -1.7 -10.05 -2.8 -10.1 -4.3 -10.55 -4.25 -10.1 -6.25 -10.7 -5.8 -10.7 -6.55 -11.5 -5.4 -10.75 -7.85 -11.7 -8.15 -11.0 -8.7 -11.9 -9.2 Q-10.85 -9.15 -10.85 -9.55 -10.65 -9.55 -11.1 -10.25 L-11.5 -10.9 -9.6 -9.55 -6.05 -7.55 -4.35 -6.6 -2.85 -7.1 -3.8 -6.5 -2.05 -6.6" fill="#c0d237" fill-rule="evenodd" stroke="none"/>
    <path d="M-5.35 -10.35 L-5.35 -10.3 -5.45 -10.3 -7.6 -9.8 -7.8 -10.3 -8.15 -10.6 -6.75 -10.2 -7.8 -11.05 -7.05 -10.95 -6.3 -10.8 -5.55 -10.6 -6.6 -11.35 -7.15 -11.5 -5.35 -11.2 -5.3 -11.15 -5.35 -10.35" fill="#94c149" fill-rule="evenodd" stroke="none"/>
    <path d="M0.55 -15.1 L0.8 -14.3 0.2 -14.15 0.3 -15.9 0.55 -15.1 M1.3 -14.75 L1.6 -14.5 0.8 -14.3 0.95 -14.8 1.1 -15.3 1.3 -14.75" fill="#94c149" fill-rule="evenodd" stroke="none"/>
    <path d="M-0.65 -7.45 Q-0.6 -7.4 -0.35 -7.3 L-0.05 -7.1 0.4 -6.1 -0.55 -7.15 -1.1 -7.25 -1.65 -7.3 -0.65 -7.45" fill="#94c149" fill-rule="evenodd" stroke="none"/>
    <path d="M-1.0 -7.2 Q-0.75 -7.15 -0.6 -6.4 -0.5 -5.65 -0.8 -5.5 L-1.0 -6.6 -1.5 -7.1 -2.1 -7.2 -1.0 -7.2" fill="#94c149" fill-rule="evenodd" stroke="none"/>
    <path d="M3.75 -6.55 L4.5 -6.8 3.6 -6.15 4.6 -6.1 4.3 -6.05 4.0 -6.0 4.7 -5.5 3.75 -5.7 3.95 -5.15 4.1 -4.55 3.85 -5.1 3.55 -5.65 3.3 -4.6 3.3 -5.2 2.9 -5.75 3.15 -6.1 3.75 -6.55" fill="#94c149" fill-rule="evenodd" stroke="none"/>
    <path d="M9.15 -10.85 L8.5 -10.55 9.2 -10.65 Q9.75 -10.65 9.8 -10.35 L9.1 -10.45 9.25 -10.3 Q9.35 -10.25 9.55 -10.15 L10.1 -9.6 9.75 -9.7 9.4 -9.85 8.8 -10.0 9.4 -9.55 9.8 -9.35 10.15 -9.05 9.0 -9.35 7.85 -9.65 7.7 -10.3 Q8.8 -11.1 9.55 -11.0 L9.15 -10.85" fill="#94c149" fill-rule="evenodd" stroke="none"/>
    <path d="M11.15 -7.95 L9.2 -7.8 9.8 -7.65 10.5 -7.2 10.1 -7.35 9.7 -7.4 10.2 -6.8 10.45 -6.15 9.45 -7.0 9.75 -6.0 9.1 -6.6 9.1 -6.2 9.0 -5.75 8.55 -7.85 10.05 -8.1 10.65 -8.1 11.15 -7.95" fill="#94c149" fill-rule="evenodd" stroke="none"/>
    <path d="M-1.6 -7.4 Q-0.85 -6.3 -1.3 -5.8 L-1.65 -6.3 -1.85 -6.9 -2.3 -5.4 Q-2.9 -6.25 -2.6 -6.45 -3.6 -5.95 -3.75 -5.1 -4.0 -5.35 -3.65 -6.1 L-3.0 -6.8 -1.6 -7.4" fill="#94c149" fill-rule="evenodd" stroke="none"/>
    <path d="M-11.0 -10.6 L-9.9 -10.05 -9.25 -9.8 -8.45 -9.55 -7.45 -9.0 -7.65 -8.95 -8.35 -8.75 -9.05 -7.7 Q-9.4 -7.9 -9.15 -8.7 L-8.7 -9.25 Q-9.25 -9.2 -9.9 -8.6 L-9.5 -9.45 Q-9.8 -9.45 -10.1 -9.1 L-10.45 -8.5 Q-10.55 -9.2 -10.1 -9.15 L-10.55 -10.0 -11.0 -10.6" fill="#94c149" fill-rule="evenodd" stroke="none"/>
    <path d="M9.7 -13.4 L10.6 -13.55 11.1 -13.65 11.7 -14.0 11.2 -13.7 11.1 -13.65 10.95 -13.55 10.15 -13.25 9.4 -13.1 8.3 -12.45 7.3 -13.35 7.5 -13.4 8.1 -13.85 8.5 -14.3 8.8 -14.85 8.5 -14.15 8.05 -13.4 8.8 -14.0 9.6 -14.55 10.1 -14.85 Q9.15 -14.25 8.85 -13.4 8.95 -13.65 9.3 -13.75 L9.85 -13.95 10.8 -14.45 10.55 -14.05 9.7 -13.4" fill="#94c149" fill-rule="evenodd" stroke="none"/>
    <path d="M9.65 -13.35 L10.15 -13.4 10.65 -13.6 11.7 -14.05 Q11.25 -13.35 9.8 -12.8 L9.65 -13.35" fill="#94c149" fill-rule="evenodd" stroke="none"/>
    <path d="M11.75 -13.2 L11.7 -13.15 11.1 -12.7 8.65 -12.35 9.2 -12.95 10.35 -12.95 11.6 -13.2 11.75 -13.2 12.25 -13.45 11.95 -13.25 11.75 -13.2" fill="#94c149" fill-rule="evenodd" stroke="none"/>
    <path d="M9.35 -12.75 L8.95 -12.75 9.4 -12.95 11.35 -13.45 10.55 -12.95 9.8 -12.8 9.35 -12.75" fill="#94c149" fill-rule="evenodd" stroke="none"/>
    <path d="M9.25 -13.65 L10.4 -14.35 10.95 -14.85 10.85 -14.65 10.65 -14.25 10.2 -13.8 9.7 -13.4 9.25 -13.65" fill="#94c149" fill-rule="evenodd" stroke="none"/>
    <path d="M10.25 -11.65 Q9.9 -12.1 8.8 -12.1 9.45 -12.0 9.9 -11.55 L9.0 -11.55 8.25 -11.35 7.85 -11.65 Q7.45 -11.95 7.5 -12.15 L8.2 -12.6 8.7 -12.8 9.1 -12.6 9.7 -12.15 10.25 -11.65" fill="#94c149" fill-rule="evenodd" stroke="none"/>
    <path d="M3.7 -9.8 L3.95 -9.65 4.35 -8.95 3.65 -9.35 2.85 -9.4 3.5 -8.9 3.75 -8.3 Q3.4 -8.95 2.5 -8.9 L3.15 -10.2 3.55 -10.1 3.95 -10.05 4.45 -9.55 3.7 -9.8" fill="#94c149" fill-rule="evenodd" stroke="none"/>
    <path d="M-0.4 -15.2 L-0.1 -14.75 -0.05 -14.2 0.15 -14.8 0.1 -15.2 0.3 -14.8 0.35 -14.15 -0.3 -14.05 Q-0.1 -14.5 -0.4 -15.2" fill="#94c149" fill-rule="evenodd" stroke="none"/>
    <path d="M7.85 -4.7 L8.4 -4.6 Q9.2 -4.6 9.3 -4.15 L7.95 -4.2 8.15 -4.15 Q8.6 -4.1 8.7 -3.85 L8.25 -3.9 7.75 -3.85 8.25 -3.4 Q8.4 -3.0 8.2 -2.75 L7.95 -3.1 7.7 -3.25 7.5 -3.35 7.4 -4.5 7.85 -4.7" fill="#94c149" fill-rule="evenodd" stroke="none"/>
    <path d="M-1.55 -0.05 Q-1.2 0.0 -1.1 0.15 L-2.15 0.2 -1.15 0.55 -0.05 1.15 -0.75 0.85 -1.5 0.7 Q-1.35 0.85 -1.15 1.75 -1.4 1.2 -1.85 0.85 L-1.85 1.3 -1.95 1.7 -2.15 1.1 Q-2.3 0.65 -2.6 0.8 L-2.6 -0.1 -1.95 -0.45 -1.2 -0.45 -2.05 -0.15 -1.55 -0.05" fill="#94c149" fill-rule="evenodd" stroke="none"/>
    <path d="M11.7 -12.45 L10.25 -12.15 Q11.2 -12.1 11.5 -11.5 L10.35 -11.8 10.7 -11.3 10.9 -10.45 10.05 -11.35 10.05 -12.35 10.85 -12.5 11.7 -12.45" fill="#7ba242" fill-rule="evenodd" stroke="none"/>
    <path d="M10.2 -10.95 L10.15 -11.2 10.7 -10.35 10.95 -9.7 11.0 -9.65 10.1 -10.25 10.65 -9.25 11.1 -8.95 11.45 -8.15 10.55 -8.9 10.2 -8.9 9.9 -8.95 9.8 -9.5 Q10.2 -9.65 10.05 -10.05 L9.95 -10.45 10.05 -10.75 10.2 -10.95" fill="#7ba242" fill-rule="evenodd" stroke="none"/>
    <path d="M10.35 -7.05 L11.0 -6.95 Q11.4 -7.0 11.55 -7.2 L11.15 -6.8 Q10.9 -6.6 10.7 -6.6 L11.3 -6.55 11.85 -6.7 11.45 -6.4 10.85 -6.3 Q10.65 -6.3 10.45 -6.5 10.2 -6.75 10.25 -7.0 L10.35 -7.05" fill="#7ba242" fill-rule="evenodd" stroke="none"/>
    <path d="M9.7 -5.75 L10.2 -6.05 10.7 -6.25 10.95 -6.0 11.35 -5.9 10.95 -5.8 10.45 -5.75 9.55 -5.5 10.0 -5.45 10.55 -5.5 9.7 -5.25 8.8 -5.1 8.8 -5.2 9.7 -5.75" fill="#7ba242" fill-rule="evenodd" stroke="none"/>
    <path d="M-0.3 -0.1 L0.0 -0.2 1.15 -0.5 0.8 -0.2 0.35 0.05 Q0.65 0.05 0.65 0.2 L-0.05 0.35 -0.7 0.7 Q-0.7 0.2 -0.3 -0.1" fill="#7ba242" fill-rule="evenodd" stroke="none"/>
    <path d="M3.25 -1.8 L3.7 -2.15 4.25 -2.35 4.75 -2.25 5.05 -1.85 4.4 -1.9 3.85 -1.7 4.6 -1.5 3.4 -1.55 3.45 -1.25 3.35 -1.0 3.4 -1.3 3.15 -1.55 3.25 -1.8" fill="#7ba242" fill-rule="evenodd" stroke="none"/>
    <path d="M-1.05 -4.6 L-0.5 -4.95 0.15 -5.05 Q-0.35 -4.8 -0.55 -4.7 L0.0 -4.5 0.5 -4.1 -0.6 -4.4 -0.2 -3.65 -0.1 -2.75 -0.4 -3.5 Q-0.55 -3.95 -0.85 -4.15 -0.75 -3.45 -0.9 -3.1 -0.9 -4.0 -1.15 -4.2 L-1.25 -3.75 -1.3 -4.2 -1.4 -4.25 -1.05 -4.6" fill="#94c149" fill-rule="evenodd" stroke="none"/>
    <path d="M-7.9 -9.9 L-8.05 -9.85 -7.35 -9.7 -8.0 -9.4 -6.9 -9.4 -7.35 -9.25 -7.65 -8.85 -7.65 -9.25 -8.25 -8.95 -7.95 -9.3 Q-8.55 -9.3 -8.8 -8.9 -8.7 -9.4 -8.4 -9.55 L-9.3 -9.4 -8.55 -9.75 -9.2 -10.0 -8.55 -10.0 -7.9 -9.9" fill="#d7dc36" fill-rule="evenodd" stroke="none"/>
    <path d="M-0.85 -7.35 L-1.4 -7.4 -1.0 -6.85 -1.3 -7.1 -1.75 -7.2 -1.5 -6.6 -1.75 -6.9 -1.95 -6.95 -2.0 -7.2 -2.4 -6.4 Q-2.6 -6.6 -2.4 -7.05 L-2.75 -6.8 -2.6 -7.35 -3.35 -7.25 -4.1 -6.95 -3.5 -7.55 -3.4 -7.5 -2.85 -7.7 -3.05 -7.5 -2.15 -7.65 -2.2 -7.5 -1.3 -7.65 -1.6 -7.8 -0.25 -7.85 -1.05 -7.5 -0.25 -7.15 Q-0.4 -7.35 -0.85 -7.35" fill="#d7dc36" fill-rule="evenodd" stroke="none"/>
    <path d="M2.3 -9.4 L2.25 -9.5 2.8 -9.85 2.55 -9.95 3.15 -10.1 3.75 -10.25 4.75 -10.1 3.45 -10.1 3.95 -9.85 2.85 -9.8 3.85 -9.4 3.15 -9.5 2.5 -9.5 3.15 -8.95 2.7 -9.25 2.3 -9.4" fill="#d7dc36" fill-rule="evenodd" stroke="none"/>
    <path d="M3.4 -14.6 L2.85 -14.5 2.15 -14.3 3.1 -14.1 2.25 -14.2 1.45 -14.05 1.9 -14.05 1.6 -14.0 1.3 -13.85 0.2 -13.95 0.15 -13.95 0.4 -14.65 0.45 -14.35 0.4 -14.05 0.7 -14.3 0.95 -14.7 0.8 -14.2 1.65 -14.75 Q2.2 -15.25 1.7 -15.55 2.2 -15.3 1.95 -14.65 2.35 -14.75 2.35 -15.5 L2.5 -15.1 2.35 -14.7 2.7 -15.1 2.85 -15.5 2.9 -15.1 2.8 -14.55 3.35 -14.65 3.9 -14.55 3.4 -14.6" fill="#d7dc36" fill-rule="evenodd" stroke="none"/>
    <path d="M-10.25 -5.2 L-10.0 -5.4 -10.05 -4.55 -10.55 -4.25 -11.15 -3.8 -10.7 -4.45 -10.25 -4.9 -10.65 -4.75 -11.3 -4.85 -10.55 -4.95 -10.25 -5.2 M-10.05 -4.4 L-10.05 -3.7 -10.3 -3.65 -10.9 -3.55 Q-10.45 -3.65 -10.05 -4.4 M-10.4 -5.7 Q-10.0 -6.05 -9.95 -6.55 L-10.0 -5.4 -11.2 -5.3 -10.4 -5.7" fill="#c0d237" fill-rule="evenodd" stroke="none"/>
    <path d="M5.45 -2.95 L6.1 -2.35 6.65 -1.5 6.05 -2.0 5.1 -2.35 Q6.0 -2.1 5.9 -1.2 L5.6 -1.6 5.25 -1.95 Q5.45 -1.6 5.15 -1.3 L5.05 -1.85 4.55 -2.15 5.45 -2.95" fill="#94c149" fill-rule="evenodd" stroke="none"/>
    <path d="M-6.55 -0.3 L-6.35 -0.85 -7.1 0.35 Q-6.9 0.0 -7.05 -0.5 L-7.3 -1.3 -7.15 -0.15 -7.75 -0.75 -7.9 -1.6 -8.05 -0.9 -7.95 -0.25 Q-8.6 -1.35 -8.3 -2.05 L-6.45 -1.1 Q-6.3 -0.85 -5.5 -0.65 -5.9 0.0 -5.65 0.6 -6.2 0.05 -6.3 -0.75 -6.3 -0.4 -6.55 -0.3" fill="#c0d237" fill-rule="evenodd" stroke="none"/>
    <path d="M-9.45 -3.6 L-9.6 -2.6 Q-10.65 -2.15 -11.15 -2.6 L-10.4 -2.7 -9.8 -3.1 -10.55 -2.9 Q-11.0 -2.95 -11.3 -3.2 L-10.35 -3.25 Q-9.8 -3.3 -9.45 -3.6" fill="#c0d237" fill-rule="evenodd" stroke="none"/>
    <path d="M-9.3 -2.6 L-9.0 -2.3 Q-9.3 -2.45 -9.7 -2.0 L-10.1 -1.35 -9.9 -2.05 -9.3 -2.6" fill="#c0d237" fill-rule="evenodd" stroke="none"/>
    <path d="M-5.05 1.0 Q-4.85 0.6 -5.05 0.1 L-5.6 -0.7 -3.95 -1.05 -2.85 -1.0 -1.75 -1.05 -2.3 -0.9 -2.85 -0.55 -2.15 -0.7 -1.45 -0.6 -2.1 -0.45 -2.85 -0.1 Q-3.05 0.2 -2.7 0.4 L-2.1 0.65 -3.05 0.5 Q-2.75 1.05 -3.35 1.55 -3.2 1.35 -3.35 0.95 L-3.55 0.35 Q-3.8 0.55 -3.65 1.25 L-3.3 2.15 -4.05 0.5 -4.1 0.75 -4.5 1.35 Q-4.25 0.8 -4.45 0.4 L-5.05 -0.4 Q-4.5 0.45 -5.05 1.0" fill="#c0d237" fill-rule="evenodd" stroke="none"/>
    <path d="M-3.6 -1.55 L-2.9 -3.25 Q-2.55 -2.5 -0.85 -2.9 -2.0 -2.25 -2.9 -2.55 -2.8 -2.25 -2.15 -2.2 L-1.65 -2.2 -2.0 -2.1 -2.7 -2.05 -2.1 -1.85 -1.8 -1.8 -2.25 -1.65 -2.85 -1.2 -2.7 -1.3 -3.05 -0.85 -3.6 -1.55" fill="#c0d237" fill-rule="evenodd" stroke="none"/>
    <path d="M9.35 -12.55 L8.25 -12.15 Q8.5 -12.2 8.7 -11.95 L9.0 -11.6 8.5 -11.8 8.0 -11.7 Q8.25 -11.55 8.05 -11.3 L7.85 -11.9 7.35 -12.15 8.1 -12.3 7.45 -12.5 6.35 -12.95 Q6.55 -12.9 6.8 -13.2 L7.15 -13.8 Q7.4 -13.05 6.95 -12.8 L7.7 -13.05 8.35 -13.5 Q8.35 -13.1 7.85 -12.8 L8.55 -13.0 9.2 -13.2 9.9 -13.25 9.55 -13.1 8.85 -12.7 9.55 -12.75 10.2 -12.75 9.8 -12.6 9.35 -12.55" fill="#d7dc36" fill-rule="evenodd" stroke="none"/>
  </g>
</svg>
