<?xml version="1.0" encoding="UTF-8" standalone="no"?>
<svg xmlns:xlink="http://www.w3.org/1999/xlink" height="28.7px" width="35.75px" xmlns="http://www.w3.org/2000/svg">
  <g transform="matrix(1.0, 0.0, 0.0, 1.0, 30.85, 26.65)">
    <path d="M1.75 -19.6 Q2.5 -18.0 2.4 -16.15 2.3 -14.3 1.45 -12.7 -0.45 -9.25 -7.35 -4.8 -10.85 -2.55 -14.3 -0.85 L-14.75 -0.65 -15.2 -0.9 Q-22.85 -5.95 -24.7 -7.75 -27.0 -10.0 -27.75 -11.9 -28.7 -14.2 -28.15 -17.15 -27.5 -20.8 -24.65 -22.75 -21.75 -24.65 -18.05 -23.95 -14.7 -23.25 -13.3 -20.75 -12.85 -20.05 -12.7 -19.25 -9.2 -23.45 -4.4 -23.45 -2.35 -23.4 -0.7 -22.4 0.95 -21.35 1.75 -19.6" fill="#ffffff" fill-rule="evenodd" stroke="none"/>
    <path d="M1.75 -19.6 Q0.95 -21.35 -0.7 -22.4 -2.35 -23.4 -4.4 -23.45 -9.2 -23.45 -12.7 -19.25 -12.85 -20.05 -13.3 -20.75 -14.7 -23.25 -18.05 -23.95 -21.75 -24.65 -24.65 -22.75 -27.5 -20.8 -28.15 -17.15 -28.7 -14.2 -27.75 -11.9 -27.0 -10.0 -24.7 -7.75 -22.85 -5.95 -15.2 -0.9 L-14.75 -0.65 -14.3 -0.85 Q-10.85 -2.55 -7.35 -4.8 -0.45 -9.25 1.45 -12.7 2.3 -14.3 2.4 -16.15 2.5 -18.0 1.75 -19.6 Z" fill="none" stroke="#ffffff" stroke-linecap="butt" stroke-linejoin="miter" stroke-width="5.0"/>
  </g>
</svg>
