<?xml version="1.0" encoding="UTF-8" standalone="no"?>
<svg xmlns:xlink="http://www.w3.org/1999/xlink" height="15.95px" width="21.5px" xmlns="http://www.w3.org/2000/svg">
  <g transform="matrix(1.0, 0.0, 0.0, 1.0, -0.05, 0.0)">
    <path d="M21.0 2.9 Q22.15 5.15 20.85 7.5 19.55 9.95 14.4 13.2 L9.5 15.95 Q3.85 12.3 2.55 11.0 0.9 9.4 0.4 8.1 -0.2 6.65 0.2 4.6 0.7 2.05 2.6 0.85 4.3 -0.25 6.4 0.05 8.5 0.3 9.65 1.7 10.9 3.2 10.2 5.3 11.25 3.2 12.95 1.95 14.85 0.5 17.1 0.5 19.85 0.55 21.0 2.9" fill="#de3a3f" fill-rule="evenodd" stroke="none"/>
  </g>
</svg>
